<?xml version="1.0" encoding="utf-8"?>
<!-- Generator: Adobe Illustrator 26.0.3, SVG Export Plug-In . SVG Version: 6.00 Build 0)  -->
<svg version="1.1" id="Ebene_1" xmlns="http://www.w3.org/2000/svg" xmlns:xlink="http://www.w3.org/1999/xlink" x="0px" y="0px"
	 viewBox="0 0 478.9 288" style="enable-background:new 0 0 478.9 288;" xml:space="preserve">
<style type="text/css">
	.st0{fill:#641E6E;}
	.st1{fill:#7575B4;}
	.st2{fill:#EA5474;}
	.st3{fill:#271607;}
	.st4{opacity:0.1;}
	.st5{clip-path:url(#SVGID_00000178905250146378373810000003738745484652773559_);fill:#FFFFFF;}
	.st6{fill:#3B3534;}
	.st7{fill:#381947;}
	.st8{fill:#002E2C;}
	.st9{fill:#694F7F;}
	.st10{opacity:0.9;}
	.st11{clip-path:url(#SVGID_00000089539560776609429340000004678491435384425090_);fill:#D8DADA;}
	.st12{clip-path:url(#SVGID_00000051363808298429852520000003059272990310661035_);fill:#D8DADA;}
	.st13{fill:#518198;}
	.st14{fill:#F69C00;}
	.st15{fill:#ED5607;}
	.st16{fill:#FDD184;}
	.st17{fill:#EA3C0F;}
	.st18{fill:#E6BFA5;}
	.st19{clip-path:url(#SVGID_00000009584050815661722000000005795601897626528143_);fill:#381947;}
	.st20{clip-path:url(#SVGID_00000014614545523947771950000013369386223940299651_);fill:#FFFFFF;}
	.st21{clip-path:url(#SVGID_00000069360718225989447340000014854999724828392088_);fill:#FFFFFF;}
	.st22{fill:#877C7A;}
	.st23{fill:#302B28;}
	.st24{fill:#5A524F;}
	.st25{fill:#A8A09E;}
	.st26{fill:#B8A8A6;}
	.st27{fill:#DCCECB;}
	.st28{opacity:0.3;}
	.st29{clip-path:url(#SVGID_00000062171451515775028270000003848577226173684641_);fill:#AADBE0;}
	.st30{opacity:0.2;}
	.st31{clip-path:url(#SVGID_00000127040744007187107040000001709341747679923390_);fill:#AADBE0;}
	.st32{fill:#FFE274;}
	.st33{fill:#FAB40C;}
	.st34{clip-path:url(#SVGID_00000112627433819957686820000003065381748394317747_);fill:#AADBE0;}
	
		.st35{clip-path:url(#SVGID_00000035489581074194196260000006418639942011028654_);fill:url(#SVGID_00000124142397626888408610000011683820920093060765_);}
	.st36{fill:#D78D5A;}
	.st37{fill:#D99A68;}
	.st38{fill:#66322A;}
	.st39{fill:#BE7A50;}
	.st40{fill:#2F0C27;}
	.st41{fill:#636664;}
	.st42{fill:#4F2B1E;}
	.st43{fill:#542614;}
	.st44{fill:#79422C;}
	.st45{fill:#833500;}
	.st46{fill:#A57555;}
	.st47{fill:#485B5E;}
	.st48{fill:#7B8E91;}
	.st49{opacity:0.6;fill:#9EB1B5;}
	.st50{fill:#596D71;}
	.st51{fill:#F4931F;}
	.st52{fill:#9EB1B5;}
	.st53{fill:#FDCF0C;}
	.st54{fill:#F9AE15;}
	.st55{fill:#FFFFFF;}
	.st56{fill:#E7EAE1;}
	.st57{fill:#C6C4AF;}
	.st58{filter:url(#Adobe_OpacityMaskFilter);}
	.st59{opacity:0.1;mask:url(#SVGID_00000145054647381500459530000003103483866289069724_);}
	.st60{fill:#87442A;}
	.st61{filter:url(#Adobe_OpacityMaskFilter_00000021111924192610581130000007173754021705135265_);}
	.st62{opacity:0.1;mask:url(#SVGID_00000127031712053020620070000003603633515079008180_);}
</style>
<path class="st1" d="M442.5,111.3c0,0-59.3,35.9-80.1,75.1c-7,13.3-9.5,24.6-9.6,33.8c-0.2,19.1,20,30.3,36.9,20.6
	c8.1-4.7,17.1-12.3,25.5-24.9C440,178.9,442.5,111.3,442.5,111.3"/>
<path class="st0" d="M383.4,212.8c1.6-2.6,3.1-5.3,4.7-7.9l33.2,0.4c0.2-0.3,0.3-0.6,0.5-1c-11-0.1-22.1-0.3-33.1-0.4
	c1.5-2.5,3-5,4.4-7.5c10.6,0,21.2,0.4,31.7,1.3c0.1-0.3,0.3-0.6,0.4-0.9c-10.5-0.9-21-1.4-31.5-1.3c1.4-2.4,2.8-4.8,4.3-7.2
	l30.1,1.2c0.1-0.3,0.2-0.6,0.3-1l-29.8-1.2c1.5-2.5,3-5,4.5-7.5c9.4-0.4,18.8-0.5,28.2-0.1c0.1-0.3,0.2-0.6,0.3-1
	c-9.3-0.3-18.6-0.3-27.9,0.1c1.5-2.6,3.1-5.2,4.6-7.8c8.5-0.3,16.9-0.2,25.3,0.3c0.1-0.3,0.2-0.6,0.2-1c-8.3-0.5-16.6-0.6-25-0.3
	c1.3-2.1,2.5-4.2,3.8-6.3c7.6-0.6,15.3-0.8,22.9-0.6c0.1-0.3,0.1-0.6,0.2-1c-7.5-0.1-15,0-22.5,0.6c1.5-2.6,3.1-5.1,4.6-7.7
	c6.5-1.1,13.1-1.5,19.6-1.2c0.1-0.3,0.1-0.6,0.2-1c-6.4-0.3-12.8,0.1-19.2,1.1c0.5-0.9,1-1.7,1.6-2.6c0.2-0.1,0.3-0.3,0.3-0.5
	c0.4-0.6,0.8-1.3,1.1-1.9c5.7-1.3,11.4-1.6,17-0.9c0.1-0.3,0.1-0.6,0.2-1c-5.5-0.7-11-0.5-16.5,0.7c1.1-1.9,2.3-3.8,3.4-5.8
	c4.7-0.7,9.4-1.1,14-1.1c0-0.3,0.1-0.7,0.1-1c-4.5,0-9,0.3-13.6,1c1.1-1.8,2.1-3.6,3.2-5.4c3.1,0,6.3,0,9.4,0c0.5,0,1,0,1.6,0
	c0-0.3,0.1-0.6,0.1-1c-0.8,0-1.5,0-2.3,0c-2.7,0-5.5,0-8.2,0c0.9-1.5,1.8-3,2.7-4.5c2.8-0.5,5.6-0.8,8.5-1c0-0.3,0.1-0.7,0.1-1
	c-2.6,0.2-5.3,0.5-7.9,0.9c1.1-1.8,2.1-3.5,3.2-5.3c1.8-0.2,3.5-0.4,5.3-0.4c0-0.3,0.1-0.7,0.1-1c-1.6,0.1-3.1,0.2-4.7,0.4l1.9-3.2
	c1-0.1,2.1-0.3,3.1-0.4c0-0.3,0.1-0.7,0.1-1c-0.8,0.1-1.7,0.2-2.5,0.4c0.9-1.6,1.9-3.2,2.8-4.8c0.1-1.5,0.1-2.4,0.1-2.4
	s-0.7,0.4-2,1.3c-1.1,1.8-2.1,3.5-3.2,5.3c-0.1-1-0.3-2-0.5-2.9c-0.3,0.2-0.6,0.4-0.9,0.6c0.3,1.2,0.5,2.5,0.5,3.8
	c-0.7,1.2-1.5,2.5-2.2,3.7c-0.2-1.9-0.6-3.9-1.1-5.7c-0.3,0.2-0.6,0.4-0.9,0.6c0.5,2,0.9,4,1.1,6.1c0,0.1,0.1,0.2,0.1,0.3
	c-1.4,2.3-2.7,4.6-4.1,6.8c-0.6-3.3-1.3-6.6-2.1-9.8c-0.3,0.2-0.6,0.4-0.9,0.6c0.9,3.4,1.6,6.9,2.2,10.5c-1.2,2-2.4,4.1-3.7,6.1
	c-0.9-4.5-1.9-9-2.9-13.4c-0.3,0.2-0.6,0.4-0.9,0.6c1.1,4.7,2.2,9.3,3.1,14.1c-1.5,2.5-3,5-4.5,7.5c-0.9-6-2.1-12-3.5-17.9
	c-0.3,0.2-0.6,0.4-0.9,0.7c1.5,6.1,2.7,12.3,3.6,18.6c-1,1.7-2,3.3-3,5c-2.2-6.3-4.3-12.7-6.5-19c-0.3,0.2-0.5,0.4-0.8,0.7
	c2.2,6.5,4.4,13,6.6,19.4c-1.9,3.2-3.8,6.4-5.7,9.6c-1.4-8.5-3.2-17-5.5-25.2c-0.3,0.2-0.6,0.5-0.8,0.7c2.3,8.5,4.2,17.1,5.6,25.9
	c-1.7,2.9-3.5,5.9-5.2,8.8c-2.9-9.1-5.8-18.2-8.7-27.4c-0.3,0.2-0.5,0.5-0.8,0.7l8.8,27.7c-0.7,1.1-1.3,2.2-2,3.4l-2.4,4.1
	c-3.4-9.9-6.8-19.8-10.2-29.7c-0.3,0.3-0.5,0.5-0.8,0.8c3.4,10,6.8,20,10.3,30.1c-1.3,2.1-2.5,4.2-3.8,6.3
	c-4.5-9.7-8.9-19.5-13.4-29.2c-0.2,0.3-0.5,0.5-0.7,0.8c4.5,9.8,8.9,19.5,13.4,29.3c0,0.1,0.1,0.1,0.1,0.1c-1.8,3-3.6,6-5.4,9
	c-4.5-10.7-9.1-21.4-13.6-32.1c-0.2,0.3-0.5,0.6-0.7,0.9c4.6,10.8,9.1,21.5,13.7,32.3c-1.3,2.3-2.7,4.5-4,6.8
	c-5.6-9.8-11.1-19.6-16.7-29.4c-0.2,0.3-0.4,0.6-0.6,0.9c5.6,9.8,11.1,19.6,16.7,29.4c-1.4,2.4-2.9,4.8-4.3,7.2
	c-6.4-8.8-12.3-17.9-17.6-27.3c-0.2,0.4-0.4,0.7-0.5,1.1c5.3,9.4,11.2,18.5,17.6,27.2c-2.3,3.9-4.6,7.8-6.9,11.7
	c-5.7-7.8-11.1-15.9-16-24.3c-0.1,0.5-0.2,0.9-0.3,1.4c4.9,8.2,10.1,16.1,15.7,23.7c0,0,0.1,0.1,0.1,0.1c-1,1.6-1.9,3.3-2.9,4.9
	c-4.9-6-9.7-12-14.6-18.1c0,0.5-0.1,1-0.1,1.5c4.7,5.8,9.4,11.7,14.1,17.5c-1,1.6-1.9,3.2-2.9,4.9c0.6,0.4,1.3,0.7,1.9,1.1
	c0.3-0.4,0.5-0.9,0.8-1.3c6.9,0.4,13.9,0.9,20.8,1.3c0.6-0.3,1.1-0.6,1.7-0.9c-7.3-0.5-14.6-0.9-22-1.4c0.9-1.4,1.7-2.9,2.6-4.3
	c8.7,0.5,17.3,0.9,26,1.4c0.4-0.3,0.8-0.6,1.2-0.9c-8.9-0.5-17.8-0.9-26.6-1.4c1.3-2.2,2.7-4.5,4-6.7c9.8,0.7,19.6,1.4,29.4,2.1
	c0.3-0.3,0.6-0.6,0.9-0.9c-9.9-0.7-19.8-1.4-29.8-2.1c1.2-2,2.3-3.9,3.5-5.9c0-0.1,0.1-0.1,0.1-0.2c10.5,0.2,21,1,31.3,2.3
	c0.2-0.3,0.5-0.6,0.7-0.9c-10.4-1.3-20.9-2.1-31.5-2.4c0.1-0.3,0.3-0.5,0.4-0.8c0,0,0.1-0.1,0.1-0.2c1-1.6,2-3.3,2.9-4.9
	c11.3-0.6,22.6-0.6,33.9-0.2c0.2-0.3,0.4-0.6,0.6-1C406,212.2,394.7,212.2,383.4,212.8"/>
<path class="st2" d="M229.8,247.1c0,0,3-42.2,10.4-42.6c7.4-0.4,12.1,18.6,12.1,18.6s3.9-36.4,14.3-37.2
	C277,185,278.7,206,278.7,206s1.7-32.9,13.2-33.3c11.5-0.4,14.6,17.4,14.6,17.4c1.9-19.8,19.7-18.3,24.9-2.4
	c5.4,16.2,6.1,27.7,6.1,27.7s1.9-21,11.3-22.6c9.3-1.6,11.8,25.3,11.8,25.3s5.9-28.8,28.2-28.8c9.4,0,15.8,17.8,16.1,26.9
	s5.2,22.2,18.3,7.5c13.2-14.6,24.7,23.2,24.7,23.2L229.8,247.1z"/>
<path class="st2" d="M115.4,181.2c-3.7-2.6-6-3.7-3.6-8.8s-1.4-6.8-5.1-9.4c-3.7-2.6-5.7-7.2-4.1-16.2c1.6-9.1-3.8-9.8-7.3-13.1
	c-3.5-3.3-4.2-4.3-4.2-11.2c0-6.9-5.1-8.5-10.5-10c-5.4-1.5-13.8-19.7-13.8-19.7s-4.5,6.8-1.2,17.2c3.3,10.4-4.8,5.9-4.5,15.9
	c0.3,10,8.3,10.9,4.2,16.9c-4.1,6-5.8,11.9,1.1,21.2c6.8,9.3-1.9,14,1.6,21.7c3.4,7.7,11.3,3.6,11.2,11c-0.2,7.5-2,10.7,4.9,13.3
	s3,11.2,11.2,16c0.3,0.2,0.6,0.4,1,0.5c9.6,4.8,20.8-0.7,22.7-11.3c0.4-2.4,0.3-4.7-0.8-6.3c-4.3-6.6-3.5-7,1.4-11.5
	C124.4,192.9,119.1,183.7,115.4,181.2"/>
<path class="st1" d="M93.7,144c-2.7,2-5.1,4.3-7.2,7c-1.3-4.2-2.7-8.4-4.2-12.6c-0.5-1.5-1.1-2.9-1.6-4.4c0-0.1,0-0.1,0-0.2
	c0.2-3.2,1-6.4,2.3-9.3c0.3-0.6-0.6-1.1-0.9-0.5c-1.1,2.5-1.8,5.2-2.2,7.9c-3.6-9.2-7.5-18.2-11.5-27.2c-0.3-0.6-1.2-0.3-1,0.3
	c3.8,8.6,7.5,17.2,11,26c-2.5-1.4-5.2-2.4-8-3c-0.6-0.1-0.9,0.9-0.2,1c3,0.6,6,1.8,8.7,3.4c0,0,0.1,0,0.1,0.1
	c0.3,0.7,0.6,1.4,0.8,2.2c2.1,5.6,4.1,11.3,5.8,17.1c-3.6-1.1-7.2-1.9-10.9-2.4c-0.6-0.1-0.9,0.9-0.2,1c3.9,0.5,7.7,1.3,11.4,2.5
	c1.2,4,2.3,8.1,3.4,12.1c1.1,4.4,2.2,8.9,3.3,13.3c-3.4-1.5-6.9-2.7-10.4-3.6c-0.6-0.2-0.8,0.9-0.2,1c3.6,1,7.2,2.2,10.7,3.8
	c0.1,0,0.2,0,0.2,0c1.3,5.5,2.6,10.9,4,16.4c0.3,1,0.5,2.1,0.8,3.1c-2.8-1-5.6-1.5-8.5-1.8c-0.7-0.1-0.6,1,0.1,1.1
	c2.9,0.2,5.8,0.9,8.6,1.9c0.1,0,0.1,0,0.2,0c2.3,8.6,3.7,13.7,6.9,22.1c3.8,10,0.3-1.8-1.3-6.6c-1.7-5.1-3.2-10.2-4.6-15.4
	c0,0,0,0,0-0.1c2.5-2.5,5.2-4.7,8.2-6.7c0.5-0.4,0-1.3-0.6-0.9c-2.8,1.9-5.4,4.1-7.9,6.4c-1.8-6.7-3.4-13.4-5-20.1
	c2.7-2.6,5.4-5.3,8.1-7.9c0.5-0.5-0.3-1.2-0.8-0.7c-2.5,2.5-5.1,4.9-7.6,7.4c-2.1-8.5-4.2-17.1-6.7-25.5c2.1-2.8,4.6-5.3,7.4-7.3
	C94.8,144.6,94.2,143.6,93.7,144"/>
<path class="st1" d="M68.2,124.3c0.5,0.1,0.9,0.3,1.4,0.4c0.4,0.1,0.8,0,1-0.4c0.1-0.4,0-0.9-0.4-1c-0.5-0.1-0.9-0.3-1.4-0.4
	c-0.4-0.1-0.8,0-1,0.4C67.7,123.6,67.8,124.2,68.2,124.3"/>
<path class="st1" d="M69.5,120.2c0.3,0.4,0.6,0.8,0.9,1.2c0.2,0.4,0.8,0.4,1.1,0.1c0.3-0.3,0.3-0.8,0.1-1.1l-0.9-1.2
	c-0.2-0.4-0.8-0.4-1.1-0.1C69.3,119.4,69.3,119.9,69.5,120.2"/>
<path class="st1" d="M65.7,127.8l1.6,0.5c0.4,0.1,0.8,0,1-0.4c0.1-0.4,0-0.9-0.4-1l-1.6-0.5c-0.4-0.1-0.8,0-1,0.4
	C65.2,127.1,65.3,127.7,65.7,127.8"/>
<path class="st1" d="M78.5,119.8c0.1,0.4,0.3,0.8,0.4,1.2c0.1,0.4,0.7,0.6,1,0.4c0.4-0.2,0.5-0.6,0.4-1l-0.4-1.2
	c-0.1-0.4-0.7-0.6-1-0.4C78.4,119,78.3,119.4,78.5,119.8"/>
<path class="st1" d="M83.6,119.8c0,0.1,0,0.2,0,0.3c0,0.1,0,0.1,0,0.2c0-0.1,0-0.1,0,0c0,0.1-0.1,0.2-0.1,0.3c0,0-0.1,0.3-0.1,0.2
	c-0.2,0.4-0.2,0.8,0.2,1.1c0.3,0.2,0.9,0.2,1.1-0.1c0.3-0.5,0.5-1.1,0.5-1.7c0-0.4-0.3-0.9-0.7-0.9
	C84.1,119.1,83.6,119.4,83.6,119.8"/>
<path class="st1" d="M86.3,123.7c-0.4,0.3-0.8,0.6-1.3,0.9c-0.3,0.2-0.3,0.8-0.1,1.1c0.3,0.4,0.7,0.4,1.1,0.1
	c0.4-0.3,0.8-0.6,1.3-0.9c0.3-0.2,0.3-0.8,0.1-1.1C87.1,123.4,86.6,123.4,86.3,123.7"/>
<path class="st1" d="M70.5,154.7l1.2-1c0.3-0.2,0.3-0.8,0.1-1.1c-0.3-0.3-0.7-0.4-1.1-0.1c-0.4,0.3-0.8,0.6-1.2,1
	c-0.3,0.2-0.3,0.8-0.1,1.1C69.7,154.9,70.2,154.9,70.5,154.7"/>
<path class="st1" d="M69.2,149.6c0.5,0.1,1.1,0.2,1.6,0.3c1,0.2,1.1-1.4,0.1-1.6c-0.5-0.1-1.1-0.2-1.6-0.3
	C68.3,147.9,68.2,149.5,69.2,149.6"/>
<path class="st1" d="M71.5,144.8c0.2,0.5,0.5,1,1,1.3c0.3,0.3,0.8,0.2,1.1-0.1c0.2-0.4,0.2-0.8-0.2-1.1c0,0-0.2-0.2-0.1-0.1
	c-0.1-0.1-0.1-0.1-0.2-0.2c0,0-0.1-0.1-0.1-0.1c0,0.1,0,0.1,0,0c0-0.1-0.1-0.2-0.1-0.2c-0.2-0.4-0.7-0.6-1-0.4
	C71.4,143.9,71.3,144.3,71.5,144.8"/>
<path class="st1" d="M75.5,143.9c0.1,0.3,0.2,0.7,0.4,1c0.1,0.4,0.7,0.6,1,0.4c0.4-0.2,0.5-0.6,0.4-1c-0.1-0.3-0.2-0.7-0.4-1
	c-0.1-0.4-0.7-0.6-1-0.4C75.5,143.1,75.4,143.5,75.5,143.9"/>
<path class="st1" d="M90.4,142.2c0.2,0.3,0.4,0.6,0.6,0.9c0.2,0.3,0.8,0.4,1.1,0.1c0.3-0.3,0.3-0.7,0.1-1.1
	c-0.2-0.3-0.4-0.6-0.6-0.9c-0.2-0.3-0.8-0.4-1.1-0.1C90.2,141.4,90.1,141.8,90.4,142.2"/>
<path class="st1" d="M95.3,140.2l-0.5,1.2c-0.2,0.4,0.1,0.9,0.4,1c0.4,0.2,0.8,0,1-0.4l0.5-1.2c0.2-0.4-0.1-0.9-0.4-1
	C95.8,139.6,95.4,139.8,95.3,140.2"/>
<path class="st1" d="M98.5,144.2c-0.5,0-1,0.1-1.6,0.1c-0.4,0-0.7,0.5-0.6,0.9c0.1,0.4,0.5,0.7,0.9,0.7c0.5,0,1-0.1,1.6-0.1
	c0.4,0,0.7-0.5,0.6-0.9C99.4,144.5,99,144.2,98.5,144.2"/>
<path class="st1" d="M95.7,149.1c0.5,0.2,1,0.3,1.6,0.5c0.4,0.1,0.8,0,1-0.4c0.1-0.4,0-0.9-0.4-1c-0.5-0.2-1-0.3-1.6-0.5
	c-0.4-0.1-0.8,0-1,0.4C95.1,148.4,95.3,148.9,95.7,149.1"/>
<path class="st1" d="M81.4,180c-0.4,0.3-0.9,0.6-1.3,0.9c-0.3,0.2-0.3,0.8-0.1,1.1c0.3,0.4,0.7,0.4,1.1,0.1c0.4-0.3,0.9-0.6,1.3-0.9
	c0.3-0.2,0.3-0.8,0.1-1.1C82.2,179.8,81.8,179.7,81.4,180"/>
<path class="st1" d="M77.2,176.9c-0.8,0.3-1.6,0.6-2.4,0.9c-0.9,0.3-0.3,1.8,0.6,1.4c0.8-0.3,1.6-0.6,2.4-0.9
	C78.7,178,78.1,176.6,77.2,176.9"/>
<path class="st1" d="M75.3,172.9c0.7,0.3,1.4,0.5,2.1,0.8c0.9,0.3,1.5-1.1,0.5-1.5c-0.7-0.3-1.4-0.5-2.1-0.8
	C74.9,171.1,74.4,172.5,75.3,172.9"/>
<path class="st1" d="M79,168.4c0.2,0.3,0.5,0.7,0.7,1c0.2,0.3,0.8,0.4,1.1,0.1c0.3-0.3,0.4-0.8,0.1-1.1c-0.2-0.3-0.5-0.7-0.7-1
	c-0.2-0.3-0.8-0.4-1.1-0.1C78.8,167.6,78.7,168.1,79,168.4"/>
<path class="st1" d="M84.9,170.2l0.3,1.8c0.2,1,1.6,0.8,1.5-0.2c-0.1-0.6-0.2-1.2-0.3-1.8C86.2,169,84.7,169.2,84.9,170.2"/>
<path class="st1" d="M96.5,169.8c0.2,0.5,0.5,0.9,0.7,1.4c0.2,0.4,0.6,0.6,1,0.4c0.4-0.2,0.6-0.6,0.4-1c-0.2-0.5-0.5-0.9-0.7-1.4
	c-0.2-0.4-0.6-0.6-1-0.4C96.5,168.9,96.3,169.4,96.5,169.8"/>
<path class="st1" d="M99.8,163.3c0.1,0.8,0.3,1.7,0.4,2.5c0.2,1,1.7,0.8,1.5-0.2c-0.1-0.8-0.3-1.7-0.4-2.5
	C101.2,162.1,99.7,162.3,99.8,163.3"/>
<path class="st1" d="M105.5,167.9c-0.7,0.5-1.3,0.9-2,1.4c-0.8,0.6,0.2,1.8,1,1.2c0.7-0.5,1.3-0.9,2-1.4
	C107.3,168.6,106.3,167.4,105.5,167.9"/>
<path class="st1" d="M107.7,173.5c-0.7,0.1-1.4,0.2-2.2,0.3c-1,0.1-0.7,1.7,0.3,1.6c0.7-0.1,1.4-0.2,2.2-0.3
	C108.9,174.9,108.7,173.4,107.7,173.5"/>
<path class="st1" d="M106.3,178c-1.1-0.2-2.2-0.3-3.3-0.2c-1,0.1-0.7,1.6,0.3,1.6c1-0.1,1.9,0,2.9,0.2
	C107.1,179.8,107.3,178.2,106.3,178"/>
<path class="st1" d="M89.6,203.1c-0.5,0.6-0.9,1.3-1.4,1.9c-0.6,0.8,0.7,1.7,1.2,1c0.5-0.6,0.9-1.3,1.4-1.9
	C91.3,203.3,90.1,202.3,89.6,203.1"/>
<path class="st1" d="M85.6,202.9c0.6-0.2,1.2-0.4,1.8-0.7c0.4-0.1,0.5-0.7,0.4-1c-0.2-0.4-0.6-0.6-1-0.4c-0.6,0.2-1.2,0.4-1.8,0.7
	c-0.4,0.1-0.5,0.7-0.4,1C84.8,202.9,85.3,203.1,85.6,202.9"/>
<path class="st1" d="M82.8,197.9c0.6-0.1,1.2-0.2,1.8-0.2c1-0.1,0.7-1.7-0.3-1.6c-0.6,0.1-1.2,0.2-1.8,0.2
	C81.6,196.5,81.8,198,82.8,197.9"/>
<path class="st1" d="M86.5,192.6c0.4,0.4,0.9,0.7,1.3,1.1c0.3,0.3,0.8,0.2,1-0.1c0.2-0.4,0.2-0.8-0.2-1.1c-0.4-0.4-0.9-0.7-1.3-1.1
	c-0.3-0.3-0.8-0.2-1,0.1C86.1,191.9,86.2,192.4,86.5,192.6"/>
<path class="st1" d="M91.2,193.5c0.2,0.5,0.3,0.9,0.5,1.4c0.1,0.4,0.7,0.6,1,0.4c0.4-0.2,0.5-0.6,0.4-1l-0.5-1.4
	c-0.1-0.4-0.7-0.6-1-0.4C91.2,192.6,91.1,193.1,91.2,193.5"/>
<path class="st1" d="M101.4,191.2c-0.1,0.6-0.1,1.2-0.2,1.8c-0.1,1,1.4,1.2,1.5,0.2c0.1-0.6,0.1-1.2,0.2-1.8
	C103,190.4,101.5,190.2,101.4,191.2"/>
<path class="st1" d="M105.2,188.7c0,0.6-0.1,1.3-0.3,1.9c-0.3,0.9,1.1,1.6,1.4,0.6c0.2-0.7,0.4-1.5,0.3-2.3c0-0.4-0.2-0.8-0.7-0.9
	C105.6,187.9,105.2,188.2,105.2,188.7"/>
<path class="st1" d="M110.7,188.7c-0.5,0.6-1.1,1.2-1.8,1.6c-0.3,0.2-0.3,0.8-0.1,1.1c0.3,0.4,0.7,0.4,1.1,0.1
	c0.8-0.5,1.5-1.2,2.1-1.9C112.5,188.9,111.3,188,110.7,188.7"/>
<path class="st1" d="M113,192.9c-0.8,0.2-1.6,0.5-2.5,0.7c-0.4,0.1-0.5,0.7-0.4,1c0.2,0.4,0.6,0.5,1,0.4c0.8-0.2,1.6-0.5,2.5-0.7
	c0.4-0.1,0.5-0.7,0.4-1C113.8,192.9,113.4,192.8,113,192.9"/>
<path class="st1" d="M110.8,197.6c-1.6-0.2-3.1-0.3-4.7-0.5c-1-0.1-1.1,1.4-0.1,1.6c1.6,0.2,3.1,0.3,4.7,0.5
	C111.6,199.3,111.8,197.7,110.8,197.6"/>
<path class="st1" d="M105.9,200.8c-0.7,0.1-1.3,0.2-2,0.3c-1,0.1-0.7,1.7,0.3,1.6l2-0.3C107.1,202.2,106.9,200.6,105.9,200.8"/>
<path class="st1" d="M35.3,226.5c0,0,2.8-27.8,9.6-28.3c6.8-0.4,11.1,21.1,11.1,21.1S59.5,178,69,177.1c9.6-0.9,11.1,12.1,11.1,12.1
	s1.5-26.4,12.1-26.9c10.6-0.4,13.3,19.7,13.3,19.7c1.8-22.4,16.4-22,16.6-2.7c0.2,19.3,11.8,31.4,11.8,31.4s1.8-23.8,10.3-25.6
	c8.6-1.8,10.8,28.7,10.8,28.7s3-35.9,12.3-35c9.3,0.9,9.6,29.4,9.6,29.4s0.8-34.8,9.3-33.4c8.6,1.3,7,31.4,7.3,41.7
	c0.3,10.3-0.9,11.2,11.2-5.4c12.1-16.6,24.5,34.6,24.5,34.6l-187.3,0C33.6,245.8,35.3,226.5,35.3,226.5"/>
<rect x="96.7" y="133.3" class="st3" width="3.1" height="23"/>
<path class="st3" d="M104,141.2c0,2-1.6,3.6-3.6,3.6h-3.7c-2,0-3.6-1.6-3.6-3.6v-17.9c0-2,1.6-3.6,3.6-3.6h3.7c2,0,3.6,1.6,3.6,3.6
	V141.2z"/>
<g class="st4">
	<g>
		<defs>
			<rect id="SVGID_1_" x="93" y="120" width="6.9" height="22.8"/>
		</defs>
		<clipPath id="SVGID_00000181073960751264564000000005704474214621021626_">
			<use xlink:href="#SVGID_1_"  style="overflow:visible;"/>
		</clipPath>
		<path style="clip-path:url(#SVGID_00000181073960751264564000000005704474214621021626_);fill:#FFFFFF;" d="M100,131.4
			c0-6-2.2-10.9-4.9-11.4c-1.2,0.6-2,1.8-2,3.2v17.9c0,0.5,0.1,0.9,0.3,1.3c0.4,0.2,0.8,0.4,1.3,0.4C97.6,142.8,100,137.7,100,131.4
			"/>
	</g>
</g>
<rect x="96.7" y="153.2" class="st3" width="7.1" height="3.1"/>
<path class="st6" d="M146.1,227.7c2.2,12-3,23-11.7,24.7s-17.6-6.8-19.8-18.8c-2.2-12,3-23,11.7-24.7
	C135,207.3,143.9,215.7,146.1,227.7"/>
<path class="st7" d="M78.9,206.8c5.5,6.6,13.4,23.9,13.4,23.9l97.2,2.2c0,0,1.4-15.9-9.7-27.8L78.9,206.8z"/>
<path class="st8" d="M279.3,226.7c1.9,10.2-0.4,19.3-5.1,20.2c-4.8,0.9-10.2-6.7-12.1-16.9c-1.9-10.2,0.4-19.3,5.1-20.2
	C272,208.8,277.4,216.4,279.3,226.7"/>
<path class="st9" d="M78.9,206.8c0,0,6.2-14.9,17.8-19.8c0,0,3.2,3.2,35.2,3.2c32,0,57.6-4.5,57.6-4.5s-11.4,6.7-14,21.1H78.9z"/>
<path class="st0" d="M96.8,187c0,0,12.3-50.2,2.4-102.9c0,0,64-7.3,90.3-13.7c0,0,8.1,75.1,0,115.4c-2.5,1.3-21.2,3.8-44.6,5.1
	C126.1,191.9,105.2,191.1,96.8,187"/>
<g class="st10">
	<g>
		<defs>
			<rect id="SVGID_00000058583519817478173570000000561166892239734681_" x="102.4" y="71.5" width="82.1" height="115"/>
		</defs>
		<clipPath id="SVGID_00000047767119575184756770000007250612202506035083_">
			<use xlink:href="#SVGID_00000058583519817478173570000000561166892239734681_"  style="overflow:visible;"/>
		</clipPath>
		<path style="clip-path:url(#SVGID_00000047767119575184756770000007250612202506035083_);fill:#D8DADA;" d="M102.7,84l-0.4,0.1
			c0,0,8.9,48.3,0,98.4c0,0,17.9,9.9,82.1-1.6V71.5C156.1,78.7,115.3,83.7,102.7,84"/>
	</g>
</g>
<path class="st0" d="M189.5,232.9l205-2.2c0,0-3.8-75.8,6.6-124.7c1.6-7.3,4.9-17.7,7.1-23.3L189.5,34.4v151.3c0,0-12.4,7.5-14,21.1
	C183.3,213.6,189.5,232.9,189.5,232.9"/>
<g class="st10">
	<g>
		<defs>
			<rect id="SVGID_00000129910653914614026240000003970068205976208030_" x="209.2" y="71.2" width="187.5" height="114.5"/>
		</defs>
		<clipPath id="SVGID_00000124867310230263569060000005029040273109770117_">
			<use xlink:href="#SVGID_00000129910653914614026240000003970068205976208030_"  style="overflow:visible;"/>
		</clipPath>
		<path style="clip-path:url(#SVGID_00000124867310230263569060000005029040273109770117_);fill:#D8DADA;" d="M209.2,71.2v108.7
			l181.1,5.8c0,0-1.4-39.5,6.4-81.1L209.2,71.2z"/>
	</g>
</g>
<path class="st0" d="M189.5,34.4l3.1,31.6c6.4,0-73,18-101.8,15.2c0,0,0.3-5.9-2.2-22.1L189.5,34.4z"/>
<path class="st13" d="M174.3,45.4V64c-13.3,3.7-55.6,12.2-68.9,11.3c0,0,0.2-5.3-1.4-14.3L174.3,45.4z"/>
<path class="st14" d="M182.9,45.2c0.6,1.5,0.3,3-0.6,3.4c-0.9,0.4-2.2-0.5-2.8-1.9c-0.6-1.5-0.3-3,0.6-3.4S182.3,43.7,182.9,45.2"/>
<path class="st15" d="M182.9,55.7c0.6,1.5,0.3,3-0.6,3.4c-0.9,0.4-2.2-0.5-2.8-1.9c-0.6-1.5-0.3-3,0.6-3.4S182.3,54.3,182.9,55.7"/>
<path class="st14" d="M100.1,62.9c0.6,1.4,0.3,2.8-0.6,3.2c-0.9,0.4-2.1-0.5-2.7-1.8c-0.6-1.4-0.3-2.8,0.6-3.2
	C98.3,60.7,99.5,61.5,100.1,62.9"/>
<path class="st15" d="M100.1,72.9c0.6,1.4,0.3,2.8-0.6,3.2c-0.9,0.4-2.1-0.5-2.7-1.8c-0.6-1.4-0.3-2.8,0.6-3.2
	C98.3,70.6,99.5,71.5,100.1,72.9"/>
<path class="st16" d="M100.8,214.2c-3.9-4-9.2-5.5-11.9-3.2c-2.7,2.2-1.7,7.3,2.1,11.3c3.9,4,9.2,5.5,11.9,3.2
	C105.6,223.3,104.6,218.2,100.8,214.2"/>
<path class="st16" d="M177.1,215.4c-3.4-4.8-8.8-7.1-11.9-5.2c-3.2,1.9-2.9,7.3,0.5,12c3.4,4.8,8.8,7.1,11.9,5.2
	C180.8,225.6,180.5,220.2,177.1,215.4"/>
<path class="st15" d="M162.8,223.3c1,1.8,0.9,3.8-0.2,4.5s-2.9-0.3-3.9-2.2s-0.9-3.8,0.2-4.5C160,220.5,161.7,221.4,162.8,223.3"/>
<path class="st17" d="M162.8,223.3c-0.9-1.6-2.4-2.6-3.5-2.3c1,0.2,2,1,2.7,2.3c1,1.8,0.9,3.8-0.2,4.5c-0.1,0.1-0.2,0.1-0.4,0.1
	c0.4,0.1,0.8,0,1.2-0.1C163.7,227.1,163.8,225.1,162.8,223.3"/>
<path class="st15" d="M112,222.1c1.3,1.6,1.5,3.6,0.5,4.4c-1,0.8-2.9,0.1-4.2-1.5c-1.3-1.6-1.5-3.6-0.5-4.4
	C108.8,219.8,110.7,220.5,112,222.1"/>
<path class="st17" d="M112,222.1c-1.2-1.5-2.8-2.2-3.8-1.7c1,0,2.2,0.7,3.1,1.8c1.3,1.6,1.5,3.6,0.5,4.4c-0.1,0.1-0.2,0.1-0.4,0.2
	c0.4,0,0.8-0.1,1.1-0.3C113.5,225.8,113.2,223.8,112,222.1"/>
<path class="st7" d="M369.4,200.2c-9.9,1.8-9.2,22.2-8.5,30.6l27-0.3C384.1,197.3,369.4,200.2,369.4,200.2"/>
<path class="st7" d="M228.6,199.2c-19.1,2.4-24.2,25.3-22.9,33.6l49.9-0.4C251,197.1,228.6,199.2,228.6,199.2"/>
<path class="st9" d="M111.7,212.8l36.5,0.1c0,0,2.8,2.9,4.4,12.7l-35.6-0.4C117,225.2,115.9,218,111.7,212.8"/>
<path class="st7" d="M147.9,212l-37.1-0.1c4.2,5.7,5.4,13.4,5.4,13.4l36.8,0.5C151.3,215.2,147.9,212,147.9,212 M112.2,212.7
	l35.3,0.1c0,0,2.7,2.8,4.3,12.3l-34.5-0.4C117.3,224.6,116.2,217.7,112.2,212.7"/>
<path class="st7" d="M149.3,214.5H113c0.4,0.6,0.7,1.2,1,1.8h36.1C149.8,215.6,149.5,215,149.3,214.5"/>
<path class="st7" d="M150.9,218.5l-36-0.3c0.3,0.6,0.5,1.2,0.7,1.8l35.8,0.3C151.2,219.6,151,219.1,150.9,218.5"/>
<path class="st7" d="M151.8,222l-35.8-0.5c0.2,0.7,0.4,1.3,0.5,1.8l35.6,0.5C152,223.1,151.9,222.6,151.8,222"/>
<path class="st7" d="M90.9,81.2l8.3,2.9c0,0,42.9,0,90.3-13.7v-3.8C189.5,66.5,129.5,81.8,90.9,81.2"/>
<path class="st7" d="M172.4,46.6v17c-12.2,3.4-52.2,11.2-64.4,10.4c0,0,0.3-4-1.2-12.3L172.4,46.6z"/>
<path class="st3" d="M104,60.9c1.6,9.1,1.4,14.3,1.4,14.3c13.4,0.9,55.7-7.6,68.9-11.3V45.4L104,60.9z M172.4,63.7
	c-12.2,3.4-52.2,11.2-64.4,10.4c0,0,0.3-4-1.2-12.3l65.6-15.1V63.7z"/>
<path class="st6" d="M249.7,236.2c-0.1,14.5-8.5,25-18.6,23.4c-10.1-1.6-18.2-14.7-18-29.2c0.1-14.5,8.5-25,18.6-23.4
	C241.8,208.6,249.9,221.7,249.7,236.2"/>
<path class="st18" d="M227.8,221.8c-2.4,4.7-3.8,12.2,3.2,20.8c2.4,3,7.3,2.2,8.6-1.4c1.9-5.3,2.8-13-3.4-20.4
	C233.8,218,229.4,218.5,227.8,221.8"/>
<path class="st6" d="M381.9,227.7c1.3,12-2.2,22.2-7.7,22.8c-5.6,0.6-11.1-8.6-12.4-20.7s2.2-22.2,7.7-22.8
	C375.1,206.5,380.6,215.7,381.9,227.7"/>
<path class="st18" d="M369.4,221.7c-0.7,3.4-0.9,7.8,1,12.6c1.3,3.2,6,2.7,6.5-0.7c0.5-3.7,0.5-8.1-1.2-12.4
	C374.4,218.2,370.1,218.6,369.4,221.7"/>
<path class="st7" d="M397.7,103.6L199.5,70.7v115.4l191.8,5.1C391.4,191.2,389.4,147.7,397.7,103.6 M205.9,182.6v-108l187.3,31.2
	c-7.8,41.3-6.3,82.6-6.3,82.6L205.9,182.6z"/>
<polygon class="st0" points="239.8,76.5 239.8,189.1 246.2,189.1 246.2,77.4 "/>
<polygon class="st0" points="285.3,84.1 284.1,189.8 290.3,189.9 291.5,85.2 "/>
<polygon class="st0" points="329.1,91.6 325.9,190.5 332.2,190.6 335.3,92.6 "/>
<path class="st0" d="M371.1,98.7l-5.8-1c-3.8,28.1-3.3,73.5-3.2,93.3l4.6,0.1C366.7,174.7,367.1,138.4,371.1,98.7"/>
<polygon class="st7" points="189.5,70.3 401.1,106 401.7,103.8 189.5,66.5 "/>
<path class="st7" d="M104.6,163.4c-0.6,6.6-1.5,13.3-2.7,20.1c0,0,18.3,9.9,82.6-1.6v-22.2C139.5,166.5,112.7,164.4,104.6,163.4"/>
<polygon class="st7" points="168.9,169.1 167.5,169.8 155.6,141.8 157,141.2 "/>
<polygon class="st7" points="159.2,154.6 163.8,152.6 153.4,132.4 151.3,133.3 "/>
<polygon class="st7" points="113.5,169.2 114.8,169.8 126,143.3 124.7,142.7 "/>
<polygon class="st7" points="122.7,155.4 118.3,153.6 128.2,134.4 130.1,135.3 "/>
<g class="st10">
	<g>
		<defs>
			<rect id="SVGID_00000072962276282887666090000014468239810611320707_" x="102.4" y="71.7" width="82.1" height="20.6"/>
		</defs>
		<clipPath id="SVGID_00000159467777082693374790000000277704479275628979_">
			<use xlink:href="#SVGID_00000072962276282887666090000014468239810611320707_"  style="overflow:visible;"/>
		</clipPath>
		<path style="clip-path:url(#SVGID_00000159467777082693374790000000277704479275628979_);fill:#381947;" d="M104.8,92.3
			c12.3-0.5,43.6-1.1,79.8-11.6v-9c-35.3,9.6-67.2,11.7-79.8,12.2c-0.7,0-1.4,0.1-2,0.1l-0.4,0.1c0,0,0.6,3,1.3,8.3
			C104,92.4,104.3,92.4,104.8,92.3"/>
	</g>
</g>
<rect x="237.5" y="79" class="st7" width="2.3" height="106"/>
<polygon class="st7" points="285.3,86.8 284.1,186.2 281.5,185.7 283.1,86.8 "/>
<polygon class="st7" points="329,92.9 325.9,188.3 324.3,188.3 326.7,93.7 "/>
<path class="st7" d="M365.1,99.4c0,0-4.3,45.7-3,89.8h-2.2c0,0-0.3-57,2.6-89.8H365.1z"/>
<path class="st3" d="M192.7,151.6c0,2.9-1,5.2-2.3,5.2c-1.3,0-2.3-2.3-2.3-5.2c0-2.9,1-5.2,2.3-5.2
	C191.7,146.3,192.7,148.7,192.7,151.6"/>
<polygon class="st3" points="196.1,130.8 196.1,149.9 189.7,149.9 189.7,153.4 199.2,153.4 199.2,130.8 "/>
<g class="st4">
	<g>
		<defs>
			<rect id="SVGID_00000018238092096849155230000014510078843337693631_" x="193.3" y="142.1" width="3.7" height="8.4"/>
		</defs>
		<clipPath id="SVGID_00000078740739805527323150000005182354704653658808_">
			<use xlink:href="#SVGID_00000018238092096849155230000014510078843337693631_"  style="overflow:visible;"/>
		</clipPath>
		<polygon style="clip-path:url(#SVGID_00000078740739805527323150000005182354704653658808_);fill:#FFFFFF;" points="196.1,142.1 
			196.1,149.9 193.3,149.9 193.3,150.6 197,150.6 197,142.1 		"/>
	</g>
</g>
<path class="st3" d="M202.7,139.6c0,2-1.6,3.6-3.6,3.6h-3.7c-2,0-3.6-1.6-3.6-3.6v-17.7c0-2,1.6-3.6,3.6-3.6h3.7
	c2,0,3.6,1.6,3.6,3.6V139.6z"/>
<g class="st4">
	<g>
		<defs>
			<rect id="SVGID_00000029727009527929976430000016299364653036864665_" x="191.9" y="118.8" width="7.3" height="22"/>
		</defs>
		<clipPath id="SVGID_00000023255830593351644790000015152393831179009976_">
			<use xlink:href="#SVGID_00000029727009527929976430000016299364653036864665_"  style="overflow:visible;"/>
		</clipPath>
		<path style="clip-path:url(#SVGID_00000023255830593351644790000015152393831179009976_);fill:#FFFFFF;" d="M199.2,129.8
			c0-6.1-2.4-11-5.5-11c-1.1,0.6-1.8,1.8-1.8,3.1v17.7c0,0.2,0,0.4,0.1,0.6c0.6,0.4,1.1,0.6,1.8,0.6
			C196.8,140.8,199.2,135.9,199.2,129.8"/>
	</g>
</g>
<g>
	<path class="st22" d="M386.9,225.8c-2-18.9-10.9-36.5-20.7-35.4c-0.4,0,0.8,0,1.2,0.1c-0.7-0.1-1.3-0.2-2-0.2
		C356,190.6,350,206,352,224.7c1.4,12.9,5.5,24.4,11.4,29.9C381.6,269.5,388.2,238.2,386.9,225.8"/>
	<path class="st22" d="M307.1,224.8c-2.2-18.7-12.8-33.5-23.6-33.1c-10.8,0.4-17.7,15.8-15.5,34.5s12.8,33.5,23.6,33.1
		C302.3,258.8,309.3,243.4,307.1,224.8"/>
	<polygon class="st3" points="369.8,225 374.8,257.1 375.1,257 370,224.7 369.9,224.5 	"/>
	<polygon class="st3" points="364.8,191.2 364.5,191.3 369.6,223.6 369.7,223.8 369.8,223.3 	"/>
	<path class="st3" d="M369.7,223.8l0.1,0.1l0.3-0.3l6.4-29.3c-0.1-0.1-0.2-0.2-0.2-0.3l-6.4,29.3L369.7,223.8z"/>
	<polygon class="st3" points="369.8,224.4 369.5,224.7 362.6,256.6 362.9,256.7 369.8,225 369.9,224.5 	"/>
	<path class="st3" d="M369.8,223.9L369.8,223.9l0.4,0.1l13.6-15c0-0.1-0.1-0.2-0.1-0.3l-13.6,15L369.8,223.9z"/>
	<path class="st3" d="M369.8,224.4L369.8,224.4l-0.4-0.1l-17.2,18.9c0,0.1,0.1,0.2,0.1,0.3l17.2-18.9L369.8,224.4z"/>
	<path class="st3" d="M369.9,224l0.2,0.3l16.7-0.3c0-0.1,0-0.2,0-0.3l-16.7,0.3L369.9,224z"/>
	<path class="st3" d="M369.7,224.3l-0.2-0.3l-21.5,1.7c0,0.1,0,0.2,0,0.3l21.5-1.7L369.7,224.3z"/>
	<path class="st3" d="M369.7,224.3L369.7,224.3l0.2,0.2l0.2,0.2l15.7,20.2c0-0.1,0.1-0.3,0.1-0.4l-15.7-20.2l-0.2-0.3l-0.1-0.1
		l-0.1-0.1l-0.2-0.2l-19-24.4c0,0.1-0.1,0.2-0.1,0.3l19,24.5L369.7,224.3z"/>
	<path class="st6" d="M387.7,223.5c-2.2-20.5-13.2-36.8-24.6-36.3c-11.3,0.5-18.7,17.4-16.5,38s13.2,36.8,24.6,36.3
		C382.6,261,390,244,387.7,223.5 M372.5,257.9c-9.4,0.3-18.5-14.5-20.5-33.2c-2-18.7,4-34.1,13.4-34.4c9.4-0.3,18.5,14.5,20.5,33.2
		S381.9,257.6,372.5,257.9"/>
	<path class="st23" d="M375.4,223.6c-0.8-7.3-4.3-13.1-7.9-13c-3.6,0.1-5.9,6.2-5.1,13.5c0.8,7.3,4.3,13.1,7.9,13
		C373.9,237,376.2,230.9,375.4,223.6 M370.3,235.8c-3.1,0.1-6.2-5.1-6.9-11.8c-0.7-6.6,1.3-12,4.4-12.1c3.1-0.1,6.2,5.1,6.9,11.7
		C375.5,230.2,373.5,235.7,370.3,235.8"/>
	<path class="st3" d="M328.7,213.9c0-0.5,0.6-0.9,1.4-0.9l4.9-0.1c0.8,0,1.4,0.4,1.4,0.8l0,0.5c0,0.5-0.6,0.9-1.4,0.9l-4.9,0.1
		c-0.8,0-1.4-0.4-1.4-0.8L328.7,213.9z"/>
	<path class="st3" d="M334.4,215c0.5-0.9,1.1-0.6,1.9-0.5c-3,5.5-3.3,13.2-3.3,13.2l-1.4,0.4C331.5,228.1,332.3,218.8,334.4,215"/>
	<path class="st24" d="M373.7,223.8c0.5,4.7-1,8.6-3.3,8.7c-2.3,0.1-4.6-3.7-5.1-8.4c-0.5-4.7,1-8.6,3.3-8.7
		C370.9,215.3,373.2,219.1,373.7,223.8"/>
	<path class="st23" d="M373.7,223.7c0.5,4.5-0.9,8.2-3.1,8.3c-2.2,0.1-4.4-3.5-4.8-8c-0.5-4.5,0.9-8.2,3.1-8.3
		C371,215.6,373.2,219.2,373.7,223.7"/>
	<path class="st3" d="M371.7,223.8c0.2,1.9-0.4,3.4-1.4,3.4c-1,0-1.9-1.4-2.1-3.3c-0.2-1.9,0.4-3.4,1.4-3.4
		C370.6,220.4,371.5,221.9,371.7,223.8"/>
	<polygon class="st3" points="288.4,226.1 294.4,257.5 294.8,257.5 288.7,225.8 288.5,225.6 	"/>
	<polygon class="st3" points="282.5,193 282.1,193 288.1,224.7 288.3,224.9 288.5,224.4 	"/>
	<path class="st3" d="M288.3,224.9l0.1,0.1l0.3-0.3l6-29.2c-0.1-0.1-0.2-0.2-0.3-0.3l-6,29.2L288.3,224.9z"/>
	<polygon class="st3" points="288.4,225.5 288.1,225.8 279.5,257.1 279.9,257.2 288.4,226.1 288.5,225.6 	"/>
	<path class="st3" d="M288.5,225L288.5,225l0.4,0.1l16.7-14.7c0-0.1-0.1-0.2-0.1-0.3l-16.7,14.7L288.5,225z"/>
	<path class="st3" d="M288.4,225.5L288.4,225.5l-0.4-0.1L266.9,244c0.1,0.1,0.1,0.2,0.2,0.3l21-18.6L288.4,225.5z"/>
	<path class="st3" d="M288.5,225.1l0.3,0.3l20.4-0.3c0-0.1,0-0.2,0-0.3l-20.3,0.3L288.5,225.1z"/>
	<path class="st3" d="M288.4,225.4l-0.3-0.3l-26.3,0.4c0,0.1,0,0.2,0,0.3l26.2-0.4L288.4,225.4z"/>
	<path class="st3" d="M288.4,225.4L288.4,225.4l0.2,0.2l0.2,0.2l19,19.7c0-0.1,0.1-0.3,0.1-0.4l-19-19.7l-0.3-0.3l-0.1-0.1l-0.1-0.1
		l-0.2-0.2l-23-23.9c-0.1,0.1-0.1,0.2-0.2,0.3l23.1,23.9L288.4,225.4z"/>
	<polygon class="st23" points="356.1,163.7 353,163.8 351.4,169.9 354.5,169.9 	"/>
	<path class="st6" d="M309.2,224.7c-2.5-20.5-15.2-36.7-28.2-36.3c-13.1,0.5-21.6,17.5-19.1,38c2.5,20.5,15.2,36.7,28.2,36.3
		C303.2,262.2,311.7,245.2,309.2,224.7 M291.6,259.2c-10.8,0.4-21.4-14.5-23.6-33.1c-2.2-18.7,4.7-34.1,15.5-34.5
		c10.8-0.4,21.4,14.5,23.6,33.1C309.3,243.4,302.3,258.8,291.6,259.2"/>
	<path class="st23" d="M293,225c0.6,4.7-1.1,8.6-3.8,8.7c-2.7,0.1-5.3-3.7-5.8-8.4c-0.6-4.7,1.1-8.6,3.8-8.7
		C289.8,216.6,292.4,220.3,293,225"/>
	<path class="st3" d="M290.6,225.1c0.2,2-0.5,3.6-1.6,3.7c-1.1,0-2.2-1.6-2.5-3.6c-0.2-2,0.5-3.6,1.6-3.7S290.3,223.1,290.6,225.1"
		/>
	<polygon class="st1" points="297.2,175.1 350.8,177.2 351.8,172.8 298,170.6 	"/>
	<path class="st1" d="M332.1,227.3c0,0,11.6-22.4,18.6-57.6l4.3,0.1c-11.2,47.5-21.1,60-21.1,60L332.1,227.3z"/>
	<path class="st1" d="M295.7,179.1c0,0,20.7,19.2,40.4,49.8c-0.5,2-0.3,1.1-1,2.9c-26.3-36.8-40.7-48.1-40.7-48.1L295.7,179.1z"/>
	<path class="st23" d="M354.4,163.8c0,0,0.1,1.4,1.7,1.4c1.6,0,2-1.5,2-1.5L354.4,163.8z"/>
	<path class="st3" d="M363,163.7c1.2-0.1,2.3-1,2.6-2.2c0.3-0.9,0.1-1.9-1.4-2.1c-2.3-0.3-6.5-0.2-8.6-0.2c-0.8,0-1.6,0.1-2.4,0.3
		c-3.6,1-13.9,3.9-8.3,4.6C349.8,164.9,357.5,164.3,363,163.7"/>
	<path class="st3" d="M371.3,223.9c0.1,1.1-0.2,1.9-0.7,1.9c-0.5,0-1-0.8-1.1-1.9c-0.1-1.1,0.2-1.9,0.7-1.9
		C370.6,222,371.2,222.8,371.3,223.9"/>
	<path class="st22" d="M268.9,226.6c-2.2-18.9,4.7-34.5,15.5-34.8c0.5,0,1,0,1.4,0.1c-0.8-0.1-1.6-0.2-2.3-0.2
		c-10.8,0.4-17.7,15.8-15.5,34.5c1.5,12.9,7,23.9,13.9,29.4C275.4,249.7,270.4,239,268.9,226.6"/>
	<path class="st24" d="M289.5,233.1c-2.7,0.1-5.3-3.7-5.8-8.4c-0.3-2.7,0.1-5,1-6.6c-1.1,1.6-1.7,4.2-1.4,7.2
		c0.6,4.7,3.2,8.4,5.8,8.4c1.2,0,2.1-0.8,2.8-2.1C291.3,232.5,290.5,233.1,289.5,233.1"/>
	<path class="st23" d="M295.7,224.9c-0.9-7.3-4.9-13.1-9.1-13c-4.1,0.1-6.8,6.2-5.9,13.5c0.9,7.3,4.9,13.1,9.1,13
		C293.9,238.3,296.5,232.2,295.7,224.9 M289.8,237.1c-3.6,0.1-7.2-5.1-8-11.7c-0.8-6.6,1.5-12,5.2-12.2c3.6-0.1,7.2,5.1,8,11.7
		C295.7,231.6,293.4,237,289.8,237.1"/>
	<path class="st1" d="M354.3,172.9c0,0,6.5,23.4,17.2,50.9l-1.4,1c0,0-12.5-28.6-17.1-46.4L354.3,172.9z"/>
	<path class="st23" d="M334.9,236.8l-1.4-17.5l32.8,1.3l1.4,7.6L334.9,236.8z M334.3,220.1l1.3,15.9l31.4-8.2l-0.7-6.4L334.3,220.1z
		"/>
	<path class="st22" d="M339.6,227.5c-0.6-4.5-3.5-8-6.4-7.8c-3,0.2-4.9,3.9-4.3,8.4c0.6,4.5,3.5,8,6.4,7.8
		C338.3,235.7,340.2,232,339.6,227.5 M334.9,232.5c-1.7,0.1-3.4-1.9-3.7-4.5c-0.3-2.6,0.8-4.8,2.5-4.8c1.7-0.1,3.4,1.9,3.7,4.5
		C337.7,230.2,336.6,232.4,334.9,232.5"/>
	<path class="st23" d="M339.6,227.8c0.6,5-1.6,9.1-4.8,9.2c-3.2,0.1-6.3-3.8-6.8-8.7c-0.6-5,1.6-9.1,4.8-9.2
		C336,218.9,339.1,222.8,339.6,227.8"/>
	<path class="st25" d="M335.4,227.8c0.1,0.9-0.3,1.7-0.9,1.7c-0.6,0-1.2-0.7-1.3-1.6c-0.1-0.9,0.3-1.7,0.9-1.7
		C334.8,226.1,335.3,226.9,335.4,227.8"/>
	<path class="st25" d="M331.5,223.8l2.3,2.9l0.8-0.2l0.7-3.4C335.4,223.1,333.2,221.8,331.5,223.8"/>
	<path class="st25" d="M333,232.6l1.2-3.5l-0.6-0.6l-3.3,1.3C330.2,229.8,330.4,232.3,333,232.6"/>
	<path class="st25" d="M338.9,227.5l-3.7,0.6l-0.2,0.8l2.7,2.3C337.7,231.2,339.9,229.9,338.9,227.5"/>
	<path class="st26" d="M339.1,227.6c-0.5-4.1-3.1-7.2-5.8-7.1c-2.7,0.1-4.4,3.6-3.9,7.6c0.5,4.1,3.1,7.2,5.8,7.1
		C337.9,235,339.7,231.6,339.1,227.6 M335.2,234.4c-2.4,0.1-4.8-2.7-5.2-6.4c-0.5-3.7,1.1-6.7,3.5-6.9c2.4-0.1,4.8,2.7,5.2,6.4
		C339.2,231.2,337.7,234.3,335.2,234.4"/>
	<path class="st25" d="M338.4,233.2c0-0.4,0.3-0.7,0.7-0.7c0,0,0,0,0,0c0.2-0.5,0.3-1,0.4-1.6c-0.2-0.1-0.3-0.3-0.3-0.6
		c0-0.3,0.2-0.5,0.4-0.6c0-0.5,0-1,0-1.5c-0.3-0.1-0.5-0.3-0.5-0.6c0-0.2,0.1-0.4,0.3-0.6c-0.1-0.5-0.2-1.1-0.4-1.6
		c-0.3-0.1-0.5-0.3-0.5-0.6c0-0.2,0.1-0.3,0.2-0.4c-0.3-0.6-0.6-1.1-0.9-1.6c0,0-0.1,0-0.1,0c-0.4,0-0.7-0.3-0.7-0.7
		c0-0.1,0-0.2,0.1-0.3c-0.4-0.4-0.7-0.7-1.1-1c-0.1,0.1-0.3,0.2-0.4,0.2c-0.4,0-0.7-0.3-0.7-0.7c0,0,0-0.1,0-0.1
		c-0.6-0.2-1.1-0.4-1.7-0.3c-0.1,0-0.1,0-0.2,0c0,0,0,0.1,0,0.1c0,0.4-0.3,0.7-0.7,0.7c-0.3,0-0.5-0.1-0.6-0.4
		c-0.4,0.2-0.7,0.5-1,0.8c0.1,0.1,0.1,0.2,0.1,0.4c0,0.4-0.3,0.7-0.7,0.7c-0.1,0-0.2,0-0.2,0c-0.3,0.5-0.5,1-0.7,1.7
		c0.2,0.1,0.3,0.3,0.3,0.5c0,0.3-0.2,0.6-0.5,0.7c-0.1,0.8-0.1,1.6-0.1,2.4c0.2,0.1,0.4,0.3,0.4,0.6c0,0.2-0.1,0.4-0.3,0.6
		c0.1,0.7,0.3,1.4,0.5,2c0.3,0.1,0.6,0.3,0.6,0.6c0,0.2-0.1,0.3-0.2,0.4c0.3,0.6,0.6,1.2,1,1.7c0,0,0.1,0,0.1,0
		c0.4,0,0.7,0.3,0.7,0.7c0,0.1,0,0.2-0.1,0.3c0.4,0.4,0.8,0.8,1.3,1.1c0.1-0.1,0.3-0.2,0.5-0.2c0.4,0,0.7,0.3,0.7,0.7c0,0,0,0,0,0.1
		c0.4,0.1,0.8,0.2,1.2,0.1c0.3,0,0.7-0.1,1-0.2c0-0.1,0-0.1,0-0.2c0-0.4,0.3-0.7,0.7-0.7c0.2,0,0.4,0.1,0.5,0.2
		c0.4-0.4,0.8-0.9,1.2-1.4C338.5,233.5,338.4,233.3,338.4,233.2 M334.9,232.5c-1.7,0.1-3.4-1.9-3.7-4.5c-0.3-2.6,0.8-4.8,2.5-4.8
		c1.7-0.1,3.4,1.9,3.7,4.5C337.7,230.2,336.6,232.4,334.9,232.5"/>
	<path class="st27" d="M338.6,227.6c-0.4-3.7-2.7-6.6-5.1-6.5c-2.4,0.1-4,3.2-3.5,6.9c0.4,3.7,2.7,6.6,5.1,6.5
		C337.4,234.4,339,231.3,338.6,227.6 M334.9,233.4c-2,0.1-3.9-2.3-4.3-5.4c-0.4-3.1,1-5.7,3-5.8c2-0.1,3.9,2.3,4.3,5.4
		C338.2,230.7,336.9,233.3,334.9,233.4"/>
	<path class="st1" d="M336.4,226.3l34.6-3.2l0.3,0.6c0.1,0.2,0.1,0.5,0,0.8c-0.1,0.3-0.4,0.4-0.7,0.5l-34,3.8L336.4,226.3z"/>
	<path class="st3" d="M335.8,241.7c0,0.5-0.6,0.9-1.4,0.9l-4.9,0.1c-0.8,0-1.4-0.4-1.4-0.9l0-0.5c0-0.5,0.6-0.9,1.4-0.9l4.9-0.1
		c0.8,0,1.4,0.4,1.4,0.9L335.8,241.7z"/>
	<path class="st24" d="M337.1,228.8c0,0-2.3,0-2.6,0c-0.4,0-1-1.7,0-2.2c0.5,0,2.6,0,2.6,0L337.1,228.8z"/>
	<path class="st22" d="M337.5,227.7c0,0.6-0.2,1.1-0.4,1.1c-0.3,0-0.5-0.5-0.5-1.1c0-0.6,0.2-1.1,0.4-1.1
		C337.3,226.5,337.5,227,337.5,227.7"/>
	<path class="st3" d="M336.2,227.6c0-0.5,0.1-1,0.4-1.1c-0.1-0.4-0.7-0.4-1.1-0.4c-0.4,0-0.9,0.7-0.9,1.5c0,0.8,0.6,1.4,1,1.5
		c0.3,0.1,0.9,0,1-0.4C336.4,228.6,336.2,228.1,336.2,227.6"/>
	<path class="st3" d="M330.4,240.7c-0.7,0.7-1.2,0.4-1.9,0c4.3-4.6,6.7-12,6.7-12l1.5-0.1C336.6,228.7,333.4,237.5,330.4,240.7"/>
	<g class="st28">
		<g>
			<defs>
				<rect id="SVGID_00000178927026575136959960000003899103049797367216_" x="328.1" y="240.3" width="7.2" height="1"/>
			</defs>
			<clipPath id="SVGID_00000034050625198833734480000013047163590842620578_">
				<use xlink:href="#SVGID_00000178927026575136959960000003899103049797367216_"  style="overflow:visible;"/>
			</clipPath>
			<path style="clip-path:url(#SVGID_00000034050625198833734480000013047163590842620578_);fill:#AADBE0;" d="M335.3,240.5
				c-0.2-0.1-0.6-0.2-0.9-0.2l-4.9,0.1c-0.7,0-1.3,0.4-1.3,0.8c0.8,0.1,1.7,0.1,2.6,0.1C333,241.2,334.8,240.9,335.3,240.5"/>
		</g>
	</g>
	<g class="st30">
		<g>
			<defs>
				<rect id="SVGID_00000134229727427308890990000013144247325798116508_" x="328.9" y="212.8" width="6.2" height="1"/>
			</defs>
			<clipPath id="SVGID_00000156557904047496590950000003855283798585795510_">
				<use xlink:href="#SVGID_00000134229727427308890990000013144247325798116508_"  style="overflow:visible;"/>
			</clipPath>
			<path style="clip-path:url(#SVGID_00000156557904047496590950000003855283798585795510_);fill:#AADBE0;" d="M335.1,212.8
				C335.1,212.8,335.1,212.8,335.1,212.8C335.1,212.8,335.1,212.8,335.1,212.8l-5,0.1c-0.6,0-1,0.2-1.2,0.5c0.7,0.2,1.5,0.3,2.5,0.3
				C333.4,213.8,335.1,213.4,335.1,212.8"/>
		</g>
	</g>
	<path class="st23" d="M341.2,234.9c0,0.3-0.3,0.6-0.6,0.6c-0.4,0-0.7-0.3-0.7-0.6c0-0.3,0.3-0.6,0.6-0.6
		C340.9,234.3,341.2,234.6,341.2,234.9"/>
	<path class="st23" d="M339.2,235.4c0,0.3-0.3,0.6-0.6,0.6c-0.4,0-0.7-0.3-0.7-0.6c0-0.3,0.3-0.6,0.6-0.6
		C338.9,234.8,339.2,235.1,339.2,235.4"/>
	<path class="st23" d="M343,234.4c0,0.3-0.3,0.6-0.6,0.6c-0.4,0-0.7-0.3-0.7-0.6c0-0.3,0.3-0.6,0.6-0.6
		C342.7,233.7,343,234,343,234.4"/>
	<path class="st23" d="M344.8,233.9c0,0.3-0.3,0.6-0.6,0.6c-0.4,0-0.7-0.3-0.7-0.6c0-0.3,0.3-0.6,0.6-0.6S344.8,233.5,344.8,233.9"
		/>
	<path class="st23" d="M346.7,233.5c0,0.3-0.3,0.6-0.6,0.6c-0.4,0-0.7-0.3-0.7-0.6c0-0.3,0.3-0.6,0.6-0.6
		C346.4,232.8,346.7,233.1,346.7,233.5"/>
	<path class="st23" d="M348.7,232.9c0,0.3-0.3,0.6-0.6,0.6c-0.4,0-0.7-0.3-0.7-0.6c0-0.3,0.3-0.6,0.6-0.6
		C348.4,232.3,348.7,232.6,348.7,232.9"/>
	<path class="st23" d="M350.7,232.4c0,0.3-0.3,0.6-0.6,0.6c-0.4,0-0.7-0.3-0.7-0.6c0-0.3,0.3-0.6,0.6-0.6
		C350.4,231.8,350.7,232.1,350.7,232.4"/>
	<path class="st23" d="M352.8,231.8c0,0.3-0.3,0.6-0.6,0.6c-0.4,0-0.7-0.3-0.7-0.6c0-0.3,0.3-0.6,0.6-0.6
		C352.5,231.1,352.8,231.4,352.8,231.8"/>
	<path class="st23" d="M354.9,231.3c0,0.3-0.3,0.6-0.6,0.6c-0.4,0-0.7-0.3-0.7-0.6c0-0.3,0.3-0.6,0.6-0.6
		C354.6,230.7,354.9,231,354.9,231.3"/>
	<path class="st23" d="M356.7,230.9c0,0.3-0.3,0.6-0.6,0.6c-0.4,0-0.7-0.3-0.7-0.6c0-0.3,0.3-0.6,0.6-0.6
		C356.4,230.3,356.7,230.5,356.7,230.9"/>
	<path class="st23" d="M358.7,230.4c0,0.3-0.3,0.6-0.6,0.6c-0.4,0-0.7-0.3-0.7-0.6c0-0.3,0.3-0.6,0.6-0.6
		C358.4,229.8,358.7,230.1,358.7,230.4"/>
	<path class="st23" d="M360.8,229.8c0,0.3-0.3,0.6-0.6,0.6c-0.4,0-0.7-0.3-0.7-0.6c0-0.3,0.3-0.6,0.6-0.6
		C360.5,229.2,360.8,229.4,360.8,229.8"/>
	<path class="st23" d="M363,229.1c0,0.3-0.3,0.6-0.6,0.6c-0.4,0-0.7-0.3-0.7-0.6c0-0.3,0.3-0.6,0.6-0.6
		C362.7,228.5,363,228.8,363,229.1"/>
	<path class="st23" d="M365.2,228.6c0,0.3-0.3,0.6-0.6,0.6c-0.4,0-0.7-0.3-0.7-0.6c0-0.3,0.3-0.6,0.6-0.6
		C364.9,228,365.2,228.2,365.2,228.6"/>
	<path class="st23" d="M367,228.2c0,0.3-0.3,0.6-0.6,0.6c-0.4,0-0.7-0.3-0.7-0.6c0-0.3,0.3-0.6,0.6-0.6S367,227.9,367,228.2"/>
	<path class="st23" d="M365.7,220.9c0,0.3-0.3,0.6-0.6,0.6c-0.4,0-0.7-0.3-0.7-0.6c0-0.3,0.3-0.6,0.6-0.6
		C365.4,220.3,365.7,220.6,365.7,220.9"/>
	<path class="st23" d="M363.7,220.7c0,0.3-0.3,0.6-0.6,0.6c-0.4,0-0.7-0.3-0.7-0.6c0-0.3,0.3-0.6,0.6-0.6
		C363.4,220.1,363.7,220.4,363.7,220.7"/>
	<path class="st23" d="M361.2,220.6c0,0.3-0.3,0.6-0.6,0.6c-0.4,0-0.7-0.3-0.7-0.6c0-0.3,0.3-0.6,0.6-0.6
		C360.9,220,361.2,220.2,361.2,220.6"/>
	<path class="st23" d="M358.9,220.6c0,0.3-0.3,0.6-0.6,0.6c-0.4,0-0.7-0.3-0.7-0.6c0-0.3,0.3-0.6,0.6-0.6
		C358.6,220,358.9,220.3,358.9,220.6"/>
	<path class="st23" d="M356.6,220.6c0,0.3-0.3,0.6-0.6,0.6c-0.4,0-0.7-0.3-0.7-0.6c0-0.3,0.3-0.6,0.6-0.6
		C356.3,219.9,356.6,220.2,356.6,220.6"/>
	<path class="st23" d="M354.1,220.5c0,0.3-0.3,0.6-0.6,0.6c-0.4,0-0.7-0.3-0.7-0.6c0-0.3,0.3-0.6,0.6-0.6
		C353.7,219.9,354,220.1,354.1,220.5"/>
	<path class="st23" d="M351.6,220.3c0,0.3-0.3,0.6-0.6,0.6c-0.4,0-0.7-0.3-0.7-0.6c0-0.3,0.3-0.6,0.6-0.6
		C351.3,219.7,351.6,220,351.6,220.3"/>
	<path class="st23" d="M349.1,220.2c0,0.3-0.3,0.6-0.6,0.6c-0.4,0-0.7-0.3-0.7-0.6c0-0.3,0.3-0.6,0.6-0.6
		C348.8,219.6,349.1,219.9,349.1,220.2"/>
	<path class="st23" d="M346.5,220.1c0,0.3-0.3,0.6-0.6,0.6c-0.4,0-0.7-0.3-0.7-0.6c0-0.3,0.3-0.6,0.6-0.6
		C346.2,219.5,346.5,219.8,346.5,220.1"/>
	<path class="st23" d="M343.8,220c0,0.3-0.3,0.6-0.6,0.6c-0.4,0-0.7-0.3-0.7-0.6c0-0.3,0.3-0.6,0.6-0.6
		C343.4,219.4,343.7,219.7,343.8,220"/>
	<path class="st23" d="M341.2,219.9c0,0.3-0.3,0.6-0.6,0.6c-0.4,0-0.7-0.3-0.7-0.6c0-0.3,0.3-0.6,0.6-0.6
		C340.9,219.3,341.2,219.5,341.2,219.9"/>
	<path class="st23" d="M337.8,219.8c0,0.3-0.3,0.6-0.6,0.6c-0.4,0-0.7-0.3-0.7-0.6c0-0.3,0.3-0.6,0.6-0.6
		C337.5,219.2,337.8,219.4,337.8,219.8"/>
	<path class="st1" d="M298.8,165.6c0,0-1.9,33.1-9.5,60.5c0,0-1.5-0.2-1.3-2.2c0.1-1.2,3.5-14,5.6-28.2c0.2-1.3,0.2-2.9-0.9-3.3
		c1.2-8.9,2.8-18.4,3.1-26.7L298.8,165.6z"/>
	<path class="st3" d="M295.7,179.3c0,0-5.5-0.7-5.3-2.7c0.1-2,5.8-1.8,5.8-1.8L295.7,179.3z"/>
	<polygon class="st3" points="298.2,178.8 293.4,178.3 293.7,175.8 298.4,176.3 	"/>
	<path class="st32" d="M294.6,179.1l0.4-4.3c-1.5,0-4.1,0.3-4.7,1.4c-0.1,0.1-0.1,0.3-0.1,0.4c0,0.2,0,0.4,0.1,0.6c0,0,0,0,0,0.1
		c0.1,0.2,0.3,0.4,0.4,0.6C292.4,178.8,294.6,179.1,294.6,179.1"/>
	<path class="st33" d="M292.6,176.9c-0.8,0.1-1.5,0.1-2.2,0c0.1,0.2,0.2,0.3,0.4,0.5c1.6,1.1,3.8,1.3,3.8,1.3l0.2-2.3
		C294.2,176.7,293.4,176.8,292.6,176.9"/>
	<path class="st3" d="M278,153.1c0,0.2-0.2,0.3-0.4,0.3c-0.2,0-0.4-0.2-0.4-0.3c0-0.2,0.2-0.3,0.4-0.3
		C277.8,152.8,278,153,278,153.1"/>
	<path class="st3" d="M273.1,154.6l-12.3-3.3c0,0-2.3,2.5,0.1,5.5l12.2,0.4L273.1,154.6z"/>
	<polygon class="st3" points="294.8,165.7 299.3,165.8 299.4,164.5 294.9,164.3 	"/>
	<path class="st3" d="M298.9,164.5c0,0,0.5-2.3,0-2.9c-0.5-0.6-5.6,0.4-9.1-2.7l-4.1,0.1c0,0,4,3.6,9.1,4.1c0,0,0.7,0.3,0.7,1.4
		c0,1.1,0,0.2,0,0.2L298.9,164.5z"/>
	<path class="st3" d="M303.1,157.2c0,0-7.9,1.6-15.1,1.8c-7.2,0.1-14.8-1.3-14.8-1.3l0-3c0,0,7.7,1.4,14.8,1.3
		c7.1-0.1,15.1-1.7,15.1-1.7L303.1,157.2z"/>
	<path class="st3" d="M274.2,156c0,1.4-0.4,2.5-1,2.5c-0.6,0-1.1-1.1-1.1-2.5c0-1.4,0.4-2.5,1-2.5
		C273.7,153.5,274.2,154.7,274.2,156"/>
	<polygon class="st3" points="278.6,155.6 275.9,155.3 275.9,154.7 278.7,155 	"/>
	<path class="st3" d="M279.6,155.1l-4.6-0.5l0.1-1c0,0,0.8-0.7,2.4-0.5c1.6,0.2,2.2,1,2.2,1L279.6,155.1z"/>
	<g class="st28">
		<g>
			<defs>
				<rect id="SVGID_00000064327156575916984170000013155196591794848442_" x="275.1" y="153.1" width="3.1" height="0.8"/>
			</defs>
			<clipPath id="SVGID_00000183936558644872104190000003881411726413030583_">
				<use xlink:href="#SVGID_00000064327156575916984170000013155196591794848442_"  style="overflow:visible;"/>
			</clipPath>
			<path style="clip-path:url(#SVGID_00000183936558644872104190000003881411726413030583_);fill:#AADBE0;" d="M278.2,153.2
				c-0.2,0-0.4-0.1-0.6-0.1c-1.6-0.2-2.4,0.5-2.4,0.5l2.5,0.3C277.6,153.9,278.2,153.5,278.2,153.2"/>
		</g>
	</g>
	<path class="st3" d="M304.7,155.5c0,1.4-0.4,2.5-1,2.5c-0.6,0-1.1-1.1-1.1-2.5c0-1.4,0.4-2.5,1-2.5
		C304.2,153,304.7,154.1,304.7,155.5"/>
	<path class="st3" d="M304.4,153.9l13.3-4.1c0,0,2.6,2.7,0.1,6.1l-13.4,0.9L304.4,153.9z"/>
</g>
</svg>
