<?xml version="1.0" encoding="utf-8"?>
<!-- Generator: Adobe Illustrator 22.1.0, SVG Export Plug-In . SVG Version: 6.00 Build 0)  -->
<svg version="1.1" id="Layer_1" xmlns="http://www.w3.org/2000/svg" xmlns:xlink="http://www.w3.org/1999/xlink" x="0px" y="0px"
	 width="1000px" height="1000px" viewBox="0 0 1000 1000" style="enable-background:new 0 0 1000 1000;" xml:space="preserve">
<path d="M676.1,441.3c-0.2-1.5-0.5-2.9-0.8-4.4c-0.6-2.5-1.3-4.9-2.3-7.3c-1-2.6-2.2-5.1-3.7-7.6c-0.3-0.5-0.6-0.9-0.8-1.4
	c-1.1-1.8-2.4-3.6-3.7-5.2c0.2,0.2,0.5,0.4,0.7,0.6c-0.5-0.7-0.9-1.2-1.2-1.7c0-0.1-0.1-0.1-0.2-0.2c-6.3-7.4-14.2-12.1-23.4-15
	c-0.1,0-0.3-0.1-0.4-0.1c-2.7-0.8-5.4-1.5-8.1-2.1c-6.1-1.4-12.2-2.3-18.5-2.6c-9.4-0.8-18.9-0.7-28.4,0c-0.1,0-0.1,0-0.2,0
	c-2.1,0.2-4.3,0.3-6.4,0.6c-0.9,0.1-1.8,0.2-2.7,0.3c-3.3,0.3-6.6,0.9-9.9,1.4c-1.1,0.2-2.2,0.3-3.4,0.4c-0.2,0-0.4,0-0.7,0.1
	c-0.8,0.1-1.6,0.1-2.4,0.1c-0.2,0-0.4,0-0.6,0c-0.5,0-1,0-1.5,0c-0.4,0-0.8,0-1.2,0c-0.5,0-1.1,0-1.6,0c-2.4,0-4.8,0-7.2,0
	c-0.6,0-1.1,0-1.7,0c-4,0-8.1,0-12.1,0c-1.1,0-2.1,0-3.2,0c-0.1,0-0.2,0-0.3,0c-2.4,0-4.7,0-7.1,0c-0.3,0-0.7,0-1,0
	c-1.5,0-3,0-4.5,0c-0.8,0-1.6,0-2.4,0c-0.8,0-1.6,0-2.4,0c-0.4,0-0.8,0-1.2,0c-8.2,0-16.4,0-24.6,0c-0.8,0-1.7,0-2.5,0
	c-0.4,0-0.9,0-1.3,0c-0.9,0-1.7,0-2.6,0c-1.5,0-3.1,0-4.6,0c-1.4,0-2.8,0-4.1,0c-1.3,0-2.7,0-4,0c-0.6,0-1.2,0-1.8,0
	c-2.2,0-4.3,0-6.5,0c-1,0-2,0-3,0c-0.7,0-1.4,0-2.1,0c-0.1,0-0.3,0-0.4,0c-1.3,0-2.6,0-3.9,0c-0.2,0-0.4,0-0.6,0c-0.1,0-0.1,0-0.2,0
	c-0.1,0-0.3,0-0.4,0c-1.7,0.1-3.4,0.3-5,0.1c-0.4-0.1-0.9-0.1-1.3-0.2c-6.4-1.3-13-2.1-19.5-2.6c-0.2,0-0.5,0-0.7-0.1
	c-0.6-0.1-1.3-0.1-1.9-0.1c-0.8-0.1-1.6-0.1-2.4-0.2c-5-0.3-10-0.4-14.9-0.3c-3,0.1-5.9,0.2-8.9,0.4c-0.5,0-1,0.1-1.5,0.1
	c-5.6,0.4-11.1,1.2-16.7,2.3c-1.2,0.2-2.4,0.5-3.6,0.8c-0.6,0.1-1.1,0.2-1.7,0.4c-0.7,0.2-1.4,0.3-2.1,0.5c-10.6,2.9-19.6,8-26.4,16
	c-0.2,0.2-0.4,0.5-0.6,0.7c-1,1.3-2,2.6-2.9,4c-0.5,0.8-1.1,1.7-1.6,2.5c-0.5,0.9-1,1.8-1.4,2.7c-0.5,0.9-0.9,1.9-1.4,2.8
	c-0.8,1.8-1.5,3.7-2.2,5.6c-0.3,1-0.6,2-0.9,3.1c-0.3,1.2-0.6,2.4-0.8,3.6c-0.3,1.8-0.6,3.6-0.8,5.4c-0.3,3.7-0.3,7.6,0.1,11.5
	c0.2,1.9,0.5,3.7,0.8,5.6c0.5,3,1.1,5.9,1.9,8.8c1,3.5,2.1,6.9,3.6,10.2c0.6,1.4,1.3,2.8,1.9,4.2c0.5,0.9,1,1.9,1.5,2.8
	c2.2,4,4.8,7.8,7.7,11.4c1.4,1.7,2.8,3.3,4.4,5c1.5,1.6,3.2,3.1,4.8,4.6c0.9,0.8,1.9,1.6,2.8,2.3c4,3.1,8.3,5.5,12.9,7.4
	c6,2.5,12.5,3.9,19.6,4.2c5.8,0.2,11.5-0.2,16.9-1.3c7.2-1.5,14.1-4,20.8-7.6c16.4-8.7,39.5-31.6,50.5-53.4
	c3.6-7.2,6.4-14.7,7.9-22.7c0.8-4.1,1.3-8.2,2.2-12.3c0.7-3.2,3-5,6.2-5.3c3.1-0.3,6.3-0.5,9.4-0.5c0.7,0,1.5,0,2.2,0.1
	c6.7,0.4,9.1,3.6,9.6,10.2c0.4,4.8,1,9.7,2.3,14.3c0.2,0.6,0.4,1.3,0.6,1.9c0.4,1.2,0.8,2.4,1.2,3.6c2.8,7.7,6.3,14.9,10.6,21.6
	c8.9,14.3,28.7,35.2,47.3,44c2.8,1.3,5.7,2.5,8.7,3.5c5.5,1.8,11.2,3,17.3,3.6c0.8,0.1,1.5,0.1,2.2,0.2c11.3,0.7,21.9-1.4,31.6-6.8
	c1.2-0.7,2.4-1.4,3.6-2.2c3-2,5.7-4.1,8.2-6.3c2.7-2.4,5.2-5,7.4-7.7c1.4-1.7,2.8-3.5,4-5.4c4.1-6.1,7.3-12.7,9.7-19.9
	c0.5-1.5,0.9-2.9,1.3-4.4c1-3.8,1.8-7.5,2.3-11.2c0-0.1,0-0.1,0-0.2c0.2-1.6,0.4-3.3,0.5-4.9c0-0.2,0-0.4,0-0.6
	C676.8,448.9,676.7,445.1,676.1,441.3z M354.9,448.2c-0.4,2.9-0.8,5.8-1.1,8.7c-0.1,0.9-0.2,1.8-0.3,2.6c-0.2,1.7-0.3,3.4-0.4,5.1
	c-0.1,1.4-0.6,4.2-0.8,4.2c-0.3-1.4-0.6-2.7-0.9-4.1c-0.3-1.3-0.6-2.6-0.9-3.9c-0.3-1.2-0.5-2.4-0.8-3.7c0,0,0-0.1,0-0.1
	c-0.1-0.5-0.2-1.1-0.3-1.6c-0.4-2.1-0.7-4.3-1-6.4c-0.4-2.8-0.6-5.7-0.8-8.6c-0.1-2.9-0.5-5.8,0-8.6c1.6-10.4,9.6-13.9,15.8-15.4
	C355.1,427.3,355,447.1,354.9,448.2z M530.6,409.5c-1.5,1-2.8,2.1-4.2,3.3c-0.1,0.1-0.2,0.2-0.3,0.3c-0.2,0.2-0.4,0.4-0.6,0.6
	c-0.5,0.5-1,1-1.5,1.5c-0.2,0.3-0.5,0.5-0.7,0.8c-0.4,0.4-0.7,0.9-1.1,1.3c0,0-0.3,0.4-0.4,0.5c0,0-0.8,1-1.2,1.5
	c0-0.7-5.9-4.2-8.4-4.7c-3.4-0.8-7-0.7-10.6-0.6c-1.4,0-2.8,0.1-4.2,0.3c-1.7,0.2-3.4,0.6-5.1,1.1c-2,0.6-6.6,3.6-6.6,3.7
	c0,0-0.2-0.2-0.3-0.3c-0.1-0.1-0.5-0.5-0.5-0.5c-0.1-0.3-0.2-0.5-0.4-0.8c0,0,0,0,0,0c-0.5-0.7-1.1-1.3-1.6-2
	c-0.4-0.5-0.9-1-1.4-1.5c-2.1-2.1-4.4-3.8-6.9-5.4c-0.2-0.1-0.4-0.3-0.6-0.4c-0.4-0.3-0.9-0.5-1.3-0.8c-0.5-0.3-1.1-0.6-1.7-0.9
	c-1.6-0.8-3.2-1.6-4.8-2.4c-0.3-0.2-0.7-0.4-1.1-0.5c-0.3-0.1-0.5-0.3-0.8-0.4h77.8c-0.1,0.1-0.2,0.1-0.3,0.2
	c-0.5,0.3-0.9,0.5-1.4,0.8c-1,0.4-2,0.9-2.9,1.4C535.1,406.7,532.8,408,530.6,409.5z M550.5,420.2c-0.2,0.5-0.4,1-0.6,1.6
	c-0.3,0.9-0.6,1.8-0.9,2.6c-0.3,0.9-0.6,1.8-0.9,2.7c-1.2,3.9-2.1,7.8-2.8,11.7c-0.3,1.5-0.5,3.1-0.8,4.6c0,0.2-0.1,0.5-0.1,0.7
	c-0.5,3.2-0.8,6.4-1,9.7c-0.1,1.2-0.2,2.4-0.2,3.5c-0.1,0-0.3,0-0.4,0c-0.3-1.1-0.6-2.3-0.9-3.4c-0.5-1.9-1-3.7-1.3-5.6
	c0,0,0-0.1,0-0.1c-1.4-6.7-2-13.4-1.8-20.2c0-0.8,0.1-1.6,0.1-2.4c0-0.1,0-0.2,0-0.3c0.1-0.6,0.2-1.1,0.4-1.6
	c0.3-0.6,0.6-1.2,1.2-1.8c0.4-0.4,0.9-0.8,1.4-1.2c0.1-0.1,0.3-0.2,0.4-0.3c2.6-1.9,6-3.5,8.7-4c0.4-0.1,0.8-0.1,1.1-0.2
	C551.5,417.7,551,418.9,550.5,420.2z"/>
<g>
	<path id="XMLID_2_" d="M349.1,348.3c-23.7-31-25.2-65.4-14.2-101.1c5.5-17.9,9.2-36.8,23.2-51c11.4-11.6,26.7-9.4,34.2,5
		c13.8,26.4,29.2,61.8,42.1,90.1l12.6-22.6c1.1-2,3.3-3,5.5-2.6c2.2,0.4,3.9,2.2,4.2,4.4l2,16.4l19.2-31c1.3-2.2,4-3,6.4-2.1
		c2.3,1,3.6,3.5,3.1,6l-3.7,15.7l15.7-21c1.4-1.9,4-2.6,6.2-1.7c2.2,0.9,3.5,3.2,3.1,5.6c-0.8,4.9-1.1,7-2,12.6
		c3.8-5.6,19.1-31.1,25.4-40c1.4-2,4-2.8,6.3-1.8c2.3,0.9,3.5,3.3,3.1,5.7l-12.2,39.5l8.5-11.6c1.4-1.9,3.9-2.6,6.1-1.7
		c2.2,0.9,3.5,3.1,3.3,5.4l-2.7,23.7l14.4-18c1.4-1.7,3.6-2.3,5.6-1.7c2,0.7,3.5,2.5,3.6,4.7l0.2,4.5c13.9-30.7,28.1-61.3,42.5-91.8
		c4.1-8.7,8.4-17.7,19.8-19.1c10.3-1.3,16.9,4.5,23,11.4c15.8,18,21.6,39.6,23,62.9c2,33.1-7,62-32.5,83.8l3.6,0.6
		c3.7,0.6,5.6,4.8,3.7,8c-0.7,1.1-1.4,2.1-2.2,3c-2.9,3.3-6.6,6-9.9,8.9c0.4,0.8,2.8,3.1,3.7,3.7c3.2,2,3.3,6.8,0.1,8.9
		c-0.7,0.5-1.4,0.9-2.2,1.3c-3,1.6-6.4,2.8-9.7,3.3c-1.5,0.2-4.9,0.6-8.3,0.8c-3.1,0.2-4.7-3.5-2.5-5.6c1.8-1.7,3.4-3.5,3.6-5
		c-8.7-4.5-8.7-5.9,1.9-15.5c-2.6-1.8-5.2-3.5-9.6-6.5c36.6-24.6,50.4-58.1,43.8-100.3c-3-18.9-8.2-36.3-26.9-49
		c-3.6,16.4-7.2,32-10.4,47.6c-6.1,29.9-8.9,47.5-24.5,73.9c-1.1,1.8-2.2,3.6-3.5,5.1c-3.2,3.5-12.5,1.9-8.3-7.5
		c0.1-0.3,0.3-0.5,0.4-0.7c4.8-11.4,5.2-9,9.5-20.5c9.9-26.6,13.2-54.5,17-68.1l-11.8,23.6c-11.6,24-21.6,48.2-33,72.1l-0.1-0.2
		c-0.9,1.2-2.3,2.1-3.9,2.2c-2.9,0.1-5.3-2.1-5.4-4.9l-0.7-16.5l-17,21.2c-1.4,1.8-3.9,2.4-6,1.5c-2.1-0.9-3.4-3.1-3.2-5.4l2.5-22.2
		l-13.4,18.1c-1.4,1.9-4,2.6-6.2,1.7c-2.2-1-3.5-3.3-3-5.7l14.7-41.5c-6.9,10.2-23.4,40.6-24.4,42.5c-0.8,2.4-3.3,4-5.8,3.6
		c-4-0.7-4.3-4.1-4.1-6.2l0,0c0,0,0,0,0-0.1c0-0.5,0.1-1,0.2-1.3c0.2-1.1,0.4-2.7,0.7-4.6c0.6-3.7,1.3-8.6,2.1-13.6l-18.1,24.2
		c-1.5,2-4.1,2.6-6.3,1.6c-2.2-1-3.4-3.5-2.9-5.9l2.1-9.1l-10.3,16.6c-1.2,1.9-3.4,2.8-5.5,2.3c-2.1-0.5-3.8-2.2-4-4.4l-1.9-15.2
		L434.2,313c-0.9,1.7-2.7,2.7-4.5,2.7c-0.9,0-1.7-0.2-2.5-0.7c-2.5-1.4-3.4-4.5-2-7l2.3-4.2c-2.4-3.8-4.9-8.1-6.2-10.9
		c-8.2-17.4-20.4-46.3-30.8-63.6c0.7,9.9,5.4,31.1,6.8,40.9c3,20.4,10.8,42,11.1,46.5c0.4,5-7.8,6.5-11.2,2.8
		c-0.5-0.6-0.9-1.2-1.1-1.8c-5.8-22.9-10.4-37.2-14.9-60.5c-3.4-17.6-5.5-35.4-8.2-53.1c0-2.9,0.2-3.9-3.2-0.8c-2.1,2.6-4.7,5-6.1,8
		c-12.9,27.1-21.4,55.2-19.3,85.7c1.7,24.6,14.9,42.3,33.3,57c2.7,2.1,5.7,4.2,7.4,7c3,4.8-1.3,13.6-6,12.3
		c-5.7-1.6-11.7-2.6-17.6-4.1l5.6,4.6c1.8,1.5,2,4.1,0.6,5.8c-0.8,1-2,1.5-3.2,1.5c-0.9,0-1.9-0.3-2.6-0.9l-20.6-17
		c-1.7-1.4-2-3.9-0.6-5.7c-0.2-1.9,1.1-4,3.4-4.1l7.1-0.4C350.3,351,349.9,349.4,349.1,348.3z"/>
	<path d="M448.6,675.6c-0.9,0.6-1.9,0.9-2.9,0.9c-1.7,0-3.3-0.8-4.3-2.3l-13.3-19.8l-7.3,10.9c-1,1.5-2.8,2.4-4.7,2.3
		c-1.9-0.1-3.5-1.3-4.3-3l-10.7-22.8c-3.6,5.5-11.3,21.5-12.5,22.3c-1.1,0.8-2.5,0.9-3.8,0.4c5.3,7.1,12.4,16.5,17.6,23.4
		c1.2,1.6,1.1,3.9-0.3,5.4c-1.4,1.5-3.7,1.7-5.3,0.5c-4.6-3.1-9.7-6.5-14-9c5.3,7.7,13,17.7,16.5,22.2c1.1,1.5,1.2,3.5,0.1,5
		c-1.1,1.5-3,2.1-4.8,1.5l-14.6-5.3l15,30.1c0.8,1.6,0.5,3.6-0.8,4.8c-1.3,1.3-3.2,1.5-4.8,0.7l-7.3-3.9l14,28.4
		c0.9,1.8,0.4,3.9-1.2,5.1c-1.6,1.2-3.7,1.1-5.2-0.1l-10.3-8.9l9.6,25c0.6,1.6,0.2,3.5-1.2,4.6c-1.3,1.1-3.2,1.3-4.7,0.5L375,790
		l8.5,24.4c0.7,2.2-0.4,4.5-2.6,5.3c-0.4,0.2-0.9,0.2-1.4,0.2c-1.7,0-3.3-1.1-3.9-2.8l-12-34.7c-0.6-1.6-0.1-3.4,1.3-4.5
		c1.3-1.1,3.2-1.3,4.7-0.4l7.6,4.3l-11.4-29.7c-0.7-1.8-0.1-3.8,1.5-4.9c1.6-1.1,3.7-1,5.1,0.3l7.3,6.3L369,732.2
		c-0.8-1.6-0.5-3.6,0.8-4.8c1.3-1.3,3.2-1.5,4.8-0.7l7.2,3.8L368,702.7c-0.8-1.5-0.5-3.3,0.6-4.6c1.1-1.3,2.9-1.7,4.5-1.1l11,4
		c-5.7-7.6-12.3-16.9-14.2-21.3c-1.6-3.7,0.5-5.7,1.2-6.3c1.4-1.2,3.1-2.5,11.2,1.7c-6.2-8.3-11.7-15.7-12.3-16.9
		c-0.9-1.7-0.6-3.7,0.7-5.1c1.7-1.8,3.4-2.2,11,1c-0.2-3.7-0.4-7.5-0.6-10.9c-0.8-3.7-1.6-8.1-2.5-12.4c-0.5-2.4-0.9-4.7-1.3-7
		c-2.6,5.7-4.8,10.6-5.3,11.6c-0.8,1.9-2.8,3.2-4.8,3.2c0,0,0,0,0,0c-2.1,0-4-1.4-4.8-3.3c-0.3-0.8-1.1-2.8-0.6-29
		c0.1-6.4,0.3-11.4,0.5-15.2c-5.1,4-10.9,8.5-13.1,10.3c-1.9,1.6-4.5,1.8-6.5,0.5c-3-1.9-4.9-3.1,2.5-34.1c-0.1,0.1-0.2,0.3-0.4,0.4
		c-2.5,3.9-6,2.9-6.7,2.6c-3.6-1.3-4-4.2-3.3-9.1l1.1-10.2l-1.3,1c-2.6,2.1-6.4,1.7-8.4-0.9c-2.1-2.6-1.7-6.4,0.9-8.4l12.5-10.1
		c1.9-1.5,4.5-1.8,6.6-0.6c2.1,1.2,3.4,3.5,3.1,5.9l-0.7,6.5c0,0,0.1-0.1,0.1-0.1c0,0.2-0.1,0.3-0.1,0.5c2.2-2.4,3.7-3.9,3.9-4.1
		c1.7-1.6,4.2-1.9,6.2-0.8c2,1.2,3,3.5,2.4,5.8c-3.7,14.2-7.4,29.8-9.4,39.8c1.3-1,2.5-2,3.7-2.9c2.6-2,5.1-4,7-5.4
		c3.3-2.5,6.8-5.1,10-1.6c1.4,1.6,1.7,3.9,0.8,5.8c-0.6,3.1-1.1,16.2-1.3,28.3c1.4-3.1,2.4-5.4,2.6-5.7c0.9-2.1,3.1-3.3,5.3-3
		c2.2,0.3,4,2,4.5,4.2c2.1,11.5,4.5,23.9,6.3,32.8c1.8-2.8,4-6.1,6.8-10.3c1-1.5,2.8-2.4,4.7-2.3c1.9,0.1,3.5,1.3,4.3,3l10.7,22.9
		l6.5-9.7c1-1.4,2.6-2.3,4.3-2.3c1.7,0,3.3,0.9,4.3,2.3l17.6,26.2C451.6,670.8,451,674,448.6,675.6z"/>
	<path d="M671,550.9c-2,2.7-5.7,3.3-8.4,1.3l2.1,13.3c0.9,2.5-0.2,5.4-2.6,6.6c-2,1-4.4,0.5-6-1.1l-5.8-5.7
		c1.4,14.4,2.8,29.4,3.2,32.8c0.2,0.6,0.2,1,0.2,1.5c0,2.8-2.2,5.2-4.9,5.3c-3.8,0.2-8.8-7.8-13-12.2l1.3,25.1
		c0.1,1.9-0.8,3.8-2.5,4.8c-1.6,1-3.7,1-5.3,0l-10.4-6.2l-7.3,37.1l6.1-2.8c1.6-0.7,3.5-0.4,4.7,0.9c1.2,1.3,1.5,3.2,0.7,4.8
		c-2.7,5.6-5.6,11.5-8.1,16.8c3.3-3.2,5.9-5.7,6.2-5.9c1.4-1.4,3.6-1.5,5.2-0.4c1.6,1.1,2.2,3.2,1.5,5.1c-4.4,11-8.8,22.9-12.1,31.9
		c7.2-7.6,15.1-15.8,15.7-16.4c1.3-1.4,3.4-1.7,5.1-0.7c1.6,1,2.4,3,1.8,4.9l-11.6,37.6l7.3-3.7c1.4-0.7,3.1-0.5,4.4,0.5
		c1.2,1,1.8,2.6,1.5,4.2l-5.3,25.1l5.1-5.2c1.3-1.3,3.3-1.6,4.9-0.7c1.6,0.9,2.4,2.8,2,4.6l-8.4,36.6l7.1-5.2c1.4-1,3.3-1,4.7-0.1
		c1.4,1,2.1,2.8,1.7,4.5l-12.2,38.7c-0.5,1.9-2.2,3.2-4,3.2c-0.3,0-0.6,0-1-0.1c-2.2-0.5-3.6-2.8-3.1-5.1l9.7-27.8l-7,5
		c-1.2,0.8-2.7,1.1-4,0.6c-2-0.8-3-2.9-2.5-4.9l7.6-33.1l-4.8,4.8c-1.3,1.3-3.3,1.6-4.9,0.7c-1.6-0.9-2.5-2.8-2.1-4.6l6.4-30.6
		l-8.3,4.2c-1.5,0.7-3.3,0.5-4.5-0.6c-1.3-1.1-1.7-2.9-1.2-4.5l9.3-30c-6,6.3-12.4,13.1-14.7,15.6c-2,2.3-4.4,2-5.8,1.1
		c-3-1.9-4.3-2.7,8.5-36.1c-2.6,2.6-4.9,5-6.3,6.5c-2.8,3.2-5.7,1.3-6,1.1c-3.4-2.4-3-4.2,6.2-23.8c1.2-2.5,2.4-5,3.5-7.3l-2.6,1.2
		c-1.1,0.5-2.3,0.6-3.4,0.1c-1.9-0.8-2.8-2.7-2.5-4.6l2.1-11.9l-3.9-3.8l-4.2,18.9c-0.4,1.6-1.5,3-3,3.7c-1.5,0.7-3.2,0.6-4.7-0.2
		l-10.7-6.3l-15.9,19.3c-1,1.2-2.5,1.9-4,1.9c-1.2,0-2.4-0.4-3.4-1.3c-2.2-1.9-2.3-5.3-0.4-7.5l18.5-22.5c1.6-2,4.4-2.5,6.5-1.2
		l8.4,4.9l4.7-21c0.4-1.9,1.8-3.3,3.6-3.9c1.8-0.6,3.7-0.1,5.1,1.2l4.4,4.3L610,607c0.3-1.7,1.4-3.1,2.9-3.9
		c1.5-0.7,3.3-0.6,4.8,0.3l8.5,5.1l-1.5-29.2c-0.1-2.2,1.1-4.2,3.1-5.1c2-0.9,4.3-0.5,5.8,1.1c3.2,3.3,5.9,6,8.2,8.4
		c-0.2-2.5-3-31.6-3-31.6c-0.2-2.2,1-4.3,2.9-5.3c1.9-0.9,4.1-0.6,5.7,0.8l-0.1-0.2c1,0.8,2,1.5,3.2,2.1l-1-9.5
		c-0.2-2.4,0.9-4.6,3-5.8c2.1-1.2,4.6-1,6.5,0.4l10.9,7.9C672.4,544.4,673,548.2,671,550.9z"/>
	<path d="M532,474.5c-2.2-0.3-43.9-2.5-58.4,0.1c-7.8,11.8-17.5,20.4-27.7,30.1c-2.7,6-7.3,15.2-11.5,20.3c-7.7,9.3-7.9,18,0.4,27.4
		c6.7,7.6,15.6,14.1,20.3,23c5.4,12.2,26.6,40.6,42.4,43.2c1.5,0.2,2.9,0.4,4.2,0.5l0,0.2c0.5,0,0.9,0,1.4-0.1
		c0.5,0,0.9,0.1,1.4,0.1l0-0.2c1.4-0.1,2.8-0.3,4.2-0.5c15.8-2.7,37-31,42.4-43.2c4.7-8.8,13.7-15.4,20.3-23
		c8.2-9.4,8.1-18.1,0.4-27.4c-4-4.8-8.3-13.4-11.1-19.4C549.3,496.5,540.7,486.5,532,474.5z M503.2,607.1
		c-11.8-0.5-22.4-12-29.5-33.7c9.6,7.2,18.9,11.3,28.1,11.6c0,0,0,0,0.1,0c0.4,0,0.9,0,1.3,0c0.4,0,0.9,0,1.3,0c0,0,0,0,0.1,0
		c9.3-0.3,18.6-4.4,28.1-11.6C525.7,595.1,515,606.7,503.2,607.1z M557.4,548.1c-12.7,7.4-25.8,14.1-38.7,21.2
		c-4.5,2.5-6.4,0.5-7.6-3.3c-5.4-17.5,2.3-37,18.9-46c6.2-3.4,7.4-8.4,7.3-13.8c-0.1-4.7-4.3-8.6-8.6-9.3c-5.6-0.8-8.2,4.7-11,8.4
		c-2.9,3.9-5.1,6.7-6.9,8.6c-2.8,2.8-12.1,2.8-14.9,0c-1.8-1.8-4-4.7-6.9-8.6c-2.8-3.7-5.5-9.2-11-8.4c-4.3,0.6-8.5,4.6-8.6,9.3
		c-0.1,5.4,1.1,10.4,7.3,13.8c16.6,9,24.3,28.5,18.9,46c-1.2,3.7-3.1,5.7-7.6,3.3c-12.9-7.1-26-13.9-38.7-21.2
		c-5.7-3.3-6.8-8.7-4.3-14.4c5.3-11.9,10.5-24,16.3-35.7c4.5-9.1,12.4-14,24-14.6c3-0.2,33.4-0.2,36.3,0c11.6,0.6,19.4,5.5,24,14.6
		c5.8,11.7,11,23.7,16.3,35.7C564.2,539.4,563.1,544.8,557.4,548.1z"/>
</g>
</svg>
