<svg width="657" height="85" viewBox="0 0 657 85" fill="none" xmlns="http://www.w3.org/2000/svg">
<g id="date">
<g id="Group">
<path id="Vector" d="M17.2001 54.4001C21.4001 50.7001 25.0001 46.8001 27.8001 42.8001C30.7001 38.8001 32.1 35.0001 32.1 31.4001C32.1 29.2001 31.6 27.5001 30.6 26.3001C29.6 25.1001 28.2 24.5001 26.3 24.5001C24.3 24.5001 22.8001 25.3001 21.7001 27.0001C20.6001 28.7001 20.1001 31.1001 20.2001 34.3001H0.800049C1.00005 28.2001 2.30005 23.2001 4.80005 19.2001C7.30005 15.2001 10.5001 12.3001 14.4001 10.4001C18.3001 8.5001 22.7 7.6001 27.6 7.6001C36 7.6001 42.2001 9.7001 46.3001 13.8001C50.4001 18.0001 52.4001 23.3001 52.4001 29.9001C52.4001 37.0001 50.0001 43.6001 45.3001 49.8001C40.6001 56.0001 34.7 61.5001 27.6 66.5001H53.1V82.7001H1.00005V67.7001C7.60005 62.7001 13.0001 58.2001 17.2001 54.4001Z" fill="#EA617D"/>
<path id="Vector_2" d="M60.9 71.5999V55.0999L92.3 10.3999H114.3V54.2999H122.2V71.6999H114.3V83.9999H94V71.5999H60.9ZM95.6 32.8999L81.5 54.1999H95.6V32.8999Z" fill="#EA617D"/>
<path id="Vector_3" d="M133.2 81.7999C131.1 79.8999 130 77.3999 130 74.3999C130 71.3999 131.1 68.8999 133.2 66.8999C135.3 64.8999 138.2 63.8999 141.7 63.8999C145.2 63.8999 148 64.8999 150.1 66.8999C152.2 68.8999 153.3 71.3999 153.3 74.3999C153.3 77.2999 152.2 79.7999 150.1 81.7999C148 83.7999 145.1 84.7999 141.7 84.7999C138.2 84.6999 135.4 83.6999 133.2 81.7999Z" fill="#EA617D"/>
<path id="Vector_4" d="M222.5 40.1001V56.8001H176.2V40.1001H222.5Z" fill="#EA617D"/>
<path id="Vector_5" d="M264.7 54.4001C268.9 50.7001 272.5 46.8001 275.3 42.8001C278.2 38.8001 279.6 35.0001 279.6 31.4001C279.6 29.2001 279.1 27.5001 278.1 26.3001C277.1 25.1001 275.7 24.5001 273.8 24.5001C271.8 24.5001 270.3 25.3001 269.2 27.0001C268.1 28.7001 267.6 31.1001 267.7 34.3001H248.3C248.5 28.2001 249.8 23.2001 252.3 19.2001C254.8 15.2001 258 12.3001 261.9 10.4001C265.8 8.5001 270.2 7.6001 275.1 7.6001C283.5 7.6001 289.7 9.7001 293.8 13.8001C297.9 18.0001 299.9 23.3001 299.9 29.9001C299.9 37.0001 297.5 43.6001 292.8 49.8001C288.1 56.0001 282.2 61.5001 275.1 66.5001H300.6V82.7001H248.5V67.7001C255.1 62.7001 260.5 58.2001 264.7 54.4001Z" fill="#EA617D"/>
<path id="Vector_6" d="M340.3 25.5C339.2 24.4 337.6 23.9001 335.5 23.9001C332.3 23.9001 330.1 25.4001 328.8 28.4001C327.5 31.4001 326.9 36.1 326.8 42.5C328.2 40.4 330.1 38.7 332.7 37.5C335.3 36.3 338.1 35.7001 341.3 35.7001C347.9 35.7001 353.2 37.7001 357.2 41.8001C361.2 45.9001 363.2 51.7001 363.2 59.4001C363.2 64.4001 362.2 68.8001 360.1 72.6001C358 76.4001 355 79.3 351.1 81.3C347.2 83.3 342.6 84.4001 337.3 84.4001C326.7 84.4001 319.4 81.1 315.3 74.5C311.2 67.9 309.1 58.6 309.1 46.6C309.1 33.3 311.3 23.4001 315.6 17.2001C320 10.9001 327 7.80005 336.6 7.80005C344.4 7.80005 350.4 10.0001 354.4 14.4001C358.5 18.8001 360.7 24.2001 361.2 30.7001H342.6C342.2 28.3001 341.4 26.6 340.3 25.5ZM330.6 53.2C329.1 54.6 328.3 56.5 328.3 59C328.3 61.7 329 63.7 330.4 65.1C331.8 66.5 333.9 67.2 336.5 67.2C339 67.2 340.9 66.5 342.3 65.1C343.7 63.7 344.4 61.7 344.4 59.1C344.4 56.6 343.7 54.6 342.3 53.2C340.9 51.8 338.9 51.1 336.4 51.1C334.1 51.2 332.1 51.9 330.6 53.2Z" fill="#EA617D"/>
<path id="Vector_7" d="M375 81.7999C372.9 79.8999 371.8 77.3999 371.8 74.3999C371.8 71.3999 372.9 68.8999 375 66.8999C377.1 64.8999 380 63.8999 383.5 63.8999C387 63.8999 389.8 64.8999 391.9 66.8999C394 68.8999 395.1 71.3999 395.1 74.3999C395.1 77.2999 394 79.7999 391.9 81.7999C389.8 83.7999 386.9 84.7999 383.5 84.7999C380 84.6999 377.2 83.6999 375 81.7999Z" fill="#EA617D"/>
<path id="Vector_8" d="M483.1 11.8V59.5C483.1 67.6 480.9 73.8001 476.5 78.1001C472.1 82.4001 466.1 84.5 458.4 84.5C450.2 84.5 443.7 82.2 438.8 77.7C433.9 73.1 431.5 66.6 431.5 58H451.3C451.4 63.7 453.4 66.5 457.5 66.5C461.2 66.5 463 64.2 463 59.6V11.8H483.1Z" fill="#EA617D"/>
<path id="Vector_9" d="M553.7 26.6001V83.9001H533.6V75.7001C531.9 78.3001 529.5 80.4001 526.6 82.0001C523.6 83.6001 520.2 84.4001 516.3 84.4001C509.6 84.4001 504.4 82.2001 500.5 77.8001C496.7 73.4001 494.7 67.4001 494.7 59.9001V26.6001H514.6V57.3001C514.6 60.6001 515.5 63.1001 517.2 65.0001C518.9 66.9001 521.2 67.8001 524.1 67.8001C527 67.8001 529.3 66.9001 531 65.0001C532.7 63.1001 533.6 60.6001 533.6 57.3001V26.6001H553.7Z" fill="#EA617D"/>
<path id="Vector_10" d="M618.4 32.5999C622.3 36.9999 624.2 42.8999 624.2 50.3999V83.7999H604.2V53.0999C604.2 49.7999 603.3 47.2999 601.6 45.3999C599.9 43.4999 597.6 42.5999 594.8 42.5999C591.8 42.5999 589.5 43.4999 587.8 45.3999C586.1 47.2999 585.2 49.7999 585.2 53.0999V83.7999H565.2V26.5999H585.2V34.7999C587 32.1999 589.4 30.0999 592.4 28.4999C595.4 26.8999 598.8 26.0999 602.7 26.0999C609.3 25.9999 614.5 28.1999 618.4 32.5999Z" fill="#EA617D"/>
<path id="Vector_11" d="M636.8 18.3C634.7 16.4 633.6 13.9 633.6 11C633.6 8 634.7 5.5 636.8 3.5C638.9 1.5 641.8 0.5 645.3 0.5C648.8 0.5 651.6 1.5 653.7 3.5C655.8 5.5 656.9 8 656.9 11C656.9 13.9 655.8 16.4 653.7 18.3C651.6 20.2 648.7 21.2 645.3 21.2C641.8 21.2 639 20.3 636.8 18.3ZM655.3 26.6V83.9H635.3V26.6H655.3Z" fill="#EA617D"/>
</g>
</g>
</svg>
