<svg width="467" height="537" viewBox="0 0 467 537" fill="none" xmlns="http://www.w3.org/2000/svg">
<g id="Lama2">
<g id="Group">
<path id="Vector" d="M201.36 302.406C207.85 311.276 221.35 321.216 227.25 316.976C230.58 314.586 235.01 314.636 238.82 316.186C242.88 317.836 247.05 317.696 250.76 315.126C253.67 313.116 261.73 307.556 266.48 302.946C264.36 302.306 262.53 300.796 261.25 298.726C256.04 302.626 249.59 307.046 247.42 308.796C243.48 311.966 238.6 310.346 234.33 309.826C234.27 303.556 234.15 297.616 234.25 291.676C234.27 290.766 235.1 289.546 235.93 289.036C239.04 287.096 242.58 285.716 245.45 283.506C248.55 281.106 251.41 278.236 253.77 275.136C255.98 272.226 253.79 267.726 249.92 266.076C246.52 264.626 244.47 265.906 242.84 269.906C240.92 274.606 237.92 278.576 234.25 282.126C233.27 283.076 231.69 282.996 230.71 282.046C226.84 278.306 224.43 273.736 222.08 269.096C220.24 265.456 216.11 264.636 213.18 267.516C209.58 271.056 209.17 274.306 212.98 277.506C217.79 281.556 223.2 284.936 228.3 288.666C229.13 289.276 230.32 290.216 230.32 290.996C230.32 297.346 230.07 303.706 229.89 310.096C221.77 313.336 212.93 306.386 205.87 297.556C204.83 299.716 203.26 301.426 201.36 302.406Z" fill="#682470"/>
<path id="Vector_2" d="M176.25 438.446C182.58 441.026 189.07 443.176 195.68 444.926C208.91 448.266 222.59 449.986 236.25 449.676C263.6 449.556 290.72 441.486 314.03 427.176C319.24 424.086 324.14 420.526 328.92 416.806C330.33 414.736 331.45 412.626 332.22 410.466L332.28 410.266C334.54 402.276 332.12 393.856 326.41 387.816C319.75 380.766 337.72 383.796 336.73 382.206C342.82 384.196 330.12 369.046 317.95 355.686C323.33 356.306 327.85 356.826 332.91 357.406C326.01 350.506 323.04 342.866 324.07 333.336C331.31 335.086 334.67 340.396 338.78 345.966C340.53 343.666 342.48 341.746 343.64 339.466C347.58 331.656 346.48 323.846 342.51 316.436C339.86 311.486 336.56 306.856 333.24 301.586C334.54 301.716 335.54 301.576 336.28 301.936C339.37 303.406 342.27 302.896 345.15 301.446C350.82 298.586 353.35 291.726 350.23 284.706C347.78 279.196 344.03 274.236 340.88 269.026C339.26 266.346 337.66 263.646 335.75 260.446C342.25 261.196 345.51 260.016 348.17 256.166C350.81 252.326 350.6 248.236 348.45 244.316C347.07 241.796 345.28 239.476 343.57 237.136C341.35 234.086 338.8 231.246 336.79 228.076C332.64 221.546 330.99 214.246 329.88 206.386C335.68 208.306 340.38 211.976 346.94 211.476C341.99 203.186 337.26 195.276 332.15 186.716C341.89 191.936 346.51 193.036 353.1 191.826C351.44 185.396 347.94 180.036 342.91 175.736C337.91 171.456 332.55 167.576 327.16 163.386C327.92 162.046 328.66 160.756 329.38 159.456C330.15 158.056 330.9 156.636 331.67 155.236C342.61 135.406 346.88 119.096 346.63 97.1461C346.45 81.4461 343.15 65.9161 337.27 51.3061C332.16 38.6161 327.7 25.6261 318.96 14.6861C313.93 8.38614 307.97 3.26614 299.84 1.10614C294.29 -0.373862 290.32 1.65614 288.38 6.89614C287.39 9.57614 286.29 12.4161 286.24 15.1961C286.06 25.5161 285.76 35.8661 286.49 46.1461C287.86 65.5061 288.14 79.5261 282.77 98.3761C280.19 107.456 276.54 111.016 273.35 120.006C244.79 113.366 217.06 117.826 188.66 119.866C185.85 111.386 182.62 108.006 180.21 99.1761C178.42 92.6261 176.92 86.8461 176.55 80.1061C175.67 64.1461 175.82 55.0061 175.07 39.0461C174.61 29.2461 173.48 19.4161 169.17 10.3261C164.73 0.95614 155.78 -0.383862 148.52 7.17614C140.52 15.5161 136.21 26.1161 130.97 36.3161C127.14 43.7761 123.98 51.5861 121.84 59.7061C117.1 77.6761 116.32 91.5561 120.07 109.476C122.82 122.636 127.91 135.266 135.3 146.506C137.85 150.386 141.09 156.716 143.33 160.936C138.39 164.896 133.28 168.076 129.4 172.306C123.79 178.416 118.98 185.216 114 191.846C111.51 195.156 112.6 197.426 116.91 197.796C119.6 198.026 122.39 197.566 125.09 197.176C128.11 196.736 131.09 196.026 133.66 195.526C130.97 200.286 128.34 205.036 125.62 209.736C122.13 215.756 118.85 221.926 114.87 227.636C113.01 230.316 109.73 232.076 106.99 234.326C114.06 239.146 121.65 238.986 129.65 237.106C128.91 238.446 128.17 239.636 127.11 240.436C125.21 241.886 122.31 246.276 120.38 247.696C115.26 251.446 113.88 255.276 117 260.406C118.78 263.346 121.89 265.526 124.67 268.316C122.55 271.316 119.73 274.856 117.45 278.686C115.09 282.656 113.28 286.926 111.22 291.056C111.55 291.536 111.62 291.636 111.95 292.116L122.47 291.086C117.01 302.366 117.04 314.726 116 327.096C120.08 326.986 122.1 324.786 123.58 322.076C125.96 317.736 129.87 316.426 135.1 316.386C132.99 327.306 133.13 342.386 123.05 349.816C130.68 355.416 137.47 347.096 144.77 345.776C142.17 350.376 137.48 356.636 133.75 360.286C128.4 365.526 123.05 368.146 126.71 369.856C124.05 371.256 153.33 372.956 133.75 381.226C132.6 381.706 125.72 383.846 128.4 386.466C132.68 390.656 144.76 384.906 141.78 386.466C135.38 389.816 132.14 394.796 133.27 403.686C133.78 407.666 135.05 411.466 136.92 414.966C143.49 420.366 150.5 425.216 157.89 429.426C163.77 432.856 169.96 435.776 176.25 438.446ZM275.03 217.496C277.21 221.256 278.91 225.016 281.37 228.236C285.66 233.846 291 234.706 297.38 231.526C303.06 228.696 306.04 223.866 308.1 218.326C308.63 216.896 308.99 215.416 309.54 213.566C311.11 213.586 312.73 213.616 314.29 213.636C317.93 228.326 302.35 245.146 288.18 241.776C278.85 239.556 273.56 232.656 269.67 224.656C269.11 223.496 268.76 222.236 268.36 220.996C268.22 220.566 268.24 220.086 268.13 219.216C270.7 218.596 273.03 218.006 275.03 217.496ZM214.84 231.046C228.85 222.136 238.24 223.286 251.15 231.806C259.95 237.616 265.7 245.756 269.44 255.116C273.36 264.936 277.4 274.846 279.86 285.056C283.46 300.006 280.04 310.876 263.24 321.976C263.06 322.096 262.85 322.176 262.66 322.286C257.95 324.886 253.49 327.406 250.15 332.036C242.6 342.506 220.2 342.996 211.7 330.026C209.5 326.676 206.62 325.056 203.48 323.216C192.8 316.956 183.9 309.106 183.55 296.126C183.38 289.886 184.69 283.376 186.61 277.366C189.68 267.736 193.81 258.426 197.5 248.986C202.11 241.786 207.55 235.686 214.84 231.046ZM149.93 213.616C154.14 212.236 155.6 213.816 156.36 217.306C157.8 223.866 161.36 229.116 167.82 232.206C172.32 234.356 176.88 234.146 180.26 230.566C183.47 227.166 185.91 223.066 189.04 218.786C190.47 219.206 192.8 219.906 195.1 220.586C194.26 229.616 182.73 241.456 173.28 242.196C167.31 242.666 162.36 240.446 158.26 236.406C151.84 230.106 148.61 222.686 149.93 213.616Z" fill="#682470"/>
<path id="Vector_3" d="M65.07 166.466L71.99 171.676L71.53 172.256C70.79 173.196 69.82 174.116 68.63 175.016C66.67 176.386 63.57 177.386 59.33 177.996C60.72 181.866 62.31 184.516 64.1 185.926C65.19 186.786 66.41 187.306 67.77 187.486C71.18 187.136 73.81 185.796 75.65 183.456C77.23 181.456 78.19 179.176 78.52 176.616L79.89 177.666C86.67 183.786 88.95 188.246 86.72 191.056L86.21 191.706C84.66 193.656 80.86 192.886 74.78 189.406L70.07 201.986L70.8 202.566C75.2 206.056 81.1 204.176 88.47 196.916L89 196.246C90.3 194.606 95.75 187.686 105.35 175.496L102.17 172.986C101.64 173.296 101.08 173.376 100.47 173.216C94.16 170.316 88.21 166.656 82.62 162.236C77.47 158.156 72.51 153.326 67.73 147.746C67.06 146.736 66.83 145.886 67.05 145.186L63.74 142.526L49.75 160.196L53.66 163.286C56.88 161.936 60.68 162.996 65.07 166.466Z" fill="#7D7DBB"/>
<path id="Vector_4" d="M25.6 233.296L30.6 221.076C24.93 217.306 22.42 214.516 23.08 212.726C25.4 208.016 30.01 207.236 36.91 210.396L44.5 213.666C44.47 214.366 44.2 215.276 43.69 216.396C43.18 217.506 42.46 218.646 41.51 219.826C39.93 221.626 37.16 223.326 33.19 224.936C35.46 228.366 37.64 230.556 39.71 231.506C40.98 232.086 42.29 232.296 43.65 232.146C47.09 231.066 49.44 229.136 50.71 226.356C52.01 223.506 52.26 220.266 51.46 216.646L53.99 217.736C62.44 222.246 65.91 226.126 64.42 229.386L64.08 230.136C63.05 232.396 59.17 232.566 52.44 230.626L50.86 243.966L51.7 244.356C56.81 246.696 62.09 243.456 67.5201 234.656L67.87 233.876C68.74 231.966 72.38 223.956 78.79 209.826L75.11 208.146C74.68 208.556 74.16 208.756 73.55 208.766C66.64 207.436 59.78 205.216 52.96 202.096C46.8 199.286 40.7001 195.656 34.66 191.206C34.0301 190.566 33.74 189.926 33.8 189.256L30.12 187.576L29.69 188.506L15.8 218.346C16.09 225.216 19.36 230.206 25.6 233.296Z" fill="#7D7DBB"/>
<path id="Vector_5" d="M17.2499 288.376C17.6199 288.446 18.5099 288.476 19.9299 288.476C25.3899 287.756 29.6699 285.046 32.7699 280.356C41.0999 266.456 46.7499 259.776 49.7299 260.316C52.0299 260.896 53.3099 262.236 53.5799 264.356C53.2099 266.396 52.2199 268.046 50.6299 269.286C43.6799 271.306 39.7999 274.496 39.0099 278.856L38.9199 279.376C39.1799 284.276 40.5699 287.066 43.1199 287.736C45.6599 288.406 47.3899 288.826 48.3099 288.996C50.2499 289.346 51.8999 289.266 53.2799 288.736C52.0899 286.506 51.6999 284.266 52.1099 282.016C52.2799 281.086 52.5499 280.136 52.9299 279.146L57.6199 268.166C59.7999 256.176 55.7599 249.256 45.5099 247.396C45.0099 247.306 44.4799 247.216 43.9399 247.136C39.3399 247.496 35.2099 249.926 31.5499 254.446C25.4699 267.336 19.8199 273.316 14.5999 272.366L12.7399 272.026C9.55991 271.446 8.04991 268.746 8.20991 263.916L8.28992 263.456C9.11992 258.886 10.6599 256.406 12.9199 255.996C15.1699 255.586 16.6699 255.456 17.4099 255.586C19.6999 256.006 21.4099 258.166 22.5399 262.076C25.2499 259.896 26.9999 257.016 27.7899 253.416C28.8499 247.576 26.2399 244.086 19.9499 242.946C19.1599 242.806 18.4399 242.836 17.7699 243.056C10.2499 244.376 5.59992 249.906 3.82992 259.636L2.73991 265.656C2.51991 266.846 2.48991 268.836 2.63991 271.606C3.75991 281.216 8.62992 286.816 17.2499 288.376Z" fill="#7D7DBB"/>
<path id="Vector_6" d="M39.87 325.736L39.99 327.056C41.09 334.116 45.22 337.956 52.37 338.566L55.51 337.816C54.59 334.706 54.06 332.106 53.93 329.986C53.9 329.516 53.88 329.046 53.88 328.576L52.85 309.296C52.83 308.196 52.79 307.216 52.74 306.356C52.69 305.496 52.62 304.756 52.54 304.126C51.44 295.736 46.35 291.726 37.27 292.116L36.77 292.146L36.04 292.246C36.03 292.426 36.03 292.606 36.04 292.806C36.16 294.716 37.24 296.586 39.28 298.406C40.43 299.556 41.08 301.166 41.21 303.236C41.33 305.216 40.99 307.596 40.19 310.396C37.3 310.946 33.52 311.366 28.87 311.656C27.94 311.716 26.98 311.756 25.99 311.806L23.64 311.956C12.47 312.646 5.79 312.126 3.6 310.406L0 310.626L1.29 331.446L4.87 331.226C7.65 328.516 15.46 326.766 28.31 325.976C33.15 325.676 37 325.596 39.87 325.736Z" fill="#7D7DBB"/>
<path id="Vector_7" d="M58.9101 362.476L62.4401 361.416L57.2501 341.146L53.6101 342.166C50.8801 344.916 44.4201 347.636 34.2201 350.346C33.2801 350.596 32.3001 350.846 31.2901 351.086L29.0101 351.686C18.1901 354.556 11.5401 355.356 9.05009 354.086L5.59009 355.006L10.9301 375.176L14.4001 374.256C16.6001 371.056 24.0201 367.786 36.6801 364.436C49.2701 361.106 56.6801 360.446 58.9101 362.476Z" fill="#7D7DBB"/>
<path id="Vector_8" d="M78.67 408.636L81.58 407.186L74.29 392.596L71.29 394.156C70.43 396.766 68.99 398.596 66.96 399.626C66.57 399.876 66.13 400.116 65.66 400.356C60.67 402.896 51.72 405.566 38.8 408.366C49.96 396.786 57.27 389.926 60.74 387.766C63.61 386.816 65.77 386.846 67.24 387.886L70.79 386.146L60.19 365.326L57.31 366.896C56.64 368.946 55.15 371.256 52.84 373.826C41.85 385.446 34.37 392.396 30.4 394.686L29.13 395.336C27.47 396.176 24.99 396.816 21.69 397.246L19.25 398.586L30.98 421.836L34.12 420.396C34.82 418.956 35.82 417.506 37.11 416.036C41.88 413.606 49.4 411.246 59.68 408.956C68.28 407.206 74.62 407.096 78.67 408.636Z" fill="#7D7DBB"/>
<path id="Vector_9" d="M80.8799 458.676C86.1299 449.616 93.2699 441.196 102.31 433.416C103.1 432.736 104.07 431.916 105.22 430.946L90.1599 413.196L83.1799 419.786C81.5799 420.956 80.0799 421.946 78.6599 422.776C78.3899 421.816 77.7099 420.606 76.6299 419.136C72.9099 414.946 68.6099 414.726 63.7299 418.486C62.1399 420.236 61.9199 422.346 63.0399 424.816C65.1599 424.056 66.5299 424.046 67.1699 424.786C67.5399 425.216 67.7899 425.876 67.9199 426.776C68.0099 427.526 68.0999 428.106 68.1899 428.516C61.9099 431.906 55.8699 434.286 50.0599 435.666C47.2199 436.266 45.1799 436.206 43.9299 435.466L41.1899 438.016L50.6199 448.976L53.4499 446.506C53.3299 445.856 53.6599 445.196 54.4499 444.516L54.7999 444.216C57.2099 442.136 59.7099 440.346 62.2899 438.826C65.3599 437.136 67.9899 435.676 70.1699 434.456C70.2899 434.766 70.5799 435.336 71.0199 436.156C71.8399 437.826 72.8299 439.326 73.9799 440.666C74.5799 441.366 75.0399 441.846 75.3599 442.116C72.5299 445.096 69.5999 447.886 66.5799 450.486C66.1999 450.836 65.8399 451.156 65.4899 451.456C63.0299 453.576 61.2499 454.586 60.1499 454.506L57.4099 456.866L71.7499 473.526L75.1099 470.406C74.4899 469.726 76.4199 465.806 80.8799 458.676ZM86.1199 425.246C88.8399 423.526 90.2899 422.766 90.4499 422.956C90.5399 423.056 90.2099 423.746 89.4599 425.006C86.3199 429.496 83.2799 433.426 80.3499 436.796C79.5399 434.186 79.1699 431.696 79.2599 429.326C81.8499 427.826 84.1299 426.466 86.1199 425.246Z" fill="#7D7DBB"/>
<path id="Vector_10" d="M121.18 474.346C117.13 474.246 113.99 476.846 111.77 482.156C114.99 485.846 115.53 488.786 113.39 490.986C111.25 493.186 109.1 493.496 106.93 491.926C104.77 490.356 102.65 488.346 100.58 485.916C101.9 481.976 105.25 476.216 110.61 468.626C118.14 457.986 123.4 452.736 126.41 452.856L128.44 449.776L111.45 437.556L109.32 440.676C108.99 444.536 105.78 450.766 99.69 459.386C99.13 460.176 98.54 460.996 97.92 461.836L96.56 463.756C90.1 472.896 85.5 477.776 82.79 478.396L80.72 481.316L94.25 490.886C98.46 493.946 100.93 495.726 101.63 496.226C104.1 497.866 106.11 498.896 107.68 499.326C115.39 501.476 121.04 500.026 124.62 494.966C127.66 490.476 129.23 486.766 129.35 483.846C127.96 477.616 125.24 474.446 121.18 474.346Z" fill="#7D7DBB"/>
<path id="Vector_11" d="M187.65 502.526C183.81 503.836 181.77 507.366 181.53 513.116C185.83 515.456 187.36 518.036 186.11 520.836C184.86 523.636 182.95 524.676 180.38 523.956C177.81 523.236 175.12 522.086 172.34 520.516C172.22 516.356 173.36 509.796 175.76 500.826C179.13 488.236 182.25 481.486 185.11 480.556L185.95 476.966L165.78 471.396L164.86 475.066C165.89 478.796 165.04 485.766 162.31 495.956C162.06 496.896 161.79 497.866 161.5 498.866L160.89 501.146C157.99 511.956 155.38 518.126 153.04 519.656L152.11 523.116L168.12 527.406C173.14 528.816 176.06 529.636 176.89 529.856C179.77 530.536 182.02 530.806 183.64 530.666C191.62 530.016 196.42 526.696 198.02 520.716C199.31 515.446 199.5 511.426 198.6 508.646C195.15 503.246 191.49 501.216 187.65 502.526Z" fill="#7D7DBB"/>
<path id="Vector_12" d="M246.31 520.156C243.06 510.206 241.56 499.266 241.8 487.346C241.82 486.306 241.86 485.036 241.9 483.526L218.64 482.886L218.88 492.486C218.68 494.456 218.42 496.236 218.1 497.846C217.2 497.406 215.85 497.106 214.03 496.936C208.42 496.906 205.4 499.966 204.94 506.116C205.19 508.466 206.6 510.046 209.19 510.846C210.04 508.766 210.95 507.726 211.93 507.746C212.5 507.756 213.16 508.016 213.92 508.516C214.54 508.946 215.03 509.266 215.4 509.476C213.73 516.406 211.47 522.506 208.63 527.756C207.19 530.266 205.78 531.746 204.4 532.186L204.47 535.936L218.92 536.226L218.97 532.476C218.41 532.136 218.14 531.446 218.16 530.406L218.17 529.946C218.23 526.756 218.56 523.706 219.14 520.776C219.93 517.366 220.6 514.436 221.14 511.986C221.45 512.106 222.06 512.266 222.98 512.486C224.77 512.986 226.55 513.256 228.31 513.286C229.23 513.306 229.89 513.286 230.31 513.226C230.64 517.326 230.76 521.366 230.68 525.346C230.69 525.856 230.69 526.346 230.68 526.806C230.61 530.056 230.18 532.066 229.38 532.816L229.31 536.436L251.29 536.876L251.21 532.296C250.27 532.276 248.64 528.236 246.31 520.156ZM223.37 501.766C223.98 498.836 224.49 496.226 224.91 493.936C225.44 490.756 225.84 489.176 226.09 489.186C226.23 489.196 226.52 489.896 226.96 491.296C228.2 496.626 229.1 501.516 229.66 505.956C227.18 504.806 225.08 503.416 223.37 501.766Z" fill="#7D7DBB"/>
<path id="Vector_13" d="M316.41 518.596L314.1 517.986C310.48 514.206 306.79 504.946 303.01 490.206C301.05 482.576 300.81 477.206 302.28 474.086L301.34 471.136L279.29 476.716L280.38 480.856C282.2 481.166 283.59 482.296 284.55 484.236L282.41 500.616C281.38 499.056 279.89 496.576 277.93 493.196C276.09 490.376 274.87 487.776 274.26 485.406C274.05 484.596 274.16 483.316 274.59 481.586L273.75 478.176L251.98 483.646L253.03 487.756C255.08 489.126 256.93 492.286 258.58 497.226C263.74 517.366 264.43 529.296 260.67 532.996L261.56 536.466L277.75 532.316L276.94 528.786C273.06 527.426 270.54 524.546 269.42 520.136C267.63 513.126 266.5 505.976 266.05 498.666C269.56 504.866 272.97 510.686 276.28 516.116C279.59 521.546 283.17 526.706 287.01 531.586C286.75 512.886 287.32 500.486 288.71 494.406C290.59 499.196 292.05 503.656 293.11 507.766L294.62 513.646C295.85 520.206 296 523.606 295.05 523.846C295.03 523.856 294.69 523.856 294.03 523.866L295.29 527.826L316.21 522.466L316.26 522.526C317.07 522.316 317.39 521.836 317.19 521.086C317.07 520.676 316.81 519.846 316.41 518.596Z" fill="#7D7DBB"/>
<path id="Vector_14" d="M356.87 481.376C348.92 474.556 341.96 465.986 335.98 455.676C335.46 454.776 334.83 453.676 334.09 452.356L313.87 463.896L319.06 471.966C319.91 473.746 320.62 475.416 321.17 476.956C320.18 477.046 318.86 477.496 317.22 478.286C312.42 481.176 311.42 485.366 314.22 490.846C315.65 492.726 317.68 493.336 320.31 492.686C319.95 490.466 320.2 489.106 321.04 488.616C321.53 488.326 322.23 488.206 323.14 488.246C323.89 488.296 324.49 488.316 324.9 488.296C327.07 495.086 328.31 501.466 328.6 507.436C328.67 510.336 328.24 512.326 327.28 513.416L329.29 516.586L341.79 509.326L339.88 506.096C339.22 506.096 338.63 505.646 338.11 504.746L337.88 504.346C336.28 501.586 334.97 498.806 333.95 495.996C332.86 492.666 331.9 489.816 331.1 487.446C331.43 487.386 332.04 487.206 332.93 486.916C334.72 486.416 336.38 485.726 337.91 484.836C338.71 484.376 339.27 484.016 339.59 483.746C342 487.076 344.2 490.466 346.2 493.916C346.47 494.346 346.73 494.766 346.96 495.166C348.59 497.976 349.26 499.916 348.97 500.976L350.78 504.106L369.79 493.076L367.34 489.206C366.55 489.686 363.05 487.076 356.87 481.376ZM327.72 477.576C326.71 474.756 325.8 472.256 324.97 470.086C323.78 467.096 323.29 465.536 323.51 465.406C323.63 465.336 324.24 465.786 325.34 466.756C329.18 470.666 332.48 474.376 335.26 477.876C332.56 478.196 330.04 478.096 327.72 477.576Z" fill="#7D7DBB"/>
<path id="Vector_15" d="M389.72 439.386C383.33 439.566 379.7 441.626 378.82 445.586C377.94 449.546 379.9 453.126 384.69 456.316C388.93 453.856 391.92 453.886 393.66 456.406C395.41 458.926 395.3 461.106 393.35 462.926C391.39 464.746 389.02 466.446 386.23 468.006C382.62 465.956 377.6 461.566 371.18 454.856C362.18 445.436 358.02 439.266 358.71 436.336L356.08 433.756L340.84 448.096L343.5 450.786C347.22 451.846 352.73 456.186 360.03 463.816C360.7 464.516 361.39 465.256 362.09 466.016L363.72 467.716C371.46 475.806 375.37 481.246 375.46 484.036L377.94 486.626L389.92 475.166C393.73 471.616 395.95 469.536 396.57 468.936C398.65 466.826 400.05 465.046 400.77 463.596C404.36 456.436 404.01 450.616 399.73 446.136C395.9 442.326 392.56 440.066 389.72 439.386Z" fill="#7D7DBB"/>
<path id="Vector_16" d="M424.63 404.076C414.43 401.706 404.29 397.336 394.21 390.966C393.33 390.406 392.26 389.716 391 388.906L378.43 408.496L386.77 413.246C388.35 414.426 389.75 415.576 390.95 416.686C390.12 417.226 389.15 418.226 388.07 419.696C385.15 424.476 386.2 428.656 391.22 432.226C393.36 433.226 395.44 432.836 397.47 431.036C396.12 429.236 395.71 427.916 396.24 427.086C396.54 426.606 397.1 426.176 397.92 425.786C398.61 425.486 399.14 425.226 399.51 425.016C404.58 430.036 408.63 435.116 411.65 440.266C413.06 442.806 413.59 444.776 413.25 446.176L416.5 448.056L424.22 435.836L421.04 433.856C420.46 434.156 419.72 434.026 418.84 433.476L418.45 433.236C415.76 431.536 413.31 429.676 411.11 427.656C408.59 425.206 406.43 423.126 404.62 421.396C404.89 421.196 405.34 420.756 406 420.076C407.36 418.796 408.5 417.416 409.45 415.926C409.94 415.146 410.27 414.566 410.44 414.186C414.12 416.026 417.64 418.006 421.01 420.136C421.45 420.396 421.87 420.646 422.26 420.886C425.01 422.626 426.5 424.026 426.74 425.106L429.8 427.036L441.54 408.456L437.58 406.156C437.06 406.946 432.75 406.256 424.63 404.076ZM397.04 414.196C394.85 412.166 392.88 410.376 391.13 408.826C388.69 406.726 387.54 405.566 387.67 405.356C387.74 405.246 388.49 405.356 389.93 405.706C395.14 407.396 399.78 409.156 403.87 410.976C401.61 412.506 399.34 413.586 397.04 414.196Z" fill="#7D7DBB"/>
<path id="Vector_17" d="M446.09 347.926C438.42 346.176 433.37 347.706 430.95 352.496L430.54 353.756C428.76 359.156 430.32 363.606 435.22 367.116C435.68 367.266 436.45 367.276 437.52 367.136L437.79 366.326C439.01 362.626 440.84 360.956 443.28 361.326C448.39 364.316 450.89 366.836 450.78 368.876L449.3 374.206C448.97 375.216 448.24 376.106 447.12 376.886C442.89 378.276 438.01 378.056 432.49 376.236L415.98 370.786C410.25 368.896 406.93 366.836 406.03 364.626C405.71 364.046 405.64 363.486 405.82 362.946C406.03 362.296 406.52 361.656 407.3 361.016C415.9 360.426 420.95 357.866 422.45 353.326L422.74 352.456C423.3 347.736 420.04 343.946 412.97 341.096C412.05 340.786 410.74 340.786 409.06 341.076C409.25 343.886 409.14 346.066 408.72 347.616L408.6 347.976C407.91 350.066 407.08 352.016 406.11 353.836C403.28 358.246 401.73 360.866 401.46 361.676L401.44 361.736C400.62 364.216 400.3 367.276 400.46 370.946C402.29 381.206 409.08 388.266 420.82 392.146C424.96 393.516 428.64 394.116 431.86 393.956C443.13 392.686 450.1 388.016 452.76 379.966C453.11 378.886 454.21 375.096 456.06 368.586C457.37 357.446 454.06 350.556 446.09 347.926Z" fill="#7D7DBB"/>
<path id="Vector_18" d="M453.7 315.306C454.21 315.316 454.7 315.336 455.16 315.366C458.41 315.576 460.39 316.086 461.11 316.926L464.72 317.156L466.11 295.216L461.53 295.106C461.47 296.046 457.35 297.496 449.18 299.476C439.1 302.296 428.1 303.326 416.2 302.566C415.16 302.506 413.89 302.406 412.39 302.296L410.75 325.516L420.35 325.686C422.3 325.966 424.08 326.306 425.67 326.696C425.19 327.566 424.83 328.916 424.58 330.716C424.32 336.316 427.24 339.476 433.35 340.196C435.71 340.046 437.35 338.706 438.26 336.146C436.21 335.216 435.22 334.256 435.28 333.276C435.32 332.706 435.6 332.066 436.13 331.326C436.59 330.726 436.93 330.246 437.15 329.886C444.01 331.856 450 334.376 455.13 337.446C457.58 338.996 458.99 340.466 459.37 341.866L463.12 341.956L464.04 327.526L460.3 327.316C459.93 327.866 459.23 328.096 458.19 328.036L457.72 328.006C454.54 327.806 451.5 327.346 448.6 326.626C445.23 325.686 442.33 324.896 439.91 324.246C440.04 323.936 440.23 323.336 440.49 322.426C441.07 320.656 441.41 318.896 441.52 317.136C441.58 316.216 441.59 315.546 441.55 315.136C445.68 314.996 449.72 315.046 453.7 315.306ZM429.83 321.586C426.93 320.856 424.34 320.226 422.07 319.706C418.92 319.036 417.36 318.576 417.37 318.316C417.38 318.176 418.09 317.916 419.51 317.536C424.9 316.526 429.82 315.836 434.27 315.476C433.03 317.916 431.55 319.956 429.83 321.586Z" fill="#7D7DBB"/>
<path id="Vector_19" d="M409.08 251.826L405.47 252.576L408.9 273.216L412.61 272.506C415.5 270.056 421.76 267.966 431.36 266.256C431.43 266.776 431.42 267.676 431.32 268.946C431.11 270.696 430.49 272.526 429.46 274.466C420.14 275.776 414.62 275.486 412.87 273.596L409.26 274.346L412.69 294.986L416.41 294.276C419.36 291.776 426.04 289.616 436.44 287.806C437.39 287.636 438.39 287.476 439.42 287.316L441.74 286.916C452.77 284.996 459.46 284.776 461.83 286.246L465.36 285.636L461.78 265.076L458.25 265.696C456.15 268.226 450.79 270.396 442.17 272.196C442.48 271.546 442.49 270.376 442.2 268.676C441.92 267.076 441.41 265.756 440.67 264.706C450.01 263.156 455.8 263.086 458.05 264.486L461.58 263.866L458 243.306L454.47 243.926C452.01 246.916 444.32 249.546 431.43 251.786C418.57 254.016 411.13 254.026 409.08 251.826Z" fill="#7D7DBB"/>
<path id="Vector_20" d="M420.83 191.186C415.97 193.586 412.76 196.016 411.21 198.496C409.33 204.606 410.12 208.716 413.59 210.816C417.06 212.916 421.08 212.216 425.63 208.706C424.66 203.906 425.65 201.086 428.6 200.236C431.55 199.386 433.57 200.186 434.67 202.626C435.77 205.066 436.61 207.856 437.2 210.996C434.09 213.766 428.33 217.106 419.91 221.036C408.1 226.546 400.92 228.496 398.37 226.896L395.08 228.556L403.77 247.586L407.17 245.936C409.37 242.746 415.25 238.926 424.81 234.466C425.69 234.056 426.61 233.636 427.56 233.216L429.69 232.216C439.84 227.486 446.24 225.526 448.91 226.336L452.16 224.826L445.16 209.806C443.02 205.056 441.77 202.286 441.4 201.506C440.07 198.866 438.83 196.966 437.68 195.816C432.07 190.106 426.44 188.566 420.83 191.186Z" fill="#7D7DBB"/>
<path id="Vector_21" d="M363.87 181.016L378.34 199.236L385.53 192.876C387.16 191.766 388.7 190.816 390.14 190.026C390.38 190.996 391.02 192.226 392.06 193.726C395.65 198.036 399.94 198.386 404.93 194.786C406.57 193.086 406.87 190.986 405.82 188.486C403.68 189.176 402.3 189.146 401.69 188.386C401.34 187.946 401.1 187.276 401 186.376C400.93 185.626 400.86 185.046 400.78 184.626C407.16 181.446 413.28 179.256 419.14 178.056C421.99 177.546 424.03 177.676 425.25 178.456L428.08 175.986L419.01 164.726L416.11 167.106C416.21 167.756 415.85 168.406 415.04 169.056L414.68 169.346C412.2 171.346 409.65 173.066 407.03 174.496C403.91 176.086 401.24 177.456 399.02 178.616C398.91 178.306 398.64 177.726 398.22 176.886C397.45 175.196 396.51 173.656 395.41 172.286C394.83 171.566 394.39 171.076 394.08 170.796C397 167.906 400.02 165.216 403.12 162.716C403.5 162.386 403.88 162.066 404.24 161.776C406.77 159.736 408.58 158.776 409.68 158.896L412.5 156.626L398.7 139.516L395.25 142.526C395.84 143.256 393.79 147.116 389.1 154.086C383.57 162.976 376.16 171.156 366.88 178.646C366.05 179.296 365.05 180.086 363.87 181.016ZM379.42 187.456C382.7 183.076 385.87 179.236 388.9 175.956C389.63 178.586 389.92 181.096 389.75 183.466C387.12 184.886 384.79 186.176 382.76 187.326C379.99 188.956 378.52 189.676 378.36 189.476C378.28 189.376 378.63 188.696 379.42 187.456Z" fill="#7D7DBB"/>
<path id="Vector_22" d="M335.24 161.706C340.55 159.456 345.04 155.626 348.79 151.246C352.54 146.836 355.48 141.656 357.36 136.106C359.25 130.576 360.24 124.666 359.86 118.856C359.87 115.956 359.17 113.096 358.61 110.296C357.9 107.516 356.78 104.836 355.57 102.286C355.08 105.176 355.16 107.896 354.77 110.606C354.44 113.306 354.25 115.936 353.7 118.526C352.96 123.716 351.59 128.686 349.95 133.536C348.32 138.396 346.22 143.126 343.72 147.766C341.27 152.446 338.42 156.966 335.24 161.706Z" fill="#EA5D7B"/>
<path id="Vector_23" d="M353.8 156.566C349.06 160.306 343.71 163.106 337.59 165.936C340.96 166.666 344.45 166.286 347.76 165.386C351.08 164.456 354.24 162.856 356.99 160.716C359.74 158.586 362.15 155.956 363.82 152.916C365.59 149.946 366.6 146.586 366.88 143.206C364.56 145.766 362.72 148.296 360.51 150.476C358.44 152.746 356.16 154.716 353.8 156.566Z" fill="#EA5D7B"/>
<path id="Vector_24" d="M109.55 136.726C111.97 142.066 115.42 146.916 119.59 150.936C123.77 154.916 128.61 158.276 134.12 159.986C130.48 155.586 127.2 151.376 124.28 146.966C121.33 142.606 118.77 138.106 116.66 133.436C114.54 128.766 112.68 123.966 111.43 118.876C110.63 116.356 110.18 113.756 109.58 111.106C108.93 108.446 108.74 105.736 107.96 102.906C107.01 105.566 106.16 108.346 105.74 111.186C105.46 114.026 105.05 116.936 105.35 119.826C105.54 125.636 107.12 131.406 109.55 136.726Z" fill="#EA5D7B"/>
<path id="Vector_25" d="M112.39 161.166C115.34 163.026 118.65 164.296 122.04 164.896C125.42 165.466 128.94 165.496 132.21 164.426C125.83 162.226 120.24 159.976 115.14 156.726C112.61 155.126 110.14 153.386 107.85 151.336C105.43 149.386 103.35 147.056 100.78 144.736C101.4 148.066 102.74 151.306 104.8 154.086C106.78 156.946 109.44 159.316 112.39 161.166Z" fill="#EA5D7B"/>
<path id="Vector_26" d="M320.57 437.636C345.51 421.716 366.05 398.966 378.78 372.416C380.47 369.146 381.81 365.716 383.29 362.366C384.55 358.916 385.99 355.536 387.03 352.006C389.4 345.056 391.05 337.896 392.37 330.706C394.8 316.276 395.43 301.586 393.95 287.116C392.36 272.676 389.02 258.446 383.57 245.086C378.18 231.716 370.9 219.196 362.09 207.976C369.78 219.986 375.85 232.906 380.19 246.306C384.5 259.716 386.98 273.636 387.59 287.586C388.93 315.496 382.65 343.466 369.73 367.816C363.31 380.016 355.12 391.206 345.83 401.296C341.11 406.276 336.1 410.976 330.8 415.326C330.18 415.816 329.55 416.306 328.92 416.796C315.73 436.106 276.07 451.026 238.01 451.026C181.26 451.026 160 439.196 144.15 424.336C141.23 421.606 138.77 418.426 136.9 414.936C122.31 402.926 109.91 388.176 100.46 371.686C86.9 347.686 79.82 319.936 80.35 291.996C80.67 264.046 88.86 236.136 103.52 211.686C86.41 234.546 76.08 262.716 73.94 291.706C73 306.196 73.78 320.896 76.78 335.226C79.62 349.596 84.81 363.476 91.5 376.566C105.05 402.726 126.26 424.816 151.61 440.076C177.01 455.336 206.81 463.096 236.44 462.736C266.09 462.346 295.59 453.516 320.57 437.636Z" fill="#EA5D7B"/>
<path id="Vector_27" d="M144.14 424.346C159.99 439.206 181.25 451.036 238 451.036C276.06 451.036 315.72 436.106 328.91 416.806C324.13 420.526 319.22 424.086 314.02 427.176C290.72 441.496 263.59 449.556 236.24 449.676C222.58 449.986 208.9 448.266 195.67 444.926C189.07 443.176 182.57 441.036 176.24 438.446C169.96 435.776 163.76 432.856 157.85 429.396C150.46 425.196 143.45 420.346 136.88 414.936C138.76 418.426 141.23 421.606 144.14 424.346Z" fill="#EA5D7B"/>
<path id="Year" d="M202.584 51.464C205.688 49.032 208.232 46.936 210.216 45.176C212.2 43.416 213.864 41.608 215.208 39.752C216.552 37.864 217.224 36.072 217.224 34.376C217.224 33.352 216.984 32.552 216.504 31.976C216.056 31.4 215.384 31.112 214.488 31.112C213.56 31.112 212.84 31.512 212.328 32.312C211.816 33.08 211.576 34.216 211.608 35.72H202.488C202.584 32.872 203.208 30.52 204.36 28.664C205.512 26.776 207.016 25.4 208.872 24.536C210.728 23.64 212.792 23.192 215.064 23.192C219 23.192 221.928 24.168 223.848 26.12C225.768 28.072 226.728 30.6 226.728 33.704C226.728 37.032 225.608 40.152 223.368 43.064C221.16 45.976 218.392 48.584 215.064 50.888H227.064V58.52H202.584V51.464ZM235 40.952C235 35.448 236.12 31.112 238.36 27.944C240.6 24.776 244.12 23.192 248.92 23.192C253.72 23.192 257.24 24.776 259.48 27.944C261.752 31.112 262.888 35.448 262.888 40.952C262.888 46.52 261.768 50.888 259.528 54.056C257.288 57.224 253.752 58.808 248.92 58.808C244.088 58.808 240.552 57.224 238.312 54.056C236.104 50.888 235 46.52 235 40.952ZM253.576 40.952C253.576 38.072 253.272 35.88 252.664 34.376C252.056 32.84 250.808 32.072 248.92 32.072C247.032 32.072 245.784 32.84 245.176 34.376C244.568 35.88 244.264 38.072 244.264 40.952C244.264 43.896 244.552 46.136 245.128 47.672C245.736 49.176 247 49.928 248.92 49.928C250.84 49.928 252.088 49.176 252.664 47.672C253.272 46.136 253.576 43.896 253.576 40.952ZM202.584 93.464C205.688 91.032 208.232 88.936 210.216 87.176C212.2 85.416 213.864 83.608 215.208 81.752C216.552 79.864 217.224 78.072 217.224 76.376C217.224 75.352 216.984 74.552 216.504 73.976C216.056 73.4 215.384 73.112 214.488 73.112C213.56 73.112 212.84 73.512 212.328 74.312C211.816 75.08 211.576 76.216 211.608 77.72H202.488C202.584 74.872 203.208 72.52 204.36 70.664C205.512 68.776 207.016 67.4 208.872 66.536C210.728 65.64 212.792 65.192 215.064 65.192C219 65.192 221.928 66.168 223.848 68.12C225.768 70.072 226.728 72.6 226.728 75.704C226.728 79.032 225.608 82.152 223.368 85.064C221.16 87.976 218.392 90.584 215.064 92.888H227.064V100.52H202.584V93.464ZM235.432 76.376C235.56 72.76 236.68 69.992 238.792 68.072C240.904 66.12 243.848 65.144 247.624 65.144C250.088 65.144 252.184 65.576 253.912 66.44C255.672 67.272 257 68.424 257.896 69.896C258.792 71.336 259.24 72.968 259.24 74.792C259.24 76.968 258.712 78.712 257.656 80.024C256.6 81.304 255.4 82.168 254.056 82.616V82.808C257.928 84.248 259.864 87 259.864 91.064C259.864 93.08 259.4 94.856 258.472 96.392C257.544 97.928 256.2 99.128 254.44 99.992C252.68 100.856 250.584 101.288 248.152 101.288C244.152 101.288 240.984 100.328 238.648 98.408C236.344 96.456 235.144 93.48 235.048 89.48H244.216C244.152 90.76 244.424 91.752 245.032 92.456C245.64 93.16 246.552 93.512 247.768 93.512C248.696 93.512 249.416 93.224 249.928 92.648C250.472 92.072 250.744 91.304 250.744 90.344C250.744 89.128 250.344 88.232 249.544 87.656C248.776 87.08 247.512 86.792 245.752 86.792H244.072V79.16H245.704C246.92 79.192 247.944 79 248.776 78.584C249.64 78.136 250.072 77.256 250.072 75.944C250.072 74.952 249.832 74.216 249.352 73.736C248.872 73.224 248.216 72.968 247.384 72.968C246.456 72.968 245.768 73.304 245.32 73.976C244.904 74.616 244.664 75.416 244.6 76.376H235.432Z" fill="#EA617D"/>
</g>
<path id="Vector_28" d="M205.99 285.356C205.99 285.356 215.07 309.686 194.56 306.496C194.56 306.496 206.98 301.976 205.99 285.356Z" fill="#682470"/>
<path id="Vector_29" d="M260.58 285.356C260.58 285.356 251.98 308.776 272.01 306.496C272.01 306.496 259.59 301.976 260.58 285.356Z" fill="#682470"/>
</g>
</svg>
