<svg width="467" height="537" viewBox="0 0 467 537" fill="none" xmlns="http://www.w3.org/2000/svg">
<g id="Lama5">
<g id="Lama5_2">
<g id="Group">
<path id="Vector" d="M65.07 165.831L71.99 171.041L71.53 171.621C70.79 172.561 69.82 173.481 68.63 174.381C66.67 175.751 63.57 176.751 59.33 177.361C60.72 181.231 62.31 183.881 64.1 185.291C65.19 186.151 66.41 186.671 67.77 186.851C71.18 186.501 73.81 185.161 75.65 182.821C77.23 180.821 78.19 178.541 78.52 175.981L79.89 177.031C86.67 183.151 88.95 187.611 86.72 190.421L86.21 191.071C84.66 193.021 80.86 192.251 74.78 188.771L70.07 201.351L70.8 201.931C75.2 205.421 81.1 203.541 88.47 196.281L89 195.611C90.3 193.971 95.75 187.051 105.35 174.861L102.17 172.351C101.64 172.661 101.08 172.741 100.47 172.581C94.16 169.681 88.21 166.021 82.62 161.601C77.47 157.521 72.51 152.691 67.73 147.111C67.06 146.101 66.83 145.251 67.05 144.551L63.74 141.891L49.75 159.561L53.66 162.651C56.88 161.301 60.68 162.361 65.07 165.831Z" fill="#7D7DBB"/>
<path id="Vector_2" d="M25.6 232.661L30.6 220.441C24.93 216.671 22.42 213.881 23.08 212.091C25.4 207.381 30.01 206.601 36.91 209.761L44.5 213.031C44.47 213.731 44.2 214.641 43.69 215.761C43.18 216.871 42.46 218.011 41.51 219.191C39.93 220.991 37.16 222.691 33.19 224.301C35.46 227.731 37.64 229.921 39.71 230.871C40.98 231.451 42.29 231.661 43.65 231.511C47.09 230.431 49.44 228.501 50.71 225.721C52.01 222.871 52.26 219.631 51.46 216.011L53.99 217.101C62.44 221.611 65.91 225.491 64.42 228.751L64.08 229.501C63.05 231.761 59.17 231.931 52.44 229.991L50.86 243.331L51.7 243.721C56.81 246.061 62.09 242.821 67.52 234.021L67.87 233.241C68.74 231.331 72.38 223.321 78.79 209.191L75.11 207.511C74.68 207.921 74.16 208.121 73.55 208.131C66.64 206.801 59.78 204.581 52.96 201.461C46.8 198.651 40.7 195.021 34.66 190.571C34.03 189.931 33.74 189.291 33.8 188.621L30.12 186.941L29.69 187.871L15.8 217.711C16.09 224.581 19.36 229.571 25.6 232.661Z" fill="#7D7DBB"/>
<path id="Vector_3" d="M17.25 287.741C17.62 287.811 18.51 287.841 19.93 287.841C25.39 287.121 29.67 284.411 32.77 279.721C41.1 265.821 46.75 259.141 49.73 259.681C52.03 260.261 53.31 261.601 53.58 263.721C53.21 265.761 52.22 267.411 50.63 268.651C43.68 270.671 39.8 273.861 39.01 278.221L38.92 278.741C39.18 283.641 40.57 286.431 43.12 287.101C45.66 287.771 47.39 288.191 48.31 288.361C50.25 288.711 51.9 288.631 53.28 288.101C52.09 285.871 51.7 283.631 52.11 281.381C52.28 280.451 52.55 279.501 52.93 278.511L57.62 267.531C59.8 255.541 55.76 248.621 45.51 246.761C45.01 246.671 44.48 246.581 43.94 246.501C39.34 246.861 35.21 249.291 31.55 253.811C25.47 266.701 19.82 272.681 14.6 271.731L12.74 271.391C9.56 270.811 8.05001 268.111 8.21001 263.281L8.29001 262.821C9.12001 258.251 10.66 255.771 12.92 255.361C15.17 254.951 16.67 254.821 17.41 254.951C19.7 255.371 21.41 257.531 22.54 261.441C25.25 259.261 27 256.381 27.79 252.781C28.85 246.941 26.24 243.451 19.95 242.311C19.16 242.171 18.44 242.201 17.77 242.421C10.25 243.741 5.60001 249.271 3.83001 259.001L2.74 265.021C2.52 266.211 2.49001 268.201 2.64001 270.971C3.76001 280.581 8.63001 286.181 17.25 287.741Z" fill="#7D7DBB"/>
<path id="Vector_4" d="M39.87 325.101L39.99 326.421C41.09 333.481 45.22 337.321 52.37 337.931L55.51 337.181C54.59 334.071 54.06 331.471 53.93 329.351C53.9 328.881 53.88 328.411 53.88 327.941L52.85 308.661C52.83 307.561 52.79 306.581 52.74 305.721C52.69 304.861 52.62 304.121 52.54 303.491C51.44 295.101 46.35 291.091 37.27 291.481L36.77 291.511L36.04 291.611C36.03 291.791 36.03 291.971 36.04 292.171C36.16 294.081 37.24 295.951 39.28 297.771C40.43 298.921 41.08 300.531 41.21 302.601C41.33 304.581 40.99 306.961 40.19 309.761C37.3 310.311 33.52 310.731 28.87 311.021C27.94 311.081 26.98 311.121 25.99 311.171L23.64 311.321C12.47 312.011 5.79 311.491 3.6 309.771L0 309.991L1.29 330.811L4.87 330.591C7.65 327.881 15.46 326.131 28.31 325.341C33.15 325.041 37 324.961 39.87 325.101Z" fill="#7D7DBB"/>
<path id="Vector_5" d="M58.91 361.841L62.44 360.781L57.25 340.511L53.61 341.531C50.88 344.281 44.42 347.001 34.22 349.711C33.28 349.961 32.3 350.211 31.29 350.451L29.01 351.051C18.19 353.921 11.54 354.721 9.05 353.451L5.59 354.371L10.93 374.541L14.4 373.621C16.6 370.421 24.02 367.151 36.68 363.801C49.27 360.471 56.68 359.811 58.91 361.841Z" fill="#7D7DBB"/>
<path id="Vector_6" d="M78.67 408.001L81.58 406.551L74.29 391.961L71.29 393.521C70.43 396.131 68.99 397.961 66.96 398.991C66.57 399.241 66.13 399.481 65.66 399.721C60.67 402.261 51.72 404.931 38.8 407.731C49.96 396.151 57.27 389.291 60.74 387.131C63.61 386.181 65.77 386.211 67.24 387.251L70.79 385.511L60.19 364.691L57.31 366.261C56.64 368.311 55.15 370.621 52.84 373.191C41.85 384.811 34.37 391.761 30.4 394.051L29.13 394.701C27.47 395.541 24.99 396.181 21.69 396.611L19.25 397.951L30.98 421.201L34.12 419.761C34.82 418.321 35.82 416.871 37.11 415.401C41.88 412.971 49.4 410.611 59.68 408.321C68.28 406.571 74.62 406.461 78.67 408.001Z" fill="#7D7DBB"/>
<path id="Vector_7" d="M80.88 458.041C86.13 448.981 93.27 440.561 102.31 432.781C103.1 432.101 104.07 431.281 105.22 430.311L90.16 412.561L83.18 419.151C81.58 420.321 80.08 421.311 78.66 422.141C78.39 421.181 77.71 419.971 76.63 418.501C72.91 414.311 68.61 414.091 63.73 417.851C62.14 419.601 61.92 421.711 63.04 424.181C65.16 423.421 66.53 423.411 67.17 424.151C67.54 424.581 67.79 425.241 67.92 426.141C68.01 426.891 68.1 427.471 68.19 427.881C61.91 431.271 55.87 433.651 50.06 435.031C47.22 435.631 45.18 435.571 43.93 434.831L41.19 437.381L50.62 448.341L53.45 445.871C53.33 445.221 53.66 444.561 54.45 443.881L54.8 443.581C57.21 441.501 59.71 439.711 62.29 438.191C65.36 436.501 67.99 435.041 70.17 433.821C70.29 434.131 70.58 434.701 71.02 435.521C71.84 437.191 72.83 438.691 73.98 440.031C74.58 440.731 75.04 441.211 75.36 441.481C72.53 444.461 69.6 447.251 66.58 449.851C66.2 450.201 65.85 450.521 65.49 450.821C63.03 452.941 61.25 453.951 60.15 453.871L57.41 456.231L71.75 472.891L75.11 469.771C74.49 469.091 76.42 465.171 80.88 458.041ZM86.12 424.611C88.84 422.891 90.29 422.131 90.45 422.321C90.54 422.421 90.21 423.111 89.46 424.371C86.32 428.861 83.28 432.791 80.35 436.161C79.54 433.551 79.17 431.061 79.26 428.691C81.85 427.191 84.13 425.831 86.12 424.611Z" fill="#7D7DBB"/>
<path id="Vector_8" d="M121.18 473.711C117.13 473.611 113.99 476.211 111.77 481.521C114.99 485.211 115.53 488.151 113.39 490.351C111.25 492.551 109.1 492.861 106.93 491.291C104.77 489.721 102.65 487.711 100.58 485.281C101.9 481.341 105.25 475.581 110.61 467.991C118.14 457.351 123.4 452.101 126.41 452.221L128.44 449.141L111.45 436.921L109.32 440.041C108.99 443.901 105.78 450.131 99.68 458.751C99.12 459.541 98.53 460.361 97.91 461.201L96.55 463.121C90.09 472.261 85.49 477.141 82.78 477.761L80.71 480.681L94.24 490.251C98.45 493.311 100.92 495.091 101.62 495.591C104.09 497.231 106.1 498.261 107.67 498.691C115.38 500.841 121.03 499.391 124.61 494.331C127.65 489.841 129.22 486.131 129.34 483.211C127.96 476.981 125.24 473.811 121.18 473.711Z" fill="#7D7DBB"/>
<path id="Vector_9" d="M187.65 501.891C183.81 503.201 181.77 506.731 181.53 512.481C185.83 514.821 187.36 517.401 186.11 520.201C184.86 523.001 182.95 524.041 180.38 523.321C177.81 522.601 175.12 521.451 172.34 519.881C172.22 515.721 173.36 509.161 175.76 500.191C179.13 487.601 182.25 480.851 185.11 479.921L185.95 476.331L165.78 470.761L164.86 474.431C165.89 478.161 165.04 485.131 162.31 495.321C162.06 496.261 161.79 497.231 161.5 498.231L160.89 500.511C157.99 511.321 155.38 517.491 153.04 519.021L152.11 522.481L168.12 526.771C173.14 528.181 176.06 529.001 176.89 529.221C179.77 529.901 182.02 530.171 183.64 530.031C191.62 529.381 196.42 526.061 198.02 520.081C199.31 514.811 199.5 510.791 198.6 508.011C195.15 502.611 191.49 500.581 187.65 501.891Z" fill="#7D7DBB"/>
<path id="Vector_10" d="M246.31 519.521C243.06 509.571 241.56 498.631 241.8 486.711C241.82 485.671 241.86 484.401 241.9 482.891L218.64 482.251L218.88 491.851C218.68 493.821 218.42 495.601 218.1 497.211C217.2 496.771 215.85 496.471 214.03 496.301C208.42 496.271 205.4 499.331 204.94 505.481C205.18 507.831 206.6 509.411 209.19 510.211C210.04 508.131 210.95 507.091 211.93 507.111C212.5 507.121 213.16 507.381 213.92 507.881C214.54 508.311 215.03 508.631 215.4 508.841C213.73 515.771 211.47 521.871 208.63 527.121C207.19 529.631 205.78 531.111 204.4 531.551L204.47 535.301L218.92 535.591L218.97 531.841C218.41 531.501 218.14 530.811 218.16 529.771L218.17 529.311C218.23 526.121 218.56 523.071 219.14 520.141C219.93 516.731 220.6 513.801 221.14 511.351C221.45 511.471 222.06 511.631 222.98 511.851C224.77 512.351 226.55 512.621 228.31 512.651C229.23 512.671 229.89 512.651 230.31 512.591C230.64 516.691 230.76 520.731 230.68 524.711C230.69 525.221 230.69 525.711 230.68 526.171C230.61 529.421 230.18 531.431 229.38 532.181L229.31 535.801L251.29 536.241L251.21 531.661C250.27 531.641 248.64 527.601 246.31 519.521ZM223.37 501.131C223.98 498.201 224.49 495.591 224.91 493.301C225.44 490.121 225.84 488.541 226.09 488.551C226.23 488.561 226.52 489.261 226.96 490.661C228.2 495.991 229.1 500.881 229.66 505.321C227.18 504.171 225.08 502.781 223.37 501.131Z" fill="#7D7DBB"/>
<path id="Vector_11" d="M316.41 517.961L314.1 517.351C310.48 513.571 306.79 504.311 303.01 489.571C301.05 481.941 300.81 476.571 302.28 473.451L301.34 470.501L279.29 476.081L280.38 480.221C282.2 480.531 283.59 481.661 284.55 483.601L282.41 499.981C281.38 498.421 279.89 495.941 277.93 492.561C276.09 489.741 274.87 487.141 274.26 484.771C274.05 483.961 274.16 482.681 274.59 480.951L273.75 477.541L251.98 483.011L253.03 487.121C255.08 488.491 256.93 491.651 258.58 496.591C263.74 516.731 264.43 528.661 260.67 532.361L261.56 535.831L277.75 531.681L276.94 528.151C273.06 526.791 270.54 523.911 269.42 519.501C267.63 512.491 266.5 505.341 266.05 498.031C269.56 504.231 272.97 510.051 276.28 515.481C279.59 520.911 283.17 526.071 287.01 530.951C286.75 512.251 287.32 499.851 288.71 493.771C290.59 498.561 292.05 503.021 293.11 507.131L294.62 513.011C295.85 519.571 296 522.971 295.05 523.211C295.03 523.221 294.69 523.221 294.03 523.231L295.29 527.191L316.21 521.831L316.26 521.891C317.07 521.681 317.39 521.201 317.19 520.451C317.07 520.041 316.81 519.211 316.41 517.961Z" fill="#7D7DBB"/>
<path id="Vector_12" d="M356.87 480.741C348.92 473.921 341.96 465.351 335.98 455.041C335.46 454.141 334.83 453.041 334.09 451.721L313.87 463.261L319.06 471.331C319.91 473.111 320.62 474.781 321.17 476.321C320.18 476.411 318.86 476.861 317.22 477.651C312.42 480.541 311.42 484.731 314.22 490.211C315.65 492.091 317.68 492.701 320.31 492.051C319.95 489.831 320.2 488.471 321.04 487.981C321.53 487.691 322.23 487.571 323.14 487.611C323.89 487.661 324.49 487.681 324.9 487.661C327.07 494.451 328.31 500.831 328.6 506.801C328.67 509.701 328.24 511.691 327.28 512.781L329.29 515.951L341.79 508.691L339.88 505.461C339.22 505.461 338.63 505.011 338.11 504.111L337.88 503.711C336.28 500.951 334.97 498.171 333.95 495.361C332.86 492.031 331.9 489.181 331.1 486.811C331.43 486.751 332.04 486.571 332.93 486.281C334.72 485.781 336.38 485.091 337.91 484.201C338.71 483.741 339.27 483.381 339.59 483.111C342 486.441 344.2 489.831 346.2 493.281C346.47 493.711 346.73 494.131 346.96 494.531C348.59 497.341 349.26 499.281 348.97 500.341L350.78 503.471L369.79 492.441L367.34 488.571C366.55 489.051 363.05 486.441 356.87 480.741ZM327.72 476.941C326.71 474.121 325.8 471.621 324.97 469.451C323.78 466.461 323.29 464.901 323.51 464.771C323.63 464.701 324.24 465.151 325.34 466.121C329.18 470.031 332.48 473.741 335.26 477.241C332.56 477.561 330.04 477.461 327.72 476.941Z" fill="#7D7DBB"/>
<path id="Vector_13" d="M389.72 438.751C383.33 438.931 379.7 440.991 378.82 444.951C377.94 448.911 379.9 452.491 384.69 455.681C388.93 453.221 391.92 453.251 393.66 455.771C395.41 458.291 395.3 460.471 393.35 462.291C391.39 464.111 389.02 465.811 386.23 467.371C382.62 465.321 377.6 460.931 371.18 454.221C362.18 444.801 358.02 438.631 358.71 435.701L356.08 433.121L340.84 447.461L343.5 450.151C347.22 451.211 352.73 455.551 360.03 463.181C360.7 463.881 361.39 464.621 362.09 465.381L363.72 467.081C371.46 475.171 375.37 480.611 375.46 483.401L377.94 485.991L389.92 474.531C393.73 470.981 395.95 468.901 396.57 468.301C398.65 466.191 400.05 464.411 400.77 462.961C404.36 455.801 404.01 449.981 399.73 445.501C395.9 441.691 392.56 439.431 389.72 438.751Z" fill="#7D7DBB"/>
<path id="Vector_14" d="M424.63 403.441C414.43 401.071 404.29 396.701 394.21 390.331C393.33 389.771 392.26 389.081 391 388.271L378.43 407.861L386.77 412.611C388.35 413.791 389.75 414.941 390.95 416.051C390.12 416.591 389.15 417.591 388.07 419.061C385.15 423.841 386.2 428.021 391.22 431.591C393.36 432.591 395.44 432.201 397.47 430.401C396.12 428.601 395.71 427.281 396.24 426.451C396.54 425.971 397.1 425.541 397.92 425.151C398.61 424.851 399.14 424.591 399.51 424.381C404.58 429.401 408.63 434.481 411.65 439.631C413.06 442.171 413.59 444.141 413.25 445.541L416.5 447.421L424.22 435.201L421.04 433.221C420.46 433.521 419.72 433.391 418.84 432.841L418.45 432.601C415.76 430.901 413.31 429.041 411.11 427.021C408.59 424.571 406.43 422.491 404.62 420.761C404.89 420.561 405.34 420.121 406 419.441C407.36 418.161 408.5 416.781 409.45 415.291C409.94 414.511 410.27 413.931 410.44 413.551C414.12 415.391 417.64 417.371 421.01 419.501C421.45 419.761 421.87 420.011 422.26 420.251C425.01 421.991 426.5 423.391 426.74 424.471L429.8 426.401L441.54 407.821L437.58 405.521C437.06 406.311 432.75 405.621 424.63 403.441ZM397.04 413.561C394.84 411.531 392.88 409.741 391.13 408.191C388.69 406.091 387.54 404.931 387.67 404.721C387.74 404.611 388.49 404.721 389.93 405.071C395.14 406.761 399.78 408.521 403.87 410.341C401.61 411.871 399.34 412.951 397.04 413.561Z" fill="#7D7DBB"/>
<path id="Vector_15" d="M446.09 347.291C438.42 345.541 433.37 347.071 430.95 351.861L430.54 353.121C428.76 358.521 430.32 362.971 435.22 366.481C435.68 366.631 436.45 366.641 437.52 366.501L437.79 365.691C439.01 361.991 440.84 360.321 443.28 360.691C448.39 363.681 450.89 366.201 450.78 368.241L449.3 373.571C448.97 374.581 448.24 375.471 447.12 376.251C442.89 377.641 438.01 377.421 432.49 375.601L415.98 370.151C410.25 368.261 406.93 366.201 406.03 363.991C405.71 363.411 405.64 362.851 405.82 362.311C406.03 361.661 406.52 361.021 407.3 360.381C415.9 359.791 420.95 357.231 422.45 352.691L422.74 351.821C423.3 347.101 420.04 343.311 412.97 340.461C412.05 340.151 410.74 340.151 409.06 340.441C409.25 343.251 409.14 345.431 408.72 346.981L408.6 347.341C407.91 349.431 407.08 351.381 406.11 353.201C403.28 357.611 401.73 360.231 401.46 361.041L401.44 361.101C400.62 363.581 400.3 366.641 400.46 370.311C402.29 380.571 409.08 387.631 420.82 391.511C424.96 392.881 428.64 393.481 431.86 393.321C443.13 392.051 450.1 387.381 452.76 379.331C453.11 378.251 454.21 374.461 456.06 367.951C457.37 356.811 454.06 349.921 446.09 347.291Z" fill="#7D7DBB"/>
<path id="Vector_16" d="M453.7 314.671C454.21 314.681 454.7 314.701 455.16 314.731C458.41 314.941 460.39 315.451 461.11 316.291L464.72 316.521L466.11 294.581L461.53 294.471C461.47 295.411 457.35 296.861 449.18 298.841C439.1 301.661 428.1 302.691 416.2 301.931C415.16 301.871 413.89 301.771 412.39 301.661L410.75 324.881L420.35 325.051C422.31 325.331 424.08 325.671 425.67 326.061C425.19 326.931 424.83 328.281 424.58 330.081C424.32 335.681 427.24 338.841 433.35 339.561C435.71 339.411 437.35 338.071 438.26 335.511C436.21 334.581 435.22 333.621 435.28 332.641C435.32 332.071 435.6 331.431 436.13 330.691C436.59 330.091 436.93 329.611 437.15 329.251C444.01 331.221 450 333.741 455.13 336.811C457.58 338.361 458.99 339.831 459.37 341.231L463.12 341.321L464.04 326.891L460.3 326.681C459.93 327.231 459.23 327.461 458.19 327.401L457.72 327.371C454.54 327.171 451.5 326.711 448.6 325.991C445.23 325.051 442.33 324.261 439.91 323.611C440.04 323.301 440.23 322.701 440.49 321.791C441.07 320.021 441.41 318.261 441.52 316.501C441.58 315.581 441.59 314.911 441.55 314.501C445.68 314.361 449.72 314.411 453.7 314.671ZM429.83 320.951C426.93 320.221 424.34 319.591 422.07 319.071C418.92 318.401 417.36 317.941 417.37 317.681C417.38 317.541 418.09 317.281 419.51 316.901C424.9 315.891 429.82 315.201 434.27 314.841C433.03 317.281 431.55 319.321 429.83 320.951Z" fill="#7D7DBB"/>
<path id="Vector_17" d="M409.08 251.191L405.47 251.941L408.9 272.581L412.61 271.871C415.5 269.421 421.76 267.331 431.36 265.621C431.43 266.141 431.42 267.041 431.32 268.311C431.11 270.061 430.49 271.891 429.46 273.831C420.14 275.141 414.62 274.851 412.87 272.961L409.26 273.711L412.69 294.351L416.41 293.641C419.36 291.141 426.04 288.981 436.44 287.171C437.39 287.001 438.39 286.841 439.42 286.681L441.74 286.281C452.77 284.361 459.46 284.141 461.83 285.611L465.36 285.001L461.78 264.441L458.25 265.061C456.15 267.591 450.79 269.761 442.17 271.561C442.48 270.911 442.49 269.741 442.2 268.041C441.92 266.441 441.41 265.121 440.67 264.071C450.01 262.521 455.8 262.451 458.05 263.851L461.58 263.231L458 242.671L454.47 243.291C452.01 246.281 444.32 248.911 431.43 251.151C418.57 253.381 411.13 253.391 409.08 251.191Z" fill="#7D7DBB"/>
<path id="Vector_18" d="M420.83 190.551C415.97 192.951 412.76 195.381 411.21 197.861C409.33 203.971 410.12 208.081 413.59 210.181C417.06 212.281 421.08 211.581 425.63 208.071C424.66 203.271 425.65 200.451 428.6 199.601C431.55 198.751 433.57 199.551 434.67 201.991C435.77 204.431 436.61 207.221 437.2 210.361C434.09 213.131 428.33 216.471 419.91 220.401C408.1 225.911 400.92 227.861 398.37 226.261L395.08 227.921L403.77 246.951L407.17 245.301C409.37 242.111 415.25 238.291 424.81 233.831C425.69 233.421 426.61 233.001 427.56 232.581L429.69 231.581C439.84 226.851 446.24 224.891 448.91 225.701L452.16 224.191L445.16 209.171C443.02 204.421 441.77 201.651 441.4 200.871C440.07 198.231 438.83 196.331 437.68 195.181C432.07 189.471 426.44 187.931 420.83 190.551Z" fill="#7D7DBB"/>
<path id="Vector_19" d="M363.87 180.381L378.34 198.601L385.53 192.241C387.16 191.131 388.7 190.181 390.14 189.391C390.38 190.361 391.02 191.591 392.06 193.091C395.65 197.401 399.94 197.751 404.93 194.151C406.57 192.451 406.87 190.351 405.82 187.851C403.68 188.541 402.3 188.511 401.69 187.751C401.34 187.311 401.1 186.641 401 185.741C400.93 184.991 400.86 184.411 400.78 183.991C407.16 180.811 413.28 178.621 419.14 177.421C421.99 176.911 424.03 177.041 425.25 177.821L428.08 175.351L419.01 164.091L416.11 166.471C416.21 167.121 415.85 167.771 415.04 168.421L414.68 168.711C412.2 170.711 409.65 172.431 407.03 173.861C403.91 175.451 401.24 176.821 399.02 177.981C398.91 177.671 398.64 177.091 398.22 176.251C397.45 174.561 396.51 173.021 395.41 171.651C394.83 170.931 394.39 170.441 394.08 170.161C397 167.271 400.02 164.581 403.12 162.081C403.5 161.751 403.88 161.431 404.24 161.141C406.77 159.101 408.58 158.141 409.68 158.261L412.5 155.991L398.7 138.881L395.25 141.891C395.84 142.621 393.79 146.481 389.1 153.451C383.57 162.341 376.16 170.521 366.88 178.011C366.05 178.661 365.05 179.451 363.87 180.381ZM379.42 186.821C382.7 182.441 385.87 178.601 388.9 175.321C389.63 177.951 389.92 180.461 389.75 182.831C387.12 184.251 384.79 185.541 382.76 186.691C379.99 188.321 378.52 189.041 378.36 188.841C378.28 188.741 378.63 188.061 379.42 186.821Z" fill="#7D7DBB"/>
<path id="Vector_20" d="M238 450.401C276.06 450.401 315.72 435.471 328.91 416.171C324.13 419.891 319.22 423.451 314.02 426.541C290.72 440.861 263.59 448.921 236.24 449.041C222.58 449.351 208.9 447.631 195.67 444.291C189.07 442.541 182.57 440.401 176.24 437.811C169.96 435.141 163.76 432.221 157.85 428.761C150.46 424.561 143.45 419.711 136.88 414.301C138.75 417.791 141.21 420.971 144.13 423.701C159.99 438.571 181.25 450.401 238 450.401Z" fill="#EA5D7B"/>
</g>
<path id="Vector_21" d="M176.25 437.811C182.58 440.391 189.07 442.541 195.68 444.291C208.91 447.631 222.59 449.351 236.25 449.041C263.6 448.921 290.72 440.851 314.03 426.541C319.24 423.451 324.14 419.891 328.92 416.171C330.33 414.101 331.45 411.991 332.22 409.831L332.28 409.631C334.54 401.641 332.12 393.221 326.41 387.181C319.75 380.131 337.72 383.161 336.73 381.571C342.82 383.561 330.12 368.411 317.95 355.051C323.33 355.671 327.85 356.191 332.91 356.771C326.01 349.871 323.04 342.231 324.07 332.701C331.31 334.451 334.67 339.761 338.78 345.331C340.53 343.031 342.48 341.111 343.64 338.831C347.58 331.021 346.48 323.211 342.51 315.801C339.86 310.851 336.56 306.221 333.24 300.951C334.54 301.081 335.54 300.941 336.28 301.301C339.37 302.771 342.27 302.261 345.15 300.811C350.82 297.951 353.35 291.091 350.23 284.071C347.78 278.561 344.03 273.601 340.88 268.391C339.26 265.711 337.66 263.011 335.75 259.811C342.25 260.561 345.51 259.381 348.17 255.531C350.81 251.691 350.6 247.601 348.45 243.681C347.07 241.161 345.28 238.841 343.57 236.501C341.35 233.451 338.8 230.611 336.79 227.441C332.64 220.911 330.99 213.611 329.88 205.751C335.68 207.671 340.38 211.341 346.94 210.841C341.99 202.551 337.26 194.641 332.15 186.081C341.89 191.301 346.51 192.401 353.1 191.191C351.44 184.761 347.94 179.401 342.91 175.101C337.91 170.821 332.55 166.941 327.16 162.751C327.92 161.411 328.66 160.121 329.38 158.821C330.15 157.421 330.9 156.001 331.67 154.601C342.61 134.771 346.88 118.461 346.63 96.5109C346.45 80.8109 343.15 65.2809 337.27 50.6709C332.16 37.9809 327.7 24.9909 318.96 14.0509C313.93 7.75089 307.97 2.63088 299.84 0.470884C294.29 -1.00912 290.32 1.02088 288.38 6.26088C287.39 8.94088 286.29 11.7809 286.24 14.5609C286.06 24.8809 285.76 35.2309 286.49 45.5109C287.86 64.8709 288.14 78.8909 282.77 97.7409C280.19 106.821 276.54 110.381 273.35 119.371C244.79 112.731 217.06 117.191 188.66 119.231C185.85 110.751 182.62 107.371 180.21 98.5409C178.42 91.9909 176.92 86.2109 176.55 79.4709C175.67 63.5109 175.82 54.3709 175.07 38.4109C174.61 28.6109 173.48 18.7809 169.17 9.69089C164.73 0.320886 155.78 -1.01912 148.52 6.54088C140.52 14.8809 136.21 25.4809 130.97 35.6809C127.14 43.1409 123.98 50.9509 121.84 59.0709C117.1 77.0409 116.32 90.9209 120.07 108.841C122.82 122.001 127.91 134.631 135.3 145.871C137.85 149.751 141.09 156.081 143.33 160.301C138.39 164.261 133.28 167.441 129.4 171.671C123.79 177.781 118.98 184.581 114 191.211C111.51 194.521 112.6 196.791 116.91 197.161C119.6 197.391 122.39 196.931 125.09 196.541C128.11 196.101 131.09 195.391 133.66 194.891C130.97 199.651 128.34 204.401 125.62 209.101C122.13 215.121 118.85 221.291 114.87 227.001C113.01 229.681 109.73 231.441 106.99 233.691C114.06 238.511 121.65 238.351 129.65 236.471C128.91 237.811 128.17 239.001 127.11 239.801C125.21 241.251 122.31 245.641 120.38 247.061C115.26 250.811 113.88 254.641 117 259.771C118.78 262.711 121.89 264.891 124.67 267.681C122.55 270.681 119.73 274.221 117.45 278.051C115.09 282.021 113.28 286.291 111.22 290.421C111.55 290.901 111.62 291.001 111.95 291.481L122.47 290.451C117.01 301.731 117.04 314.091 116 326.461C120.08 326.351 122.1 324.151 123.58 321.441C125.96 317.101 129.87 315.791 135.1 315.751C132.99 326.671 133.13 341.751 123.05 349.181C130.68 354.781 137.47 346.461 144.77 345.141C142.17 349.741 137.48 356.001 133.75 359.651C128.4 364.891 123.05 367.511 126.71 369.221C124.05 370.621 153.33 372.321 133.75 380.591C132.6 381.071 125.72 383.211 128.4 385.831C132.68 390.021 144.76 384.271 141.78 385.831C135.38 389.181 132.14 394.161 133.27 403.051C133.78 407.031 135.05 410.831 136.92 414.331C143.49 419.731 150.5 424.581 157.89 428.791C163.77 432.221 169.96 435.141 176.25 437.811ZM304.61 241.641C303.5 237.441 302.85 233.361 301.32 229.611C298.66 223.061 293.74 220.831 286.74 222.221C280.52 223.461 276.37 227.331 272.92 232.131C272.03 233.371 271.3 234.701 270.28 236.341C268.77 235.901 267.21 235.451 265.72 235.021C266.07 219.891 285.53 207.761 298.32 214.741C306.74 219.331 310.02 227.391 311.68 236.131C311.92 237.401 311.92 238.711 311.98 240.001C312 240.451 311.86 240.911 311.73 241.771C309.07 241.721 306.67 241.681 304.61 241.641ZM214.84 230.411C228.85 221.501 238.24 222.651 251.15 231.171C259.95 236.981 265.7 245.121 269.44 254.481C273.36 264.301 277.4 274.211 279.86 284.421C283.46 299.371 280.04 310.241 263.24 321.341C263.06 321.461 262.85 321.541 262.66 321.651C257.95 324.251 253.49 326.771 250.15 331.401C242.6 341.871 220.2 342.361 211.7 329.391C209.5 326.041 206.62 324.421 203.48 322.581C192.8 316.321 183.9 308.471 183.55 295.491C183.38 289.251 184.69 282.741 186.61 276.731C189.68 267.101 193.81 257.791 197.5 248.351C202.11 241.151 207.55 235.051 214.84 230.411ZM197.65 235.001C193.93 237.401 192.12 236.241 190.49 233.061C187.43 227.071 182.66 222.901 175.63 221.541C170.73 220.601 166.37 221.961 164.01 226.281C161.76 230.391 160.44 234.961 158.49 239.901C157 239.851 154.57 239.771 152.17 239.691C150.69 230.741 158.86 216.371 167.81 213.261C173.47 211.301 178.82 212.191 183.81 215.061C191.63 219.531 196.63 225.891 197.65 235.001Z" fill="#682470"/>
<path id="Vector_22" d="M335.24 161.071C340.55 158.821 345.04 154.991 348.79 150.611C352.54 146.201 355.48 141.021 357.36 135.471C359.25 129.941 360.24 124.031 359.86 118.221C359.87 115.321 359.17 112.461 358.61 109.661C357.9 106.881 356.78 104.201 355.57 101.651C355.08 104.541 355.16 107.261 354.77 109.971C354.44 112.671 354.25 115.301 353.7 117.891C352.96 123.081 351.59 128.051 349.95 132.901C348.32 137.761 346.22 142.491 343.72 147.131C341.27 151.811 338.42 156.331 335.24 161.071Z" fill="#EA5D7B"/>
<path id="Vector_23" d="M353.8 155.931C349.06 159.671 343.71 162.471 337.59 165.301C340.96 166.031 344.45 165.651 347.76 164.751C351.08 163.821 354.24 162.221 356.99 160.081C359.74 157.951 362.15 155.321 363.82 152.281C365.59 149.311 366.59 145.951 366.88 142.571C364.56 145.131 362.72 147.661 360.51 149.841C358.44 152.111 356.16 154.081 353.8 155.931Z" fill="#EA5D7B"/>
<path id="Vector_24" d="M109.55 136.091C111.97 141.431 115.42 146.281 119.59 150.301C123.77 154.281 128.61 157.641 134.12 159.351C130.48 154.951 127.2 150.741 124.28 146.331C121.33 141.971 118.77 137.471 116.66 132.801C114.54 128.131 112.68 123.331 111.43 118.241C110.63 115.721 110.18 113.121 109.58 110.471C108.93 107.811 108.74 105.101 107.96 102.271C107.01 104.931 106.16 107.711 105.74 110.551C105.46 113.391 105.05 116.301 105.35 119.191C105.54 125.001 107.12 130.771 109.55 136.091Z" fill="#EA5D7B"/>
<path id="Vector_25" d="M112.39 160.531C115.34 162.391 118.65 163.661 122.04 164.261C125.42 164.831 128.94 164.861 132.21 163.791C125.83 161.591 120.24 159.341 115.14 156.091C112.61 154.491 110.14 152.751 107.85 150.701C105.43 148.751 103.35 146.421 100.78 144.101C101.4 147.431 102.74 150.671 104.8 153.451C106.78 156.311 109.44 158.681 112.39 160.531Z" fill="#EA5D7B"/>
<path id="Vector_26" d="M320.57 437.001C345.51 421.081 366.05 398.331 378.78 371.781C380.47 368.511 381.81 365.081 383.29 361.731C384.55 358.281 385.99 354.901 387.03 351.371C389.4 344.421 391.05 337.261 392.37 330.071C394.8 315.641 395.43 300.951 393.95 286.481C392.36 272.041 389.02 257.811 383.57 244.451C378.18 231.081 370.9 218.561 362.09 207.341C369.78 219.351 375.85 232.271 380.19 245.671C384.5 259.081 386.98 273.001 387.59 286.951C388.93 314.861 382.65 342.831 369.73 367.181C363.31 379.381 355.12 390.571 345.83 400.661C341.11 405.641 336.1 410.341 330.8 414.691C330.18 415.181 329.55 415.671 328.92 416.161C315.73 435.471 276.07 450.391 238.01 450.391C181.26 450.391 160 438.561 144.15 423.701C141.23 420.971 138.77 417.791 136.9 414.301C122.31 402.291 109.91 387.541 100.46 371.051C86.9 347.051 79.82 319.301 80.35 291.361C80.67 263.411 88.86 235.501 103.52 211.051C86.41 233.911 76.08 262.081 73.94 291.071C73 305.561 73.78 320.261 76.78 334.591C79.62 348.961 84.81 362.841 91.5 375.931C105.05 402.091 126.26 424.181 151.6 439.441C177 454.701 206.8 462.461 236.43 462.101C266.09 461.711 295.59 452.881 320.57 437.001Z" fill="#EA5D7B"/>
<path id="Vector_27" d="M227.25 316.341C230.58 313.951 235.01 314.001 238.82 315.551C242.88 317.201 238.61 309.711 234.34 309.191C234.28 302.921 234.16 296.981 234.26 291.041C234.28 290.131 235.11 288.911 235.94 288.401C239.05 286.461 242.59 285.081 245.46 282.871C248.56 280.471 251.42 277.601 253.78 274.501C255.99 271.591 253.8 267.091 249.93 265.441C246.53 263.991 244.48 265.271 242.85 269.271C240.93 273.971 237.93 277.941 234.26 281.491C233.28 282.441 231.7 282.361 230.72 281.411C226.85 277.671 224.44 273.101 222.09 268.461C220.25 264.821 216.12 264.001 213.19 266.881C209.59 270.421 209.18 273.671 212.99 276.871C217.8 280.921 223.21 284.301 228.31 288.031C229.14 288.641 230.33 289.581 230.33 290.361C230.33 296.711 230.08 303.071 229.9 309.461C224.96 311.421 223.55 318.991 227.25 316.341Z" fill="#682470"/>
<path id="Vector_28" d="M232.36 323.801C237.314 323.801 241.33 317.358 241.33 309.411C241.33 301.463 237.314 295.021 232.36 295.021C227.406 295.021 223.39 301.463 223.39 309.411C223.39 317.358 227.406 323.801 232.36 323.801Z" fill="#682470"/>
<path id="Year" d="M202.584 50.464C205.688 48.032 208.232 45.936 210.216 44.176C212.2 42.416 213.864 40.608 215.208 38.752C216.552 36.864 217.224 35.072 217.224 33.376C217.224 32.352 216.984 31.552 216.504 30.976C216.056 30.4 215.384 30.112 214.488 30.112C213.56 30.112 212.84 30.512 212.328 31.312C211.816 32.08 211.576 33.216 211.608 34.72H202.488C202.584 31.872 203.208 29.52 204.36 27.664C205.512 25.776 207.016 24.4 208.872 23.536C210.728 22.64 212.792 22.192 215.064 22.192C219 22.192 221.928 23.168 223.848 25.12C225.768 27.072 226.728 29.6 226.728 32.704C226.728 36.032 225.608 39.152 223.368 42.064C221.16 44.976 218.392 47.584 215.064 49.888H227.064V57.52H202.584V50.464ZM235 39.952C235 34.448 236.12 30.112 238.36 26.944C240.6 23.776 244.12 22.192 248.92 22.192C253.72 22.192 257.24 23.776 259.48 26.944C261.752 30.112 262.888 34.448 262.888 39.952C262.888 45.52 261.768 49.888 259.528 53.056C257.288 56.224 253.752 57.808 248.92 57.808C244.088 57.808 240.552 56.224 238.312 53.056C236.104 49.888 235 45.52 235 39.952ZM253.576 39.952C253.576 37.072 253.272 34.88 252.664 33.376C252.056 31.84 250.808 31.072 248.92 31.072C247.032 31.072 245.784 31.84 245.176 33.376C244.568 34.88 244.264 37.072 244.264 39.952C244.264 42.896 244.552 45.136 245.128 46.672C245.736 48.176 247 48.928 248.92 48.928C250.84 48.928 252.088 48.176 252.664 46.672C253.272 45.136 253.576 42.896 253.576 39.952ZM202.584 92.464C205.688 90.032 208.232 87.936 210.216 86.176C212.2 84.416 213.864 82.608 215.208 80.752C216.552 78.864 217.224 77.072 217.224 75.376C217.224 74.352 216.984 73.552 216.504 72.976C216.056 72.4 215.384 72.112 214.488 72.112C213.56 72.112 212.84 72.512 212.328 73.312C211.816 74.08 211.576 75.216 211.608 76.72H202.488C202.584 73.872 203.208 71.52 204.36 69.664C205.512 67.776 207.016 66.4 208.872 65.536C210.728 64.64 212.792 64.192 215.064 64.192C219 64.192 221.928 65.168 223.848 67.12C225.768 69.072 226.728 71.6 226.728 74.704C226.728 78.032 225.608 81.152 223.368 84.064C221.16 86.976 218.392 89.584 215.064 91.888H227.064V99.52H202.584V92.464ZM235.432 75.376C235.56 71.76 236.68 68.992 238.792 67.072C240.904 65.12 243.848 64.144 247.624 64.144C250.088 64.144 252.184 64.576 253.912 65.44C255.672 66.272 257 67.424 257.896 68.896C258.792 70.336 259.24 71.968 259.24 73.792C259.24 75.968 258.712 77.712 257.656 79.024C256.6 80.304 255.4 81.168 254.056 81.616V81.808C257.928 83.248 259.864 86 259.864 90.064C259.864 92.08 259.4 93.856 258.472 95.392C257.544 96.928 256.2 98.128 254.44 98.992C252.68 99.856 250.584 100.288 248.152 100.288C244.152 100.288 240.984 99.328 238.648 97.408C236.344 95.456 235.144 92.48 235.048 88.48H244.216C244.152 89.76 244.424 90.752 245.032 91.456C245.64 92.16 246.552 92.512 247.768 92.512C248.696 92.512 249.416 92.224 249.928 91.648C250.472 91.072 250.744 90.304 250.744 89.344C250.744 88.128 250.344 87.232 249.544 86.656C248.776 86.08 247.512 85.792 245.752 85.792H244.072V78.16H245.704C246.92 78.192 247.944 78 248.776 77.584C249.64 77.136 250.072 76.256 250.072 74.944C250.072 73.952 249.832 73.216 249.352 72.736C248.872 72.224 248.216 71.968 247.384 71.968C246.456 71.968 245.768 72.304 245.32 72.976C244.904 73.616 244.664 74.416 244.6 75.376H235.432Z" fill="#EA617D"/>
</g>
<g id="Ebene_3">
<g id="Group_2">
<path id="Vector_29" d="M181.734 299.179C179.631 308.742 180.286 317.754 183.344 326.596C183.708 327.664 183.231 328.238 182.689 328.91C181.961 329.808 180.949 329.759 180.003 329.492C177.325 328.74 175.521 326.904 174.348 324.477C171.962 319.566 172.188 314.534 173.919 309.486C174.291 308.41 174.356 307.261 174.914 306.234C175.254 305.611 174.777 305.279 174.194 305.053C172.415 304.365 170.837 303.321 169.292 302.221C165.805 299.738 165.643 295.442 168.895 292.497C171.711 289.949 175.028 288.234 178.49 286.818C179.76 286.292 180.011 285.774 179.445 284.536C178.725 282.967 178.207 281.309 177.883 279.593C176.977 274.764 178.725 271.948 183.401 270.492C186.799 269.432 190.342 268.818 193.618 267.37C197.267 265.76 197.146 265.93 194.225 263.155C190.746 259.854 186.305 258.705 181.621 258.22C175.642 257.605 169.64 257.799 163.653 257.484C161.404 257.362 159.131 256.828 156.955 256.165C151.995 254.66 151.939 249.531 154.778 246.595C158.273 242.978 162.682 241.967 167.504 242.145C173.846 242.372 178.919 245.486 183.668 249.305C187.826 252.654 191.612 256.464 196.167 259.328C197.647 260.258 199.281 260.825 200.835 261.577C201.66 261.974 202.113 261.423 202.606 260.865C205.203 257.92 207.007 254.442 209.183 251.214C212.605 246.133 216.57 244.693 222.613 245.551C228.947 246.441 234.643 249.022 239.925 252.549C240.338 252.824 240.694 252.921 241.123 252.67C246.616 249.434 251.559 251.319 256.316 254.377C259.204 256.23 261.704 258.576 263.718 261.359C264.737 262.774 265.846 263.705 267.722 263.494C270.028 263.236 272.374 263.163 274.558 262.37C278.134 261.067 279.776 258.001 281.079 254.733C281.678 253.228 282.26 251.715 282.891 250.219C284.444 246.497 287.114 244.75 291.167 245.163C294.646 245.519 297.712 246.603 299.629 249.814C300.81 251.804 300.454 253.633 298.529 254.83C295.827 256.513 292.704 257.136 289.743 258.139C286.41 259.272 283.045 260.339 280.06 262.257C276.63 264.465 274.931 267.183 276.241 270.929C276.492 271.641 276.791 271.843 277.576 271.973C281.686 272.644 285.852 273.178 289.662 275.039C295.592 277.935 298.003 282.902 297.413 289.924C297.186 292.635 296.579 295.264 295.754 297.844C295.325 299.187 295.795 299.616 297.089 299.875C302.987 301.072 308.844 300.538 314.669 299.479C319.887 298.532 325.072 297.408 330.282 296.429C331.868 296.129 333.486 295.951 335.112 296.364C336.892 296.817 338 297.796 338 299.592C338 304.802 336.503 308.944 330.339 310.117C328.51 310.465 326.674 310.538 324.854 310.465C321.238 310.311 317.654 309.737 314.054 309.316C308.375 308.645 302.679 307.819 296.96 308.984C293.408 309.704 290.318 311.201 287.955 314.057C287.438 314.688 287.195 315.327 287.033 316.063C286.451 318.814 285.941 321.58 284.388 324.016C283.724 325.051 282.932 325.633 281.694 325.1C280.488 324.582 280.027 323.773 280.375 322.381C281.904 316.281 282.268 310.076 281.508 303.847C280.885 298.783 279.501 293.905 277.382 289.229C275.287 284.601 272.601 280.378 269.268 276.568C265.716 272.507 261.647 269.036 256.987 266.294C251.478 263.05 245.532 260.922 239.221 259.927C229.603 258.398 220.299 259.53 211.295 263.357C206.303 265.485 201.789 268.324 197.736 271.859C191.644 277.175 187.122 283.663 184.08 291.154C183.004 293.88 182.147 296.679 181.734 299.179ZM167.811 245.154C166.582 245.025 165.352 244.888 164.114 244.774C161.728 244.556 157.95 246.692 157.027 248.779C156.429 250.13 156.849 251.602 158.022 252.128C159.382 252.735 160.094 252.015 160.741 250.89C162.294 248.172 163.766 247.549 166.881 247.986C167.941 248.132 169.025 248.107 170.101 248.107C170.465 248.107 170.91 247.994 171.023 247.573C171.144 247.128 170.983 246.732 170.57 246.457C169.721 245.875 168.912 245.203 167.811 245.154ZM320.518 308.07C322.767 308.224 324.514 308.758 326.512 308.717C329.586 308.669 331.941 307.431 334.012 305.595C335.241 304.511 336.22 302.99 336.39 301.153C336.455 300.449 336.236 300.021 335.694 299.657C334.473 298.831 333.114 299.398 332.766 300.951C332.402 302.585 332.143 304.219 330.913 305.53C328.478 308.127 325.38 307.868 322.273 307.69C321.836 307.658 321.383 307.294 320.518 308.07ZM230.185 251.19C230.064 250.154 229.174 249.839 228.494 249.426C225.574 247.662 222.273 247.347 218.997 247.274C217.403 247.242 215.688 247.67 214.507 249.03C214.199 249.386 213.77 249.75 214.005 250.308C214.264 250.923 214.814 250.947 215.38 250.85C217.209 250.526 219.053 250.243 220.865 249.855C223.462 249.297 225.962 249.58 228.438 250.445C229.004 250.648 229.319 251.44 230.185 251.19ZM279.922 274.327C279.89 274.473 279.857 274.618 279.817 274.764C281.443 275.597 283.069 276.414 284.679 277.255C286.386 278.145 287.486 279.723 288.894 280.953C289.622 281.592 290.35 282.231 291.394 282.376C292.648 282.546 292.987 281.98 292.753 280.88C292.478 279.593 291.669 278.647 290.625 277.959C288.344 276.463 285.763 275.694 283.158 275.015C282.098 274.723 281.006 274.545 279.922 274.327ZM284.97 250.073C287.373 248.172 289.792 248.803 292.138 249.936C293.44 250.559 294.816 250.745 296.183 251.052C296.579 251.141 297.065 251.424 297.38 250.971C297.736 250.462 297.275 250.065 297.032 249.669C296.272 248.399 294.978 247.905 293.715 247.298C291.175 246.069 286.321 247.323 284.97 250.073ZM173.871 291.866C173.272 291.486 172.779 291.631 172.479 291.866C171.169 292.869 169.801 293.84 168.669 295.037C167.544 296.226 167.747 297.925 168.823 298.759C169.138 299.001 169.486 299.212 169.858 299.066C170.327 298.88 170.214 298.459 170.101 298.087C169.68 296.663 170.214 295.676 171.282 294.673C172.18 293.832 173.28 293.096 173.871 291.866Z" fill="#EA5D7B"/>
<path id="Vector_30" d="M198.424 356.942C196.733 356.375 194.581 356.456 192.51 356.036C190.738 355.672 189.873 354.636 190.398 352.905C191.199 350.259 190.625 348.318 188.392 346.684C187.543 346.069 187.041 345.009 186.912 343.868C186.742 342.339 187.81 341.255 189.331 341.474C191.191 341.749 192.631 342.784 193.853 344.135C198.594 349.402 204.224 353.406 210.688 356.286C218.665 359.83 226.965 361.205 235.678 360.42C244.221 359.652 252.06 356.901 259.155 352.185C264.834 348.415 269.688 343.723 273.418 337.946C273.838 337.291 274.17 336.515 275.052 336.231C278.522 335.107 279.388 335.9 280.084 339.912C281.136 345.964 277.624 349.289 272.649 352.29C267.188 355.575 261.299 358.188 256.728 362.831C255.183 364.401 253.994 366.18 252.999 368.106C250.62 372.709 247.781 374.02 242.635 373.122C238.445 372.385 234.481 370.897 230.549 369.449C227.45 368.308 224.935 369.198 222.321 370.379C219.069 371.852 215.93 373.559 212.67 374.999C210.267 376.066 207.84 377.183 205.074 377.013C203.027 376.892 201.862 375.767 201.684 373.672C201.385 370.242 203.164 367.556 204.734 364.781C205.43 363.551 206.028 362.289 205.591 360.793C205.057 358.94 203.601 358.179 201.951 357.686C200.907 357.379 199.823 357.233 198.424 356.942ZM241.139 370.112C245.54 371.075 249.471 370.007 251.963 365.8C252.246 365.323 252.618 364.797 252.271 364.32C251.882 363.778 251.251 363.883 250.644 364.126C249.73 364.49 248.889 364.862 248.379 365.824C247.473 367.523 245.952 368.171 244.067 368.009C242.838 367.904 241.6 367.766 240.37 367.629C239.035 367.483 237.7 367.297 236.358 367.184C235.945 367.151 235.403 367.167 235.257 367.669C235.063 368.308 235.702 368.308 236.05 368.462C237.749 369.149 239.456 369.821 241.139 370.112ZM277.131 343.229C277.139 343.205 277.204 342.881 277.269 342.566C277.358 342.105 277.333 341.684 276.767 341.555C276.314 341.458 275.796 341.174 275.481 341.781C274.696 343.294 273.45 344.491 272.795 346.117C272.431 347.032 271.695 347.905 270.732 348.488C268.976 349.556 267.269 350.704 265.562 351.845C265.206 352.088 264.454 352.233 264.761 352.832C265.012 353.334 265.587 353.05 266.072 352.905C269.114 351.991 271.484 349.96 274.041 348.221C275.74 347.08 276.71 345.503 277.131 343.229Z" fill="#EA5D7B"/>
<path id="Vector_31" d="M264.325 384.221C263.168 380.281 263.079 376.584 266.323 373.413C268.038 371.738 269.389 369.797 269.268 367.167C269.235 366.431 269.51 365.671 269.672 364.926C270.101 362.92 270.554 362.637 272.447 363.567C275.481 365.064 278.595 364.975 281.799 364.352C284.817 363.77 285.836 364.821 285.342 367.847C285.051 369.659 284.428 371.407 284.63 373.308C284.817 375.031 285.391 376.487 286.936 377.369C290.641 379.48 289.865 382.983 288.376 385.847C287.26 387.999 284.922 388.306 282.252 387.004C280.1 385.952 278.134 384.609 276.241 383.169C274.081 381.527 272.269 381.568 270.093 383.186C268.993 384.011 267.908 384.876 266.622 385.459C265.449 385.985 264.907 385.604 264.511 384.577C266.323 384.836 268.661 383.671 269.607 381.915C267.722 382.668 265.854 383.032 264.325 384.221ZM279.914 383.38C279.412 383.493 279.065 382.611 278.603 383.283C278.474 383.477 278.611 383.695 278.83 383.808C280.763 384.876 282.705 385.936 284.881 386.43C285.82 386.648 286.394 386.025 286.92 385.402C287.138 385.151 287.243 384.812 287.098 384.496C286.928 384.124 286.564 384.156 286.248 384.261C283.975 385.006 281.904 384.245 279.914 383.38Z" fill="#EA5D7B"/>
<path id="Vector_32" d="M175.294 396.672C176.12 392.861 178.668 390.151 181.443 387.748C186.038 383.784 191.151 380.564 196.611 377.887C197.704 377.353 198.674 377.328 199.394 378.226C200.074 379.076 200.163 380.128 199.394 381.066C199.087 381.438 198.812 381.875 198.424 382.142C194.508 384.771 192.154 388.606 190.059 392.683C188.651 395.418 187.34 398.225 185.342 400.619C183.813 402.456 181.904 403.572 179.453 403.524C176.467 403.467 175.125 402.035 175.076 399.099C175.06 398.273 175.133 397.472 175.294 396.672ZM177.73 397.909C177.568 398.702 177.357 399.495 177.252 400.304C177.155 401.024 177.713 401.404 178.263 401.614C178.967 401.873 179.283 401.25 179.396 400.757C179.744 399.285 180.237 397.78 180.197 396.299C180.14 394.236 181.216 392.982 182.608 391.834C183.328 391.235 184.938 390.709 184.315 389.868C183.514 388.776 182.333 390.151 181.33 390.531C181.241 390.564 181.192 390.701 181.111 390.766C178.886 392.635 178.393 395.312 177.73 397.909Z" fill="#EA5D7B"/>
<path id="Vector_33" d="M151.567 336.498C153.12 336.87 154.746 337.016 156.21 337.744C156.639 337.955 157.076 338.1 157.076 338.642C157.084 339.208 156.728 339.492 156.202 339.702C154.552 340.365 152.821 340.074 151.13 339.961C147.716 339.718 144.528 339.928 141.915 342.315C140.678 343.448 139.367 343.245 138.186 342.008C136.924 340.681 136.714 339.184 137.345 337.607C137.967 336.053 139.464 335.786 140.977 335.681C142.401 335.584 143.833 335.495 145.257 335.584C147.384 335.705 149.504 335.924 151.567 336.498ZM142.061 337.137C140.734 336.183 140.087 337.089 139.335 337.267C138.065 337.574 137.692 339.5 138.631 340.43C139.011 340.81 139.416 340.835 139.472 340.301C139.618 338.82 140.216 337.671 142.061 337.137Z" fill="#EA5D7B"/>
<path id="Vector_34" d="M301.603 347.396C302.113 345.769 302.841 344.459 304.346 343.812C305.397 343.359 306.635 343.221 307.274 344.281C307.881 345.292 308.544 345.373 309.523 345.244C310.098 345.163 310.721 345.219 311.287 345.341C312.031 345.511 313.002 345.373 313.293 346.4C313.601 347.476 313.277 348.431 312.573 349.248C310.518 351.635 304.734 351.918 302.388 349.782C301.603 349.062 301.595 348.172 301.603 347.396Z" fill="#EA5D7B"/>
<path id="Vector_35" d="M163.896 305.983C164.907 306.193 165.91 306.396 166.921 306.606C167.253 306.679 167.552 306.849 167.609 307.205C167.674 307.593 167.35 307.763 167.075 307.933C164.891 309.308 162.561 310.166 159.94 310.214C158.993 310.23 158.2 309.882 157.553 309.373C156.752 308.734 156.51 307.674 156.728 306.711C156.947 305.748 157.869 305.554 158.767 305.417C160.538 305.15 162.205 305.659 163.896 305.983Z" fill="#EA5D7B"/>
<path id="Vector_36" d="M248.614 239.621C248.428 240.859 247.805 241.846 246.875 242.655C246.365 243.1 245.669 243.148 245.621 242.452C245.516 240.964 244.78 239.516 245.313 237.971C245.653 236.984 245.807 235.867 247.231 236.013C248.638 236.159 248.614 237.348 248.776 238.335C248.841 238.739 248.671 239.192 248.614 239.621Z" fill="#EA5D7B"/>
<path id="Vector_37" d="M264.325 384.221C265.862 383.032 267.73 382.668 269.607 381.923C268.661 383.679 266.323 384.844 264.511 384.585C264.446 384.464 264.389 384.342 264.325 384.221Z" fill="#EA5D7B"/>
<path id="Vector_38" d="M167.811 245.155C168.912 245.203 169.721 245.875 170.578 246.449C170.991 246.724 171.145 247.129 171.031 247.565C170.918 247.986 170.473 248.099 170.109 248.099C169.033 248.099 167.949 248.124 166.889 247.978C163.766 247.541 162.302 248.164 160.749 250.882C160.102 252.007 159.39 252.727 158.031 252.12C156.858 251.594 156.437 250.122 157.036 248.771C157.958 246.692 161.736 244.548 164.122 244.766C165.352 244.888 166.582 245.025 167.811 245.155Z" fill="#F08EB8"/>
<path id="Vector_39" d="M320.517 308.07C321.383 307.294 321.836 307.658 322.289 307.682C325.388 307.86 328.486 308.119 330.929 305.522C332.159 304.211 332.418 302.577 332.782 300.943C333.13 299.39 334.489 298.823 335.71 299.649C336.252 300.013 336.471 300.449 336.406 301.145C336.236 302.982 335.249 304.503 334.028 305.587C331.949 307.423 329.602 308.661 326.528 308.709C324.514 308.758 322.766 308.224 320.517 308.07Z" fill="#F08EB8"/>
<path id="Vector_40" d="M230.185 251.19C229.32 251.44 229.004 250.648 228.43 250.445C225.962 249.58 223.454 249.297 220.857 249.855C219.045 250.243 217.201 250.526 215.372 250.85C214.806 250.947 214.264 250.923 213.997 250.308C213.763 249.75 214.191 249.386 214.499 249.03C215.68 247.662 217.403 247.234 218.989 247.274C222.265 247.347 225.574 247.662 228.486 249.426C229.174 249.839 230.064 250.154 230.185 251.19Z" fill="#F08EB8"/>
<path id="Vector_41" d="M279.922 274.327C281.006 274.553 282.098 274.723 283.166 275.006C285.771 275.686 288.36 276.455 290.633 277.951C291.685 278.639 292.494 279.585 292.761 280.872C292.995 281.972 292.648 282.538 291.402 282.368C290.35 282.231 289.622 281.584 288.902 280.944C287.494 279.715 286.394 278.137 284.687 277.247C283.069 276.406 281.443 275.581 279.825 274.756C279.857 274.61 279.89 274.464 279.922 274.327Z" fill="#F08EB8"/>
<path id="Vector_42" d="M284.97 250.073C286.321 247.315 291.175 246.069 293.715 247.298C294.969 247.905 296.272 248.399 297.032 249.669C297.275 250.065 297.736 250.462 297.38 250.971C297.065 251.424 296.571 251.141 296.183 251.052C294.824 250.745 293.44 250.559 292.138 249.936C289.784 248.811 287.373 248.172 284.97 250.073Z" fill="#F08EB8"/>
<path id="Vector_43" d="M173.871 291.866C173.272 293.096 172.18 293.832 171.29 294.673C170.222 295.676 169.688 296.663 170.109 298.087C170.214 298.451 170.335 298.88 169.866 299.066C169.486 299.212 169.138 299.001 168.831 298.759C167.755 297.925 167.552 296.227 168.677 295.037C169.801 293.84 171.177 292.869 172.487 291.866C172.787 291.631 173.272 291.486 173.871 291.866Z" fill="#F08EB8"/>
<path id="Vector_44" d="M241.139 370.112C239.448 369.821 237.749 369.158 236.058 368.454C235.702 368.308 235.071 368.308 235.265 367.661C235.419 367.159 235.953 367.143 236.366 367.176C237.709 367.289 239.043 367.475 240.378 367.621C241.608 367.758 242.838 367.896 244.075 368.001C245.952 368.163 247.481 367.515 248.387 365.816C248.897 364.854 249.738 364.49 250.653 364.118C251.251 363.875 251.89 363.778 252.279 364.312C252.626 364.797 252.254 365.315 251.971 365.792C249.471 369.999 245.548 371.067 241.139 370.112Z" fill="#F08EB8"/>
<path id="Vector_45" d="M277.131 343.229C276.711 345.503 275.74 347.08 274.041 348.237C271.484 349.976 269.114 352.007 266.072 352.921C265.595 353.067 265.012 353.35 264.762 352.848C264.462 352.241 265.207 352.096 265.563 351.861C267.27 350.712 268.977 349.572 270.732 348.504C271.695 347.921 272.423 347.048 272.795 346.134C273.45 344.499 274.696 343.302 275.481 341.797C275.796 341.191 276.314 341.474 276.767 341.571C277.334 341.692 277.358 342.113 277.269 342.582C277.204 342.881 277.139 343.197 277.131 343.229Z" fill="#F08EB8"/>
<path id="Vector_46" d="M279.914 383.38C281.904 384.245 283.975 385.006 286.249 384.261C286.556 384.156 286.92 384.124 287.098 384.496C287.244 384.812 287.139 385.151 286.92 385.402C286.386 386.025 285.82 386.648 284.881 386.43C282.705 385.928 280.764 384.876 278.83 383.808C278.612 383.687 278.474 383.469 278.604 383.283C279.065 382.611 279.413 383.493 279.914 383.38Z" fill="#EA5D7B"/>
<path id="Vector_47" d="M177.73 397.909C178.393 395.312 178.887 392.627 181.103 390.766C181.184 390.693 181.233 390.564 181.322 390.531C182.325 390.151 183.506 388.768 184.307 389.868C184.93 390.709 183.32 391.235 182.6 391.834C181.209 392.983 180.133 394.237 180.189 396.299C180.23 397.78 179.736 399.285 179.388 400.757C179.275 401.242 178.96 401.873 178.256 401.615C177.706 401.412 177.147 401.024 177.244 400.304C177.35 399.495 177.56 398.71 177.73 397.909Z" fill="#EA5D7B"/>
<path id="Vector_48" d="M140.993 329.8C139.246 330.35 138.663 331.507 138.51 332.987C138.453 333.521 138.065 333.505 137.717 333.125C136.843 332.203 137.215 330.277 138.421 329.954C139.133 329.776 139.747 328.869 140.993 329.8Z" fill="#EA5D7B"/>
</g>
</g>
</g>
</svg>
