<svg width="630" height="607" viewBox="0 0 630 607" fill="none" xmlns="http://www.w3.org/2000/svg">
<g id="leafs_right">
<path id="Vector" d="M321.15 69.04C321.15 69.04 295.22 179.59 319.71 250.51C328.02 274.58 339.38 291.01 350.76 302.2C374.49 325.53 412.89 316.34 420.99 285.39C424.87 270.55 425.92 251.16 420.19 226.47C403.3 153.72 321.15 69.04 321.15 69.04Z" fill="#EA5A78"/>
<path id="Vector_2" d="M378.12 258.73C376.68 253.77 375.24 248.8 373.8 243.84C387.26 231.48 400.73 219.12 414.2 206.75C413.99 206.18 413.77 205.6 413.56 205.03C400.13 217.36 386.71 229.68 373.28 242.01C371.92 237.32 370.56 232.62 369.2 227.93C381.88 215.89 395.11 204.45 408.87 193.66C408.64 193.13 408.4 192.6 408.16 192.08C394.48 202.8 381.3 214.15 368.67 226.1C367.36 221.59 366.06 217.08 364.75 212.57C377.28 201.72 389.8 190.88 402.33 180.04C402.06 179.52 401.8 179.01 401.53 178.49C389.1 189.26 376.66 200.02 364.23 210.78C362.86 206.05 361.49 201.32 360.12 196.6C370.88 185.42 382.12 174.71 393.8 164.52C393.51 164.02 393.22 163.53 392.93 163.03C381.36 173.11 370.24 183.68 359.58 194.72C358.17 189.85 356.76 184.98 355.35 180.11C365.16 170.21 375.4 160.77 386.06 151.81C385.76 151.33 385.45 150.85 385.14 150.37C374.61 159.2 364.5 168.5 354.8 178.25C353.65 174.28 352.5 170.32 351.35 166.35C359.83 157.03 368.74 148.13 378.07 139.68C377.75 139.21 377.43 138.73 377.1 138.26C367.93 146.56 359.15 155.3 350.8 164.44C349.4 159.61 348 154.77 346.6 149.94C353.05 141.23 360.45 133.33 368.65 126.31C368.32 125.85 367.98 125.39 367.65 124.94C359.63 131.79 352.39 139.48 346.01 147.92C345.53 146.27 345.06 144.63 344.58 142.98C344.65 142.7 344.59 142.37 344.33 142.12C343.98 140.93 343.64 139.74 343.29 138.54C348.42 130.56 354.96 123.69 362.63 118.2C362.29 117.75 361.95 117.3 361.61 116.85C354.18 122.18 347.79 128.77 342.67 136.41C341.62 132.79 340.57 129.16 339.52 125.54C344.24 119.39 349.41 113.65 355 108.33C354.65 107.88 354.29 107.44 353.94 106.99C348.54 112.12 343.53 117.64 338.94 123.54L336.01 113.44L347.34 102.87C347.96 102.29 348.59 101.71 349.22 101.12C348.86 100.68 348.51 100.24 348.15 99.81C347.23 100.68 346.29 101.52 345.37 102.38C342.07 105.46 338.78 108.53 335.48 111.61C334.65 108.76 333.83 105.91 333 103.07C335.78 99.32 338.73 95.7 341.84 92.23C341.47 91.79 341.1 91.35 340.73 90.92C337.82 94.17 335.04 97.54 332.41 101.03C331.45 97.71 330.48 94.38 329.52 91.06C331.33 88.8 333.24 86.64 335.26 84.57C334.88 84.14 334.5 83.71 334.14 83.29C332.33 85.15 330.6 87.08 328.95 89.09C328.37 87.08 327.79 85.08 327.2 83.07L330.37 79.04C329.98 78.6 329.59 78.18 329.22 77.77C328.35 78.87 327.48 79.97 326.62 81.07C325.75 78.07 324.88 75.08 324.01 72.08C322.17 70.11 321.14 69.05 321.14 69.05C321.14 69.05 320.83 70.39 320.3 72.87C321.27 76.21 322.24 79.55 323.2 82.9C321.81 81.8 320.36 80.82 318.87 79.93C318.76 80.47 318.66 81.03 318.55 81.61C320.47 82.79 322.29 84.14 324.01 85.68C324.69 88.01 325.36 90.35 326.04 92.68C323.35 90.54 320.51 88.66 317.55 87.03C317.45 87.58 317.35 88.13 317.25 88.7C320.37 90.45 323.35 92.49 326.15 94.83C326.34 94.98 326.53 95.04 326.73 95.04C327.97 99.33 329.22 103.62 330.46 107.91C325.61 104.58 320.67 101.42 315.63 98.43C315.54 99 315.45 99.57 315.36 100.15C320.74 103.35 326.01 106.75 331.16 110.34C332.28 114.2 333.4 118.06 334.52 121.92C327.8 117.44 320.98 113.13 314.06 108.99C313.98 109.56 313.9 110.14 313.82 110.73C321.05 115.07 328.19 119.6 335.21 124.31C336.58 129.04 337.95 133.77 339.32 138.5C330.6 132.28 321.66 126.4 312.53 120.85C312.46 121.44 312.39 122.03 312.33 122.62C321.78 128.39 331.03 134.52 340.05 141C340.95 144.12 341.86 147.24 342.76 150.36C332.21 145.13 321.65 139.9 311.1 134.67C311.05 135.24 311 135.82 310.95 136.4C321.76 141.75 332.57 147.11 343.38 152.46C345.13 158.51 346.89 164.56 348.64 170.61C336.23 161.84 323.39 153.73 310.19 146.32C310.15 146.92 310.11 147.51 310.07 148.11C323.57 155.72 336.69 164.06 349.36 173.09C350.97 178.63 352.57 184.17 354.18 189.71C339.21 181.95 324.25 174.2 309.28 166.44C309.27 167.04 309.25 167.64 309.24 168.24C324.42 176.11 339.61 183.98 354.79 191.85C355.4 193.96 356.02 196.07 356.63 198.18C357.37 200.75 358.12 203.32 358.86 205.89C342.32 197.73 325.78 189.56 309.24 181.4C309.25 182.01 309.26 182.61 309.28 183.22C326.01 191.48 342.74 199.73 359.48 207.99C360.63 211.95 361.78 215.92 362.93 219.88C345.31 213.13 327.69 206.39 310.07 199.64C310.11 200.24 310.16 200.83 310.21 201.43C327.88 208.19 345.54 214.96 363.21 221.72C363.31 221.76 363.4 221.77 363.49 221.78L368.41 238.77L311.7 215.3C311.78 215.92 311.87 216.54 311.96 217.16C330.97 225.03 349.98 232.89 369 240.76C370.23 245 371.46 249.25 372.69 253.49C353.7 247.92 334.7 242.35 315.71 236.77C315.86 237.38 316.01 238 316.17 238.61C335.19 244.19 354.21 249.77 373.22 255.35C374.53 259.87 375.84 264.38 377.15 268.9C358.46 265.53 339.92 261.12 321.61 255.69C321.86 256.34 322.11 256.98 322.36 257.62C340.6 262.98 359.06 267.33 377.66 270.65C379.78 277.98 381.91 285.31 384.03 292.64C367.3 289.66 350.67 285.9 334.21 281.36C334.65 282.06 335.09 282.74 335.53 283.42C351.63 287.8 367.89 291.44 384.25 294.34C384.35 294.36 384.44 294.35 384.53 294.34C385.42 297.42 386.32 300.51 387.21 303.59C373.79 301.8 360.37 300.01 346.95 298.22C347.54 298.87 348.13 299.5 348.72 300.11C361.72 301.84 374.72 303.58 387.71 305.31C388.6 308.36 389.48 311.41 390.36 314.47C391.6 314.22 392.82 313.91 394.03 313.55C393.79 312.7 393.54 311.86 393.3 311.01C402.16 303.68 411.03 296.36 419.89 289.03C420.24 288.06 420.55 287.07 420.83 286.05C411.48 293.78 402.13 301.51 392.78 309.24C391.99 306.51 391.2 303.78 390.41 301.06C401.39 291.81 412.36 282.57 423.34 273.32C423.44 272.51 423.54 271.69 423.62 270.87C412.38 280.34 401.13 289.81 389.89 299.28C388.66 295.05 387.44 290.82 386.21 286.58C398.86 276.33 411.51 266.07 424.16 255.82C424.14 255.12 424.11 254.42 424.08 253.71C411.28 264.08 398.49 274.45 385.7 284.82C384.63 281.13 383.56 277.44 382.49 273.75C382.46 273.65 382.43 273.55 382.4 273.44C395.28 261.82 408.79 250.92 422.87 240.78C422.78 240.15 422.69 239.52 422.59 238.89C408.43 249.05 394.84 259.98 381.87 271.63C381.73 271.15 381.59 270.68 381.46 270.21C381.45 270.1 381.42 270 381.37 269.91C380.47 266.82 379.58 263.73 378.68 260.63C391.51 247.12 405 234.27 419.11 222.13C418.95 221.52 418.78 220.92 418.62 220.31C404.47 232.42 390.97 245.24 378.12 258.73Z" fill="#7A7AB9"/>
<path id="Vector_3" d="M73.95 327.87C73.95 327.87 151.68 461.57 239.13 510.01C268.81 526.45 294.25 532.5 314.91 533.33C357.99 535.05 384.63 491.02 363.63 452.84C353.56 434.53 336.72 414.26 308.84 394.85C226.67 337.68 73.95 327.87 73.95 327.87Z" fill="#692471"/>
<path id="Vector_4" d="M300.01 465.17C294.14 461.53 288.27 457.89 282.4 454.25C283.36 429.71 284.32 405.17 285.28 380.63C284.56 380.25 283.84 379.88 283.12 379.5C282.16 403.97 281.21 428.44 280.26 452.91C274.71 449.47 269.16 446.02 263.61 442.58C264.15 419.07 265.73 395.66 268.4 372.42C267.7 372.11 267 371.8 266.3 371.49C263.64 394.6 262.02 417.86 261.45 441.23L245.46 431.31C246.95 409.13 248.45 386.96 249.94 364.78C249.22 364.51 248.5 364.23 247.79 363.96C246.31 385.97 244.83 407.98 243.34 429.99C237.75 426.52 232.16 423.06 226.57 419.59C226.14 398.68 226.59 377.82 227.9 357.05C227.18 356.82 226.46 356.59 225.74 356.36C224.42 376.9 223.96 397.53 224.35 418.21C218.59 414.64 212.84 411.07 207.08 407.5C206.95 388.73 207.65 370.03 209.17 351.42C208.45 351.22 207.73 351.02 207.01 350.82C205.5 369.17 204.79 387.62 204.87 406.13C200.18 403.22 195.49 400.31 190.81 397.41C190 380.42 189.98 363.47 190.74 346.58C190.01 346.4 189.28 346.22 188.56 346.05C187.8 362.65 187.8 379.32 188.56 396.01C182.85 392.46 177.13 388.92 171.42 385.38C169.33 370.84 168.83 356.25 169.88 341.81C169.15 341.66 168.43 341.51 167.7 341.35C166.65 355.45 167.1 369.69 169.03 383.89L163.19 380.27C162.99 379.93 162.64 379.66 162.18 379.64C160.77 378.76 159.36 377.89 157.95 377.02C155.32 364.4 154.98 351.63 156.96 339.2C156.23 339.06 155.51 338.92 154.78 338.78C152.88 350.83 153.09 363.21 155.42 375.46C151.14 372.8 146.85 370.14 142.57 367.49C141.24 357.08 140.69 346.67 140.93 336.29C140.19 336.16 139.46 336.04 138.74 335.92C138.51 345.93 139 355.98 140.22 366.03L128.28 358.62C128.5 351.68 128.72 344.74 128.93 337.8C128.97 336.65 129.01 335.5 129.04 334.35C128.31 334.24 127.59 334.13 126.87 334.02C126.82 335.72 126.74 337.42 126.69 339.1L126.12 357.27L116.02 351C115.12 344.73 114.5 338.46 114.15 332.18C113.41 332.08 112.67 331.98 111.94 331.88C112.26 337.76 112.82 343.64 113.61 349.51C109.68 347.07 105.75 344.63 101.82 342.19C101.4 338.3 101.16 334.4 101.11 330.51C100.36 330.42 99.63 330.33 98.91 330.25C98.96 333.74 99.15 337.24 99.49 340.74C97.12 339.27 94.75 337.8 92.38 336.33C92.12 334.03 91.85 331.74 91.59 329.44C90.83 329.36 90.09 329.28 89.38 329.21L90.03 334.86C86.49 332.66 82.94 330.46 79.4 328.27C75.91 327.97 74 327.85 74 327.85C74 327.85 74.94 329.47 76.74 332.42L88.59 339.77C86.32 339.94 84.09 340.27 81.9 340.74C82.3 341.38 82.72 342.03 83.15 342.71C85.98 342.15 88.9 341.84 91.87 341.81C94.63 343.52 97.39 345.23 100.14 346.94C95.72 347.25 91.4 347.95 87.2 349.02C87.61 349.65 88.03 350.3 88.46 350.95C92.92 349.85 97.51 349.19 102.21 348.98C102.52 348.97 102.76 348.84 102.93 348.67C108 351.82 113.07 354.96 118.15 358.11C110.67 359.19 103.25 360.53 95.91 362.13C96.34 362.77 96.79 363.43 97.24 364.08C105.09 362.39 113.02 360.99 121.03 359.9C125.59 362.73 130.15 365.56 134.72 368.39C124.47 370.03 114.29 371.93 104.17 374.08C104.62 374.72 105.08 375.37 105.55 376.03C116.15 373.79 126.81 371.83 137.55 370.15C143.14 373.62 148.74 377.09 154.33 380.56C140.66 382.28 127.1 384.53 113.67 387.29C114.15 387.94 114.62 388.59 115.1 389.24C129.03 386.41 143.1 384.13 157.28 382.4C160.97 384.69 164.66 386.97 168.34 389.26C153.9 393.63 139.47 398 125.03 402.37C125.51 402.99 125.99 403.61 126.47 404.23C141.26 399.75 156.04 395.28 170.83 390.81C177.98 395.25 185.13 399.68 192.28 404.12C172.89 406.65 153.73 410.22 134.88 414.82C135.39 415.45 135.9 416.08 136.42 416.71C155.73 412.03 175.36 408.44 195.23 405.94C201.78 410 208.33 414.06 214.88 418.13C194.09 423.99 173.31 429.84 152.53 435.7C153.07 436.31 153.61 436.92 154.15 437.53C175.24 431.59 196.33 425.65 217.41 419.71C219.91 421.26 222.4 422.81 224.9 424.36C227.94 426.24 230.98 428.13 234.01 430.01C211.41 436.89 188.81 443.77 166.22 450.65C166.78 451.24 167.35 451.83 167.92 452.43C190.78 445.47 213.64 438.51 236.5 431.55C241.18 434.45 245.87 437.36 250.55 440.27C228.27 449.54 205.98 458.81 183.7 468.09C184.29 468.64 184.88 469.2 185.47 469.75L252.49 441.86C252.61 441.81 252.71 441.74 252.79 441.66C259.49 445.81 266.18 449.97 272.87 454.12C248.42 463.49 223.98 472.85 199.53 482.21C200.18 482.75 200.82 483.29 201.47 483.83C226.05 474.41 250.64 465 275.22 455.58C280.24 458.69 285.25 461.8 290.27 464.91C267.81 476.6 245.35 488.28 222.89 499.97C223.59 500.45 224.3 500.92 225 501.38C247.49 489.68 269.98 477.98 292.47 466.27C297.81 469.58 303.15 472.89 308.49 476.21C288.34 489.82 267.35 502.25 245.63 513.46C246.45 513.88 247.27 514.3 248.09 514.7C269.67 503.49 290.52 491.07 310.56 477.49C319.22 482.86 327.89 488.24 336.56 493.61C318.55 505.83 299.91 517.17 280.71 527.6C281.75 527.9 282.78 528.18 283.81 528.46C302.54 518.2 320.73 507.08 338.32 495.11C338.43 495.04 338.51 494.95 338.58 494.86C342.23 497.12 345.87 499.38 349.52 501.64C335.62 512.04 321.72 522.44 307.82 532.84C308.95 532.95 310.07 533.04 311.17 533.12C324.63 523.05 338.09 512.98 351.56 502.91C355.17 505.15 358.78 507.39 362.38 509.62C363.28 508.24 364.12 506.83 364.88 505.37C363.88 504.75 362.88 504.13 361.88 503.51C363.26 488.16 364.63 472.82 366 457.47C365.43 456.19 364.81 454.91 364.13 453.64L359.79 502.21C356.56 500.21 353.34 498.21 350.11 496.21C351.65 477.03 353.2 457.86 354.74 438.68C354.09 437.78 353.43 436.88 352.75 435.98C351.17 455.62 349.59 475.26 348.01 494.9C343.01 491.8 338 488.69 333 485.59C335.15 463.89 337.3 442.19 339.45 420.49C338.79 419.81 338.12 419.13 337.44 418.45C335.27 440.4 333.09 462.34 330.92 484.29C326.56 481.58 322.19 478.87 317.83 476.17C317.71 476.1 317.59 476.02 317.47 475.95C318.58 452.67 320.91 429.55 324.47 406.67C323.81 406.13 323.15 405.58 322.48 405.04C318.86 428.02 316.48 451.25 315.33 474.63C314.77 474.28 314.21 473.93 313.65 473.59C313.55 473.49 313.42 473.42 313.3 473.37C309.64 471.1 305.99 468.83 302.33 466.57C301.65 441.46 302.19 416.41 303.94 391.51C303.24 391.05 302.53 390.6 301.82 390.15C299.94 415.03 299.37 440.07 300.01 465.17Z" fill="#7A7AB9"/>
<path id="Vector_5" d="M377.45 264.1C367.46 262.9 361.72 263.06 361.56 249.93C361.41 236.8 352.16 237.42 342.17 236.22C332.18 235.02 323.74 227.67 318.15 207.24C312.55 186.81 301.03 191.25 290.7 188.34C280.38 185.43 278.09 184.16 271.45 169.89C264.81 155.62 252.8 158.12 240.41 160.99C228.02 163.87 193.25 135.6 193.25 135.6C193.25 135.6 190.61 154.6 207.47 172.39C224.33 190.18 203.34 189.82 213.69 210.07C224.03 230.32 241.08 223.41 238.45 240.35C235.83 257.29 238.22 271.23 261.12 282.94C284.02 294.66 270.88 313.99 285.29 326.08C299.69 338.16 311.82 320.87 318.7 336.43C325.58 351.99 325.02 360.73 341.53 358.44C358.04 356.15 358.37 378.29 379.7 379.11C380.49 379.14 381.32 379.14 382.2 379.12C406.44 378.47 423.93 354.73 417.46 330.6C415.99 325.11 413.58 320.63 409.79 318.44C394.61 309.69 395.87 307.91 401.48 293.08C407.08 278.25 387.44 265.31 377.45 264.1Z" fill="#7A7AB9"/>
<path id="Vector_6" d="M297.43 211.43C293.81 218.48 291.15 225.96 289.52 233.75C282.83 226.42 275.97 219.24 268.84 212.31C266.35 209.89 263.84 207.5 261.32 205.11C261.32 204.98 261.3 204.84 261.24 204.68C258.58 197.72 257.08 190.44 256.85 182.98C256.8 181.43 254.46 181.38 254.5 182.94C254.7 189.36 255.78 195.67 257.74 201.76C241.64 186.8 224.91 172.58 208.19 158.37C207.03 157.39 205.35 159.05 206.52 160.05C222.51 173.64 238.51 187.25 253.96 201.49C247.44 201.44 240.98 202.35 234.73 204.24C233.28 204.68 233.86 207.02 235.31 206.59C242.13 204.53 249.15 203.65 256.27 203.96C256.39 203.97 256.49 203.95 256.59 203.93C257.85 205.1 259.1 206.27 260.35 207.45C270.15 216.7 279.57 226.32 288.68 236.24C280.35 237.9 272.21 240.27 264.29 243.37C262.9 243.91 263.46 246.27 264.87 245.72C273.21 242.46 281.8 239.99 290.59 238.33C296.93 245.29 303.13 252.4 309.2 259.65C315.8 267.52 322.28 275.49 328.75 283.48C320.41 284.25 312.15 285.59 304 287.52C302.53 287.87 303.11 290.21 304.58 289.87C312.94 287.89 321.41 286.52 329.96 285.78C330.16 285.76 330.33 285.7 330.48 285.61C338.42 295.42 346.35 305.25 354.45 314.93C355.98 316.76 357.53 318.59 359.08 320.41C352.51 321.51 346.15 323.45 340.05 326.18C338.67 326.8 339.82 328.91 341.19 328.3C347.37 325.54 353.84 323.65 360.51 322.6C360.65 322.58 360.76 322.53 360.87 322.48C373.88 337.62 381.74 346.68 396.27 360.33C413.78 376.78 395.12 356.19 387.33 348.17C378.96 339.56 370.93 330.61 363.1 321.48C363.07 321.44 363.04 321.41 363.01 321.37C365.7 313.43 369.08 305.8 373.12 298.51C373.86 297.17 371.84 295.93 371.09 297.28C367.19 304.32 363.92 311.68 361.24 319.3C351.15 307.46 341.34 295.37 331.52 283.3C334.47 274.9 337.41 266.49 340.36 258.09C340.87 256.63 338.6 255.99 338.09 257.44C335.32 265.35 332.55 273.26 329.77 281.17C317.28 265.84 304.73 250.57 291.5 235.93C293.06 227.8 295.72 220 299.48 212.68C300.16 211.3 298.14 210.06 297.43 211.43Z" fill="#692471"/>
<path id="Vector_7" d="M226.59 198.85C227.65 198.62 228.7 198.4 229.76 198.17C230.69 197.97 231.44 197.27 231.35 196.21C231.27 195.33 230.37 194.36 229.43 194.56C228.37 194.79 227.31 195.02 226.26 195.24C225.33 195.44 224.58 196.14 224.67 197.2C224.76 198.08 225.66 199.05 226.59 198.85Z" fill="#692471"/>
<path id="Vector_8" d="M225.26 189.08C226.24 189.62 227.23 190.16 228.22 190.7C229.06 191.16 230.18 190.66 230.54 189.81C230.95 188.87 230.49 187.87 229.65 187.41C228.67 186.87 227.68 186.33 226.69 185.79C225.85 185.33 224.73 185.84 224.37 186.69C223.96 187.62 224.41 188.62 225.26 189.08Z" fill="#692471"/>
<path id="Vector_9" d="M224.86 208.82L228.5 208.05C229.43 207.85 230.18 207.15 230.09 206.09C230.01 205.2 229.11 204.24 228.17 204.44L224.53 205.21C223.6 205.41 222.85 206.11 222.94 207.17C223.03 208.05 223.93 209.02 224.86 208.82Z" fill="#692471"/>
<path id="Vector_10" d="M243.06 178.25C243.71 178.95 244.37 179.64 245.02 180.34C245.66 181.03 246.98 180.81 247.49 180.09C248.11 179.23 247.92 178.28 247.23 177.54C246.58 176.84 245.92 176.15 245.27 175.45C244.62 174.77 243.31 174.98 242.79 175.7C242.17 176.56 242.37 177.52 243.06 178.25Z" fill="#692471"/>
<path id="Vector_11" d="M253.59 172.62C253.69 172.85 253.78 173.08 253.86 173.32C253.9 173.44 253.93 173.56 253.96 173.68C253.94 173.55 253.94 173.55 253.96 173.68C254 173.89 254.03 174.11 254.05 174.33C254.06 174.4 254.07 175.04 254.08 174.8C254.04 175.74 254.51 176.76 255.53 176.9C256.38 177.01 257.51 176.44 257.55 175.42C257.6 174.03 257.44 172.69 256.89 171.4C256.52 170.53 255.55 169.92 254.63 170.31C253.8 170.65 253.18 171.69 253.59 172.62Z" fill="#692471"/>
<path id="Vector_12" d="M262.69 177.58C262.11 178.63 261.53 179.68 260.96 180.73C260.49 181.58 261.04 182.75 261.85 183.13C262.78 183.57 263.7 183.09 264.17 182.23C264.75 181.18 265.32 180.13 265.9 179.08C266.37 178.23 265.82 177.06 265.01 176.68C264.08 176.24 263.15 176.73 262.69 177.58Z" fill="#692471"/>
<path id="Vector_13" d="M260.51 259.03C261.04 257.92 261.58 256.81 262.11 255.69C262.53 254.82 262.07 253.69 261.22 253.29C260.33 252.87 259.32 253.31 258.9 254.19L257.3 257.53C256.88 258.41 257.35 259.54 258.19 259.93C259.08 260.35 260.09 259.91 260.51 259.03Z" fill="#692471"/>
<path id="Vector_14" d="M252.94 250.13C254.13 249.71 255.32 249.29 256.51 248.88C258.65 248.13 257.43 244.72 255.29 245.47C254.1 245.89 252.91 246.31 251.73 246.73C249.58 247.47 250.81 250.88 252.94 250.13Z" fill="#692471"/>
<path id="Vector_15" d="M252.9 237.55C253.81 238.39 254.94 238.92 256.13 239.15C257.04 239.32 258.04 238.64 258.15 237.67C258.27 236.68 257.67 235.76 256.7 235.57C256.62 235.56 256.03 235.38 256.4 235.52C256.21 235.45 256.02 235.37 255.84 235.28C255.75 235.23 255.66 235.18 255.57 235.13C255.74 235.25 255.75 235.24 255.58 235.13C255.42 235 255.26 234.88 255.11 234.74C254.42 234.11 253.18 234.23 252.63 234.99C252.05 235.81 252.16 236.87 252.9 237.55Z" fill="#692471"/>
<path id="Vector_16" d="M260.32 231.32C260.89 231.89 261.46 232.47 262.03 233.04C262.69 233.71 263.98 233.53 264.51 232.79C265.12 231.95 264.96 230.95 264.24 230.24C263.67 229.67 263.1 229.09 262.53 228.52C261.87 227.85 260.58 228.03 260.05 228.77C259.45 229.61 259.61 230.61 260.32 231.32Z" fill="#692471"/>
<path id="Vector_17" d="M288.9 211.27C289.6 211.66 290.3 212.05 291.01 212.43C291.83 212.88 293 212.4 293.33 211.54C293.7 210.58 293.31 209.62 292.44 209.14C291.74 208.75 291.04 208.36 290.33 207.97C289.51 207.52 288.34 208 288.01 208.87C287.64 209.83 288.03 210.79 288.9 211.27Z" fill="#692471"/>
<path id="Vector_18" d="M296.95 201.8C296.99 202.86 297.02 203.91 297.06 204.97C297.09 205.92 298.07 206.74 298.97 206.62C299.96 206.49 300.59 205.68 300.56 204.66C300.53 203.61 300.49 202.55 300.46 201.49C300.43 200.54 299.45 199.72 298.54 199.84C297.54 199.97 296.91 200.79 296.95 201.8Z" fill="#692471"/>
<path id="Vector_19" d="M307.5 206.45C306.48 207.11 305.46 207.77 304.44 208.43C303.64 208.95 303.5 210.19 304.03 210.95C304.61 211.79 305.68 211.91 306.49 211.39C307.51 210.73 308.53 210.07 309.55 209.41C310.35 208.89 310.49 207.65 309.95 206.89C309.38 206.05 308.31 205.93 307.5 206.45Z" fill="#692471"/>
<path id="Vector_20" d="M306.38 219.59C307.59 219.34 308.81 219.08 310.02 218.83C310.95 218.63 311.7 217.93 311.61 216.87C311.53 215.99 310.63 215.02 309.69 215.22L306.05 215.98C305.12 216.18 304.37 216.89 304.46 217.94C304.55 218.82 305.45 219.79 306.38 219.59Z" fill="#692471"/>
<path id="Vector_21" d="M305.39 298.39C304.79 299.54 304.2 300.69 303.6 301.85C303.16 302.71 303.66 303.86 304.49 304.25C305.41 304.68 306.37 304.22 306.81 303.35C307.41 302.2 308 301.05 308.6 299.9C309.05 299.04 308.53 297.88 307.71 297.5C306.8 297.06 305.84 297.52 305.39 298.39Z" fill="#692471"/>
<path id="Vector_22" d="M293.59 296.8C292.22 298.34 290.85 299.87 289.47 301.41C287.94 303.12 290.68 305.42 292.21 303.71C293.58 302.17 294.95 300.64 296.32 299.1C297.86 297.4 295.12 295.1 293.59 296.8Z" fill="#692471"/>
<path id="Vector_23" d="M287.91 291.35C289.58 291.1 291.24 290.85 292.9 290.61C295.13 290.28 294.82 286.67 292.57 287C290.9 287.25 289.24 287.5 287.58 287.74C285.35 288.07 285.67 291.68 287.91 291.35Z" fill="#692471"/>
<path id="Vector_24" d="M291.07 278.08L293.48 279.3C294.31 279.72 295.46 279.29 295.8 278.4C296.16 277.47 295.8 276.45 294.91 276C294.11 275.59 293.31 275.19 292.5 274.78C291.67 274.36 290.52 274.79 290.18 275.67C289.82 276.6 290.18 277.63 291.07 278.08Z" fill="#692471"/>
<path id="Vector_25" d="M302.84 274.03C303.63 275.17 304.41 276.31 305.2 277.44C306.52 279.35 309.38 277.26 308.06 275.35C307.27 274.21 306.49 273.07 305.7 271.94C304.38 270.04 301.52 272.13 302.84 274.03Z" fill="#692471"/>
<path id="Vector_26" d="M326.39 260.17C327.3 260.86 328.2 261.55 329.11 262.24C329.88 262.82 330.96 262.77 331.58 261.99C332.16 261.26 332.09 260.03 331.32 259.44C330.41 258.75 329.5 258.06 328.6 257.37C327.83 256.79 326.74 256.84 326.12 257.62C325.55 258.35 325.62 259.58 326.39 260.17Z" fill="#692471"/>
<path id="Vector_27" d="M328.54 244.48C329.62 246.04 330.69 247.59 331.77 249.15C333.09 251.06 335.95 248.97 334.63 247.06C333.55 245.5 332.48 243.95 331.4 242.39C330.08 240.48 327.21 242.56 328.54 244.48Z" fill="#692471"/>
<path id="Vector_28" d="M343.29 246.14C342.4 247.87 341.51 249.6 340.62 251.33C339.56 253.38 342.78 254.88 343.83 252.84C344.72 251.11 345.61 249.38 346.5 247.65C347.56 245.6 344.34 244.09 343.29 246.14Z" fill="#692471"/>
<path id="Vector_29" d="M353.28 255.27C351.89 256.28 350.51 257.29 349.12 258.3C347.28 259.64 349.33 262.61 351.17 261.26C352.56 260.25 353.94 259.24 355.33 258.23C357.18 256.89 355.13 253.93 353.28 255.27Z" fill="#692471"/>
<path id="Vector_30" d="M354.79 266.42C352.34 267.17 350.04 268.29 347.9 269.73C346.01 271 348.06 273.96 349.95 272.69C351.84 271.43 353.84 270.5 356 269.83C358.18 269.16 356.95 265.75 354.79 266.42Z" fill="#692471"/>
<path id="Vector_31" d="M344.76 337.67C344.44 339.5 344.12 341.33 343.8 343.16C343.4 345.46 346.87 346.07 347.27 343.78C347.59 341.95 347.91 340.12 348.23 338.29C348.63 336 345.16 335.38 344.76 337.67Z" fill="#692471"/>
<path id="Vector_32" d="M336.52 341.72C337.55 340.58 338.57 339.44 339.6 338.29C340.24 337.58 340.04 336.34 339.34 335.74C338.56 335.09 337.51 335.27 336.87 335.99C335.84 337.13 334.81 338.28 333.79 339.42C333.15 340.13 333.35 341.38 334.05 341.97C334.82 342.62 335.88 342.43 336.52 341.72Z" fill="#692471"/>
<path id="Vector_33" d="M325.69 334.46C326.85 333.62 328 332.77 329.16 331.93C331 330.59 328.95 327.62 327.11 328.97C325.95 329.81 324.8 330.66 323.65 331.5C321.8 332.84 323.85 335.81 325.69 334.46Z" fill="#692471"/>
<path id="Vector_34" d="M328.24 319.24C329.47 319.51 330.7 319.78 331.93 320.06C332.83 320.26 333.84 319.53 333.95 318.58C334.07 317.57 333.46 316.7 332.5 316.49C331.27 316.22 330.04 315.94 328.81 315.67C327.91 315.47 326.9 316.2 326.79 317.15C326.67 318.16 327.28 319.03 328.24 319.24Z" fill="#692471"/>
<path id="Vector_35" d="M338.79 315.7C339.58 316.47 340.38 317.24 341.17 318.02C341.87 318.69 343.08 318.49 343.65 317.77C344.28 316.97 344.08 315.9 343.39 315.22C342.6 314.45 341.8 313.68 341.01 312.9C340.31 312.23 339.1 312.43 338.53 313.15C337.9 313.95 338.1 315.02 338.79 315.7Z" fill="#692471"/>
<path id="Vector_36" d="M357.55 299.47C358.05 300.82 358.55 302.17 359.04 303.52C359.85 305.71 363.15 304.48 362.34 302.3C361.84 300.95 361.35 299.6 360.85 298.25C360.04 296.06 356.74 297.29 357.55 299.47Z" fill="#692471"/>
<path id="Vector_37" d="M362.91 289.89C363.55 291.23 364 292.61 364.21 294.09C364.53 296.4 368.03 296.1 367.72 293.79C367.47 292.01 366.99 290.29 366.22 288.67C365.8 287.79 364.92 287.22 363.96 287.57C363.14 287.88 362.49 289 362.91 289.89Z" fill="#692471"/>
<path id="Vector_38" d="M374.27 283.93C373.85 285.86 373.11 287.67 372.14 289.37C371.66 290.21 372.23 291.4 373.03 291.77C373.98 292.21 374.87 291.72 375.35 290.87C376.48 288.9 377.25 286.78 377.74 284.55C378.24 282.28 374.77 281.67 374.27 283.93Z" fill="#692471"/>
<path id="Vector_39" d="M383.25 289.98C381.79 291.4 380.34 292.81 378.89 294.23C378.2 294.9 378.49 296.21 379.15 296.78C379.96 297.48 380.94 297.2 381.62 296.53C383.07 295.11 384.53 293.7 385.98 292.28C386.67 291.61 386.38 290.3 385.72 289.73C384.92 289.04 383.94 289.31 383.25 289.98Z" fill="#692471"/>
<path id="Vector_40" d="M383.31 302.34C379.92 303.73 376.54 305.12 373.16 306.51C371.06 307.37 372.28 310.78 374.38 309.92C377.76 308.53 381.15 307.14 384.53 305.75C386.62 304.89 385.41 301.48 383.31 302.34Z" fill="#692471"/>
<path id="Vector_41" d="M376.26 314.46C374.99 315.39 373.72 316.32 372.45 317.24C370.61 318.58 372.66 321.55 374.5 320.2C375.77 319.27 377.04 318.35 378.31 317.42C380.15 316.08 378.1 313.12 376.26 314.46Z" fill="#692471"/>
<path id="Vector_42" d="M186.94 448.05C180.37 453.21 177.08 456.68 169.28 449.06C161.48 441.44 156.41 447.23 149.83 452.39C143.26 457.55 133.98 458.19 118.69 449.48C103.4 440.77 99.23 450.14 91.46 454.5C83.69 458.86 81.6 459.46 69.31 454.97C57.03 450.49 51.44 459.01 45.85 467.98C40.26 476.95 3.22998 480.77 3.22998 480.77C3.22998 480.77 12.84 493.48 33.19 494.03C53.54 494.57 41 506.69 58.98 512.51C76.95 518.33 82.9 504.26 91.31 515.75C99.72 527.24 109.31 534.02 129.65 527.45C149.99 520.88 153.63 539.96 169.19 538.59C184.75 537.23 181.72 519.95 194.9 525.05C208.08 530.15 212.89 535.61 221.24 524.57C229.59 513.53 242.79 526.34 255.81 514.29C256.29 513.85 256.78 513.36 257.28 512.83C271.14 498.21 267.46 473.99 249.49 463.61C245.4 461.25 241.36 460.03 237.84 460.97C223.78 464.74 223.48 462.96 218.06 450.95C212.65 438.96 193.51 442.89 186.94 448.05Z" fill="#7A7AB9"/>
<path id="Vector_43" d="M108.98 464.12C110.99 470.39 113.83 476.35 117.45 481.88C109.21 481.5 100.97 481.32 92.71 481.44C89.83 481.48 86.95 481.55 84.06 481.63C83.98 481.55 83.89 481.48 83.76 481.43C78.11 478.91 72.95 475.51 68.43 471.26C67.49 470.38 66.09 471.73 67.03 472.62C70.92 476.27 75.27 479.35 79.99 481.77C61.75 482.44 43.56 483.91 25.39 485.38C24.13 485.48 24.13 487.45 25.4 487.35C42.78 485.94 60.17 484.53 77.62 483.83C73.76 487.63 70.5 491.96 67.94 496.74C67.35 497.84 69.06 498.89 69.66 497.78C72.46 492.56 76.07 487.92 80.43 483.92C80.5 483.85 80.55 483.78 80.6 483.71C82.03 483.66 83.45 483.61 84.88 483.57C96.07 483.25 107.25 483.37 118.44 483.84C114.52 489.71 111.13 495.89 108.3 502.36C107.8 503.5 109.51 504.55 110.02 503.4C113.01 496.58 116.6 490.09 120.79 483.95C128.61 484.32 136.42 484.85 144.25 485.54C152.75 486.29 161.24 487.16 169.73 488.05C165.29 493.4 161.22 499.04 157.56 504.96C156.9 506.03 158.62 507.06 159.28 506C163.02 499.93 167.19 494.15 171.79 488.69C171.9 488.56 171.96 488.43 172 488.29C182.43 489.39 192.86 490.5 203.31 491.43C205.29 491.6 207.27 491.77 209.25 491.93C206.04 496.44 203.44 501.31 201.46 506.5C201.01 507.67 202.93 508.24 203.38 507.08C205.39 501.83 208.08 496.92 211.38 492.38C211.45 492.29 211.49 492.19 211.52 492.1C228.06 493.35 238 494.06 254.55 493.54C274.5 492.92 251.44 491.78 242.15 491.65C232.17 491.51 222.2 490.97 212.23 490.2C212.19 490.2 212.15 490.19 212.11 490.19C209.03 483.95 206.53 477.48 204.62 470.82C204.27 469.59 202.35 470.06 202.71 471.29C204.56 477.71 206.95 483.96 209.86 490.01C196.97 488.98 184.11 487.64 171.25 486.32C168.04 479.65 164.84 472.98 161.63 466.31C161.07 465.15 159.36 466.11 159.92 467.26C162.94 473.54 165.96 479.81 168.97 486.08C152.63 484.41 136.28 482.81 119.91 481.98C116.05 476.29 113.03 470.14 110.94 463.63C110.51 462.44 108.59 462.9 108.98 464.12Z" fill="#692471"/>
<path id="Vector_44" d="M59.97 498.34C60.46 497.58 60.94 496.83 61.43 496.07C61.86 495.41 61.89 494.55 61.21 493.99C60.64 493.52 59.54 493.48 59.11 494.14C58.62 494.9 58.14 495.65 57.65 496.4C57.22 497.06 57.19 497.92 57.87 498.48C58.44 498.97 59.54 499.01 59.97 498.34Z" fill="#692471"/>
<path id="Vector_45" d="M53.45 493.39C54.35 493.13 55.24 492.87 56.14 492.6C56.91 492.38 57.26 491.43 56.98 490.71C56.67 489.92 55.81 489.6 55.05 489.82C54.15 490.08 53.26 490.34 52.36 490.6C51.6 490.82 51.24 491.77 51.52 492.49C51.83 493.29 52.68 493.61 53.45 493.39Z" fill="#692471"/>
<path id="Vector_46" d="M64.82 505.22L66.5 502.63C66.93 501.97 66.96 501.11 66.28 500.55C65.71 500.08 64.61 500.04 64.18 500.71L62.5 503.3C62.07 503.96 62.04 504.82 62.72 505.38C63.29 505.84 64.39 505.88 64.82 505.22Z" fill="#692471"/>
<path id="Vector_47" d="M57.55 476.57C58.34 476.59 59.13 476.62 59.93 476.64C60.71 476.66 61.35 475.77 61.24 475.04C61.1 474.17 60.43 473.72 59.59 473.7C58.8 473.68 58.01 473.65 57.21 473.62C56.43 473.6 55.78 474.49 55.9 475.22C56.04 476.1 56.71 476.54 57.55 476.57Z" fill="#692471"/>
<path id="Vector_48" d="M60.42 467.07C60.61 467.15 60.8 467.23 60.99 467.32C61.08 467.37 61.17 467.42 61.26 467.47C61.17 467.41 61.17 467.41 61.26 467.47C61.41 467.57 61.55 467.68 61.69 467.8C61.73 467.84 62.12 468.2 61.99 468.06C62.52 468.63 63.39 468.96 64.07 468.44C64.64 468.01 64.96 467 64.39 466.38C63.61 465.53 62.72 464.84 61.64 464.41C60.91 464.12 59.98 464.33 59.67 465.09C59.39 465.79 59.64 466.76 60.42 467.07Z" fill="#692471"/>
<path id="Vector_49" d="M68.68 464.64C68.96 465.6 69.24 466.55 69.51 467.51C69.73 468.28 70.74 468.65 71.44 468.4C72.25 468.11 72.51 467.29 72.28 466.51C72 465.56 71.72 464.6 71.45 463.64C71.23 462.87 70.22 462.5 69.52 462.75C68.72 463.04 68.46 463.87 68.68 464.64Z" fill="#692471"/>
<path id="Vector_50" d="M115.26 513.77C114.92 512.8 114.58 511.84 114.24 510.87C113.97 510.11 113.03 509.72 112.31 509.99C111.54 510.27 111.2 511.12 111.47 511.88L112.49 514.78C112.76 515.54 113.7 515.93 114.42 515.67C115.19 515.39 115.53 514.54 115.26 513.77Z" fill="#692471"/>
<path id="Vector_51" d="M105.58 512.99C106.03 512.05 106.48 511.1 106.94 510.16C107.76 508.46 105.04 507.18 104.22 508.87C103.77 509.81 103.32 510.76 102.86 511.7C102.04 513.4 104.77 514.68 105.58 512.99Z" fill="#692471"/>
<path id="Vector_52" d="M98.17 505.63C99.19 505.59 100.17 505.24 101.01 504.68C101.65 504.25 101.83 503.26 101.33 502.63C100.82 501.98 99.93 501.79 99.25 502.25C99.2 502.29 98.75 502.53 99.04 502.39C98.89 502.46 98.73 502.53 98.57 502.58C98.49 502.61 98.41 502.63 98.33 502.65C98.5 502.62 98.5 502.61 98.33 502.65C98.16 502.67 98 502.69 97.83 502.69C97.05 502.73 96.4 503.52 96.52 504.29C96.64 505.1 97.33 505.66 98.17 505.63Z" fill="#692471"/>
<path id="Vector_53" d="M98.87 497.61C99.54 497.61 100.22 497.61 100.89 497.62C101.67 497.62 102.32 496.76 102.2 496.02C102.06 495.17 101.38 494.68 100.55 494.68C99.88 494.68 99.2 494.68 98.53 494.67C97.75 494.67 97.1 495.53 97.22 496.27C97.35 497.11 98.03 497.6 98.87 497.61Z" fill="#692471"/>
<path id="Vector_54" d="M103.88 469.04C104.52 468.86 105.16 468.67 105.8 468.48C106.54 468.27 106.95 467.3 106.64 466.59C106.29 465.81 105.5 465.47 104.71 465.7C104.07 465.88 103.43 466.07 102.79 466.25C102.04 466.47 101.64 467.44 101.95 468.14C102.29 468.93 103.09 469.27 103.88 469.04Z" fill="#692471"/>
<path id="Vector_55" d="M103.04 458.74C103.68 459.34 104.32 459.94 104.96 460.54C105.53 461.08 106.6 460.99 107.06 460.39C107.57 459.73 107.46 458.88 106.84 458.31C106.2 457.71 105.56 457.11 104.92 456.51C104.34 455.97 103.28 456.06 102.82 456.67C102.32 457.32 102.43 458.17 103.04 458.74Z" fill="#692471"/>
<path id="Vector_56" d="M111.97 455.28C111.76 456.27 111.55 457.26 111.33 458.24C111.16 459.02 111.81 459.82 112.57 459.96C113.4 460.11 114.1 459.55 114.27 458.77C114.48 457.78 114.69 456.79 114.91 455.81C115.08 455.03 114.43 454.23 113.66 454.09C112.84 453.94 112.14 454.5 111.97 455.28Z" fill="#692471"/>
<path id="Vector_57" d="M119.04 463.65C119.6 462.79 120.17 461.92 120.73 461.06C121.16 460.4 121.19 459.54 120.51 458.98C119.94 458.51 118.85 458.47 118.41 459.13L116.72 461.72C116.29 462.38 116.26 463.24 116.94 463.8C117.51 464.28 118.6 464.32 119.04 463.65Z" fill="#692471"/>
<path id="Vector_58" d="M164.75 510.53C165.08 511.56 165.4 512.58 165.73 513.61C165.98 514.38 166.95 514.76 167.66 514.5C168.45 514.21 168.74 513.38 168.5 512.61C168.17 511.58 167.85 510.56 167.52 509.53C167.28 508.76 166.3 508.38 165.59 508.64C164.8 508.92 164.5 509.76 164.75 510.53Z" fill="#692471"/>
<path id="Vector_59" d="M156.88 516.53C156.98 518.24 157.07 519.95 157.17 521.65C157.28 523.55 160.24 523.29 160.13 521.39C160.03 519.68 159.94 517.97 159.84 516.27C159.74 514.37 156.78 514.63 156.88 516.53Z" fill="#692471"/>
<path id="Vector_60" d="M150.34 516.66C151.17 515.54 152 514.41 152.84 513.29C153.96 511.78 151.65 509.85 150.53 511.36C149.7 512.48 148.86 513.61 148.03 514.73C146.9 516.24 149.21 518.17 150.34 516.66Z" fill="#692471"/>
<path id="Vector_61" d="M144.4 507.01L146.53 506.31C147.26 506.07 147.69 505.14 147.37 504.42C147.03 503.66 146.22 503.27 145.44 503.53C144.73 503.76 144.02 504 143.31 504.23C142.57 504.47 142.15 505.4 142.47 506.12C142.8 506.88 143.61 507.27 144.4 507.01Z" fill="#692471"/>
<path id="Vector_62" d="M148.94 497.72C150.07 497.93 151.2 498.13 152.33 498.34C154.23 498.69 154.68 495.78 152.79 495.44C151.66 495.23 150.53 495.03 149.4 494.82C147.5 494.47 147.04 497.37 148.94 497.72Z" fill="#692471"/>
<path id="Vector_63" d="M154.63 475.74C155.57 475.61 156.51 475.48 157.45 475.36C158.24 475.25 158.85 474.58 158.76 473.76C158.67 472.99 157.9 472.31 157.11 472.41C156.17 472.54 155.23 472.67 154.29 472.79C153.49 472.9 152.89 473.57 152.98 474.39C153.06 475.16 153.83 475.85 154.63 475.74Z" fill="#692471"/>
<path id="Vector_64" d="M146.67 465.26C148.22 465.54 149.76 465.82 151.31 466.1C153.21 466.45 153.66 463.54 151.76 463.2C150.21 462.92 148.67 462.64 147.12 462.36C145.23 462.01 144.77 464.91 146.67 465.26Z" fill="#692471"/>
<path id="Vector_65" d="M156.32 457.57C156.81 459.11 157.31 460.65 157.8 462.19C158.38 464.02 161.16 463.01 160.57 461.19C160.08 459.65 159.58 458.11 159.09 456.57C158.5 454.74 155.73 455.75 156.32 457.57Z" fill="#692471"/>
<path id="Vector_66" d="M167.55 457.06C167.33 458.47 167.11 459.88 166.89 461.29C166.6 463.16 169.54 463.7 169.83 461.83C170.05 460.42 170.27 459.01 170.49 457.61C170.79 455.73 167.84 455.19 167.55 457.06Z" fill="#692471"/>
<path id="Vector_67" d="M174.98 462.72C173.98 464.6 173.29 466.61 172.88 468.71C172.51 470.57 175.46 471.1 175.82 469.25C176.19 467.4 176.82 465.67 177.7 464.01C178.59 462.35 175.86 461.07 174.98 462.72Z" fill="#692471"/>
<path id="Vector_68" d="M210.95 510.48C211.84 511.74 212.73 513.01 213.61 514.27C214.72 515.85 217.13 514.18 216.01 512.6C215.12 511.34 214.23 510.07 213.35 508.81C212.24 507.22 209.84 508.9 210.95 510.48Z" fill="#692471"/>
<path id="Vector_69" d="M208.49 517.69C208.42 516.42 208.35 515.14 208.29 513.86C208.25 513.06 207.4 512.45 206.64 512.52C205.8 512.59 205.29 513.32 205.33 514.12C205.4 515.4 205.47 516.67 205.54 517.95C205.58 518.75 206.43 519.36 207.19 519.29C208.02 519.22 208.53 518.49 208.49 517.69Z" fill="#692471"/>
<path id="Vector_70" d="M197.86 519.79C198.04 518.62 198.23 517.44 198.41 516.27C198.7 514.4 195.76 513.86 195.47 515.73C195.29 516.9 195.1 518.08 194.92 519.25C194.62 521.13 197.57 521.66 197.86 519.79Z" fill="#692471"/>
<path id="Vector_71" d="M190.42 509.36C191.3 508.8 192.19 508.23 193.07 507.67C193.72 507.26 193.88 506.24 193.39 505.62C192.87 504.96 192 504.8 191.31 505.24C190.43 505.8 189.54 506.37 188.66 506.93C188.01 507.34 187.85 508.36 188.34 508.98C188.86 509.64 189.73 509.8 190.42 509.36Z" fill="#692471"/>
<path id="Vector_72" d="M194.54 501.07C195.46 501.06 196.38 501.04 197.3 501.03C198.11 501.02 198.7 500.18 198.61 499.43C198.51 498.59 197.76 498.07 196.96 498.09C196.04 498.1 195.12 498.12 194.2 498.13C193.39 498.14 192.8 498.98 192.89 499.73C192.98 500.57 193.73 501.09 194.54 501.07Z" fill="#692471"/>
<path id="Vector_73" d="M196.02 480.52C197.1 481.02 198.19 481.52 199.27 482.02C201.03 482.83 202.25 480.17 200.49 479.36C199.4 478.86 198.32 478.36 197.23 477.86C195.49 477.06 194.27 479.71 196.02 480.52Z" fill="#692471"/>
<path id="Vector_74" d="M193.54 471.74C194.7 472.15 195.78 472.7 196.77 473.44C198.31 474.61 200.2 472.38 198.65 471.2C197.46 470.3 196.17 469.57 194.76 469.08C194 468.81 193.14 468.99 192.79 469.76C192.49 470.43 192.77 471.47 193.54 471.74Z" fill="#692471"/>
<path id="Vector_75" d="M196.72 461.57C197.61 462.95 198.23 464.44 198.66 466.02C198.87 466.8 199.91 467.16 200.59 466.91C201.41 466.61 201.64 465.8 201.43 465.02C200.94 463.2 200.14 461.5 199.12 459.9C198.08 458.27 195.68 459.95 196.72 461.57Z" fill="#692471"/>
<path id="Vector_76" d="M205.55 459.85C205.53 461.54 205.5 463.22 205.48 464.91C205.47 465.71 206.41 466.31 207.13 466.25C208.01 466.18 208.43 465.45 208.44 464.65C208.46 462.96 208.48 461.28 208.51 459.59C208.52 458.79 207.58 458.19 206.86 458.24C205.97 458.31 205.56 459.05 205.55 459.85Z" fill="#692471"/>
<path id="Vector_77" d="M212.84 467.07C211.67 469.87 210.5 472.68 209.32 475.48C208.59 477.22 211.31 478.51 212.04 476.77C213.21 473.96 214.38 471.16 215.55 468.36C216.29 466.63 213.57 465.34 212.84 467.07Z" fill="#692471"/>
<path id="Vector_78" d="M215.82 478.34C215.62 479.63 215.42 480.92 215.22 482.21C214.93 484.08 217.87 484.62 218.16 482.75C218.36 481.46 218.56 480.17 218.77 478.88C219.06 477.01 216.11 476.47 215.82 478.34Z" fill="#692471"/>
<path id="Vector_79" d="M534.26 248.01C526.05 239.71 520.62 235.7 531.39 223.86C542.16 212.03 533.12 205.88 524.91 197.59C516.7 189.29 515.03 176.62 526.84 154.33C538.65 132.04 524.34 127.66 517.24 117.6C510.14 107.54 509.09 104.74 514.82 87.19C520.55 69.64 507.41 63.18 493.59 56.79C479.78 50.39 471.2 0 471.2 0C471.2 0 452.98 15.06 453.75 43.14C454.52 71.23 435.46 55.72 428.18 81.29C420.89 106.86 442.34 113.02 425.85 126.25C409.36 139.48 399.99 153.66 411.36 180.69C422.74 207.72 394.57 215.49 397.8 236.7C401.04 257.91 426.58 251.24 419.99 270.11C413.41 288.99 405.63 296.38 422.75 306.28C439.87 316.18 421.79 336.19 440.77 352.36C441.47 352.96 442.24 353.56 443.07 354.18C465.95 371.14 501.8 362.58 515.89 336.35C519.09 330.38 520.6 324.64 518.92 319.94C512.2 301.14 524.06 321.42 541.55 312.23C559.04 303.03 542.47 256.31 534.26 248.01Z" fill="#EA5A78"/>
<path id="Vector_80" d="M504.25 143.08C495.06 146.76 486.39 151.52 478.41 157.3C478.33 145.91 477.96 134.54 477.15 123.19C476.87 119.23 476.54 115.28 476.19 111.32C476.3 111.2 476.4 111.06 476.47 110.88C479.8 102.74 484.47 95.1501 490.45 88.3201C491.69 86.9001 489.57 85.1601 488.32 86.5901C483.17 92.4701 478.92 98.8901 475.67 105.74C473.26 80.7401 469.65 55.9301 466.05 31.1401C465.8 29.4301 462.86 29.7001 463.11 31.4301C466.56 55.1401 470 78.8601 472.41 102.77C466.45 98.0101 459.73 94.1501 452.4 91.3101C450.71 90.6501 449.29 93.1701 450.98 93.8201C458.98 96.9201 466.18 101.21 472.49 106.64C472.59 106.73 472.7 106.79 472.81 106.84C473 108.79 473.18 110.75 473.35 112.71C474.7 128.06 475.39 143.47 475.55 158.92C466.5 154.38 457.02 150.61 447.14 147.64C445.4 147.12 443.97 149.63 445.72 150.15C456.12 153.27 466.08 157.28 475.57 162.15C475.63 172.96 475.44 183.79 475.01 194.66C474.56 206.46 473.91 218.27 473.23 230.08C464.9 224.74 456.18 219.96 447.06 215.79C445.41 215.04 444 217.55 445.64 218.3C454.99 222.58 463.94 227.48 472.43 233.01C472.63 233.14 472.84 233.21 473.05 233.24C472.22 247.75 471.37 262.26 470.79 276.77C470.68 279.52 470.59 282.27 470.51 285.01C463.54 281.24 456.06 278.37 448.17 276.4C446.38 275.95 445.69 278.68 447.46 279.12C455.45 281.12 462.98 284.11 470 288.01C470.14 288.09 470.29 288.13 470.43 288.16C469.85 311.09 469.57 324.88 471.62 347.58C474.1 374.94 474.01 343.05 473.48 330.25C472.91 316.51 472.95 302.7 473.32 288.88C473.32 288.83 473.32 288.77 473.32 288.72C482.4 283.58 491.85 279.2 501.63 275.61C503.43 274.95 502.59 272.38 500.78 273.04C491.34 276.51 482.21 280.71 473.41 285.58C473.95 267.7 474.95 249.81 475.92 231.92C485.62 226.54 495.32 221.17 505.02 215.79C506.7 214.86 505.15 212.64 503.47 213.57C494.35 218.63 485.22 223.69 476.09 228.75C477.31 206.02 478.43 183.31 478.4 160.65C486.59 154.51 495.52 149.48 505.08 145.66C506.89 144.93 506.05 142.36 504.25 143.08Z" fill="#692471"/>
<path id="Vector_81" d="M449.41 80.5901C450.57 81.1501 451.73 81.7101 452.9 82.2801C453.92 82.7701 455.2 82.6901 455.99 81.6801C456.65 80.8301 456.63 79.3101 455.6 78.8201C454.44 78.2601 453.27 77.7001 452.11 77.1301C451.09 76.6401 449.81 76.7201 449.02 77.7301C448.36 78.5801 448.38 80.1001 449.41 80.5901Z" fill="#692471"/>
<path id="Vector_82" d="M456.29 70.8999C456.75 72.0999 457.21 73.2899 457.67 74.4899C458.06 75.5099 459.51 75.8699 460.56 75.3699C461.71 74.8299 462.13 73.5999 461.73 72.5799C461.27 71.3799 460.81 70.1899 460.35 68.9899C459.96 67.9699 458.51 67.6199 457.46 68.1099C456.32 68.6599 455.9 69.8799 456.29 70.8999Z" fill="#692471"/>
<path id="Vector_83" d="M439.53 88.25L443.53 90.19C444.55 90.69 445.83 90.6 446.62 89.59C447.28 88.74 447.25 87.22 446.23 86.73L442.23 84.79C441.21 84.29 439.93 84.38 439.14 85.39C438.48 86.24 438.51 87.75 439.53 88.25Z" fill="#692471"/>
<path id="Vector_84" d="M481.7 74.11C481.72 75.2 481.75 76.3 481.77 77.39C481.79 78.47 483.18 79.22 484.26 78.96C485.55 78.64 486.16 77.65 486.14 76.49C486.12 75.4 486.09 74.3 486.07 73.21C486.04 72.13 484.66 71.37 483.58 71.64C482.29 71.96 481.67 72.95 481.7 74.11Z" fill="#692471"/>
<path id="Vector_85" d="M496.09 76.6899C495.99 76.9699 495.88 77.2399 495.76 77.5099C495.7 77.6499 495.63 77.7799 495.56 77.9099C495.64 77.7799 495.64 77.7799 495.56 77.9099C495.42 78.1299 495.27 78.3399 495.1 78.5499C495.05 78.6199 494.53 79.1999 494.74 78.9899C493.92 79.8099 493.51 81.0499 494.34 81.9099C495.03 82.6299 496.55 82.9299 497.43 82.0599C498.63 80.8599 499.6 79.5499 500.16 77.9899C500.53 76.9499 500.15 75.6899 498.99 75.3799C497.91 75.0899 496.49 75.5699 496.09 76.6899Z" fill="#692471"/>
<path id="Vector_86" d="M500.35 87.71C498.94 88.23 497.54 88.75 496.14 89.27C495 89.69 494.53 91.13 494.96 92.06C495.46 93.13 496.71 93.36 497.85 92.94C499.25 92.42 500.66 91.9 502.06 91.38C503.19 90.96 503.66 89.52 503.23 88.59C502.74 87.52 501.49 87.28 500.35 87.71Z" fill="#692471"/>
<path id="Vector_87" d="M430.68 158.88C432.09 158.27 433.51 157.67 434.93 157.06C436.04 156.58 436.55 155.24 436.1 154.27C435.62 153.25 434.33 152.91 433.22 153.39L428.97 155.21C427.86 155.69 427.35 157.04 427.8 158C428.27 159.03 429.56 159.37 430.68 158.88Z" fill="#692471"/>
<path id="Vector_88" d="M431.1 145.46C432.54 145.95 433.99 146.43 435.43 146.92C438.03 147.8 439.73 143.87 437.14 142.99C435.7 142.5 434.26 142.02 432.81 141.53C430.21 140.65 428.51 144.58 431.1 145.46Z" fill="#692471"/>
<path id="Vector_89" d="M441.51 134.19C441.66 135.59 442.25 136.89 443.15 137.96C443.84 138.77 445.34 138.88 446.24 138.11C447.17 137.31 447.38 136.06 446.65 135.19C446.59 135.12 446.19 134.54 446.42 134.92C446.3 134.72 446.2 134.52 446.1 134.3C446.06 134.19 446.01 134.09 445.98 133.98C446.04 134.21 446.05 134.21 445.99 133.98C445.95 133.75 445.91 133.52 445.88 133.29C445.77 132.22 444.53 131.44 443.39 131.72C442.17 132.02 441.39 133.05 441.51 134.19Z" fill="#692471"/>
<path id="Vector_90" d="M453.52 134C453.57 134.93 453.62 135.85 453.67 136.78C453.73 137.86 455.06 138.62 456.16 138.35C457.42 138.04 458.1 137.03 458.04 135.88C457.99 134.95 457.94 134.03 457.89 133.1C457.83 132.02 456.5 131.26 455.4 131.53C454.14 131.84 453.46 132.85 453.52 134Z" fill="#692471"/>
<path id="Vector_91" d="M496.53 136.77C496.86 137.63 497.18 138.48 497.51 139.34C497.89 140.33 499.37 140.76 500.4 140.22C501.53 139.63 501.98 138.49 501.57 137.43C501.25 136.57 500.92 135.72 500.59 134.86C500.21 133.87 498.73 133.45 497.7 133.98C496.56 134.57 496.12 135.71 496.53 136.77Z" fill="#692471"/>
<path id="Vector_92" d="M511.81 134.13C510.97 135.1 510.12 136.07 509.28 137.04C508.52 137.91 508.74 139.36 509.67 139.9C510.69 140.5 511.95 140.23 512.76 139.3C513.6 138.33 514.45 137.36 515.29 136.4C516.05 135.53 515.83 134.08 514.9 133.54C513.88 132.92 512.62 133.2 511.81 134.13Z" fill="#692471"/>
<path id="Vector_93" d="M517.68 145.91C516.19 145.76 514.7 145.61 513.21 145.46C512.04 145.34 510.89 146.35 510.74 147.42C510.58 148.59 511.47 149.47 512.64 149.59C514.13 149.74 515.62 149.89 517.11 150.04C518.28 150.16 519.43 149.15 519.58 148.08C519.74 146.91 518.85 146.03 517.68 145.91Z" fill="#692471"/>
<path id="Vector_94" d="M505.73 156.84C507.06 157.49 508.39 158.14 509.72 158.79C510.74 159.29 512.02 159.2 512.81 158.19C513.47 157.34 513.44 155.83 512.42 155.33L508.43 153.38C507.41 152.89 506.13 152.97 505.34 153.98C504.67 154.83 504.71 156.34 505.73 156.84Z" fill="#692471"/>
<path id="Vector_95" d="M439.36 226.51C437.86 227.11 436.35 227.71 434.84 228.31C433.72 228.76 433.23 230.16 433.67 231.1C434.16 232.15 435.43 232.43 436.56 231.98C438.06 231.38 439.57 230.78 441.07 230.19C442.2 229.74 442.68 228.34 442.24 227.4C441.75 226.34 440.49 226.06 439.36 226.51Z" fill="#692471"/>
<path id="Vector_96" d="M429.8 216.55C427.26 216.93 424.72 217.31 422.18 217.69C419.35 218.11 419.97 222.15 422.79 221.73C425.33 221.35 427.87 220.97 430.41 220.59C433.23 220.17 432.62 216.13 429.8 216.55Z" fill="#692471"/>
<path id="Vector_97" d="M429.09 207.57C430.83 208.55 432.57 209.54 434.31 210.52C436.64 211.84 439.35 208.38 437.01 207.06C435.27 206.08 433.53 205.09 431.79 204.11C429.45 202.78 426.75 206.24 429.09 207.57Z" fill="#692471"/>
<path id="Vector_98" d="M443.03 198L444.24 200.83C444.65 201.8 446.07 202.26 447.12 201.71C448.22 201.14 448.74 199.96 448.29 198.92C447.89 197.98 447.49 197.03 447.08 196.09C446.66 195.11 445.25 194.66 444.2 195.21C443.1 195.78 442.58 196.96 443.03 198Z" fill="#692471"/>
<path id="Vector_99" d="M457.24 202.91C457.02 204.5 456.8 206.08 456.58 207.67C456.21 210.33 460.58 210.54 460.95 207.88C461.17 206.29 461.39 204.71 461.61 203.12C461.97 200.46 457.6 200.25 457.24 202.91Z" fill="#692471"/>
<path id="Vector_100" d="M490.46 207.56C490.72 208.83 490.99 210.11 491.25 211.38C491.47 212.46 492.52 213.2 493.73 212.95C494.87 212.72 495.83 211.56 495.61 210.48C495.34 209.21 495.08 207.93 494.82 206.66C494.6 205.58 493.55 204.84 492.33 205.09C491.2 205.32 490.24 206.47 490.46 207.56Z" fill="#692471"/>
<path id="Vector_101" d="M505.48 195.1C505.18 197.27 504.88 199.44 504.58 201.61C504.21 204.27 508.58 204.48 508.95 201.81C509.25 199.64 509.55 197.47 509.85 195.3C510.21 192.64 505.85 192.43 505.48 195.1Z" fill="#692471"/>
<path id="Vector_102" d="M517.69 207.26C515.43 208.16 513.17 209.06 510.92 209.97C508.24 211.04 509.96 214.71 512.63 213.64C514.89 212.74 517.14 211.84 519.4 210.94C522.08 209.86 520.36 206.19 517.69 207.26Z" fill="#692471"/>
<path id="Vector_103" d="M519.32 222.64C517.2 222.54 515.09 222.44 512.97 222.34C510.16 222.21 509.58 226.34 512.4 226.47C514.52 226.57 516.63 226.67 518.75 226.77C521.56 226.91 522.14 222.77 519.32 222.64Z" fill="#692471"/>
<path id="Vector_104" d="M511.45 233.68C508.56 232.58 505.52 231.92 502.35 231.65C499.56 231.41 498.99 235.55 501.78 235.78C504.57 236.02 507.19 236.64 509.73 237.61C512.29 238.59 513.99 234.65 511.45 233.68Z" fill="#692471"/>
<path id="Vector_105" d="M443.01 290.08C441.19 291.49 439.38 292.89 437.56 294.3C435.28 296.06 437.97 299.12 440.24 297.37C442.06 295.97 443.87 294.56 445.69 293.16C447.97 291.38 445.29 288.32 443.01 290.08Z" fill="#692471"/>
<path id="Vector_106" d="M432.06 287.73C433.95 287.45 435.85 287.18 437.75 286.9C438.94 286.73 439.78 285.47 439.63 284.43C439.46 283.28 438.33 282.69 437.14 282.86C435.24 283.14 433.35 283.42 431.45 283.7C430.26 283.87 429.42 285.12 429.57 286.17C429.74 287.31 430.87 287.9 432.06 287.73Z" fill="#692471"/>
<path id="Vector_107" d="M428.1 273.41C429.86 273.49 431.63 273.57 433.4 273.66C436.21 273.79 431.5 269.41 428.68 269.28C426.92 269.2 430.44 269.36 428.68 269.28C425.86 269.15 425.29 273.28 428.1 273.41Z" fill="#692471"/>
<path id="Vector_108" d="M443.09 261.67C444 262.81 444.91 263.94 445.82 265.07C446.49 265.9 448.02 265.98 448.91 265.21C449.85 264.4 450.02 263.18 449.31 262.29C448.4 261.16 447.49 260.02 446.58 258.89C445.91 258.06 444.38 257.98 443.49 258.74C442.55 259.56 442.38 260.78 443.09 261.67Z" fill="#692471"/>
<path id="Vector_109" d="M455.77 266.13C455.86 267.39 455.95 268.66 456.04 269.92C456.12 271.03 457.41 271.72 458.53 271.49C459.78 271.23 460.49 270.13 460.41 269.02C460.32 267.76 460.23 266.49 460.14 265.23C460.06 264.12 458.77 263.43 457.65 263.66C456.4 263.92 455.69 265.02 455.77 266.13Z" fill="#692471"/>
<path id="Vector_110" d="M486.53 265.21C485.87 266.78 485.21 268.34 484.55 269.91C483.48 272.45 487.54 273.75 488.61 271.21C489.27 269.64 489.93 268.08 490.59 266.51C491.66 263.97 487.61 262.67 486.53 265.21Z" fill="#692471"/>
<path id="Vector_111" d="M499.44 260.53C498.92 262.19 498.19 263.75 497.15 265.22C495.53 267.51 499 269.78 500.64 267.48C501.89 265.71 502.88 263.83 503.51 261.83C503.86 260.74 503.51 259.59 502.34 259.22C501.32 258.89 499.79 259.43 499.44 260.53Z" fill="#692471"/>
<path id="Vector_112" d="M514.86 263.42C512.87 264.84 510.69 265.92 508.38 266.73C507.24 267.13 506.78 268.61 507.2 269.52C507.71 270.6 508.94 270.81 510.09 270.4C512.76 269.46 515.24 268.12 517.54 266.48C519.89 264.82 517.2 261.76 514.86 263.42Z" fill="#692471"/>
<path id="Vector_113" d="M518.11 275.32C515.59 275.53 513.08 275.75 510.56 275.96C509.36 276.06 508.55 277.44 508.68 278.43C508.85 279.64 509.98 280.1 511.17 280C513.69 279.79 516.21 279.57 518.72 279.36C519.92 279.26 520.73 277.88 520.6 276.89C520.43 275.69 519.3 275.22 518.11 275.32Z" fill="#692471"/>
<path id="Vector_114" d="M507.9 286.41C503.62 285.2 499.35 284 495.08 282.79C492.44 282.04 490.72 285.97 493.37 286.72C497.65 287.93 501.92 289.13 506.19 290.34C508.83 291.08 510.55 287.15 507.9 286.41Z" fill="#692471"/>
<path id="Vector_115" d="M491.33 292.13C489.39 292.04 487.45 291.95 485.5 291.86C482.69 291.73 482.11 295.86 484.93 295.99C486.87 296.08 488.81 296.17 490.75 296.26C493.57 296.39 494.14 292.26 491.33 292.13Z" fill="#692471"/>
<path id="Vector_116" d="M241.95 468.76C234.36 477.63 230.81 483.37 218.12 473.62C205.44 463.87 200.06 473.39 192.47 482.25C184.88 491.12 172.39 493.83 149.2 483.91C126.01 473.99 122.83 488.61 113.39 496.52C103.95 504.43 101.25 505.71 83.29 501.45C65.33 497.19 59.98 510.83 54.75 525.12C49.52 539.41 0 552.13 0 552.13C0 552.13 16.52 569.04 44.44 565.95C72.37 562.86 58.49 583.13 84.58 588.27C110.67 593.42 115.02 571.53 129.57 586.87C144.12 602.21 159.03 610.38 185.03 596.8C211.03 583.22 221.1 610.65 241.97 605.67C262.84 600.68 254.08 575.79 273.43 580.78C292.78 585.77 300.8 592.92 309.25 575.04C317.7 557.16 339.14 573.52 353.68 553.27C354.22 552.52 354.76 551.71 355.3 550.83C370.3 526.63 358.81 491.61 331.5 479.74C325.29 477.04 319.44 476.02 314.9 478.08C296.72 486.33 315.94 472.84 305.34 456.17C294.73 439.51 249.54 459.89 241.95 468.76Z" fill="#EA5A78"/>
<path id="Vector_117" d="M139.86 507.35C144.28 516.2 149.75 524.45 156.17 531.92C144.83 532.94 133.52 534.25 122.28 536C118.36 536.61 114.44 537.26 110.53 537.93C110.4 537.83 110.25 537.74 110.07 537.69C101.68 535.05 93.74 531.02 86.43 525.63C84.91 524.51 83.36 526.77 84.88 527.9C91.17 532.54 97.92 536.25 105.02 538.92C80.3 543.4 55.88 549.04 31.47 554.69C29.78 555.08 30.3 557.98 32 557.59C55.34 552.19 78.7 546.79 102.32 542.41C98.07 548.75 94.78 555.76 92.56 563.3C92.05 565.04 94.67 566.25 95.18 564.51C97.61 556.29 101.28 548.75 106.17 542.02C106.25 541.91 106.3 541.8 106.35 541.68C108.28 541.33 110.21 540.99 112.15 540.66C127.34 538.05 142.63 536.08 158.02 534.64C154.25 544.04 151.27 553.8 149.13 563.88C148.75 565.65 151.37 566.87 151.75 565.09C154 554.47 157.17 544.2 161.24 534.35C172 533.4 182.82 532.69 193.68 532.21C205.48 531.69 217.3 531.35 229.13 531.05C224.5 539.79 220.45 548.88 217.05 558.31C216.44 560.01 219.06 561.21 219.67 559.52C223.16 549.85 227.3 540.53 232.11 531.6C232.22 531.39 232.28 531.18 232.29 530.97C246.82 530.6 261.35 530.24 275.85 529.62C278.6 529.5 281.34 529.36 284.09 529.22C280.91 536.48 278.67 544.17 277.36 552.2C277.06 554.02 279.83 554.48 280.13 552.68C281.46 544.55 283.82 536.8 287.12 529.48C287.19 529.33 287.22 529.18 287.23 529.04C310.13 527.72 323.9 526.86 346.35 522.93C373.41 518.2 341.64 520.93 328.93 522.51C315.28 524.21 301.51 525.32 287.71 526.1C287.66 526.11 287.6 526.11 287.55 526.11C281.67 517.49 276.53 508.43 272.14 498.98C271.33 497.24 268.84 498.29 269.65 500.04C273.89 509.16 278.83 517.91 284.42 526.28C266.56 527.22 248.64 527.71 230.74 528.22C224.58 519 218.42 509.78 212.26 500.56C211.19 498.96 209.11 500.69 210.17 502.28C215.97 510.95 221.77 519.63 227.56 528.3C204.81 528.96 182.08 529.73 159.5 531.64C152.71 523.99 146.95 515.5 142.35 506.3C141.49 504.57 138.99 505.62 139.86 507.35Z" fill="#692471"/>
<path id="Vector_118" d="M82.13 567.18C82.59 565.97 83.06 564.77 83.52 563.56C83.93 562.5 83.74 561.23 82.66 560.53C81.76 559.94 80.25 560.09 79.84 561.16C79.38 562.37 78.91 563.57 78.45 564.78C78.05 565.84 78.23 567.11 79.31 567.81C80.21 568.4 81.72 568.24 82.13 567.18Z" fill="#692471"/>
<path id="Vector_119" d="M71.9 561.12C73.05 560.56 74.21 560.01 75.36 559.45C76.34 558.97 76.58 557.5 76 556.5C75.36 555.39 74.11 555.08 73.12 555.56C71.97 556.11 70.81 556.67 69.66 557.23C68.67 557.71 68.44 559.18 69.02 560.18C69.66 561.29 70.91 561.6 71.9 561.12Z" fill="#692471"/>
<path id="Vector_120" d="M90.58 576.39L92.19 572.25C92.6 571.19 92.41 569.92 91.34 569.22C90.44 568.63 88.93 568.78 88.52 569.85L86.91 573.99C86.5 575.05 86.69 576.32 87.76 577.02C88.66 577.61 90.17 577.45 90.58 576.39Z" fill="#692471"/>
<path id="Vector_121" d="M72.99 535.54C74.08 535.43 75.17 535.31 76.25 535.2C77.32 535.09 77.96 533.64 77.61 532.59C77.18 531.33 76.15 530.8 75 530.93C73.91 531.04 72.82 531.16 71.74 531.27C70.67 531.38 70.03 532.83 70.38 533.88C70.8 535.13 71.84 535.66 72.99 535.54Z" fill="#692471"/>
<path id="Vector_122" d="M74.37 520.99C74.65 521.07 74.93 521.15 75.21 521.26C75.35 521.31 75.49 521.37 75.62 521.43C75.48 521.36 75.48 521.36 75.62 521.43C75.85 521.55 76.08 521.68 76.3 521.83C76.37 521.87 76.99 522.34 76.77 522.15C77.65 522.9 78.92 523.21 79.71 522.31C80.37 521.56 80.54 520.02 79.6 519.22C78.3 518.12 76.92 517.27 75.32 516.84C74.25 516.55 73.03 517.04 72.81 518.23C72.63 519.3 73.23 520.68 74.37 520.99Z" fill="#692471"/>
<path id="Vector_123" d="M85 515.83C85.63 517.19 86.2699 518.54 86.9099 519.9C87.4199 521 88.9 521.35 89.79 520.84C90.81 520.25 90.94 518.99 90.43 517.89C89.79 516.54 89.1599 515.18 88.5199 513.82C88.0099 512.72 86.53 512.38 85.64 512.88C84.62 513.46 84.48 514.72 85 515.83Z" fill="#692471"/>
<path id="Vector_124" d="M161.7 579.37C160.98 578.01 160.26 576.65 159.53 575.29C158.96 574.22 157.58 573.82 156.65 574.35C155.67 574.91 155.44 576.23 156.01 577.3L158.18 581.38C158.75 582.45 160.13 582.85 161.06 582.32C162.04 581.76 162.27 580.44 161.7 579.37Z" fill="#692471"/>
<path id="Vector_125" d="M148.29 580.06C148.65 578.58 149.02 577.1 149.39 575.63C150.05 572.97 145.99 571.59 145.33 574.25C144.97 575.73 144.6 577.21 144.23 578.68C143.57 581.34 147.63 582.71 148.29 580.06Z" fill="#692471"/>
<path id="Vector_126" d="M136.2 570.62C137.59 570.36 138.83 569.66 139.82 568.67C140.57 567.91 140.56 566.41 139.71 565.58C138.84 564.72 137.57 564.61 136.77 565.42C136.71 565.49 136.16 565.93 136.52 565.67C136.33 565.8 136.14 565.93 135.93 566.04C135.83 566.09 135.72 566.15 135.62 566.19C135.84 566.11 135.84 566.1 135.62 566.18C135.39 566.24 135.17 566.3 134.94 566.34C133.89 566.54 133.21 567.84 133.58 568.95C133.98 570.14 135.07 570.83 136.2 570.62Z" fill="#692471"/>
<path id="Vector_127" d="M135.01 558.66C135.93 558.53 136.85 558.41 137.77 558.28C138.84 558.13 139.49 556.74 139.13 555.67C138.71 554.44 137.66 553.85 136.51 554.01C135.59 554.13 134.67 554.26 133.75 554.39C132.68 554.54 132.03 555.93 132.39 557C132.81 558.22 133.87 558.82 135.01 558.66Z" fill="#692471"/>
<path id="Vector_128" d="M134.21 515.57C135.03 515.17 135.86 514.78 136.69 514.38C137.65 513.92 137.95 512.41 137.33 511.43C136.65 510.35 135.48 510 134.45 510.49C133.62 510.88 132.8 511.28 131.97 511.68C131.01 512.14 130.72 513.65 131.33 514.63C132.01 515.72 133.19 516.07 134.21 515.57Z" fill="#692471"/>
<path id="Vector_129" d="M130.31 500.56C131.35 501.32 132.38 502.08 133.42 502.84C134.35 503.52 135.77 503.19 136.24 502.21C136.75 501.14 136.38 499.91 135.39 499.18C134.36 498.42 133.32 497.66 132.28 496.9C131.35 496.21 129.93 496.55 129.46 497.53C128.94 498.6 129.32 499.83 130.31 500.56Z" fill="#692471"/>
<path id="Vector_130" d="M141.57 493.74C141.55 495.23 141.52 496.73 141.49 498.23C141.47 499.41 142.57 500.47 143.65 500.53C144.83 500.59 145.63 499.64 145.66 498.46C145.68 496.96 145.71 495.47 145.73 493.97C145.75 492.79 144.65 491.73 143.57 491.67C142.4 491.6 141.59 492.56 141.57 493.74Z" fill="#692471"/>
<path id="Vector_131" d="M153.45 504.74C153.99 503.36 154.53 501.98 155.06 500.6C155.47 499.55 155.28 498.27 154.2 497.57C153.3 496.98 151.79 497.14 151.38 498.2L149.77 502.34C149.36 503.4 149.55 504.67 150.63 505.37C151.53 505.96 153.04 505.8 153.45 504.74Z" fill="#692471"/>
<path id="Vector_132" d="M228.38 565.12C229.1 566.57 229.82 568.02 230.54 569.47C231.08 570.55 232.51 570.93 233.42 570.41C234.42 569.84 234.6 568.55 234.06 567.46C233.34 566.01 232.62 564.56 231.9 563.11C231.36 562.02 229.92 561.65 229.02 562.17C228.01 562.74 227.84 564.03 228.38 565.12Z" fill="#692471"/>
<path id="Vector_133" d="M219.25 575.47C219.84 577.97 220.43 580.47 221.02 582.97C221.67 585.75 225.65 584.8 224.99 582.03C224.4 579.53 223.81 577.03 223.22 574.53C222.57 571.74 218.59 572.69 219.25 575.47Z" fill="#692471"/>
<path id="Vector_134" d="M210.35 576.92C211.18 575.1 212.02 573.29 212.86 571.47C213.98 569.03 210.31 566.62 209.19 569.07C208.35 570.89 207.52 572.7 206.68 574.52C205.55 576.95 209.22 579.36 210.35 576.92Z" fill="#692471"/>
<path id="Vector_135" d="M199.66 563.82L202.38 562.38C203.32 561.89 203.65 560.44 203.02 559.43C202.36 558.38 201.15 557.96 200.14 558.49C199.24 558.97 198.33 559.45 197.42 559.93C196.48 560.42 196.15 561.87 196.78 562.88C197.45 563.93 198.66 564.35 199.66 563.82Z" fill="#692471"/>
<path id="Vector_136" d="M203.38 549.25C204.98 549.34 206.58 549.42 208.17 549.51C210.85 549.66 210.7 545.29 208.01 545.14C206.41 545.05 204.81 544.96 203.22 544.88C200.54 544.73 200.69 549.1 203.38 549.25Z" fill="#692471"/>
<path id="Vector_137" d="M205.26 515.76C206.51 515.39 207.75 515.02 209 514.66C210.05 514.35 210.71 513.25 210.36 512.05C210.03 510.94 208.8 510.07 207.74 510.38C206.49 510.75 205.25 511.12 204 511.48C202.94 511.79 202.29 512.89 202.64 514.09C202.97 515.2 204.2 516.07 205.26 515.76Z" fill="#692471"/>
<path id="Vector_138" d="M191.6 501.82C193.79 501.94 195.97 502.06 198.16 502.18C200.84 502.33 200.69 497.96 198 497.81C195.81 497.69 193.63 497.57 191.44 497.45C188.76 497.31 188.91 501.68 191.6 501.82Z" fill="#692471"/>
<path id="Vector_139" d="M202.7 488.65C203.78 490.82 204.87 493 205.96 495.17C207.25 497.75 210.76 495.74 209.47 493.16C208.38 490.98 207.3 488.81 206.21 486.64C204.93 484.06 201.42 486.07 202.7 488.65Z" fill="#692471"/>
<path id="Vector_140" d="M217.9 485.75C217.98 487.87 218.05 489.99 218.13 492.11C218.23 494.92 222.39 495.15 222.29 492.34C222.22 490.22 222.14 488.1 222.06 485.99C221.97 483.16 217.8 482.93 217.9 485.75Z" fill="#692471"/>
<path id="Vector_141" d="M229.56 492.67C228.7 495.64 228.29 498.73 228.29 501.91C228.29 504.71 232.45 504.94 232.45 502.13C232.45 499.33 232.86 496.67 233.61 494.05C234.37 491.43 230.31 490.06 229.56 492.67Z" fill="#692471"/>
<path id="Vector_142" d="M291.42 556.21C292.97 557.9 294.52 559.6 296.07 561.29C298.01 563.41 300.85 560.48 298.9 558.36C297.35 556.67 295.8 554.97 294.25 553.28C292.31 551.16 289.48 554.09 291.42 556.21Z" fill="#692471"/>
<path id="Vector_143" d="M289.99 567.32C289.56 565.46 289.12 563.59 288.69 561.72C288.42 560.55 287.1 559.81 286.07 560.06C284.94 560.33 284.44 561.5 284.71 562.67C285.14 564.54 285.58 566.4 286.01 568.27C286.28 569.44 287.6 570.18 288.62 569.93C289.76 569.66 290.26 568.49 289.99 567.32Z" fill="#692471"/>
<path id="Vector_144" d="M276.05 572.45C275.99 570.68 275.92 568.92 275.86 567.15C275.76 564.34 271.78 569.4 271.89 572.22C271.95 573.99 271.83 570.46 271.89 572.22C271.99 575.03 276.15 575.26 276.05 572.45Z" fill="#692471"/>
<path id="Vector_145" d="M263.1 558.48C264.16 557.48 265.21 556.48 266.27 555.48C267.04 554.75 266.99 553.21 266.16 552.39C265.27 551.52 264.04 551.45 263.22 552.23C262.17 553.23 261.11 554.23 260.05 555.23C259.28 555.96 259.33 557.5 260.16 558.32C261.05 559.19 262.28 559.26 263.1 558.48Z" fill="#692471"/>
<path id="Vector_146" d="M266.5 545.48C267.75 545.29 269 545.09 270.26 544.89C271.36 544.72 271.94 543.37 271.62 542.28C271.26 541.06 270.1 540.44 269 540.61C267.75 540.81 266.5 541 265.24 541.2C264.14 541.37 263.56 542.71 263.88 543.81C264.25 545.04 265.4 545.65 266.5 545.48Z" fill="#692471"/>
<path id="Vector_147" d="M263.04 514.9C264.65 515.43 266.27 515.96 267.88 516.49C270.5 517.35 271.46 513.19 268.83 512.34C267.22 511.81 265.6 511.28 263.99 510.75C261.38 509.89 260.42 514.04 263.04 514.9Z" fill="#692471"/>
<path id="Vector_148" d="M257.3 502.42C259 502.8 260.61 503.4 262.16 504.32C264.58 505.75 266.55 502.1 264.13 500.66C262.26 499.56 260.31 498.73 258.26 498.27C257.15 498.02 256.03 498.45 255.75 499.65C255.52 500.68 256.18 502.17 257.3 502.42Z" fill="#692471"/>
<path id="Vector_149" d="M258.91 486.82C260.49 488.69 261.75 490.77 262.75 493.01C263.25 494.11 264.75 494.45 265.63 493.95C266.67 493.36 266.77 492.11 266.27 491C265.11 488.41 263.57 486.05 261.75 483.9C259.89 481.69 257.06 484.63 258.91 486.82Z" fill="#692471"/>
<path id="Vector_150" d="M270.5 482.59C270.92 485.08 271.34 487.57 271.76 490.06C271.96 491.24 273.4 491.95 274.38 491.72C275.57 491.45 275.93 490.29 275.74 489.11C275.32 486.62 274.9 484.13 274.48 481.64C274.28 480.45 272.84 479.75 271.87 479.97C270.67 480.25 270.3 481.41 270.5 482.59Z" fill="#692471"/>
<path id="Vector_151" d="M282.39 491.85C281.54 496.21 280.69 500.57 279.84 504.93C279.31 507.63 283.37 509.02 283.9 506.31C284.75 501.95 285.6 497.59 286.45 493.23C286.97 490.53 282.92 489.15 282.39 491.85Z" fill="#692471"/>
<path id="Vector_152" d="M289.47 507.89C289.54 509.83 289.61 511.77 289.68 513.72C289.78 516.53 293.94 516.76 293.84 513.94C293.77 512 293.7 510.06 293.63 508.11C293.53 505.3 289.37 505.07 289.47 507.89Z" fill="#692471"/>
<path id="Vector_153" d="M524.4 152C524.4 152 458.34 248.53 453.84 323.12C452.31 348.44 456.51 367.46 462.72 381.54C475.67 410.9 514.55 414.04 533.81 387.27C543.05 374.43 551.41 356.42 555.55 331.31C567.76 257.34 524.4 152 524.4 152Z" fill="#7A7AB9"/>
<path id="Vector_154" d="M504.5 348.87C505.07 343.73 505.64 338.6 506.21 333.46L557.56 310.84C557.58 310.23 557.6 309.63 557.62 309.02C540.55 316.54 523.48 324.06 506.41 331.58C506.95 326.72 507.49 321.87 508.02 317.01C524.29 309.53 540.84 302.79 557.63 296.82C557.62 296.25 557.6 295.68 557.58 295.11C540.89 301.03 524.42 307.71 508.23 315.12C508.75 310.45 509.26 305.79 509.78 301.12L556.8 281.93C556.75 281.36 556.7 280.79 556.65 280.22L509.98 299.26C510.52 294.37 511.06 289.48 511.6 284.59C525.78 277.33 540.21 270.67 554.86 264.63C554.78 264.07 554.7 263.51 554.62 262.95C540.12 268.92 525.85 275.49 511.81 282.64C512.37 277.6 512.92 272.57 513.48 267.53C526.29 261.19 539.33 255.42 552.57 250.23C552.47 249.68 552.37 249.13 552.27 248.58C539.21 253.69 526.34 259.36 513.7 265.59C514.15 261.49 514.61 257.38 515.06 253.28C526.42 247.08 538.03 241.41 549.84 236.29C549.73 235.74 549.61 235.2 549.49 234.65C537.87 239.67 526.46 245.23 515.28 251.3C515.83 246.3 516.39 241.3 516.94 236.3C526.21 230.05 536.03 224.86 546.27 220.75C546.14 220.21 546 219.68 545.87 219.15C535.87 223.15 526.27 228.2 517.17 234.22C517.36 232.52 517.55 230.81 517.74 229.11C517.91 228.86 517.98 228.54 517.84 228.22C517.98 226.99 518.11 225.75 518.25 224.52C526.02 218.56 534.66 214.07 543.82 211.25C543.68 210.72 543.53 210.19 543.39 209.66C534.51 212.41 526.11 216.68 518.49 222.32C518.9 218.57 519.32 214.82 519.73 211.07C526.42 206.71 533.37 202.87 540.56 199.57C540.41 199.04 540.25 198.51 540.1 197.98C533.17 201.16 526.45 204.84 519.97 209C520.36 205.52 520.74 202.03 521.13 198.55C525.95 196.38 530.78 194.21 535.6 192.04C536.4 191.68 537.2 191.33 538 190.97C537.84 190.44 537.68 189.92 537.52 189.4C536.34 189.93 535.15 190.45 533.98 190.97C529.77 192.86 525.56 194.76 521.35 196.65C521.68 193.7 522 190.76 522.33 187.81C526.33 185.12 530.42 182.61 534.61 180.29C534.44 179.76 534.26 179.23 534.09 178.71C530.17 180.89 526.33 183.22 522.57 185.71C522.95 182.27 523.33 178.83 523.71 175.39C526.24 173.81 528.83 172.35 531.47 171.02C531.29 170.49 531.1 169.97 530.92 169.46C528.54 170.66 526.21 171.95 523.93 173.35L524.62 167.12C526.11 166.18 527.59 165.24 529.08 164.29C528.88 163.76 528.7 163.24 528.51 162.73C527.29 163.5 526.07 164.28 524.85 165.05C525.19 161.95 525.54 158.85 525.88 155.75C524.94 153.32 524.4 152 524.4 152C524.4 152 523.6 153.17 522.17 155.35C521.79 158.81 521.4 162.26 521.02 165.72C520.16 164.26 519.2 162.88 518.16 161.58C517.86 162.06 517.54 162.56 517.22 163.07C518.54 164.77 519.7 166.62 520.7 168.6C520.43 171.02 520.17 173.43 519.9 175.84C518.23 172.99 516.34 170.33 514.23 167.88C513.93 168.37 513.63 168.86 513.32 169.37C515.53 171.98 517.49 174.83 519.18 177.9C519.29 178.1 519.45 178.22 519.63 178.28C519.14 182.72 518.65 187.16 518.15 191.6C514.96 186.96 511.61 182.45 508.11 178.08C507.81 178.59 507.51 179.1 507.21 179.62C510.94 184.31 514.5 189.14 517.88 194.13C517.44 198.12 516.99 202.12 516.55 206.11C512.07 199.81 507.43 193.63 502.64 187.59C502.35 188.11 502.05 188.63 501.76 189.16C506.77 195.49 511.61 201.97 516.28 208.59C515.74 213.48 515.2 218.38 514.65 223.27C508.99 214.71 503.01 206.39 496.72 198.34C496.43 198.87 496.15 199.41 495.86 199.95C502.37 208.31 508.54 216.96 514.37 225.86C514.02 229.09 513.66 232.31 513.3 235.54C505.58 227.35 497.85 219.15 490.13 210.96C489.86 211.48 489.6 212.01 489.33 212.54C497.24 220.93 505.15 229.32 513.06 237.71C512.37 243.97 511.68 250.22 510.98 256.48C502.89 244.36 494.17 232.75 484.83 221.68C484.56 222.23 484.3 222.78 484.04 223.34C493.57 234.69 502.47 246.61 510.69 259.06C510.06 264.79 509.42 270.52 508.79 276.25C497.97 264.31 487.14 252.37 476.32 240.43C476.08 240.99 475.84 241.56 475.6 242.12L508.54 278.46C508.3 280.64 508.06 282.83 507.81 285.02L506.93 292.99C494.81 280.18 482.69 267.37 470.57 254.56C470.35 255.14 470.13 255.71 469.91 256.29C482.17 269.25 494.43 282.21 506.69 295.16C506.23 299.26 505.78 303.36 505.33 307.46C491.68 295.66 478.02 283.86 464.37 272.05C464.18 272.63 464 273.21 463.82 273.78C477.51 285.61 491.2 297.45 504.89 309.28C504.97 309.35 505.04 309.39 505.12 309.42C504.47 315.28 503.82 321.14 503.17 327C488.74 313.78 474.32 300.56 459.89 287.35C459.73 287.96 459.57 288.57 459.42 289.19C473.93 302.48 488.44 315.77 502.94 329.06C502.45 333.45 501.97 337.84 501.48 342.23C486.11 331.11 470.75 320 455.38 308.88C455.28 309.51 455.19 310.14 455.1 310.76C470.49 321.89 485.87 333.02 501.26 344.15C500.74 348.82 500.23 353.5 499.71 358.17C483.78 349.23 468.39 339.35 453.6 328.58C453.58 329.27 453.56 329.96 453.55 330.64C468.3 341.32 483.64 351.12 499.51 359.99C498.67 367.57 497.83 375.16 496.99 382.74C482.71 374.78 468.84 366.09 455.41 356.74C455.55 357.54 455.69 358.32 455.84 359.1C469 368.2 482.58 376.65 496.54 384.42C496.63 384.47 496.71 384.49 496.8 384.51C496.45 387.7 496.09 390.89 495.74 394.08C484.06 388.26 472.38 382.43 460.7 376.61C461 377.4 461.3 378.18 461.61 378.94C472.92 384.58 484.23 390.22 495.54 395.86C495.19 399.02 494.84 402.18 494.49 405.34C495.73 405.48 496.97 405.57 498.22 405.6C498.32 404.72 498.41 403.85 498.51 402.98C509.47 398.78 520.43 394.58 531.39 390.38C532.08 389.57 532.75 388.73 533.4 387.86C521.84 392.29 510.28 396.72 498.72 401.15C499.03 398.33 499.34 395.5 499.66 392.68C513.3 387.32 526.93 381.96 540.57 376.6C540.97 375.87 541.37 375.12 541.77 374.37C527.8 379.86 513.83 385.35 499.87 390.84C500.36 386.46 500.84 382.08 501.33 377.71C516.89 371.91 532.46 366.12 548.02 360.32C548.27 359.66 548.51 358.98 548.76 358.3C533.02 364.16 517.28 370.03 501.54 375.89C501.96 372.07 502.39 368.25 502.81 364.43C502.82 364.33 502.83 364.22 502.84 364.11C519.14 357.09 535.74 350.94 552.58 345.69C552.74 345.07 552.89 344.45 553.05 343.82C536.13 349.06 519.44 355.21 503.06 362.24C503.11 361.75 503.17 361.26 503.22 360.77C503.25 360.67 503.27 360.56 503.26 360.46C503.61 357.26 503.97 354.06 504.32 350.86C521.29 342.04 538.62 334.05 556.25 326.91C556.33 326.29 556.41 325.66 556.49 325.04C538.81 332.1 521.48 340.07 504.5 348.87Z" fill="#692471"/>
<path id="Vector_155" d="M172.69 234.99C172.69 234.99 213.1 376.23 285.42 440.79C309.97 462.7 333.12 474.04 353.01 479.47C394.47 490.78 431.99 456.06 421.61 415.98C416.63 396.76 405.6 374.21 383.57 349.96C318.69 278.53 172.69 234.99 172.69 234.99Z" fill="#EA5A78"/>
<path id="Vector_156" d="M356.46 413.05C351.71 408.36 346.96 403.66 342.21 398.97C349.61 376.48 357 353.99 364.4 331.5C363.8 330.99 363.2 330.48 362.59 329.97C355.21 352.39 347.84 374.82 340.47 397.25C335.98 392.81 331.49 388.38 326.99 383.94C333.7 362.31 341.41 341.01 350.13 320.11C349.53 319.66 348.93 319.22 348.33 318.77C339.65 339.55 331.95 360.71 325.23 382.2C320.91 377.94 316.6 373.68 312.28 369.41C319.57 349.23 326.87 329.05 334.16 308.86C333.54 308.44 332.91 308.03 332.28 307.62C325.04 327.65 317.8 347.68 310.56 367.71C306.04 363.24 301.51 358.77 296.99 354.3C302.08 334.86 308.01 315.65 314.76 296.73C314.12 296.35 313.48 295.98 312.84 295.6C306.15 314.31 300.26 333.29 295.19 352.51C290.53 347.91 285.87 343.31 281.21 338.7C286.03 321.31 291.64 304.16 298.02 287.29C297.37 286.94 296.72 286.59 296.07 286.24C289.76 302.88 284.21 319.79 279.42 336.94C275.63 333.19 271.83 329.44 268.03 325.69C271.72 309.79 276.16 294.1 281.35 278.64C280.69 278.31 280.03 277.98 279.37 277.65C274.26 292.84 269.86 308.26 266.2 323.88C261.57 319.31 256.95 314.74 252.32 310.17C254.11 296.25 257.47 282.64 262.3 269.51C261.63 269.2 260.97 268.9 260.3 268.6C255.57 281.41 252.26 294.69 250.38 308.26C248.8 306.7 247.23 305.15 245.65 303.59C245.55 303.23 245.27 302.9 244.83 302.78C243.69 301.65 242.55 300.53 241.41 299.4C242.17 287.13 245.21 275.24 250.41 264.18C249.74 263.89 249.07 263.59 248.41 263.3C243.38 274.03 240.33 285.52 239.38 297.38C235.91 293.95 232.44 290.53 228.98 287.1C230.43 277.17 232.64 267.41 235.6 257.86C234.92 257.58 234.24 257.3 233.56 257.02C230.7 266.23 228.53 275.64 227.07 285.21L217.4 275.66L223.52 256.55C223.86 255.5 224.2 254.44 224.54 253.39C223.86 253.12 223.18 252.85 222.51 252.59C222.01 254.15 221.49 255.71 220.99 257.25C219.21 262.81 217.43 268.37 215.65 273.94C212.92 271.25 210.2 268.55 207.47 265.86C208.25 259.86 209.29 253.91 210.61 248.02C209.91 247.76 209.22 247.5 208.54 247.25C207.31 252.76 206.3 258.33 205.53 263.94C202.35 260.8 199.17 257.65 195.98 254.51C196.59 250.81 197.39 247.16 198.36 243.54C197.66 243.29 196.96 243.04 196.28 242.8C195.41 246.04 194.67 249.32 194.09 252.64C192.17 250.74 190.25 248.85 188.33 246.95L189.37 240.4C188.65 240.15 187.95 239.92 187.27 239.69C186.99 241.48 186.7 243.28 186.42 245.07C183.55 242.24 180.68 239.4 177.81 236.57C174.49 235.51 172.67 234.96 172.67 234.96C172.67 234.96 173.16 236.67 174.13 239.8C177.33 242.96 180.52 246.12 183.72 249.28C181.47 248.92 179.21 248.73 176.96 248.67C177.18 249.35 177.41 250.05 177.66 250.77C180.56 250.89 183.48 251.26 186.39 251.9C188.62 254.11 190.85 256.31 193.09 258.52C188.71 257.81 184.32 257.48 179.95 257.52C180.18 258.2 180.42 258.89 180.67 259.6C185.29 259.59 189.94 260.01 194.57 260.88C194.88 260.94 195.14 260.88 195.35 260.75C199.45 264.81 203.56 268.86 207.67 272.92C200.11 272.23 192.54 271.8 184.97 271.62C185.23 272.32 185.48 273.02 185.75 273.73C193.83 273.94 201.92 274.43 210 275.22C213.69 278.87 217.39 282.52 221.08 286.17C210.68 285.38 200.27 284.83 189.86 284.54C190.13 285.24 190.41 285.94 190.69 286.65C201.59 286.97 212.48 287.56 223.37 288.43C227.9 292.9 232.42 297.37 236.95 301.85C223.2 300.36 209.41 299.38 195.62 298.9C195.91 299.6 196.21 300.31 196.5 301.03C210.8 301.55 225.09 302.61 239.34 304.22C242.33 307.17 245.31 310.12 248.29 313.07C233.09 313.85 217.89 314.64 202.7 315.42C203 316.1 203.31 316.78 203.61 317.47C219.17 316.66 234.74 315.86 250.3 315.06C256.09 320.78 261.88 326.49 267.67 332.21C248.14 330.17 228.56 329.15 209 329.16C209.33 329.86 209.66 330.55 210 331.26C230.02 331.29 250.07 332.4 270.05 334.57C275.35 339.81 280.65 345.04 285.95 350.28C264.18 351.01 242.42 351.74 220.66 352.46C221.02 353.14 221.39 353.83 221.75 354.51C243.83 353.77 265.92 353.03 288 352.3C290.02 354.3 292.04 356.29 294.06 358.29C296.52 360.72 298.98 363.15 301.44 365.58C277.64 366.85 253.84 368.11 230.04 369.38C230.43 370.06 230.83 370.73 231.23 371.41C255.3 370.13 279.38 368.85 303.45 367.56C307.24 371.31 311.04 375.05 314.83 378.8C290.71 382.35 266.59 385.9 242.46 389.45C242.89 390.09 243.31 390.74 243.75 391.38C267.94 387.82 292.12 384.26 316.3 380.7C316.43 380.68 316.55 380.64 316.65 380.59L332.91 396.65L254.16 406.09C254.64 406.74 255.13 407.38 255.62 408.02C282.02 404.85 308.41 401.69 334.81 398.52C338.87 402.53 342.93 406.54 346.99 410.55C322.06 416.3 297.13 422.04 272.2 427.79C272.76 428.39 273.32 428.98 273.88 429.57C298.84 423.82 323.81 418.06 348.77 412.31C353.09 416.58 357.42 420.85 361.74 425.12C338.55 433.16 314.85 439.92 290.77 445.4C291.46 445.98 292.14 446.54 292.83 447.11C316.78 441.6 340.34 434.82 363.41 426.78C370.42 433.71 377.44 440.64 384.45 447.57C363.71 454.82 342.58 461.1 321.16 466.41C322.09 466.92 323.02 467.42 323.95 467.9C344.87 462.64 365.5 456.45 385.77 449.35C385.89 449.31 385.99 449.24 386.08 449.18C389.03 452.1 391.98 455.01 394.93 457.92C378.67 464.41 362.4 470.89 346.14 477.38C347.21 477.74 348.27 478.07 349.33 478.39C365.08 472.11 380.83 465.83 396.58 459.55C399.5 462.43 402.42 465.32 405.34 468.21C406.58 467.14 407.76 466.01 408.9 464.84C408.09 464.04 407.28 463.24 406.47 462.44C411.85 448.55 417.23 434.66 422.61 420.77C422.39 419.45 422.12 418.13 421.8 416.81C416.13 431.46 410.45 446.11 404.78 460.77C402.17 458.19 399.56 455.61 396.95 453.03C403.5 435.64 410.06 418.24 416.61 400.85C416.22 399.87 415.81 398.89 415.38 397.9C408.67 415.72 401.95 433.53 395.24 451.35C391.19 447.35 387.14 443.35 383.09 439.35C390.9 419.76 398.7 400.16 406.51 380.57C406.05 379.79 405.57 379.01 405.09 378.23C397.2 398.05 389.3 417.86 381.4 437.68C377.87 434.19 374.33 430.7 370.8 427.21C370.7 427.11 370.61 427.02 370.51 426.92C377.72 405.63 386.08 384.77 395.57 364.39C395.08 363.74 394.58 363.08 394.07 362.43C384.5 382.88 376.06 403.83 368.78 425.2C368.33 424.75 367.87 424.3 367.42 423.85C367.34 423.74 367.25 423.64 367.13 423.57C364.17 420.65 361.21 417.72 358.25 414.8C364.2 391.41 371.32 368.36 379.59 345.71C379.03 345.13 378.46 344.55 377.89 343.97C369.6 366.64 362.45 389.68 356.46 413.05Z" fill="#7A7AB9"/>
<path id="Vector_157" d="M251.62 522.07C251.62 522.07 257.02 470.83 270.25 470.01C283.49 469.18 291.82 508.85 291.82 508.85C291.82 508.85 298.69 432.82 317.32 431.17C335.95 429.52 338.89 454.76 338.89 454.76C338.89 454.76 344.03 412.68 364.62 411.86C385.21 411.03 390.6 448.22 390.6 448.22C394.03 406.9 426.9 417.28 435.19 452.19C439.7 471.18 440.46 475.48 440.46 475.48C440.46 475.48 454.78 447.86 463.91 446.05C480.58 442.75 484.98 483.67 484.98 483.67C484.98 483.67 490.87 432.83 509.01 434.49C527.15 436.15 527.63 459.94 527.63 459.94C527.63 459.94 529.11 424.57 545.78 427.06C562.45 429.54 559.5 473.39 559.99 492.39C560.48 511.4 573.22 538.67 596.76 508.1C620.3 477.53 629.61 557.69 629.61 557.69L264.77 557.64C248.18 557.65 251.62 522.07 251.62 522.07Z" fill="#7A7AB9"/>
<path id="Vector_158" d="M557.32 398.49C543.6 394.22 535.38 392.99 540.24 373.9C545.1 354.82 531.73 353.36 518.01 349.08C504.29 344.81 495.15 332 495.1 300.95C495.05 269.89 476.97 273.4 463.43 266.57C449.89 259.74 447.14 257.31 443.22 234.92C439.31 212.54 421.29 213.11 402.58 214.14C383.87 215.17 345.43 165.35 345.43 165.35C345.43 165.35 334.33 192.25 351.39 222.33C368.45 252.41 338.78 246.57 345.65 278.57C352.5 310.58 379.38 304.87 369.1 328.78C358.82 352.69 356.83 373.52 384.82 396.33C412.81 419.14 386.68 443.86 402.46 465.04C418.24 486.22 442.14 464.21 445.89 488.53C449.65 512.85 445.46 525.39 469.79 526.25C494.12 527.11 486.03 559.32 516 565.92C517.11 566.17 518.29 566.38 519.55 566.57C554.22 571.78 588.23 541.76 588.39 505.11C588.43 496.77 586.74 489.66 582.2 485.53C564.03 468.98 588.64 484.16 602.34 464.07C616.05 443.97 571.04 402.76 557.32 398.49Z" fill="#692471"/>
<path id="Vector_159" d="M464.07 301.77C456.21 311.08 449.53 321.27 444.2 332.15C437.54 319.81 430.56 307.67 423.12 295.8C420.52 291.66 417.89 287.55 415.22 283.45C415.27 283.26 415.3 283.05 415.27 282.81C414.18 272.04 414.88 261.1 417.43 250.21C417.96 247.95 414.65 247.29 414.12 249.56C411.92 258.93 411.02 268.36 411.44 277.69C394.36 251.91 376.11 227.02 357.87 202.16C356.61 200.44 353.58 202.43 354.85 204.17C372.3 227.95 389.76 251.74 406.19 276.33C396.95 274.6 387.43 274.29 377.82 275.44C375.6 275.71 375.51 279.26 377.73 278.99C388.21 277.74 398.53 278.23 408.51 280.5C408.67 280.54 408.83 280.54 408.98 280.53C410.31 282.55 411.64 284.57 412.96 286.59C423.29 302.5 432.95 318.84 442.06 335.54C429.6 335.84 417.11 337.22 404.67 339.7C402.48 340.14 402.37 343.69 404.58 343.25C417.69 340.64 430.84 339.23 443.96 339.04C450.27 350.75 456.32 362.64 462.14 374.69C468.47 387.78 474.59 400.99 480.68 414.22C468.54 413.23 456.29 413.07 443.97 413.81C441.74 413.94 441.67 417.49 443.88 417.36C456.51 416.61 469.07 416.76 481.5 417.86C481.79 417.89 482.06 417.84 482.3 417.75C489.78 434 497.24 450.27 505 466.36C506.47 469.41 507.96 472.45 509.46 475.48C499.7 475.41 489.92 476.62 480.2 479.03C478 479.58 478.82 482.94 481 482.4C490.84 479.96 500.76 478.86 510.63 479.03C510.83 479.03 511.01 478.99 511.18 478.95C523.8 504.21 531.46 519.36 546.81 542.84C565.32 571.15 546.79 536.54 538.82 522.93C530.26 508.32 522.32 493.29 514.73 478.06C514.7 478 514.67 477.94 514.64 477.88C521.53 467.05 529.28 456.83 537.84 447.27C539.42 445.51 537.02 443.21 535.43 444.97C527.17 454.19 519.67 464.04 512.93 474.42C503.18 454.68 493.93 434.65 484.65 414.65C492.08 403.2 499.52 391.76 506.95 380.31C508.24 378.32 505.27 376.81 503.99 378.79C497 389.56 490 400.34 483.01 411.11C471.2 385.7 459.29 360.36 446.16 335.76C451.52 324.36 458.31 313.72 466.49 304.05C468 302.27 465.6 299.96 464.07 301.77Z" fill="#EA5A78"/>
<path id="Vector_160" d="M399.69 239.85C400.35 241.03 401.01 242.2 401.67 243.38C402.32 244.54 404.27 244.55 405.28 243.64C406.49 242.55 406.59 241.12 405.89 239.88C405.23 238.7 404.57 237.53 403.92 236.35C403.27 235.19 401.32 235.17 400.31 236.08C399.09 237.17 398.99 238.6 399.69 239.85Z" fill="#EA5A78"/>
<path id="Vector_161" d="M416.82 234.34C416.87 234.7 416.91 235.05 416.93 235.42C416.94 235.6 416.94 235.79 416.94 235.97C416.96 235.78 416.96 235.78 416.94 235.97C416.92 236.29 416.87 236.61 416.82 236.93C416.8 237.03 416.58 237.96 416.68 237.62C416.26 238.98 416.53 240.57 417.93 241.03C419.09 241.41 420.93 240.86 421.37 239.4C421.98 237.4 422.27 235.41 421.98 233.41C421.78 232.06 420.64 230.92 419.19 231.25C417.88 231.54 416.61 232.89 416.82 234.34Z" fill="#EA5A78"/>
<path id="Vector_162" d="M427.82 243.84C426.59 245.22 425.37 246.6 424.14 247.97C423.15 249.08 423.47 250.92 424.47 251.68C425.63 252.55 427.12 252.09 428.12 250.97C429.34 249.59 430.57 248.21 431.8 246.84C432.79 245.73 432.47 243.89 431.47 243.13C430.31 242.26 428.82 242.73 427.82 243.84Z" fill="#EA5A78"/>
<path id="Vector_163" d="M393.23 361.48C394.41 360 395.6 358.53 396.79 357.05C397.72 355.89 397.5 354.13 396.45 353.34C395.34 352.5 393.74 352.88 392.81 354.05L389.25 358.48C388.32 359.64 388.54 361.4 389.59 362.19C390.69 363.02 392.29 362.65 393.23 361.48Z" fill="#EA5A78"/>
<path id="Vector_164" d="M385.93 346.64C387.78 346.33 389.63 346.03 391.48 345.72C394.81 345.17 394.39 339.91 391.07 340.46C389.22 340.77 387.37 341.07 385.52 341.38C382.19 341.93 382.6 347.19 385.93 346.64Z" fill="#EA5A78"/>
<path id="Vector_165" d="M390.73 328.38C391.7 329.82 393.09 330.89 394.69 331.52C395.91 332 397.6 331.26 398.13 329.89C398.68 328.49 398.19 327 396.89 326.48C396.78 326.44 396.01 326.04 396.49 326.32C396.25 326.17 396.01 326.01 395.79 325.83C395.68 325.74 395.57 325.65 395.47 325.55C395.67 325.76 395.68 325.76 395.48 325.55C395.3 325.33 395.13 325.1 394.97 324.86C394.23 323.77 392.43 323.63 391.36 324.59C390.19 325.64 389.94 327.21 390.73 328.38Z" fill="#EA5A78"/>
<path id="Vector_166" d="M403.68 321.23C404.27 322.21 404.86 323.19 405.45 324.16C406.13 325.3 408.02 325.36 409.06 324.43C410.25 323.36 410.4 321.88 409.67 320.66C409.08 319.68 408.49 318.7 407.91 317.73C407.22 316.59 405.33 316.53 404.3 317.46C403.1 318.52 402.94 320.01 403.68 321.23Z" fill="#EA5A78"/>
<path id="Vector_167" d="M452.02 299.38C452.87 300.12 453.71 300.86 454.57 301.6C455.55 302.46 457.41 302.06 458.22 300.89C459.11 299.59 458.94 298.1 457.88 297.18C457.03 296.44 456.19 295.7 455.34 294.96C454.35 294.1 452.5 294.5 451.69 295.67C450.79 296.97 450.97 298.46 452.02 299.38Z" fill="#EA5A78"/>
<path id="Vector_168" d="M467.11 287.68C466.75 289.22 466.39 290.76 466.04 292.3C465.72 293.68 466.79 295.13 468.12 295.18C469.58 295.24 470.79 294.22 471.13 292.74C471.49 291.2 471.85 289.66 472.2 288.12C472.52 286.73 471.45 285.29 470.12 285.24C468.66 285.18 467.45 286.2 467.11 287.68Z" fill="#EA5A78"/>
<path id="Vector_169" d="M480.3 297.1C478.6 297.8 476.89 298.5 475.19 299.2C473.85 299.75 473.18 301.51 473.64 302.76C474.14 304.13 475.61 304.57 476.96 304.02C478.67 303.32 480.37 302.62 482.07 301.92C483.41 301.37 484.08 299.61 483.62 298.36C483.11 296.99 481.64 296.55 480.3 297.1Z" fill="#EA5A78"/>
<path id="Vector_170" d="M473.62 315.88C475.44 315.82 477.27 315.76 479.09 315.69C480.48 315.64 481.83 314.8 482.1 313.25C482.33 311.94 481.42 310.32 480.02 310.37L474.56 310.56C473.16 310.61 471.82 311.45 471.55 313C471.31 314.3 472.22 315.93 473.62 315.88Z" fill="#EA5A78"/>
<path id="Vector_171" d="M441.74 429.96C440.45 431.48 439.16 433 437.87 434.52C436.91 435.65 437.18 437.46 438.21 438.23C439.35 439.08 440.89 438.66 441.86 437.52C443.15 436 444.44 434.48 445.73 432.96C446.7 431.82 446.42 430.02 445.4 429.25C444.25 428.4 442.71 428.82 441.74 429.96Z" fill="#EA5A78"/>
<path id="Vector_172" d="M425.6 424.67C423.06 426.55 420.51 428.43 417.97 430.31C415.14 432.4 418.14 436.43 420.97 434.34C423.51 432.46 426.05 430.58 428.59 428.7C431.43 426.61 428.43 422.58 425.6 424.67Z" fill="#EA5A78"/>
<path id="Vector_173" d="M419.64 415.31C422.1 415.37 424.56 415.43 427.02 415.5C430.32 415.59 431.27 410.26 427.95 410.18C425.49 410.12 423.03 410.06 420.57 409.99C417.27 409.9 416.33 415.22 419.64 415.31Z" fill="#EA5A78"/>
<path id="Vector_174" d="M429.26 396.86L432.21 399.24C433.22 400.06 435.03 399.73 435.85 398.53C436.72 397.27 436.6 395.7 435.51 394.82C434.53 394.03 433.55 393.24 432.56 392.44C431.54 391.62 429.74 391.95 428.91 393.15C428.05 394.4 428.17 395.98 429.26 396.86Z" fill="#EA5A78"/>
<path id="Vector_175" d="M447.54 393.98C448.22 395.83 448.9 397.68 449.57 399.53C450.71 402.63 455.58 400.34 454.44 397.23C453.76 395.38 453.08 393.53 452.41 391.68C451.27 388.58 446.4 390.87 447.54 393.98Z" fill="#EA5A78"/>
<path id="Vector_176" d="M486.34 379.83C487.36 381.06 488.38 382.29 489.41 383.53C490.27 384.57 491.84 384.77 493.02 383.8C494.12 382.89 494.5 381.08 493.63 380.03C492.61 378.8 491.59 377.57 490.57 376.33C489.7 375.29 488.14 375.09 486.96 376.07C485.85 376.97 485.47 378.78 486.34 379.83Z" fill="#EA5A78"/>
<path id="Vector_177" d="M495.46 357.61C496.39 360.14 497.31 362.67 498.24 365.2C499.38 368.3 504.24 366 503.1 362.9C502.17 360.37 501.25 357.84 500.32 355.31C499.19 352.2 494.32 354.5 495.46 357.61Z" fill="#EA5A78"/>
<path id="Vector_178" d="M515.76 363.77C513.83 366.05 511.9 368.34 509.97 370.62C507.68 373.33 511.66 376.33 513.95 373.62C515.88 371.33 517.81 369.05 519.75 366.77C522.03 364.06 518.05 361.06 515.76 363.77Z" fill="#EA5A78"/>
<path id="Vector_179" d="M526.42 379.55C524.06 380.66 521.7 381.78 519.34 382.9C516.21 384.38 517.97 389.2 521.11 387.72C523.47 386.61 525.83 385.49 528.19 384.38C531.32 382.89 529.56 378.06 526.42 379.55Z" fill="#EA5A78"/>
<path id="Vector_180" d="M524.25 396.1C520.47 396.57 516.79 397.61 513.19 399.15C510.02 400.51 511.79 405.33 514.96 403.97C518.13 402.61 521.34 401.77 524.66 401.36C528 400.94 527.57 395.68 524.25 396.1Z" fill="#EA5A78"/>
<path id="Vector_181" d="M469.19 500.72C471.09 499.32 472.99 497.93 474.89 496.52C476.08 495.65 476.27 493.8 475.5 492.75C474.65 491.6 473.08 491.61 471.89 492.48C469.99 493.88 468.09 495.28 466.19 496.68C465 497.55 464.81 499.4 465.58 500.44C466.43 501.6 468 501.6 469.19 500.72Z" fill="#EA5A78"/>
<path id="Vector_182" d="M456.62 487.45C458.59 486.52 460.55 485.59 462.52 484.66C465.65 483.18 457.99 481.14 454.86 482.63C452.89 483.56 456.82 481.7 454.86 482.63C451.72 484.11 453.48 488.93 456.62 487.45Z" fill="#EA5A78"/>
<path id="Vector_183" d="M466.12 466.01C467.76 466.72 469.41 467.42 471.05 468.13C472.25 468.65 473.97 467.84 474.49 466.5C475.04 465.07 474.53 463.65 473.24 463.09C471.6 462.38 469.95 461.67 468.31 460.97C467.1 460.45 465.39 461.26 464.87 462.6C464.32 464.04 464.84 465.46 466.12 466.01Z" fill="#EA5A78"/>
<path id="Vector_184" d="M482.48 463.54C483.31 464.86 484.14 466.18 484.97 467.51C485.7 468.66 487.5 468.67 488.58 467.78C489.79 466.78 489.92 465.17 489.19 464.01C488.36 462.69 487.53 461.37 486.7 460.04C485.97 458.89 484.17 458.88 483.09 459.77C481.88 460.78 481.75 462.38 482.48 463.54Z" fill="#EA5A78"/>
<path id="Vector_185" d="M515.39 444.76C515.58 446.84 515.76 448.93 515.95 451.01C516.25 454.39 521.41 453.45 521.11 450.07C520.92 447.99 520.74 445.91 520.55 443.82C520.25 440.45 515.09 441.38 515.39 444.76Z" fill="#EA5A78"/>
<path id="Vector_186" d="M526.71 432.21C527.1 434.32 527.21 436.44 526.93 438.63C526.49 442.06 531.58 442.52 532.03 439.08C532.37 436.44 532.35 433.82 531.88 431.28C531.62 429.89 530.59 428.84 529.1 429.12C527.81 429.35 526.45 430.82 526.71 432.21Z" fill="#EA5A78"/>
<path id="Vector_187" d="M545.14 426.45C543.79 429.15 542.05 431.57 540.01 433.8C539 434.9 539.36 436.76 540.34 437.51C541.52 438.39 542.98 437.9 543.99 436.8C546.35 434.23 548.27 431.35 549.83 428.23C551.42 425.06 546.72 423.29 545.14 426.45Z" fill="#EA5A78"/>
<path id="Vector_188" d="M555.56 437.5C552.95 439.18 550.33 440.87 547.72 442.56C546.48 443.36 546.38 445.33 547.11 446.33C547.99 447.55 549.49 447.39 550.72 446.6C553.33 444.91 555.95 443.22 558.56 441.54C559.8 440.74 559.9 438.77 559.17 437.77C558.29 436.56 556.79 436.71 555.56 437.5Z" fill="#EA5A78"/>
<path id="Vector_189" d="M550.86 455.45C545.51 456.61 540.17 457.77 534.83 458.93C531.52 459.64 531.92 464.9 535.24 464.19C540.59 463.03 545.92 461.88 551.27 460.72C554.57 460 554.17 454.74 550.86 455.45Z" fill="#EA5A78"/>
<path id="Vector_190" d="M536.16 471.25C534 472.27 531.83 473.3 529.67 474.32C526.54 475.8 528.3 480.62 531.44 479.14C533.6 478.12 535.77 477.09 537.93 476.07C541.05 474.59 539.29 469.77 536.16 471.25Z" fill="#EA5A78"/>
</g>
</svg>
