<svg width="917" height="172" viewBox="0 0 917 172" fill="none" xmlns="http://www.w3.org/2000/svg">
<path d="M17.71 61.385C13.2 61.385 9.49667 60.3217 6.6 58.195C3.70333 56.0317 2.145 52.9517 1.925 48.955H13.42C13.53 50.3117 13.9333 51.3017 14.63 51.925C15.3267 52.5483 16.225 52.86 17.325 52.86C18.315 52.86 19.1217 52.6217 19.745 52.145C20.405 51.6317 20.735 50.935 20.735 50.055C20.735 48.9183 20.2033 48.0383 19.14 47.415C18.0767 46.7917 16.3533 46.095 13.97 45.325C11.44 44.4817 9.38667 43.675 7.81 42.905C6.27 42.0983 4.91333 40.9433 3.74 39.44C2.60333 37.9 2.035 35.9017 2.035 33.445C2.035 30.9517 2.65833 28.825 3.905 27.065C5.15167 25.2683 6.875 23.9117 9.075 22.995C11.275 22.0783 13.7683 21.62 16.555 21.62C21.065 21.62 24.6583 22.6833 27.335 24.81C30.0483 26.9 31.4967 29.8517 31.68 33.665H19.965C19.9283 32.4917 19.5617 31.6117 18.865 31.025C18.205 30.4383 17.3433 30.145 16.28 30.145C15.4733 30.145 14.8133 30.3833 14.3 30.86C13.7867 31.3367 13.53 32.015 13.53 32.895C13.53 33.6283 13.805 34.27 14.355 34.82C14.9417 35.3333 15.6567 35.7917 16.5 36.195C17.3433 36.5617 18.59 37.0383 20.24 37.625C22.6967 38.4683 24.7133 39.3117 26.29 40.155C27.9033 40.9617 29.2783 42.1167 30.415 43.62C31.5883 45.0867 32.175 46.9567 32.175 49.23C32.175 51.54 31.5883 53.6117 30.415 55.445C29.2783 57.2783 27.61 58.7267 25.41 59.79C23.2467 60.8533 20.68 61.385 17.71 61.385ZM61.7164 54.675H47.9664L45.8764 61H34.5464L48.6814 22.225H61.1114L75.1914 61H63.8064L61.7164 54.675ZM59.0214 46.425L54.8414 33.885L50.7164 46.425H59.0214ZM116.435 22.225L103.07 61H89.265L75.845 22.225H87.395L96.195 50.22L104.94 22.225H116.435ZM130.574 30.86V37.185H142.949V45.38H130.574V52.365H144.599V61H119.794V22.225H144.599V30.86H130.574ZM189.658 22.225V30.805H179.318V61H168.538V30.805H158.308V22.225H189.658ZM228.351 22.225V61H217.571V45.435H204.426V61H193.646V22.225H204.426V36.8H217.571V22.225H228.351ZM245.3 30.86V37.185H257.675V45.38H245.3V52.365H259.325V61H234.52V22.225H259.325V30.86H245.3ZM290.525 22.225C294.595 22.225 298.151 23.05 301.195 24.7C304.275 26.3133 306.64 28.5867 308.29 31.52C309.94 34.4533 310.765 37.8083 310.765 41.585C310.765 45.325 309.921 48.6617 308.235 51.595C306.585 54.5283 304.22 56.8383 301.14 58.525C298.096 60.175 294.558 61 290.525 61H275.18V22.225H290.525ZM289.7 51.485C292.853 51.485 295.328 50.6233 297.125 48.9C298.921 47.1767 299.82 44.7383 299.82 41.585C299.82 38.395 298.921 35.9383 297.125 34.215C295.328 32.455 292.853 31.575 289.7 31.575H285.96V51.485H289.7ZM340.154 54.675H326.404L324.314 61H312.984L327.119 22.225H339.549L353.629 61H342.244L340.154 54.675ZM337.459 46.425L333.279 33.885L329.154 46.425H337.459ZM386.348 22.225V30.805H376.008V61H365.228V30.805H354.998V22.225H386.348ZM401.116 30.86V37.185H413.491V45.38H401.116V52.365H415.141V61H390.336V22.225H415.141V30.86H401.116Z" fill="#682470"/>
<path d="M4.608 109.752C4.864 102.52 7.104 96.984 11.328 93.144C15.552 89.24 21.44 87.288 28.992 87.288C33.92 87.288 38.112 88.152 41.568 89.88C45.088 91.544 47.744 93.848 49.536 96.792C51.328 99.672 52.224 102.936 52.224 106.584C52.224 110.936 51.168 114.424 49.056 117.048C46.944 119.608 44.544 121.336 41.856 122.232V122.616C49.6 125.496 53.472 131 53.472 139.128C53.472 143.16 52.544 146.712 50.688 149.784C48.832 152.856 46.144 155.256 42.624 156.984C39.104 158.712 34.912 159.576 30.048 159.576C22.048 159.576 15.712 157.656 11.04 153.816C6.432 149.912 4.032 143.96 3.84 135.96H22.176C22.048 138.52 22.592 140.504 23.808 141.912C25.024 143.32 26.848 144.024 29.28 144.024C31.136 144.024 32.576 143.448 33.6 142.296C34.688 141.144 35.232 139.608 35.232 137.688C35.232 135.256 34.432 133.464 32.832 132.312C31.296 131.16 28.768 130.584 25.248 130.584H21.888V115.32H25.152C27.584 115.384 29.632 115 31.296 114.168C33.024 113.272 33.888 111.512 33.888 108.888C33.888 106.904 33.408 105.432 32.448 104.472C31.488 103.448 30.176 102.936 28.512 102.936C26.656 102.936 25.28 103.608 24.384 104.952C23.552 106.232 23.072 107.832 22.944 109.752H4.608ZM62.3378 122.904C62.3378 111.896 64.5778 103.224 69.0578 96.888C73.5378 90.552 80.5778 87.384 90.1778 87.384C99.7778 87.384 106.818 90.552 111.298 96.888C115.842 103.224 118.114 111.896 118.114 122.904C118.114 134.04 115.874 142.776 111.394 149.112C106.914 155.448 99.8418 158.616 90.1778 158.616C80.5138 158.616 73.4418 155.448 68.9618 149.112C64.5458 142.776 62.3378 134.04 62.3378 122.904ZM99.4898 122.904C99.4898 117.144 98.8818 112.76 97.6658 109.752C96.4498 106.68 93.9538 105.144 90.1778 105.144C86.4018 105.144 83.9058 106.68 82.6898 109.752C81.4738 112.76 80.8658 117.144 80.8658 122.904C80.8658 128.792 81.4418 133.272 82.5938 136.344C83.8098 139.352 86.3378 140.856 90.1778 140.856C94.0178 140.856 96.5138 139.352 97.6658 136.344C98.8818 133.272 99.4898 128.792 99.4898 122.904ZM136.184 159.768C132.856 159.768 130.168 158.872 128.12 157.08C126.136 155.224 125.144 152.888 125.144 150.072C125.144 147.256 126.136 144.92 128.12 143.064C130.168 141.208 132.856 140.28 136.184 140.28C139.448 140.28 142.072 141.208 144.056 143.064C146.104 144.92 147.128 147.256 147.128 150.072C147.128 152.824 146.104 155.128 144.056 156.984C142.072 158.84 139.448 159.768 136.184 159.768ZM154.307 122.904C154.307 111.896 156.547 103.224 161.027 96.888C165.507 90.552 172.547 87.384 182.147 87.384C191.747 87.384 198.787 90.552 203.267 96.888C207.811 103.224 210.083 111.896 210.083 122.904C210.083 134.04 207.843 142.776 203.363 149.112C198.883 155.448 191.811 158.616 182.147 158.616C172.483 158.616 165.411 155.448 160.931 149.112C156.515 142.776 154.307 134.04 154.307 122.904ZM191.459 122.904C191.459 117.144 190.851 112.76 189.635 109.752C188.419 106.68 185.923 105.144 182.147 105.144C178.371 105.144 175.875 106.68 174.659 109.752C173.443 112.76 172.835 117.144 172.835 122.904C172.835 128.792 173.411 133.272 174.562 136.344C175.779 139.352 178.307 140.856 182.147 140.856C185.987 140.856 188.483 139.352 189.635 136.344C190.851 133.272 191.459 128.792 191.459 122.904ZM250.712 108.984C250.264 106.808 249.528 105.208 248.504 104.184C247.48 103.16 245.976 102.648 243.992 102.648C240.984 102.648 238.872 104.056 237.656 106.872C236.504 109.688 235.896 114.104 235.832 120.12C237.112 118.136 238.968 116.568 241.4 115.416C243.832 114.264 246.52 113.688 249.464 113.688C255.672 113.688 260.632 115.608 264.344 119.448C268.12 123.288 270.008 128.792 270.008 135.96C270.008 140.696 269.016 144.856 267.032 148.44C265.112 151.96 262.296 154.68 258.584 156.6C254.936 158.52 250.616 159.48 245.624 159.48C235.704 159.48 228.792 156.408 224.888 150.264C221.048 144.056 219.128 135.288 219.128 123.96C219.128 111.416 221.176 102.2 225.272 96.312C229.368 90.424 235.96 87.48 245.048 87.48C252.408 87.48 257.976 89.56 261.752 93.72C265.592 97.816 267.736 102.904 268.184 108.984H250.712ZM244.856 128.28C242.616 128.28 240.76 128.92 239.288 130.2C237.88 131.48 237.176 133.304 237.176 135.672C237.176 138.168 237.848 140.088 239.192 141.432C240.536 142.776 242.456 143.448 244.952 143.448C247.256 143.448 249.048 142.808 250.328 141.528C251.672 140.184 252.344 138.296 252.344 135.864C252.344 133.496 251.672 131.64 250.328 130.296C249.048 128.952 247.224 128.28 244.856 128.28ZM289.09 159.768C285.762 159.768 283.074 158.872 281.026 157.08C279.042 155.224 278.05 152.888 278.05 150.072C278.05 147.256 279.042 144.92 281.026 143.064C283.074 141.208 285.762 140.28 289.09 140.28C292.354 140.28 294.978 141.208 296.962 143.064C299.01 144.92 300.034 147.256 300.034 150.072C300.034 152.824 299.01 155.128 296.962 156.984C294.978 158.84 292.354 159.768 289.09 159.768ZM306.637 143.928C312.845 139.064 317.933 134.872 321.901 131.352C325.869 127.832 329.197 124.216 331.885 120.504C334.573 116.728 335.917 113.144 335.917 109.752C335.917 107.704 335.437 106.104 334.477 104.952C333.581 103.8 332.237 103.224 330.445 103.224C328.589 103.224 327.149 104.024 326.125 105.624C325.101 107.16 324.621 109.432 324.685 112.44H306.445C306.637 106.744 307.885 102.04 310.189 98.328C312.493 94.552 315.501 91.8 319.213 90.072C322.925 88.28 327.053 87.384 331.597 87.384C339.469 87.384 345.325 89.336 349.165 93.24C353.005 97.144 354.925 102.2 354.925 108.408C354.925 115.064 352.685 121.304 348.205 127.128C343.789 132.952 338.253 138.168 331.597 142.776H355.597V158.04H306.637V143.928ZM361.293 143.928C367.501 139.064 372.589 134.872 376.557 131.352C380.525 127.832 383.853 124.216 386.541 120.504C389.229 116.728 390.573 113.144 390.573 109.752C390.573 107.704 390.093 106.104 389.133 104.952C388.237 103.8 386.893 103.224 385.101 103.224C383.245 103.224 381.805 104.024 380.781 105.624C379.757 107.16 379.277 109.432 379.341 112.44H361.101C361.293 106.744 362.541 102.04 364.845 98.328C367.149 94.552 370.157 91.8 373.869 90.072C377.581 88.28 381.709 87.384 386.253 87.384C394.125 87.384 399.981 89.336 403.821 93.24C407.661 97.144 409.581 102.2 409.581 108.408C409.581 115.064 407.341 121.304 402.861 127.128C398.445 132.952 392.909 138.168 386.253 142.776H410.253V158.04H361.293V143.928ZM478.1 117.912V133.56H434.612V117.912H478.1ZM508.775 122.904C508.775 111.896 511.015 103.224 515.495 96.888C519.975 90.552 527.015 87.384 536.615 87.384C546.215 87.384 553.255 90.552 557.735 96.888C562.279 103.224 564.551 111.896 564.551 122.904C564.551 134.04 562.311 142.776 557.831 149.112C553.351 155.448 546.279 158.616 536.615 158.616C526.951 158.616 519.879 155.448 515.399 149.112C510.983 142.776 508.775 134.04 508.775 122.904ZM545.927 122.904C545.927 117.144 545.319 112.76 544.103 109.752C542.887 106.68 540.391 105.144 536.615 105.144C532.839 105.144 530.343 106.68 529.127 109.752C527.911 112.76 527.303 117.144 527.303 122.904C527.303 128.792 527.879 133.272 529.031 136.344C530.247 139.352 532.775 140.856 536.615 140.856C540.455 140.856 542.951 139.352 544.103 136.344C545.319 133.272 545.927 128.792 545.927 122.904ZM571.293 143.928C577.501 139.064 582.589 134.872 586.557 131.352C590.525 127.832 593.853 124.216 596.541 120.504C599.229 116.728 600.573 113.144 600.573 109.752C600.573 107.704 600.093 106.104 599.133 104.952C598.237 103.8 596.893 103.224 595.101 103.224C593.245 103.224 591.805 104.024 590.781 105.624C589.757 107.16 589.277 109.432 589.341 112.44H571.101C571.293 106.744 572.541 102.04 574.845 98.328C577.149 94.552 580.157 91.8 583.869 90.072C587.581 88.28 591.709 87.384 596.253 87.384C604.125 87.384 609.981 89.336 613.821 93.24C617.661 97.144 619.581 102.2 619.581 108.408C619.581 115.064 617.341 121.304 612.861 127.128C608.445 132.952 602.909 138.168 596.253 142.776H620.253V158.04H571.293V143.928ZM637.277 159.768C633.949 159.768 631.261 158.872 629.213 157.08C627.229 155.224 626.237 152.888 626.237 150.072C626.237 147.256 627.229 144.92 629.213 143.064C631.261 141.208 633.949 140.28 637.277 140.28C640.541 140.28 643.165 141.208 645.149 143.064C647.197 144.92 648.221 147.256 648.221 150.072C648.221 152.824 647.197 155.128 645.149 156.984C643.165 158.84 640.541 159.768 637.277 159.768ZM655.4 122.904C655.4 111.896 657.64 103.224 662.12 96.888C666.6 90.552 673.64 87.384 683.24 87.384C692.84 87.384 699.88 90.552 704.36 96.888C708.904 103.224 711.176 111.896 711.176 122.904C711.176 134.04 708.936 142.776 704.456 149.112C699.976 155.448 692.904 158.616 683.24 158.616C673.576 158.616 666.504 155.448 662.024 149.112C657.608 142.776 655.4 134.04 655.4 122.904ZM692.552 122.904C692.552 117.144 691.944 112.76 690.728 109.752C689.512 106.68 687.016 105.144 683.24 105.144C679.464 105.144 676.968 106.68 675.752 109.752C674.536 112.76 673.928 117.144 673.928 122.904C673.928 128.792 674.504 133.272 675.656 136.344C676.872 139.352 679.4 140.856 683.24 140.856C687.08 140.856 689.576 139.352 690.728 136.344C691.944 133.272 692.552 128.792 692.552 122.904ZM763.422 102.84L740.382 159H721.086L744.318 105.048H716.958V88.92H763.422V102.84ZM779.496 159.768C776.168 159.768 773.48 158.872 771.432 157.08C769.448 155.224 768.456 152.888 768.456 150.072C768.456 147.256 769.448 144.92 771.432 143.064C773.48 141.208 776.168 140.28 779.496 140.28C782.76 140.28 785.384 141.208 787.368 143.064C789.416 144.92 790.44 147.256 790.44 150.072C790.44 152.824 789.416 155.128 787.368 156.984C785.384 158.84 782.76 159.768 779.496 159.768ZM797.043 143.928C803.251 139.064 808.339 134.872 812.307 131.352C816.275 127.832 819.603 124.216 822.291 120.504C824.979 116.728 826.323 113.144 826.323 109.752C826.323 107.704 825.843 106.104 824.883 104.952C823.987 103.8 822.643 103.224 820.851 103.224C818.995 103.224 817.555 104.024 816.531 105.624C815.507 107.16 815.027 109.432 815.091 112.44H796.851C797.043 106.744 798.291 102.04 800.595 98.328C802.899 94.552 805.907 91.8 809.619 90.072C813.331 88.28 817.459 87.384 822.003 87.384C829.875 87.384 835.731 89.336 839.571 93.24C843.411 97.144 845.331 102.2 845.331 108.408C845.331 115.064 843.091 121.304 838.611 127.128C834.195 132.952 828.659 138.168 822.003 142.776H846.003V158.04H797.043V143.928ZM851.699 143.928C857.907 139.064 862.995 134.872 866.963 131.352C870.931 127.832 874.259 124.216 876.947 120.504C879.635 116.728 880.979 113.144 880.979 109.752C880.979 107.704 880.499 106.104 879.539 104.952C878.643 103.8 877.299 103.224 875.507 103.224C873.651 103.224 872.211 104.024 871.187 105.624C870.163 107.16 869.683 109.432 869.747 112.44H851.507C851.699 106.744 852.947 102.04 855.251 98.328C857.555 94.552 860.563 91.8 864.275 90.072C867.987 88.28 872.115 87.384 876.659 87.384C884.531 87.384 890.387 89.336 894.227 93.24C898.067 97.144 899.987 102.2 899.987 108.408C899.987 115.064 897.747 121.304 893.267 127.128C888.851 132.952 883.315 138.168 876.659 142.776H900.659V158.04H851.699V143.928Z" fill="#EA617D"/>
</svg>
