<svg width="917" height="172" viewBox="0 0 917 172" fill="none" xmlns="http://www.w3.org/2000/svg">
<path d="M17.71 61.385C13.2 61.385 9.49667 60.3217 6.6 58.195C3.70333 56.0317 2.145 52.9517 1.925 48.955H13.42C13.53 50.3117 13.9333 51.3017 14.63 51.925C15.3267 52.5483 16.225 52.86 17.325 52.86C18.315 52.86 19.1217 52.6217 19.745 52.145C20.405 51.6317 20.735 50.935 20.735 50.055C20.735 48.9183 20.2033 48.0383 19.14 47.415C18.0767 46.7917 16.3533 46.095 13.97 45.325C11.44 44.4817 9.38667 43.675 7.81 42.905C6.27 42.0983 4.91333 40.9433 3.74 39.44C2.60333 37.9 2.035 35.9017 2.035 33.445C2.035 30.9517 2.65833 28.825 3.905 27.065C5.15167 25.2683 6.875 23.9117 9.075 22.995C11.275 22.0783 13.7683 21.62 16.555 21.62C21.065 21.62 24.6583 22.6833 27.335 24.81C30.0483 26.9 31.4967 29.8517 31.68 33.665H19.965C19.9283 32.4917 19.5617 31.6117 18.865 31.025C18.205 30.4383 17.3433 30.145 16.28 30.145C15.4733 30.145 14.8133 30.3833 14.3 30.86C13.7867 31.3367 13.53 32.015 13.53 32.895C13.53 33.6283 13.805 34.27 14.355 34.82C14.9417 35.3333 15.6567 35.7917 16.5 36.195C17.3433 36.5617 18.59 37.0383 20.24 37.625C22.6967 38.4683 24.7133 39.3117 26.29 40.155C27.9033 40.9617 29.2783 42.1167 30.415 43.62C31.5883 45.0867 32.175 46.9567 32.175 49.23C32.175 51.54 31.5883 53.6117 30.415 55.445C29.2783 57.2783 27.61 58.7267 25.41 59.79C23.2467 60.8533 20.68 61.385 17.71 61.385ZM61.7164 54.675H47.9664L45.8764 61H34.5464L48.6814 22.225H61.1114L75.1914 61H63.8064L61.7164 54.675ZM59.0214 46.425L54.8414 33.885L50.7164 46.425H59.0214ZM116.435 22.225L103.07 61H89.265L75.845 22.225H87.395L96.195 50.22L104.94 22.225H116.435ZM130.574 30.86V37.185H142.949V45.38H130.574V52.365H144.599V61H119.794V22.225H144.599V30.86H130.574ZM189.658 22.225V30.805H179.318V61H168.538V30.805H158.308V22.225H189.658ZM228.351 22.225V61H217.571V45.435H204.426V61H193.646V22.225H204.426V36.8H217.571V22.225H228.351ZM245.3 30.86V37.185H257.675V45.38H245.3V52.365H259.325V61H234.52V22.225H259.325V30.86H245.3ZM290.525 22.225C294.595 22.225 298.151 23.05 301.195 24.7C304.275 26.3133 306.64 28.5867 308.29 31.52C309.94 34.4533 310.765 37.8083 310.765 41.585C310.765 45.325 309.921 48.6617 308.235 51.595C306.585 54.5283 304.22 56.8383 301.14 58.525C298.096 60.175 294.558 61 290.525 61H275.18V22.225H290.525ZM289.7 51.485C292.853 51.485 295.328 50.6233 297.125 48.9C298.921 47.1767 299.82 44.7383 299.82 41.585C299.82 38.395 298.921 35.9383 297.125 34.215C295.328 32.455 292.853 31.575 289.7 31.575H285.96V51.485H289.7ZM340.154 54.675H326.404L324.314 61H312.984L327.119 22.225H339.549L353.629 61H342.244L340.154 54.675ZM337.459 46.425L333.279 33.885L329.154 46.425H337.459ZM386.348 22.225V30.805H376.008V61H365.228V30.805H354.998V22.225H386.348ZM401.116 30.86V37.185H413.491V45.38H401.116V52.365H415.141V61H390.336V22.225H415.141V30.86H401.116Z" fill="#682470"/>
<path d="M4.608 109.752C4.864 102.52 7.104 96.984 11.328 93.144C15.552 89.24 21.44 87.288 28.992 87.288C33.92 87.288 38.112 88.152 41.568 89.88C45.088 91.544 47.744 93.848 49.536 96.792C51.328 99.672 52.224 102.936 52.224 106.584C52.224 110.936 51.168 114.424 49.056 117.048C46.944 119.608 44.544 121.336 41.856 122.232V122.616C49.6 125.496 53.472 131 53.472 139.128C53.472 143.16 52.544 146.712 50.688 149.784C48.832 152.856 46.144 155.256 42.624 156.984C39.104 158.712 34.912 159.576 30.048 159.576C22.048 159.576 15.712 157.656 11.04 153.816C6.432 149.912 4.032 143.96 3.84 135.96H22.176C22.048 138.52 22.592 140.504 23.808 141.912C25.024 143.32 26.848 144.024 29.28 144.024C31.136 144.024 32.576 143.448 33.6 142.296C34.688 141.144 35.232 139.608 35.232 137.688C35.232 135.256 34.432 133.464 32.832 132.312C31.296 131.16 28.768 130.584 25.248 130.584H21.888V115.32H25.152C27.584 115.384 29.632 115 31.296 114.168C33.024 113.272 33.888 111.512 33.888 108.888C33.888 106.904 33.408 105.432 32.448 104.472C31.488 103.448 30.176 102.936 28.512 102.936C26.656 102.936 25.28 103.608 24.384 104.952C23.552 106.232 23.072 107.832 22.944 109.752H4.608ZM62.3378 122.904C62.3378 111.896 64.5778 103.224 69.0578 96.888C73.5378 90.552 80.5778 87.384 90.1778 87.384C99.7778 87.384 106.818 90.552 111.298 96.888C115.842 103.224 118.114 111.896 118.114 122.904C118.114 134.04 115.874 142.776 111.394 149.112C106.914 155.448 99.8418 158.616 90.1778 158.616C80.5138 158.616 73.4418 155.448 68.9618 149.112C64.5458 142.776 62.3378 134.04 62.3378 122.904ZM99.4898 122.904C99.4898 117.144 98.8818 112.76 97.6658 109.752C96.4498 106.68 93.9538 105.144 90.1778 105.144C86.4018 105.144 83.9058 106.68 82.6898 109.752C81.4738 112.76 80.8658 117.144 80.8658 122.904C80.8658 128.792 81.4418 133.272 82.5938 136.344C83.8098 139.352 86.3378 140.856 90.1778 140.856C94.0178 140.856 96.5138 139.352 97.6658 136.344C98.8818 133.272 99.4898 128.792 99.4898 122.904ZM136.184 159.768C132.856 159.768 130.168 158.872 128.12 157.08C126.136 155.224 125.144 152.888 125.144 150.072C125.144 147.256 126.136 144.92 128.12 143.064C130.168 141.208 132.856 140.28 136.184 140.28C139.448 140.28 142.072 141.208 144.056 143.064C146.104 144.92 147.128 147.256 147.128 150.072C147.128 152.824 146.104 155.128 144.056 156.984C142.072 158.84 139.448 159.768 136.184 159.768ZM154.307 122.904C154.307 111.896 156.547 103.224 161.027 96.888C165.507 90.552 172.547 87.384 182.147 87.384C191.747 87.384 198.787 90.552 203.267 96.888C207.811 103.224 210.083 111.896 210.083 122.904C210.083 134.04 207.843 142.776 203.363 149.112C198.883 155.448 191.811 158.616 182.147 158.616C172.483 158.616 165.411 155.448 160.931 149.112C156.515 142.776 154.307 134.04 154.307 122.904ZM191.459 122.904C191.459 117.144 190.851 112.76 189.635 109.752C188.419 106.68 185.923 105.144 182.147 105.144C178.371 105.144 175.875 106.68 174.659 109.752C173.443 112.76 172.835 117.144 172.835 122.904C172.835 128.792 173.411 133.272 174.562 136.344C175.779 139.352 178.307 140.856 182.147 140.856C185.987 140.856 188.483 139.352 189.635 136.344C190.851 133.272 191.459 128.792 191.459 122.904ZM250.712 108.984C250.264 106.808 249.528 105.208 248.504 104.184C247.48 103.16 245.976 102.648 243.992 102.648C240.984 102.648 238.872 104.056 237.656 106.872C236.504 109.688 235.896 114.104 235.832 120.12C237.112 118.136 238.968 116.568 241.4 115.416C243.832 114.264 246.52 113.688 249.464 113.688C255.672 113.688 260.632 115.608 264.344 119.448C268.12 123.288 270.008 128.792 270.008 135.96C270.008 140.696 269.016 144.856 267.032 148.44C265.112 151.96 262.296 154.68 258.584 156.6C254.936 158.52 250.616 159.48 245.624 159.48C235.704 159.48 228.792 156.408 224.888 150.264C221.048 144.056 219.128 135.288 219.128 123.96C219.128 111.416 221.176 102.2 225.272 96.312C229.368 90.424 235.96 87.48 245.048 87.48C252.408 87.48 257.976 89.56 261.752 93.72C265.592 97.816 267.736 102.904 268.184 108.984H250.712ZM244.856 128.28C242.616 128.28 240.76 128.92 239.288 130.2C237.88 131.48 237.176 133.304 237.176 135.672C237.176 138.168 237.848 140.088 239.192 141.432C240.536 142.776 242.456 143.448 244.952 143.448C247.256 143.448 249.048 142.808 250.328 141.528C251.672 140.184 252.344 138.296 252.344 135.864C252.344 133.496 251.672 131.64 250.328 130.296C249.048 128.952 247.224 128.28 244.856 128.28ZM289.09 159.768C285.762 159.768 283.074 158.872 281.026 157.08C279.042 155.224 278.05 152.888 278.05 150.072C278.05 147.256 279.042 144.92 281.026 143.064C283.074 141.208 285.762 140.28 289.09 140.28C292.354 140.28 294.978 141.208 296.962 143.064C299.01 144.92 300.034 147.256 300.034 150.072C300.034 152.824 299.01 155.128 296.962 156.984C294.978 158.84 292.354 159.768 289.09 159.768ZM306.637 143.928C312.845 139.064 317.933 134.872 321.901 131.352C325.869 127.832 329.197 124.216 331.885 120.504C334.573 116.728 335.917 113.144 335.917 109.752C335.917 107.704 335.437 106.104 334.477 104.952C333.581 103.8 332.237 103.224 330.445 103.224C328.589 103.224 327.149 104.024 326.125 105.624C325.101 107.16 324.621 109.432 324.685 112.44H306.445C306.637 106.744 307.885 102.04 310.189 98.328C312.493 94.552 315.501 91.8 319.213 90.072C322.925 88.28 327.053 87.384 331.597 87.384C339.469 87.384 345.325 89.336 349.165 93.24C353.005 97.144 354.925 102.2 354.925 108.408C354.925 115.064 352.685 121.304 348.205 127.128C343.789 132.952 338.253 138.168 331.597 142.776H355.597V158.04H306.637V143.928ZM362.733 109.752C362.989 102.52 365.229 96.984 369.453 93.144C373.677 89.24 379.565 87.288 387.117 87.288C392.045 87.288 396.237 88.152 399.693 89.88C403.213 91.544 405.869 93.848 407.661 96.792C409.453 99.672 410.349 102.936 410.349 106.584C410.349 110.936 409.293 114.424 407.181 117.048C405.069 119.608 402.669 121.336 399.981 122.232V122.616C407.725 125.496 411.597 131 411.597 139.128C411.597 143.16 410.669 146.712 408.813 149.784C406.957 152.856 404.269 155.256 400.749 156.984C397.229 158.712 393.037 159.576 388.173 159.576C380.173 159.576 373.837 157.656 369.165 153.816C364.557 149.912 362.157 143.96 361.965 135.96H380.301C380.173 138.52 380.717 140.504 381.933 141.912C383.149 143.32 384.973 144.024 387.405 144.024C389.261 144.024 390.701 143.448 391.725 142.296C392.813 141.144 393.357 139.608 393.357 137.688C393.357 135.256 392.557 133.464 390.957 132.312C389.421 131.16 386.893 130.584 383.373 130.584H380.013V115.32H383.277C385.709 115.384 387.757 115 389.421 114.168C391.149 113.272 392.013 111.512 392.013 108.888C392.013 106.904 391.533 105.432 390.573 104.472C389.613 103.448 388.301 102.936 386.637 102.936C384.781 102.936 383.405 103.608 382.509 104.952C381.677 106.232 381.197 107.832 381.069 109.752H362.733ZM482.038 117.912V133.56H438.55V117.912H482.038ZM512.713 122.904C512.713 111.896 514.953 103.224 519.433 96.888C523.913 90.552 530.953 87.384 540.553 87.384C550.153 87.384 557.193 90.552 561.673 96.888C566.217 103.224 568.489 111.896 568.489 122.904C568.489 134.04 566.249 142.776 561.769 149.112C557.289 155.448 550.217 158.616 540.553 158.616C530.889 158.616 523.817 155.448 519.337 149.112C514.921 142.776 512.713 134.04 512.713 122.904ZM549.865 122.904C549.865 117.144 549.257 112.76 548.041 109.752C546.825 106.68 544.329 105.144 540.553 105.144C536.777 105.144 534.281 106.68 533.065 109.752C531.849 112.76 531.241 117.144 531.241 122.904C531.241 128.792 531.817 133.272 532.969 136.344C534.185 139.352 536.713 140.856 540.553 140.856C544.393 140.856 546.889 139.352 548.041 136.344C549.257 133.272 549.865 128.792 549.865 122.904ZM575.23 143.928C581.439 139.064 586.527 134.872 590.495 131.352C594.463 127.832 597.791 124.216 600.479 120.504C603.167 116.728 604.511 113.144 604.511 109.752C604.511 107.704 604.031 106.104 603.071 104.952C602.175 103.8 600.831 103.224 599.039 103.224C597.183 103.224 595.743 104.024 594.719 105.624C593.695 107.16 593.215 109.432 593.279 112.44H575.039C575.231 106.744 576.479 102.04 578.783 98.328C581.087 94.552 584.095 91.8 587.807 90.072C591.519 88.28 595.647 87.384 600.191 87.384C608.063 87.384 613.919 89.336 617.759 93.24C621.599 97.144 623.519 102.2 623.519 108.408C623.519 115.064 621.279 121.304 616.799 127.128C612.383 132.952 606.847 138.168 600.191 142.776H624.191V158.04H575.23V143.928ZM641.215 159.768C637.887 159.768 635.199 158.872 633.151 157.08C631.167 155.224 630.175 152.888 630.175 150.072C630.175 147.256 631.167 144.92 633.151 143.064C635.199 141.208 637.887 140.28 641.215 140.28C644.479 140.28 647.103 141.208 649.087 143.064C651.135 144.92 652.159 147.256 652.159 150.072C652.159 152.824 651.135 155.128 649.087 156.984C647.103 158.84 644.479 159.768 641.215 159.768ZM659.338 122.904C659.338 111.896 661.578 103.224 666.058 96.888C670.538 90.552 677.578 87.384 687.178 87.384C696.778 87.384 703.818 90.552 708.298 96.888C712.842 103.224 715.114 111.896 715.114 122.904C715.114 134.04 712.874 142.776 708.394 149.112C703.914 155.448 696.842 158.616 687.178 158.616C677.514 158.616 670.442 155.448 665.962 149.112C661.546 142.776 659.338 134.04 659.338 122.904ZM696.49 122.904C696.49 117.144 695.882 112.76 694.666 109.752C693.45 106.68 690.954 105.144 687.178 105.144C683.402 105.144 680.906 106.68 679.69 109.752C678.474 112.76 677.866 117.144 677.866 122.904C677.866 128.792 678.442 133.272 679.594 136.344C680.81 139.352 683.338 140.856 687.178 140.856C691.018 140.856 693.514 139.352 694.666 136.344C695.882 133.272 696.49 128.792 696.49 122.904ZM767.36 102.84L744.32 159H725.023L748.256 105.048H720.896V88.92H767.36V102.84ZM783.434 159.768C780.106 159.768 777.418 158.872 775.37 157.08C773.386 155.224 772.394 152.888 772.394 150.072C772.394 147.256 773.386 144.92 775.37 143.064C777.418 141.208 780.106 140.28 783.434 140.28C786.698 140.28 789.322 141.208 791.306 143.064C793.354 144.92 794.378 147.256 794.378 150.072C794.378 152.824 793.354 155.128 791.306 156.984C789.322 158.84 786.698 159.768 783.434 159.768ZM800.98 143.928C807.189 139.064 812.277 134.872 816.245 131.352C820.213 127.832 823.541 124.216 826.229 120.504C828.917 116.728 830.261 113.144 830.261 109.752C830.261 107.704 829.781 106.104 828.821 104.952C827.925 103.8 826.581 103.224 824.789 103.224C822.933 103.224 821.493 104.024 820.469 105.624C819.445 107.16 818.965 109.432 819.029 112.44H800.789C800.981 106.744 802.229 102.04 804.533 98.328C806.837 94.552 809.845 91.8 813.557 90.072C817.269 88.28 821.397 87.384 825.941 87.384C833.813 87.384 839.669 89.336 843.509 93.24C847.349 97.144 849.269 102.2 849.269 108.408C849.269 115.064 847.029 121.304 842.549 127.128C838.133 132.952 832.597 138.168 825.941 142.776H849.941V158.04H800.98V143.928ZM857.077 109.752C857.333 102.52 859.573 96.984 863.797 93.144C868.021 89.24 873.909 87.288 881.461 87.288C886.389 87.288 890.581 88.152 894.037 89.88C897.557 91.544 900.213 93.848 902.005 96.792C903.797 99.672 904.693 102.936 904.693 106.584C904.693 110.936 903.637 114.424 901.525 117.048C899.413 119.608 897.013 121.336 894.325 122.232V122.616C902.069 125.496 905.941 131 905.941 139.128C905.941 143.16 905.013 146.712 903.157 149.784C901.301 152.856 898.613 155.256 895.093 156.984C891.573 158.712 887.381 159.576 882.517 159.576C874.517 159.576 868.181 157.656 863.509 153.816C858.901 149.912 856.501 143.96 856.309 135.96H874.645C874.517 138.52 875.061 140.504 876.277 141.912C877.493 143.32 879.317 144.024 881.749 144.024C883.605 144.024 885.045 143.448 886.069 142.296C887.157 141.144 887.701 139.608 887.701 137.688C887.701 135.256 886.901 133.464 885.301 132.312C883.765 131.16 881.237 130.584 877.717 130.584H874.357V115.32H877.621C880.053 115.384 882.101 115 883.765 114.168C885.493 113.272 886.357 111.512 886.357 108.888C886.357 106.904 885.877 105.432 884.917 104.472C883.957 103.448 882.645 102.936 880.981 102.936C879.125 102.936 877.749 103.608 876.853 104.952C876.021 106.232 875.541 107.832 875.413 109.752H857.077Z" fill="#EA617D"/>
</svg>
