<svg width="507" height="88" viewBox="0 0 507 88" fill="none" xmlns="http://www.w3.org/2000/svg">
<path d="M26.65 74.2998C30.95 77.6398 35.17 79.7198 39.3 80.5398H40.36C46.7 80.5398 50.04 73.4198 50.38 59.1898V54.9898C50.38 38.2098 47.73 27.8398 42.44 23.8798L42.27 19.5498L66.63 19.7998L66.67 24.8898C62.65 26.3298 60.64 35.1598 60.64 51.3698V56.7598C60.64 62.9298 61.97 67.1698 64.63 69.4898L66.8 72.3798C58.91 82.5698 48.69 87.6598 36.16 87.6598H33.1C27.16 87.3198 20.59 85.9598 13.41 83.5898C9.59 82.4598 5.97 80.6198 2.54 78.0698C3.7 73.3698 4.28 66.3898 4.28 57.0998V54.0898C4.31 52.8198 4.32 51.5698 4.32 50.3498C4.32 37.3398 2.9 28.6898 0.0799999 24.4198L0 19.5798L30.22 19.7898L30.39 24.4998C26.74 26.5898 24.92 35.8298 24.92 52.2098C24.91 61.8498 25.49 69.2098 26.65 74.2998Z" fill="#7C7CBA"/>
<path d="M98.72 47.0098C98.72 47.3198 99.91 47.5598 102.29 47.7298H104.63C113.26 46.8498 117.57 44.0698 117.57 39.3698V35.3398C117.57 29.3098 114.53 25.8698 108.45 25.0298C101.97 25.0298 98.73 28.9798 98.73 36.8698V47.0098H98.72ZM98.47 55.3698V67.2098C98.47 76.5698 101.7 81.2598 108.15 81.2598C114.26 80.2398 117.32 76.1698 117.32 69.0398V64.2898C117.32 58.7398 113 55.4598 104.37 54.4398H102.04C99.65 54.6098 98.47 54.9198 98.47 55.3698ZM71.64 87.1598V82.0198C72.63 81.7398 73.38 80.8998 73.89 79.5198L75.38 74.8898C76.57 67.8398 77.16 63.1198 77.16 60.7098C77.16 46.6198 76.03 35.4298 73.76 27.1398C72.88 25.3298 71.92 24.2398 70.87 23.8698V18.7798H91.96V18.8598H116.11C128.33 18.8598 135.63 24.5198 138.01 35.8398C138.18 36.9998 138.27 38.0798 138.27 39.0698C138.27 39.6398 138.24 40.1598 138.18 40.6398C138.18 46.0998 134.12 49.7598 126 51.6298C131.35 51.6298 135.8 55.1998 139.37 62.3298C140.19 65.0198 140.6 66.8898 140.6 67.9298V68.5198C140.6 76.8098 135.96 82.5998 126.68 85.8798C123.54 86.8098 119.01 87.2798 113.1 87.2798H112.5L71.64 87.1598Z" fill="#7C7CBA"/>
<path d="M166.62 46.8801C170.89 44.0201 175.29 42.5901 179.82 42.5901C184.23 42.5901 188.18 44.3001 191.66 47.7301C192.68 49.2301 193.19 50.8701 193.19 52.6501C193.19 55.5701 191.62 59.2601 188.48 63.7301C183.98 59.9701 180.08 57.6501 176.77 56.7701C174.65 56.2901 172.71 56.0501 170.95 56.0501C169.17 56.0501 167.81 56.2201 166.88 56.5601L167.14 67.1301C167.14 76.8401 170.93 81.7901 178.51 81.9801C181.25 81.7801 183.41 77.3801 184.96 68.7801L204.02 68.1001C203.71 77.0101 199.12 83.4601 190.27 87.4501L142.73 87.1501H141.24V81.9701C142.14 81.6901 142.82 81.0101 143.28 79.9301C145.49 70.5401 146.59 61.5101 146.59 52.8501C146.59 43.2601 145.39 34.0901 142.98 25.3501C142.61 24.6401 142.03 24.1501 141.24 23.8601V18.6801C163.65 18.6201 176.37 18.6001 179.4 18.6001H180.63C195.46 20.2401 202.87 24.6601 202.87 31.8401V33.0301L184.41 38.2901C182.91 29.4301 180.36 25.0101 176.77 25.0101H175.58C170.4 25.0101 167.39 31.1201 166.54 43.3401L166.62 46.8801Z" fill="#7C7CBA"/>
<path d="M229.99 47.6902H236.31C244.71 46.3902 248.92 42.4402 248.92 35.8502C248.97 35.2002 249 34.5602 249 33.9402C249 28.2002 246.84 25.3202 242.51 25.3202L233.64 25.1902C231.43 27.9102 230.21 35.4102 229.99 47.6902ZM229.99 56.4702C230.22 70.3602 232.03 79.0602 235.42 82.5702V87.1502H205.29V82.5702C207.98 79.9102 209.32 71.4202 209.32 57.1002V54.0902C209.35 52.7602 209.36 51.4702 209.36 50.2302C209.36 36.7302 207.95 27.8502 205.12 23.5802L205.04 18.7402L230.93 18.9102C238.17 19.0802 244.43 19.2202 249.69 19.3302C261.46 20.5202 268.62 24.3802 271.17 30.9202L271.77 34.5702V35.8002C271.77 42.2502 268.39 47.3602 261.63 51.1202C259.71 52.2202 256.27 52.7802 251.32 52.7802H250.26C258.64 54.0002 263.16 57.9302 263.84 64.5802C264.97 68.9102 266.53 71.0902 268.51 71.1202H268.64C270.45 71.1202 271.5 69.2502 271.78 65.5202C276 66.8502 278.1 69.7402 278.1 74.1802V75.3702C276.83 83.6302 271.08 87.7602 260.87 87.7602C260.19 87.7602 259.45 87.7502 258.66 87.7202C251.16 86.2202 246.72 83.4602 245.33 79.4202C243.94 75.3902 242.23 68.5602 240.19 58.9402C238.32 57.3002 236.29 56.4802 234.08 56.4802H229.99V56.4702Z" fill="#7C7CBA"/>
<path d="M331.47 74.2998C335.77 77.6398 339.99 79.7198 344.12 80.5398H345.18C351.52 80.5398 354.86 73.4198 355.2 59.1898V54.9898C355.2 38.2098 352.55 27.8398 347.26 23.8798L347.08 19.5498L371.44 19.7998L371.48 24.8898C367.46 26.3298 365.45 35.1598 365.45 51.3698V56.7598C365.45 62.9298 366.78 67.1698 369.44 69.4898L371.61 72.3798C363.72 82.5698 353.5 87.6598 340.97 87.6598H337.92C331.98 87.3198 325.41 85.9598 318.23 83.5898C314.41 82.4598 310.79 80.6198 307.36 78.0698C308.52 73.3698 309.1 66.3898 309.1 57.0998V54.0898C309.13 52.8198 309.14 51.5698 309.14 50.3498C309.14 37.3398 307.73 28.6898 304.9 24.4198L304.82 19.5798L335.04 19.7898L335.21 24.4998C331.56 26.5898 329.74 35.8298 329.74 52.2098C329.73 61.8498 330.31 69.2098 331.47 74.2998Z" fill="#7C7CBA"/>
<path d="M405 23.0301C403.39 24.1601 402.58 25.4501 402.58 26.8901C402.58 27.2301 402.62 27.6001 402.71 27.9901V28.2901C402.71 32.8501 406.77 37.8301 414.89 43.2301C418.51 46.1501 422.23 50.4401 426.05 56.1301V50.4501C426.05 35.1401 423.63 26.0201 418.79 23.0801L418.75 18.6201L443.32 18.7001L443.58 23.5001C437.78 23.5001 434.88 35.5101 434.88 59.5301C434.88 72.6001 436.82 80.3101 440.69 82.6601V87.1601H417.43L417.17 83.2601C418.02 80.9701 418.44 79.1601 418.44 77.8301C416.21 69.6501 410.22 62.6501 400.49 56.8201C395.31 52.5701 392.1 49.1201 390.86 46.4601L390.73 47.4801V65.6001C390.93 74.7401 393.94 80.7501 399.77 83.6401L399.64 87.1601H374.64L374.68 81.9801C379.07 81.6701 381.26 72.5701 381.26 54.6901V50.4501C381.26 37.1501 379.11 27.9701 374.81 22.9101L374.85 18.7101L404.81 18.6701L405 23.0301Z" fill="#7C7CBA"/>
<path d="M467.34 18.0601L484.15 21.4601C485.65 21.7101 487.08 21.8401 488.44 21.8401C491.75 21.8401 494.83 20.8401 497.69 18.8301C498.79 20.4401 499.34 22.5101 499.34 25.0301C499.34 26.2201 499.19 28.4901 498.89 31.8401C498.59 35.1901 494.99 37.5901 488.09 39.0301H487.33C480.94 39.0301 475.4 34.8901 470.74 26.5901C468.56 24.8701 465.97 24.0001 462.97 24.0001C460.03 24.8201 458.44 26.7501 458.22 29.7701C458.22 33.6501 469.17 39.2301 491.07 46.5301C498.54 49.3601 503.49 54.1301 505.92 60.8301C506.29 62.6101 506.47 63.7401 506.47 64.2301C506.47 75.4401 499.78 82.8501 486.39 86.4701C482.49 87.2901 479.66 87.7001 477.9 87.7001H469.07C454.78 87.7001 445.73 83.1201 441.91 73.9501C441.43 73.1601 441.19 72.2501 441.19 71.2301C441.19 63.0501 445.48 58.9601 454.05 58.9601C459.37 59.1301 463.93 60.6701 467.72 63.5901C462.46 65.9101 459.82 68.5601 459.82 71.5301C459.82 72.4901 460.4 74.3501 461.56 77.0901C462.72 79.8401 466.65 81.2101 473.36 81.2101H474.04C480.94 80.3101 484.39 77.7901 484.39 73.6601V71.2401C484.39 64.4501 474.44 58.7101 454.55 54.0101C447.19 50.4401 442.67 45.8001 440.97 40.0901C440.94 39.3801 440.93 38.7101 440.93 38.0501C440.94 24.7301 449.74 18.0601 467.34 18.0601Z" fill="#7C7CBA"/>
<path d="M21.66 12.9C26.11 12.9 28.11 10.9 28.11 6.45C28.11 2 26.11 0 21.66 0C17.21 0 15.21 2 15.21 6.45C15.21 10.89 17.21 12.9 21.66 12.9Z" fill="#7C7CBA"/>
<path d="M46.56 12.9C51.01 12.9 53.01 10.9 53.01 6.45C53.01 2 51.01 0 46.56 0C42.11 0 40.11 2 40.11 6.45C40.11 10.89 42.11 12.9 46.56 12.9Z" fill="#7C7CBA"/>
</svg>
