<svg width="331" height="226" viewBox="0 0 331 226" fill="none" xmlns="http://www.w3.org/2000/svg">
<path d="M21.6435 98.9001H18.5435V121.9H21.6435V98.9001Z" fill="#271607"/>
<path d="M25.8434 106.8C25.8434 108.8 24.2434 110.4 22.2434 110.4H18.5434C16.5434 110.4 14.9434 108.8 14.9434 106.8V88.9001C14.9434 86.9001 16.5434 85.3 18.5434 85.3H22.2434C24.2434 85.3 25.8434 86.9001 25.8434 88.9001V106.8Z" fill="#271607"/>
<g opacity="0.1">
<g opacity="0.1">
<path opacity="0.1" d="M21.8434 97.0001C21.8434 91.0001 19.6434 86.1001 16.9434 85.6001C15.7434 86.2001 14.9434 87.4001 14.9434 88.8001V106.7C14.9434 107.2 15.0434 107.6 15.2434 108C15.6434 108.2 16.0434 108.4 16.5434 108.4C19.4434 108.4 21.8434 103.3 21.8434 97.0001Z" fill="white"/>
</g>
</g>
<path d="M25.6435 118.8H18.5435V121.9H25.6435V118.8Z" fill="#271607"/>
<path d="M67.9436 193.3C70.1436 205.3 64.9436 216.3 56.2436 218C47.5436 219.7 38.6436 211.2 36.4436 199.2C34.2436 187.2 39.4436 176.2 48.1436 174.5C56.8436 172.9 65.7436 181.3 67.9436 193.3Z" fill="#3B3534"/>
<path d="M0.743164 172.4C6.24316 179 14.1432 196.3 14.1432 196.3L111.343 198.5C111.343 198.5 112.743 182.6 101.643 170.7L0.743164 172.4Z" fill="#381947"/>
<path d="M201.144 192.3C203.044 202.5 200.744 211.6 196.044 212.5C191.244 213.4 185.844 205.8 183.944 195.6C182.044 185.4 184.344 176.3 189.044 175.4C193.844 174.4 199.244 182 201.144 192.3Z" fill="#002E2C"/>
<path d="M0.743164 172.4C0.743164 172.4 6.94316 157.5 18.5432 152.6C18.5432 152.6 21.7432 155.8 53.7432 155.8C85.7432 155.8 111.343 151.3 111.343 151.3C111.343 151.3 99.9432 158 97.3432 172.4H0.743164V172.4Z" fill="#694F7F"/>
<path d="M18.6436 152.6C18.6436 152.6 30.9435 102.4 21.0435 49.7C21.0435 49.7 85.0436 42.4 111.344 36C111.344 36 119.444 111.1 111.344 151.4C108.844 152.7 90.1435 155.2 66.7435 156.5C47.9435 157.5 27.0436 156.7 18.6436 152.6Z" fill="#641E6E"/>
<g opacity="0.9">
<g opacity="0.9">
<path opacity="0.9" d="M24.5435 49.6001L24.1436 49.7001C24.1436 49.7001 33.0436 98.0001 24.1436 148.1C24.1436 148.1 42.0435 158 106.244 146.5V37.1001C77.9435 44.3001 37.1435 49.3001 24.5435 49.6001Z" fill="#D8DADA"/>
</g>
</g>
<path d="M111.344 198.5L316.344 196.3C316.344 196.3 312.544 120.5 322.944 71.6C324.544 64.3 327.844 53.9 330.044 48.3L111.344 0V151.3C111.344 151.3 98.9438 158.8 97.3438 172.4C105.144 179.2 111.344 198.5 111.344 198.5Z" fill="#641E6E"/>
<g opacity="0.9">
<g opacity="0.9">
<path opacity="0.9" d="M131.043 36.8V145.5L312.143 151.3C312.143 151.3 310.743 111.8 318.543 70.2001L131.043 36.8Z" fill="#D8DADA"/>
</g>
</g>
<path d="M111.343 0L114.443 31.6C120.843 31.6 41.4434 49.6 12.6434 46.8C12.6434 46.8 12.9434 40.9 10.4434 24.7L111.343 0Z" fill="#641E6E"/>
<path d="M96.1438 11V29.6C82.8438 33.3 40.5438 41.8 27.2438 40.9C27.2438 40.9 27.4438 35.6 25.8438 26.6L96.1438 11Z" fill="#518198"/>
<path d="M104.743 10.8001C105.343 12.3001 105.043 13.8001 104.143 14.2001C103.243 14.6001 101.943 13.7001 101.343 12.3001C100.743 10.8001 101.043 9.30005 101.943 8.90005C102.843 8.50005 104.143 9.30005 104.743 10.8001Z" fill="#F69C00"/>
<path d="M104.743 21.3001C105.343 22.8001 105.043 24.3001 104.143 24.7001C103.243 25.1001 101.943 24.2001 101.343 22.8001C100.743 21.3001 101.043 19.8001 101.943 19.4001C102.843 19.0001 104.143 19.9001 104.743 21.3001Z" fill="#ED5607"/>
<path d="M21.9432 28.5001C22.5432 29.9001 22.2432 31.3001 21.3432 31.7001C20.4432 32.1001 19.2432 31.2001 18.6432 29.9001C18.0432 28.5001 18.3432 27.1001 19.2432 26.7001C20.1432 26.3001 21.3432 27.1001 21.9432 28.5001Z" fill="#F69C00"/>
<path d="M21.9432 38.5001C22.5432 39.9001 22.2432 41.3001 21.3432 41.7001C20.4432 42.1001 19.2432 41.2001 18.6432 39.9001C18.0432 38.5001 18.3432 37.1001 19.2432 36.7001C20.1432 36.2001 21.3432 37.1001 21.9432 38.5001Z" fill="#ED5607"/>
<path d="M22.6434 179.8C18.7434 175.8 13.4434 174.3 10.7434 176.6C8.04337 178.8 9.04337 183.9 12.8434 187.9C16.7434 191.9 22.0434 193.4 24.7434 191.1C27.4434 188.9 26.4434 183.8 22.6434 179.8Z" fill="#FDD184"/>
<path d="M98.9437 181C95.5437 176.2 90.1437 173.9 87.0437 175.8C83.8437 177.7 84.1437 183.1 87.5437 187.8C90.9437 192.6 96.3437 194.9 99.4437 193C102.644 191.2 102.344 185.8 98.9437 181Z" fill="#FDD184"/>
<path d="M84.6436 188.9C85.6436 190.7 85.5436 192.7 84.4436 193.4C83.3436 194.1 81.5436 193.1 80.5436 191.2C79.5436 189.3 79.6436 187.4 80.7436 186.7C81.8436 186.1 83.5436 187 84.6436 188.9Z" fill="#ED5607"/>
<path d="M84.6436 188.9C83.7436 187.3 82.2436 186.3 81.1436 186.6C82.1436 186.8 83.1436 187.6 83.8436 188.9C84.8436 190.7 84.7436 192.7 83.6436 193.4C83.5436 193.5 83.4435 193.5 83.2435 193.5C83.6435 193.6 84.0436 193.5 84.4436 193.4C85.5436 192.7 85.6436 190.7 84.6436 188.9Z" fill="#EA3C0F"/>
<path d="M33.8432 187.7C35.1432 189.3 35.3432 191.3 34.3432 192.1C33.3432 192.9 31.4432 192.2 30.1432 190.6C28.8432 189 28.6432 187 29.6432 186.2C30.6432 185.4 32.5432 186.1 33.8432 187.7Z" fill="#ED5607"/>
<path d="M33.8435 187.7C32.6435 186.2 31.0435 185.5 30.0435 186C31.0435 186 32.2435 186.7 33.1435 187.8C34.4435 189.4 34.6435 191.4 33.6435 192.2C33.5435 192.3 33.4435 192.3 33.2435 192.4C33.6435 192.4 34.0435 192.3 34.3435 192.1C35.3435 191.4 35.0435 189.4 33.8435 187.7Z" fill="#EA3C0F"/>
<path d="M291.244 165.8C281.344 167.6 282.044 188 282.744 196.4L309.744 196.1C305.944 162.9 291.244 165.8 291.244 165.8Z" fill="#381947"/>
<path d="M150.443 164.8C131.343 167.2 126.243 190.1 127.543 198.4L177.443 198C172.843 162.7 150.443 164.8 150.443 164.8Z" fill="#381947"/>
<path d="M33.5435 178.4L70.0435 178.5C70.0435 178.5 72.8435 181.4 74.4435 191.2L38.8435 190.8C38.8435 190.8 37.7435 183.6 33.5435 178.4Z" fill="#694F7F"/>
<path d="M69.7435 177.6L32.6436 177.5C36.8436 183.2 38.0435 190.9 38.0435 190.9L74.8436 191.4C73.1436 180.8 69.7435 177.6 69.7435 177.6ZM34.0435 178.3L69.3436 178.4C69.3436 178.4 72.0436 181.2 73.6436 190.7L39.1436 190.3C39.1436 190.2 38.0435 183.3 34.0435 178.3Z" fill="#381947"/>
<path d="M71.1438 180.1H34.8438C35.2438 180.7 35.5437 181.3 35.8438 181.9H71.9438C71.6438 181.2 71.3438 180.6 71.1438 180.1Z" fill="#381947"/>
<path d="M72.7432 184.1L36.7432 183.8C37.0432 184.4 37.2432 185 37.4432 185.6L73.2432 185.9C73.0432 185.2 72.8432 184.7 72.7432 184.1Z" fill="#381947"/>
<path d="M73.6438 187.6L37.8438 187.1C38.0438 187.8 38.2437 188.4 38.3438 188.9L73.9438 189.4C73.8438 188.7 73.7438 188.2 73.6438 187.6Z" fill="#381947"/>
<path d="M12.7432 46.8002L21.0432 49.7002C21.0432 49.7002 63.9432 49.7002 111.343 36.0002V32.2002C111.343 32.1002 51.3432 47.4002 12.7432 46.8002Z" fill="#381947"/>
<path d="M94.2435 12.2002V29.2002C82.0435 32.6002 42.0436 40.4002 29.8436 39.6002C29.8436 39.6002 30.1436 35.6002 28.6436 27.3002L94.2435 12.2002Z" fill="#381947"/>
<path d="M25.8438 26.5C27.4438 35.6 27.2438 40.8 27.2438 40.8C40.6438 41.7 82.9438 33.2 96.1438 29.5V11L25.8438 26.5ZM94.2437 29.3C82.0437 32.7 42.0437 40.5 29.8438 39.7C29.8438 39.7 30.1438 35.7 28.6438 27.4L94.2437 12.3V29.3V29.3Z" fill="#271607"/>
<path d="M171.544 201.8C171.444 216.3 163.044 226.8 152.944 225.2C142.844 223.6 134.744 210.5 134.944 196C135.044 181.5 143.444 171 153.544 172.6C163.644 174.2 171.744 187.3 171.544 201.8Z" fill="#3B3534"/>
<path d="M149.644 187.4C147.244 192.1 145.844 199.6 152.844 208.2C155.244 211.2 160.144 210.4 161.444 206.8C163.344 201.5 164.244 193.8 158.044 186.4C155.644 183.6 151.244 184.1 149.644 187.4Z" fill="#E6BFA5"/>
<path d="M303.744 193.3C305.044 205.3 301.544 215.5 296.044 216.1C290.444 216.7 284.944 207.5 283.644 195.4C282.344 183.3 285.844 173.2 291.344 172.6C296.944 172.1 302.444 181.3 303.744 193.3Z" fill="#3B3534"/>
<path d="M291.243 187.3C290.543 190.7 290.343 195.1 292.243 199.9C293.543 203.1 298.243 202.6 298.743 199.2C299.243 195.5 299.244 191.1 297.544 186.8C296.244 183.8 291.943 184.2 291.243 187.3Z" fill="#E6BFA5"/>
<path d="M319.544 69.2001L121.344 36.3V151.7L313.144 156.8C313.244 156.8 311.244 113.3 319.544 69.2001ZM127.744 148.2V40.2001L315.044 71.4001C307.244 112.7 308.744 154 308.744 154L127.744 148.2Z" fill="#381947"/>
<path d="M161.644 42.1001V154.7H168.044V43.0001L161.644 42.1001Z" fill="#641E6E"/>
<path d="M207.143 49.7002L205.943 155.4L212.143 155.5L213.343 50.8002L207.143 49.7002Z" fill="#641E6E"/>
<path d="M250.943 57.2002L247.743 156.1L254.043 156.2L257.143 58.2002L250.943 57.2002Z" fill="#641E6E"/>
<path d="M292.944 64.3L287.144 63.3C283.344 91.4 283.844 136.8 283.944 156.6L288.544 156.7C288.544 140.3 288.944 104 292.944 64.3Z" fill="#641E6E"/>
<path d="M111.344 35.9001L322.944 71.6001L323.544 69.4001L111.344 32.1001V35.9001Z" fill="#381947"/>
<path d="M26.4432 129C25.8432 135.6 24.9432 142.3 23.7432 149.1C23.7432 149.1 42.0432 159 106.343 147.5V125.3C61.3432 132.1 34.5432 130 26.4432 129Z" fill="#381947"/>
<path d="M90.7433 134.7L89.3434 135.4L77.4434 107.4L78.8434 106.8L90.7433 134.7Z" fill="#381947"/>
<path d="M81.0435 120.2L85.6436 118.2L75.2435 98L73.1436 98.9L81.0435 120.2Z" fill="#381947"/>
<path d="M35.3438 134.8L36.6438 135.4L47.8438 108.9L46.5437 108.3L35.3438 134.8Z" fill="#381947"/>
<path d="M44.5435 121L40.1436 119.2L50.0435 100L51.9436 100.9L44.5435 121Z" fill="#381947"/>
<g opacity="0.9">
<g opacity="0.9">
<path opacity="0.9" d="M26.6432 57.9001C38.9432 57.4001 70.2432 56.8 106.443 46.3V37.3C71.1432 46.9 39.2432 49.0001 26.6432 49.5001C25.9432 49.5001 25.2432 49.6001 24.6432 49.6001L24.2432 49.7001C24.2432 49.7001 24.8432 52.7001 25.5432 58.0001C25.8432 58.0001 26.1432 58.0001 26.6432 57.9001Z" fill="#381947"/>
</g>
</g>
<path d="M161.644 44.6001H159.344V150.6H161.644V44.6001Z" fill="#381947"/>
<path d="M207.144 52.4001L205.944 151.8L203.344 151.3L204.944 52.4001H207.144Z" fill="#381947"/>
<path d="M250.844 58.5L247.744 153.9H246.144L248.544 59.3L250.844 58.5Z" fill="#381947"/>
<path d="M286.943 65C286.943 65 282.643 110.7 283.943 154.8H281.743C281.743 154.8 281.443 97.8 284.343 65H286.943V65Z" fill="#381947"/>
<path d="M114.543 117.2C114.543 120.1 113.543 122.4 112.243 122.4C110.943 122.4 109.943 120.1 109.943 117.2C109.943 114.3 110.943 112 112.243 112C113.543 111.9 114.543 114.3 114.543 117.2Z" fill="#271607"/>
<path d="M117.943 96.4001V115.5H111.543V119H121.043V96.4001H117.943Z" fill="#271607"/>
<g opacity="0.1">
<g opacity="0.1">
<path opacity="0.1" d="M117.944 107.7V115.5H115.144V116.2H118.844V107.7H117.944Z" fill="white"/>
</g>
</g>
<path d="M124.544 105.2C124.544 107.2 122.944 108.8 120.944 108.8H117.244C115.244 108.8 113.644 107.2 113.644 105.2V87.5001C113.644 85.5001 115.244 83.9001 117.244 83.9001H120.944C122.944 83.9001 124.544 85.5001 124.544 87.5001V105.2Z" fill="#271607"/>
<g opacity="0.1">
<g opacity="0.1">
<path opacity="0.1" d="M121.043 95.4001C121.043 89.3001 118.643 84.4001 115.543 84.4001C114.443 85.0001 113.743 86.2001 113.743 87.5001V105.2C113.743 105.4 113.743 105.6 113.843 105.8C114.443 106.2 114.943 106.4 115.643 106.4C118.643 106.4 121.043 101.5 121.043 95.4001Z" fill="white"/>
</g>
</g>
</svg>
