<?xml version="1.0" encoding="utf-8"?>
<!-- Generator: Adobe Illustrator 21.1.0, SVG Export Plug-In . SVG Version: 6.00 Build 0)  -->
<svg version="1.1" id="Ebene_1" xmlns="http://www.w3.org/2000/svg" xmlns:xlink="http://www.w3.org/1999/xlink" x="0px" y="0px"
	 viewBox="0 0 478.9 288" style="enable-background:new 0 0 478.9 288;" xml:space="preserve">
<style type="text/css">
	.st0{fill:#E8291A;}
	.st1{fill:#ED5B2B;}
	.st2{fill:#FBCCA1;}
	.st3{fill:#820F2E;}
	.st4{fill:#271607;}
	.st5{opacity:0.1;}
	.st6{clip-path:url(#SVGID_2_);fill:#FFFFFF;}
	.st7{fill:#3B3534;}
	.st8{fill:#6B102B;}
	.st9{fill:#002E2C;}
	.st10{fill:#941239;}
	.st11{opacity:0.9;}
	.st12{clip-path:url(#SVGID_4_);fill:#D8DADA;}
	.st13{clip-path:url(#SVGID_6_);fill:#D8DADA;}
	.st14{fill:#518198;}
	.st15{fill:#F69C00;}
	.st16{fill:#ED5607;}
	.st17{fill:#FDD184;}
	.st18{fill:#EA3C0F;}
	.st19{fill:#E6BFA5;}
	.st20{clip-path:url(#SVGID_8_);fill:#6B102B;}
	.st21{clip-path:url(#SVGID_10_);fill:#FFFFFF;}
	.st22{clip-path:url(#SVGID_12_);fill:#FFFFFF;}
	.st23{fill:#877C7A;}
	.st24{fill:#302B28;}
	.st25{fill:#5A524F;}
	.st26{fill:#A8A09E;}
	.st27{fill:#B8A8A6;}
	.st28{fill:#DCCECB;}
	.st29{opacity:0.3;}
	.st30{clip-path:url(#SVGID_14_);fill:#AADBE0;}
	.st31{opacity:0.2;}
	.st32{clip-path:url(#SVGID_16_);fill:#AADBE0;}
	.st33{fill:#FFE274;}
	.st34{fill:#FAB40C;}
	.st35{clip-path:url(#SVGID_18_);fill:#AADBE0;}
	.st36{clip-path:url(#SVGID_20_);fill:url(#SVGID_21_);}
	.st37{fill:#D78D5A;}
	.st38{fill:#D99A68;}
	.st39{fill:#66322A;}
	.st40{clip-path:url(#SVGID_23_);fill:url(#SVGID_24_);}
	.st41{fill:#BE7A50;}
	.st42{fill:#2F0C27;}
	.st43{fill:#636664;}
	.st44{fill:#4F2B1E;}
	.st45{fill:#542614;}
	.st46{fill:#79422C;}
	.st47{fill:#833500;}
	.st48{fill:#A57555;}
	.st49{fill:#485B5E;}
	.st50{fill:#7B8E91;}
	.st51{opacity:0.6;fill:#9EB1B5;}
	.st52{fill:#596D71;}
	.st53{fill:#F4931F;}
	.st54{fill:#9EB1B5;}
	.st55{fill:#FDCF0C;}
	.st56{fill:#F9AE15;}
	.st57{fill:#FFFFFF;}
	.st58{fill:#E7EAE1;}
	.st59{fill:#C6C4AF;}
	.st60{filter:url(#Adobe_OpacityMaskFilter);}
	.st61{opacity:0.1;mask:url(#SVGID_25_);}
	.st62{fill:#87442A;}
	.st63{filter:url(#Adobe_OpacityMaskFilter_1_);}
	.st64{opacity:0.1;mask:url(#SVGID_26_);}
	.st65{opacity:0.47;}
	.st66{clip-path:url(#SVGID_28_);fill:#FFFFFF;}
</style>
<path class="st3" d="M428.9,65.7c0,0-79.4,48-107.2,100.5c-9.4,17.8-12.7,33-12.8,45.2c-0.3,25.5,26.7,40.6,49.4,27.6
	c10.9-6.2,22.8-16.5,34.1-33.3C425.6,156.2,428.9,65.7,428.9,65.7"/>
<path class="st1" d="M349.8,201.5c2.1-3.5,4.2-7.1,6.3-10.6c14.8,0.2,29.7,0.4,44.5,0.6c0.2-0.4,0.4-0.9,0.6-1.3
	c-14.8-0.2-29.6-0.4-44.4-0.6c2-3.3,4-6.7,6-10c14.2,0,28.4,0.5,42.4,1.7c0.2-0.4,0.4-0.8,0.5-1.3c-14-1.2-28.1-1.8-42.2-1.8
	l5.7-9.6c13.4,0.5,26.8,1.1,40.2,1.6c0.2-0.4,0.3-0.9,0.5-1.3c-13.3-0.5-26.6-1.1-39.9-1.6c2-3.4,4-6.7,6-10.1
	c12.6-0.6,25.2-0.6,37.8-0.2c0.1-0.4,0.3-0.9,0.4-1.3c-12.4-0.5-24.9-0.4-37.4,0.1c2.1-3.5,4.1-6.9,6.2-10.4
	c11.3-0.4,22.6-0.2,33.9,0.4c0.1-0.4,0.2-0.9,0.3-1.3c-11.1-0.6-22.3-0.7-33.4-0.4c1.7-2.8,3.4-5.6,5-8.5c10.2-0.7,20.5-1,30.7-0.8
	c0.1-0.4,0.2-0.9,0.3-1.3c-10-0.2-20.1,0.1-30.2,0.8c2-3.4,4.1-6.9,6.1-10.3c8.7-1.5,17.5-2,26.3-1.6c0.1-0.4,0.2-0.9,0.2-1.3
	c-8.5-0.4-17.1,0.1-25.7,1.4l2.1-3.5c0.2-0.1,0.4-0.3,0.4-0.6c0.5-0.8,1-1.7,1.5-2.5c7.6-1.8,15.3-2.1,22.8-1.2
	c0.1-0.4,0.1-0.9,0.2-1.3c-7.3-0.9-14.8-0.6-22.1,0.9c1.5-2.6,3.1-5.1,4.6-7.7c6.3-0.9,12.5-1.4,18.8-1.5c0.1-0.4,0.1-0.9,0.2-1.3
	c-6,0-12.1,0.5-18.2,1.3l4.3-7.2c4.2,0,8.4,0,12.6,0.1c0.7,0,1.4,0,2.1,0c0.1-0.4,0.1-0.9,0.2-1.3c-1,0-2.1,0-3.1,0l-11-0.1l3.6-6.1
	c3.8-0.6,7.5-1.1,11.3-1.4c0-0.4,0.1-0.9,0.1-1.3c-3.5,0.3-7.1,0.7-10.6,1.3c1.4-2.4,2.8-4.7,4.2-7.1c2.3-0.3,4.7-0.5,7-0.6
	c0-0.4,0.1-0.9,0.1-1.3c-2.1,0.1-4.2,0.2-6.3,0.5c0.8-1.4,1.7-2.9,2.5-4.3c1.4-0.2,2.8-0.4,4.1-0.6c0-0.5,0.1-0.9,0.1-1.3l-3.4,0.5
	c1.3-2.1,2.5-4.3,3.8-6.4c0.1-2.1,0.2-3.2,0.2-3.2s-1,0.6-2.7,1.7l-4.2,7.1c-0.1-1.3-0.4-2.7-0.7-3.9c-0.4,0.2-0.8,0.5-1.2,0.8
	c0.4,1.7,0.6,3.4,0.7,5.1c-1,1.7-2,3.3-3,5c-0.3-2.6-0.8-5.2-1.5-7.6c-0.4,0.3-0.8,0.5-1.1,0.8c0.7,2.6,1.2,5.3,1.4,8.1
	c0,0.2,0.1,0.3,0.2,0.4c-1.8,3-3.6,6.1-5.4,9.1c-0.8-4.4-1.7-8.8-2.8-13.1c-0.4,0.3-0.8,0.5-1.2,0.8c1.1,4.6,2.1,9.3,2.9,14
	c-1.6,2.7-3.3,5.5-4.9,8.2c-1.2-6-2.5-12-3.9-18c-0.4,0.3-0.8,0.6-1.2,0.8c1.5,6.2,2.9,12.5,4.1,18.8c-2,3.4-4,6.7-6,10.1
	c-1.3-8.1-2.9-16-4.7-23.9c-0.4,0.3-0.8,0.6-1.2,0.9c1.9,8.2,3.6,16.5,4.8,24.8c-1.3,2.2-2.6,4.4-4,6.6c-2.9-8.5-5.8-16.9-8.6-25.4
	c-0.4,0.3-0.7,0.6-1.1,0.9c2.9,8.7,5.9,17.4,8.8,26c-2.6,4.3-5.1,8.6-7.7,12.9c-1.8-11.4-4.3-22.7-7.4-33.8
	c-0.4,0.3-0.7,0.6-1.1,0.9c3.1,11.4,5.6,22.9,7.5,34.6c-2.3,3.9-4.7,7.9-7,11.8c-3.9-12.2-7.8-24.4-11.7-36.6
	c-0.4,0.3-0.7,0.7-1.1,1c3.9,12.4,7.9,24.8,11.8,37.1c-0.9,1.5-1.8,3-2.7,4.5c-1.1,1.8-2.2,3.7-3.3,5.5
	c-4.5-13.3-9.1-26.5-13.6-39.8c-0.3,0.3-0.7,0.7-1,1c4.6,13.4,9.2,26.8,13.8,40.2c-1.7,2.8-3.4,5.6-5,8.4c-6-13-11.9-26.1-17.9-39.1
	c-0.3,0.4-0.6,0.7-1,1.1l18,39.2c0,0.1,0.1,0.1,0.1,0.2c-2.4,4-4.8,8-7.2,12.1c-6.1-14.3-12.1-28.6-18.2-42.9
	c-0.3,0.4-0.6,0.8-0.9,1.2c6.1,14.4,12.2,28.8,18.3,43.2c-1.8,3-3.6,6-5.4,9c-7.4-13.1-14.9-26.2-22.3-39.3
	c-0.3,0.4-0.5,0.8-0.8,1.3c7.4,13.1,14.9,26.2,22.3,39.4c-1.9,3.2-3.8,6.4-5.7,9.6c-8.6-11.7-16.4-23.9-23.5-36.6
	c-0.2,0.5-0.5,1-0.7,1.5c7.1,12.6,15,24.7,23.5,36.4c-3.1,5.2-6.2,10.4-9.3,15.6c-7.7-10.5-14.8-21.3-21.5-32.5
	c-0.2,0.6-0.3,1.2-0.5,1.8c6.5,10.9,13.5,21.5,21,31.7c0,0.1,0.1,0.1,0.2,0.1c-1.3,2.2-2.6,4.4-3.9,6.6c-6.5-8.1-13-16.1-19.5-24.2
	c0,0.7-0.1,1.3-0.1,2c6.3,7.8,12.6,15.6,18.9,23.4c-1.3,2.2-2.6,4.3-3.9,6.5c0.8,0.5,1.7,1,2.6,1.4c0.4-0.6,0.7-1.2,1.1-1.8
	c9.3,0.6,18.6,1.2,27.9,1.7c0.8-0.4,1.5-0.7,2.3-1.2l-29.4-1.8c1.2-1.9,2.3-3.9,3.5-5.8c11.6,0.6,23.2,1.2,34.8,1.9
	c0.5-0.4,1.1-0.8,1.6-1.2c-11.9-0.6-23.8-1.3-35.7-1.9c1.8-3,3.6-6,5.4-9c13.1,0.9,26.3,1.9,39.4,2.8c0.4-0.4,0.8-0.8,1.2-1.2
	c-13.3-0.9-26.6-1.9-39.9-2.8c1.6-2.6,3.1-5.2,4.7-7.9c0-0.1,0.1-0.1,0.1-0.2c14.1,0.3,28.1,1.3,41.9,3.1c0.3-0.4,0.6-0.8,1-1.2
	c-13.9-1.8-28-2.8-42.1-3.2c0.2-0.3,0.4-0.7,0.6-1c0.1-0.1,0.1-0.1,0.1-0.2c1.3-2.2,2.6-4.4,3.9-6.6c15.1-0.8,30.3-0.9,45.3-0.2
	c0.3-0.4,0.5-0.8,0.8-1.3C380.1,200.7,365,200.8,349.8,201.5"/>
<g>
	<path class="st2" d="M42.7,84.6c0,0,11.6,80.8,44.6,121.3c11.2,13.7,22.3,21.6,32.2,25.9c20.5,9,42-7.7,39.3-30.5
		c-1.3-11-5.5-24.2-15.3-39C114.8,118.4,42.7,84.6,42.7,84.6"/>
	<path class="st1" d="M125.5,195.3c-2.1-2.9-4.3-5.8-6.4-8.7c5.2-11.9,10.5-23.9,15.7-35.8c-0.3-0.3-0.6-0.6-0.8-1
		c-5.2,11.9-10.5,23.8-15.7,35.7c-2-2.8-4-5.5-6.1-8.3c4.8-11.5,10.2-22.8,16-33.7c-0.3-0.3-0.6-0.6-0.8-0.9
		c-5.8,10.9-11.1,22.1-15.9,33.5l-5.8-7.9c5-10.7,10.1-21.3,15.1-32c-0.3-0.3-0.6-0.5-0.9-0.8c-5,10.6-10,21.2-15,31.8
		c-2-2.8-4.1-5.5-6.1-8.3c3.9-10.4,8.1-20.6,12.8-30.6c-0.3-0.3-0.6-0.5-0.9-0.8c-4.6,9.9-8.9,20-12.7,30.3
		c-2.1-2.9-4.2-5.7-6.3-8.6c3.6-9.3,7.6-18.4,11.9-27.3c-0.3-0.2-0.6-0.5-0.9-0.7c-4.3,8.8-8.2,17.8-11.8,26.9
		c-1.7-2.3-3.4-4.7-5.1-7c2.9-8.5,6.2-16.9,9.9-25.1c-0.3-0.2-0.6-0.5-1-0.7c-3.6,8.1-6.9,16.3-9.7,24.7c-2.1-2.8-4.2-5.7-6.2-8.5
		c1.8-7.6,4.4-14.9,7.7-21.8c-0.3-0.2-0.6-0.4-1-0.6c-3.3,6.8-5.8,13.9-7.6,21.3l-2.1-2.9c0-0.2-0.1-0.4-0.4-0.5
		c-0.5-0.7-1-1.4-1.5-2.1c1.2-6.7,3.5-13.1,6.9-18.9c-0.3-0.2-0.6-0.4-1-0.6c-3.3,5.6-5.6,11.7-6.8,18.2c-1.6-2.1-3.1-4.2-4.7-6.4
		c1.4-5.4,3.1-10.6,5.3-15.7c-0.3-0.2-0.7-0.4-1-0.6c-2.1,4.9-3.8,10-5.1,15.2l-4.3-5.9c1.5-3.4,2.9-6.8,4.4-10.2
		c0.2-0.6,0.5-1.1,0.7-1.7c-0.3-0.2-0.7-0.4-1-0.6c-0.4,0.8-0.7,1.7-1.1,2.5l-3.8,8.9l-3.7-5c0.8-3.3,1.7-6.5,2.8-9.7
		c-0.3-0.2-0.7-0.4-1-0.6c-1,3-1.9,6-2.6,9c-1.4-2-2.9-3.9-4.3-5.8c0.6-2,1.2-4,1.9-5.9c-0.3-0.2-0.7-0.4-1-0.5
		c-0.7,1.7-1.2,3.5-1.8,5.3c-0.9-1.2-1.7-2.4-2.6-3.5c0.3-1.2,0.6-2.4,1-3.6c-0.4-0.2-0.7-0.4-1-0.5l-0.8,2.9
		c-1.3-1.8-2.6-3.5-3.9-5.3c-1.6-0.8-2.5-1.2-2.5-1.2s0.1,1,0.4,2.8l4.3,5.9c-1.1-0.3-2.3-0.6-3.4-0.8c0.1,0.4,0.1,0.8,0.2,1.2
		c1.5,0.3,3,0.7,4.4,1.2c1,1.4,2,2.7,3,4.1c-2.2-0.7-4.4-1.2-6.7-1.4c0.1,0.4,0.2,0.8,0.2,1.2c2.4,0.3,4.7,0.8,7,1.6
		c0.2,0.1,0.3,0,0.4,0c1.8,2.5,3.7,5,5.5,7.5c-3.8-0.9-7.7-1.6-11.6-2.2c0.1,0.4,0.2,0.8,0.3,1.2c4.1,0.7,8.3,1.5,12.3,2.4
		c1.7,2.3,3.3,4.5,5,6.8c-5.3-1.1-10.6-2.1-15.9-3c0.1,0.4,0.2,0.8,0.3,1.2c5.6,0.9,11.1,2,16.7,3.2c2,2.8,4.1,5.5,6.1,8.3
		c-7-1.7-14-3.2-21-4.4c0.1,0.4,0.2,0.8,0.3,1.2c7.3,1.2,14.6,2.8,21.8,4.6c1.3,1.8,2.7,3.7,4,5.5c-7.8-0.6-15.7-1.2-23.5-1.7
		c0.1,0.4,0.2,0.8,0.3,1.2c8,0.6,16.1,1.2,24.1,1.8c2.6,3.5,5.2,7.1,7.8,10.6c-9.9-2.4-19.9-4.3-29.9-5.6c0.1,0.4,0.3,0.8,0.4,1.2
		c10.3,1.4,20.5,3.3,30.6,5.8c2.4,3.2,4.8,6.5,7.1,9.7c-11.2-1-22.4-2.1-33.6-3.1c0.1,0.4,0.3,0.8,0.4,1.2
		c11.4,1.1,22.8,2.1,34.1,3.2c0.9,1.2,1.8,2.5,2.7,3.7c1.1,1.5,2.2,3,3.3,4.5c-12.3-0.9-24.6-1.8-36.9-2.7c0.2,0.4,0.3,0.8,0.5,1.2
		c12.4,0.9,24.9,1.8,37.3,2.7c1.7,2.3,3.4,4.6,5.1,7c-12.6,0.4-25.2,0.7-37.8,1.1c0.2,0.4,0.4,0.8,0.5,1.2l37.9-1.1
		c0.1,0,0.1,0,0.2,0c2.4,3.3,4.9,6.6,7.3,10c-13.7,0-27.3,0-41,0c0.2,0.4,0.4,0.8,0.6,1.2c13.7,0,27.5,0,41.2,0
		c1.8,2.5,3.6,5,5.5,7.5c-13.2,1.5-26.3,3-39.5,4.5c0.2,0.4,0.5,0.7,0.7,1.1c13.2-1.5,26.4-3,39.5-4.6c1.9,2.6,3.9,5.3,5.8,7.9
		c-12.4,2.9-25,5.1-37.7,6.5c0.3,0.4,0.6,0.7,0.9,1.1c12.6-1.4,25.2-3.6,37.5-6.5c3.2,4.3,6.3,8.6,9.5,12.9
		c-11.1,2.6-22.3,4.7-33.7,6.2c0.4,0.3,0.9,0.7,1.3,1c11.1-1.5,22.1-3.6,32.9-6.1c0.1,0,0.1,0,0.2-0.1c1.3,1.8,2.7,3.6,4,5.4
		c-8.8,2.5-17.5,5-26.3,7.5c0.5,0.3,1.1,0.5,1.6,0.8c8.5-2.4,17-4.8,25.5-7.3c1.3,1.8,2.6,3.6,3.9,5.4c0.7-0.5,1.4-1.1,2-1.6
		c-0.4-0.5-0.7-1-1.1-1.5c3.7-7.3,7.3-14.6,11-22c0-0.7-0.1-1.5-0.2-2.2l-11.6,23.2c-1.2-1.6-2.3-3.2-3.5-4.8
		c4.5-9.2,9-18.4,13.5-27.5c-0.1-0.6-0.3-1.1-0.4-1.7c-4.6,9.4-9.2,18.8-13.8,28.2c-1.8-2.5-3.6-5-5.5-7.4
		c5.3-10.3,10.5-20.6,15.8-30.9c-0.2-0.5-0.4-0.9-0.6-1.4c-5.3,10.4-10.7,20.9-16,31.3c-1.6-2.2-3.2-4.3-4.8-6.5
		c0-0.1-0.1-0.1-0.1-0.2c5.1-11.3,10.7-22.3,16.9-32.9c-0.2-0.4-0.4-0.8-0.6-1.2c-6.2,10.7-11.9,21.7-17,33
		c-0.2-0.3-0.4-0.6-0.6-0.8c0-0.1-0.1-0.1-0.1-0.2c-1.3-1.8-2.7-3.6-4-5.4c4.6-12.5,9.7-24.8,15.4-36.8c-0.3-0.4-0.5-0.7-0.8-1.1
		C135.2,170.5,130.1,182.8,125.5,195.3"/>
</g>
<path class="st3" d="M48.3,225.6c0,0,3.6-30.2,12.3-30.7c8.7-0.5,14.2,22.9,14.2,22.9s4.5-44.8,16.8-45.8
	c12.3-1,14.2,24.8,14.2,24.8s1.9-40.4,15.5-40.9c13.6-0.5,17.2,21.4,17.2,21.4c2.3-24.3,21-23.9,21.4-2.9
	c0.3,20.9,15.2,34.1,15.2,34.1s2.3-25.8,13.3-27.7c11-1.9,13.9,31.2,13.9,31.2s3.9-38.9,15.9-38c12,1,12.3,31.9,12.3,31.9
	s1-37.7,12-36.3c11,1.5,9.1,34.1,9.4,45.3c0.3,11.2,8.7,27.3,24.3,9.3c15.5-18,21.7,22.4,21.7,22.4l-240.9,0
	C46,246.6,48.3,225.6,48.3,225.6"/>
<g>
	<path class="st1" d="M355.8,148c-1.8-5.6-3.3-8.6,3.2-12.1c6.5-3.4,4-8.2,2.2-13.8c-1.8-5.6-0.2-12,8.7-20.2
		c8.9-8.2,3.9-13.2,2.8-19.4c-1-6.2-1-7.8,4.6-15c5.5-7.2,1.4-12.9-3-18.8c-4.4-5.9,1.3-31.6,1.3-31.6s-10.1,3.5-14.9,17
		c-4.8,13.5-9.7,2.3-17.3,13c-7.6,10.7-0.1,18-9.2,20.9c-9.1,2.9-15.5,7.8-15.8,23c-0.3,15.2-13.2,13.2-15.7,23.9
		c-2.6,10.8,9,12.8,2.9,20.4c-6.1,7.7-10.6,9.6-5.5,17.8c5.1,8.2-5.9,14-1.1,25.6c0.2,0.4,0.4,0.9,0.6,1.3
		c6.2,12.7,22.2,15.9,32.7,6.3c2.4-2.2,4-4.6,4.2-7.2c0.7-10.3,1.9-10.1,10.7-10.9C355.9,167.4,357.6,153.6,355.8,148"/>
	<path class="st3" d="M362.9,91.9c-4.4-0.1-8.8,0.4-13.1,1.5c2.1-5.4,4-10.9,5.7-16.5c0.6-1.9,1.2-3.9,1.8-5.8
		c0.1,0,0.1-0.1,0.2-0.2c2.8-3.2,6.1-5.9,9.8-7.9c0.8-0.4,0.2-1.7-0.5-1.3c-3.2,1.8-6.1,3.9-8.6,6.6c3.6-12.4,6.7-24.9,9.7-37.5
		c0.2-0.9-1-1.3-1.2-0.5c-2.9,12-5.9,24-9.3,35.9c-1.5-3.5-3.6-6.7-6-9.5c-0.6-0.7-1.6,0.3-1,0.9c2.7,3.1,4.8,6.6,6.4,10.5
		c0,0.1,0.1,0.1,0.1,0.2c-0.3,1-0.6,1.9-0.9,2.9c-2.3,7.6-4.8,15.1-7.6,22.5c-2.8-4-6-7.7-9.4-11.1c-0.6-0.6-1.6,0.3-1,0.9
		c3.6,3.6,6.9,7.5,9.9,11.8c-2,5.2-4,10.3-6.2,15.4c-2.3,5.5-4.8,11-7.2,16.5c-2.4-4.2-5.1-8.3-8-12.1c-0.5-0.7-1.6,0.2-1,0.9
		c3,3.9,5.7,8.1,8.2,12.4c0.1,0.1,0.1,0.2,0.2,0.2c-3,6.7-6,13.5-8.9,20.3c-0.5,1.3-1.1,2.6-1.6,3.9c-2.1-3.2-4.6-6.1-7.5-8.6
		c-0.6-0.6-1.4,0.6-0.8,1.2c2.9,2.6,5.4,5.5,7.5,8.8c0,0.1,0.1,0.1,0.1,0.2c-4.4,10.8-7.1,17.3-10.4,28.5c-4,13.5,1.8-1.7,3.9-7.9
		c2.3-6.7,4.8-13.2,7.5-19.7c0,0,0-0.1,0-0.1c4.6-0.6,9.2-0.8,13.9-0.5c0.9,0.1,1-1.3,0.1-1.4c-4.5-0.3-8.9-0.1-13.4,0.4
		c3.5-8.4,7.2-16.7,10.8-25c4.9-0.6,9.8-1.2,14.7-1.8c0.9-0.1,0.6-1.5-0.2-1.4c-4.6,0.6-9.2,1.1-13.9,1.7c4.6-10.6,9.2-21.2,13.4-32
		c4.4-1.3,9-1.8,13.5-1.7C363.6,93.3,363.7,91.9,362.9,91.9"/>
	<path class="st3" d="M352.1,51c0.4,0.5,0.7,1,1.1,1.5c0.3,0.4,0.9,0.7,1.4,0.3c0.4-0.3,0.7-1,0.4-1.4c-0.4-0.5-0.7-1-1.1-1.5
		c-0.3-0.4-0.9-0.7-1.4-0.3C352,49.8,351.7,50.6,352.1,51"/>
	<path class="st3" d="M356.6,47.8c0,0.7-0.1,1.3-0.1,2c0,0.6,0.5,1,1,1c0.6,0,1-0.5,1-1.1c0-0.7,0.1-1.3,0.1-2c0-0.6-0.5-1-1-1
		C357,46.7,356.7,47.2,356.6,47.8"/>
	<path class="st3" d="M346.7,52.6l1.3,1.7c0.3,0.4,0.9,0.7,1.4,0.3c0.4-0.3,0.7-1,0.4-1.4l-1.3-1.7c-0.3-0.4-0.9-0.7-1.4-0.3
		C346.6,51.5,346.4,52.2,346.7,52.6"/>
	<path class="st3" d="M366.3,54.5c-0.2,0.5-0.4,1.1-0.6,1.6c-0.2,0.5,0.2,1.2,0.7,1.3c0.6,0.1,1-0.2,1.2-0.8
		c0.2-0.5,0.4-1.1,0.6-1.6c0.2-0.5-0.2-1.2-0.7-1.3C367,53.6,366.5,53.9,366.3,54.5"/>
	<path class="st3" d="M371.7,58.6c-0.1,0.1-0.2,0.2-0.3,0.3c-0.1,0.1-0.1,0.1-0.2,0.1c0.1,0,0.1,0,0,0c-0.1,0.1-0.2,0.1-0.3,0.2
		c0,0-0.3,0.2-0.2,0.1c-0.5,0.2-0.9,0.7-0.7,1.3c0.1,0.5,0.7,0.9,1.2,0.7c0.7-0.3,1.3-0.8,1.8-1.4c0.3-0.4,0.4-1.1,0-1.5
		C372.7,58.2,372,58.2,371.7,58.6"/>
	<path class="st3" d="M371.4,64.7c-0.7,0-1.3-0.1-2-0.1c-0.5,0-1,0.6-1,1.1c0,0.6,0.5,1,1,1c0.7,0,1.3,0.1,2,0.1c0.5,0,1-0.6,1-1.1
		C372.4,65.1,371.9,64.8,371.4,64.7"/>
	<path class="st3" d="M330.2,84.5c0.7,0,1.4,0,2.1,0c0.5,0,1-0.5,1-1.1c0-0.6-0.5-1-1-1l-2.1,0c-0.5,0-1,0.5-1,1.1
		C329.2,84.1,329.6,84.5,330.2,84.5"/>
	<path class="st3" d="M332.8,78.2c0.5,0.5,1,1,1.5,1.6c0.9,0.9,2.3-0.6,1.4-1.5c-0.5-0.5-1-1-1.5-1.6
		C333.3,75.7,331.9,77.2,332.8,78.2"/>
	<path class="st3" d="M339.1,74.9c-0.2,0.7-0.2,1.4,0,2.1c0.1,0.5,0.7,0.9,1.2,0.7c0.5-0.2,0.8-0.7,0.7-1.3c0,0-0.1-0.4,0-0.2
		c0-0.1,0-0.2,0-0.4c0-0.1,0-0.1,0-0.2c0,0.1,0,0.1,0,0c0-0.1,0-0.2,0.1-0.3c0.1-0.5-0.2-1.2-0.7-1.3
		C339.7,74,339.2,74.4,339.1,74.9"/>
	<path class="st3" d="M344,77.3c-0.1,0.5-0.3,0.9-0.4,1.4c-0.2,0.5,0.2,1.2,0.7,1.3c0.6,0.1,1-0.2,1.2-0.8c0.1-0.5,0.3-0.9,0.4-1.4
		c0.2-0.5-0.2-1.2-0.7-1.3C344.6,76.4,344.2,76.7,344,77.3"/>
	<path class="st3" d="M360.9,87.3c0,0.5,0,0.9-0.1,1.4c0,0.5,0.5,1.1,1,1c0.6,0,1-0.5,1-1.1c0-0.5,0-0.9,0.1-1.4c0-0.6-0.5-1.1-1-1
		C361.3,86.3,360.9,86.7,360.9,87.3"/>
	<path class="st3" d="M367.5,89.2c-0.5,0.3-1,0.6-1.6,0.9c-0.5,0.3-0.6,1-0.4,1.4c0.3,0.5,0.9,0.6,1.4,0.3c0.5-0.3,1-0.6,1.6-0.9
		c0.5-0.3,0.6-1,0.4-1.4C368.6,89,368,88.9,367.5,89.2"/>
	<path class="st3" d="M367.8,96c-0.6-0.4-1.2-0.7-1.7-1.1c-0.5-0.3-1.1,0-1.4,0.4c-0.3,0.5-0.1,1.1,0.4,1.4c0.6,0.4,1.2,0.7,1.7,1.1
		c0.5,0.3,1.1,0,1.4-0.4C368.4,96.9,368.2,96.3,367.8,96"/>
	<path class="st3" d="M360.9,98.8c0.4,0.6,0.8,1.2,1.3,1.7c0.3,0.4,0.9,0.7,1.4,0.3c0.4-0.3,0.7-1,0.4-1.4l-1.3-1.7
		c-0.3-0.4-0.9-0.7-1.4-0.3C360.9,97.6,360.6,98.3,360.9,98.8"/>
	<path class="st3" d="M321.3,118.5c-0.7,0-1.4,0-2.2-0.1c-0.5,0-1,0.6-1,1.1c0,0.6,0.5,1,1,1c0.7,0,1.4,0,2.2,0.1c0.5,0,1-0.6,1-1.1
		C322.3,118.9,321.9,118.5,321.3,118.5"/>
	<path class="st3" d="M319.3,111.8c-1.1-0.3-2.2-0.7-3.3-1c-1.2-0.4-1.7,1.7-0.5,2c1.1,0.3,2.2,0.7,3.3,1
		C320,114.2,320.5,112.1,319.3,111.8"/>
	<path class="st3" d="M320.6,107.3c0.5,0.8,1.1,1.6,1.6,2.5c0.7,1.1,2.4,0,1.7-1.1c-0.5-0.8-1.1-1.6-1.6-2.5
		C321.7,105.1,319.9,106.2,320.6,107.3"/>
	<path class="st3" d="M328,105.6l0,1.6c0,0.5,0.5,1.1,1,1c0.6,0,1-0.5,1-1.1c0-0.5,0-1.1,0-1.6c0-0.5-0.5-1.1-1-1
		C328.5,104.6,328,105,328,105.6"/>
	<path class="st3" d="M332.9,110.8c-0.4,0.7-0.8,1.4-1.1,2.1c-0.6,1.2,1.1,2.2,1.7,1c0.4-0.7,0.8-1.4,1.1-2.1
		C335.3,110.6,333.5,109.7,332.9,110.8"/>
	<path class="st3" d="M345.5,119.8c-0.1,0.7-0.3,1.3-0.4,2c-0.1,0.6,0.2,1.1,0.7,1.3c0.5,0.1,1.1-0.2,1.2-0.8c0.1-0.7,0.3-1.3,0.4-2
		c0.1-0.6-0.2-1.1-0.7-1.3C346.2,118.9,345.6,119.3,345.5,119.8"/>
	<path class="st3" d="M353.8,116.9c-0.5,1-1,1.9-1.6,2.9c-0.6,1.2,1.1,2.2,1.7,1c0.5-1,1-1.9,1.6-2.9
		C356.2,116.7,354.5,115.7,353.8,116.9"/>
	<path class="st3" d="M356.6,125.2c-1.1,0-2.2-0.1-3.2-0.1c-1.3,0-1.3,2.1,0,2.1c1.1,0,2.2,0.1,3.2,0.1
		C357.9,127.3,357.8,125.2,356.6,125.2"/>
	<path class="st3" d="M354.4,132.9c-0.8-0.5-1.7-1-2.5-1.4c-1.1-0.6-2.1,1.2-1,1.9c0.8,0.5,1.7,1,2.5,1.4
		C354.5,135.3,355.5,133.5,354.4,132.9"/>
	<path class="st3" d="M349.2,136.5c-1-1.1-2.1-2-3.3-2.8c-1.1-0.7-2.1,1.2-1,1.9c1.1,0.7,2,1.5,2.9,2.5
		C348.7,139,350.1,137.5,349.2,136.5"/>
	<path class="st3" d="M311.2,149.5c-1,0.3-2,0.6-3,0.9c-1.2,0.4-0.7,2.4,0.5,2c1-0.3,2-0.6,3-0.9C313,151.1,312.4,149.1,311.2,149.5
		"/>
	<path class="st3" d="M307.2,146.1c0.8,0.3,1.6,0.5,2.5,0.8c0.5,0.2,1.1-0.3,1.2-0.8c0.1-0.6-0.2-1.1-0.7-1.3
		c-0.8-0.3-1.6-0.5-2.5-0.8c-0.5-0.2-1.1,0.3-1.2,0.8C306.3,145.5,306.7,146,307.2,146.1"/>
	<path class="st3" d="M308.2,138.5c0.7,0.4,1.4,0.8,2.1,1.2c1.1,0.6,2.1-1.2,1-1.9c-0.7-0.4-1.4-0.8-2.1-1.2
		C308.1,136,307.1,137.9,308.2,138.5"/>
	<path class="st3" d="M316.4,136c0.2,0.7,0.3,1.4,0.5,2.2c0.1,0.5,0.7,0.9,1.2,0.7c0.5-0.2,0.8-0.7,0.7-1.3
		c-0.2-0.7-0.3-1.4-0.5-2.2c-0.1-0.5-0.7-0.9-1.2-0.7C316.6,134.8,316.3,135.4,316.4,136"/>
	<path class="st3" d="M320.7,140.7c-0.2,0.6-0.4,1.2-0.6,1.9c-0.2,0.5,0.2,1.1,0.7,1.3c0.6,0.1,1-0.2,1.2-0.8
		c0.2-0.6,0.4-1.2,0.6-1.9c0.2-0.5-0.2-1.1-0.7-1.3C321.4,139.7,320.9,140.1,320.7,140.7"/>
	<path class="st3" d="M333.4,146.5c-0.6,0.6-1.1,1.2-1.7,1.8c-0.9,1,0.5,2.4,1.4,1.4c0.6-0.6,1.1-1.2,1.7-1.8
		C335.7,146.9,334.3,145.5,333.4,146.5"/>
	<path class="st3" d="M339.4,146.9c-0.5,0.7-1.1,1.3-1.8,1.8c-1.1,0.8-0.1,2.5,1,1.8c0.8-0.6,1.6-1.3,2.2-2.1c0.3-0.4,0.4-1.1,0-1.5
		C340.5,146.5,339.8,146.4,339.4,146.9"/>
	<path class="st3" d="M345.2,151.4c-1.1,0.3-2.1,0.3-3.2,0.3c-0.5,0-1,0.6-1,1.1c0,0.6,0.5,1,1,1c1.3,0.1,2.5,0,3.7-0.4
		C346.9,153.1,346.4,151.1,345.2,151.4"/>
	<path class="st3" d="M344.3,157.7c-1.1-0.4-2.1-0.8-3.2-1.2c-0.5-0.2-1.1,0.3-1.2,0.8c-0.2,0.6,0.2,1.1,0.7,1.3
		c1.1,0.4,2.1,0.8,3.2,1.2c0.5,0.2,1.1-0.3,1.2-0.8C345.2,158.3,344.8,157.9,344.3,157.7"/>
	<path class="st3" d="M338.1,160.9c-1.5-1.4-3-2.9-4.5-4.3c-0.9-0.9-2.3,0.6-1.4,1.5c1.5,1.4,3,2.9,4.5,4.3
		C337.7,163.3,339.1,161.8,338.1,160.9"/>
	<path class="st3" d="M330.4,160.3c-0.8-0.4-1.5-0.9-2.3-1.3c-1.1-0.6-2.1,1.2-1,1.9c0.8,0.4,1.5,0.9,2.3,1.3
		C330.5,162.7,331.5,160.9,330.4,160.3"/>
</g>
<g>
	<path class="st49" d="M350.1,196.4l2.5-7.5c0,0,11.6-6.2,28.5-1.6l-2.5,7.5C378.6,194.8,366.7,191.9,350.1,196.4z"/>
	<path class="st50" d="M377,199.7l4.1-12.3c0,0-6.6-2.2-11.2-1.4l-4.1,12.3L377,199.7z"/>
	<path class="st49" d="M346,208.4l2.5-7.5c0,0,11.6-6.2,28.5-1.6l-2.5,7.5C374.5,206.8,362.6,204,346,208.4z"/>
	<g>
		<path class="st49" d="M217.5,147.3l2.7-8c0,0-5.9-12.7-23.2-19.7l-2.7,8C194.2,127.5,206.2,132.8,217.5,147.3z"/>
		<path class="st50" d="M192.6,132.4l4.1-12.3c0,0,6.4,2.2,9.5,5.6l-4.1,12.3L192.6,132.4z"/>
		<path class="st50" d="M212.8,132.6L197,207.3c-2.4,7.1,25.3,22.9,62,35.2c36.6,12.3,68.2,16.5,70.6,9.4l32.5-69.1L212.8,132.6z"/>
		<path class="st51" d="M224.9,205.8c3.6-21.7,7.8-43.3,14.1-64.4l-12-4c-5.5,20.3-9.5,40.9-13,61.6
			C217.5,201.5,221.2,203.7,224.9,205.8z"/>
		<path class="st51" d="M213.1,204.8c-0.9,5.5-1.8,11-2.7,16.4c3.2,2,7,4,11.2,6.1c0.8-5.3,1.6-10.6,2.5-15.9
			C220.3,209.3,216.6,207.1,213.1,204.8z"/>
		<path class="st51" d="M237.2,211.2c3.6-18.7,7.6-37.4,12.6-55.9l-7.7-2.3c-4.6,18.1-8.5,36.4-12,54.7
			C232.6,208.8,234.9,210,237.2,211.2z"/>
		<path class="st51" d="M229.2,213c-1.1,5.5-2.1,11.1-3.1,16.6c2.4,1.1,4.8,2,7.2,2.9c1-5.4,1.9-10.7,3-16.1
			C233.9,215.3,231.5,214.2,229.2,213z"/>
		<path class="st52" d="M277.3,138.5c-3-0.9-5.9-1.7-8.7-2.5c-2.3,9.5-4,19.2-5.7,28.9c2.5,1,5.1,2,7.7,3
			C272.7,158.1,274.9,148.3,277.3,138.5z"/>
		<path class="st49" d="M213.1,160.2l2.7-8c0,0-5.9-12.7-23.2-19.7l-2.7,8C189.9,140.4,201.9,145.6,213.1,160.2z"/>
		<path class="st49" d="M362,182.8c2.7-8-28.5-25.7-69.7-39.6c-41.2-13.8-76.7-18.6-79.4-10.6c-1.3,3.9,5.3,10,17.2,16.9
			c9.4-1.6,31.8,2.6,57,11c24.8,8.3,45,18.4,51.8,25.4C352,187.5,360.7,186.5,362,182.8z"/>
		<path class="st53" d="M295.3,163.4L295.3,163.4c-19.2-7.6-33.1-24.2-42.9-39.3c-10.8-16.7-23.9-27.9-20.1-17.9
			c5.4,14.2-11.6-2.8-17.8-9c-6.2-6.2-20.8-12.9-5.9,4.2c14.9,17.2,0.4,5.4-23.1-6c-15.9-7.7-25.5,4.5-4.8,5.5
			c20.7,1,32.5,23.1,32.1,31.6s17.2,16.9,17.2,16.9c12.7,7.3,31.2,15.5,52.5,22.7c21.6,7.3,41.7,12,56.3,13.8
			C332.8,179.8,316.3,171.1,295.3,163.4z M247.4,150.4L247.4,150.4C247.4,150.4,247.4,150.4,247.4,150.4L247.4,150.4z"/>
		<g>
			<path class="st49" d="M368.2,179.4c-5.6,7.1-39.6-10.4-76.1-39.1c-36.5-28.7-61.5-57.7-55.9-64.8c5.6-7.1,45.2,3.3,81.6,32
				C354.3,136.2,373.8,172.3,368.2,179.4z"/>
			<path class="st50" d="M370.8,173.5c-5.6,7.1-39.6-10.4-76.1-39.1c-36.5-28.7-61.5-57.7-55.9-64.8c5.6-7.1,45.2,3.3,81.6,32
				S376.3,166.4,370.8,173.5z"/>
			<path class="st54" d="M304.1,94.7c7.2,3.2,14.4,6.9,21.4,11c-1.7-1.4-3.4-2.8-5.1-4.2c-36.5-28.7-76.1-39.1-81.6-32
				c-1.7,2.2-0.5,6.4,2.9,12C263,79.6,284.9,86.1,304.1,94.7z"/>
			<g>
				<path class="st49" d="M307,83.9l-5.9,11.5c-1.6,2.1,3.5,8.5,11.3,14.3c7.8,5.8,15.4,8.8,17,6.7l9.3-8.9
					C338.7,107.5,306.8,83.2,307,83.9z"/>
				
					<ellipse transform="matrix(0.5972 -0.8021 0.8021 0.5972 53.2497 297.4948)" class="st50" cx="322.8" cy="95.7" rx="5.3" ry="19.8"/>
			</g>
		</g>
	</g>
</g>
<g>
	<path class="st54" d="M150.7,147.9l27.4-13.4l31.7,64.9c0,0,3.6,9.5-22.9,22.5s-31.9,4.3-31.9,4.3l-31.7-64.9L150.7,147.9z"/>
	<path class="st50" d="M136.2,155l31.7,64.9c0,0,4.4,7.3,25.3-1.3c-1.9,1.1-4,2.2-6.3,3.4c-26.6,13-31.9,4.3-31.9,4.3l-31.7-64.9
		L136.2,155z"/>
	<path class="st50" d="M157.2,217.2l-0.5-6.4c-6.5,0.5-18,0.5-21.6-1.5c-3.5-2-8.4-12.4-11.6-24.9c-1.1-4.3,0.5-6,1.9-6.9
		c1.7-1.1,3.7-1.9,5.9-2.8c1.3-0.5,2.7-1.1,4.1-1.8l-2.8-5.8c-1.2,0.6-2.4,1.1-3.7,1.6c-2.3,0.9-4.7,1.9-7,3.4
		c-4.5,3-6.2,7.9-4.7,13.9c1.5,5.7,6.8,24.6,14.7,28.9C138.2,218.3,154,217.4,157.2,217.2z"/>
	<path class="st55" d="M202.1,197.7c0.5,2-1.7,4.1-3,5.4c-2.1,2.2-4.6,3.7-7.1,5.3c-3,1.9-6.1,3.6-9.2,5.1c-3.2,1.5-6.4,3-9.7,4.2
		c-2.8,1-5.5,2-8.5,2.3c-1.8,0.2-4.9,0.7-6.2-1c-0.3-0.4-0.5-0.7-0.8-1.1l-19.5-39.8c14.5-14.3,31.8-19.8,43.8-22l19.7,40.3
		C201.9,196.8,202,197.3,202.1,197.7z"/>
	<path class="st56" d="M145.3,172l23.1,47.3c-1.2,0.3-2.5,0.6-3.8,0.7c-1.8,0.2-4.9,0.7-6.2-1c-0.3-0.4-0.5-0.7-0.8-1.1l-19.5-39.8
		C140.5,175.8,142.9,173.8,145.3,172z"/>
	<path class="st57" d="M174.4,155.6l20.4,41.7l-15.1-43.8c-0.5-1.5-2.1-2.3-3.6-1.8c-1.5,0.5-2.3,2.1-1.8,3.6
		C174.3,155.4,174.3,155.5,174.4,155.6z"/>
	<path class="st58" d="M120,147.5c0,0,0.1-0.1,0.1-0.1c-0.3-2.8,1-5.7,3.6-7.2c0.3-0.2,0.5-0.3,0.8-0.4c0.5-6.7,5.2-12.6,12-14.2
		c2.8-0.7,5.7-0.6,8.3,0.2c0.9-1.9,2.4-3.6,4.3-4.8c4.8-2.9,10.8-1.7,14.2,2.5c3.8-1.6,8-1.3,11.5,0.7c3.8-2,8.5-0.7,10.7,3
		c2.3,3.8,1.1,8.8-2.8,11.1c-0.6,0.3-1.2,0.6-1.8,0.8c-0.9,3.2-2.9,6-5.9,7.8c-3.2,1.9-6.9,2.3-10.3,1.4c-0.5,0.6-1.1,1.1-1.8,1.5
		c-3,1.8-6.7,1.6-9.4-0.2c-2.1,3.3-5.5,5.9-9.6,6.9c-2.4,0.6-4.8,0.6-7.1,0.1c0.2,4-1.7,8.1-5.4,10.3c-5.3,3.2-12.2,1.5-15.4-3.9
		C112.9,157.6,114.6,150.7,120,147.5z"/>
	<path class="st59" d="M173.8,144.1c4.6-2.8,7.1-7.7,7-12.7c1.9,5.7-0.3,12.2-5.7,15.4c-5.9,3.6-13.6,1.9-17.5-3.7
		C162.2,146.7,168.6,147.2,173.8,144.1z"/>
	<path class="st59" d="M142.7,154.6c7.3-1.8,12.4-7.8,13.4-14.8c0.6,7.6-4.4,14.7-12,16.6c-5.3,1.3-10.7-0.3-14.5-3.7
		C133.4,154.9,138,155.7,142.7,154.6z"/>
	<path class="st59" d="M153.7,147.3c2.7,1.6,6.2,1.8,9.2,0c0.3-0.2,0.6-0.4,0.8-0.6c0.5,0.4,1,0.7,1.5,1c-0.6,0.7-1.4,1.4-2.2,1.9
		c-3.2,1.9-7.2,1.6-10-0.6C153.3,148.5,153.5,147.9,153.7,147.3z"/>
	<path class="st59" d="M180.7,137.2c0.4-0.2,0.8-0.4,1.3-0.6c3.3-2,4.7-6,3.5-9.6c0,0.1,0.1,0.1,0.1,0.2c2.3,3.8,1.1,8.8-2.8,11.1
		c-0.9,0.5-1.8,0.8-2.7,1C180.3,138.6,180.5,137.9,180.7,137.2z"/>
	<path class="st59" d="M129.7,165.1c3.4-2.1,5.4-5.7,5.4-9.4c0.6,0.2,1.2,0.3,1.7,0.4c0.4,4.2-1.5,8.4-5.4,10.7
		c-4.8,2.9-10.8,1.7-14.3-2.4C120.7,167.1,125.6,167.5,129.7,165.1z"/>
	<ellipse transform="matrix(0.9226 -0.3858 0.3858 0.9226 -33.3975 61.2854)" class="st58" cx="136" cy="113.8" rx="6" ry="5.7"/>
	<ellipse transform="matrix(0.9226 -0.3858 0.3858 0.9226 -27.4046 64.9285)" class="st58" cx="148.1" cy="100.7" rx="4.2" ry="4"/>
	
		<ellipse transform="matrix(0.9226 -0.3858 0.3858 0.9226 -30.9434 68.8972)" class="st58" cx="156.2" cy="111.5" rx="2.7" ry="2.6"/>
</g>
<path class="st2" d="M213.5,260.5c0,0,2.7-37.4,9.3-37.7c6.6-0.4,10.7,8.6,10.7,8.6s3.4-24.3,12.7-25c9.3-0.7,10.7,17.9,10.7,17.9
	s1.5-29.1,11.7-29.5c10.2-0.3,12.9,15.4,12.9,15.4c1.7-17.5,17.4-16.2,22.1-2.1c4.8,14.4,5.4,24.5,5.4,24.5s1.7-18.6,10-20
	c8.3-1.4,10.5,22.4,10.5,22.4s5.3-25.5,25-25.5c8.3,0,16,17.8,18.8,25.4c2.9,8.1,0.2,11.7,5.7,0c2.8-6,13.5-6.1,15.9,0.2
	c4.2,10.8,8.6,25.4,8.6,25.4L213.5,260.5z"/>
</svg>
