<?xml version="1.0" encoding="utf-8"?>
<!-- Generator: Adobe Illustrator 21.1.0, SVG Export Plug-In . SVG Version: 6.00 Build 0)  -->
<svg version="1.1" id="Ebene_1" xmlns="http://www.w3.org/2000/svg" xmlns:xlink="http://www.w3.org/1999/xlink" x="0px" y="0px"
	 viewBox="0 0 478.9 288" style="enable-background:new 0 0 478.9 288;" xml:space="preserve">
<style type="text/css">
	.st0{fill:#E8291A;}
	.st1{fill:#ED5B2B;}
	.st2{fill:#FBCCA1;}
	.st3{fill:#820F2E;}
	.st4{fill:#271607;}
	.st5{opacity:0.1;}
	.st6{clip-path:url(#SVGID_2_);fill:#FFFFFF;}
	.st7{fill:#3B3534;}
	.st8{fill:#6B102B;}
	.st9{fill:#002E2C;}
	.st10{fill:#941239;}
	.st11{opacity:0.9;}
	.st12{clip-path:url(#SVGID_4_);fill:#D8DADA;}
	.st13{clip-path:url(#SVGID_6_);fill:#D8DADA;}
	.st14{fill:#518198;}
	.st15{fill:#F69C00;}
	.st16{fill:#ED5607;}
	.st17{fill:#FDD184;}
	.st18{fill:#EA3C0F;}
	.st19{fill:#E6BFA5;}
	.st20{clip-path:url(#SVGID_8_);fill:#6B102B;}
	.st21{clip-path:url(#SVGID_10_);fill:#FFFFFF;}
	.st22{clip-path:url(#SVGID_12_);fill:#FFFFFF;}
	.st23{fill:#877C7A;}
	.st24{fill:#302B28;}
	.st25{fill:#5A524F;}
	.st26{fill:#A8A09E;}
	.st27{fill:#B8A8A6;}
	.st28{fill:#DCCECB;}
	.st29{opacity:0.3;}
	.st30{clip-path:url(#SVGID_14_);fill:#AADBE0;}
	.st31{opacity:0.2;}
	.st32{clip-path:url(#SVGID_16_);fill:#AADBE0;}
	.st33{fill:#FFE274;}
	.st34{fill:#FAB40C;}
	.st35{clip-path:url(#SVGID_18_);fill:#AADBE0;}
	.st36{clip-path:url(#SVGID_20_);fill:url(#SVGID_21_);}
	.st37{fill:#D78D5A;}
	.st38{fill:#D99A68;}
	.st39{fill:#66322A;}
	.st40{clip-path:url(#SVGID_23_);fill:url(#SVGID_24_);}
	.st41{fill:#BE7A50;}
	.st42{fill:#2F0C27;}
	.st43{fill:#636664;}
	.st44{fill:#4F2B1E;}
	.st45{fill:#542614;}
	.st46{fill:#79422C;}
	.st47{fill:#833500;}
	.st48{fill:#A57555;}
	.st49{fill:#485B5E;}
	.st50{fill:#7B8E91;}
	.st51{opacity:0.6;fill:#9EB1B5;}
	.st52{fill:#596D71;}
	.st53{fill:#F4931F;}
	.st54{fill:#9EB1B5;}
	.st55{fill:#FDCF0C;}
	.st56{fill:#F9AE15;}
	.st57{fill:#FFFFFF;}
	.st58{fill:#E7EAE1;}
	.st59{fill:#C6C4AF;}
	.st60{filter:url(#Adobe_OpacityMaskFilter);}
	.st61{opacity:0.1;mask:url(#SVGID_25_);}
	.st62{fill:#87442A;}
	.st63{filter:url(#Adobe_OpacityMaskFilter_1_);}
	.st64{opacity:0.1;mask:url(#SVGID_26_);}
	.st65{opacity:0.47;}
	.st66{clip-path:url(#SVGID_28_);fill:#FFFFFF;}
</style>
<path class="st0" d="M300,37.2c0,0-80.4,55.6-104.2,112.9c-8.1,19.4-9.7,35.7-8.3,48.7c2.8,27.1,34.1,41.5,57.1,26.4
	c11.1-7.3,22.8-18.8,33-37.3C307.5,133.4,300,37.2,300,37.2"/>
<path class="st1" d="M230.7,186c1.8-3.9,3.7-7.7,5.5-11.6c16.2-0.7,32.3-1.3,48.5-2c0.2-0.5,0.4-0.9,0.5-1.4
	c-16.1,0.7-32.2,1.3-48.3,2c1.7-3.7,3.5-7.3,5.2-11c15.4-0.9,30.9-1.1,46.4-0.6c0.1-0.5,0.3-0.9,0.4-1.4
	c-15.4-0.5-30.8-0.3-46.1,0.6c1.7-3.5,3.4-7,5-10.5c14.7-0.2,29.3-0.4,44-0.6c0.1-0.5,0.2-0.9,0.3-1.4c-14.5,0.2-29.1,0.4-43.6,0.6
	c1.8-3.7,3.5-7.4,5.3-11c13.7-1.3,27.4-2.1,41.1-2.4c0.1-0.5,0.2-0.9,0.3-1.4c-13.6,0.2-27.1,1-40.6,2.3c1.8-3.8,3.6-7.6,5.4-11.4
	c12.3-1,24.6-1.6,36.9-1.6c0.1-0.5,0.1-0.9,0.2-1.4c-12.2,0-24.3,0.5-36.4,1.5c1.5-3.1,3-6.2,4.4-9.3c11-1.4,22.1-2.3,33.3-2.7
	c0.1-0.5,0.1-0.9,0.2-1.4c-10.9,0.4-21.9,1.2-32.7,2.6c1.8-3.8,3.6-7.5,5.4-11.3c9.3-2.1,18.8-3.1,28.4-3.2c0-0.5,0.1-0.9,0.1-1.4
	c-9.3,0.1-18.6,1.1-27.7,3c0.6-1.3,1.2-2.6,1.8-3.8c0.2-0.1,0.3-0.4,0.3-0.7c0.4-0.9,0.9-1.9,1.3-2.8c8-2.3,16.4-3.2,24.7-2.6
	c0-0.5,0.1-0.9,0.1-1.4c-8.1-0.6-16.1,0.2-24,2.3c1.3-2.8,2.7-5.6,4-8.5c6.7-1.4,13.5-2.2,20.3-2.6c0-0.5,0-0.9,0-1.4
	c-6.6,0.4-13.1,1.2-19.6,2.5l3.8-7.9l13.7-0.7c0.8,0,1.5-0.1,2.3-0.1c0-0.5,0-0.9,0-1.4c-1.1,0.1-2.2,0.1-3.3,0.1
	c-4,0.2-8,0.4-11.9,0.6c1.1-2.2,2.1-4.4,3.2-6.7c4-0.9,8.1-1.6,12.2-2.1c0-0.5,0-0.9,0-1.4c-3.8,0.5-7.6,1.2-11.4,2
	c1.2-2.6,2.5-5.2,3.7-7.8c2.5-0.5,5-0.8,7.6-1.1c0-0.5,0-0.9,0-1.4c-2.3,0.2-4.6,0.5-6.8,0.9c0.7-1.6,1.5-3.1,2.2-4.7l4.4-0.9
	c0-0.5,0-0.9-0.1-1.4c-1.2,0.2-2.4,0.5-3.6,0.7c1.1-2.3,2.2-4.7,3.3-7c-0.1-2.2-0.2-3.4-0.2-3.4s-1,0.7-2.7,2
	c-1.2,2.6-2.5,5.2-3.7,7.8c-0.3-1.4-0.7-2.8-1.2-4.1c-0.4,0.3-0.8,0.6-1.2,0.9c0.6,1.7,1.1,3.6,1.4,5.4c-0.9,1.8-1.7,3.6-2.6,5.4
	c-0.6-2.8-1.5-5.4-2.5-8c-0.4,0.3-0.8,0.6-1.2,0.9c1.1,2.7,2,5.6,2.5,8.5c0,0.2,0.1,0.3,0.3,0.4c-1.6,3.3-3.2,6.7-4.8,10
	c-1.4-4.6-2.9-9.2-4.7-13.7c-0.4,0.3-0.8,0.6-1.2,0.9c1.8,4.8,3.5,9.7,4.9,14.7c-1.4,3-2.9,6-4.3,9c-2-6.3-4.2-12.6-6.5-18.8
	c-0.4,0.3-0.8,0.6-1.1,1c2.4,6.5,4.7,13.1,6.8,19.7c-1.8,3.7-3.5,7.4-5.3,11c-2.4-8.5-5.1-16.9-8.1-25.1c-0.4,0.3-0.8,0.7-1.1,1
	c3.1,8.6,5.9,17.3,8.3,26.1c-1.2,2.4-2.3,4.9-3.5,7.3c-4.2-8.8-8.4-17.6-12.5-26.5c-0.4,0.3-0.7,0.7-1.1,1c4.3,9,8.6,18.1,12.8,27.1
	c-2.3,4.7-4.5,9.4-6.8,14.1c-3.4-12-7.5-23.8-12.2-35.4c-0.4,0.4-0.7,0.7-1.1,1.1c4.8,11.9,9,24,12.4,36.3
	c-2.1,4.3-4.1,8.6-6.2,12.9c-5.7-12.7-11.5-25.4-17.2-38.2c-0.3,0.4-0.7,0.7-1,1.1c5.8,12.9,11.6,25.8,17.4,38.7
	c-0.8,1.6-1.6,3.3-2.4,4.9c-1,2-1.9,4-2.9,6c-6.6-13.8-13.1-27.6-19.7-41.4c-0.3,0.4-0.7,0.8-1,1.2c6.6,14,13.3,27.9,19.9,41.9
	c-1.5,3.1-2.9,6.2-4.4,9.3c-8.1-13.5-16.2-27-24.3-40.4c-0.3,0.4-0.6,0.8-0.9,1.2c8.1,13.5,16.3,27,24.4,40.6c0,0.1,0.1,0.1,0.2,0.2
	l-6.3,13.2l-25.1-44.5c-0.3,0.4-0.6,0.9-0.9,1.3c8.4,14.9,16.8,29.8,25.2,44.7c-1.6,3.3-3.2,6.6-4.7,9.9
	c-9.7-13.5-19.4-26.9-29.1-40.4c-0.2,0.5-0.5,0.9-0.7,1.4c9.7,13.5,19.4,27,29.1,40.5c-1.7,3.5-3.4,7-5,10.6
	c-10.7-11.9-20.8-24.4-30.1-37.5c-0.2,0.5-0.4,1.1-0.6,1.6c9.3,12.9,19.3,25.4,30.1,37.2c-2.7,5.7-5.5,11.4-8.2,17.1
	c-9.6-10.7-18.8-21.7-27.4-33.2c-0.1,0.7-0.2,1.3-0.3,2c8.4,11.2,17.4,22,26.8,32.4c0.1,0.1,0.1,0.1,0.2,0.1
	c-1.1,2.4-2.3,4.8-3.4,7.2c-8.1-8.2-16.2-16.3-24.2-24.5c0,0.7,0.1,1.4,0.1,2.1c7.8,7.9,15.6,15.8,23.5,23.7
	c-1.1,2.4-2.3,4.8-3.4,7.1c1,0.5,2,0.9,3,1.3c0.3-0.7,0.6-1.3,0.9-2c10.2,0.1,20.3,0.1,30.5,0.2c0.8-0.4,1.6-0.9,2.3-1.4
	c-10.7-0.1-21.5-0.1-32.2-0.2c1-2.1,2-4.2,3-6.4c12.7,0,25.4,0,38.1-0.1c0.5-0.5,1.1-0.9,1.6-1.4c-13,0-26,0-39,0.1
	c1.6-3.3,3.1-6.6,4.7-9.9c14.4,0.2,28.8,0.5,43.2,0.7c0.4-0.4,0.8-0.9,1.1-1.4c-14.6-0.2-29.1-0.5-43.7-0.7c1.4-2.9,2.7-5.7,4.1-8.6
	c0-0.1,0.1-0.2,0.1-0.2c15.3-0.5,30.7-0.2,46,0.8c0.3-0.4,0.6-0.9,0.9-1.3c-15.4-1.1-30.8-1.4-46.2-0.9c0.2-0.4,0.4-0.7,0.5-1.1
	c0.1-0.1,0.1-0.1,0.1-0.2c1.2-2.4,2.3-4.8,3.5-7.2c16.4-1.7,32.8-2.7,49.3-2.9c0.2-0.5,0.5-0.9,0.7-1.4
	C263.6,183.3,247.1,184.3,230.7,186"/>
<g>
	<path class="st2" d="M73.7,55.4c0,0,14.7,94.7,56.5,142.2c14.2,16.1,28.3,25.3,40.8,30.4c26.1,10.6,53.3-9,49.9-35.8
		c-1.7-12.8-7-28.3-19.4-45.8C165.2,95,73.7,55.4,73.7,55.4"/>
	<path class="st1" d="M178.8,185.2c-2.7-3.4-5.4-6.8-8.1-10.2c6.7-14,13.3-28,20-42c-0.3-0.4-0.7-0.8-1.1-1.1
		c-6.6,14-13.3,27.9-19.9,41.9c-2.6-3.2-5.1-6.5-7.7-9.7c6.1-13.5,12.9-26.7,20.3-39.6c-0.4-0.3-0.7-0.7-1.1-1
		c-7.4,12.8-14.1,25.9-20.2,39.3l-7.4-9.3c6.4-12.5,12.8-25,19.2-37.5c-0.4-0.3-0.7-0.6-1.1-1c-6.4,12.4-12.7,24.8-19.1,37.3
		c-2.6-3.3-5.2-6.5-7.7-9.8c4.9-12.2,10.3-24.2,16.3-35.9c-0.4-0.3-0.8-0.6-1.2-0.9c-5.9,11.6-11.3,23.5-16.2,35.5
		c-2.7-3.3-5.3-6.7-8-10c4.6-10.9,9.6-21.6,15.2-32c-0.4-0.3-0.8-0.6-1.2-0.8c-5.5,10.3-10.5,20.8-15,31.6c-2.2-2.7-4.3-5.5-6.5-8.2
		c3.7-10,7.9-19.8,12.5-29.5c-0.4-0.3-0.8-0.5-1.2-0.8c-4.6,9.4-8.7,19.1-12.4,28.9c-2.6-3.3-5.3-6.6-7.9-10
		c2.3-8.9,5.6-17.4,9.8-25.6c-0.4-0.3-0.8-0.5-1.2-0.7c-4.1,7.9-7.4,16.3-9.7,24.9l-2.7-3.4c0-0.2-0.2-0.5-0.5-0.6
		c-0.7-0.8-1.3-1.6-2-2.5c1.5-7.9,4.5-15.4,8.7-22.1c-0.4-0.2-0.8-0.5-1.2-0.7c-4.1,6.6-7.1,13.8-8.7,21.4c-2-2.5-4-5-5.9-7.5
		c1.8-6.3,4-12.5,6.7-18.4c-0.4-0.2-0.8-0.5-1.3-0.7c-2.6,5.7-4.8,11.7-6.5,17.8l-5.5-6.9c1.8-4,3.7-7.9,5.5-11.9
		c0.3-0.7,0.6-1.3,0.9-2c-0.4-0.2-0.8-0.5-1.3-0.7c-0.5,1-0.9,1.9-1.4,2.9L98.5,84l-4.7-5.9c1-3.8,2.2-7.6,3.5-11.3
		c-0.4-0.2-0.9-0.4-1.3-0.7c-1.3,3.5-2.4,7-3.3,10.6c-1.8-2.3-3.6-4.6-5.4-6.9c0.7-2.4,1.5-4.7,2.4-6.9c-0.4-0.2-0.9-0.4-1.3-0.6
		c-0.8,2-1.6,4.1-2.2,6.2c-1.1-1.4-2.2-2.8-3.3-4.1c0.4-1.4,0.8-2.8,1.2-4.2c-0.4-0.2-0.9-0.4-1.3-0.6l-1,3.4
		c-1.6-2.1-3.3-4.1-4.9-6.2c-2.1-0.9-3.2-1.4-3.2-1.4s0.2,1.1,0.6,3.3l5.5,6.9c-1.4-0.4-2.9-0.7-4.4-0.9c0.1,0.5,0.2,0.9,0.3,1.4
		c1.9,0.3,3.7,0.8,5.6,1.4c1.3,1.6,2.5,3.2,3.8,4.8c-2.8-0.8-5.6-1.4-8.5-1.7c0.1,0.5,0.2,0.9,0.3,1.4c3,0.4,6,1,8.9,1.9
		c0.2,0.1,0.4,0,0.5,0c2.3,3,4.7,5.9,7,8.8c-4.9-1-9.8-1.9-14.7-2.6c0.1,0.5,0.2,0.9,0.3,1.4c5.2,0.8,10.5,1.7,15.7,2.9
		c2.1,2.7,4.2,5.3,6.3,8c-6.7-1.3-13.4-2.5-20.2-3.5c0.1,0.5,0.2,1,0.4,1.4c7.1,1.1,14.1,2.3,21.1,3.7c2.6,3.3,5.2,6.5,7.7,9.8
		c-8.8-2-17.7-3.8-26.7-5.1c0.1,0.5,0.3,1,0.4,1.4c9.3,1.5,18.5,3.3,27.6,5.4c1.7,2.1,3.4,4.3,5.1,6.4c-10-0.7-19.9-1.4-29.9-2
		c0.1,0.5,0.3,0.9,0.4,1.4c10.2,0.7,20.4,1.4,30.6,2.1c3.3,4.2,6.6,8.3,9.9,12.5c-12.5-2.8-25.2-5-37.9-6.6c0.2,0.5,0.3,1,0.5,1.4
		c13,1.6,26,3.9,38.8,6.8c3,3.8,6,7.6,9.1,11.4c-14.2-1.2-28.5-2.5-42.7-3.7c0.2,0.5,0.4,0.9,0.5,1.4c14.4,1.2,28.9,2.5,43.3,3.7
		c1.2,1.5,2.3,2.9,3.5,4.4c1.4,1.8,2.8,3.5,4.2,5.3c-15.6-1-31.2-2.1-46.8-3.1c0.2,0.5,0.4,0.9,0.6,1.4c15.8,1.1,31.6,2.1,47.3,3.1
		c2.2,2.7,4.3,5.4,6.5,8.2c-16,0.4-32,0.8-48,1.3c0.2,0.5,0.5,0.9,0.7,1.4l48.1-1.3c0.1,0,0.2,0,0.2,0c3.1,3.9,6.2,7.8,9.3,11.7
		c-17.3,0-34.7,0-52,0c0.3,0.5,0.5,0.9,0.8,1.4c17.4,0,34.9,0,52.3,0c2.3,2.9,4.6,5.8,6.9,8.8c-16.7,1.8-33.4,3.6-50.1,5.3
		c0.3,0.4,0.6,0.9,0.9,1.3c16.7-1.8,33.5-3.6,50.2-5.3c2.5,3.1,4.9,6.2,7.4,9.3c-15.8,3.4-31.7,5.9-47.9,7.6
		c0.4,0.4,0.8,0.9,1.2,1.3c16-1.7,31.9-4.3,47.6-7.7c4,5,8,10.1,12,15.1c-14.1,3.1-28.4,5.5-42.8,7.3c0.6,0.4,1.1,0.8,1.7,1.2
		c14.1-1.8,28-4.2,41.8-7.2c0.1,0,0.2-0.1,0.2-0.1c1.7,2.1,3.4,4.2,5,6.4c-11.1,2.9-22.2,5.9-33.4,8.8c0.7,0.3,1.3,0.6,2,0.9
		c10.8-2.8,21.5-5.7,32.3-8.5c1.7,2.1,3.3,4.2,5,6.3c0.9-0.6,1.8-1.2,2.6-1.9c-0.5-0.6-0.9-1.2-1.4-1.7c4.6-8.6,9.3-17.2,13.9-25.8
		c0-0.9-0.1-1.7-0.2-2.6l-14.7,27.2c-1.5-1.9-3-3.8-4.5-5.6c5.7-10.8,11.4-21.5,17.1-32.3c-0.2-0.7-0.4-1.3-0.6-2
		c-5.8,11-11.7,22.1-17.5,33.1c-2.3-2.9-4.6-5.8-6.9-8.7c6.7-12.1,13.4-24.2,20.1-36.3c-0.2-0.5-0.5-1.1-0.7-1.6
		c-6.8,12.2-13.5,24.5-20.3,36.7c-2-2.5-4-5.1-6-7.6c-0.1-0.1-0.1-0.1-0.2-0.2c6.4-13.2,13.6-26.1,21.4-38.6
		c-0.3-0.5-0.5-0.9-0.8-1.4c-7.9,12.5-15.1,25.4-21.6,38.7c-0.3-0.3-0.5-0.7-0.8-1c0-0.1-0.1-0.2-0.2-0.2c-1.7-2.1-3.4-4.3-5.1-6.4
		c5.8-14.7,12.3-29.1,19.6-43.1c-0.3-0.4-0.6-0.8-1-1.3C191.2,156.1,184.6,170.5,178.8,185.2"/>
</g>
<path class="st3" d="M338.3,224.7c0,0-4.1-25.9-14.1-26.3c-10-0.4-16.3,19.6-16.3,19.6s-5.2-38.4-19.3-39.2
	c-14.1-0.8-16.3,11.9-16.3,11.9s-3.9-21.3-19.5-21.7c-15.6-0.4-19.7,18.4-19.7,18.4c-2.6-20.9-27.5-15.6-33.8,2
	c-3.4,9.6-4,5.9-4,5.9s-10.8-8.1-17.8-9c-12.6-1.7-16,19-16,19s-4.5-25.7-18.2-24.8c-13.7,0.8-14.1,12.9-14.1,12.9
	s-1.1-17.9-13.7-16.6c-12.6,1.3-10.4,23.4-10.8,33c-0.4,9.6-10,23.4-27.9,7.9C59,202.3,52,242.8,52,242.8l276.3,0
	C340.9,242.7,338.3,224.7,338.3,224.7"/>
<g>
	<path class="st1" d="M320.6,212c0.2-6.3-0.3-9.8,8.3-11c8.6-1.2,7.6-6.8,7.8-13.1c0.2-6.3,4.5-12.1,17.5-17.2
		c13-5.1,9.4-11.9,10.7-18.5c1.3-6.6,2-8.1,10.9-13.4c8.9-5.3,6.6-12.5,4-19.9c-2.6-7.4,13.8-31.2,13.8-31.2s-12.6-0.1-23.2,11.8
		c-10.6,11.9-11.6-1.1-24.2,6.9c-12.6,8-7.1,18-18.3,17.8c-11.2-0.3-20.2,2.4-26.5,17.5c-6.3,15.1-19.7,8.5-26.7,18.4
		c-7,9.9,5,16-4.8,21.5c-9.7,5.5-15.5,5.9-13,15.9c2.5,10-12,12-11.2,25.3c0,0.5,0.1,1,0.1,1.5c1.9,14.9,18.4,23.8,33.8,17.9
		c3.5-1.4,6.3-3.2,7.5-5.7c4.8-10.1,6.1-9.5,16.1-7.2C313.1,231.5,320.4,218.3,320.6,212"/>
	<path class="st3" d="M350.3,158.3c-4.8-1.7-9.9-2.7-15-3.1c4.4-4.7,8.7-9.6,12.8-14.5c1.4-1.7,2.8-3.5,4.3-5.2c0.1,0,0.2,0,0.3-0.1
		c4.4-2.2,9-3.7,13.9-4.5c1-0.2,0.9-1.6-0.1-1.5c-4.2,0.6-8.2,1.8-12.1,3.5c8.8-11.2,17.1-22.7,25.4-34.1c0.6-0.8-0.6-1.7-1.2-0.9
		c-7.9,11-15.9,22-24.2,32.7c-0.4-4-1.3-8-2.9-11.7c-0.4-0.9-1.9-0.3-1.5,0.5c1.7,4.1,2.7,8.3,3,12.8c0,0.1,0,0.1,0,0.2
		c-0.7,0.9-1.4,1.7-2.1,2.6c-5.5,6.8-11.2,13.4-17.1,19.8c-1.6-5-3.6-9.9-6.1-14.5c-0.4-0.8-1.9-0.3-1.5,0.5
		c2.6,4.9,4.7,10,6.3,15.3c-4.2,4.5-8.4,8.9-12.8,13.2c-4.7,4.7-9.6,9.4-14.4,14c-1-5.1-2.4-10.1-4.1-15c-0.3-0.9-1.8-0.3-1.5,0.5
		c1.8,5,3.2,10.1,4.2,15.4c0,0.1,0.1,0.2,0.1,0.3c-5.9,5.7-11.9,11.4-17.7,17.2c-1.1,1.1-2.2,2.2-3.3,3.3c-1.1-4-2.8-7.8-4.9-11.3
		c-0.5-0.8-1.8,0.1-1.3,0.9c2.2,3.6,3.8,7.4,4.9,11.5c0,0.1,0.1,0.1,0.1,0.2c-9.1,9.3-14.6,14.9-22.6,25c-9.7,12.2,2.6-1,7.4-6.5
		c5.1-5.9,10.5-11.6,16-17.1c0,0,0,0,0.1-0.1c5.3,1,10.5,2.5,15.5,4.4c0.9,0.4,1.6-1,0.7-1.4c-4.8-1.8-9.8-3.3-15-4.3
		c7.1-7.2,14.4-14.2,21.7-21.3c5.7,1.1,11.3,2.3,17,3.4c1,0.2,1.3-1.3,0.3-1.5c-5.3-1.1-10.7-2.2-16-3.2c9.3-9,18.5-18,27.3-27.3
		c5.4,0.3,10.6,1.3,15.6,3.1C350.5,160,351.2,158.6,350.3,158.3"/>
	<path class="st3" d="M354.3,113.5c0.2,0.6,0.4,1.3,0.6,1.9c0.2,0.6,0.7,1,1.4,0.8c0.6-0.1,1.2-0.8,1-1.3c-0.2-0.6-0.4-1.3-0.6-1.9
		c-0.2-0.6-0.7-1-1.4-0.8C354.7,112.3,354.1,112.9,354.3,113.5"/>
	<path class="st3" d="M360.6,111.9c-0.3,0.7-0.6,1.3-0.9,2c-0.3,0.6,0.1,1.2,0.7,1.4c0.6,0.2,1.3-0.2,1.5-0.7c0.3-0.7,0.6-1.3,0.9-2
		c0.3-0.6-0.1-1.2-0.7-1.4C361.5,110.9,360.8,111.3,360.6,111.9"/>
	<path class="st3" d="M347.7,113.2l0.7,2.2c0.2,0.6,0.7,1,1.4,0.8c0.6-0.1,1.2-0.8,1-1.3l-0.7-2.2c-0.2-0.6-0.7-1-1.4-0.8
		C348.1,112,347.5,112.6,347.7,113.2"/>
	<path class="st3" d="M368.7,122c-0.4,0.5-0.8,0.9-1.2,1.4c-0.4,0.5-0.2,1.2,0.3,1.5c0.6,0.3,1.2,0.1,1.6-0.4
		c0.4-0.5,0.8-0.9,1.2-1.4c0.4-0.5,0.2-1.2-0.3-1.5C369.8,121.3,369.1,121.5,368.7,122"/>
	<path class="st3" d="M373,128.1c-0.1,0.1-0.3,0.2-0.4,0.2c-0.1,0-0.2,0.1-0.2,0.1c0.1,0,0.1,0,0,0c-0.1,0-0.3,0.1-0.4,0.1
		c0,0-0.5,0.1-0.3,0.1c-0.6,0.1-1.3,0.4-1.3,1.1c0,0.5,0.4,1.2,1.1,1.1c0.9-0.1,1.8-0.3,2.6-0.7c0.5-0.3,0.9-1,0.6-1.5
		C374.3,128,373.6,127.7,373,128.1"/>
	<path class="st3" d="M370.3,134.1c-0.7-0.3-1.4-0.5-2.2-0.8c-0.6-0.2-1.3,0.2-1.5,0.7c-0.2,0.6,0.1,1.1,0.7,1.4
		c0.7,0.3,1.4,0.5,2.2,0.8c0.6,0.2,1.3-0.2,1.5-0.7C371.3,134.8,370.9,134.3,370.3,134.1"/>
	<path class="st3" d="M317,139.3c0.8,0.2,1.5,0.5,2.3,0.7c0.6,0.2,1.3-0.2,1.5-0.7c0.2-0.6-0.1-1.2-0.7-1.4l-2.3-0.7
		c-0.6-0.2-1.3,0.2-1.5,0.7C316.1,138.5,316.4,139.1,317,139.3"/>
	<path class="st3" d="M322.4,133.9c0.3,0.7,0.7,1.4,1,2.1c0.6,1.3,2.8,0.2,2.2-1c-0.3-0.7-0.7-1.4-1-2.1
		C323.9,131.6,321.8,132.7,322.4,133.9"/>
	<path class="st3" d="M330.6,132.9c-0.5,0.6-0.8,1.4-0.9,2.1c-0.1,0.6,0.4,1.1,1.1,1.1c0.7,0,1.2-0.5,1.3-1.1c0,0,0.1-0.4,0-0.2
		c0-0.1,0.1-0.2,0.1-0.4c0-0.1,0.1-0.1,0.1-0.2c-0.1,0.1-0.1,0.1,0,0c0.1-0.1,0.1-0.2,0.2-0.3c0.4-0.5,0.2-1.2-0.3-1.5
		C331.7,132.2,331,132.4,330.6,132.9"/>
	<path class="st3" d="M335.1,137c-0.3,0.4-0.7,0.8-1,1.2c-0.4,0.5-0.2,1.2,0.3,1.5c0.6,0.3,1.2,0.1,1.6-0.4c0.3-0.4,0.7-0.8,1-1.2
		c0.4-0.5,0.2-1.2-0.3-1.5C336.2,136.3,335.5,136.5,335.1,137"/>
	<path class="st3" d="M349.9,153c-0.2,0.5-0.4,0.9-0.6,1.4c-0.2,0.5,0.1,1.2,0.7,1.4c0.6,0.2,1.3-0.2,1.5-0.7
		c0.2-0.5,0.4-0.9,0.6-1.4c0.2-0.5-0.1-1.2-0.7-1.4C350.7,152.1,350.1,152.4,349.9,153"/>
	<path class="st3" d="M356.5,157.2c-0.7,0.1-1.4,0.2-2.1,0.3c-0.6,0.1-1.1,0.8-1,1.3c0.1,0.6,0.7,0.9,1.4,0.8
		c0.7-0.1,1.4-0.2,2.1-0.3c0.6-0.1,1.1-0.8,1-1.3C357.8,157.4,357.2,157.1,356.5,157.2"/>
	<path class="st3" d="M354.1,164.1c-0.5-0.6-1-1.2-1.5-1.7c-0.4-0.5-1.2-0.4-1.7,0c-0.5,0.4-0.5,1.1-0.1,1.6c0.5,0.6,1,1.2,1.5,1.7
		c0.4,0.5,1.2,0.4,1.7,0C354.5,165.3,354.5,164.6,354.1,164.1"/>
	<path class="st3" d="M345.5,164.5c0.2,0.7,0.5,1.5,0.7,2.2c0.2,0.6,0.7,1,1.4,0.8c0.6-0.1,1.1-0.8,1-1.3l-0.7-2.2
		c-0.2-0.6-0.7-1-1.4-0.8C345.9,163.3,345.3,163.9,345.5,164.5"/>
	<path class="st3" d="M294,170.3c-0.8-0.3-1.6-0.6-2.4-0.8c-0.6-0.2-1.3,0.2-1.5,0.7c-0.2,0.6,0.1,1.2,0.7,1.4
		c0.8,0.3,1.6,0.6,2.4,0.8c0.6,0.2,1.3-0.2,1.5-0.7C294.9,171,294.6,170.5,294,170.3"/>
	<path class="st3" d="M294.3,162.8c-1.1-0.7-2.2-1.4-3.3-2.2c-1.2-0.8-2.5,1.1-1.3,1.9c1.1,0.7,2.2,1.4,3.3,2.2
		C294.2,165.5,295.5,163.6,294.3,162.8"/>
	<path class="st3" d="M297.5,158.9c0.3,1,0.5,2,0.8,3c0.3,1.4,2.7,0.9,2.3-0.5c-0.3-1-0.5-2-0.8-3
		C299.5,157,297.2,157.5,297.5,158.9"/>
	<path class="st3" d="M306.4,159.7l-0.7,1.6c-0.2,0.5,0.1,1.2,0.7,1.4c0.6,0.1,1.3-0.2,1.5-0.7c0.2-0.5,0.4-1.1,0.7-1.6
		c0.2-0.5-0.1-1.2-0.7-1.4C307.3,158.9,306.6,159.2,306.4,159.7"/>
	<path class="st3" d="M309.7,166.7c-0.7,0.6-1.4,1.2-2.1,1.7c-1.2,1,0.4,2.6,1.5,1.6c0.7-0.6,1.4-1.2,2.1-1.7
		C312.4,167.3,310.9,165.7,309.7,166.7"/>
	<path class="st3" d="M320.2,180.1c-0.4,0.6-0.8,1.2-1.2,1.9c-0.3,0.5-0.2,1.2,0.3,1.5c0.5,0.3,1.3,0.2,1.6-0.4
		c0.4-0.6,0.8-1.2,1.2-1.9c0.3-0.5,0.2-1.2-0.3-1.5C321.3,179.5,320.5,179.6,320.2,180.1"/>
	<path class="st3" d="M330.5,180.2c-1,0.8-1.9,1.6-2.9,2.4c-1.2,1,0.4,2.6,1.5,1.6c1-0.8,1.9-1.6,2.9-2.4
		C333.2,180.8,331.7,179.2,330.5,180.2"/>
	<path class="st3" d="M330.3,189.5c-1.2-0.4-2.4-0.8-3.5-1.2c-1.4-0.5-2.2,1.6-0.8,2.1c1.2,0.4,2.4,0.8,3.5,1.2
		C330.9,192.1,331.7,190,330.3,189.5"/>
	<path class="st3" d="M325,196.4c-0.7-0.8-1.5-1.6-2.2-2.3c-1-1-2.8,0.5-1.8,1.5c0.7,0.8,1.5,1.6,2.2,2.3
		C324.1,198.9,325.9,197.4,325,196.4"/>
	<path class="st3" d="M317.8,198.2c-0.6-1.5-1.5-2.8-2.6-4c-0.9-1.1-2.7,0.4-1.8,1.5c0.9,1.1,1.7,2.2,2.2,3.5
		C316.2,200.5,318.3,199.5,317.8,198.2"/>
	<path class="st3" d="M270.7,197.8c-1.2,0-2.4-0.1-3.6-0.1c-1.5-0.1-1.7,2.1-0.2,2.2c1.2,0,2.4,0.1,3.6,0.1
		C272,200,272.2,197.8,270.7,197.8"/>
	<path class="st3" d="M267.5,193c0.8,0.5,1.6,1.1,2.4,1.6c0.5,0.3,1.3,0.1,1.6-0.4c0.4-0.5,0.2-1.2-0.3-1.5
		c-0.8-0.5-1.6-1.1-2.4-1.6c-0.5-0.3-1.3-0.1-1.6,0.4C266.9,192,267,192.7,267.5,193"/>
	<path class="st3" d="M271.6,185.7c0.6,0.6,1.2,1.3,1.9,1.9c1,1,2.8-0.5,1.8-1.5c-0.6-0.6-1.2-1.3-1.9-1.9
		C272.5,183.2,270.7,184.7,271.6,185.7"/>
	<path class="st3" d="M281.7,186.1c-0.1,0.8-0.2,1.6-0.3,2.4c-0.1,0.6,0.5,1.1,1.1,1.1c0.7,0,1.2-0.5,1.3-1.1
		c0.1-0.8,0.2-1.6,0.3-2.4c0.1-0.6-0.5-1.1-1.1-1.1C282.3,185,281.8,185.5,281.7,186.1"/>
	<path class="st3" d="M284.7,192.3c-0.5,0.6-0.9,1.1-1.4,1.7c-0.4,0.5-0.2,1.2,0.3,1.5c0.6,0.3,1.2,0.1,1.6-0.4
		c0.5-0.6,0.9-1.1,1.4-1.7c0.4-0.5,0.2-1.2-0.3-1.5C285.8,191.6,285.1,191.8,284.7,192.3"/>
	<path class="st3" d="M296.4,202.6c-0.9,0.4-1.7,0.8-2.6,1.3c-1.4,0.7-0.4,2.6,1,1.9c0.9-0.4,1.7-0.8,2.6-1.3
		C298.7,203.9,297.7,201.9,296.4,202.6"/>
	<path class="st3" d="M302.9,205.1c-0.8,0.5-1.7,0.9-2.7,1.1c-1.5,0.4-1.1,2.5,0.4,2.1c1.1-0.3,2.2-0.7,3.2-1.3
		c0.6-0.3,0.9-0.9,0.6-1.5C304.3,205.1,303.5,204.8,302.9,205.1"/>
	<path class="st3" d="M307.5,211.7c-1.3-0.1-2.5-0.4-3.7-0.9c-0.6-0.2-1.3,0.2-1.5,0.7c-0.2,0.6,0.1,1.1,0.7,1.4
		c1.4,0.5,2.8,0.8,4.3,1C308.8,214,309,211.8,307.5,211.7"/>
	<path class="st3" d="M304.1,217.7c-1-0.8-2-1.6-3-2.4c-0.5-0.4-1.3-0.1-1.6,0.4c-0.4,0.6-0.2,1.1,0.3,1.5c1,0.8,2,1.6,3,2.4
		c0.5,0.4,1.3,0.1,1.6-0.4C304.8,218.7,304.6,218.1,304.1,217.7"/>
	<path class="st3" d="M296,218.8c-1.1-2-2.2-4-3.3-5.9c-0.7-1.2-2.8-0.2-2.2,1c1.1,2,2.2,4,3.3,5.9C294.5,221,296.7,220,296,218.8"
		/>
	<path class="st3" d="M287.7,215.4c-0.7-0.7-1.4-1.4-2-2.1c-1-1-2.8,0.5-1.8,1.5c0.7,0.7,1.4,1.4,2,2.1
		C286.9,217.9,288.7,216.4,287.7,215.4"/>
</g>
<g>
	<g>
		<g>
			<path class="st50" d="M135.1,156.9c-23.5-29.9-22.3-68.8,0.9-93c-28.4,23.4-31.8,66-6.5,98.1c26.8,34.1,75.4,43.7,108.7,21.4
				c4.1-2.7,7.7-5.8,10.9-9.2c-1.7,1.4-3.5,2.7-5.3,4C210.5,200.5,161.8,191,135.1,156.9z"/>
		</g>
		<g>
			<path class="st54" d="M255.6,76.1C228.8,42,180.2,32.5,146.9,54.8c-4.1,2.7-7.7,5.8-10.9,9.2c1.7-1.4,3.5-2.7,5.3-4
				c33.3-22.3,82-12.7,108.7,21.4c23.5,29.9,22.3,68.8-0.9,93C277.5,150.9,280.9,108.3,255.6,76.1z"/>
		</g>
		<g>
			<path class="st54" d="M250,81.3c-26.8-34.1-75.4-43.7-108.7-21.4c-1.9,1.2-3.6,2.6-5.3,4c-23.2,24.1-24.4,63-0.9,93
				c26.8,34.1,75.4,43.7,108.7,21.4c1.9-1.2,3.6-2.6,5.3-4C272.3,150.1,273.5,111.3,250,81.3z M234.2,164.5
				c-26.4,17.7-65,10.1-86.2-17c-21.2-27.1-17-63.3,9.4-81s65-10.1,86.2,17C264.8,110.6,260.6,146.9,234.2,164.5z"/>
		</g>
		<g class="st65">
			<g>
				<defs>
					<path id="SVGID_27_" d="M234.7,89.5c-17.3-22.1,10.1,12.2-2.2,34c-22.1,39.2-93.1-3.8-75.8,18.2c17.3,22.1,48.8,28.2,70.3,13.8
						C248.6,141.1,252,111.5,234.7,89.5z"/>
				</defs>
				<clipPath id="SVGID_2_">
					<use xlink:href="#SVGID_27_"  style="overflow:visible;"/>
				</clipPath>
				<rect x="139.5" y="163.3" class="st6" width="112.6" height="6.6"/>
				<rect x="139.5" y="67.8" class="st6" width="112.6" height="95.4"/>
				<rect x="139.5" y="61.2" class="st6" width="112.6" height="6.6"/>
			</g>
		</g>
	</g>
	<g>
		<g>
			<polygon class="st54" points="249.7,213.6 224,181.3 243.5,168.1 269.1,200.4 			"/>
		</g>
		<g>
			<polygon class="st50" points="227.5,186.3 237.4,182.2 257.7,208.3 249.7,213.6 			"/>
		</g>
	</g>
	<g>
		<g>
			<polygon class="st46" points="271.3,244 234.9,199.2 258.3,183 294.7,227.8 			"/>
		</g>
		<g>
			<polygon class="st44" points="247.1,191.2 284.5,234.7 271.3,244 234.9,199.2 			"/>
		</g>
	</g>
</g>
<path class="st2" d="M165.2,256.7c0,0,2.8-31.7,9.6-32c6.8-0.3,11.1,7.2,11.1,7.2s3.5-20.6,13.2-21.2c9.6-0.6,11.1,15.1,11.1,15.1
	s1.5-24.6,12.1-24.9c10.6-0.3,13.4,13.1,13.4,13.1c1.8-14.8,18.1-13.7,23-1.8c5,12.2,3.1,17.3,3.1,17.3s1.8-15.7,10.4-16.9
	c8.6-1.2,10.9,19,10.9,19s8-18.1,28.5-18.1c8.7,0,16.7,15.1,19.5,21.5c3,6.9,0.2,9.9,5.9,0c2.9-5.1,14-5.2,16.5,0.2
	c4.4,9.2,8.9,21.5,8.9,21.5L165.2,256.7z"/>
</svg>
