<?xml version="1.0" encoding="utf-8"?>
<!-- Generator: Adobe Illustrator 26.0.3, SVG Export Plug-In . SVG Version: 6.00 Build 0)  -->
<svg version="1.1" id="Ebene_1" xmlns="http://www.w3.org/2000/svg" xmlns:xlink="http://www.w3.org/1999/xlink" x="0px" y="0px"
	 viewBox="0 0 384.9 77.9" style="enable-background:new 0 0 384.9 77.9;" xml:space="preserve">
<style type="text/css">
	.st0{fill:#EA5D7B;}
	.st1{fill:none;stroke:#EA5D7B;stroke-width:0.75;stroke-miterlimit:10;}
</style>
<g>
	<g>
		<path class="st0" d="M31.2,42.9c-5.8,0.9-9.7,5.1-11.6,12.8c-2.2,10.6-0.9,15.9,4.1,15.9h0.6c0.9,0,2.3-1.6,4.2-4.8
			c0.6-0.8,1-1.7,1.2-2.7c0.2-1.1,0.2-2.5,0-4.2c0.9,0,1.5,0,2,0c5,0,7.7,1.2,8.1,3.6c0,0.2-0.1,0.4-0.1,0.6
			c-1.4,6.6-7.4,10.4-17.9,11.4h-1c-8.9,0-14.2-4.4-16-13.2C4.8,60,5,58,5.4,56.3l0.3-1.6c0.7-3.2,3.1-6.8,7.3-10.9
			c3.8-3.3,8.7-4.9,14.7-4.9c0.3,0,0.7,0,1,0c0.6,0,1.2,0,1.8,0c6.9,0.1,10.9,2,12,5.7c0.1,0.3,0.1,1.1-0.1,2.2v0
			c-1.2,4.5-4,6.8-8.4,6.8h-0.4c-2.9-0.6-4.1-2.4-3.4-5.5l0.1-0.4c0.3-0.8,1.1-1.8,2.3-2.7l1.6,0.7l0.4,0.1c0.6-0.2,0.9-0.5,1.1-0.9
			v0c-0.5-1.4-1.7-2.1-3.5-2.1C31.8,42.9,31.5,42.9,31.2,42.9z"/>
		<path class="st0" d="M65.3,38.7h0.3c8.6,0,13.9,3.2,15.8,9.7c0.7,3.2,0.8,6,0.2,8.5C80.6,62.2,77,67.1,71,71.7
			c-4.2,2.4-8.7,3.6-13.5,3.6h-2C43.9,74.1,39.1,68,40.9,56.9c1.5-7.1,6.6-12.6,15.2-16.6C59.4,39.3,62.5,38.7,65.3,38.7z
			 M55.5,71.2c0.1,0,0.3,0,0.4,0c1.5,0,3.4-1.2,5.7-3.7s4.3-5.7,5.9-9.7c0.9-2.2,1.6-4.2,2-6.1c0.3-1.6,0.5-3.5,0.4-5.7
			c-0.1-2.2-0.9-3.4-2.4-3.6c-0.2,0-0.4,0-0.5,0c-1.5,0-3.3,1.2-5.6,3.6c-2.3,2.4-4.3,5.7-6,9.7c-0.9,2.2-1.6,4.2-2,6.1
			c-0.3,1.6-0.5,3.5-0.4,5.7S53.9,70.9,55.5,71.2z"/>
		<path class="st0" d="M124.4,38.9l-0.3,2.1c-2.1,1.8-3.7,5.4-4.8,10.7c-2.2,10.3-2.6,17-1.3,20.1l1.4,0.8c-0.1,0.9-0.2,1.5-0.3,1.8
			c-0.1,0.5-0.5,0.8-1.1,0.8l0,0h-16.5l0.4-2.8c0.5,0.1,0.7,0.2,0.7,0.2c0.7,0,1.8-2.3,3.1-6.8l0.9-4.1c0.6-2.9,1-6,1.3-9.5
			c-3,3.8-7.4,11.8-13.4,24.1c-1.1-3.8-1.9-7.8-2.5-11.9c-0.5-4.1-1-8.5-1.5-13.1c-2.1,4.9-3.6,9.7-4.7,14.6
			c-0.6,3.1,0.2,5.4,2.5,6.9L87.6,75H74.9l0.5-2.4c3.9-1.8,7.3-9.7,10.3-23.8c0.5-3.5,0.2-5.9-0.8-7.1l0.6-2.9l17.1,0.1l-0.5,2.4
			c-0.9,1.1-1.4,1.9-1.5,2.4c-0.3,1.7-0.3,3.6,0,5.7c0.3,2.5,0.5,4.4,0.7,5.6l6.9-10.4c0-1.4-0.7-2.4-1.8-2.9l0.6-2.9L124.4,38.9z"
			/>
		<path class="st0" d="M136,72.6l-0.5,2.4h-15.9l0.5-2.4c1.7-1.4,3.4-5.9,5-13.5l0.3-1.6c0.2-0.7,0.3-1.4,0.4-2
			c1.5-7.1,1.8-11.8,0.8-14.1l0.5-2.6L143,39l-0.4,2.5c-2.2,1.1-4.2,6.1-6,14.9C134.7,65.2,134.5,70.6,136,72.6z"/>
		<path class="st0" d="M160,41.1c-1,0.6-1.6,1.3-1.7,2c0,0.2,0,0.4,0,0.6l0,0.2c-0.5,2.4,1.1,5,4.8,7.9c1.6,1.5,3.1,3.8,4.5,6.8
			l0.6-3c1.7-8.1,1.5-12.9-0.8-14.5l0.5-2.4l13,0l-0.4,2.5c-3.1,0-5.9,6.3-8.6,19c-1.5,6.9-1.3,11,0.5,12.2l-0.5,2.4h-12.3l0.3-2.1
			c0.7-1.2,1.1-2.2,1.3-2.9c-0.3-4.3-2.6-8-7.1-11.1c-2.3-2.2-3.6-4.1-3.9-5.5l-0.2,0.5l-2,9.6c-0.9,4.8,0,8,2.8,9.5L150,75h-13.2
			l0.6-2.7c2.4-0.2,4.5-5,6.5-14.4l0.5-2.2c1.5-7,1.4-11.9-0.3-14.6l0.5-2.2l15.9,0L160,41.1z"/>
		<path class="st0" d="M196.2,75c-5.2,0.2-8.2,0.3-9.1,0.3c-6.5,0-10.8-3.5-12.9-10.5c-0.4-2-0.4-4.5,0.3-7.5
			c1.8-8.4,6.5-14.2,14.2-17.6c2.8-0.9,5.2-1.3,7.2-1.3h0c0.7,0,2.8,0.4,6.5,1.3c1.5,0.2,3.1,0.4,4.8,0.4h0.3
			c1.2-0.1,2.9-0.4,5.1-1.2c0.4,1,0.5,1.9,0.4,2.5c-1.5,5.1-4,8-7.7,8.7h-0.7c-3.6,0-6.1-2.7-7.5-8.1c-0.6-0.4-1.1-0.5-1.6-0.5
			c-0.4,0-0.9,0.2-1.3,0.5c-1.6,1-2.9,3.6-3.7,7.7l-2.5,11.8c-0.8,3.9-0.5,7.1,1,9.5c0.7,0.6,1.5,0.8,2.3,0.8l4.3-0.2
			c1.6-0.4,3.3-2.5,5-6.4c0-1.6-1.4-2.5-4.4-2.5h-0.7c-0.2-0.7-0.3-1.2-0.2-1.5c2.2-3.9,5.5-5.8,9.8-5.8h1c3.9,0.5,5.6,3.5,5.1,8.7
			C209.9,69.9,204.9,73.5,196.2,75z"/>
		<path class="st0" d="M244,38.5l8.5,1.8c0.8,0.1,1.5,0.2,2.2,0.2c1.7,0,3.5-0.5,5.2-1.6c0.4,0.9,0.5,1.9,0.2,3.3
			c-0.1,0.6-0.5,1.8-1,3.6c-0.5,1.8-2.7,3-6.5,3.8h-0.4c-3.4,0-5.8-2.2-7.4-6.6c-1-0.9-2.2-1.4-3.8-1.4c-1.6,0.4-2.7,1.5-3.2,3.1
			c-0.4,2,4.7,5,15.5,8.9c3.6,1.5,5.7,4,6.2,7.6c0,0.9,0,1.5-0.1,1.8c-1.3,5.9-5.6,9.8-13.1,11.8c-2.2,0.4-3.7,0.7-4.6,0.7h-4.7
			c-7.6,0-11.8-2.4-12.8-7.3c-0.2-0.4-0.2-0.9-0.1-1.4c0.9-4.3,3.7-6.5,8.2-6.5c2.8,0.1,5,0.9,6.7,2.4c-3,1.2-4.7,2.6-5,4.2
			c-0.1,0.5,0,1.5,0.3,2.9c0.3,1.5,2.2,2.2,5.8,2.2h0.4c3.8-0.5,5.9-1.8,6.3-4l0.3-1.3c0.8-3.6-3.9-6.6-13.8-9.1
			c-3.5-1.9-5.4-4.3-5.6-7.4c0.1-0.4,0.1-0.7,0.2-1.1C229.3,42,234.7,38.5,244,38.5z"/>
		<path class="st0" d="M285.5,38.7h0.3c8.6,0,13.9,3.2,15.8,9.7c0.7,3.2,0.8,6,0.2,8.5c-1.1,5.2-4.7,10.2-10.7,14.8
			c-4.2,2.4-8.7,3.6-13.5,3.6h-2c-11.6-1.2-16.5-7.4-14.6-18.4c1.5-7.1,6.6-12.6,15.2-16.6C279.5,39.3,282.6,38.7,285.5,38.7z
			 M275.6,71.2c0.1,0,0.3,0,0.4,0c1.5,0,3.4-1.2,5.7-3.7s4.3-5.7,5.9-9.7c0.9-2.2,1.6-4.2,2-6.1c0.3-1.6,0.5-3.5,0.4-5.7
			c-0.1-2.2-0.9-3.4-2.4-3.6c-0.2,0-0.4,0-0.5,0c-1.5,0-3.3,1.2-5.6,3.6c-2.3,2.4-4.3,5.7-6,9.7c-0.9,2.2-1.6,4.2-2,6.1
			c-0.3,1.6-0.5,3.5-0.4,5.7S274,70.9,275.6,71.2z"/>
		<path class="st0" d="M327.4,38.7h0.3c8.6,0,13.9,3.2,15.8,9.7c0.7,3.2,0.8,6,0.2,8.5c-1.1,5.2-4.7,10.2-10.7,14.8
			c-4.2,2.4-8.7,3.6-13.5,3.6h-2c-11.6-1.2-16.5-7.4-14.6-18.4c1.5-7.1,6.6-12.6,15.2-16.6C321.4,39.3,324.5,38.7,327.4,38.7z
			 M317.5,71.2c0.1,0,0.3,0,0.4,0c1.5,0,3.4-1.2,5.7-3.7s4.3-5.7,5.9-9.7c0.9-2.2,1.6-4.2,2-6.1c0.3-1.6,0.5-3.5,0.4-5.7
			c-0.1-2.2-0.9-3.4-2.4-3.6c-0.2,0-0.4,0-0.5,0c-1.5,0-3.3,1.2-5.6,3.6c-2.3,2.4-4.3,5.7-6,9.7c-0.9,2.2-1.6,4.2-2,6.1
			c-0.3,1.6-0.5,3.5-0.4,5.7S315.9,70.9,317.5,71.2z"/>
		<path class="st0" d="M361.7,41.1c-1,0.6-1.6,1.3-1.7,2c0,0.2,0,0.4,0,0.6l0,0.2c-0.5,2.4,1.1,5,4.8,7.9c1.6,1.5,3.1,3.8,4.5,6.8
			l0.6-3c1.7-8.1,1.5-12.9-0.8-14.5l0.5-2.4l13,0l-0.4,2.5c-3.1,0-5.9,6.3-8.6,19c-1.5,6.9-1.3,11,0.5,12.2l-0.5,2.4H361l0.3-2.1
			c0.7-1.2,1.1-2.2,1.3-2.9c-0.3-4.3-2.6-8-7.1-11.1c-2.3-2.2-3.6-4.1-3.9-5.5l-0.2,0.5l-2,9.6c-0.9,4.8,0,8,2.8,9.5l-0.5,1.9h-13.2
			l0.6-2.7c2.4-0.2,4.5-5,6.5-14.4l0.5-2.2c1.5-7,1.4-11.9-0.3-14.6l0.5-2.2l15.9,0L361.7,41.1z"/>
	</g>
</g>
<g>
	<g>
		<path class="st1" d="M31.2,9.8c-5.8,0.9-9.7,5.1-11.6,12.8c-2.2,10.6-0.9,15.9,4.1,15.9h0.6c0.9,0,2.3-1.6,4.2-4.8
			c0.6-0.8,1-1.7,1.2-2.7c0.2-1.1,0.2-2.5,0-4.2c0.9,0,1.5,0,2,0c5,0,7.7,1.2,8.1,3.6c0,0.2-0.1,0.4-0.1,0.6
			c-1.4,6.6-7.4,10.4-17.9,11.4h-1c-8.9,0-14.2-4.4-16-13.2c0-2.2,0.2-4.1,0.6-5.9l0.3-1.6c0.7-3.2,3.1-6.8,7.3-10.9
			c3.8-3.3,8.7-4.9,14.7-4.9c0.3,0,0.7,0,1,0c0.6,0,1.2,0,1.8,0c6.9,0.1,10.9,2,12,5.7c0.1,0.3,0.1,1.1-0.1,2.2v0
			c-1.2,4.5-4,6.8-8.4,6.8h-0.4c-2.9-0.6-4.1-2.4-3.4-5.5l0.1-0.4c0.3-0.8,1.1-1.8,2.3-2.7l1.6,0.7l0.4,0.1c0.6-0.2,0.9-0.5,1.1-0.9
			v0c-0.5-1.4-1.7-2.1-3.5-2.1C31.8,9.8,31.5,9.8,31.2,9.8z"/>
		<path class="st1" d="M65.3,5.7h0.3c8.6,0,13.9,3.2,15.8,9.7c0.7,3.2,0.8,6,0.2,8.5C80.6,29.1,77,34,71,38.6
			c-4.2,2.4-8.7,3.6-13.5,3.6h-2C43.9,41,39.1,34.9,40.9,23.9c1.5-7.1,6.6-12.6,15.2-16.6C59.4,6.2,62.5,5.7,65.3,5.7z M55.5,38.1
			c0.1,0,0.3,0,0.4,0c1.5,0,3.4-1.2,5.7-3.7s4.3-5.7,5.9-9.7c0.9-2.2,1.6-4.2,2-6.1c0.3-1.6,0.5-3.5,0.4-5.7
			c-0.1-2.2-0.9-3.4-2.4-3.6c-0.2,0-0.4,0-0.5,0c-1.5,0-3.3,1.2-5.6,3.6c-2.3,2.4-4.3,5.7-6,9.7c-0.9,2.2-1.6,4.2-2,6.1
			c-0.3,1.6-0.5,3.5-0.4,5.7S53.9,37.8,55.5,38.1z"/>
		<path class="st1" d="M124.4,5.8l-0.3,2.1c-2.1,1.8-3.7,5.4-4.8,10.7c-2.2,10.3-2.6,17-1.3,20.1l1.4,0.8c-0.1,0.9-0.2,1.5-0.3,1.8
			c-0.1,0.5-0.5,0.8-1.1,0.8l0,0h-16.5l0.4-2.8c0.5,0.1,0.7,0.2,0.7,0.2c0.7,0,1.8-2.3,3.1-6.8l0.9-4.1c0.6-2.9,1-6,1.3-9.5
			c-3,3.8-7.4,11.8-13.4,24.1c-1.1-3.8-1.9-7.8-2.5-11.9c-0.5-4.1-1-8.5-1.5-13.1c-2.1,4.9-3.6,9.7-4.7,14.6
			c-0.6,3.1,0.2,5.4,2.5,6.9L87.6,42H74.9l0.5-2.4c3.9-1.8,7.3-9.7,10.3-23.8c0.5-3.5,0.2-5.9-0.8-7.1l0.6-2.9l17.1,0.1l-0.5,2.4
			c-0.9,1.1-1.4,1.9-1.5,2.4c-0.3,1.7-0.3,3.6,0,5.7c0.3,2.5,0.5,4.4,0.7,5.6l6.9-10.4c0-1.4-0.7-2.4-1.8-2.9l0.6-2.9L124.4,5.8z"/>
		<path class="st1" d="M136,39.5l-0.5,2.4h-15.9l0.5-2.4c1.7-1.4,3.4-5.9,5-13.5l0.3-1.6c0.2-0.7,0.3-1.4,0.4-2
			c1.5-7.1,1.8-11.8,0.8-14.1l0.5-2.6L143,5.9l-0.4,2.5c-2.2,1.1-4.2,6.1-6,14.9C134.7,32.1,134.5,37.5,136,39.5z"/>
		<path class="st1" d="M160,8.1c-1,0.6-1.6,1.3-1.7,2c0,0.2,0,0.4,0,0.6l0,0.2c-0.5,2.4,1.1,5,4.8,7.9c1.6,1.5,3.1,3.8,4.5,6.8
			l0.6-3c1.7-8.1,1.5-12.9-0.8-14.5l0.5-2.4l13,0l-0.4,2.5c-3.1,0-5.9,6.3-8.6,19c-1.5,6.9-1.3,11,0.5,12.2l-0.5,2.4h-12.3l0.3-2.1
			c0.7-1.2,1.1-2.2,1.3-2.9c-0.3-4.3-2.6-8-7.1-11.1c-2.3-2.2-3.6-4.1-3.9-5.5l-0.2,0.5l-2,9.6c-0.9,4.8,0,8,2.8,9.5L150,42h-13.2
			l0.6-2.7c2.4-0.2,4.5-5,6.5-14.4l0.5-2.2c1.5-7,1.4-11.9-0.3-14.6l0.5-2.2l15.9,0L160,8.1z"/>
		<path class="st1" d="M196.2,42c-5.2,0.2-8.2,0.3-9.1,0.3c-6.5,0-10.8-3.5-12.9-10.5c-0.4-2-0.4-4.5,0.3-7.5
			c1.8-8.4,6.5-14.2,14.2-17.6c2.8-0.9,5.2-1.3,7.2-1.3h0c0.7,0,2.8,0.4,6.5,1.3c1.5,0.2,3.1,0.4,4.8,0.4h0.3
			c1.2-0.1,2.9-0.4,5.1-1.2c0.4,1,0.5,1.9,0.4,2.5c-1.5,5.1-4,8-7.7,8.7h-0.7c-3.6,0-6.1-2.7-7.5-8.1c-0.6-0.4-1.1-0.5-1.6-0.5
			c-0.4,0-0.9,0.2-1.3,0.5c-1.6,1-2.9,3.6-3.7,7.7l-2.5,11.8c-0.8,3.9-0.5,7.1,1,9.5c0.7,0.6,1.5,0.8,2.3,0.8l4.3-0.2
			c1.6-0.4,3.3-2.5,5-6.4c0-1.6-1.4-2.5-4.4-2.5h-0.7c-0.2-0.7-0.3-1.2-0.2-1.5c2.2-3.9,5.5-5.8,9.8-5.8h1c3.9,0.5,5.6,3.5,5.1,8.7
			C209.9,36.9,204.9,40.4,196.2,42z"/>
		<path class="st1" d="M244,5.4l8.5,1.8c0.8,0.1,1.5,0.2,2.2,0.2c1.7,0,3.5-0.5,5.2-1.6c0.4,0.9,0.5,1.9,0.2,3.3
			c-0.1,0.6-0.5,1.8-1,3.6c-0.5,1.8-2.7,3-6.5,3.8h-0.4c-3.4,0-5.8-2.2-7.4-6.6c-1-0.9-2.2-1.4-3.8-1.4c-1.6,0.4-2.7,1.5-3.2,3.1
			c-0.4,2,4.7,5,15.5,8.9c3.6,1.5,5.7,4,6.2,7.6c0,0.9,0,1.5-0.1,1.8c-1.3,5.9-5.6,9.8-13.1,11.8c-2.2,0.4-3.7,0.7-4.6,0.7h-4.7
			c-7.6,0-11.8-2.4-12.8-7.3c-0.2-0.4-0.2-0.9-0.1-1.4c0.9-4.3,3.7-6.5,8.2-6.5c2.8,0.1,5,0.9,6.7,2.4c-3,1.2-4.7,2.6-5,4.2
			c-0.1,0.5,0,1.5,0.3,2.9c0.3,1.5,2.2,2.2,5.8,2.2h0.4c3.8-0.5,5.9-1.8,6.3-4l0.3-1.3c0.8-3.6-3.9-6.6-13.8-9.1
			c-3.5-1.9-5.4-4.3-5.6-7.4c0.1-0.4,0.1-0.7,0.2-1.1C229.3,9,234.7,5.4,244,5.4z"/>
		<path class="st1" d="M285.5,5.7h0.3c8.6,0,13.9,3.2,15.8,9.7c0.7,3.2,0.8,6,0.2,8.5c-1.1,5.2-4.7,10.2-10.7,14.8
			c-4.2,2.4-8.7,3.6-13.5,3.6h-2c-11.6-1.2-16.5-7.4-14.6-18.4c1.5-7.1,6.6-12.6,15.2-16.6C279.5,6.2,282.6,5.7,285.5,5.7z
			 M275.6,38.1c0.1,0,0.3,0,0.4,0c1.5,0,3.4-1.2,5.7-3.7s4.3-5.7,5.9-9.7c0.9-2.2,1.6-4.2,2-6.1c0.3-1.6,0.5-3.5,0.4-5.7
			c-0.1-2.2-0.9-3.4-2.4-3.6c-0.2,0-0.4,0-0.5,0c-1.5,0-3.3,1.2-5.6,3.6c-2.3,2.4-4.3,5.7-6,9.7c-0.9,2.2-1.6,4.2-2,6.1
			c-0.3,1.6-0.5,3.5-0.4,5.7S274,37.8,275.6,38.1z"/>
		<path class="st1" d="M327.4,5.7h0.3c8.6,0,13.9,3.2,15.8,9.7c0.7,3.2,0.8,6,0.2,8.5c-1.1,5.2-4.7,10.2-10.7,14.8
			c-4.2,2.4-8.7,3.6-13.5,3.6h-2c-11.6-1.2-16.5-7.4-14.6-18.4c1.5-7.1,6.6-12.6,15.2-16.6C321.4,6.2,324.5,5.7,327.4,5.7z
			 M317.5,38.1c0.1,0,0.3,0,0.4,0c1.5,0,3.4-1.2,5.7-3.7s4.3-5.7,5.9-9.7c0.9-2.2,1.6-4.2,2-6.1c0.3-1.6,0.5-3.5,0.4-5.7
			c-0.1-2.2-0.9-3.4-2.4-3.6c-0.2,0-0.4,0-0.5,0c-1.5,0-3.3,1.2-5.6,3.6c-2.3,2.4-4.3,5.7-6,9.7c-0.9,2.2-1.6,4.2-2,6.1
			c-0.3,1.6-0.5,3.5-0.4,5.7S315.9,37.8,317.5,38.1z"/>
		<path class="st1" d="M361.7,8.1c-1,0.6-1.6,1.3-1.7,2c0,0.2,0,0.4,0,0.6l0,0.2c-0.5,2.4,1.1,5,4.8,7.9c1.6,1.5,3.1,3.8,4.5,6.8
			l0.6-3c1.7-8.1,1.5-12.9-0.8-14.5l0.5-2.4l13,0L382,8.3c-3.1,0-5.9,6.3-8.6,19c-1.5,6.9-1.3,11,0.5,12.2l-0.5,2.4H361l0.3-2.1
			c0.7-1.2,1.1-2.2,1.3-2.9c-0.3-4.3-2.6-8-7.1-11.1c-2.3-2.2-3.6-4.1-3.9-5.5l-0.2,0.5l-2,9.6c-0.9,4.8,0,8,2.8,9.5l-0.5,1.9h-13.2
			l0.6-2.7c2.4-0.2,4.5-5,6.5-14.4l0.5-2.2c1.5-7,1.4-11.9-0.3-14.6l0.5-2.2l15.9,0L361.7,8.1z"/>
	</g>
</g>
</svg>
