<?xml version="1.0" encoding="UTF-8"?>
<!DOCTYPE svg PUBLIC "-//W3C//DTD SVG 1.1//EN" "http://www.w3.org/Graphics/SVG/1.1/DTD/svg11.dtd">
<!-- Creator: CorelDRAW 2020 (64-Bit) -->
<svg xmlns="http://www.w3.org/2000/svg" xml:space="preserve" width="119.32mm" height="31.457mm" version="1.1" style="shape-rendering:geometricPrecision; text-rendering:geometricPrecision; image-rendering:optimizeQuality; fill-rule:evenodd; clip-rule:evenodd" viewBox="0 0 83284.73 21956.87" xmlns:xlink="http://www.w3.org/1999/xlink" xmlns:xodm="http://www.corel.com/coreldraw/odm/2003">
 <defs>
  <style type="text/css">
   <![CDATA[
    .fil1 {fill:#434242;fill-rule:nonzero}
    .fil0 {fill:#E97828;fill-rule:nonzero}
   ]]>
  </style>
 </defs>
 <g id="Ebene_x0020_1">
  <metadata id="CorelCorpID_0Corel-Layer"/>
  <g id="_1273814889232">
   <path class="fil0" d="M-0 10409.15l5076.11 -5095.3 0 16500.43 -5076.04 0 -0.07 -11405.12zm7965.81 -7995.9l2404.18 -2413.25 4486.79 4503.96 -6226.69 8144.64 6928.17 9165.67 -7592.46 0 0 -19401.02zm8826.58 4033.72l3947.1 3962.18 0 11405.12 -1760.14 0 -6928.17 -9165.67 4741.21 -6201.63z"/>
   <path class="fil1" d="M32295.67 10409.22l1585.43 0 -2930.61 -4435.91c496.42,-136.11 907.53,-339.02 1230.43,-608.58 325.62,-269.57 565.8,-595.18 725.99,-976.85 160.12,-381.66 237.53,-808.7 237.53,-1281.1 2.65,-619.19 -122.78,-1161.05 -379.01,-1625.49 -256.16,-464.38 -667.21,-824.68 -1227.71,-1086.29 -560.49,-258.82 -1294.5,-389.62 -2204.62,-395l-3683.26 0 0 10409.22 1393.2 0 0 -4195.73 2498.27 0 2754.36 4195.73zm-2962.58 -9128.05c600.49,0 1075.61,74.69 1430.61,221.47 354.93,144.21 608.51,352.35 763.33,624.64 152.09,272.15 229.5,597.83 224.2,979.5 5.3,370.99 -72.1,691.23 -224.2,963.51 -154.82,272.22 -408.4,485.74 -763.33,635.25 -355,149.44 -830.13,224.13 -1430.61,226.85l-2290.06 0 0 -3651.22 2290.06 0zm5412.75 8359.35c2.72,173.52 42.72,328.34 122.78,464.45 80.06,136.11 186.85,245.56 320.31,325.62 136.11,80.06 285.62,120.13 453.7,122.78 173.52,-2.65 328.34,-42.72 464.45,-122.78 136.11,-80.06 245.56,-189.51 325.62,-325.62 80.06,-136.11 120.13,-290.92 122.78,-464.45 -2.65,-168.15 -42.72,-317.59 -122.78,-453.7 -80.06,-133.46 -189.51,-240.25 -325.62,-320.31 -136.11,-80.06 -290.92,-120.06 -464.45,-122.78 -168.08,2.72 -317.59,42.72 -453.7,122.78 -133.46,80.06 -240.25,186.85 -320.31,320.31 -80.06,136.11 -120.06,285.55 -122.78,453.7zm8535.52 -4676.09l4115.67 5444.79 1649.44 0 -4115.6 -5444.79 3795.36 -4964.43 -1649.44 0 -3795.43 4964.43zm-1713.51 5444.79l1393.27 0 0 -10409.22 -1393.27 0 0 10409.22zm14749.01 -8007.07l-1329.12 0 0 6725.96c-162.84,42.72 -328.27,77.41 -496.48,101.42 -168.15,26.66 -354.93,45.3 -560.49,58.7 -205.49,10.68 -445.74,16.05 -720.61,16.05 -317.66,2.65 -605.86,-24.08 -864.75,-82.78 -258.96,-56.05 -480.43,-160.19 -667.28,-312.28 -186.85,-149.51 -328.27,-363.03 -429.69,-637.9 -101.49,-277.59 -152.16,-629.87 -152.16,-1064.93l0 -4804.24 -1313.14 0 0 4724.18c2.65,637.9 88.09,1177.03 253.51,1617.4 165.49,437.71 397.72,790.06 699.32,1056.98 301.6,266.91 653.88,459.07 1059.56,576.48 408.4,120.13 851.49,178.83 1334.57,176.17 467.03,0 888.76,-18.71 1265.12,-56.05 373.64,-34.69 717.96,-82.71 1032.9,-146.79 312.28,-61.42 608.58,-133.46 888.76,-213.59l0 -7734.78zm1473.33 7558.67c250.86,141.48 541.85,261.61 872.77,357.65 330.92,96.11 683.27,162.77 1059.56,202.84 373.71,40.06 747.34,45.37 1126.36,18.71 376.36,-26.73 736.67,-90.74 1078.33,-194.88 341.6,-104.07 648.51,-248.21 915.42,-437.71 269.57,-189.51 480.43,-427.03 635.25,-712.65 154.82,-282.9 234.88,-621.85 237.53,-1011.54 -5.3,-448.39 -85.36,-814 -242.9,-1096.97 -160.12,-280.25 -368.33,-504.44 -629.87,-667.28 -261.54,-160.12 -547.09,-288.2 -859.44,-379.01 -312.28,-88.02 -627.15,-168.08 -939.5,-232.15 -312.21,-66.73 -597.83,-144.14 -859.37,-232.22 -261.54,-88.09 -469.75,-213.52 -629.87,-373.64 -157.54,-157.47 -237.6,-376.29 -242.9,-653.95 2.65,-208.14 66.73,-384.32 192.16,-528.45 125.43,-144.14 293.58,-256.23 507.09,-336.29 213.52,-82.71 453.77,-133.46 720.68,-152.16 266.84,-21.29 541.78,-10.61 827.34,29.39 285.62,40.06 563.21,109.45 832.78,208.21 266.91,96.11 512.47,224.2 731.29,379.01l384.32 -1185.06c-301.53,-200.19 -643.2,-360.31 -1027.52,-477.78 -381.66,-114.75 -782.04,-186.78 -1195.74,-210.86 -413.7,-24.01 -814.07,2.72 -1206.42,80.13 -389.62,77.41 -741.97,208.14 -1056.91,395 -315.01,184.13 -565.87,429.69 -752.65,731.29 -186.85,304.26 -280.25,669.94 -285.62,1099.62 5.37,456.42 85.43,827.4 242.9,1115.68 160.12,288.27 368.33,515.12 629.87,683.27 261.61,168.15 547.16,298.95 862.1,392.34 312.28,93.39 624.57,173.52 936.85,242.83 312.28,66.8 597.83,146.86 859.44,234.95 261.54,88.02 469.68,210.79 629.87,368.33 157.47,157.47 240.18,373.64 242.9,645.86 -2.72,213.52 -74.76,392.34 -216.24,536.48 -141.41,141.48 -330.92,253.58 -568.52,333.64 -240.18,80.06 -507.09,130.8 -803.32,152.16 -298.95,18.71 -603.21,13.33 -920.87,-18.71 -314.94,-32.04 -619.19,-88.09 -912.77,-168.15 -293.58,-82.71 -557.84,-184.2 -790.06,-306.98l-384.32 1169.07zm7398.55 -2290.06c2.65,525.8 72.1,974.19 205.56,1342.53 136.11,368.33 328.27,664.56 571.17,891.48 245.49,226.85 531.11,392.34 859.37,496.42 325.62,101.42 683.27,154.82 1070.31,152.16 424.38,0 816.66,-48.02 1177.03,-138.76 360.31,-90.81 688.57,-221.61 984.87,-389.69l-384.39 -1169.07c-226.85,130.8 -493.69,237.6 -798.02,320.31 -306.91,82.71 -632.52,125.43 -979.5,128.15 -274.94,2.65 -515.12,-48.09 -720.61,-149.51 -205.56,-101.42 -365.68,-269.57 -480.43,-507.09 -114.75,-237.6 -173.52,-557.84 -176.17,-960.86l0 -4035.61 3026.65 0 0 -1249.06 -3026.65 0 0 -2402.15 -1329.19 0 0 7670.77zm12459.03 -1473.26c-2.65,-926.17 -146.86,-1681.47 -427.03,-2263.39 -277.66,-584.43 -675.31,-1011.54 -1185.06,-1286.41 -512.47,-272.22 -1118.33,-408.4 -1814.93,-405.68 -693.95,-2.72 -1294.5,133.46 -1806.97,405.68 -512.4,274.87 -907.47,701.98 -1190.36,1286.41 -282.9,581.92 -424.38,1337.22 -429.69,2263.39l0 416.35c5.3,920.8 162.77,1670.79 472.4,2252.64 309.63,581.85 747.34,1008.88 1313.14,1281.17 568.52,272.22 1235.8,408.33 2009.74,405.68 552.53,-2.65 1072.96,-48.02 1556.04,-136.11 483.15,-90.81 926.17,-216.17 1326.54,-376.36l-384.32 -1169.07c-189.51,80.13 -413.77,154.82 -672.59,218.89 -258.96,64.08 -544.51,117.47 -854.14,154.82 -309.56,37.41 -632.52,58.77 -971.54,58.77 -504.37,0 -936.78,-82.78 -1299.81,-248.28 -362.96,-168.15 -643.2,-421.66 -838.01,-763.33 -194.88,-339.02 -293.65,-771.36 -296.3,-1294.5l0 -80.06 5492.88 0 0 -720.61zm-5492.88 -400.37c2.65,-536.48 88.09,-974.19 258.89,-1315.79 168.15,-339.02 408.4,-589.88 715.31,-750 309.63,-162.84 672.59,-242.9 1091.67,-240.25 419.01,-2.65 784.69,77.41 1094.25,240.25 312.28,160.12 552.53,410.98 725.99,750 170.8,341.6 258.89,779.31 261.61,1315.79l0 96.11 -4147.7 0 0 -96.11zm6902.14 4612.08l1329.12 0 0 -6709.91c93.46,-32.04 194.81,-61.42 306.91,-88.09 109.52,-26.73 242.97,-48.02 395.07,-64.08 152.16,-16.05 341.67,-24.01 563.14,-24.01 261.61,0 491.11,15.98 691.3,42.72 197.53,29.32 384.32,69.38 557.84,117.4l384.32 -1201.04c-165.49,-37.34 -333.64,-72.03 -504.44,-104.07 -173.52,-32.04 -357.65,-56.05 -555.19,-74.76 -197.46,-18.71 -416.35,-29.39 -653.88,-29.39 -312.28,0 -624.57,21.36 -936.85,58.77 -312.21,34.69 -603.14,85.36 -875.43,144.07 -272.22,61.42 -507.09,128.15 -701.91,197.53l0 7734.85z"/>
   <path class="fil0" d="M25649.83 12550.46l0 9263.81 3420.46 0c608.09,-2.37 1128.31,-66.52 1558.21,-194.74 429.9,-128.29 781.48,-308.86 1052.3,-541.58 270.75,-232.85 467.94,-505.98 593.79,-821.89 125.92,-313.54 190.06,-660.37 187.69,-1035.69 0,-325.41 -52.28,-627.08 -159.14,-907.33 -106.86,-280.32 -273.2,-532.08 -498.86,-750.63 -227.97,-218.54 -520.15,-396.67 -881.22,-536.83 294.48,-144.9 532.08,-315.91 717.33,-520.15 185.25,-201.93 320.66,-425.22 408.61,-669.87 85.43,-247.02 128.22,-505.98 128.22,-776.73 2.37,-353.88 -59.4,-684.11 -182.88,-988.15 -121.17,-301.67 -315.98,-567.68 -579.62,-795.72 -263.63,-228.04 -608.02,-403.86 -1028.5,-532.08 -422.78,-125.92 -933.5,-190.06 -1529.73,-192.44l-3206.67 0zm3420.46 5059.5c534.46,2.37 957.3,68.82 1273.15,199.49 315.98,130.66 541.65,311.17 679.36,541.58 135.41,230.41 204.3,496.42 199.56,798.09 4.75,306.42 -64.15,572.5 -199.56,800.53 -137.71,228.04 -363.38,406.16 -679.36,532.08 -315.84,125.85 -738.69,189.99 -1273.15,192.37l-2180.54 0 0 -3064.13 2180.54 0zm-213.8 -3919.32c515.47,2.37 924.01,64.15 1230.43,185.25 304.05,123.55 524.96,292.18 655.63,505.98 132.97,216.17 197.11,465.56 194.74,748.25 2.37,263.63 -61.77,501.16 -194.74,714.96 -130.66,211.42 -351.58,380.06 -655.63,503.53 -306.42,125.92 -714.96,190.06 -1230.43,192.44l-1966.74 0 0 -2850.41 1966.74 0zm10190.19 3434.77c-2.44,-475.13 -76.01,-878.92 -220.99,-1206.7 -147.21,-327.78 -351.51,-591.48 -612.77,-793.34 -261.33,-199.56 -570.12,-344.46 -921.63,-432.34 -351.58,-90.25 -736.32,-135.34 -1152.04,-133.04 -510.65,2.44 -976.29,49.91 -1396.69,140.16 -420.4,90.25 -814.7,206.68 -1182.89,344.39 113.98,356.33 227.97,712.65 342.02,1068.91 166.26,-73.57 361.07,-142.53 579.62,-208.98 220.85,-68.89 465.56,-123.55 731.57,-166.26 266.08,-42.79 551.07,-64.15 855.12,-66.52 368.19,-2.37 686.48,37.97 952.49,118.73 268.45,80.76 475.06,216.17 622.33,408.61 144.9,192.37 218.54,453.63 220.92,783.85l0 399.04c-227.97,14.24 -456.07,26.11 -684.11,33.22 -227.97,9.49 -456.07,16.61 -684.04,23.8 -662.75,23.73 -1239.92,116.36 -1726.91,280.25 -486.92,163.89 -864.61,396.67 -1130.61,698.35 -266.01,301.67 -401.42,674.61 -406.23,1116.38l0 142.53c2.44,394.3 80.83,736.39 235.22,1021.45 154.33,284.99 365.75,520.15 634.2,705.47 268.38,182.88 574.8,318.29 921.56,408.54 346.83,87.88 715.03,130.6 1102.21,130.6 600.97,0 1140.11,-30.85 1615.23,-95 475.06,-61.7 912.07,-154.4 1306.44,-275.5l0 -4446.59zm-1182.96 3534.44c-154.4,42.72 -313.54,76.01 -477.43,102.12 -166.26,23.8 -349.14,42.79 -548.7,52.28 -201.93,11.87 -434.71,16.61 -698.35,16.61 -334.9,2.37 -631.83,-35.6 -890.71,-111.61 -258.96,-76.01 -460.82,-199.56 -608.09,-370.57 -147.28,-168.64 -223.29,-394.3 -225.66,-672.24l0 -142.53c2.37,-270.75 87.88,-484.55 254.14,-638.95 168.64,-156.77 403.86,-270.75 712.58,-342.02 306.42,-73.64 669.87,-123.55 1090.34,-147.28 420.4,-26.11 883.59,-42.79 1391.87,-54.65l0 2308.83zm8251.92 -5971.57l-1182.96 0 0 5985.81c-144.83,38.04 -292.11,68.89 -441.76,90.32 -149.65,23.73 -315.98,40.34 -498.86,52.21 -182.88,9.49 -396.67,14.24 -641.32,14.24 -282.62,2.37 -539.2,-21.36 -769.61,-73.64 -230.41,-49.91 -427.52,-142.53 -593.79,-277.87 -166.33,-133.04 -292.18,-323.03 -382.43,-567.75 -90.25,-247.02 -135.41,-560.56 -135.41,-947.74l0 -4275.58 -1168.66 0 0 4204.31c2.37,567.75 78.39,1047.48 225.66,1439.48 147.21,389.55 353.88,703.09 622.33,940.62 268.38,237.53 581.92,408.54 942.99,513.1 363.45,106.86 757.74,159.14 1187.64,156.7 415.73,0 790.97,-16.61 1125.87,-49.84 332.6,-30.85 639.02,-73.64 919.33,-130.66 277.87,-54.58 541.58,-118.73 790.97,-189.99l0 -6883.71zm7867.05 3192.43l1895.55 0 0 2636.61c-206.68,87.95 -444.2,159.14 -707.84,213.8 -266.08,54.65 -551.07,83.13 -859.86,85.5 -548.7,4.75 -1028.57,-99.74 -1437.1,-308.79 -408.54,-209.05 -726.82,-546.32 -954.86,-1011.89 -225.66,-467.94 -342.09,-1087.9 -344.46,-1857.51l0 -912.14c2.37,-762.42 118.8,-1375.33 344.46,-1840.9 228.04,-465.49 546.32,-802.84 954.86,-1011.82 408.54,-211.42 888.41,-315.98 1437.1,-311.24 292.11,2.44 586.67,38.04 881.22,109.31 292.11,71.27 570.05,161.52 828.94,270.82 258.96,109.24 482.25,225.59 669.87,346.76l356.33 -1111.7c-239.9,-125.85 -491.67,-247.02 -757.74,-361 -263.63,-113.98 -558.19,-206.68 -878.85,-280.32 -323.03,-73.64 -688.85,-111.61 -1099.76,-113.98 -579.62,-2.37 -1111.7,80.76 -1596.25,242.27 -482.18,163.89 -902.65,420.4 -1256.53,764.86 -356.33,346.76 -631.83,793.34 -826.64,1337.29 -194.74,546.32 -294.48,1199.51 -296.93,1959.63l0 912.14c2.44,767.24 102.19,1425.24 296.93,1973.93 194.81,546.25 470.31,992.9 826.64,1339.66 353.88,346.76 774.36,600.91 1256.53,762.49 484.55,163.89 1016.63,244.65 1596.25,242.27 448.88,-2.37 847.93,-45.16 1197.13,-125.92 346.83,-80.76 653.25,-180.5 916.89,-304.05 263.63,-123.48 496.42,-251.77 693.6,-382.43l0 -4332.6 -3135.47 0 0 1068.91zm4446.66 3933.56l1182.89 0 0 -5985.81c135.34,-38.04 266.01,-68.89 391.93,-92.69 128.22,-21.36 268.38,-37.97 422.78,-49.84 152.09,-9.49 337.27,-14.24 553.51,-14.24 249.39,-2.37 477.43,21.36 681.66,76.01 204.3,52.21 380.06,144.9 527.34,282.62 144.9,135.41 258.89,325.41 337.27,572.43 80.76,247.09 121.17,563 121.17,950.18l0 4261.34 1168.66 0 0 -4190.07c0,-223.29 -11.87,-422.85 -35.6,-600.97 -23.8,-180.5 -57.03,-346.76 -99.81,-498.79 -42.72,-152.02 -92.62,-299.3 -149.58,-439.46 189.99,-116.36 422.78,-213.8 695.9,-292.18 270.82,-78.39 596.23,-118.73 971.54,-121.1 249.39,-2.37 477.43,21.36 679.29,76.01 201.93,52.21 377.69,144.9 522.59,282.62 144.9,135.41 256.58,325.41 332.6,572.43 78.32,247.09 118.73,563 118.73,950.18l0 4261.34 1168.66 0 0 -4190.07c-2.37,-572.5 -71.27,-1054.67 -206.61,-1446.6 -137.78,-394.3 -327.85,-707.84 -574.87,-945.37 -247.02,-237.53 -536.83,-410.91 -871.73,-515.4 -334.97,-106.93 -700.72,-159.14 -1097.46,-156.84 -451.25,0 -874.1,59.4 -1263.65,173.45 -391.86,116.36 -736.32,280.25 -1030.87,496.42 -244.65,-247.02 -529.71,-420.4 -855.12,-522.59 -325.41,-102.12 -681.73,-149.58 -1068.84,-147.28 -565.38,4.75 -1066.61,42.79 -1508.37,116.43 -441.83,73.64 -812.33,156.77 -1114,254.14l0 6883.71zm11045.24 -242.27c277.87,90.25 572.43,161.52 883.66,216.1 308.72,54.65 612.84,95.07 912.07,118.8 301.67,23.73 577.24,35.6 826.64,35.6 472.68,0 902.58,-68.82 1292.2,-208.98 389.55,-140.16 726.82,-353.95 1009.51,-643.69 282.62,-287.43 501.16,-653.25 655.56,-1095.09 154.4,-444.14 232.78,-966.73 235.16,-1572.45l0 -342.02c-2.37,-615.21 -83.13,-1144.92 -244.65,-1591.5 -161.52,-444.14 -389.55,-807.58 -681.73,-1092.64 -292.18,-284.99 -636.57,-496.42 -1033.24,-631.83 -396.67,-137.78 -831.38,-204.3 -1304.07,-204.3 -273.13,0 -524.96,23.73 -760.12,66.52 -232.78,45.16 -434.64,102.19 -608.09,175.76l0 -2964.39 -1182.89 0 0 9734.12zm4631.9 -3149.71c0,460.82 -47.53,848 -142.53,1159.16 -92.62,308.79 -228.04,555.81 -406.16,741.13 -175.76,182.88 -391.99,313.54 -641.39,391.93 -251.77,80.76 -534.39,118.73 -848,116.36 -206.61,0 -391.93,-4.75 -553.37,-16.61 -161.59,-9.49 -308.86,-28.48 -446.58,-52.28 -137.78,-26.11 -275.57,-59.4 -410.98,-102.12l0 -4717.41c66.59,-40.34 159.14,-80.76 275.57,-121.1 118.73,-40.41 261.26,-76.01 432.27,-104.56 168.71,-28.48 365.82,-45.09 589.11,-45.09 323.1,-2.37 615.21,35.6 876.47,113.98 263.7,78.39 491.74,206.68 681.73,389.55 189.99,182.94 334.97,429.97 439.46,741.13 102.12,311.17 154.4,698.35 154.4,1163.91l0 342.02zm3748.24 -912.07l4190.07 0 0 4304.06 1239.92 0 0 -9263.81 -1239.92 0 0 3819.58 -4190.07 0 0 -3819.58 -1239.92 0 0 9263.81 1239.92 0 0 -4304.06z"/>
  </g>
 </g>
</svg>