<?xml version="1.0" encoding="utf-8"?>
<!-- Generator: Adobe Illustrator 26.0.3, SVG Export Plug-In . SVG Version: 6.00 Build 0)  -->
<svg version="1.1" xmlns="http://www.w3.org/2000/svg" xmlns:xlink="http://www.w3.org/1999/xlink" x="0px" y="0px"
	 viewBox="0 0 595.28 696.24" style="enable-background:new 0 0 595.28 696.24;" xml:space="preserve">
<style type="text/css">
	.st0{display:none;}
	.st1{display:inline;fill:#EAB894;}
	.st2{fill:#682470;}
	.st3{fill:#7D7DBB;}
	.st4{fill:#EA5D7B;}
	.st5{fill:none;}
	.st6{fill:#F08EB8;}
</style>
<g id="Ebene_2" class="st0">
</g>
<g id="Ebene_1">
	<g>
		<path class="st5" d="M163.46,491.23c0.75-1.26,1.08-1.95,0.99-2.05c-0.17-0.19-1.61,0.57-4.33,2.29
			c-1.99,1.22-4.27,2.58-6.86,4.08c-0.09,2.38,0.28,4.87,1.09,7.47C157.28,499.65,160.32,495.72,163.46,491.23z"/>
		<path class="st5" d="M300.1,555.4c-0.26-0.01-0.65,1.58-1.18,4.75c-0.42,2.29-0.93,4.91-1.54,7.83c1.71,1.65,3.81,3.04,6.3,4.18
			c-0.56-4.44-1.46-9.33-2.7-14.66C300.53,556.11,300.23,555.41,300.1,555.4z"/>
		<path class="st5" d="M247.29,308.43c9.45-0.74,20.98-12.58,21.82-21.61c-2.3-0.68-4.63-1.38-6.06-1.8
			c-3.14,4.28-5.57,8.37-8.78,11.78c-3.38,3.58-7.94,3.79-12.44,1.64c-6.46-3.09-10.02-8.34-11.46-14.9
			c-0.77-3.49-2.22-5.07-6.44-3.69c-1.32,9.06,1.91,16.48,8.34,22.8C236.37,306.68,241.32,308.9,247.29,308.43z"/>
		<path class="st5" d="M257.56,362.35c0.35,12.98,9.25,20.83,19.93,27.09c3.14,1.84,6.02,3.45,8.22,6.81
			c8.5,12.96,30.9,12.48,38.45,2.01c3.34-4.63,7.81-7.15,12.51-9.75c0.19-0.11,0.4-0.19,0.58-0.31
			c16.79-11.1,20.21-21.97,16.62-36.92c-2.46-10.21-6.5-20.12-10.42-29.94c-3.74-9.36-9.49-17.5-18.29-23.31
			c-12.91-8.52-22.3-9.67-36.31-0.76c-7.29,4.63-12.74,10.74-17.34,17.94c-3.68,9.44-7.82,18.75-10.89,28.38
			C258.7,349.6,257.39,356.11,257.56,362.35z"/>
		<path class="st5" d="M397.51,531.62c-0.22,0.13,0.27,1.69,1.46,4.68c0.83,2.17,1.75,4.68,2.75,7.49c2.32,0.52,4.83,0.62,7.54,0.3
			c-2.78-3.5-6.09-7.21-9.92-11.12C398.24,532.01,397.63,531.56,397.51,531.62z"/>
		<path class="st5" d="M343.67,290.9c3.89,8,9.18,14.9,18.51,17.12c14.17,3.37,29.75-13.45,26.11-28.14
			c-1.56-0.02-3.18-0.05-4.75-0.07c-0.55,1.85-0.91,3.33-1.44,4.76c-2.06,5.53-5.05,10.37-10.72,13.2
			c-6.38,3.18-11.72,2.32-16.01-3.29c-2.46-3.22-4.16-6.99-6.34-10.74c-2,0.51-4.33,1.1-6.9,1.75c0.11,0.87,0.09,1.34,0.23,1.78
			C342.76,288.48,343.1,289.74,343.67,290.9z"/>
		<path class="st5" d="M323.2,116.21c1.94,0,3.21-0.74,3.81-2.23c0.6-1.49,0.9-3.68,0.9-6.56c0-2.82-0.31-4.98-0.92-6.47
			c-0.62-1.49-1.88-2.23-3.79-2.23c-1.91,0-3.17,0.75-3.78,2.23c-0.62,1.49-0.92,3.65-0.92,6.47c0,2.88,0.3,5.07,0.9,6.56
			C319.99,115.47,321.26,116.21,323.2,116.21z"/>
		<path class="st5" d="M456.77,253.55c2.02-1.15,4.36-2.44,6.99-3.86c0.17-2.37-0.12-4.87-0.85-7.51c-3.04,3.28-6.2,7.11-9.48,11.5
			c-0.79,1.24-1.14,1.91-1.06,2.02C452.53,255.9,453.99,255.19,456.77,253.55z"/>
		<path class="st5" d="M491.37,384.55c-0.02,0.26,1.55,0.72,4.7,1.39c2.27,0.52,4.86,1.14,7.76,1.88c1.73-1.64,3.2-3.67,4.44-6.11
			c-4.45,0.36-9.37,1.05-14.76,2.06C492.09,384.15,491.38,384.41,491.37,384.55z"/>
		<path class="st5" d="M461.67,471.58c-0.14,0.22,1.02,1.37,3.46,3.47c1.75,1.54,3.72,3.33,5.91,5.37c2.3-0.61,4.57-1.68,6.83-3.23
			c-4.09-1.82-8.73-3.57-13.94-5.27C462.49,471.58,461.74,471.46,461.67,471.58z"/>
		<path class="st2" d="M301.25,383.2c3.33-2.39,7.76-2.34,11.57-0.79c4.06,1.65-0.21-5.84-4.48-6.36
			c-0.06-6.27-0.18-12.21-0.08-18.15c0.02-0.91,0.85-2.13,1.68-2.64c3.11-1.94,6.65-3.32,9.52-5.53c3.1-2.4,5.96-5.27,8.32-8.37
			c2.21-2.91,0.02-7.41-3.85-9.06c-3.4-1.45-5.45-0.17-7.08,3.83c-1.92,4.7-4.92,8.67-8.59,12.22c-0.98,0.95-2.56,0.87-3.54-0.08
			c-3.87-3.74-6.28-8.31-8.63-12.95c-1.84-3.64-5.97-4.46-8.9-1.58c-3.6,3.54-4.01,6.79-0.2,9.99c4.81,4.05,10.22,7.43,15.32,11.16
			c0.83,0.61,2.02,1.55,2.02,2.33c0,6.35-0.25,12.71-0.43,19.1C298.96,378.28,297.55,385.85,301.25,383.2z"/>
		<path class="st2" d="M250.25,504.67c6.33,2.58,12.82,4.73,19.43,6.48c13.23,3.34,26.91,5.06,40.57,4.75
			c27.35-0.12,54.47-8.19,77.78-22.5c5.21-3.09,10.11-6.65,14.89-10.37c1.41-2.07,2.53-4.18,3.3-6.34l0.06-0.2
			c2.26-7.99-0.16-16.41-5.87-22.45c-6.66-7.05,11.31-4.02,10.32-5.61c6.09,1.99-6.61-13.16-18.78-26.52
			c5.38,0.62,9.9,1.14,14.96,1.72c-6.9-6.9-9.87-14.54-8.84-24.07c7.24,1.75,10.6,7.06,14.71,12.63c1.75-2.3,3.7-4.22,4.86-6.5
			c3.94-7.81,2.84-15.62-1.13-23.03c-2.65-4.95-5.95-9.58-9.27-14.85c1.3,0.13,2.3-0.01,3.04,0.35c3.09,1.47,5.99,0.96,8.87-0.49
			c5.67-2.86,8.2-9.72,5.08-16.74c-2.45-5.51-6.2-10.47-9.35-15.68c-1.62-2.68-3.22-5.38-5.13-8.58c6.5,0.75,9.76-0.43,12.42-4.28
			c2.64-3.84,2.43-7.93,0.28-11.85c-1.38-2.52-3.17-4.84-4.88-7.18c-2.22-3.05-4.77-5.89-6.78-9.06c-4.15-6.53-5.8-13.83-6.91-21.69
			c5.8,1.92,10.5,5.59,17.06,5.09c-4.95-8.29-9.68-16.2-14.79-24.76c9.74,5.22,14.36,6.32,20.95,5.11
			c-1.66-6.43-5.16-11.79-10.19-16.09c-5-4.28-10.36-8.16-15.75-12.35c0.76-1.34,1.5-2.63,2.22-3.93c0.77-1.4,1.52-2.82,2.29-4.22
			c10.94-19.83,15.21-36.14,14.96-58.09c-0.18-15.7-3.48-31.23-9.36-45.84c-5.11-12.69-9.57-25.68-18.31-36.62
			c-5.03-6.3-10.99-11.42-19.12-13.58c-5.55-1.48-9.52,0.55-11.46,5.79c-0.99,2.68-2.09,5.52-2.14,8.3
			c-0.18,10.32-0.48,20.67,0.25,30.95c1.37,19.36,1.65,33.38-3.72,52.23c-2.58,9.08-6.23,12.64-9.42,21.63
			c-28.56-6.64-56.29-2.18-84.69-0.14c-2.81-8.48-6.04-11.86-8.45-20.69c-1.79-6.55-3.29-12.33-3.66-19.07
			c-0.88-15.96-0.73-25.1-1.48-41.06c-0.46-9.8-1.59-19.63-5.9-28.72c-4.44-9.37-13.39-10.71-20.65-3.15
			c-8,8.34-12.31,18.94-17.55,29.14c-3.83,7.46-6.99,15.27-9.13,23.39c-4.74,17.97-5.52,31.85-1.77,49.77
			c2.75,13.16,7.84,25.79,15.23,37.03c2.55,3.88,5.79,10.21,8.03,14.43c-4.94,3.96-10.05,7.14-13.93,11.37
			c-5.61,6.11-10.42,12.91-15.4,19.54c-2.49,3.31-1.4,5.58,2.91,5.95c2.69,0.23,5.48-0.23,8.18-0.62c3.02-0.44,6-1.15,8.57-1.65
			c-2.69,4.76-5.32,9.51-8.04,14.21c-3.49,6.02-6.77,12.19-10.75,17.9c-1.86,2.68-5.14,4.44-7.88,6.69
			c7.07,4.82,14.66,4.66,22.66,2.78c-0.74,1.34-1.48,2.53-2.54,3.33c-1.9,1.45-4.8,5.84-6.73,7.26c-5.12,3.75-6.5,7.58-3.38,12.71
			c1.78,2.94,4.89,5.12,7.67,7.91c-2.12,3-4.94,6.54-7.22,10.37c-2.36,3.97-4.17,8.24-6.23,12.37c0.33,0.48,0.4,0.58,0.73,1.06
			l10.52-1.03c-5.46,11.28-5.43,23.64-6.47,36.01c4.08-0.11,6.1-2.31,7.58-5.02c2.38-4.34,6.29-5.65,11.52-5.69
			c-2.11,10.92-1.97,26-12.05,33.43c7.63,5.6,14.42-2.72,21.72-4.04c-2.6,4.6-7.29,10.86-11.02,14.51
			c-5.35,5.24-10.7,7.86-7.04,9.57c-2.66,1.4,26.62,3.1,7.04,11.37c-1.15,0.48-8.03,2.62-5.35,5.24c4.28,4.19,16.36-1.56,13.38,0
			c-6.4,3.35-9.64,8.33-8.51,17.22c0.51,3.98,1.78,7.78,3.65,11.28c6.57,5.4,13.58,10.25,20.97,14.46
			C237.77,499.08,243.96,502,250.25,504.67z M349.03,283.72c2.18,3.76,3.88,7.52,6.34,10.74c4.29,5.61,9.63,6.47,16.01,3.29
			c5.68-2.83,8.66-7.66,10.72-13.2c0.53-1.43,0.89-2.91,1.44-4.76c1.57,0.02,3.19,0.05,4.75,0.07
			c3.64,14.69-11.94,31.51-26.11,28.14c-9.33-2.22-14.62-9.12-18.51-17.12c-0.56-1.16-0.91-2.42-1.31-3.66
			c-0.14-0.43-0.12-0.91-0.23-1.78C344.7,284.82,347.03,284.23,349.03,283.72z M288.84,297.27c14.01-8.91,23.4-7.76,36.31,0.76
			c8.8,5.81,14.55,13.95,18.29,23.31c3.92,9.82,7.96,19.73,10.42,29.94c3.6,14.95,0.18,25.82-16.62,36.92
			c-0.18,0.12-0.39,0.2-0.58,0.31c-4.71,2.6-9.17,5.12-12.51,9.75c-7.55,10.47-29.95,10.96-38.45-2.01
			c-2.2-3.35-5.08-4.97-8.22-6.81c-10.68-6.26-19.58-14.11-19.93-27.09c-0.17-6.24,1.14-12.75,3.06-18.76
			c3.07-9.63,7.2-18.94,10.89-28.38C276.11,308.01,281.55,301.91,288.84,297.27z M223.93,279.84c4.21-1.38,5.67,0.2,6.44,3.69
			c1.44,6.56,5,11.81,11.46,14.9c4.5,2.15,9.06,1.94,12.44-1.64c3.21-3.4,5.65-7.5,8.78-11.78c1.43,0.42,3.76,1.12,6.06,1.8
			c-0.84,9.03-12.37,20.87-21.82,21.61c-5.97,0.47-10.92-1.75-15.02-5.79C225.84,296.33,222.61,288.91,223.93,279.84z"/>
		<path class="st3" d="M139.07,232.69l6.92,5.21l-0.46,0.58c-0.74,0.94-1.71,1.86-2.9,2.76c-1.96,1.37-5.06,2.37-9.3,2.98
			c1.39,3.87,2.98,6.52,4.77,7.93c1.09,0.86,2.31,1.38,3.67,1.56c3.41-0.35,6.04-1.69,7.88-4.03c1.58-2,2.54-4.28,2.87-6.84
			l1.37,1.05c6.78,6.12,9.06,10.58,6.83,13.39l-0.51,0.65c-1.55,1.95-5.35,1.18-11.43-2.3l-4.71,12.58l0.73,0.58
			c4.4,3.49,10.3,1.61,17.67-5.65l0.53-0.67c1.3-1.64,6.75-8.56,16.35-20.75l-3.18-2.51c-0.53,0.31-1.09,0.39-1.7,0.23
			c-6.31-2.9-12.26-6.56-17.85-10.98c-5.15-4.08-10.11-8.91-14.89-14.49c-0.67-1.01-0.9-1.86-0.68-2.56l-3.31-2.66l-13.99,17.67
			l3.91,3.09C130.88,228.16,134.68,229.22,139.07,232.69z"/>
		<path class="st3" d="M99.6,299.52l5-12.22c-5.67-3.77-8.18-6.56-7.52-8.35c2.32-4.71,6.93-5.49,13.83-2.33l7.59,3.27
			c-0.03,0.7-0.3,1.61-0.81,2.73c-0.51,1.11-1.23,2.25-2.18,3.43c-1.58,1.8-4.35,3.5-8.32,5.11c2.27,3.43,4.45,5.62,6.52,6.57
			c1.27,0.58,2.58,0.79,3.94,0.64c3.44-1.08,5.79-3.01,7.06-5.79c1.3-2.85,1.55-6.09,0.75-9.71l2.53,1.09
			c8.45,4.51,11.92,8.39,10.43,11.65l-0.34,0.75c-1.03,2.26-4.91,2.43-11.64,0.49l-1.58,13.34l0.84,0.39
			c5.11,2.34,10.39-0.9,15.82-9.7l0.35-0.78c0.87-1.91,4.51-9.92,10.92-24.05l-3.68-1.68c-0.43,0.41-0.95,0.61-1.56,0.62
			c-6.91-1.33-13.77-3.55-20.59-6.67c-6.16-2.81-12.26-6.44-18.3-10.89c-0.63-0.64-0.92-1.28-0.86-1.95l-3.68-1.68l-0.43,0.93
			L89.8,284.57C90.09,291.44,93.36,296.43,99.6,299.52z"/>
		<path class="st3" d="M91.25,354.6c0.37,0.07,1.26,0.1,2.68,0.1c5.46-0.72,9.74-3.43,12.84-8.12c8.33-13.9,13.98-20.58,16.96-20.04
			c2.3,0.58,3.58,1.92,3.85,4.04c-0.37,2.04-1.36,3.69-2.95,4.93c-6.95,2.02-10.83,5.21-11.62,9.57l-0.09,0.52
			c0.26,4.9,1.65,7.69,4.2,8.36c2.54,0.67,4.27,1.09,5.19,1.26c1.94,0.35,3.59,0.27,4.97-0.26c-1.19-2.23-1.58-4.47-1.17-6.72
			c0.17-0.93,0.44-1.88,0.82-2.87l4.69-10.98c2.18-11.99-1.86-18.91-12.11-20.77c-0.5-0.09-1.03-0.18-1.57-0.26
			c-4.6,0.36-8.73,2.79-12.39,7.31c-6.08,12.89-11.73,18.87-16.95,17.92l-1.86-0.34c-3.18-0.58-4.69-3.28-4.53-8.11l0.08-0.46
			c0.83-4.57,2.37-7.05,4.63-7.46c2.25-0.41,3.75-0.54,4.49-0.41c2.29,0.42,4,2.58,5.13,6.49c2.71-2.18,4.46-5.06,5.25-8.66
			c1.06-5.84-1.55-9.33-7.84-10.47c-0.79-0.14-1.51-0.11-2.18,0.11c-7.52,1.32-12.17,6.85-13.94,16.58l-1.09,6.02
			c-0.22,1.19-0.25,3.18-0.1,5.95C77.76,347.44,82.63,353.04,91.25,354.6z"/>
		<path class="st3" d="M113.87,391.96l0.12,1.32c1.1,7.06,5.23,10.9,12.38,11.51l3.14-0.75c-0.92-3.11-1.45-5.71-1.58-7.83
			c-0.03-0.47-0.05-0.94-0.05-1.41l-1.03-19.28c-0.02-1.1-0.06-2.08-0.11-2.94c-0.05-0.86-0.12-1.6-0.2-2.23
			c-1.1-8.39-6.19-12.4-15.27-12.01l-0.5,0.03l-0.73,0.1c-0.01,0.18-0.01,0.36,0,0.56c0.12,1.91,1.2,3.78,3.24,5.6
			c1.15,1.15,1.8,2.76,1.93,4.83c0.12,1.98-0.22,4.36-1.02,7.16c-2.89,0.55-6.67,0.97-11.32,1.26c-0.93,0.06-1.89,0.1-2.88,0.15
			l-2.35,0.15c-11.17,0.69-17.85,0.17-20.04-1.55L74,376.85l1.29,20.82l3.58-0.22c2.78-2.71,10.59-4.46,23.44-5.25
			C107.15,391.9,111,391.82,113.87,391.96z"/>
		<path class="st3" d="M132.91,428.7l3.53-1.06l-5.19-20.27l-3.64,1.02c-2.73,2.75-9.19,5.47-19.39,8.18
			c-0.94,0.25-1.92,0.5-2.93,0.74l-2.28,0.6c-10.82,2.87-17.47,3.67-19.96,2.4l-3.46,0.92l5.34,20.17l3.47-0.92
			c2.2-3.2,9.62-6.47,22.28-9.82C123.27,427.33,130.68,426.67,132.91,428.7z"/>
		<path class="st3" d="M152.67,474.86l2.91-1.45l-7.29-14.59l-3,1.56c-0.86,2.61-2.3,4.44-4.33,5.47c-0.39,0.25-0.83,0.49-1.3,0.73
			c-4.99,2.54-13.94,5.21-26.86,8.01c11.16-11.58,18.47-18.44,21.94-20.6c2.87-0.95,5.03-0.92,6.5,0.12l3.55-1.74l-10.6-20.82
			l-2.88,1.57c-0.67,2.05-2.16,4.36-4.47,6.93c-10.99,11.62-18.47,18.57-22.44,20.86l-1.27,0.65c-1.66,0.84-4.14,1.48-7.44,1.91
			l-2.44,1.34l11.73,23.25l3.14-1.44c0.7-1.44,1.7-2.89,2.99-4.36c4.77-2.43,12.29-4.79,22.57-7.08
			C142.28,473.43,148.62,473.32,152.67,474.86z"/>
		<path class="st3" d="M154.88,524.9c5.25-9.06,12.39-17.48,21.43-25.26c0.79-0.68,1.76-1.5,2.91-2.47l-15.06-17.75l-6.98,6.59
			c-1.6,1.17-3.1,2.16-4.52,2.99c-0.27-0.96-0.95-2.17-2.03-3.64c-3.72-4.19-8.02-4.41-12.9-0.65c-1.59,1.75-1.81,3.86-0.69,6.33
			c2.12-0.76,3.49-0.77,4.13-0.03c0.37,0.43,0.62,1.09,0.75,1.99c0.09,0.75,0.18,1.33,0.27,1.74c-6.28,3.39-12.32,5.77-18.13,7.15
			c-2.84,0.6-4.88,0.54-6.13-0.2l-2.74,2.55l9.43,10.96l2.83-2.47c-0.12-0.65,0.21-1.31,1-1.99l0.35-0.3
			c2.41-2.08,4.91-3.87,7.49-5.39c3.07-1.69,5.7-3.15,7.88-4.37c0.12,0.31,0.41,0.88,0.85,1.7c0.82,1.67,1.81,3.17,2.96,4.51
			c0.6,0.7,1.06,1.18,1.38,1.45c-2.83,2.98-5.76,5.77-8.78,8.37c-0.38,0.35-0.73,0.67-1.09,0.97c-2.46,2.12-4.24,3.13-5.34,3.05
			l-2.74,2.36l14.34,16.66l3.36-3.12C148.49,535.95,150.42,532.03,154.88,524.9z M160.12,491.47c2.72-1.72,4.17-2.48,4.33-2.29
			c0.09,0.1-0.24,0.79-0.99,2.05c-3.14,4.49-6.18,8.42-9.11,11.79c-0.81-2.61-1.18-5.1-1.09-7.47
			C155.85,494.05,158.13,492.69,160.12,491.47z"/>
		<path class="st3" d="M195.18,540.57c-4.05-0.1-7.19,2.5-9.41,7.81c3.22,3.69,3.76,6.63,1.62,8.83c-2.14,2.2-4.29,2.51-6.46,0.94
			c-2.16-1.57-4.28-3.58-6.35-6.01c1.32-3.94,4.67-9.7,10.03-17.29c7.53-10.64,12.79-15.89,15.8-15.77l2.03-3.08l-16.99-12.22
			l-2.13,3.12c-0.33,3.86-3.54,10.09-9.64,18.71c-0.56,0.79-1.15,1.61-1.77,2.45l-1.36,1.92c-6.46,9.14-11.06,14.02-13.77,14.64
			l-2.07,2.92l13.53,9.57c4.21,3.06,6.68,4.84,7.38,5.34c2.47,1.64,4.48,2.67,6.05,3.1c7.71,2.15,13.36,0.7,16.94-4.36
			c3.04-4.49,4.61-8.2,4.73-11.12C201.96,543.84,199.24,540.67,195.18,540.57z"/>
		<path class="st3" d="M261.65,568.75c-3.84,1.31-5.88,4.84-6.12,10.59c4.3,2.34,5.83,4.92,4.58,7.72c-1.25,2.8-3.16,3.84-5.73,3.12
			c-2.57-0.72-5.26-1.87-8.04-3.44c-0.12-4.16,1.02-10.72,3.42-19.69c3.37-12.59,6.49-19.34,9.35-20.27l0.84-3.59l-20.17-5.57
			l-0.92,3.67c1.03,3.73,0.18,10.7-2.55,20.89c-0.25,0.94-0.52,1.91-0.81,2.91l-0.61,2.28c-2.9,10.81-5.51,16.98-7.85,18.51
			l-0.93,3.46l16.01,4.29c5.02,1.41,7.94,2.23,8.77,2.45c2.88,0.68,5.13,0.95,6.75,0.81c7.98-0.65,12.78-3.97,14.38-9.95
			c1.29-5.27,1.48-9.29,0.58-12.07C269.15,569.47,265.49,567.44,261.65,568.75z"/>
		<path class="st3" d="M320.31,586.38c-3.25-9.95-4.75-20.89-4.51-32.81c0.02-1.04,0.06-2.31,0.1-3.82l-23.26-0.64l0.24,9.6
			c-0.2,1.97-0.46,3.75-0.78,5.36c-0.9-0.44-2.25-0.74-4.07-0.91c-5.61-0.03-8.63,3.03-9.09,9.18c0.24,2.35,1.66,3.93,4.25,4.73
			c0.85-2.08,1.76-3.12,2.74-3.1c0.57,0.01,1.23,0.27,1.99,0.77c0.62,0.43,1.11,0.75,1.48,0.96c-1.67,6.93-3.93,13.03-6.77,18.28
			c-1.44,2.51-2.85,3.99-4.23,4.43l0.07,3.75l14.45,0.29l0.05-3.75c-0.56-0.34-0.83-1.03-0.81-2.07l0.01-0.46
			c0.06-3.19,0.39-6.24,0.97-9.17c0.79-3.41,1.46-6.34,2-8.79c0.31,0.12,0.92,0.28,1.84,0.5c1.79,0.5,3.57,0.77,5.33,0.8
			c0.92,0.02,1.58,0,2-0.06c0.33,4.1,0.45,8.14,0.37,12.12c0.01,0.51,0.01,1,0,1.46c-0.07,3.25-0.5,5.26-1.3,6.01l-0.07,3.62
			l21.98,0.44l-0.08-4.58C324.27,598.5,322.64,594.46,320.31,586.38z M297.37,567.99c0.61-2.93,1.12-5.54,1.54-7.83
			c0.53-3.18,0.93-4.76,1.18-4.75c0.14,0.01,0.43,0.71,0.87,2.11c1.24,5.33,2.14,10.22,2.7,14.66
			C301.18,571.03,299.08,569.64,297.37,567.99z"/>
		<path class="st3" d="M390.41,584.82l-2.31-0.61c-3.62-3.78-7.31-13.04-11.09-27.78c-1.96-7.63-2.2-13-0.73-16.12l-0.94-2.95
			l-22.05,5.58l1.09,4.14c1.82,0.31,3.21,1.44,4.17,3.38l-2.14,16.38c-1.03-1.56-2.52-4.04-4.48-7.42
			c-1.84-2.82-3.06-5.42-3.67-7.79c-0.21-0.81-0.1-2.09,0.33-3.82l-0.84-3.41l-21.77,5.47l1.05,4.11c2.05,1.37,3.9,4.53,5.55,9.47
			c5.16,20.14,5.85,32.07,2.09,35.77l0.89,3.47l16.19-4.15l-0.81-3.53c-3.88-1.36-6.4-4.24-7.52-8.65
			c-1.79-7.01-2.92-14.16-3.37-21.47c3.51,6.2,6.92,12.02,10.23,17.45c3.31,5.43,6.89,10.59,10.73,15.47
			c-0.26-18.7,0.31-31.1,1.7-37.18c1.88,4.79,3.34,9.25,4.4,13.36l1.51,5.88c1.23,6.56,1.38,9.96,0.43,10.2
			c-0.02,0.01-0.36,0.01-1.02,0.02l1.26,3.96l20.92-5.36l0.05,0.06c0.81-0.21,1.13-0.69,0.93-1.44
			C391.07,586.9,390.81,586.07,390.41,584.82z"/>
		<path class="st3" d="M430.87,547.6c-7.95-6.82-14.91-15.39-20.89-25.7c-0.52-0.9-1.15-2-1.89-3.32l-20.22,11.54l5.19,8.07
			c0.85,1.78,1.56,3.45,2.11,4.99c-0.99,0.09-2.31,0.54-3.95,1.33c-4.8,2.89-5.8,7.08-3,12.56c1.43,1.88,3.46,2.49,6.09,1.84
			c-0.36-2.22-0.11-3.58,0.73-4.07c0.49-0.29,1.19-0.41,2.1-0.37c0.75,0.05,1.35,0.07,1.76,0.05c2.17,6.79,3.41,13.17,3.7,19.14
			c0.07,2.9-0.36,4.89-1.32,5.98l2.01,3.17l12.5-7.26l-1.91-3.23c-0.66,0-1.25-0.45-1.77-1.35l-0.23-0.4
			c-1.6-2.76-2.91-5.54-3.93-8.35c-1.09-3.33-2.05-6.18-2.85-8.55c0.33-0.06,0.94-0.24,1.83-0.53c1.79-0.5,3.45-1.19,4.98-2.08
			c0.8-0.46,1.36-0.82,1.68-1.09c2.41,3.33,4.61,6.72,6.61,10.17c0.27,0.43,0.53,0.85,0.76,1.25c1.63,2.81,2.3,4.75,2.01,5.81
			l1.81,3.13l19.01-11.03l-2.45-3.87C440.55,555.91,437.05,553.3,430.87,547.6z M401.72,543.8c-1.01-2.82-1.92-5.32-2.75-7.49
			c-1.19-2.99-1.68-4.55-1.46-4.68c0.12-0.07,0.73,0.38,1.83,1.35c3.84,3.91,7.14,7.62,9.92,11.12
			C406.56,544.42,404.04,544.32,401.72,543.8z"/>
		<path class="st3" d="M463.72,505.61c-6.39,0.18-10.02,2.24-10.9,6.2c-0.88,3.96,1.08,7.54,5.87,10.73
			c4.24-2.46,7.23-2.43,8.97,0.09c1.75,2.52,1.64,4.7-0.31,6.52c-1.96,1.82-4.33,3.52-7.12,5.08c-3.61-2.05-8.63-6.44-15.05-13.15
			c-9-9.42-13.16-15.59-12.47-18.52l-2.63-2.58l-15.24,14.34l2.66,2.69c3.72,1.06,9.23,5.4,16.53,13.03c0.67,0.7,1.36,1.44,2.06,2.2
			l1.63,1.7c7.74,8.09,11.65,13.53,11.74,16.32l2.48,2.59l11.98-11.46c3.81-3.55,6.03-5.63,6.65-6.23c2.08-2.11,3.48-3.89,4.2-5.34
			c3.59-7.16,3.24-12.98-1.04-17.46C469.9,508.55,466.56,506.29,463.72,505.61z"/>
		<path class="st3" d="M498.63,470.3c-10.2-2.37-20.34-6.74-30.42-13.11c-0.88-0.56-1.95-1.25-3.21-2.06l-12.57,19.59l8.34,4.75
			c1.58,1.18,2.98,2.33,4.18,3.44c-0.83,0.54-1.8,1.54-2.88,3.01c-2.92,4.78-1.87,8.96,3.15,12.53c2.14,1,4.22,0.61,6.25-1.19
			c-1.35-1.8-1.76-3.12-1.23-3.95c0.3-0.48,0.86-0.91,1.68-1.3c0.69-0.3,1.22-0.56,1.59-0.77c5.07,5.02,9.12,10.1,12.14,15.25
			c1.41,2.54,1.94,4.51,1.6,5.91l3.25,1.88l7.72-12.22l-3.18-1.98c-0.58,0.3-1.32,0.17-2.2-0.38l-0.39-0.24
			c-2.69-1.7-5.14-3.56-7.34-5.58c-2.52-2.45-4.68-4.53-6.49-6.26c0.27-0.2,0.72-0.64,1.38-1.32c1.36-1.28,2.5-2.66,3.45-4.15
			c0.49-0.78,0.82-1.36,0.99-1.74c3.68,1.84,7.2,3.82,10.57,5.95c0.44,0.26,0.86,0.51,1.25,0.75c2.75,1.74,4.24,3.14,4.48,4.22
			l3.06,1.93l11.74-18.58l-3.96-2.3C511.06,473.17,506.75,472.48,498.63,470.3z M471.04,480.42c-2.2-2.03-4.16-3.82-5.91-5.37
			c-2.44-2.1-3.59-3.26-3.46-3.47c0.07-0.11,0.82,0,2.26,0.35c5.21,1.69,9.85,3.45,13.94,5.27
			C475.61,478.73,473.34,479.81,471.04,480.42z"/>
		<path class="st3" d="M520.09,414.15c-7.67-1.75-12.72-0.22-15.14,4.57l-0.41,1.26c-1.78,5.4-0.22,9.85,4.68,13.36
			c0.46,0.15,1.23,0.16,2.3,0.02l0.27-0.81c1.22-3.7,3.05-5.37,5.49-5c5.11,2.99,7.61,5.51,7.5,7.55l-1.48,5.33
			c-0.33,1.01-1.06,1.9-2.18,2.68c-4.23,1.39-9.11,1.17-14.63-0.65l-16.51-5.45c-5.73-1.89-9.05-3.95-9.95-6.16
			c-0.32-0.58-0.39-1.14-0.21-1.68c0.21-0.65,0.7-1.29,1.48-1.93c8.6-0.59,13.65-3.15,15.15-7.69l0.29-0.87
			c0.56-4.72-2.7-8.51-9.77-11.36c-0.92-0.31-2.23-0.31-3.91-0.02c0.19,2.81,0.08,4.99-0.34,6.54l-0.12,0.36
			c-0.69,2.09-1.52,4.04-2.49,5.86c-2.83,4.41-4.38,7.03-4.65,7.84l-0.02,0.06c-0.82,2.48-1.14,5.54-0.98,9.21
			c1.83,10.26,8.62,17.32,20.36,21.2c4.14,1.37,7.82,1.97,11.04,1.81c11.27-1.27,18.24-5.94,20.9-13.99
			c0.35-1.08,1.45-4.87,3.3-11.38C531.37,423.67,528.06,416.78,520.09,414.15z"/>
		<path class="st3" d="M527.7,381.53c0.51,0.01,1,0.03,1.46,0.06c3.25,0.21,5.23,0.72,5.95,1.56l3.61,0.23l1.39-21.94l-4.58-0.11
			c-0.06,0.94-4.18,2.39-12.35,4.37c-10.08,2.82-21.08,3.85-32.98,3.09c-1.04-0.06-2.31-0.16-3.81-0.27l-1.64,23.22l9.6,0.17
			c1.96,0.28,3.73,0.62,5.32,1.01c-0.48,0.87-0.84,2.22-1.09,4.02c-0.26,5.6,2.66,8.76,8.77,9.48c2.36-0.15,4-1.49,4.91-4.05
			c-2.05-0.93-3.04-1.89-2.98-2.87c0.04-0.57,0.32-1.21,0.85-1.95c0.46-0.6,0.8-1.08,1.02-1.44c6.86,1.97,12.85,4.49,17.98,7.56
			c2.45,1.55,3.86,3.02,4.24,4.42l3.75,0.09l0.92-14.43l-3.74-0.21c-0.37,0.55-1.07,0.78-2.11,0.72l-0.47-0.03
			c-3.18-0.2-6.22-0.66-9.12-1.38c-3.37-0.94-6.27-1.73-8.69-2.38c0.13-0.31,0.32-0.91,0.58-1.82c0.58-1.77,0.92-3.53,1.03-5.29
			c0.06-0.92,0.07-1.59,0.03-2C519.68,381.22,523.72,381.27,527.7,381.53z M503.83,387.81c-2.9-0.73-5.49-1.36-7.76-1.88
			c-3.15-0.67-4.71-1.13-4.7-1.39c0.01-0.14,0.72-0.4,2.14-0.78c5.39-1.01,10.31-1.7,14.76-2.06
			C507.03,384.14,505.55,386.18,503.83,387.81z"/>
		<path class="st3" d="M483.08,318.05l-3.61,0.75l3.43,20.64l3.71-0.71c2.89-2.45,9.15-4.54,18.75-6.25
			c0.07,0.52,0.06,1.42-0.04,2.69c-0.21,1.75-0.83,3.58-1.86,5.52c-9.32,1.31-14.84,1.02-16.59-0.87l-3.61,0.75l3.43,20.64
			l3.72-0.71c2.95-2.5,9.63-4.66,20.03-6.47c0.95-0.17,1.95-0.33,2.98-0.49l2.32-0.4c11.03-1.92,17.72-2.14,20.09-0.67l3.53-0.61
			l-3.58-20.56l-3.53,0.62c-2.1,2.53-7.46,4.7-16.08,6.5c0.31-0.65,0.32-1.82,0.03-3.52c-0.28-1.6-0.79-2.92-1.53-3.97
			c9.34-1.55,15.13-1.62,17.38-0.22l3.53-0.62l-3.58-20.56l-3.53,0.62c-2.46,2.99-10.15,5.62-23.04,7.86
			C492.57,320.24,485.13,320.25,483.08,318.05z"/>
		<path class="st3" d="M494.83,257.41c-4.86,2.4-8.07,4.83-9.62,7.31c-1.88,6.11-1.09,10.22,2.38,12.32
			c3.47,2.1,7.49,1.4,12.04-2.11c-0.97-4.8,0.02-7.62,2.97-8.47c2.95-0.85,4.97-0.05,6.07,2.39c1.1,2.44,1.94,5.23,2.53,8.37
			c-3.11,2.77-8.87,6.11-17.29,10.04c-11.81,5.51-18.99,7.46-21.54,5.86l-3.29,1.66l8.69,19.03l3.4-1.65
			c2.2-3.19,8.08-7.01,17.64-11.47c0.88-0.41,1.8-0.83,2.75-1.25l2.13-1c10.15-4.73,16.55-6.69,19.22-5.88l3.25-1.51l-7-15.02
			c-2.14-4.75-3.39-7.52-3.76-8.3c-1.33-2.64-2.57-4.54-3.72-5.69C506.07,256.33,500.44,254.79,494.83,257.41z"/>
		<path class="st3" d="M437.87,247.24l14.47,18.22l7.19-6.36c1.63-1.11,3.17-2.06,4.61-2.85c0.24,0.97,0.88,2.2,1.92,3.7
			c3.59,4.31,7.88,4.66,12.87,1.06c1.64-1.7,1.94-3.8,0.89-6.3c-2.14,0.69-3.52,0.66-4.13-0.1c-0.35-0.44-0.59-1.11-0.69-2.01
			c-0.07-0.75-0.14-1.33-0.22-1.75c6.38-3.18,12.5-5.37,18.36-6.57c2.85-0.51,4.89-0.38,6.11,0.4l2.83-2.47l-9.07-11.26l-2.9,2.38
			c0.1,0.65-0.26,1.3-1.07,1.95l-0.36,0.29c-2.48,2-5.03,3.72-7.65,5.15c-3.12,1.59-5.79,2.96-8.01,4.12
			c-0.11-0.31-0.38-0.89-0.8-1.73c-0.77-1.69-1.71-3.23-2.81-4.6c-0.58-0.72-1.02-1.21-1.33-1.49c2.92-2.89,5.94-5.58,9.04-8.08
			c0.38-0.33,0.76-0.65,1.12-0.94c2.53-2.04,4.34-3,5.44-2.88l2.82-2.27l-13.8-17.11l-3.45,3.01c0.59,0.73-1.46,4.59-6.15,11.56
			c-5.53,8.89-12.94,17.07-22.22,24.56C440.05,245.52,439.05,246.31,437.87,247.24z M453.42,253.68c3.28-4.38,6.45-8.22,9.48-11.5
			c0.73,2.63,1.02,5.14,0.85,7.51c-2.63,1.42-4.96,2.71-6.99,3.86c-2.77,1.63-4.24,2.35-4.4,2.15
			C452.28,255.6,452.63,254.92,453.42,253.68z"/>
		<path class="st4" d="M409.24,227.93c5.31-2.25,9.8-6.08,13.55-10.46c3.75-4.41,6.69-9.59,8.57-15.14
			c1.89-5.53,2.88-11.44,2.5-17.25c0.01-2.9-0.69-5.76-1.25-8.56c-0.71-2.78-1.83-5.46-3.04-8.01c-0.49,2.89-0.41,5.61-0.8,8.32
			c-0.33,2.7-0.52,5.33-1.07,7.92c-0.74,5.19-2.11,10.16-3.75,15.01c-1.63,4.86-3.73,9.59-6.23,14.23
			C415.27,218.67,412.42,223.19,409.24,227.93z"/>
		<path class="st4" d="M427.8,222.79c-4.74,3.74-10.09,6.54-16.21,9.37c3.37,0.73,6.86,0.35,10.17-0.55
			c3.32-0.93,6.48-2.53,9.23-4.67c2.75-2.13,5.16-4.76,6.83-7.8c1.77-2.97,2.77-6.33,3.06-9.71c-2.32,2.56-4.16,5.09-6.37,7.27
			C432.44,218.97,430.16,220.94,427.8,222.79z"/>
		<path class="st4" d="M183.55,202.95c2.42,5.34,5.87,10.19,10.04,14.21c4.18,3.98,9.02,7.34,14.53,9.05
			c-3.64-4.4-6.92-8.61-9.84-13.02c-2.95-4.36-5.51-8.86-7.62-13.53c-2.12-4.67-3.98-9.47-5.23-14.56c-0.8-2.52-1.25-5.12-1.85-7.77
			c-0.65-2.66-0.84-5.37-1.62-8.2c-0.95,2.66-1.8,5.44-2.22,8.28c-0.28,2.84-0.69,5.75-0.39,8.64
			C179.54,191.86,181.12,197.63,183.55,202.95z"/>
		<path class="st4" d="M186.39,227.39c2.95,1.86,6.26,3.13,9.65,3.73c3.38,0.57,6.9,0.6,10.17-0.47c-6.38-2.2-11.97-4.45-17.07-7.7
			c-2.53-1.6-5-3.34-7.29-5.39c-2.42-1.95-4.5-4.28-7.07-6.6c0.62,3.33,1.96,6.57,4.02,9.35
			C180.78,223.17,183.44,225.54,186.39,227.39z"/>
		<path class="st4" d="M394.57,503.86c24.94-15.92,45.48-38.67,58.21-65.22c1.69-3.27,3.03-6.7,4.51-10.05
			c1.26-3.45,2.7-6.83,3.74-10.36c2.37-6.95,4.02-14.11,5.34-21.3c2.43-14.43,3.06-29.12,1.58-43.59
			c-1.59-14.44-4.93-28.67-10.38-42.03c-5.39-13.37-12.67-25.89-21.48-37.11c7.69,12.01,13.76,24.93,18.1,38.33
			c4.31,13.41,6.79,27.33,7.4,41.28c1.34,27.91-4.94,55.88-17.86,80.23c-6.42,12.2-14.61,23.39-23.9,33.48
			c-4.72,4.98-9.73,9.68-15.03,14.03c-0.62,0.49-1.25,0.98-1.88,1.47c-13.19,19.31-52.85,34.23-90.91,34.23
			c-56.75,0-78.01-11.83-93.86-26.69c-2.92-2.73-5.38-5.91-7.25-9.4c-14.59-12.01-26.99-26.76-36.44-43.25
			c-13.56-24-20.64-51.75-20.11-79.69c0.32-27.95,8.51-55.86,23.17-80.31c-17.11,22.86-27.44,51.03-29.58,80.02
			c-0.94,14.49-0.16,29.19,2.84,43.52c2.84,14.37,8.03,28.25,14.72,41.34c13.55,26.16,34.76,48.25,60.1,63.51
			c25.4,15.26,55.2,23.02,84.83,22.66C340.09,528.57,369.59,519.74,394.57,503.86z"/>
		<path class="st4" d="M312,517.26c38.06,0,77.72-14.93,90.91-34.23c-4.78,3.72-9.69,7.28-14.89,10.37
			c-23.3,14.32-50.43,22.38-77.78,22.5c-13.66,0.31-27.34-1.41-40.57-4.75c-6.6-1.75-13.1-3.89-19.43-6.48
			c-6.28-2.67-12.48-5.59-18.39-9.05c-7.39-4.2-14.4-9.05-20.97-14.46c1.87,3.49,4.33,6.67,7.25,9.4
			C233.99,505.43,255.25,517.26,312,517.26z"/>
		<path class="st4" d="M286.24,98.92c0.52-0.77,1.24-1.15,2.18-1.15c0.91,0,1.59,0.28,2.06,0.85c0.47,0.56,0.7,1.35,0.7,2.35
			c0,1.66-0.68,3.41-2.04,5.25c-1.36,1.83-3.04,3.61-5.04,5.34c-2.01,1.73-4.58,3.78-7.72,6.16v6.92h24.74v-7.48H289
			c3.36-2.26,6.17-4.81,8.42-7.67c2.25-2.85,3.37-5.91,3.37-9.18c0-3.04-0.97-5.52-2.91-7.43c-1.94-1.91-4.9-2.87-8.88-2.87
			c-2.3,0-4.38,0.43-6.26,1.29c-1.88,0.86-3.39,2.21-4.56,4.05s-1.8,4.15-1.89,6.94h9.22C285.48,100.81,285.72,99.69,286.24,98.92z"
			/>
		<path class="st4" d="M323.2,124.91c4.89,0,8.46-1.55,10.72-4.66c2.26-3.11,3.39-7.39,3.39-12.84c0-5.4-1.14-9.65-3.42-12.75
			c-2.28-3.1-5.84-4.66-10.7-4.66c-4.85,0-8.41,1.55-10.67,4.66c-2.26,3.11-3.39,7.36-3.39,12.75c0,5.46,1.12,9.74,3.37,12.84
			C314.75,123.36,318.32,124.91,323.2,124.91z M319.42,100.94c0.61-1.49,1.88-2.23,3.78-2.23c1.91,0,3.17,0.75,3.79,2.23
			c0.62,1.49,0.92,3.65,0.92,6.47c0,2.88-0.3,5.07-0.9,6.56c-0.6,1.49-1.87,2.23-3.81,2.23c-1.94,0-3.21-0.74-3.81-2.23
			c-0.6-1.49-0.9-3.68-0.9-6.56C318.5,104.59,318.8,102.43,319.42,100.94z"/>
		<path class="st4" d="M286.24,140.74c0.52-0.77,1.24-1.15,2.18-1.15c0.91,0,1.59,0.28,2.06,0.85c0.47,0.56,0.7,1.35,0.7,2.35
			c0,1.66-0.68,3.41-2.04,5.25c-1.36,1.83-3.04,3.61-5.04,5.34c-2.01,1.73-4.58,3.78-7.72,6.16v6.92h24.74v-7.48H289
			c3.36-2.26,6.17-4.81,8.42-7.67c2.25-2.85,3.37-5.91,3.37-9.18c0-3.04-0.97-5.52-2.91-7.43c-1.94-1.91-4.9-2.87-8.88-2.87
			c-2.3,0-4.38,0.43-6.26,1.29c-1.88,0.86-3.39,2.21-4.56,4.05c-1.16,1.84-1.8,4.15-1.89,6.94h9.22
			C285.48,142.63,285.72,141.51,286.24,140.74z"/>
		<path class="st4" d="M318.69,140.74c0.52-0.77,1.24-1.15,2.18-1.15c0.91,0,1.59,0.28,2.06,0.85c0.47,0.56,0.7,1.35,0.7,2.35
			c0,1.66-0.68,3.41-2.04,5.25c-1.36,1.83-3.04,3.61-5.04,5.34c-2.01,1.73-4.58,3.78-7.72,6.16v6.92h24.74v-7.48h-12.13
			c3.36-2.26,6.17-4.81,8.42-7.67c2.25-2.85,3.37-5.91,3.37-9.18c0-3.04-0.97-5.52-2.91-7.43c-1.94-1.91-4.9-2.87-8.88-2.87
			c-2.3,0-4.38,0.43-6.26,1.29s-3.39,2.21-4.56,4.05c-1.16,1.84-1.8,4.15-1.89,6.94h9.22C317.93,142.63,318.17,141.51,318.69,140.74
			z"/>
	</g>
	<ellipse class="st2" cx="306.36" cy="376.27" rx="8.97" ry="14.39"/>
	<g>
		<circle class="st4" cx="305.14" cy="383.8" r="12.8"/>
		<path class="st6" d="M309.78,373.96c0,0,5.43,2.14,5.78,7.23c0.34,5.01-2.35,0.18-3.61-2.4
			C310.34,375.49,305.48,372.34,309.78,373.96z"/>
		<path class="st6" d="M314.47,384.83c-0.5,0.15,0.09,1.92-0.64,3.41c-1.15,2.33-3.18,5.06-1.47,3.92
			C314.47,390.73,317.27,383.96,314.47,384.83z"/>
	</g>
</g>
</svg>
