<?xml version="1.0" encoding="utf-8"?>
<!-- Generator: Adobe Illustrator 26.0.3, SVG Export Plug-In . SVG Version: 6.00 Build 0)  -->
<svg version="1.1" xmlns="http://www.w3.org/2000/svg" xmlns:xlink="http://www.w3.org/1999/xlink" x="0px" y="0px"
	 viewBox="0 0 595.28 696.24" style="enable-background:new 0 0 595.28 696.24;" xml:space="preserve">
<style type="text/css">
	.st0{display:none;}
	.st1{display:inline;fill:#EAB894;}
	.st2{fill:#682470;}
	.st3{fill:#7D7DBB;}
	.st4{fill:#EA5D7B;}
	.st5{fill:none;}
	.st6{fill:#F08EB8;}
</style>
<g id="Ebene_2" class="st0">
	<rect x="-1.03" y="-1.93" class="st1" width="597.43" height="700.51"/>
</g>
<g id="Ebene_1">
	<g>
		<g>
			<path class="st2" d="M268.76,355.01c7.51,11.78,19.04,24.23,29.39,20.09c0.18-6.4,0.42-12.75,0.43-19.1
				c0-0.79-1.19-1.72-2.02-2.33c-5.1-3.73-10.5-7.11-15.32-11.16c-3.8-3.2-3.4-6.45,0.2-9.99c2.93-2.88,7.06-2.06,8.9,1.58
				c2.35,4.64,4.76,9.21,8.63,12.95c0.98,0.95,2.56,1.03,3.54,0.08c3.68-3.55,6.68-7.52,8.59-12.22c1.63-4,3.69-5.28,7.08-3.83
				c3.87,1.66,6.05,6.16,3.85,9.06c-2.36,3.1-5.21,5.97-8.32,8.37c-2.87,2.22-6.4,3.59-9.52,5.53c-0.82,0.51-1.66,1.73-1.68,2.64
				c-0.1,5.94,0.03,11.88,0.08,18.15c4.27,0.52,9.15,2.14,13.09-1.03c3.41-2.74,17.43-12.14,20.55-15.66
				c2.27,0.76,2.74,2.97,2.03,5.23c-1.4,4.44-15.23,13.98-19.24,16.76c-3.71,2.57-7.88,2.71-11.94,1.06
				c-3.82-1.55-8.24-1.6-11.57,0.79c-7.57,5.43-27.66-12.47-29.39-21.51C265.71,358.23,266.28,356.24,268.76,355.01z"/>
		</g>
		<g>
			<path class="st2" d="M409.14,334.02c-1.62-2.68-3.22-5.38-5.13-8.58c6.5,0.75,9.76-0.43,12.42-4.28
				c2.64-3.84,2.43-7.93,0.28-11.85c-1.38-2.52-3.17-4.84-4.88-7.18c-2.22-3.05-4.77-5.89-6.78-9.06
				c-4.15-6.53-5.8-13.83-6.91-21.69c5.8,1.92,10.5,5.59,17.06,5.09c-4.95-8.29-9.68-16.2-14.79-24.76
				c9.74,5.22,14.36,6.32,20.95,5.11c-1.66-6.43-5.16-11.79-10.19-16.09c-5-4.28-10.36-8.16-15.75-12.35
				c0.76-1.34,1.5-2.63,2.22-3.93c0.77-1.4,1.52-2.82,2.29-4.22c10.94-19.83,15.21-36.14,14.96-58.09
				c-0.18-15.7-3.48-31.23-9.36-45.84c-5.11-12.69-9.57-25.68-18.31-36.62c-5.03-6.3-10.99-11.42-19.12-13.58
				c-5.55-1.48-9.52,0.55-11.46,5.79c-0.99,2.68-2.09,5.52-2.14,8.3c-0.18,10.32-0.48,20.67,0.25,30.95
				c1.37,19.36,1.64,33.38-3.72,52.23c-2.58,9.08-6.23,12.64-9.42,21.63c-28.56-6.64-56.29-2.18-84.69-0.14
				c-2.81-8.48-6.04-11.86-8.45-20.69c-1.79-6.55-3.29-12.33-3.66-19.07c-0.88-15.96-0.73-25.1-1.48-41.06
				c-0.46-9.8-1.59-19.63-5.9-28.72c-4.44-9.37-13.39-10.71-20.65-3.15c-8,8.34-12.31,18.94-17.55,29.14
				c-3.83,7.46-6.99,15.27-9.13,23.39c-4.74,17.97-5.52,31.85-1.77,49.77c2.75,13.16,7.84,25.79,15.23,37.03
				c2.55,3.88,5.79,10.21,8.03,14.43c-4.94,3.96-10.05,7.14-13.93,11.37c-5.61,6.11-10.43,12.91-15.4,19.54
				c-2.49,3.31-1.4,5.58,2.91,5.95c2.69,0.23,5.48-0.23,8.18-0.62c3.02-0.44,6-1.15,8.57-1.65c-2.69,4.76-5.32,9.51-8.04,14.21
				c-3.49,6.02-6.77,12.19-10.75,17.9c-1.86,2.68-5.14,4.44-7.88,6.69c7.07,4.82,14.66,4.66,22.66,2.78
				c-0.74,1.34-1.48,2.53-2.54,3.33c-1.9,1.45-4.8,5.84-6.73,7.26c-5.12,3.75-6.5,7.58-3.38,12.71c1.78,2.94,4.89,5.12,7.67,7.91
				c-2.12,3-4.94,6.54-7.22,10.37c-2.36,3.97-4.17,8.24-6.23,12.37c0.33,0.48,0.4,0.58,0.73,1.06l10.52-1.03
				c-5.46,11.28-5.43,23.64-6.47,36.01c4.08-0.11,6.1-2.31,7.58-5.02c2.38-4.34,6.29-5.65,11.52-5.69
				c-2.11,10.92-1.97,26-12.05,33.43c7.63,5.6,14.42-2.72,21.72-4.04c-2.6,4.6-7.29,10.86-11.02,14.51
				c-5.35,5.24-10.7,7.86-7.04,9.57c-2.66,1.4,26.62,3.1,7.04,11.37c-1.15,0.48-8.03,2.62-5.35,5.24c4.28,4.19,16.36-1.56,13.38,0
				c-6.4,3.35-9.64,8.33-8.51,17.22c1.02,7.94,5.06,15.21,10.9,20.68c15.85,14.86,37.11,26.69,93.86,26.69
				c42.14,0,86.25-18.29,94.21-40.57l0.06-0.2c2.26-7.99-0.16-16.41-5.87-22.45c-6.66-7.05,11.31-4.02,10.32-5.61
				c6.09,1.99-6.61-13.16-18.78-26.52c5.38,0.62,9.9,1.14,14.96,1.72c-6.9-6.9-9.87-14.54-8.84-24.07
				c7.24,1.75,10.6,7.06,14.71,12.63c1.75-2.3,3.7-4.22,4.86-6.5c3.94-7.81,2.84-15.62-1.13-23.03c-2.65-4.95-5.95-9.58-9.27-14.85
				c1.3,0.13,2.3-0.01,3.04,0.35c3.09,1.47,5.99,0.96,8.87-0.49c5.67-2.86,8.2-9.72,5.08-16.74
				C416.05,344.2,412.3,339.23,409.14,334.02z M343.3,282.51c2.18,3.76,3.88,7.52,6.34,10.74c4.29,5.61,9.63,6.47,16.01,3.29
				c5.68-2.83,8.66-7.66,10.72-13.2c0.53-1.43,0.89-2.91,1.44-4.76c1.57,0.02,3.19,0.05,4.75,0.07
				c3.64,14.69-11.94,31.51-26.11,28.14c-9.33-2.22-14.62-9.12-18.51-17.12c-0.56-1.16-0.91-2.42-1.31-3.66
				c-0.14-0.43-0.12-0.91-0.23-1.78C338.98,283.61,341.3,283.02,343.3,282.51z M283.12,296.06c14.01-8.91,23.4-7.76,36.31,0.76
				c8.8,5.81,14.55,13.95,18.29,23.31c3.92,9.82,7.96,19.73,10.42,29.94c3.6,14.95,0.18,25.82-16.62,36.92
				c-0.18,0.12-0.39,0.2-0.58,0.31c-4.71,2.6-9.17,5.12-12.51,9.75c-7.55,10.47-29.95,10.96-38.45-2.01
				c-2.2-3.35-5.08-4.97-8.22-6.81c-10.68-6.26-19.58-14.11-19.93-27.09c-0.17-6.24,1.14-12.75,3.06-18.76
				c3.07-9.63,7.2-18.94,10.89-28.38C270.38,306.8,275.83,300.7,283.12,296.06z M218.21,278.63c4.21-1.38,5.67,0.2,6.43,3.69
				c1.44,6.56,5,11.81,11.46,14.9c4.5,2.15,9.06,1.94,12.44-1.64c3.21-3.4,5.65-7.5,8.78-11.78c1.43,0.42,3.76,1.12,6.06,1.8
				c-0.84,9.03-12.37,20.87-21.82,21.61c-5.97,0.47-10.92-1.75-15.02-5.79C220.12,295.11,216.89,287.7,218.21,278.63z"/>
		</g>
		<path class="st3" d="M132.03,207.54l3.31,2.66c-0.22,0.7,0.01,1.56,0.68,2.56c4.78,5.58,9.74,10.41,14.89,14.49
			c5.59,4.42,11.53,8.08,17.85,10.98c0.61,0.16,1.17,0.08,1.7-0.23l3.18,2.51c-9.6,12.19-15.05,19.11-16.35,20.75l-0.53,0.67
			c-7.38,7.25-13.27,9.13-17.67,5.65l-0.73-0.58l4.71-12.58c6.07,3.48,9.88,4.25,11.43,2.3l0.51-0.65
			c2.23-2.81-0.05-7.27-6.83-13.39l-1.37-1.05c-0.33,2.56-1.29,4.84-2.87,6.84c-1.85,2.33-4.48,3.68-7.88,4.03
			c-1.36-0.18-2.58-0.7-3.67-1.56c-1.79-1.41-3.38-4.06-4.77-7.93c4.24-0.62,7.34-1.61,9.3-2.98c1.19-0.9,2.16-1.82,2.9-2.76
			l0.46-0.58l-6.92-5.21c-4.38-3.47-8.19-4.53-11.4-3.18l-3.91-3.09L132.03,207.54z"/>
		<path class="st3" d="M119.73,281.67c0.8,3.62,0.55,6.85-0.75,9.71c-1.27,2.78-3.62,4.71-7.06,5.79c-1.36,0.15-2.67-0.06-3.94-0.64
			c-2.07-0.95-4.25-3.14-6.52-6.57c3.97-1.61,6.75-3.31,8.32-5.11c0.95-1.18,1.68-2.32,2.18-3.43c0.52-1.12,0.79-2.03,0.81-2.73
			l-7.59-3.27c-6.9-3.15-11.51-2.38-13.83,2.33c-0.65,1.79,1.86,4.58,7.52,8.35l-5,12.22c-6.25-3.1-9.51-8.08-9.8-14.95l13.89-29.84
			l0.43-0.93l3.68,1.68c-0.06,0.66,0.23,1.31,0.86,1.95c6.04,4.44,12.14,8.07,18.3,10.89c6.82,3.12,13.69,5.34,20.59,6.67
			c0.61,0,1.13-0.21,1.56-0.62l3.68,1.68c-6.41,14.13-10.05,22.15-10.92,24.05l-0.35,0.78c-5.43,8.8-10.71,12.03-15.82,9.7
			l-0.84-0.39l1.58-13.34c6.73,1.93,10.61,1.77,11.64-0.49l0.34-0.75c1.49-3.26-1.99-7.14-10.43-11.65L119.73,281.67z"/>
		<path class="st3" d="M125.89,333.18l-4.69,10.98c-0.38,0.99-0.66,1.94-0.82,2.87c-0.41,2.25-0.02,4.49,1.17,6.72
			c-1.38,0.53-3.03,0.62-4.97,0.26c-0.91-0.17-2.64-0.58-5.19-1.26c-2.54-0.67-3.94-3.46-4.2-8.36l0.09-0.52
			c0.79-4.36,4.66-7.54,11.62-9.57c1.6-1.24,2.58-2.89,2.95-4.93c-0.27-2.12-1.55-3.47-3.85-4.04c-2.98-0.54-8.63,6.14-16.96,20.04
			c-3.1,4.69-7.38,7.4-12.84,8.12c-1.42,0-2.31-0.03-2.68-0.1c-8.62-1.57-13.49-7.16-14.62-16.79c-0.15-2.77-0.11-4.76,0.1-5.95
			l1.09-6.02c1.77-9.73,6.41-15.26,13.94-16.58c0.67-0.22,1.39-0.25,2.18-0.11c6.29,1.14,8.9,4.63,7.84,10.47
			c-0.79,3.6-2.54,6.49-5.25,8.67c-1.13-3.91-2.84-6.07-5.13-6.49c-0.74-0.13-2.24,0-4.49,0.41c-2.25,0.41-3.8,2.89-4.63,7.46
			l-0.08,0.46c-0.16,4.83,1.35,7.53,4.53,8.11l1.86,0.34c5.22,0.95,10.87-5.02,16.95-17.92c3.65-4.51,7.78-6.95,12.39-7.31
			c0.55,0.08,1.07,0.17,1.57,0.26C124.03,314.27,128.07,321.19,125.89,333.18z"/>
		<path class="st3" d="M104.31,357.27l0.73-0.1l0.5-0.03c9.08-0.39,14.17,3.61,15.27,12.01c0.08,0.62,0.15,1.36,0.2,2.23
			c0.05,0.86,0.09,1.84,0.11,2.94l1.03,19.28c0.01,0.47,0.03,0.94,0.05,1.41c0.13,2.11,0.66,4.72,1.58,7.83l-3.14,0.75
			c-7.15-0.61-11.28-4.45-12.38-11.51l-0.12-1.32c-2.87-0.14-6.72-0.06-11.55,0.24c-12.85,0.8-20.67,2.55-23.44,5.25l-3.58,0.22
			l-1.29-20.82l3.58-0.22c2.19,1.73,8.87,2.25,20.04,1.55l2.35-0.15c1-0.04,1.96-0.09,2.88-0.15c4.66-0.29,8.43-0.71,11.32-1.26
			c0.8-2.8,1.14-5.18,1.02-7.16c-0.13-2.07-0.78-3.68-1.93-4.83c-2.04-1.81-3.12-3.68-3.24-5.6
			C104.3,357.64,104.29,357.45,104.31,357.27z"/>
		<path class="st3" d="M82.67,439.27l-3.47,0.92l-5.34-20.17l3.46-0.92c2.49,1.27,9.14,0.47,19.96-2.4l2.28-0.6
			c1.01-0.25,1.99-0.5,2.93-0.74c10.2-2.7,16.66-5.43,19.39-8.18l3.64-1.02l5.19,20.27l-3.53,1.06c-2.23-2.02-9.64-1.37-22.24,1.97
			C92.29,432.8,84.87,436.08,82.67,439.27z"/>
		<path class="st3" d="M128.46,430.33l10.6,20.82l-3.55,1.74c-1.47-1.03-3.63-1.07-6.5-0.12c-3.47,2.16-10.78,9.03-21.94,20.6
			c12.92-2.8,21.88-5.47,26.86-8.01c0.47-0.24,0.91-0.48,1.3-0.73c2.03-1.03,3.47-2.86,4.33-5.47l3-1.56l7.29,14.59l-2.91,1.45
			c-4.06-1.54-10.4-1.43-19.01,0.32c-10.28,2.29-17.8,4.65-22.57,7.08c-1.29,1.47-2.28,2.92-2.99,4.36l-3.14,1.44L87.5,463.6
			l2.44-1.34c3.31-0.43,5.78-1.07,7.44-1.91l1.27-0.65c3.97-2.29,11.45-9.24,22.44-20.86c2.31-2.57,3.81-4.87,4.47-6.93
			L128.46,430.33z"/>
		<path class="st3" d="M138.44,499.5c-2.18,1.23-4.81,2.69-7.88,4.37c-2.58,1.52-5.07,3.32-7.49,5.39l-0.35,0.3
			c-0.79,0.68-1.12,1.34-1,1.99l-2.83,2.47l-9.43-10.96l2.74-2.55c1.25,0.74,3.29,0.8,6.13,0.2c5.81-1.38,11.86-3.77,18.13-7.15
			c-0.09-0.41-0.18-0.99-0.27-1.74c-0.13-0.9-0.38-1.56-0.75-1.99c-0.64-0.74-2.01-0.73-4.13,0.03c-1.13-2.47-0.9-4.58,0.69-6.33
			c4.88-3.76,9.18-3.55,12.9,0.65c1.08,1.47,1.77,2.68,2.03,3.64c1.42-0.83,2.92-1.83,4.51-2.99l6.98-6.59l15.06,17.75
			c-1.15,0.96-2.12,1.79-2.91,2.47c-9.04,7.78-16.18,16.2-21.43,25.26c-4.46,7.13-6.39,11.04-5.78,11.76l-3.36,3.12l-14.34-16.66
			l2.74-2.36c1.1,0.09,2.88-0.93,5.34-3.05c0.35-0.3,0.71-0.63,1.09-0.97c3.02-2.6,5.94-5.39,8.78-8.37
			c-0.32-0.27-0.78-0.75-1.38-1.45c-1.15-1.34-2.14-2.84-2.96-4.51C138.85,500.37,138.56,499.8,138.44,499.5z M157.74,490.02
			c0.75-1.26,1.08-1.95,0.99-2.05c-0.17-0.19-1.61,0.57-4.33,2.29c-1.99,1.22-4.27,2.58-6.86,4.08c-0.09,2.38,0.28,4.87,1.09,7.47
			C151.56,498.44,154.59,494.51,157.74,490.02z"/>
		<path class="st3" d="M192.89,559.99c-3.57,5.06-9.22,6.51-16.94,4.36c-1.57-0.43-3.58-1.47-6.05-3.1c-0.7-0.5-3.16-2.28-7.38-5.34
			l-13.53-9.57l2.07-2.92c2.72-0.62,7.31-5.5,13.77-14.64l1.36-1.92c0.62-0.84,1.2-1.65,1.77-2.45c6.09-8.62,9.31-14.85,9.63-18.71
			l2.13-3.12l16.99,12.22l-2.03,3.08c-3.01-0.12-8.28,5.13-15.8,15.77c-5.36,7.59-8.71,13.35-10.03,17.29
			c2.07,2.43,4.19,4.44,6.35,6.01c2.16,1.57,4.32,1.26,6.46-0.94c2.14-2.2,1.6-5.14-1.62-8.83c2.22-5.31,5.36-7.92,9.41-7.81
			c4.05,0.1,6.78,3.27,8.17,9.52C197.51,551.79,195.93,555.5,192.89,559.99z"/>
		<path class="st3" d="M266.31,585.7c-1.6,5.98-6.4,9.3-14.38,9.95c-1.62,0.14-3.87-0.13-6.75-0.81c-0.83-0.22-3.76-1.04-8.77-2.45
			l-16.01-4.29l0.93-3.46c2.34-1.53,4.95-7.7,7.85-18.51l0.61-2.28c0.29-1,0.56-1.97,0.81-2.91c2.73-10.19,3.58-17.15,2.55-20.89
			l0.92-3.67l20.17,5.57l-0.84,3.59c-2.86,0.93-5.98,7.68-9.35,20.27c-2.4,8.97-3.54,15.54-3.42,19.69
			c2.78,1.57,5.47,2.72,8.04,3.44c2.57,0.72,4.49-0.32,5.73-3.12c1.25-2.8-0.28-5.38-4.58-7.72c0.24-5.75,2.28-9.28,6.12-10.59
			s7.49,0.72,10.96,6.1C267.79,576.41,267.59,580.44,266.31,585.7z"/>
		<path class="st3" d="M289.42,576.99c-0.54,2.45-1.21,5.37-2,8.79c-0.59,2.93-0.91,5.99-0.97,9.17l-0.01,0.46
			c-0.02,1.04,0.25,1.73,0.81,2.07l-0.05,3.75l-14.45-0.29l-0.07-3.75c1.38-0.44,2.79-1.91,4.23-4.43
			c2.85-5.25,5.11-11.35,6.77-18.28c-0.36-0.21-0.86-0.53-1.48-0.96c-0.76-0.5-1.41-0.76-1.99-0.77c-0.98-0.02-1.89,1.01-2.74,3.1
			c-2.59-0.8-4.01-2.38-4.25-4.73c0.46-6.14,3.48-9.2,9.09-9.18c1.82,0.17,3.17,0.47,4.07,0.91c0.32-1.61,0.58-3.39,0.78-5.36
			l-0.25-9.6l23.26,0.64c-0.05,1.5-0.08,2.77-0.1,3.82c-0.25,11.92,1.26,22.86,4.51,32.81c2.33,8.08,3.96,12.13,4.9,12.15l0.08,4.58
			l-21.98-0.44l0.07-3.62c0.8-0.76,1.23-2.76,1.3-6.01c0.01-0.46,0.01-0.95,0-1.46c0.08-3.98-0.04-8.02-0.37-12.12
			c-0.41,0.06-1.08,0.08-2,0.06c-1.77-0.04-3.54-0.3-5.33-0.8C290.34,577.28,289.73,577.11,289.42,576.99z M295.25,556.3
			c-0.44-1.4-0.74-2.1-0.87-2.11c-0.26-0.01-0.65,1.58-1.18,4.75c-0.42,2.29-0.93,4.91-1.54,7.83c1.71,1.65,3.81,3.04,6.3,4.18
			C297.39,566.52,296.49,561.64,295.25,556.3z"/>
		<path class="st3" d="M369.63,536.16l0.94,2.95c-1.47,3.11-1.23,8.49,0.73,16.12c3.77,14.74,7.47,24,11.09,27.78l2.31,0.61
			c0.4,1.25,0.65,2.08,0.76,2.51c0.19,0.75-0.12,1.23-0.93,1.44l-0.05-0.06l-20.92,5.36l-1.26-3.96c0.66-0.01,1.01-0.02,1.02-0.02
			c0.95-0.24,0.81-3.64-0.43-10.2l-1.51-5.88c-1.05-4.11-2.52-8.57-4.4-13.36c-1.39,6.09-1.96,18.48-1.7,37.18
			c-3.84-4.89-7.41-10.04-10.73-15.47c-3.31-5.43-6.72-11.25-10.23-17.45c0.45,7.3,1.58,14.46,3.37,21.47
			c1.13,4.42,3.64,7.3,7.52,8.65l0.81,3.53l-16.19,4.15l-0.89-3.47c3.76-3.7,3.07-15.63-2.09-35.77c-1.65-4.94-3.5-8.1-5.55-9.47
			l-1.05-4.11l21.77-5.47l0.84,3.41c-0.42,1.73-0.54,3-0.33,3.82c0.61,2.38,1.83,4.98,3.67,7.79c1.96,3.38,3.45,5.85,4.48,7.42
			l2.14-16.38c-0.96-1.94-2.35-3.07-4.17-3.38l-1.09-4.14L369.63,536.16z"/>
		<path class="st3" d="M399.39,552.47c0.81,2.37,1.76,5.22,2.85,8.55c1.02,2.81,2.33,5.59,3.93,8.35l0.23,0.4
			c0.52,0.9,1.11,1.35,1.77,1.35l1.91,3.23l-12.5,7.26l-2.01-3.17c0.95-1.09,1.39-3.08,1.32-5.98c-0.29-5.97-1.53-12.35-3.7-19.14
			c-0.42,0.02-1.01-0.01-1.76-0.05c-0.9-0.04-1.6,0.09-2.1,0.37c-0.84,0.49-1.09,1.85-0.73,4.07c-2.63,0.66-4.66,0.05-6.09-1.84
			c-2.8-5.48-1.8-9.67,3-12.56c1.64-0.8,2.96-1.24,3.95-1.33c-0.56-1.54-1.26-3.21-2.11-4.99l-5.19-8.07l20.22-11.54
			c0.74,1.31,1.37,2.42,1.89,3.32c5.98,10.31,12.95,18.88,20.89,25.7c6.18,5.7,9.68,8.31,10.49,7.84l2.45,3.87l-19.01,11.03
			l-1.81-3.13c0.29-1.06-0.38-3-2.01-5.81c-0.23-0.4-0.49-0.82-0.76-1.25c-2-3.44-4.2-6.83-6.61-10.17
			c-0.32,0.27-0.88,0.63-1.68,1.09c-1.52,0.89-3.18,1.58-4.98,2.08C400.33,552.23,399.72,552.41,399.39,552.47z M393.62,531.76
			c-1.1-0.97-1.72-1.42-1.83-1.35c-0.22,0.13,0.27,1.69,1.46,4.68c0.83,2.17,1.75,4.68,2.75,7.49c2.32,0.52,4.83,0.62,7.54,0.3
			C400.76,539.39,397.46,535.68,393.62,531.76z"/>
		<path class="st3" d="M468,511.17c4.28,4.48,4.63,10.3,1.04,17.46c-0.72,1.45-2.12,3.24-4.2,5.34c-0.62,0.6-2.84,2.67-6.65,6.23
			l-11.98,11.46l-2.48-2.59c-0.09-2.79-4-8.23-11.74-16.32l-1.63-1.7c-0.7-0.76-1.39-1.5-2.06-2.2
			c-7.29-7.63-12.8-11.97-16.53-13.03l-2.66-2.69l15.24-14.34l2.63,2.58c-0.69,2.93,3.46,9.1,12.47,18.52
			c6.42,6.71,11.44,11.1,15.05,13.15c2.79-1.57,5.16-3.26,7.12-5.08c1.96-1.82,2.06-4,0.31-6.52c-1.75-2.52-4.74-2.55-8.97-0.09
			c-4.79-3.2-6.75-6.77-5.87-10.73s4.51-6.03,10.9-6.2C460.84,505.08,464.18,507.34,468,511.17z"/>
		<path class="st3" d="M472.89,486.4c1.82,1.73,3.98,3.81,6.49,6.26c2.2,2.02,4.65,3.88,7.34,5.58l0.39,0.24
			c0.88,0.56,1.61,0.68,2.2,0.38l3.18,1.98l-7.72,12.22l-3.25-1.88c0.34-1.41-0.2-3.38-1.6-5.91c-3.02-5.15-7.07-10.24-12.14-15.25
			c-0.37,0.21-0.9,0.47-1.59,0.77c-0.82,0.39-1.38,0.82-1.68,1.3c-0.53,0.83-0.11,2.14,1.23,3.95c-2.03,1.8-4.11,2.2-6.25,1.19
			c-5.02-3.57-6.07-7.74-3.15-12.53c1.09-1.47,2.05-2.47,2.88-3.01c-1.2-1.11-2.6-2.26-4.18-3.44l-8.34-4.75l12.58-19.59
			c1.26,0.82,2.33,1.51,3.21,2.06c10.08,6.37,20.22,10.74,30.42,13.11c8.12,2.18,12.42,2.88,12.93,2.09l3.96,2.3l-11.74,18.58
			l-3.06-1.93c-0.23-1.08-1.73-2.48-4.48-4.22c-0.39-0.25-0.81-0.5-1.25-0.75c-3.36-2.13-6.89-4.11-10.57-5.95
			c-0.16,0.38-0.49,0.96-0.99,1.74c-0.94,1.49-2.09,2.87-3.45,4.15C473.62,485.76,473.16,486.2,472.89,486.4z M458.2,470.72
			c-1.43-0.35-2.18-0.46-2.26-0.35c-0.14,0.22,1.02,1.37,3.46,3.47c1.75,1.54,3.72,3.33,5.91,5.37c2.3-0.61,4.57-1.68,6.83-3.23
			C468.06,474.16,463.41,472.41,458.2,470.72z"/>
		<path class="st3" d="M524.32,433.61c-1.84,6.51-2.95,10.3-3.3,11.38c-2.66,8.05-9.63,12.72-20.9,13.99
			c-3.22,0.16-6.9-0.45-11.04-1.81c-11.74-3.87-18.53-10.94-20.36-21.2c-0.17-3.67,0.16-6.73,0.97-9.21l0.02-0.06
			c0.27-0.82,1.82-3.43,4.65-7.84c0.97-1.82,1.81-3.77,2.49-5.86l0.12-0.36c0.42-1.55,0.53-3.73,0.34-6.54
			c1.68-0.29,2.98-0.29,3.91,0.02c7.07,2.85,10.33,6.64,9.77,11.36l-0.29,0.87c-1.5,4.54-6.55,7.1-15.15,7.69
			c-0.77,0.63-1.26,1.28-1.48,1.93c-0.18,0.54-0.11,1.1,0.21,1.68c0.9,2.22,4.22,4.27,9.95,6.16l16.51,5.45
			c5.53,1.82,10.4,2.04,14.63,0.65c1.12-0.79,1.85-1.68,2.18-2.68l1.48-5.33c0.11-2.05-2.39-4.56-7.5-7.55
			c-2.44-0.37-4.27,1.3-5.49,5l-0.27,0.81c-1.07,0.14-1.84,0.14-2.3-0.02c-4.9-3.51-6.45-7.97-4.68-13.36l0.41-1.26
			c2.42-4.79,7.46-6.32,15.14-4.57C522.33,415.57,525.65,422.46,524.32,433.61z"/>
		<path class="st3" d="M508.21,389.28c2.42,0.64,5.32,1.44,8.69,2.38c2.9,0.72,5.95,1.17,9.12,1.38l0.47,0.03
			c1.04,0.06,1.74-0.17,2.11-0.72l3.74,0.21l-0.92,14.43l-3.75-0.09c-0.38-1.4-1.79-2.87-4.24-4.42
			c-5.12-3.07-11.12-5.59-17.98-7.56c-0.22,0.36-0.56,0.84-1.02,1.44c-0.54,0.73-0.82,1.38-0.86,1.95
			c-0.06,0.98,0.93,1.93,2.98,2.87c-0.92,2.55-2.55,3.9-4.91,4.05c-6.12-0.72-9.04-3.88-8.77-9.48c0.25-1.81,0.61-3.15,1.09-4.02
			c-1.59-0.4-3.37-0.73-5.32-1.01l-9.6-0.17l1.64-23.22c1.5,0.11,2.77,0.21,3.81,0.27c11.9,0.76,22.89-0.27,32.98-3.09
			c8.17-1.97,12.29-3.43,12.35-4.37l4.58,0.11l-1.39,21.94l-3.61-0.23c-0.72-0.83-2.71-1.35-5.95-1.56
			c-0.46-0.03-0.95-0.05-1.46-0.06c-3.97-0.25-8.02-0.3-12.13-0.15c0.04,0.41,0.03,1.08-0.03,2c-0.11,1.76-0.46,3.52-1.03,5.29
			C508.53,388.36,508.33,388.97,508.21,389.28z M487.78,382.56c-1.42,0.38-2.13,0.64-2.14,0.78c-0.02,0.26,1.55,0.72,4.7,1.39
			c2.27,0.52,4.86,1.14,7.76,1.88c1.73-1.64,3.2-3.67,4.44-6.11C498.09,380.86,493.17,381.55,487.78,382.56z"/>
		<path class="st3" d="M510.45,337.2c8.62-1.8,13.98-3.97,16.08-6.5l3.53-0.62l3.58,20.56l-3.53,0.61
			c-2.37-1.48-9.06-1.25-20.09,0.67l-2.32,0.4c-1.03,0.16-2.02,0.32-2.98,0.49c-10.4,1.81-17.07,3.97-20.03,6.47l-3.72,0.71
			l-3.43-20.64l3.61-0.75c1.75,1.88,7.27,2.17,16.59,0.87c1.03-1.93,1.65-3.77,1.86-5.52c0.1-1.27,0.11-2.17,0.04-2.69
			c-9.6,1.71-15.86,3.8-18.75,6.25l-3.71,0.71l-3.43-20.64l3.61-0.75c2.05,2.21,9.49,2.19,22.32-0.04
			c12.9-2.25,20.58-4.87,23.04-7.86l3.53-0.62l3.58,20.56l-3.53,0.62c-2.25-1.4-8.03-1.33-17.38,0.22c0.75,1.05,1.26,2.37,1.53,3.97
			C510.77,335.38,510.76,336.55,510.45,337.2z"/>
		<path class="st3" d="M489.1,256.2c5.62-2.62,11.24-1.08,16.87,4.61c1.15,1.15,2.39,3.05,3.72,5.69c0.36,0.78,1.62,3.55,3.76,8.3
			l7,15.02l-3.25,1.51c-2.67-0.81-9.08,1.15-19.22,5.88l-2.13,1c-0.95,0.42-1.87,0.84-2.75,1.25c-9.56,4.46-15.45,8.28-17.64,11.47
			l-3.4,1.65l-8.69-19.03l3.29-1.66c2.55,1.6,9.73-0.35,21.54-5.86c8.42-3.93,14.18-7.27,17.29-10.04
			c-0.59-3.14-1.43-5.93-2.53-8.37s-3.12-3.23-6.07-2.39c-2.95,0.85-3.94,3.67-2.97,8.47c-4.56,3.51-8.58,4.22-12.04,2.11
			c-3.47-2.1-4.26-6.21-2.38-12.32C481.03,261.03,484.24,258.6,489.1,256.2z"/>
		<path class="st3" d="M467.29,243.63c2.22-1.16,4.89-2.53,8.01-4.12c2.62-1.43,5.17-3.15,7.65-5.15l0.36-0.29
			c0.81-0.65,1.17-1.3,1.07-1.95l2.9-2.38l9.07,11.26l-2.83,2.47c-1.22-0.78-3.26-0.91-6.11-0.4c-5.85,1.2-11.98,3.39-18.36,6.57
			c0.08,0.42,0.15,1,0.22,1.75c0.1,0.9,0.33,1.57,0.69,2.01c0.62,0.76,1.99,0.8,4.13,0.1c1.05,2.5,0.76,4.6-0.89,6.3
			c-4.99,3.6-9.29,3.25-12.87-1.06c-1.04-1.5-1.68-2.74-1.92-3.7c-1.44,0.78-2.98,1.73-4.61,2.85l-7.19,6.36l-14.47-18.22
			c1.18-0.93,2.18-1.72,2.99-2.37c9.28-7.48,16.69-15.67,22.22-24.56c4.69-6.98,6.74-10.83,6.15-11.56l3.45-3.01l13.8,17.11
			l-2.82,2.27c-1.09-0.12-2.91,0.84-5.44,2.88c-0.36,0.29-0.74,0.6-1.12,0.94c-3.1,2.5-6.12,5.19-9.04,8.08
			c0.31,0.28,0.75,0.78,1.33,1.49c1.11,1.37,2.04,2.91,2.81,4.6C466.91,242.74,467.18,243.31,467.29,243.63z M447.7,252.47
			c-0.79,1.24-1.14,1.91-1.06,2.02c0.16,0.2,1.63-0.52,4.4-2.15c2.02-1.15,4.36-2.44,6.99-3.86c0.17-2.37-0.12-4.87-0.85-7.5
			C454.15,244.26,450.98,248.09,447.7,252.47z"/>
		<g>
			<g>
				<path class="st4" d="M403.52,226.72c3.18-4.74,6.03-9.26,8.49-13.94c2.5-4.63,4.59-9.36,6.23-14.23
					c1.64-4.85,3.01-9.82,3.75-15.01c0.54-2.58,0.73-5.22,1.07-7.92c0.38-2.71,0.3-5.42,0.8-8.32c1.22,2.55,2.33,5.23,3.04,8.01
					c0.56,2.79,1.26,5.65,1.25,8.56c0.38,5.81-0.61,11.71-2.5,17.25c-1.88,5.55-4.82,10.72-8.57,15.14
					C413.32,220.64,408.83,224.47,403.52,226.72z"/>
			</g>
			<g>
				<path class="st4" d="M405.86,230.95c6.12-2.83,11.47-5.63,16.21-9.37c2.36-1.85,4.64-3.82,6.71-6.1
					c2.21-2.19,4.05-4.71,6.37-7.27c-0.29,3.38-1.29,6.74-3.06,9.71c-1.67,3.04-4.08,5.67-6.83,7.8c-2.75,2.15-5.91,3.74-9.23,4.67
					C412.72,231.3,409.23,231.68,405.86,230.95z"/>
			</g>
			<path class="st4" d="M202.4,225c-5.51-1.71-10.36-5.07-14.53-9.05c-4.17-4.02-7.62-8.87-10.04-14.21
				c-2.44-5.32-4.01-11.09-4.21-16.91c-0.3-2.89,0.11-5.8,0.39-8.64c0.43-2.84,1.27-5.61,2.22-8.28c0.78,2.83,0.97,5.54,1.62,8.2
				c0.6,2.65,1.05,5.26,1.85,7.77c1.26,5.09,3.12,9.89,5.23,14.56c2.11,4.68,4.67,9.17,7.62,13.53
				C195.48,216.39,198.76,220.6,202.4,225z"/>
			<path class="st4" d="M200.49,229.44c-3.28,1.07-6.79,1.04-10.17,0.47c-3.39-0.59-6.7-1.86-9.65-3.73
				c-2.95-1.85-5.61-4.22-7.58-7.08c-2.05-2.78-3.39-6.02-4.02-9.35c2.56,2.31,4.65,4.64,7.07,6.6c2.29,2.06,4.75,3.79,7.29,5.39
				C188.52,224.99,194.11,227.24,200.49,229.44z"/>
			<path class="st4" d="M430.36,272.99c8.81,11.21,16.09,23.73,21.48,37.11c5.44,13.36,8.79,27.59,10.38,42.03
				c1.48,14.47,0.85,29.15-1.58,43.59c-1.32,7.19-2.97,14.36-5.34,21.3c-1.04,3.52-2.48,6.91-3.74,10.36
				c-1.48,3.36-2.82,6.79-4.51,10.05c-12.74,26.54-33.27,49.3-58.21,65.22c-24.98,15.88-54.48,24.71-84.14,25.1
				c-29.63,0.36-59.43-7.4-84.83-22.66c-25.34-15.26-46.56-37.35-60.11-63.51c-6.7-13.08-11.88-26.96-14.72-41.34
				c-3.01-14.33-3.79-29.03-2.84-43.52c2.14-28.99,12.47-57.17,29.58-80.02c-14.66,24.45-22.85,52.36-23.17,80.31
				c-0.53,27.94,6.56,55.69,20.11,79.69c13.71,23.9,33.59,44.17,57.41,57.71c5.91,3.46,12.1,6.37,18.39,9.05
				c6.33,2.58,12.82,4.73,19.43,6.48c13.23,3.34,26.91,5.06,40.57,4.75c27.35-0.12,54.47-8.19,77.78-22.5
				c5.89-3.49,11.4-7.59,16.77-11.84c5.3-4.35,10.31-9.05,15.03-14.03c9.29-10.09,17.48-21.28,23.9-33.48
				c12.92-24.35,19.2-52.32,17.86-80.23c-0.61-13.95-3.09-27.87-7.4-41.28C444.13,297.92,438.06,285,430.36,272.99z"/>
			<g>
				<path class="st4" d="M278.38,110.34c2-1.73,3.69-3.51,5.04-5.34c1.36-1.84,2.04-3.58,2.04-5.25c0-1-0.24-1.79-0.7-2.35
					c-0.47-0.56-1.16-0.85-2.06-0.85c-0.94,0-1.67,0.39-2.18,1.15c-0.52,0.77-0.76,1.89-0.73,3.36h-9.22
					c0.1-2.79,0.73-5.1,1.89-6.94c1.16-1.84,2.68-3.18,4.56-4.05c1.88-0.86,3.96-1.29,6.26-1.29c3.98,0,6.94,0.96,8.88,2.87
					c1.94,1.91,2.91,4.39,2.91,7.43c0,3.26-1.13,6.32-3.37,9.18c-2.25,2.85-5.05,5.41-8.42,7.67h12.13v7.48h-24.74v-6.92
					C273.8,114.12,276.37,112.07,278.38,110.34z"/>
				<path class="st4" d="M306.8,93.45c2.26-3.1,5.82-4.66,10.67-4.66c4.85,0,8.42,1.55,10.7,4.66c2.28,3.11,3.42,7.36,3.42,12.75
					c0,5.46-1.13,9.74-3.39,12.84c-2.26,3.1-5.84,4.66-10.72,4.66c-4.88,0-8.45-1.55-10.7-4.66c-2.25-3.11-3.37-7.39-3.37-12.84
					C303.41,100.81,304.54,96.56,306.8,93.45z M321.26,99.73c-0.62-1.49-1.88-2.23-3.79-2.23c-1.91,0-3.17,0.75-3.78,2.23
					c-0.62,1.49-0.92,3.65-0.92,6.47c0,2.88,0.3,5.07,0.9,6.56c0.6,1.49,1.87,2.23,3.81,2.23c1.94,0,3.21-0.74,3.81-2.23
					c0.6-1.49,0.9-3.68,0.9-6.56C322.18,103.38,321.88,101.22,321.26,99.73z"/>
				<path class="st4" d="M278.38,152.16c2-1.73,3.69-3.51,5.04-5.34c1.36-1.84,2.04-3.58,2.04-5.25c0-1-0.24-1.79-0.7-2.35
					c-0.47-0.56-1.16-0.85-2.06-0.85c-0.94,0-1.67,0.39-2.18,1.15c-0.52,0.77-0.76,1.89-0.73,3.36h-9.22
					c0.1-2.79,0.73-5.1,1.89-6.94c1.16-1.84,2.68-3.18,4.56-4.05c1.88-0.86,3.96-1.29,6.26-1.29c3.98,0,6.94,0.96,8.88,2.87
					c1.94,1.91,2.91,4.39,2.91,7.43c0,3.26-1.13,6.32-3.37,9.18c-2.25,2.85-5.05,5.41-8.42,7.67h12.13v7.48h-24.74v-6.92
					C273.8,155.94,276.37,153.88,278.38,152.16z"/>
				<path class="st4" d="M310.83,152.16c2-1.73,3.69-3.51,5.04-5.34c1.36-1.84,2.04-3.58,2.04-5.25c0-1-0.24-1.79-0.7-2.35
					c-0.47-0.56-1.16-0.85-2.06-0.85c-0.94,0-1.67,0.39-2.18,1.15c-0.52,0.77-0.76,1.89-0.73,3.36h-9.22
					c0.1-2.79,0.73-5.1,1.89-6.94c1.16-1.84,2.68-3.18,4.56-4.05c1.88-0.86,3.96-1.29,6.26-1.29c3.98,0,6.94,0.96,8.88,2.87
					c1.94,1.91,2.91,4.39,2.91,7.43c0,3.26-1.13,6.32-3.37,9.18c-2.25,2.85-5.05,5.41-8.42,7.67h12.13v7.48h-24.74v-6.92
					C306.25,155.94,308.83,153.88,310.83,152.16z"/>
			</g>
		</g>
	</g>
</g>
</svg>
