<svg width="467" height="537" viewBox="0 0 467 537" fill="none" xmlns="http://www.w3.org/2000/svg">
<g id="Lama1">
<g id="Group">
<g id="Group_2">
<path id="Vector" d="M200.476 289.37C207.985 301.149 219.515 313.599 229.865 309.459C230.045 303.059 230.285 296.709 230.295 290.359C230.295 289.57 229.105 288.64 228.275 288.03C223.175 284.3 217.775 280.92 212.955 276.87C209.155 273.67 209.555 270.42 213.155 266.88C216.085 264.001 220.215 264.82 222.055 268.46C224.405 273.1 226.815 277.67 230.685 281.41C231.665 282.36 233.245 282.44 234.225 281.49C237.905 277.94 240.905 273.97 242.815 269.27C244.445 265.27 246.505 263.99 249.895 265.44C253.764 267.1 255.944 271.6 253.744 274.5C251.385 277.6 248.535 280.47 245.425 282.87C242.555 285.09 239.025 286.46 235.905 288.4C235.085 288.91 234.245 290.129 234.225 291.039C234.125 296.979 234.255 302.919 234.305 309.189C238.575 309.709 243.455 311.329 247.395 308.159C250.805 305.419 264.824 296.019 267.944 292.499C270.214 293.259 270.684 295.469 269.974 297.729C268.574 302.169 254.744 311.709 250.735 314.489C247.025 317.058 242.855 317.198 238.795 315.549C234.975 313.999 230.555 313.949 227.225 316.338C219.655 321.768 199.566 303.869 197.836 294.829C197.426 292.589 197.996 290.599 200.476 289.37Z" fill="#682470"/>
</g>
<g id="Group_3">
<path id="Vector_2" d="M340.853 268.38C339.233 265.7 337.633 263.001 335.723 259.801C342.223 260.551 345.483 259.371 348.142 255.521C350.782 251.681 350.572 247.591 348.422 243.671C347.042 241.151 345.253 238.832 343.543 236.492C341.323 233.442 338.773 230.602 336.763 227.432C332.613 220.902 330.963 213.603 329.853 205.743C335.653 207.663 340.353 211.333 346.913 210.833C341.963 202.543 337.233 194.633 332.123 186.074C341.863 191.293 346.482 192.393 353.072 191.183C351.412 184.754 347.912 179.394 342.883 175.094C337.883 170.814 332.523 166.934 327.133 162.745C327.893 161.405 328.633 160.115 329.353 158.815C330.123 157.415 330.873 155.995 331.643 154.595C342.583 134.766 346.853 118.456 346.603 96.5071C346.423 80.8077 343.123 65.2783 337.243 50.6689C332.133 37.9794 327.673 24.9899 318.933 14.0503C313.903 7.75058 307.943 2.63078 299.814 0.470866C294.264 -1.00908 290.294 1.02085 288.354 6.26064C287.364 8.94054 286.264 11.7804 286.214 14.5603C286.034 24.8799 285.734 35.2295 286.464 45.5091C287.834 64.8684 288.104 78.8878 282.744 97.7371C280.164 106.817 276.514 110.377 273.324 119.366C244.765 112.726 217.035 117.186 188.636 119.226C185.826 110.747 182.596 107.367 180.186 98.537C178.396 91.9873 176.896 86.2075 176.526 79.4678C175.646 63.5084 175.796 54.3688 175.046 38.4094C174.586 28.6098 173.456 18.7802 169.146 9.69051C164.706 0.320873 155.757 -1.01908 148.497 6.54063C140.497 14.8803 136.187 25.4799 130.947 35.6795C127.117 43.1392 123.957 50.9489 121.817 59.0686C117.077 77.0379 116.297 90.9173 120.047 108.837C122.797 121.996 127.887 134.626 135.277 145.865C137.827 149.745 141.067 156.075 143.307 160.295C138.367 164.254 133.257 167.434 129.377 171.664C123.767 177.774 118.947 184.574 113.977 191.203C111.488 194.513 112.578 196.783 116.887 197.153C119.577 197.383 122.367 196.923 125.067 196.533C128.087 196.093 131.067 195.383 133.637 194.883C130.947 199.643 128.317 204.393 125.597 209.093C122.107 215.112 118.827 221.282 114.847 226.992C112.988 229.672 109.708 231.432 106.968 233.682C114.037 238.502 121.627 238.342 129.627 236.462C128.887 237.802 128.147 238.992 127.087 239.792C125.187 241.241 122.287 245.631 120.357 247.051C115.237 250.801 113.857 254.631 116.977 259.761C118.757 262.701 121.867 264.881 124.647 267.67C122.527 270.67 119.707 274.21 117.427 278.04C115.067 282.01 113.258 286.28 111.198 290.41C111.528 290.89 111.598 290.99 111.928 291.469L122.447 290.44C116.987 301.719 117.017 314.079 115.977 326.448C120.057 326.338 122.077 324.138 123.557 321.428C125.937 317.089 129.847 315.779 135.077 315.739C132.967 326.658 133.107 341.738 123.027 349.167C130.657 354.767 137.447 346.447 144.747 345.127C142.147 349.727 137.457 355.987 133.727 359.637C128.377 364.877 123.027 367.497 126.687 369.206C124.027 370.606 153.307 372.306 133.727 380.576C132.577 381.056 125.697 383.196 128.377 385.816C132.657 390.006 144.737 384.256 141.757 385.816C135.357 389.166 132.117 394.145 133.247 403.035C134.267 410.975 138.307 418.245 144.147 423.714C159.997 438.574 181.256 450.403 238.005 450.403C280.144 450.403 324.253 432.114 332.213 409.835L332.273 409.635C334.533 401.645 332.113 393.226 326.403 387.186C319.743 380.136 337.713 383.166 336.723 381.576C342.813 383.566 330.113 368.417 317.943 355.057C323.323 355.677 327.843 356.197 332.903 356.777C326.003 349.877 323.033 342.238 324.063 332.708C331.303 334.458 334.663 339.768 338.773 345.337C340.523 343.037 342.473 341.118 343.633 338.838C347.572 331.028 346.473 323.218 342.503 315.809C339.853 310.859 336.553 306.229 333.233 300.959C334.533 301.089 335.533 300.949 336.273 301.309C339.363 302.779 342.263 302.269 345.143 300.819C350.812 297.959 353.342 291.1 350.222 284.08C347.762 278.56 344.013 273.59 340.853 268.38ZM275.014 216.872C277.194 220.632 278.894 224.392 281.354 227.612C285.644 233.222 290.984 234.082 297.364 230.902C303.043 228.072 306.023 223.242 308.083 217.702C308.613 216.272 308.973 214.792 309.523 212.943C311.093 212.963 312.713 212.993 314.273 213.013C317.913 227.702 302.333 244.521 288.164 241.151C278.834 238.932 273.544 232.032 269.654 224.032C269.094 222.872 268.744 221.612 268.344 220.372C268.204 219.942 268.224 219.462 268.114 218.592C270.694 217.972 273.014 217.382 275.014 216.872ZM214.835 230.422C228.845 221.512 238.235 222.662 251.145 231.182C259.944 236.992 265.694 245.131 269.434 254.491C273.354 264.311 277.394 274.22 279.854 284.43C283.454 299.379 280.034 310.249 263.234 321.348C263.054 321.468 262.844 321.548 262.654 321.658C257.944 324.258 253.484 326.778 250.145 331.408C242.595 341.878 220.195 342.368 211.695 329.398C209.495 326.048 206.616 324.428 203.476 322.588C192.796 316.329 183.896 308.479 183.546 295.499C183.376 289.26 184.686 282.75 186.606 276.74C189.676 267.11 193.806 257.801 197.496 248.361C202.096 241.161 207.545 235.062 214.835 230.422ZM149.927 212.993C154.137 211.613 155.597 213.193 156.357 216.682C157.797 223.242 161.356 228.492 167.816 231.582C172.316 233.732 176.876 233.522 180.256 229.942C183.466 226.542 185.906 222.442 189.036 218.162C190.466 218.582 192.796 219.282 195.096 219.962C194.256 228.992 182.726 240.831 173.276 241.571C167.306 242.041 162.356 239.822 158.257 235.782C151.837 229.472 148.607 222.062 149.927 212.993Z" fill="#682470"/>
</g>
<path id="Vector_3" d="M63.7486 141.905L67.0585 144.565C66.8385 145.265 67.0686 146.125 67.7385 147.125C72.5184 152.705 77.4783 157.535 82.6282 161.615C88.2181 166.034 94.158 169.694 100.478 172.594C101.088 172.754 101.648 172.674 102.178 172.364L105.358 174.874C95.7579 187.064 90.308 193.983 89.0081 195.623L88.4781 196.293C81.0982 203.543 75.2084 205.423 70.8085 201.943L70.0785 201.363L74.7884 188.784C80.8583 192.263 84.6682 193.033 86.2181 191.083L86.7281 190.434C88.9581 187.624 86.6781 183.164 79.8983 177.044L78.5283 175.994C78.1983 178.554 77.2383 180.834 75.6584 182.834C73.8084 185.164 71.1785 186.514 67.7785 186.864C66.4186 186.684 65.1986 186.164 64.1086 185.304C62.3186 183.894 60.7287 181.244 59.3387 177.374C63.5786 176.754 66.6786 175.764 68.6385 174.394C69.8285 173.494 70.7985 172.574 71.5385 171.634L71.9984 171.054L65.0786 165.844C60.6987 162.375 56.8888 161.315 53.6788 162.665L49.7689 159.575L63.7486 141.905Z" fill="#7D7DBB"/>
<path id="Vector_4" d="M51.4489 216.032C52.2489 219.652 51.9989 222.882 50.6989 225.742C49.429 228.522 47.079 230.452 43.6391 231.532C42.2791 231.682 40.9691 231.472 39.6992 230.892C37.6292 229.942 35.4492 227.752 33.1793 224.322C37.1492 222.712 39.9292 221.012 41.4991 219.212C42.4491 218.032 43.1791 216.892 43.6791 215.783C44.1991 214.663 44.4691 213.753 44.4891 213.053L36.8992 209.783C29.9994 206.633 25.3895 207.403 23.0695 212.113C22.4195 213.903 24.9295 216.692 30.5894 220.462L25.5895 232.682C19.3396 229.582 16.0797 224.602 15.7897 217.732L29.6794 187.894L30.1094 186.964L33.7893 188.644C33.7293 189.304 34.0193 189.954 34.6493 190.593C40.6891 195.033 46.789 198.663 52.9489 201.483C59.7687 204.603 66.6386 206.823 73.5384 208.153C74.1484 208.153 74.6684 207.943 75.0984 207.533L78.7783 209.213C72.3685 223.342 68.7285 231.362 67.8586 233.262L67.5086 234.042C62.0787 242.841 56.7988 246.071 51.6889 243.741L50.8489 243.351L52.4289 230.012C59.1587 231.942 63.0387 231.782 64.0686 229.522L64.4086 228.772C65.8986 225.512 62.4187 221.632 53.9789 217.122L51.4489 216.032Z" fill="#7D7DBB"/>
<path id="Vector_5" d="M57.6088 267.541L52.9189 278.52C52.5389 279.51 52.2589 280.46 52.0989 281.39C51.6889 283.64 52.0789 285.88 53.2689 288.11C51.8889 288.64 50.239 288.73 48.299 288.37C47.389 288.2 45.6591 287.79 43.1091 287.11C40.5692 286.44 39.1692 283.65 38.9092 278.75L38.9992 278.23C39.7892 273.87 43.6591 270.69 50.619 268.661C52.2189 267.421 53.1989 265.771 53.5689 263.731C53.2989 261.611 52.0189 260.261 49.719 259.691C46.739 259.151 41.0892 265.831 32.7593 279.73C29.6594 284.42 25.3795 287.13 19.9196 287.85C18.4996 287.85 17.6097 287.82 17.2397 287.75C8.61986 286.18 3.74997 280.59 2.61999 270.96C2.46999 268.191 2.50999 266.201 2.71999 265.011L3.80996 258.991C5.57992 249.261 10.2198 243.731 17.7497 242.412C18.4196 242.192 19.1396 242.162 19.9296 242.302C26.2195 243.442 28.8294 246.931 27.7695 252.771C26.9795 256.371 25.2295 259.261 22.5196 261.441C21.3896 257.531 19.6796 255.371 17.3897 254.951C16.6497 254.821 15.1497 254.951 12.8998 255.361C10.6498 255.771 9.09985 258.251 8.26987 262.821L8.18987 263.281C8.02988 268.111 9.53984 270.81 12.7198 271.39L14.5797 271.73C19.7996 272.68 25.4495 266.711 31.5294 253.811C35.1793 249.301 39.3092 246.861 43.9191 246.501C44.4691 246.581 44.9891 246.671 45.4891 246.761C55.7488 248.631 59.7888 255.551 57.6088 267.541Z" fill="#7D7DBB"/>
<path id="Vector_6" d="M36.0292 291.629L36.7592 291.529L37.2592 291.499C46.339 291.11 51.4289 295.109 52.5289 303.509C52.6089 304.129 52.6789 304.869 52.7289 305.739C52.7789 306.599 52.8189 307.579 52.8389 308.679L53.8688 327.958C53.8788 328.428 53.8988 328.898 53.9188 329.368C54.0488 331.478 54.5788 334.088 55.4988 337.198L52.3589 337.948C45.209 337.338 41.0791 333.498 39.9791 326.438L39.8591 325.118C36.9892 324.978 33.1393 325.058 28.3094 325.358C15.4597 326.158 7.63984 327.908 4.8699 330.608L1.28997 330.828L0 310.009L3.57992 309.789C5.76988 311.519 12.4497 312.039 23.6195 311.339L25.9694 311.189C26.9694 311.149 27.9294 311.099 28.8494 311.039C33.5093 310.749 37.2792 310.329 40.1691 309.779C40.9691 306.979 41.3091 304.599 41.1891 302.619C41.0591 300.549 40.4091 298.939 39.2592 297.789C37.2192 295.979 36.1392 294.109 36.0192 292.189C36.0192 291.999 36.0092 291.809 36.0292 291.629Z" fill="#7D7DBB"/>
<path id="Vector_7" d="M14.3898 373.626L10.9198 374.546L5.57996 354.377L9.03988 353.457C11.5298 354.727 18.1797 353.927 28.9995 351.057L31.2794 350.457C32.2894 350.207 33.2694 349.957 34.2093 349.717C44.4091 347.017 50.869 344.287 53.5989 341.538L57.2388 340.518L62.4287 360.787L58.8988 361.847C56.6689 359.827 49.259 360.477 36.6593 363.817C24.0096 367.157 16.5897 370.436 14.3898 373.626Z" fill="#7D7DBB"/>
<path id="Vector_8" d="M60.1787 364.687L70.7785 385.506L67.2286 387.246C65.7586 386.216 63.5986 386.176 60.7287 387.126C57.2588 389.286 49.9489 396.156 38.7892 407.725C51.7089 404.925 60.6687 402.255 65.6486 399.715C66.1186 399.475 66.5586 399.235 66.9486 398.985C68.9785 397.955 70.4185 396.126 71.2785 393.516L74.2784 391.956L81.5683 406.545L78.6583 407.995C74.5984 406.455 68.2585 406.565 59.6487 408.315C49.369 410.605 41.8491 412.965 37.0792 415.395C35.7892 416.865 34.7993 418.315 34.0893 419.755L30.9494 421.195L19.2196 397.955L21.6596 396.616C24.9695 396.186 27.4394 395.546 29.0994 394.706L30.3694 394.056C34.3393 391.766 41.8191 384.816 52.8089 373.196C55.1188 370.627 56.6188 368.327 57.2788 366.267L60.1787 364.687Z" fill="#7D7DBB"/>
<path id="Vector_9" d="M70.1586 433.854C67.9786 435.084 65.3487 436.544 62.2787 438.224C59.6988 439.744 57.2089 441.544 54.7889 443.614L54.4389 443.914C53.6489 444.593 53.3189 445.253 53.4389 445.903L50.609 448.373L41.1792 437.414L43.9191 434.864C45.1691 435.604 47.2091 435.664 50.049 435.064C55.8589 433.684 61.9088 431.294 68.1786 427.914C68.0886 427.504 67.9986 426.924 67.9086 426.174C67.7786 425.274 67.5286 424.614 67.1586 424.184C66.5187 423.444 65.1487 423.454 63.0287 424.214C61.8988 421.744 62.1288 419.634 63.7187 417.885C68.5986 414.125 72.8985 414.335 76.6184 418.534C77.6984 420.004 78.3884 421.214 78.6484 422.174C80.0684 421.344 81.5683 420.344 83.1583 419.184L90.1381 412.595L105.198 430.344C104.048 431.304 103.078 432.134 102.288 432.814C93.2481 440.594 86.1082 449.013 80.8583 458.073C76.3984 465.203 74.4685 469.113 75.0785 469.832L71.7185 472.952L57.3789 456.293L60.1188 453.933C61.2188 454.023 62.9987 453.003 65.4587 450.883C65.8087 450.583 66.1687 450.253 66.5487 449.913C69.5686 447.313 72.4885 444.523 75.3285 441.544C75.0085 441.274 74.5485 440.794 73.9485 440.094C72.7985 438.754 71.8085 437.254 70.9886 435.584C70.5686 434.724 70.2786 434.154 70.1586 433.854ZM89.4582 424.374C90.2082 423.114 90.5381 422.424 90.4481 422.324C90.2781 422.134 88.8382 422.894 86.1182 424.614C84.1283 425.834 81.8483 427.194 79.2584 428.694C79.1684 431.074 79.5384 433.564 80.3484 436.164C83.2783 432.794 86.3082 428.864 89.4582 424.374Z" fill="#7D7DBB"/>
<path id="Vector_10" d="M124.607 494.342C121.037 499.401 115.387 500.851 107.668 498.701C106.098 498.271 104.088 497.231 101.618 495.602C100.918 495.102 98.4579 493.322 94.238 490.262L80.7083 480.692L82.7782 477.772C85.4981 477.152 90.088 472.273 96.5479 463.133L97.9079 461.213C98.5279 460.373 99.1079 459.563 99.6778 458.763C105.768 450.143 108.988 443.914 109.308 440.054L111.438 436.934L128.427 449.153L126.397 452.233C123.387 452.113 118.117 457.363 110.598 468.003C105.238 475.592 101.888 481.352 100.568 485.292C102.638 487.722 104.758 489.732 106.918 491.302C109.078 492.872 111.238 492.562 113.378 490.362C115.518 488.162 114.978 485.222 111.758 481.532C113.978 476.222 117.117 473.612 121.167 473.722C125.217 473.822 127.947 476.992 129.337 483.242C129.227 486.142 127.647 489.852 124.607 494.342Z" fill="#7D7DBB"/>
<path id="Vector_11" d="M198.026 520.051C196.426 526.03 191.626 529.35 183.646 530C182.026 530.14 179.776 529.87 176.896 529.19C176.066 528.97 173.136 528.15 168.126 526.74L152.117 522.45L153.047 518.991C155.387 517.461 157.997 511.291 160.897 500.481L161.506 498.201C161.796 497.201 162.066 496.231 162.316 495.291C165.046 485.102 165.896 478.142 164.866 474.402L165.786 470.732L185.956 476.302L185.116 479.892C182.256 480.822 179.136 487.572 175.766 500.161C173.366 509.131 172.226 515.701 172.346 519.85C175.126 521.42 177.816 522.57 180.386 523.29C182.956 524.01 184.876 522.97 186.116 520.17C187.366 517.371 185.836 514.791 181.536 512.451C181.776 506.701 183.816 503.171 187.656 501.861C191.496 500.551 195.146 502.581 198.616 507.961C199.506 510.761 199.306 514.791 198.026 520.051Z" fill="#7D7DBB"/>
<path id="Vector_12" d="M221.135 511.341C220.595 513.791 219.925 516.711 219.135 520.131C218.545 523.06 218.225 526.12 218.165 529.3L218.155 529.76C218.135 530.8 218.405 531.49 218.965 531.83L218.915 535.58L204.466 535.29L204.396 531.54C205.776 531.1 207.186 529.63 208.626 527.11C211.475 521.861 213.735 515.761 215.395 508.831C215.035 508.621 214.535 508.301 213.915 507.871C213.155 507.371 212.505 507.111 211.925 507.101C210.945 507.081 210.036 508.111 209.186 510.201C206.596 509.401 205.176 507.821 204.936 505.471C205.396 499.331 208.416 496.272 214.025 496.292C215.845 496.461 217.195 496.761 218.095 497.201C218.415 495.592 218.675 493.812 218.875 491.842L218.625 482.242L241.885 482.882C241.835 484.382 241.805 485.652 241.785 486.702C241.535 498.621 243.045 509.561 246.295 519.511C248.625 527.59 250.255 531.64 251.195 531.66L251.275 536.24L229.295 535.8L229.365 532.18C230.165 531.42 230.595 529.42 230.665 526.17C230.675 525.71 230.675 525.22 230.665 524.71C230.745 520.731 230.625 516.691 230.295 512.591C229.885 512.651 229.215 512.671 228.295 512.651C226.525 512.611 224.755 512.351 222.965 511.851C222.055 511.631 221.445 511.461 221.135 511.341ZM226.965 490.652C226.525 489.252 226.225 488.552 226.095 488.542C225.835 488.532 225.445 490.122 224.915 493.292C224.495 495.582 223.985 498.201 223.375 501.121C225.085 502.771 227.185 504.161 229.675 505.301C229.105 500.871 228.205 495.992 226.965 490.652Z" fill="#7D7DBB"/>
<path id="Vector_13" d="M301.344 470.512L302.284 473.462C300.814 476.572 301.054 481.952 303.013 489.582C306.783 504.321 310.483 513.581 314.103 517.361L316.413 517.971C316.813 519.221 317.063 520.051 317.173 520.481C317.363 521.231 317.053 521.71 316.243 521.92L316.193 521.86L295.274 527.22L294.014 523.26C294.674 523.25 295.024 523.24 295.034 523.24C295.984 523 295.844 519.601 294.604 513.041L293.094 507.161C292.044 503.051 290.574 498.591 288.694 493.802C287.304 499.891 286.734 512.281 286.994 530.98C283.154 526.09 279.584 520.94 276.264 515.511C272.954 510.081 269.544 504.261 266.034 498.061C266.484 505.361 267.614 512.521 269.404 519.531C270.534 523.95 273.044 526.83 276.924 528.18L277.734 531.71L261.544 535.86L260.654 532.39C264.414 528.69 263.724 516.761 258.564 496.621C256.914 491.682 255.065 488.522 253.015 487.152L251.965 483.042L273.734 477.572L274.574 480.982C274.154 482.712 274.034 483.982 274.244 484.802C274.854 487.182 276.074 489.782 277.914 492.592C279.874 495.971 281.364 498.441 282.394 500.011L284.534 483.632C283.574 481.692 282.184 480.562 280.364 480.252L279.274 476.112L301.344 470.512Z" fill="#7D7DBB"/>
<path id="Vector_14" d="M331.103 486.822C331.913 489.192 332.863 492.042 333.953 495.371C334.973 498.181 336.283 500.961 337.883 503.721L338.113 504.121C338.633 505.021 339.223 505.471 339.883 505.471L341.793 508.701L329.293 515.961L327.283 512.791C328.233 511.701 328.673 509.711 328.603 506.811C328.313 500.841 327.073 494.461 324.903 487.672C324.483 487.692 323.893 487.662 323.143 487.622C322.243 487.582 321.543 487.712 321.043 487.992C320.203 488.482 319.953 489.842 320.313 492.062C317.683 492.722 315.653 492.112 314.223 490.222C311.423 484.742 312.423 480.552 317.223 477.662C318.863 476.862 320.183 476.422 321.173 476.332C320.613 474.792 319.913 473.122 319.063 471.342L313.873 463.273L334.093 451.733C334.833 453.043 335.463 454.153 335.983 455.053C341.963 465.363 348.932 473.932 356.872 480.752C363.052 486.452 366.552 489.062 367.362 488.592L369.812 492.462L350.802 503.491L348.992 500.361C349.282 499.301 348.612 497.361 346.983 494.551C346.753 494.152 346.493 493.732 346.223 493.302C344.223 489.862 342.023 486.472 339.613 483.132C339.293 483.402 338.733 483.762 337.933 484.222C336.413 485.112 334.753 485.802 332.953 486.302C332.043 486.582 331.433 486.762 331.103 486.822ZM325.333 466.113C324.233 465.143 323.613 464.693 323.503 464.763C323.283 464.893 323.773 466.453 324.963 469.442C325.793 471.612 326.713 474.122 327.713 476.932C330.033 477.452 332.543 477.552 335.253 477.232C332.473 473.742 329.173 470.032 325.333 466.113Z" fill="#7D7DBB"/>
<path id="Vector_15" d="M399.711 445.524C403.991 450.003 404.341 455.823 400.751 462.983C400.031 464.433 398.631 466.223 396.551 468.323C395.931 468.923 393.712 470.993 389.902 474.552L377.922 486.012L375.442 483.422C375.352 480.632 371.442 475.192 363.702 467.103L362.072 465.403C361.372 464.643 360.682 463.903 360.012 463.203C352.722 455.573 347.212 451.233 343.483 450.173L340.823 447.483L356.062 433.144L358.692 435.724C358.002 438.654 362.152 444.824 371.162 454.243C377.582 460.953 382.602 465.343 386.212 467.393C389.002 465.823 391.372 464.133 393.332 462.313C395.291 460.493 395.391 458.313 393.642 455.793C391.892 453.273 388.902 453.243 384.672 455.703C379.882 452.503 377.922 448.933 378.802 444.974C379.682 441.014 383.312 438.944 389.702 438.774C392.552 439.434 395.891 441.694 399.711 445.524Z" fill="#7D7DBB"/>
<path id="Vector_16" d="M404.601 420.754C406.421 422.484 408.581 424.564 411.091 427.014C413.291 429.034 415.741 430.894 418.431 432.594L418.821 432.834C419.701 433.394 420.431 433.514 421.021 433.214L424.201 435.194L416.481 447.413L413.231 445.534C413.571 444.124 413.031 442.154 411.631 439.624C408.611 434.474 404.561 429.384 399.491 424.374C399.121 424.584 398.591 424.844 397.901 425.144C397.081 425.534 396.521 425.964 396.221 426.444C395.691 427.274 396.111 428.584 397.451 430.394C395.421 432.194 393.342 432.594 391.202 431.584C386.182 428.014 385.132 423.844 388.052 419.055C389.142 417.585 390.102 416.585 390.932 416.045C389.732 414.935 388.332 413.785 386.752 412.605L378.412 407.855L390.992 388.266C392.252 389.086 393.322 389.776 394.202 390.326C404.281 396.695 414.421 401.065 424.621 403.435C432.741 405.615 437.041 406.315 437.551 405.525L441.51 407.825L429.771 426.404L426.711 424.474C426.481 423.394 424.981 421.994 422.231 420.254C421.841 420.004 421.421 419.755 420.981 419.505C417.621 417.375 414.091 415.395 410.411 413.555C410.251 413.935 409.921 414.515 409.421 415.295C408.481 416.785 407.331 418.165 405.971 419.445C405.331 420.114 404.871 420.554 404.601 420.754ZM389.912 405.075C388.482 404.725 387.732 404.615 387.652 404.725C387.512 404.945 388.672 406.095 391.112 408.195C392.862 409.735 394.831 411.525 397.021 413.565C399.321 412.955 401.591 411.885 403.851 410.335C399.771 408.515 395.122 406.765 389.912 405.075Z" fill="#7D7DBB"/>
<path id="Vector_17" d="M456.03 367.967C454.19 374.476 453.08 378.266 452.73 379.346C450.07 387.396 443.1 392.066 431.831 393.336C428.611 393.496 424.931 392.886 420.791 391.526C409.051 387.656 402.261 380.586 400.431 370.326C400.261 366.657 400.591 363.597 401.401 361.117L401.421 361.057C401.691 360.237 403.241 357.627 406.071 353.217C407.041 351.397 407.881 349.447 408.561 347.357L408.681 346.997C409.101 345.447 409.211 343.268 409.021 340.458C410.701 340.168 412.001 340.168 412.931 340.478C420.001 343.327 423.261 347.117 422.701 351.837L422.411 352.707C420.911 357.247 415.861 359.807 407.261 360.397C406.491 361.027 406.001 361.677 405.781 362.327C405.601 362.867 405.671 363.427 405.991 364.007C406.891 366.227 410.211 368.277 415.941 370.166L432.451 375.616C437.981 377.436 442.85 377.656 447.08 376.266C448.2 375.476 448.93 374.586 449.26 373.586L450.74 368.257C450.85 366.207 448.35 363.697 443.24 360.707C440.801 360.337 438.971 362.007 437.751 365.707L437.481 366.517C436.411 366.657 435.641 366.657 435.181 366.497C430.281 362.987 428.731 358.527 430.501 353.137L430.911 351.877C433.331 347.087 438.371 345.557 446.05 347.307C454.04 349.927 457.36 356.817 456.03 367.967Z" fill="#7D7DBB"/>
<path id="Vector_18" d="M439.921 323.638C442.341 324.278 445.24 325.078 448.61 326.018C451.51 326.738 454.56 327.188 457.73 327.398L458.2 327.428C459.24 327.488 459.94 327.258 460.31 326.708L464.05 326.918L463.13 341.348L459.38 341.258C459 339.858 457.59 338.388 455.14 336.838C450.02 333.768 444.021 331.248 437.161 329.278C436.941 329.638 436.601 330.118 436.141 330.718C435.601 331.448 435.321 332.098 435.281 332.668C435.221 333.648 436.211 334.598 438.261 335.538C437.341 338.088 435.711 339.438 433.351 339.588C427.231 338.868 424.311 335.708 424.581 330.108C424.831 328.298 425.191 326.958 425.671 326.088C424.081 325.688 422.301 325.358 420.351 325.078L410.751 324.908L412.391 301.689C413.891 301.799 415.161 301.899 416.201 301.959C428.101 302.719 439.091 301.689 449.18 298.869C457.35 296.899 461.47 295.439 461.53 294.499L466.11 294.609L464.72 316.549L461.11 316.319C460.39 315.489 458.4 314.969 455.16 314.759C454.7 314.729 454.21 314.709 453.7 314.699C449.73 314.449 445.68 314.399 441.571 314.549C441.611 314.959 441.601 315.629 441.541 316.549C441.431 318.308 441.081 320.068 440.511 321.838C440.241 322.718 440.041 323.328 439.921 323.638ZM419.491 316.918C418.071 317.298 417.361 317.558 417.351 317.698C417.331 317.958 418.901 318.418 422.051 319.088C424.321 319.608 426.911 320.228 429.811 320.968C431.541 319.328 433.011 317.298 434.251 314.859C429.801 315.219 424.881 315.909 419.491 316.918Z" fill="#7D7DBB"/>
<path id="Vector_19" d="M442.16 271.56C450.78 269.76 456.14 267.59 458.24 265.061L461.77 264.441L465.35 285L461.82 285.61C459.45 284.13 452.76 284.36 441.73 286.28L439.41 286.68C438.38 286.84 437.39 287 436.431 287.17C426.031 288.98 419.361 291.139 416.401 293.639L412.681 294.349L409.251 273.71L412.861 272.96C414.611 274.84 420.131 275.13 429.451 273.83C430.481 271.9 431.101 270.06 431.311 268.31C431.411 267.04 431.421 266.14 431.351 265.621C421.751 267.33 415.491 269.42 412.601 271.87L408.891 272.58L405.461 251.941L409.071 251.191C411.121 253.401 418.561 253.381 431.391 251.151C444.29 248.901 451.97 246.281 454.43 243.291L457.96 242.671L461.54 263.231L458.01 263.851C455.76 262.451 449.98 262.521 440.63 264.071C441.38 265.121 441.89 266.44 442.16 268.04C442.48 269.74 442.47 270.91 442.16 271.56Z" fill="#7D7DBB"/>
<path id="Vector_20" d="M420.811 190.564C426.431 187.944 432.051 189.484 437.681 195.173C438.831 196.323 440.071 198.223 441.401 200.863C441.761 201.643 443.021 204.413 445.16 209.163L452.16 224.182L448.91 225.692C446.24 224.882 439.831 226.842 429.691 231.572L427.561 232.572C426.611 232.992 425.691 233.412 424.811 233.822C415.251 238.282 409.361 242.101 407.171 245.291L403.771 246.941L395.082 227.912L398.371 226.252C400.921 227.852 408.101 225.902 419.911 220.392C428.331 216.463 434.091 213.123 437.201 210.353C436.611 207.213 435.771 204.423 434.671 201.983C433.571 199.543 431.551 198.753 428.601 199.593C425.651 200.443 424.661 203.263 425.631 208.063C421.071 211.573 417.051 212.283 413.591 210.173C410.121 208.073 409.331 203.963 411.211 197.853C412.741 195.393 415.951 192.963 420.811 190.564Z" fill="#7D7DBB"/>
<path id="Vector_21" d="M399.001 177.994C401.221 176.834 403.891 175.464 407.011 173.874C409.631 172.444 412.181 170.724 414.661 168.724L415.021 168.434C415.831 167.784 416.191 167.134 416.091 166.484L418.991 164.105L428.061 175.364L425.231 177.834C424.011 177.054 421.971 176.924 419.121 177.434C413.271 178.634 407.141 180.824 400.761 184.004C400.841 184.424 400.911 185.004 400.981 185.754C401.081 186.654 401.311 187.324 401.671 187.764C402.291 188.524 403.661 188.564 405.801 187.864C406.851 190.363 406.561 192.463 404.911 194.163C399.921 197.763 395.621 197.413 392.042 193.103C391.002 191.603 390.362 190.363 390.122 189.404C388.682 190.183 387.142 191.133 385.512 192.253L378.322 198.613L363.852 180.394C365.032 179.464 366.032 178.674 366.842 178.024C376.122 170.544 383.532 162.355 389.062 153.465C393.752 146.485 395.801 142.635 395.211 141.905L398.661 138.896L412.461 156.005L409.641 158.275C408.551 158.155 406.731 159.115 404.201 161.155C403.841 161.445 403.461 161.755 403.081 162.095C399.981 164.595 396.961 167.284 394.041 170.174C394.351 170.454 394.791 170.954 395.371 171.664C396.481 173.034 397.411 174.574 398.181 176.264C398.621 177.104 398.891 177.674 399.001 177.994ZM379.412 186.834C378.622 188.074 378.272 188.744 378.352 188.854C378.512 189.054 379.982 188.334 382.752 186.704C384.772 185.554 387.112 184.264 389.742 182.844C389.912 180.474 389.622 177.974 388.892 175.344C385.862 178.624 382.692 182.454 379.412 186.834Z" fill="#7D7DBB"/>
<g id="Group_4">
<g id="Group_5">
<path id="Vector_22" d="M335.233 161.085C338.413 156.345 341.263 151.825 343.723 147.145C346.223 142.515 348.313 137.786 349.953 132.916C351.593 128.066 352.963 123.096 353.703 117.906C354.243 115.326 354.433 112.687 354.773 109.987C355.153 107.277 355.073 104.567 355.573 101.667C356.793 104.217 357.903 106.897 358.613 109.677C359.173 112.467 359.873 115.326 359.863 118.236C360.243 124.046 359.253 129.946 357.363 135.486C355.483 141.035 352.543 146.205 348.793 150.625C345.033 155.005 340.543 158.835 335.233 161.085Z" fill="#EA5D7B"/>
</g>
<g id="Group_6">
<path id="Vector_23" d="M337.573 165.315C343.693 162.485 349.043 159.685 353.783 155.945C356.143 154.095 358.423 152.125 360.493 149.845C362.703 147.655 364.543 145.135 366.863 142.575C366.573 145.955 365.573 149.315 363.803 152.285C362.133 155.325 359.723 157.955 356.973 160.085C354.223 162.235 351.063 163.825 347.743 164.755C344.433 165.665 340.943 166.045 337.573 165.315Z" fill="#EA5D7B"/>
</g>
<path id="Vector_24" d="M134.118 159.365C128.608 157.655 123.758 154.295 119.588 150.315C115.418 146.295 111.968 141.445 109.548 136.106C107.108 130.786 105.538 125.016 105.338 119.196C105.038 116.306 105.448 113.396 105.728 110.557C106.158 107.717 106.998 104.947 107.948 102.277C108.728 105.107 108.918 107.817 109.568 110.477C110.168 113.126 110.618 115.736 111.418 118.246C112.678 123.336 114.538 128.136 116.648 132.806C118.758 137.485 121.318 141.975 124.268 146.335C127.198 150.755 130.478 154.965 134.118 159.365Z" fill="#EA5D7B"/>
<path id="Vector_25" d="M132.208 163.805C128.928 164.875 125.418 164.845 122.038 164.275C118.648 163.685 115.338 162.415 112.388 160.545C109.438 158.695 106.778 156.325 104.808 153.465C102.758 150.685 101.418 147.445 100.788 144.115C103.348 146.425 105.438 148.755 107.858 150.715C110.148 152.775 112.608 154.505 115.148 156.105C120.238 159.355 125.828 161.605 132.208 163.805Z" fill="#EA5D7B"/>
<path id="Vector_26" d="M362.072 207.353C370.882 218.562 378.162 231.082 383.552 244.461C388.992 257.821 392.342 272.05 393.932 286.49C395.412 300.959 394.782 315.639 392.352 330.078C391.032 337.268 389.382 344.437 387.012 351.377C385.972 354.897 384.532 358.287 383.272 361.737C381.792 365.097 380.452 368.526 378.762 371.786C366.022 398.325 345.493 421.084 320.553 437.004C295.574 452.883 266.074 461.713 236.415 462.103C206.786 462.463 176.986 454.703 151.587 439.444C126.247 424.184 105.028 402.095 91.4781 375.936C84.7782 362.857 79.5983 348.977 76.7584 334.598C73.7485 320.268 72.9685 305.569 73.9185 291.08C76.0584 262.091 86.3882 233.912 103.498 211.063C88.8381 235.512 80.6483 263.421 80.3283 291.37C79.7983 319.308 86.8882 347.057 100.438 371.056C114.148 394.955 134.027 415.225 157.847 428.764C163.757 432.224 169.946 435.134 176.236 437.814C182.566 440.394 189.056 442.544 195.666 444.294C208.896 447.633 222.575 449.353 236.235 449.043C263.584 448.923 290.704 440.854 314.013 426.544C319.903 423.054 325.413 418.955 330.783 414.705C336.083 410.355 341.093 405.655 345.813 400.675C355.102 390.586 363.292 379.396 369.712 367.197C382.632 342.847 388.912 314.879 387.572 286.97C386.962 273.02 384.482 259.101 380.172 245.691C375.842 232.282 369.772 219.362 362.072 207.353Z" fill="#EA5D7B"/>
<path id="Year" d="M202.58 50.8279C205.684 48.3959 208.228 46.2999 210.212 44.5399C212.196 42.7799 213.86 40.9719 215.204 39.1159C216.548 37.2279 217.22 35.4359 217.22 33.7399C217.22 32.7159 216.98 31.9159 216.5 31.3399C216.052 30.7639 215.38 30.4759 214.484 30.4759C213.556 30.4759 212.836 30.8759 212.324 31.6759C211.812 32.4439 211.572 33.5799 211.604 35.0839H202.484C202.58 32.2359 203.204 29.8839 204.356 28.0279C205.508 26.1399 207.012 24.7639 208.868 23.8999C210.724 23.0039 212.788 22.5559 215.06 22.5559C218.996 22.5559 221.924 23.5319 223.844 25.4839C225.764 27.4359 226.724 29.9639 226.724 33.0679C226.724 36.3959 225.604 39.5159 223.364 42.4279C221.156 45.3399 218.388 47.9479 215.06 50.2519H227.06V57.8839H202.58V50.8279ZM234.996 40.3159C234.996 34.8119 236.116 30.4759 238.356 27.3079C240.596 24.1399 244.116 22.5559 248.916 22.5559C253.716 22.5559 257.236 24.1399 259.476 27.3079C261.748 30.4759 262.884 34.8119 262.884 40.3159C262.884 45.8839 261.764 50.2519 259.524 53.4199C257.284 56.5879 253.748 58.1719 248.916 58.1719C244.084 58.1719 240.548 56.5879 238.308 53.4199C236.1 50.2519 234.996 45.8839 234.996 40.3159ZM253.572 40.3159C253.572 37.4359 253.268 35.2439 252.66 33.7399C252.052 32.2039 250.804 31.4359 248.916 31.4359C247.028 31.4359 245.78 32.2039 245.172 33.7399C244.564 35.2439 244.26 37.4359 244.26 40.3159C244.26 43.2599 244.548 45.4999 245.124 47.0359C245.732 48.5399 246.996 49.2919 248.916 49.2919C250.836 49.2919 252.084 48.5399 252.66 47.0359C253.268 45.4999 253.572 43.2599 253.572 40.3159ZM202.58 92.8279C205.684 90.3959 208.228 88.2999 210.212 86.5399C212.196 84.7799 213.86 82.9719 215.204 81.1159C216.548 79.2279 217.22 77.4359 217.22 75.7399C217.22 74.7159 216.98 73.9159 216.5 73.3399C216.052 72.7639 215.38 72.4759 214.484 72.4759C213.556 72.4759 212.836 72.8759 212.324 73.6759C211.812 74.4439 211.572 75.5799 211.604 77.0839H202.484C202.58 74.2359 203.204 71.8839 204.356 70.0279C205.508 68.1399 207.012 66.7639 208.868 65.8999C210.724 65.0039 212.788 64.5559 215.06 64.5559C218.996 64.5559 221.924 65.5319 223.844 67.4839C225.764 69.4359 226.724 71.9639 226.724 75.0679C226.724 78.3959 225.604 81.5159 223.364 84.4279C221.156 87.3399 218.388 89.9479 215.06 92.2519H227.06V99.8839H202.58V92.8279ZM235.428 75.7399C235.556 72.1239 236.676 69.3559 238.788 67.4359C240.9 65.4839 243.844 64.5079 247.62 64.5079C250.084 64.5079 252.18 64.9399 253.908 65.8039C255.668 66.6359 256.996 67.7879 257.892 69.2599C258.788 70.6999 259.236 72.3319 259.236 74.1559C259.236 76.3319 258.708 78.0759 257.652 79.3879C256.596 80.6679 255.396 81.5319 254.052 81.9799V82.1719C257.924 83.6119 259.86 86.3639 259.86 90.4279C259.86 92.4439 259.396 94.2199 258.468 95.7559C257.54 97.2919 256.196 98.4919 254.436 99.3559C252.676 100.22 250.58 100.652 248.148 100.652C244.148 100.652 240.98 99.6919 238.644 97.7719C236.34 95.8199 235.14 92.8439 235.044 88.8439H244.212C244.148 90.1239 244.42 91.1159 245.028 91.8199C245.636 92.5239 246.548 92.8759 247.764 92.8759C248.692 92.8759 249.412 92.5879 249.924 92.0119C250.468 91.4359 250.74 90.6679 250.74 89.7079C250.74 88.4919 250.34 87.5959 249.54 87.0199C248.772 86.4439 247.508 86.1559 245.748 86.1559H244.068V78.5239H245.7C246.916 78.5559 247.94 78.3639 248.772 77.9479C249.636 77.4999 250.068 76.6199 250.068 75.3079C250.068 74.3159 249.828 73.5799 249.348 73.0999C248.868 72.5879 248.212 72.3319 247.38 72.3319C246.452 72.3319 245.764 72.6679 245.316 73.3399C244.9 73.9799 244.66 74.7799 244.596 75.7399H235.428Z" fill="#EA617D"/>
</g>
</g>
</g>
</svg>
