<?xml version="1.0" encoding="utf-8"?>
<!-- Generator: Adobe Illustrator 26.0.3, SVG Export Plug-In . SVG Version: 6.00 Build 0)  -->
<svg version="1.1" id="Ebene_1" xmlns="http://www.w3.org/2000/svg" xmlns:xlink="http://www.w3.org/1999/xlink" x="0px" y="0px"
	 viewBox="0 0 478.9 288" style="enable-background:new 0 0 478.9 288;" xml:space="preserve">
<style type="text/css">
	.st0{fill:#641E6E;}
	.st1{fill:#7575B4;}
	.st2{fill:#EA5474;}
	.st3{fill:#271607;}
	.st4{opacity:0.1;}
	.st5{clip-path:url(#SVGID_00000176026810992973217870000001971712856855860619_);fill:#FFFFFF;}
	.st6{fill:#3B3534;}
	.st7{fill:#381947;}
	.st8{fill:#002E2C;}
	.st9{fill:#694F7F;}
	.st10{opacity:0.9;}
	.st11{clip-path:url(#SVGID_00000106849953410774070040000015131298356822447534_);fill:#D8DADA;}
	.st12{clip-path:url(#SVGID_00000073689760161574929220000006331753317973103794_);fill:#D8DADA;}
	.st13{fill:#518198;}
	.st14{fill:#F69C00;}
	.st15{fill:#ED5607;}
	.st16{fill:#FDD184;}
	.st17{fill:#EA3C0F;}
	.st18{fill:#E6BFA5;}
	.st19{clip-path:url(#SVGID_00000056406699902300258050000007840009629039063977_);fill:#381947;}
	.st20{clip-path:url(#SVGID_00000047062442832798706150000006065411130007500464_);fill:#FFFFFF;}
	.st21{clip-path:url(#SVGID_00000055699077737602502330000012262802091970639770_);fill:#FFFFFF;}
	.st22{fill:#877C7A;}
	.st23{fill:#302B28;}
	.st24{fill:#5A524F;}
	.st25{fill:#A8A09E;}
	.st26{fill:#B8A8A6;}
	.st27{fill:#DCCECB;}
	.st28{opacity:0.3;}
	.st29{clip-path:url(#SVGID_00000129207905546785276010000002539945992411469982_);fill:#AADBE0;}
	.st30{opacity:0.2;}
	.st31{clip-path:url(#SVGID_00000025420977198595545790000015257138401026587067_);fill:#AADBE0;}
	.st32{fill:#FFE274;}
	.st33{fill:#FAB40C;}
	.st34{clip-path:url(#SVGID_00000126290135321397795250000010623190725039676039_);fill:#AADBE0;}
	
		.st35{clip-path:url(#SVGID_00000075854057270627866170000007872080570092835207_);fill:url(#SVGID_00000144310898732490813110000011007047964020929176_);}
	.st36{fill:#D78D5A;}
	.st37{fill:#D99A68;}
	.st38{fill:#66322A;}
	.st39{fill:#BE7A50;}
	.st40{fill:#2F0C27;}
	.st41{fill:#636664;}
	.st42{fill:#4F2B1E;}
	.st43{fill:#542614;}
	.st44{fill:#79422C;}
	.st45{fill:#833500;}
	.st46{fill:#A57555;}
	.st47{fill:#485B5E;}
	.st48{fill:#7B8E91;}
	.st49{opacity:0.6;fill:#9EB1B5;}
	.st50{fill:#596D71;}
	.st51{fill:#F4931F;}
	.st52{fill:#9EB1B5;}
	.st53{fill:#FDCF0C;}
	.st54{fill:#F9AE15;}
	.st55{fill:#FFFFFF;}
	.st56{fill:#E7EAE1;}
	.st57{fill:#C6C4AF;}
	.st58{filter:url(#Adobe_OpacityMaskFilter);}
	.st59{opacity:0.1;mask:url(#SVGID_00000130638478318858428000000016519140624732792978_);}
	.st60{fill:#87442A;}
	.st61{filter:url(#Adobe_OpacityMaskFilter_00000091715566043076361380000017942266225369775259_);}
	.st62{opacity:0.1;mask:url(#SVGID_00000163793459000055332170000006016033433327785143_);}
</style>
<g>
	<path class="st0" d="M386.5,207.9c-1.8-6.1-3.4-9.4,4.6-12.2c8.1-2.8,5.3-8.1,3.5-14.2c-1.8-6.1,0.5-12.5,11.7-20
		c11.2-7.5,5.4-13.3,4.6-19.9c-0.9-6.6-0.7-8.2,6.4-15.1c7.1-6.8,2.4-13.3-2.5-19.9c-5-6.6,3.5-32.8,3.5-32.8s-12.4,2.4-19,16
		c-6.6,13.5-11.8,1.2-21.6,11.5c-9.8,10.3-1.2,18.7-12.3,20.7c-11.1,2-19.1,6.3-20.4,22.1c-1.3,15.8-16.6,12.2-20.4,23.1
		c-3.7,10.9,10.1,14.4,2.2,21.6c-7.8,7.3-13.4,8.8-7.7,17.9c5.7,9.1-7.9,14-2.9,26.5c0.2,0.5,0.4,1,0.6,1.5
		c6.7,14,25.8,19.2,39,10.4c3-2,5.1-4.3,5.5-7c1.5-10.7,2.1,2,12.7,2.2C384.6,240.5,388.3,214,386.5,207.9"/>
	<path class="st1" d="M398.3,150.3c-5.3-0.6-10.6-0.6-15.8,0.1c2.8-5.4,5.4-10.9,7.9-16.5c0.9-2,1.7-3.9,2.5-5.9
		c0.1,0,0.2-0.1,0.2-0.1c3.6-3,7.7-5.4,12.3-7.1c0.9-0.4,0.4-1.7-0.6-1.4c-3.9,1.5-7.5,3.4-10.8,5.8c5.1-12.5,9.5-25.2,14-37.9
		c0.3-0.9-1.2-1.5-1.5-0.6c-4.3,12.2-8.5,24.3-13.3,36.3c-1.7-3.8-3.9-7.4-6.7-10.6c-0.6-0.8-1.9,0.1-1.3,0.8c3,3.5,5.4,7.4,7,11.7
		c0,0.1,0.1,0.1,0.1,0.2c-0.4,1-0.8,2-1.2,2.9c-3.2,7.6-6.7,15.1-10.4,22.5c-3.2-4.5-6.7-8.7-10.7-12.7c-0.7-0.7-2,0.1-1.3,0.8
		c4.2,4.2,7.9,8.7,11.2,13.4c-2.7,5.1-5.4,10.2-8.3,15.3c-3.2,5.5-6.4,10.9-9.7,16.4c-2.6-4.7-5.6-9.2-8.9-13.6
		c-0.6-0.8-1.9,0-1.3,0.8c3.4,4.5,6.4,9.1,9.1,13.9c0.1,0.1,0.1,0.2,0.2,0.3c-4,6.7-8,13.3-11.9,20.1c-0.7,1.3-1.5,2.6-2.2,3.8
		c-2.4-3.6-5.2-6.9-8.5-9.9c-0.7-0.7-1.7,0.4-1,1.1c3.3,3,6.1,6.4,8.5,10.1c0,0.1,0.1,0.1,0.2,0.2c-6,10.7-9.5,17.2-14.2,28.5
		c-5.6,13.6,2.3-1.5,5.2-7.7c3.1-6.7,6.6-13.2,10.2-19.7c0,0,0-0.1,0-0.1c5.6-0.1,11.2,0.3,16.7,1.1c1,0.2,1.3-1.3,0.2-1.4
		c-5.3-0.8-10.7-1.2-16.1-1.1c4.7-8.4,9.6-16.6,14.5-24.8c5.9,0,11.9-0.1,17.8-0.1c1,0,0.8-1.5-0.2-1.5c-5.6,0-11.2,0.1-16.8,0.1
		c6.2-10.5,12.4-21,18-31.7c5.4-0.8,10.9-0.9,16.4-0.2C399.1,151.9,399.3,150.4,398.3,150.3"/>
	<path class="st1" d="M387.8,106.4c0.4,0.6,0.8,1.1,1.2,1.7c0.4,0.5,1,0.8,1.6,0.5c0.5-0.2,0.9-1,0.5-1.5c-0.4-0.6-0.8-1.1-1.2-1.7
		c-0.4-0.5-1-0.8-1.6-0.5C387.8,105.2,387.4,105.9,387.8,106.4"/>
	<path class="st1" d="M393.4,103.6c-0.1,0.7-0.2,1.4-0.2,2.1c-0.1,0.6,0.5,1.1,1.2,1.2c0.7,0,1.2-0.4,1.3-1c0.1-0.7,0.2-1.4,0.2-2.1
		c0.1-0.6-0.5-1.1-1.2-1.2C394,102.5,393.5,103,393.4,103.6"/>
	<path class="st1" d="M381.2,107.5l1.4,2c0.4,0.5,1,0.8,1.6,0.5c0.5-0.2,0.9-1,0.5-1.5l-1.4-2c-0.4-0.5-1-0.8-1.6-0.5
		C381.2,106.3,380.8,107,381.2,107.5"/>
	<path class="st1" d="M404.7,111.7c-0.3,0.5-0.5,1.1-0.8,1.6c-0.3,0.5,0.2,1.2,0.8,1.4c0.7,0.2,1.2-0.1,1.5-0.7
		c0.3-0.5,0.5-1.1,0.8-1.6c0.3-0.5-0.2-1.2-0.8-1.4C405.5,110.8,405,111.2,404.7,111.7"/>
	<path class="st1" d="M410.9,116.7c-0.1,0.1-0.2,0.2-0.4,0.3c-0.1,0-0.1,0.1-0.2,0.1c0.1,0,0.1,0,0,0c-0.1,0.1-0.2,0.1-0.4,0.2
		c0,0-0.4,0.2-0.3,0.1c-0.6,0.2-1.1,0.7-0.9,1.3c0.1,0.5,0.8,1.1,1.4,0.9c0.9-0.3,1.7-0.6,2.3-1.2c0.4-0.4,0.6-1.1,0.1-1.5
		C412.2,116.4,411.4,116.2,410.9,116.7"/>
	<path class="st1" d="M410.2,123c-0.8-0.1-1.6-0.2-2.4-0.3c-0.6-0.1-1.2,0.5-1.3,1c0,0.6,0.5,1.1,1.2,1.2c0.8,0.1,1.6,0.2,2.4,0.3
		c0.6,0.1,1.2-0.5,1.3-1C411.4,123.5,410.9,123.1,410.2,123"/>
	<path class="st1" d="M359.4,138.8c0.8,0.1,1.6,0.2,2.5,0.2c0.6,0.1,1.2-0.4,1.3-1c0-0.6-0.5-1.1-1.2-1.2l-2.5-0.2
		c-0.6-0.1-1.2,0.4-1.3,1C358.2,138.2,358.7,138.7,359.4,138.8"/>
	<path class="st1" d="M362.9,132.5c0.6,0.6,1.1,1.2,1.7,1.8c1,1.1,2.8-0.3,1.8-1.4c-0.6-0.6-1.1-1.2-1.7-1.8
		C363.7,130,361.9,131.4,362.9,132.5"/>
	<path class="st1" d="M370.7,129.8c-0.3,0.7-0.3,1.5-0.2,2.2c0.1,0.6,0.8,1,1.4,0.9c0.6-0.1,1.1-0.7,0.9-1.3c0,0-0.1-0.4,0-0.2
		c0-0.1,0-0.2,0-0.4c0-0.1,0-0.1,0-0.2c0,0.1,0,0.1,0,0c0-0.1,0.1-0.2,0.1-0.4c0.2-0.5-0.2-1.2-0.8-1.4
		C371.5,129,370.9,129.3,370.7,129.8"/>
	<path class="st1" d="M376.4,132.9c-0.2,0.5-0.4,0.9-0.6,1.4c-0.2,0.5,0.2,1.2,0.8,1.4c0.7,0.2,1.2-0.1,1.5-0.7
		c0.2-0.5,0.4-0.9,0.6-1.4c0.2-0.5-0.2-1.2-0.8-1.4C377.3,132,376.7,132.3,376.4,132.9"/>
	<path class="st1" d="M396.2,145.3c-0.1,0.5-0.1,1-0.2,1.5c-0.1,0.6,0.5,1.2,1.2,1.2c0.7,0,1.2-0.4,1.3-1c0.1-0.5,0.1-1,0.2-1.5
		c0.1-0.6-0.5-1.2-1.2-1.2C396.8,144.3,396.3,144.7,396.2,145.3"/>
	<path class="st1" d="M404.1,148c-0.6,0.2-1.3,0.5-1.9,0.7c-0.6,0.2-0.8,1-0.5,1.5c0.3,0.6,1,0.7,1.6,0.5c0.6-0.2,1.3-0.5,1.9-0.7
		c0.6-0.2,0.8-1,0.5-1.5C405.4,148,404.7,147.8,404.1,148"/>
	<path class="st1" d="M404,155.1c-0.7-0.5-1.3-0.9-2-1.4c-0.5-0.4-1.3-0.2-1.7,0.3c-0.4,0.5-0.2,1.2,0.4,1.5c0.7,0.5,1.3,0.9,2,1.4
		c0.5,0.4,1.3,0.2,1.7-0.3C404.7,156.1,404.5,155.5,404,155.1"/>
	<path class="st1" d="M395.6,157.2c0.5,0.7,0.9,1.3,1.4,2c0.4,0.5,1,0.8,1.6,0.5c0.5-0.2,0.9-1,0.5-1.5l-1.4-2
		c-0.4-0.5-1-0.8-1.6-0.5C395.6,156,395.2,156.7,395.6,157.2"/>
	<path class="st1" d="M346.7,173.1c-0.9-0.1-1.7-0.2-2.6-0.3c-0.6-0.1-1.2,0.5-1.3,1c0,0.6,0.5,1.1,1.2,1.2c0.9,0.1,1.7,0.2,2.6,0.3
		c0.6,0.1,1.2-0.5,1.3-1C347.9,173.7,347.4,173.2,346.7,173.1"/>
	<path class="st1" d="M344.6,165.9c-1.3-0.5-2.6-1-3.9-1.4c-1.4-0.5-2.2,1.5-0.7,2.1c1.3,0.5,2.6,1,3.9,1.4
		C345.4,168.5,346.1,166.4,344.6,165.9"/>
	<path class="st1" d="M346.5,161.5c0.6,0.9,1.2,1.8,1.7,2.8c0.8,1.2,2.9,0.3,2.1-0.9c-0.6-0.9-1.2-1.8-1.7-2.8
		C347.9,159.3,345.8,160.2,346.5,161.5"/>
	<path class="st1" d="M355.5,160.5l-0.1,1.7c0,0.6,0.5,1.2,1.2,1.2c0.7,0,1.2-0.4,1.3-1c0-0.6,0.1-1.1,0.1-1.7
		c0-0.6-0.5-1.2-1.2-1.2C356.1,159.5,355.6,159.9,355.5,160.5"/>
	<path class="st1" d="M361.1,166.5c-0.5,0.7-1,1.4-1.5,2.1c-0.8,1.2,1.2,2.4,2,1.2c0.5-0.7,1-1.4,1.5-2.1
		C363.9,166.6,361.9,165.4,361.1,166.5"/>
	<path class="st1" d="M375.7,177.4c-0.2,0.7-0.4,1.3-0.6,2c-0.2,0.6,0.1,1.2,0.8,1.4c0.6,0.2,1.3-0.1,1.5-0.7c0.2-0.7,0.4-1.3,0.6-2
		c0.2-0.6-0.2-1.2-0.8-1.4C376.6,176.5,375.9,176.8,375.7,177.4"/>
	<path class="st1" d="M385.9,175.3c-0.7,1-1.4,1.9-2,2.9c-0.8,1.2,1.2,2.4,2,1.2c0.7-1,1.4-1.9,2-2.9
		C388.8,175.4,386.8,174.2,385.9,175.3"/>
	<path class="st1" d="M388.7,184.3c-1.3-0.2-2.6-0.3-3.9-0.5c-1.5-0.2-1.6,2-0.1,2.2c1.3,0.2,2.6,0.3,3.9,0.5
		C390.2,186.6,390.3,184.5,388.7,184.3"/>
	<path class="st1" d="M385.7,192c-1-0.6-2-1.2-2.9-1.8c-1.3-0.8-2.6,1-1.3,1.8c1,0.6,2,1.2,2.9,1.8C385.7,194.6,387,192.8,385.7,192
		"/>
	<path class="st1" d="M379.2,195.2c-1.1-1.3-2.4-2.4-3.8-3.3c-1.3-0.8-2.6,1-1.3,1.8c1.3,0.8,2.4,1.8,3.3,2.9
		C378.4,197.7,380.2,196.3,379.2,195.2"/>
	<path class="st1" d="M332.6,204.2c-1.2,0.2-2.4,0.4-3.6,0.6c-1.5,0.2-1,2.4,0.5,2.2c1.2-0.2,2.4-0.4,3.6-0.6
		C334.7,206.2,334.2,204,332.6,204.2"/>
	<path class="st1" d="M328,200.3c1,0.4,1.9,0.7,2.9,1.1c0.6,0.2,1.3-0.2,1.5-0.7c0.2-0.6-0.2-1.2-0.8-1.4c-1-0.4-1.9-0.7-2.9-1.1
		c-0.6-0.2-1.3,0.2-1.5,0.7C327,199.5,327.4,200.1,328,200.3"/>
	<path class="st1" d="M329.7,192.5c0.8,0.5,1.6,1,2.5,1.5c1.3,0.8,0.2-2.5-1.2-3.3c-0.8-0.5,0.8,0.5,0,0
		C329.7,189.9,328.4,191.7,329.7,192.5"/>
	<path class="st1" d="M339.7,190.8c0.1,0.8,0.3,1.5,0.4,2.3c0.1,0.6,0.8,1,1.4,0.9c0.7-0.1,1-0.7,0.9-1.3c-0.2-0.8-0.3-1.5-0.4-2.3
		c-0.1-0.6-0.8-1-1.4-0.9C340,189.6,339.6,190.2,339.7,190.8"/>
	<path class="st1" d="M344.7,196.2c-0.3,0.6-0.5,1.2-0.8,1.9c-0.2,0.5,0.2,1.2,0.8,1.4c0.7,0.2,1.3-0.1,1.5-0.7
		c0.3-0.6,0.5-1.2,0.8-1.9c0.2-0.5-0.2-1.2-0.8-1.4C345.5,195.3,344.9,195.6,344.7,196.2"/>
	<path class="st1" d="M359.5,203.7c-0.7,0.6-1.4,1.1-2.1,1.7c-1.1,0.9,0.5,2.6,1.6,1.7c0.7-0.6,1.4-1.1,2.1-1.7
		C362.3,204.5,360.6,202.8,359.5,203.7"/>
	<path class="st1" d="M366.8,204.8c-0.7,0.7-1.4,1.2-2.3,1.6c-1.3,0.7-0.3,2.6,1.1,2c1-0.5,2-1.2,2.8-1.9c0.4-0.4,0.6-1.1,0.1-1.5
		C368.1,204.5,367.2,204.4,366.8,204.8"/>
	<path class="st1" d="M373.4,210.2c-1.3,0.2-2.6,0.1-3.9-0.1c-0.6-0.1-1.2,0.5-1.3,1c0,0.6,0.5,1.1,1.2,1.2c1.5,0.2,3,0.3,4.5,0.1
		C375.5,212.2,374.9,210,373.4,210.2"/>
	<path class="st1" d="M372,216.7c-1.2-0.6-2.5-1.1-3.7-1.7c-0.6-0.3-1.3,0.2-1.5,0.7c-0.2,0.6,0.2,1.1,0.8,1.4
		c1.2,0.6,2.5,1.1,3.7,1.7c0.6,0.3,1.3-0.2,1.5-0.7C373,217.5,372.6,217,372,216.7"/>
	<path class="st1" d="M364.4,219.3c-1.7-1.7-3.5-3.4-5.2-5c-1.1-1-2.9,0.4-1.8,1.4c1.7,1.7,3.5,3.4,5.2,5
		C363.7,221.8,365.5,220.4,364.4,219.3"/>
	<path class="st1" d="M355.1,217.7c-0.9-0.5-1.8-1.1-2.7-1.6c-1.3-0.8-2.6,1-1.3,1.8c0.9,0.5,1.8,1.1,2.7,1.6
		C355.1,220.3,356.4,218.5,355.1,217.7"/>
</g>
<path class="st2" d="M392,238.5c0,0-2.8-20.8-9.7-21.2c-6.9-0.3-11.3,15.8-11.3,15.8s-3.6-30.9-13.3-31.6
	c-9.7-0.7-11.3,9.6-11.3,9.6s-2.7-17.1-13.5-17.4c-10.8-0.3-13.6,14.8-13.6,14.8c-1.8-16.8-19-12.6-23.3,1.6
	c-2.4,7.7-2.8,14.4-2.8,14.4s-7.5-16.2-12.3-16.9c-8.7-1.3-11,21.5-11,21.5s-3.1-26.9-12.6-26.2c-9.5,0.7-9.7,22-9.7,22
	s-0.8-26-9.5-25c-8.7,1-7.2,23.5-7.4,31.2c-0.3,7.7-6.9,18.8-19.2,6.4c-12.3-12.4-17.2,15.5-17.2,15.5l190.9,0
	C393.8,252.9,392,238.5,392,238.5"/>
<g>
	<path class="st1" d="M341.5,94.8c0,0-75.7,46.8-100.9,95.9c-8.5,16.7-11.1,30.7-10.8,41.9c0.6,23.4,27.5,36.3,49.2,23.6
		c10.4-6.1,21.7-15.9,32-31.7C341.5,177.9,341.5,94.8,341.5,94.8"/>
	<path class="st0" d="M269.3,222.1c1.9-3.3,3.8-6.6,5.8-9.9l43.4-1c0.2-0.4,0.4-0.8,0.6-1.2c-14.4,0.3-28.9,0.7-43.3,1
		c1.8-3.1,3.6-6.3,5.4-9.4c13.8-0.5,27.7-0.5,41.4,0.2c0.2-0.4,0.3-0.8,0.5-1.2c-13.7-0.6-27.4-0.7-41.2-0.2c1.7-3,3.5-6,5.2-9
		l39.3,0.1c0.1-0.4,0.3-0.8,0.4-1.2l-39-0.1c1.8-3.2,3.7-6.3,5.5-9.5c12.3-1,24.6-1.4,36.8-1.5c0.1-0.4,0.2-0.8,0.3-1.2
		c-12.1,0-24.3,0.5-36.4,1.4c1.9-3.2,3.8-6.5,5.6-9.7c11-0.7,22.1-1,33.1-0.8c0.1-0.4,0.2-0.8,0.3-1.2c-10.8-0.2-21.7,0.1-32.6,0.8
		c1.5-2.6,3.1-5.3,4.6-7.9c10-1,19.9-1.6,29.9-1.8c0.1-0.4,0.2-0.8,0.2-1.2c-9.8,0.2-19.6,0.7-29.4,1.7c1.9-3.2,3.7-6.4,5.6-9.7
		c8.5-1.6,17-2.4,25.6-2.4c0.1-0.4,0.1-0.8,0.2-1.2c-8.3-0.1-16.7,0.7-25,2.2c0.6-1.1,1.3-2.2,1.9-3.3c0.2-0.1,0.3-0.3,0.3-0.6
		c0.5-0.8,0.9-1.6,1.4-2.4c7.3-1.9,14.8-2.5,22.2-1.9c0.1-0.4,0.1-0.8,0.2-1.2c-7.2-0.6-14.4-0.1-21.5,1.6c1.4-2.4,2.8-4.8,4.2-7.2
		c6.1-1.1,12.2-1.7,18.3-2c0-0.4,0.1-0.8,0.1-1.2c-5.9,0.2-11.8,0.8-17.7,1.9c1.3-2.2,2.6-4.5,3.9-6.7c4.1-0.1,8.2-0.2,12.3-0.4
		c0.7,0,1.4,0,2-0.1c0-0.4,0.1-0.8,0.1-1.2c-1,0-2,0-3,0.1c-3.6,0.1-7.1,0.2-10.7,0.3c1.1-1.9,2.2-3.8,3.3-5.7
		c3.7-0.7,7.3-1.3,11-1.7c0-0.4,0.1-0.8,0.1-1.2c-3.4,0.4-6.9,0.9-10.3,1.5c1.3-2.2,2.6-4.4,3.9-6.6c2.3-0.4,4.6-0.6,6.8-0.8
		c0-0.4,0-0.8,0.1-1.2c-2.1,0.1-4.1,0.4-6.1,0.7l2.3-4c1.3-0.2,2.7-0.4,4-0.7c0-0.4,0-0.8,0.1-1.2c-1.1,0.2-2.2,0.4-3.3,0.6
		c1.2-2,2.3-4,3.5-6c0-1.9,0-2.9,0-2.9s-0.9,0.6-2.6,1.6c-1.3,2.2-2.6,4.5-3.9,6.7c-0.2-1.2-0.5-2.4-0.8-3.6
		c-0.4,0.2-0.7,0.5-1.1,0.7c0.4,1.5,0.7,3.1,0.9,4.7c-0.9,1.6-1.8,3.1-2.7,4.7c-0.4-2.4-0.9-4.7-1.7-6.9c-0.4,0.2-0.7,0.5-1.1,0.8
		c0.8,2.4,1.4,4.8,1.7,7.4c0,0.2,0.1,0.3,0.2,0.4c-1.7,2.9-3.3,5.7-5,8.6c-0.9-4-2-8-3.2-11.9c-0.4,0.3-0.7,0.5-1.1,0.8
		c1.3,4.2,2.4,8.4,3.4,12.7c-1.5,2.6-3,5.1-4.5,7.7c-1.4-5.5-2.9-11-4.5-16.4c-0.4,0.3-0.7,0.5-1.1,0.8c1.7,5.7,3.3,11.4,4.7,17.1
		c-1.8,3.2-3.7,6.3-5.5,9.5c-1.5-7.3-3.4-14.6-5.5-21.8c-0.4,0.3-0.7,0.6-1.1,0.8c2.2,7.4,4.1,15,5.6,22.6c-1.2,2.1-2.4,4.2-3.6,6.2
		c-3.1-7.7-6.2-15.3-9.4-23c-0.3,0.3-0.7,0.6-1,0.8c3.2,7.9,6.4,15.7,9.6,23.6c-2.3,4-4.7,8.1-7,12.1c-2.2-10.4-5-20.7-8.5-30.7
		c-0.4,0.3-0.7,0.6-1.1,0.9c3.5,10.3,6.3,20.8,8.6,31.5c-2.1,3.7-4.3,7.4-6.4,11.1c-4.2-11.1-8.5-22.1-12.7-33.2
		c-0.3,0.3-0.7,0.6-1,0.9l12.9,33.7c-0.8,1.4-1.6,2.8-2.4,4.2l-3,5.1c-4.9-12-9.8-24-14.7-36c-0.3,0.3-0.7,0.7-1,1
		c5,12.1,9.9,24.3,14.9,36.4c-1.5,2.6-3.1,5.3-4.6,7.9c-6.3-11.8-12.6-23.5-18.9-35.3c-0.3,0.3-0.6,0.7-0.9,1
		c6.3,11.8,12.6,23.6,18.9,35.4c0,0.1,0.1,0.1,0.1,0.2c-2.2,3.8-4.4,7.5-6.6,11.3c-6.4-12.9-12.9-25.9-19.3-38.8
		c-0.3,0.4-0.6,0.7-0.9,1.1c6.5,13,12.9,26,19.4,39c-1.6,2.8-3.3,5.7-4.9,8.5c-7.7-11.8-15.4-23.5-23.2-35.3
		c-0.3,0.4-0.5,0.8-0.8,1.2c7.7,11.8,15.5,23.6,23.2,35.4c-1.7,3-3.5,6-5.2,9c-8.8-10.5-16.9-21.4-24.3-32.8
		c-0.2,0.5-0.4,0.9-0.6,1.4c7.4,11.3,15.5,22.2,24.3,32.6c-2.8,4.9-5.7,9.8-8.5,14.7c-7.9-9.3-15.2-19-22.1-29.1
		c-0.1,0.6-0.3,1.1-0.4,1.7c6.7,9.8,14,19.3,21.7,28.4c0,0.1,0.1,0.1,0.2,0.1c-1.2,2.1-2.4,4.1-3.6,6.2
		c-6.6-7.2-13.3-14.3-19.9-21.5c0,0.6,0,1.2,0,1.8c6.4,6.9,12.9,13.9,19.3,20.8c-1.2,2-2.4,4.1-3.5,6.1c0.8,0.4,1.7,0.8,2.6,1.2
		c0.3-0.6,0.7-1.1,1-1.7c9.1,0.2,18.2,0.4,27.2,0.6c0.7-0.4,1.5-0.7,2.2-1.1c-9.6-0.2-19.2-0.4-28.7-0.7c1.1-1.8,2.1-3.6,3.2-5.5
		c11.3,0.2,22.7,0.3,34,0.5c0.5-0.4,1-0.8,1.5-1.2c-11.6-0.2-23.2-0.3-34.8-0.5c1.6-2.8,3.3-5.6,4.9-8.5c12.8,0.4,25.7,0.8,38.5,1.2
		c0.4-0.4,0.7-0.8,1.1-1.2c-13-0.4-26-0.8-39-1.2c1.4-2.5,2.9-4.9,4.3-7.4c0-0.1,0.1-0.1,0.1-0.2c13.7-0.2,27.4,0.2,41,1.4
		c0.3-0.4,0.6-0.8,0.9-1.1c-13.7-1.2-27.4-1.6-41.2-1.5c0.2-0.3,0.4-0.6,0.5-1c0.1-0.1,0.1-0.1,0.1-0.2c1.2-2.1,2.4-4.1,3.6-6.2
		c14.7-1.2,29.5-1.8,44.2-1.7c0.2-0.4,0.5-0.8,0.7-1.2C298.8,220.3,284,220.9,269.3,222.1"/>
</g>
<g>
	<path class="st0" d="M131.2,79.1c0,0-4.6,88.2,23.8,138c9.6,16.9,20.5,27.5,30.7,34.1c21.2,13.8,49.1,0.5,51-24.3
		c0.9-11.9-0.9-26.8-8.7-44.6C205.2,129.9,131.2,79.1,131.2,79.1"/>
	<path class="st1" d="M200.5,213.7c-1.8-3.5-3.5-7.1-5.3-10.6c8.5-11.6,17.1-23.2,25.6-34.8c-0.2-0.4-0.5-0.8-0.7-1.2
		c-8.5,11.6-17,23.1-25.5,34.7c-1.7-3.3-3.4-6.7-5-10c8-11.2,16.5-22.1,25.4-32.6c-0.2-0.4-0.5-0.7-0.8-1.1
		c-8.9,10.4-17.4,21.2-25.3,32.3l-4.8-9.6c8-10.3,16.1-20.6,24.1-30.9c-0.3-0.3-0.5-0.7-0.8-1c-8,10.2-15.9,20.4-23.9,30.7
		c-1.7-3.4-3.4-6.7-5.1-10.1c6.6-10.3,13.7-20.2,21.2-29.9c-0.3-0.3-0.6-0.7-0.9-1c-7.4,9.6-14.4,19.4-21,29.6
		c-1.7-3.5-3.5-6.9-5.2-10.4c6.1-9.1,12.6-18,19.5-26.5c-0.3-0.3-0.6-0.6-0.9-0.9c-6.8,8.4-13.2,17.2-19.2,26.2
		c-1.4-2.8-2.8-5.6-4.2-8.5c5.2-8.5,10.7-16.7,16.6-24.7c-0.3-0.3-0.6-0.6-0.9-0.9c-5.8,7.8-11.3,15.9-16.4,24.2
		c-1.7-3.4-3.5-6.9-5.2-10.3c3.7-7.7,8.2-14.9,13.5-21.6c-0.3-0.3-0.6-0.6-0.9-0.9c-5.2,6.5-9.6,13.6-13.3,21l-1.8-3.5
		c0-0.2-0.1-0.5-0.3-0.6c-0.4-0.8-0.9-1.7-1.3-2.5c2.8-6.9,6.8-13.2,11.9-18.6c-0.3-0.3-0.6-0.6-1-0.9c-4.9,5.3-8.9,11.3-11.7,18
		c-1.3-2.6-2.6-5.2-3.9-7.7c2.7-5.4,5.9-10.7,9.4-15.6c-0.3-0.3-0.7-0.6-1-0.8c-3.4,4.8-6.4,9.8-9.1,15l-3.6-7.2
		c2.4-3.3,4.8-6.6,7.2-9.9c0.4-0.5,0.8-1.1,1.2-1.6c-0.3-0.3-0.7-0.5-1-0.8c-0.6,0.8-1.2,1.6-1.8,2.4l-6.3,8.6l-3.1-6.1
		c1.6-3.3,3.3-6.5,5.2-9.7c-0.3-0.3-0.7-0.5-1-0.8c-1.8,2.9-3.4,6-4.9,9c-1.2-2.4-2.4-4.7-3.6-7.1c1.1-2,2.2-4,3.5-5.9
		c-0.3-0.3-0.7-0.5-1-0.8c-1.1,1.7-2.2,3.5-3.1,5.3c-0.7-1.4-1.4-2.9-2.1-4.3c0.6-1.2,1.2-2.4,1.9-3.6c-0.4-0.3-0.7-0.5-1-0.8
		l-1.5,2.9c-1.1-2.1-2.1-4.3-3.2-6.4c-1.7-1.2-2.6-1.8-2.6-1.8s-0.1,1.1-0.1,3l3.6,7.1c-1.2-0.6-2.4-1.1-3.7-1.5c0,0.4,0,0.9,0,1.3
		c1.6,0.6,3.2,1.3,4.7,2.2c0.8,1.7,1.7,3.3,2.5,5c-2.3-1.2-4.8-2.1-7.2-2.9c0,0.4,0,0.9,0,1.3c2.6,0.8,5.2,1.9,7.6,3.2
		c0.2,0.1,0.3,0.1,0.5,0.1c1.5,3.1,3.1,6.1,4.6,9.2c-4.1-1.7-8.3-3.3-12.6-4.7c0,0.4,0,0.9,0,1.3c4.5,1.5,9,3.3,13.4,5.1
		c1.4,2.7,2.8,5.5,4.1,8.2c-5.7-2.3-11.5-4.4-17.3-6.4c0,0.4,0,0.9,0.1,1.4c6.1,2.1,12.1,4.4,18.1,6.8c1.7,3.4,3.4,6.7,5.1,10.1
		c-7.5-3.3-15.1-6.3-22.8-9c0,0.5,0.1,0.9,0.1,1.4c8,2.8,15.8,6,23.6,9.4c1.1,2.2,2.2,4.4,3.3,6.7c-8.7-2.2-17.5-4.5-26.2-6.7
		c0,0.4,0.1,0.9,0.1,1.3c8.9,2.3,17.9,4.6,26.8,6.9c2.2,4.3,4.3,8.6,6.5,12.9c-10.6-4.6-21.5-8.7-32.5-12.1c0.1,0.5,0.1,0.9,0.2,1.4
		c11.3,3.6,22.4,7.7,33.3,12.5c2,3.9,4,7.9,5.9,11.8c-12.4-3.4-24.9-6.8-37.3-10.3c0.1,0.5,0.1,0.9,0.2,1.4
		c12.6,3.5,25.2,6.9,37.8,10.4c0.8,1.5,1.5,3,2.3,4.5c0.9,1.8,1.8,3.7,2.8,5.5c-13.7-3.5-27.4-6.9-41.1-10.4
		c0.1,0.5,0.2,0.9,0.3,1.4c13.8,3.5,27.7,7,41.5,10.5c1.4,2.8,2.8,5.6,4.2,8.5c-14.3-2.2-28.6-4.4-42.9-6.7c0.1,0.4,0.2,0.9,0.3,1.3
		l43,6.7c0.1,0,0.2,0,0.2,0c2,4,4,8.1,6.1,12.1c-15.4-2.8-30.9-5.6-46.3-8.5c0.1,0.5,0.3,0.9,0.5,1.4c15.5,2.8,31,5.7,46.6,8.5
		c1.5,3,3,6,4.5,9.1c-15.2-1.1-30.4-2.2-45.6-3.3c0.2,0.4,0.4,0.9,0.6,1.3c15.2,1.1,30.4,2.2,45.6,3.3c1.6,3.2,3.2,6.4,4.8,9.6
		c-14.7,0.5-29.3,0.2-44-0.9c0.3,0.5,0.6,0.9,0.8,1.3c14.6,1.1,29.2,1.3,43.8,0.8c2.6,5.2,5.2,10.4,7.9,15.6
		c-13.1,0.5-26.3,0.4-39.4-0.3c0.4,0.5,0.9,0.9,1.3,1.3c12.8,0.7,25.7,0.8,38.5,0.3c0.1,0,0.1,0,0.2,0c1.1,2.2,2.2,4.4,3.3,6.6
		c-10.4,0.9-20.9,1.7-31.3,2.6c0.5,0.4,1.1,0.8,1.6,1.1c10.1-0.8,20.2-1.7,30.3-2.5c1.1,2.2,2.2,4.3,3.3,6.5
		c0.9-0.4,1.8-0.8,2.7-1.3c-0.3-0.6-0.6-1.2-0.9-1.8c5.7-7,11.5-14,17.2-21.1c0.1-0.8,0.2-1.6,0.3-2.4l-18.1,22.2
		c-1-1.9-1.9-3.9-2.9-5.8c7.1-8.8,14.1-17.7,21.2-26.5c0-0.6-0.1-1.3-0.1-1.9c-7.2,9-14.5,18.1-21.7,27.1c-1.5-3-3-6-4.5-9
		c8.2-9.9,16.4-19.7,24.6-29.6c-0.1-0.5-0.2-1.1-0.3-1.6c-8.3,10-16.6,20-24.9,29.9c-1.3-2.6-2.6-5.3-4-7.9c0-0.1-0.1-0.1-0.1-0.2
		c8.2-10.9,17-21.4,26.3-31.5c-0.2-0.5-0.3-0.9-0.5-1.4c-9.4,10-18.2,20.6-26.4,31.6c-0.2-0.3-0.3-0.7-0.5-1c0-0.1-0.1-0.2-0.1-0.2
		c-1.1-2.2-2.2-4.4-3.3-6.6c7.9-12.4,16.4-24.3,25.4-35.9c-0.2-0.4-0.4-0.9-0.6-1.3C216.9,189.4,208.4,201.4,200.5,213.7"/>
</g>
<rect x="132" y="56.9" class="st42" width="209.3" height="108.6"/>
<path class="st43" d="M236,224.2c-1.1,0.3,0.4,6.2,0.4,6.6c0,0.4-2.7,1.4-3.4,1.3c-0.7,0-5.4-1.3-5.1-1.9c0.3-0.6,0.8-2.2,0.7-4.2
	c-0.6-17.9-3.6-37-4.1-55.2c1.2,0.2,1.9,0.3,3.1,0.7c6.8,16.7,3.8,34.8,20.4,51.4c-4.8,1.9-6.4,1.6-11.4,1.6
	C236.6,224.2,236.4,224,236,224.2L236,224.2z"/>
<path class="st43" d="M238.9,243.3c0.6-2-0.4-4.1-0.9-5.4c-0.2-0.5-0.2-1-0.2-1.5c0-0.2,0-0.4,0-0.5c5,0,6.6,0.4,11.4-1.7
	c2,2.1,3,3.5,5.3,7c0,0.2,0.1,0.4,0.2,0.6c0.6,1.5-13.1,2.3-13.9,2.5C240.2,244.4,239.9,243.9,238.9,243.3L238.9,243.3z"/>
<path class="st43" d="M238.1,173.7c0-0.2-0.1-0.6-0.1-0.6S238.2,174.4,238.1,173.7z"/>
<path class="st43" d="M254.4,254.6c0-1.5-1.5-4-1.5-4s-0.4,0.6-0.2,1.9c-3.3-7.9-9.7-15.4-12.5-23.3c-6.9-18.9-7-38.1-12.5-57
	c-1.3-0.5-1.9-0.7-3.1-0.9c0,0,12.1,0,12.4,0.3c0.5,0.5,0.7,0.5,0.9,1.2c0.1,0.3,0.2,1,0.2,1.6c0,0.2,0,0.5,0.1,0.8
	c0.1,1.1,0,0.2-0.1-0.8c-0.1-1.4,0.2-2.5,0.5-2.9c0.4-0.4,8.3-1.4,8.3-1.4s1.6,0.4,1.9,1.7c0.3,1.3,0.4,1.4,0.3,0
	c-0.1-1.3,0.6-1.4,1.1-1.4c2.8-0.2,4,1.8,4,2.5c0.7,9.5-0.7,19.4-0.6,28.9c0.3,15.4,1.8,31.5,4.2,47.3c1,6.8-1.8,9.3-1.8,9.3
	c-0.4-0.4-0.6-0.6-1.1-1.1C255,257.5,254.5,256.2,254.4,254.6L254.4,254.6z"/>
<path class="st44" d="M254.2,175c0,0.8,0,1.6,0,2.4c0,2.3,0.5,18.7,0.4,21.1c0,1.5-0.1,3,0,4.4c0.6,15.6,2,31.8,4.4,47.8
	c1,6.9,0.6,8.3,0.6,8.3c-0.9-0.1-1.6-0.2-3.2-0.5c0,0-0.2-0.9-0.3-2.5c-0.1-1.6-1.6-4.2-1.6-4.2s-0.5,0.8,0,2.9c0.6,2,1,3.7,0.4,3.8
	c-1.7,0.4-15.8-1.8-16-2c-0.9-0.7-0.5-5.4-1.1-7c-0.2-0.6-0.3-1.3-0.3-1.9c0-0.9,0-1.4-0.7-1.1c-1.1,0.5,0.6,8.6,0.6,9.2
	c0.1,0.6-3.6,0.7-4.3,0.7c-0.7,0-1.9-0.5-1.6-1.3c0.3-0.8,0.7-3,0.4-5.7c-2.4-24.9-3.8-52.1-4.4-77.6c0,0,0.9,0,2.3,0.2
	c0.1,0,0.3,0,0.4,0.1c0.7,0.1,1.5,0.2,2.2,0.3c1,0.1,2.1,0.2,2.9,0.2c0.8,0,1.4-0.1,1.8-0.2c0.3,0,0.5,0,0.5,0.1
	c0.1,0.5,0.7,5,0.9,5.7c0.2,0.7,0.7-0.1,0.5-2c-0.2-1.9,0.1-3.4,0.5-3.9c0.3-0.3,2.7-0.8,5-1.2c1.7-0.3,3-0.4,3-0.4s1.3,0.3,1.5,1.6
	c0.3,1.3,1.1,1.8,1,0.5c-0.1-1.3,0.1-1.3,0.5-1.5c0.3-0.1,0.8,0,1.2,0c0,0,2.2,1,2.2,1.4C254.2,173.2,254.2,175,254.2,175L254.2,175
	z"/>
<path class="st45" d="M249,171.4c0,0,0,0.2,0,0.2s0,0,0,0C249,171.5,249,171.5,249,171.4C249,171.4,249,171.4,249,171.4L249,171.4z"
	/>
<path class="st45" d="M249,171.3L249,171.3C249,171.4,249,171.4,249,171.3L249,171.3L249,171.3z"/>
<path class="st45" d="M243.8,171.1c0-0.1,0-0.1,0.1-0.2C243.8,171,243.9,171.1,243.8,171.1C243.8,171.1,243.8,171.1,243.8,171.1
	L243.8,171.1z"/>
<path class="st45" d="M231.5,171.8C231.5,171.7,231.5,171.7,231.5,171.8C231.5,171.7,231.5,171.7,231.5,171.8L231.5,171.8
	L231.5,171.8z"/>
<g>
	<path class="st43" d="M254.3,252.2c0,0-1.3-7.8-1.3-9c0-7.4-1.9-15.9-3.2-23.8c0-0.3-0.1-0.5-0.2-0.7c-0.2-0.8-0.5-2.3-0.6-4.1
		c-0.3-4.1-0.5-9.8-0.5-11.1c0.2-10.5,0.6-31.6,0.6-31.6s0,0,0,0c0.1,0.4,0.2,1.2,0.3,2.3c0.1,1.8,0,4.5-0.3,7.4
		c-1.1,8.8-0.3,18.3,0.3,27.4c0.1,1.5,0.3,2.8,0.6,3.9c0.1,0.3,0.2,0.9,0.2,1.7c1,10.7,1.9,21.6,4,32.3
		C254.5,248.9,254.3,252.2,254.3,252.2L254.3,252.2z"/>
	<path class="st43" d="M253,171.6L253,171.6C253,171.7,253,171.6,253,171.6L253,171.6z M256.5,241.1c0,0,0.1-2.8-0.2-4.7
		c-1.5-10-2.2-20.2-2.7-30.1c0-0.6-0.1-1.1-0.1-1.4c-0.2-1-0.3-2-0.4-3.2c-0.3-7.6-0.7-15.3,0-22.7c0.2-2,0.2-4,0.2-5.4
		c-0.1-1.1-0.2-2-0.2-2s0,0.1,0,0.1c0.2,8.6-0.1,17.1-0.4,25.5c0,1,0,5.2,0.2,8.5c0.1,1.5,0.2,2.8,0.3,3.5c0,0.2,0,0.4,0.1,0.6
		c0.6,7.7,2.3,15.9,2.5,23.3C255.6,234.5,256.5,241.1,256.5,241.1L256.5,241.1z"/>
	<path class="st43" d="M244.6,250.9c0-0.2,0.5-4.6,0.5-5.8c0-1.3-0.1-13-0.1-14.7c-0.1-6.9,0.1-13.9,0-20.8
		c-0.3-11.9-1.3-36.3-1.3-36.3s1.8,30.4,2.3,45.4c0.2,7,0.8,17.6,0.7,19.8C246.7,240.7,244.7,250.5,244.6,250.9
		C244.7,250.9,244.7,250.9,244.6,250.9C244.7,250.9,244.6,250.9,244.6,250.9L244.6,250.9z"/>
	<path class="st43" d="M230.9,201.8c2.8,9.5,3.9,19,4.2,28.1c0.1,2.7-0.5,14.9-0.4,16.5c0.1,1.5-1,2.8-1,2.8
		c-3-3.8,0.6-13.2,0.8-19.8c0-0.3-0.6-5-0.6-5.3C233.8,216.7,232.6,209.2,230.9,201.8L230.9,201.8z"/>
	<path class="st43" d="M239.2,250.4L239.2,250.4c0,0,0.3-0.5,0.5-0.9c0,0,2-10.2,1.7-12.2c-0.4-2-0.6-8-0.5-9.1c0-0.1,0-0.1,0-0.1
		c0,0.3,1.3,9.4,1.6,10.7c0.3,1.3-0.4,11.6-1.2,11.8C240.9,250.7,239.5,250.5,239.2,250.4L239.2,250.4z"/>
	<path class="st43" d="M232.7,182.7c-0.6-5.1-1.1-9.9-1.2-10.6l0,0c1.7,11.7,3.3,23.4,4.5,35c0.2,1.9,2.1,17.8,2.1,17.8
		s2.6-6.8,2.9-8.7c1.4-11.1-0.8-23.9-0.4-35.5c0.1-1.8,2-9.2,2-9.2s-0.7,5.8-0.9,9.6c-0.8,11.6,2.5,24.7-0.2,36.2
		c-1.6,6.7-3.3,9.4-3.3,9.4c-1.2-7-1.9-14-2.7-20.9C234.5,198.1,233.6,190.4,232.7,182.7L232.7,182.7z"/>
	<path class="st43" d="M238.3,179.4c0.2-1.1,0.4-1.9,0.4-1.9S238.5,178.2,238.3,179.4L238.3,179.4z M234.4,172.6
		c1.4,13.2,3.9,39.4,3.9,39.4c0,0-0.7-20.7-0.2-30.7c0-0.8,0.2-1.9,0.2-1.9l0.2,27.7c0,0-1.7-16.5-2.5-24.7
		C235.8,179.8,234.4,172.6,234.4,172.6C234.4,172.6,234.4,172.6,234.4,172.6L234.4,172.6z"/>
</g>
<g>
	<path class="st1" d="M155,187.6c-6.4-2.7-10.2-3.8-7.7-11.7c2.5-8-3.7-9.4-10.1-12.1c-6.4-2.7-10.5-8.8-10.1-22.3
		c0.4-13.5-8.1-13.1-14.4-16.9c-6.2-3.8-7.5-5-9.1-15c-1.6-9.9-10-10.8-18.8-11.6c-8.8-0.7-26.1-24.7-26.1-24.7s-5.5,10.9,2.1,25.1
		c7.6,14.1-6.2,9.7-3.4,24c2.8,14.3,15.5,13.5,10.4,23.2c-5.1,9.7-6.3,18.6,6.5,30.2c12.8,11.6,0.3,20.7,7.4,30.9
		c7.1,10.2,18.6,2.1,20,12.9c1.5,10.8-0.6,15.9,10.7,17.8c11.4,1.9,7.2,15.3,21.1,20.1c0.5,0.2,1.1,0.3,1.7,0.5
		c16.2,4.4,32.4-6.4,33-22.3c0.1-3.6-0.6-6.8-2.7-8.9c-8.3-8.3-7.1-9.1-0.5-17C171.8,202,161.4,190.3,155,187.6"/>
	<path class="st0" d="M112.6,139.8c-3.8,3.5-7,7.5-9.7,11.9c-3-5.8-6.1-11.5-9.4-17.1c-1.2-2-2.3-3.9-3.5-5.8c0-0.1,0-0.2,0-0.3
		c-0.4-4.7,0.1-9.4,1.4-14c0.3-0.9-1.3-1.4-1.5-0.5c-1.1,3.9-1.7,7.9-1.6,12c-7.7-12.2-15.9-24.2-24.1-36.1c-0.6-0.8-2-0.2-1.4,0.7
		c7.9,11.4,15.8,22.8,23.1,34.5c-4.3-1.3-8.8-2.1-13.3-2.2c-1,0-1.1,1.5-0.1,1.5c4.9,0.1,9.7,1,14.4,2.6c0.1,0,0.1,0,0.2,0
		c0.6,1,1.2,1.9,1.8,2.9c4.6,7.5,9,15.2,13,23c-5.8-0.7-11.7-0.8-17.5-0.6c-1,0.1-1.1,1.6-0.1,1.5c6.2-0.3,12.3-0.1,18.5,0.7
		c2.8,5.5,5.5,11,8.1,16.6c2.8,6.1,5.5,12.2,8.2,18.3c-5.7-1.2-11.4-2-17.2-2.5c-1-0.1-1.1,1.5-0.1,1.5c5.9,0.5,11.8,1.3,17.6,2.6
		c0.1,0,0.3,0,0.4,0c3.3,7.5,6.6,15,10,22.5c0.7,1.4,1.3,2.8,2,4.2c-4.6-0.6-9.2-0.7-13.7-0.3c-1,0.1-0.7,1.6,0.3,1.5
		c4.6-0.4,9.3-0.3,13.9,0.4c0.1,0,0.2,0,0.3,0c5.6,11.7,9,18.8,15.9,29.9c8.3,13.4,0.1-2.7-3.5-9.1c-3.8-6.9-7.4-13.9-10.7-21
		c0,0,0-0.1,0-0.1c3.4-4.3,7.1-8.2,11.2-11.8c0.8-0.7-0.3-1.8-1.1-1.1c-4,3.5-7.6,7.3-10.9,11.3c-4.3-9.2-8.4-18.4-12.5-27.7
		c3.6-4.5,7.2-9,10.9-13.5c0.6-0.8-0.7-1.6-1.4-0.8c-3.4,4.2-6.8,8.4-10.2,12.7c-5.2-11.7-10.5-23.5-16.3-35c2.6-4.6,6-8.8,9.9-12.5
		C114.4,140.3,113.3,139.1,112.6,139.8"/>
	<path class="st0" d="M68.2,118.1c0.7,0.1,1.5,0.1,2.2,0.2c0.7,0.1,1.3-0.2,1.4-0.9c0.1-0.5-0.3-1.3-0.9-1.4
		c-0.7-0.1-1.5-0.1-2.2-0.2c-0.7-0.1-1.3,0.2-1.4,0.9C67.2,117.2,67.6,118,68.2,118.1"/>
	<path class="st0" d="M69.3,111.9c0.5,0.5,1.1,1,1.6,1.6c0.5,0.4,1.3,0.4,1.7-0.1c0.5-0.5,0.4-1.2-0.1-1.6c-0.5-0.5-1.1-1-1.6-1.6
		c-0.5-0.4-1.3-0.4-1.7,0.1C68.7,110.8,68.8,111.5,69.3,111.9"/>
	<path class="st0" d="M65.1,123.7l2.6,0.3c0.7,0.1,1.3-0.2,1.4-0.9c0.1-0.6-0.3-1.3-0.9-1.4l-2.6-0.3c-0.7-0.1-1.3,0.2-1.4,0.9
		C64,122.9,64.5,123.7,65.1,123.7"/>
	<path class="st0" d="M83.2,108.9c0.3,0.6,0.6,1.1,0.9,1.7c0.3,0.5,1.2,0.7,1.7,0.3c0.6-0.4,0.6-1,0.3-1.6c-0.3-0.6-0.6-1.1-0.9-1.7
		c-0.3-0.5-1.2-0.7-1.7-0.3C83,107.7,82.9,108.3,83.2,108.9"/>
	<path class="st0" d="M91.3,107.6c0,0.2,0,0.3,0,0.5c0,0.1,0,0.2,0,0.2c0-0.1,0-0.1,0,0c0,0.1,0,0.3-0.1,0.4c0,0-0.1,0.4-0.1,0.3
		c-0.2,0.6-0.1,1.3,0.5,1.6c0.5,0.2,1.4,0.1,1.6-0.5c0.3-0.8,0.5-1.7,0.4-2.6c-0.1-0.6-0.6-1.2-1.3-1.1
		C91.8,106.5,91.2,107,91.3,107.6"/>
	<path class="st0" d="M96.3,112.4c-0.6,0.5-1.2,1-1.8,1.6c-0.5,0.4-0.3,1.2,0.1,1.6c0.5,0.5,1.2,0.3,1.7-0.1c0.6-0.5,1.2-1,1.8-1.6
		c0.5-0.4,0.3-1.2-0.1-1.6C97.5,111.9,96.8,112,96.3,112.4"/>
	<path class="st0" d="M78.7,161.2c0.6-0.6,1.1-1.1,1.7-1.7c0.4-0.4,0.4-1.2-0.1-1.6c-0.5-0.4-1.3-0.4-1.7,0.1l-1.7,1.7
		c-0.5,0.4-0.4,1.2,0.1,1.6C77.5,161.7,78.3,161.6,78.7,161.2"/>
	<path class="st0" d="M75.5,154.3c0.9,0,1.7,0,2.6,0c1.6,0,1.4-2.3-0.1-2.3c-0.9,0-1.7,0-2.6,0C73.8,152,73.9,154.3,75.5,154.3"/>
	<path class="st0" d="M77.9,146.7c0.4,0.7,1.1,1.2,1.8,1.6c0.6,0.3,1.4,0.1,1.6-0.5c0.3-0.6,0.1-1.2-0.5-1.6c0,0-0.4-0.2-0.2-0.1
		c-0.1-0.1-0.2-0.2-0.3-0.3c-0.1,0-0.1-0.1-0.1-0.1c0.1,0.1,0.1,0.1,0,0c-0.1-0.1-0.2-0.2-0.2-0.3c-0.3-0.5-1.2-0.7-1.7-0.3
		C77.7,145.5,77.6,146.1,77.9,146.7"/>
	<path class="st0" d="M84.1,144.4c0.3,0.5,0.5,0.9,0.8,1.4c0.3,0.5,1.2,0.7,1.7,0.3c0.6-0.4,0.7-1,0.3-1.6c-0.3-0.5-0.5-0.9-0.8-1.4
		c-0.3-0.5-1.2-0.7-1.7-0.3C83.9,143.2,83.8,143.8,84.1,144.4"/>
	<path class="st0" d="M107,138c0.4,0.4,0.8,0.7,1.2,1.1c0.4,0.4,1.3,0.4,1.7-0.1c0.4-0.5,0.4-1.2-0.1-1.6c-0.4-0.4-0.8-0.7-1.2-1.1
		c-0.5-0.4-1.3-0.4-1.7,0.1C106.4,136.9,106.5,137.5,107,138"/>
	<path class="st0" d="M114.2,133.9c-0.2,0.6-0.4,1.3-0.6,1.9c-0.2,0.6,0.3,1.3,0.9,1.4c0.7,0.1,1.3-0.2,1.4-0.9
		c0.2-0.6,0.4-1.3,0.6-1.9c0.2-0.6-0.3-1.3-0.9-1.4C114.9,132.9,114.3,133.3,114.2,133.9"/>
	<path class="st0" d="M120.2,138.8c-0.8,0.2-1.6,0.4-2.4,0.6c-0.6,0.2-1,0.9-0.8,1.4c0.2,0.6,0.9,0.9,1.5,0.8
		c0.8-0.2,1.6-0.4,2.4-0.6c0.6-0.2,1-0.9,0.8-1.4C121.5,138.9,120.9,138.6,120.2,138.8"/>
	<path class="st0" d="M116.9,146.5c0.9,0.1,1.7,0.2,2.6,0.3c0.7,0.1,1.3-0.2,1.4-0.9c0.1-0.6-0.3-1.3-0.9-1.4l-2.6-0.3
		c-0.7-0.1-1.3,0.2-1.4,0.9C115.8,145.7,116.2,146.4,116.9,146.5"/>
	<path class="st0" d="M100.6,193.9c-0.6,0.6-1.2,1.2-1.9,1.7c-0.5,0.4-0.4,1.2,0.1,1.6c0.5,0.4,1.2,0.4,1.7-0.1
		c0.6-0.6,1.2-1.2,1.9-1.7c0.5-0.4,0.4-1.2-0.1-1.6C101.8,193.4,101,193.5,100.6,193.9"/>
	<path class="st0" d="M93.1,190.6c-1.2,0.7-2.4,1.3-3.6,2c-1.3,0.7,0,2.7,1.4,1.9c1.2-0.7,2.4-1.3,3.6-2
		C95.8,191.8,94.4,189.9,93.1,190.6"/>
	<path class="st0" d="M90.4,186.2c1.2,0.2,2.3,0.4,3.5,0.5c1.5,0.2,2-2,0.5-2.2c-1.2-0.2-2.3-0.4-3.5-0.5
		C89.4,183.7,88.9,185.9,90.4,186.2"/>
	<path class="st0" d="M95.1,178.8l1.4,1.2c0.5,0.4,1.3,0.4,1.7-0.1c0.4-0.5,0.4-1.2-0.1-1.6c-0.4-0.4-0.9-0.8-1.4-1.2
		c-0.5-0.4-1.3-0.4-1.7,0.1C94.6,177.6,94.6,178.3,95.1,178.8"/>
	<path class="st0" d="M103.7,178.7c0.3,0.8,0.6,1.7,0.9,2.5c0.5,1.4,2.8,0.7,2.3-0.7c-0.3-0.8-0.6-1.7-0.9-2.5
		C105.5,176.6,103.2,177.3,103.7,178.7"/>
	<path class="st0" d="M122,175c0.5,0.6,0.9,1.2,1.4,1.8c0.4,0.5,1.1,0.7,1.7,0.3c0.5-0.3,0.7-1.1,0.3-1.6c-0.5-0.6-0.9-1.2-1.4-1.8
		c-0.4-0.5-1.1-0.7-1.7-0.3C121.9,173.7,121.7,174.5,122,175"/>
	<path class="st0" d="M126.6,165.9c0.4,1.2,0.8,2.3,1.2,3.5c0.5,1.4,2.8,0.7,2.3-0.7c-0.4-1.2-0.8-2.3-1.2-3.5
		C128.4,163.8,126.1,164.5,126.6,165.9"/>
	<path class="st0" d="M136,169.9c-0.9,0.9-1.9,1.7-2.8,2.6c-1.1,1,0.7,2.6,1.8,1.5c0.9-0.9,1.9-1.7,2.8-2.6
		C138.9,170.4,137.1,168.9,136,169.9"/>
	<path class="st0" d="M140.8,177.4c-1.1,0.3-2.2,0.7-3.4,1c-1.5,0.4-0.7,2.6,0.8,2.2c1.1-0.3,2.2-0.7,3.4-1
		C143.1,179.2,142.3,177,140.8,177.4"/>
	<path class="st0" d="M139.6,184.4c-1.8,0-3.5,0.2-5.2,0.6c-1.5,0.4-0.7,2.6,0.8,2.2c1.5-0.4,3-0.5,4.6-0.5
		C141.3,186.8,141.1,184.5,139.6,184.4"/>
	<path class="st0" d="M118.8,225.5c-0.6,1-1.1,2.1-1.7,3.1c-0.7,1.3,1.5,2.4,2.2,1.1c0.6-1,1.1-2.1,1.7-3.1
		C121.7,225.2,119.5,224.2,118.8,225.5"/>
	<path class="st0" d="M112.6,226.3c0.9-0.5,1.8-1,2.7-1.5c0.6-0.3,0.7-1.1,0.3-1.6c-0.4-0.6-1.1-0.6-1.7-0.3c-0.9,0.5-1.8,1-2.7,1.5
		c-0.6,0.3-0.7,1.1-0.3,1.6C111.3,226.5,112,226.6,112.6,226.3"/>
	<path class="st0" d="M106.8,219.7c0.9-0.3,1.9-0.6,2.8-0.8c1.5-0.4-2.1-1.8-3.6-1.4c-0.9,0.3,0.9-0.3,0,0
		C104.6,218,105.4,220.2,106.8,219.7"/>
	<path class="st0" d="M111.5,211c0.8,0.4,1.5,0.8,2.3,1.2c0.6,0.3,1.4,0.1,1.6-0.5c0.3-0.6,0.1-1.2-0.5-1.6
		c-0.8-0.4-1.5-0.8-2.3-1.2c-0.6-0.3-1.4-0.1-1.6,0.5C110.7,210.1,111,210.7,111.5,211"/>
	<path class="st0" d="M119.2,211c0.4,0.6,0.7,1.2,1.1,1.9c0.3,0.5,1.2,0.7,1.7,0.3c0.6-0.4,0.7-1,0.3-1.6c-0.4-0.6-0.7-1.2-1.1-1.9
		c-0.3-0.5-1.2-0.7-1.7-0.3C119,209.8,118.9,210.5,119.2,211"/>
	<path class="st0" d="M134.9,204.9c0.1,0.9,0.1,1.8,0.2,2.7c0.1,1.5,2.5,1.4,2.4-0.1c-0.1-0.9-0.1-1.8-0.2-2.7
		C137.2,203.4,134.8,203.5,134.9,204.9"/>
	<path class="st0" d="M140.3,200.2c0.2,0.9,0.2,1.9,0,2.8c-0.2,1.5,2.1,2,2.4,0.5c0.2-1.1,0.2-2.3,0-3.4c-0.1-0.6-0.6-1.1-1.3-1.1
		C140.8,199.1,140.2,199.6,140.3,200.2"/>
	<path class="st0" d="M149,198.9c-0.7,1.1-1.5,2-2.5,2.9c-0.5,0.4-0.3,1.2,0.1,1.6c0.5,0.5,1.2,0.3,1.7-0.1c1.1-1,2.1-2.1,2.8-3.3
		C151.9,198.7,149.8,197.6,149,198.9"/>
	<path class="st0" d="M153.7,204.3c-1.2,0.6-2.5,1.1-3.7,1.7c-0.6,0.3-0.7,1.1-0.3,1.6c0.4,0.6,1.1,0.6,1.7,0.3
		c1.2-0.6,2.5-1.1,3.7-1.7c0.6-0.3,0.7-1.1,0.3-1.6C155,204.1,154.3,204.1,153.7,204.3"/>
	<path class="st0" d="M151.3,211.8c-2.5,0.2-5,0.3-7.5,0.5c-1.6,0.1-1.4,2.4,0.1,2.3c2.5-0.2,5-0.3,7.5-0.5
		C153,214,152.9,211.7,151.3,211.8"/>
	<path class="st0" d="M144.2,217.7c-1,0.3-2,0.6-3.1,0.9c-1.5,0.4-0.7,2.6,0.8,2.2c1-0.3,2-0.6,3.1-0.9
		C146.5,219.5,145.7,217.3,144.2,217.7"/>
</g>
<path class="st2" d="M85.2,262c0,0,3-31.4,10.3-31.7c7.3-0.3,13.1,5,13.1,5s2.6-18.2,12.9-18.8s11.9,15,11.9,15s1.6-24.5,13-24.8
	c11.4-0.3,14.3,13,14.3,13c1.9-14.7,19.4-13.6,24.6-1.8c5.3,12.1,6,20.6,6,20.6s1.9-15.6,11.1-16.8c9.2-1.2,11.6,18.9,11.6,18.9
	s5.8-21.5,27.8-21.5c9.3,0,15.6,13.2,15.8,20c0.3,6.8,5.1,16.5,18.1,5.6c13-10.9,24.3,17.3,24.3,17.3L85.2,262z"/>
<path class="st43" d="M136.7,179.6c-1.8,1.1-27.9,1.1-29.6,1.2c-1.7,0.1-6.8,2.9-6.9,3.5c0,0.7,4.5,4.8,7.2,4.3
	c2.7-0.4,9.9-1.2,18.8-1.6c80.2-3.6,165.4-5.4,247.4-9.2c-0.6-1.1-1.1-1.7-2.3-2.8c-73.3-2.5-155.6,4.7-226-7.1
	c-9.9,5-8.7,6.4-10.1,11.2C136.7,179,137.4,179.1,136.7,179.6L136.7,179.6z"/>
<path class="st43" d="M105.1,179.5c8.2-1,16.8-0.5,21.8-0.3c2,0.1,4.2,0,6.1-0.1c0.9,0,1.6-0.1,2.2-0.1c1.4-4.7,0.3-6.2,10.1-11.2
	c-8.2-1.4-13.5-2.1-27.4-3.5c-0.8,0-1.6,0-2.5,0c-6-0.2-12.8,12.9-13.7,13.7C101.1,178.6,103,178.8,105.1,179.5L105.1,179.5z"/>
<path class="st43" d="M364.3,165.6c0.8,0,2.5-0.1,2.5-0.1S360.8,165.7,364.3,165.6z"/>
<path class="st43" d="M111.6,163.2c5-0.2,12.6,0.8,12.6,0.8s-2,0.5-6.3,0.5c24.7,1.8,47.5,6.6,72.3,8c59.6,3.4,121.2,0.4,181.2,2.5
	c1.3,1.1,1.8,1.7,2.3,2.8c0,0,2.7-11.4,1.9-11.6c-1.5-0.4-1.5-0.6-3.6-0.7c-0.8,0-3.1,0-5.2,0c-0.8,0-1.6,0.1-2.5,0.1
	c-3.5,0.1-0.6,0,2.5-0.1c4.6-0.1,8.3-0.6,9.6-1c1.5-0.4,6.3-8.1,6.3-8.1s-0.8-1.5-5-1.5c-4.2,0-4.4-0.1-0.1-0.2
	c4.3-0.1,4.7-0.8,4.9-1.3c1.1-2.7-4.8-3.5-7.3-3.4c-30.6,0.9-62.9,3.8-93.5,5.2c-49.6,2.3-101.3,3.4-151.7,3.7
	c-21.7,0.1-30.6,3.2-30.6,3.2c1.3,0.3,1.9,0.5,3.2,0.8C102.6,163.1,106.7,163.4,111.6,163.2L111.6,163.2z"/>
<path class="st44" d="M367.8,150.4c-2.5,0.1-5.1,0.3-7.6,0.4c-7.3,0.4-60.2,2.7-67.8,3.1c-4.8,0.3-9.6,0.6-14.3,0.8
	c-50.1,2-102,3.4-152.8,3.9c-21.9,0.2-26.7,0.8-26.7,0.8c0.1,0.9,0.3,1.5,0.7,2.9c0,0,2.7,0,7.9-0.2c5.2-0.2,13.3,0.8,13.3,0.8
	s-2.8,0.6-9.2,0.4c-6.4-0.2-11.6-0.3-12.2,0.3c-1.8,1.7,1.8,14.6,2.4,14.8c2,0.7,17.2-0.5,22.1-0.1c1.9,0.1,4.2,0,5.9,0
	c2.8-0.1,4.6-0.2,3.4,0.5c-1.9,1.1-27.7,0.9-29.5,0.9c-1.8,0-3.2,3.5-3.3,4.2c0,0.7,1.1,1.7,3.8,1.3c2.7-0.4,10-1.2,18.4-1.4
	c79.7-1.9,167-5.2,249-8.9c0,0,0.1-0.9,0-2.1c0-0.1,0-0.3-0.1-0.4c-0.1-0.6-0.2-1.3-0.3-2.1c-0.1-1-0.1-1.9,0.2-2.7
	c0.3-0.8,0.8-1.3,1-1.7c0.1-0.3,0.1-0.5-0.1-0.5c-1.5,0-15.8,0.2-18.1,0.1c-2.4-0.1,0.4-0.7,6.4-0.8c6-0.1,11-0.7,12.6-1.2
	c0.9-0.3,3.3-2.7,5-4.9c1.3-1.7,1.9-2.9,1.9-2.9s-0.6-1.1-4.9-1.2c-4.3,0-5.6-0.8-1.3-0.9c4.3-0.1,4.3-0.4,4.9-0.8
	c0.5-0.3,0.3-0.8,0.2-1.1c0,0-2.7-1.9-4-1.8C373.6,150.1,367.8,150.4,367.8,150.4L367.8,150.4z"/>
<path class="st45" d="M377.5,154.7c-0.1,0-0.7,0-0.7,0s0.1,0,0.1,0c0.1,0,0.1,0,0.2,0C377.2,154.7,377.3,154.7,377.5,154.7
	L377.5,154.7z"/>
<path class="st45" d="M377.6,154.7L377.6,154.7C377.5,154.7,377.5,154.7,377.6,154.7L377.6,154.7L377.6,154.7z"/>
<path class="st45" d="M377.2,159.7c0.3,0,0.5-0.1,0.8-0.1C377.9,159.6,377.4,159.5,377.2,159.7C377.2,159.6,377.2,159.6,377.2,159.7
	L377.2,159.7z"/>
<path class="st45" d="M371.1,171.4c0.2,0,0.3,0,0.3,0S371.3,171.4,371.1,171.4L371.1,171.4L371.1,171.4z"/>
<g>
	<path class="st43" d="M99.3,164.5c0,0,26.7-0.2,31-0.4c25.7-1.4,54.6-1.1,81.7-1.3c1,0,1.8,0,2.4,0c2.8,0.1,7.9,0,14.2-0.2
		c14-0.4,33.8-1.3,38.5-1.6c36.5-2.1,109.7-6.3,109.7-6.3s-0.1,0-0.1,0c-1.2,0-4.1,0-7.9,0.2c-6.3,0.2-15.6,0.8-25.8,1.7
		c-30.9,2.7-63.4,3.6-95,4.8c-5.2,0.2-9.8,0.3-13.4,0.2c-1.2,0-3.1,0-5.7,0.1c-36.7,1-74.4,2.2-110.8,2.1
		C110.7,163.7,99.3,164.5,99.3,164.5L99.3,164.5z"/>
	<path class="st43" d="M378.2,151C378.2,151,378.1,151,378.2,151L378.2,151L378.2,151z M138.3,160.4c0,0,22.5-0.3,26.8-0.6
		c25.7-1.2,53.4-1.1,80.1-1.9c0.9,0,1.6,0,2.1-0.1c2.6,0,7-0.2,12.1-0.4c11.3-0.4,26.1-1.2,29.5-1.4c29.5-1.8,59.1-3.7,88.7-5.1
		c0.1,0,0.3,0,0.3,0s-3,0.1-6.7,0.2c-4.8,0.2-11.8,0.6-18.8,1.1c-25.5,2-52.4,3-78.5,4.1c-4,0.2-7.8,0.3-11,0.3
		c-1.1,0-2.7,0-4.8,0.1c-34.3,1.4-69.5,2.5-103.7,3C148.1,159.9,138.3,160.4,138.3,160.4L138.3,160.4z"/>
	<path class="st43" d="M101.3,173.4c0.9,0,16.1-1.3,20.2-1.6c4.4-0.2,45-2.3,50.9-2.6c23.9-1.2,48.2-2.7,72-3.8
		c41.4-1.9,125.5-5.4,125.5-5.4s-104.9,3.8-156.9,6.1c-24.2,1.1-60.9,2.5-68.3,2.9C137.2,169.6,102.6,173.2,101.3,173.4
		C101.3,173.4,101.3,173.4,101.3,173.4C101.3,173.4,101.3,173.4,101.3,173.4L101.3,173.4z"/>
	<path class="st43" d="M268,177.4c-32.1-0.9-64.8-0.2-96.5,1.1c-9.4,0.4-51.9,3.2-57.2,3.4c-5.3,0.2-10,1.4-9.8,1.5
		c12.2,2.2,46-3,68.9-4.4c0.9-0.1,17.1-0.3,18.2-0.4C217,177.4,242.5,177.1,268,177.4L268,177.4z"/>
	<path class="st43" d="M101.5,178.5L101.5,178.5c0,0,1.8-0.4,3.3-0.7c0,0,35.7-3.8,42.6-3.8c6.9,0,27.7-0.9,31.5-1.2
		c0.3,0,0.3,0,0.3,0c-1,0-32.3,0.5-36.6,0.4c-4.4-0.1-40.3,2.5-41.3,3.3C100.9,176.9,101.3,178.2,101.5,178.5L101.5,178.5z"/>
	<path class="st43" d="M334.6,172.2c17.4-0.4,34.2-0.8,36.5-0.8l0,0c-40.1,0.5-80.3,1.2-120.4,2.2c-6.4,0.2-61.3,1.3-61.3,1.3
		s24.4-3.7,31.1-4.3c38.9-3.4,82.9-3.7,123.1-6.2c6.3-0.4,32.4-3.6,32.4-3.6s-20.2,1.7-33.4,2.6c-40.6,2.9-85.1,2.1-125.6,6.8
		c-23.7,2.7-33.6,4.8-33.6,4.8c23.9-0.1,47.9-0.8,71.8-1.3C281.6,173.3,308.1,172.7,334.6,172.2L334.6,172.2z"/>
	<path class="st43" d="M347.4,166.3c4.4-0.4,6.6-0.7,6.6-0.7S351.3,165.9,347.4,166.3L347.4,166.3z M370,168.8
		C370,168.8,370,168.8,370,168.8c0,0-24.5,0-33.6,0.3c-28.3,0.8-85.1,2.2-85.1,2.2l96.1-4.9c0,0-4.1,0.4-6.7,0.6
		c-34.7,2.3-106.4,5.4-106.4,5.4C234.2,172.3,324.7,169.8,370,168.8L370,168.8z"/>
</g>
<path class="st43" d="M113.1,56.6c-1.4-1-1.1-16.1-1.2-17.1c0-1-3.5-3.9-4.3-3.9c-0.8,0-5.9,2.7-5.4,4.2c0.5,1.5,1.4,5.7,1.9,10.9
	c3.8,46.3,5.3,95.4,9.3,142.7c1.4-0.3,2.1-0.6,3.5-1.4c3.7-42.3-4.5-89.8,10.6-130.5c-6-5.6-7.9-5-13.7-5.7
	C113.8,56.6,113.7,57,113.1,56.6L113.1,56.6z"/>
<path class="st43" d="M113.5,38.3c1.1,4.7,0.5,9.7,0.2,12.6c-0.1,1.2,0,2.4,0.1,3.5c0,0.5,0.1,0.9,0.1,1.3c5.8,0.8,7.6,0.1,13.7,5.7
	c1.8-4.7,2.7-7.8,4.5-15.9c0-0.4,0-0.9,0.1-1.5c0.3-3.5-15.8-7.3-16.7-7.8C114.7,36,114.4,37.1,113.5,38.3L113.5,38.3z"/>
<path class="st43" d="M129.6,195.8c0,0.5,0.1,1.6,0.1,1.6S129.6,193.6,129.6,195.8z"/>
<path class="st43" d="M133.6,42c0.2,2.9-1.1,7.3-1.1,7.3s-0.6-1.2-0.6-3.6c-2.4,14.3-8.6,27.4-10.5,41.8
	c-4.7,34.4-1.5,69.9-4.6,104.6c-1.4,0.7-2.1,1-3.5,1.4c0,0,14.1,1.5,14.3,1c0.5-0.9,0.7-0.9,0.8-2.1c0-0.5,0.1-1.8,0-3
	c0-0.5-0.1-0.9-0.1-1.4c-0.1-2,0-0.4,0.1,1.4c0.1,2.6,0.6,4.8,1.1,5.5c0.5,0.9,9.9,3.6,9.9,3.6s1.8-0.5,1.9-2.9
	c0.1-2.4,0.2-2.5,0.3,0c0.1,2.5,0.9,2.7,1.5,2.8c3.3,0.6,4.3-2.8,4.2-4.2c-0.8-17.6-4.2-36.2-5.7-53.9c-2.4-28.6-3.3-58.4-3.3-87.5
	c0-12.5-3.7-17.6-3.7-17.6c-0.4,0.7-0.6,1.1-1,1.9C133.8,36.7,133.4,39.1,133.6,42L133.6,42z"/>
<path class="st44" d="M147.1,189.7c-0.2-1.4-0.3-2.9-0.4-4.4c-0.4-4.2-2.8-34.7-3.3-39.1c-0.3-2.8-0.6-5.6-0.8-8.3
	c-2.1-28.9-3.4-58.8-3.5-88.1c-0.1-12.6-0.8-15.4-0.8-15.4c-1.1,0.1-1.8,0.2-3.6,0.4c0,0-0.1,1.6,0.1,4.5c0.2,3-1.1,7.7-1.1,7.7
	s-0.8-1.6-0.5-5.3c0.3-3.7,0.4-6.7-0.2-7c-2-1-18,1.1-18.3,1.5c-0.9,1.2,0.4,9.9,0,12.8c-0.2,1.1-0.1,2.4,0,3.4
	c0.1,1.6,0.2,2.7-0.6,2c-1.4-1.1-0.9-16-0.9-17c0-1-4.3-1.8-5.1-1.8c-0.8,0-2.2,0.7-1.6,2.2c0.5,1.6,1.4,5.7,1.5,10.6
	c1.7,46,5,96.3,8.8,143.6c0,0,1.1,0,2.6,0c0.2,0,0.3,0,0.5,0c0.8-0.1,1.7-0.1,2.5-0.2c1.2-0.1,2.4,0,3.4,0.1
	c0.9,0.2,1.6,0.5,2.1,0.5c0.4,0.1,0.6,0.1,0.6,0c0-0.8-0.1-9.1,0-10.5c0.1-1.4,0.8,0.2,1,3.7c0.1,3.5,0.7,6.3,1.3,7.2
	c0.3,0.5,3.3,1.9,6,2.8c2,0.7,3.6,1.1,3.6,1.1s1.4-0.4,1.5-2.8c0.1-2.5,1-3.2,1.1-0.7c0.1,2.5,0.4,2.5,0.9,2.8
	c0.4,0.3,0.9,0.2,1.3,0.1c0,0,2.3-1.6,2.3-2.3C147.4,193,147.1,189.7,147.1,189.7L147.1,189.7z"/>
<path class="st45" d="M142.9,204c0-0.1,0-0.5,0-0.5s0,0,0,0.1c0,0,0,0.1,0,0.1C142.9,203.8,142.9,203.9,142.9,204L142.9,204z"/>
<path class="st45" d="M142.9,204L142.9,204C142.9,204,142.9,204,142.9,204L142.9,204L142.9,204z"/>
<path class="st45" d="M136.9,203.8c0,0.2,0.1,0.3,0.1,0.5C137,204.3,137,204,136.9,203.8C136.9,203.9,136.9,203.9,136.9,203.8
	L136.9,203.8z"/>
<path class="st45" d="M122.5,200.1c0,0.1,0,0.2,0,0.2S122.5,200.2,122.5,200.1L122.5,200.1L122.5,200.1z"/>
<path class="st43" d="M132,34.8c0,0,0,15.4,0.2,17.9c1.5,14.8,0.9,31.5,0.9,47.1c0,0.6,0,1.1,0,1.4c-0.1,1.6-0.1,4.6,0.1,8.2
	c0.4,8.1,1.3,19.5,1.6,22.2c2.3,21.1,6.9,63.3,6.9,63.3s0,0,0-0.1c0-0.7,0-2.4-0.1-4.6c-0.2-3.6-0.8-9-1.8-14.9
	c-3-17.8-3.9-36.6-5.1-54.8c-0.2-3-0.2-5.6-0.1-7.7c0-0.7,0-1.8-0.1-3.3c-1-21.2-2.1-42.9-1.7-63.9C132.9,41.4,132,34.8,132,34.8
	L132,34.8z"/>
<path class="st43" d="M146.3,195.7C146.3,195.7,146.3,195.6,146.3,195.7L146.3,195.7L146.3,195.7z M136.7,57.4c0,0,0.2,13,0.5,15.5
	c1.3,14.8,0.9,30.8,1.7,46.2c0,0.5,0,0.9,0,1.2c0,1.5,0.1,4.1,0.3,7c0.4,6.5,1.3,15.1,1.5,17c2,17,4,34.1,5.5,51.1
	c0,0.1,0,0.2,0,0.2s0-1.7-0.2-3.9c-0.2-2.8-0.6-6.8-1.2-10.8c-2.2-14.7-3.3-30.2-4.4-45.3c-0.2-2.3-0.3-4.5-0.2-6.4
	c0-0.6,0-1.6-0.1-2.8c-1.4-19.8-2.5-40.1-2.8-59.8C137.4,63,136.7,57.4,136.7,57.4L136.7,57.4z"/>
<path class="st43" d="M121.1,36.1c0,0.5,1.5,9.3,1.8,11.6c0.3,2.5,2.4,25.9,2.7,29.3c1.2,13.8,2.9,27.8,4.1,41.5
	c2,23.9,5.6,72.4,5.6,72.4s-3.8-60.5-6.2-90.5c-1.1-14-2.5-35.1-3-39.4C125.5,56.8,121.2,36.9,121.1,36.1
	C121.1,36.1,121.1,36.1,121.1,36.1C121.1,36.1,121.1,36.1,121.1,36.1L121.1,36.1z"/>
<path class="st43" d="M114.7,132.3c1.4-18.5,0.8-37.4-0.6-55.7c-0.4-5.4-3.5-29.9-3.7-33c-0.2-3.1-1.7-5.8-1.7-5.7
	c-2.8,7.1,3.3,26.5,4.8,39.7c0.1,0.5,0.3,9.9,0.3,10.5C115.1,102.9,115.3,117.6,114.7,132.3L114.7,132.3z"/>
<path class="st43" d="M114.8,36.2L114.8,36.2c0,0,0.4,1.1,0.8,1.9c0,0,4.4,20.6,4.3,24.5c0,4,0.9,16,1.2,18.2c0,0.2,0,0.2,0,0.2
	c0-0.5-0.4-18.7-0.2-21.1c0.1-2.5-2.7-23.2-3.7-23.8C116.8,35.9,115.2,36.2,114.8,36.2L114.8,36.2z"/>
<path class="st43" d="M120.5,170.7c0.3,10.1,0.6,19.7,0.7,21l0,0c-0.3-23.1-0.8-46.3-1.7-69.4c-0.1-3.7-1.1-35.3-1.1-35.3
	s4.4,14,5,17.9c3.9,22.4,3.8,47.8,6.6,71c0.4,3.6,4.1,18.7,4.1,18.7s-1.9-11.7-3-19.2c-3.2-23.4-1.9-49.1-7.3-72.4
	c-3.1-13.7-5.7-19.3-5.7-19.3c-0.1,13.8,0.5,27.7,1,41.4C119.7,140.1,120.1,155.4,120.5,170.7L120.5,170.7z"/>
<path class="st43" d="M127.7,178c0.5,2.6,0.9,3.8,0.9,3.8S128.2,180.3,127.7,178L127.7,178z M124.5,191.1
	C124.5,191.1,124.5,191.1,124.5,191.1c0,0,0.2-14.2,0-19.4c-0.7-16.3-2-49.1-2-49.1l5.2,55.4c0,0-0.4-2.4-0.6-3.9
	c-2.5-20-5.8-61.4-5.8-61.4C121.3,112.8,123.6,165,124.5,191.1L124.5,191.1z"/>
<path class="st43" d="M333.4,168.3c-1.5,0.9-2,15.1-2.1,16.1c-0.1,0.9-3.7,3.5-4.5,3.5c-0.8,0-5.8-2.8-5.2-4.2
	c0.6-1.4,1.8-5.3,2.5-10.2c6.4-43.5,10.5-89.8,17.1-134.2c1.4,0.4,2,0.7,3.4,1.4c1.3,40.1-9.5,84.5,3.4,123.6
	c-6.3,5.1-8.1,4.3-14,4.8C334.1,168.3,334,167.9,333.4,168.3L333.4,168.3z"/>
<path class="st43" d="M332.7,185.5c1.4-4.4,1.1-9.1,0.9-11.9c-0.1-1.1,0.1-2.3,0.3-3.3c0.1-0.5,0.1-0.9,0.2-1.2
	c5.8-0.5,7.6,0.3,14-4.8c1.5,4.6,2.3,7.5,3.6,15.2c0,0.4,0,0.9,0,1.4c0.1,3.3-16.2,6.1-17.1,6.6
	C333.8,187.8,333.6,186.7,332.7,185.5L332.7,185.5z"/>
<path class="st43" d="M355.9,45.1c0-0.5,0.2-1.3,0.2-1.3S355.7,47,355.9,45.1z"/>
<path class="st43" d="M353,183c0.4-2.7-0.7-6.9-0.7-6.9s-0.6,1.1-0.8,3.4c-1.6-13.6-7-26.3-8.2-39.9c-2.7-32.7,2.3-66.1,1.2-98.9
	c-1.3-0.8-2-1.1-3.4-1.4c0,0,14.1-0.7,14.3-0.3c0.5,0.9,0.7,0.9,0.7,2c0,0.4,0,1.7-0.2,2.8c0,0.4-0.1,0.9-0.2,1.3
	c-0.2,1.9,0,0.4,0.2-1.3c0.3-2.5,0.9-4.5,1.4-5.1c0.6-0.8,10.1-2.9,10.1-2.9s1.8,0.5,1.7,2.8c0,2.3,0,2.4,0.3,0.1
	c0.3-2.3,1.1-2.5,1.7-2.6c3.3-0.4,4.2,2.8,4,4.2c-1.8,16.6-6.2,34-8.6,50.6c-3.9,26.9-6.6,55-8.2,82.4c-0.7,11.8-4.6,16.4-4.6,16.4
	c-0.4-0.7-0.5-1.1-0.9-1.8C352.9,187.9,352.6,185.7,353,183L353,183z"/>
<path class="st44" d="M374.7,44.2c-0.2,1.4-0.4,2.8-0.7,4.1c-0.7,4-4.7,32.6-5.4,36.7c-0.5,2.6-0.9,5.2-1.3,7.8
	c-3.7,27.2-6.6,55.3-8.4,83c-0.8,11.9-1.6,14.5-1.6,14.5c-1.1-0.1-1.8-0.3-3.6-0.6c0,0,0-1.5,0.4-4.3c0.4-2.8-0.6-7.3-0.6-7.3
	s-0.9,1.5-0.8,5c0.1,3.5,0.1,6.3-0.6,6.6c-2.1,0.9-17.9-1.9-18.2-2.2c-0.9-1.1,1-9.3,0.7-12.1c-0.1-1.1,0.1-2.3,0.2-3.2
	c0.2-1.5,0.4-2.5-0.5-1.9c-1.5,1-1.8,15-1.9,16c-0.1,1-4.4,1.5-5.2,1.5c-0.8,0-2.1-0.7-1.5-2.2c0.6-1.4,1.7-5.4,2.1-9.9
	c4.2-43.3,10.3-90.7,16.8-135.1c0,0,1.1,0,2.6,0.2c0.2,0,0.3,0,0.5,0.1c0.8,0.1,1.7,0.2,2.5,0.3c1.2,0.1,2.4,0.2,3.4,0
	c0.9-0.1,1.7-0.4,2.2-0.4c0.4,0,0.6,0,0.6,0.1c-0.1,0.8-0.6,8.6-0.6,9.9c0,1.3,0.9-0.2,1.2-3.4c0.3-3.3,1.1-5.9,1.7-6.8
	c0.4-0.5,3.4-1.6,6.1-2.4c2.1-0.6,3.6-0.9,3.6-0.9s1.4,0.4,1.3,2.7c-0.1,2.3,0.8,3.1,1.1,0.7c0.3-2.3,0.5-2.3,1-2.6
	c0.4-0.2,0.9-0.1,1.3-0.1c0,0,2.2,1.6,2.1,2.3C375.2,41.1,374.7,44.2,374.7,44.2L374.7,44.2z"/>
<path class="st45" d="M369.6,38.7c0,0.1,0,0.4,0,0.4s0,0,0-0.1c0,0,0-0.1,0-0.1C369.6,38.8,369.6,38.7,369.6,38.7L369.6,38.7z"/>
<path class="st45" d="M369.6,38.6L369.6,38.6C369.6,38.6,369.6,38.7,369.6,38.6L369.6,38.6L369.6,38.6z"/>
<path class="st45" d="M363.6,38.5c0.1-0.2,0.1-0.2,0.1-0.4C363.7,38.1,363.7,38.4,363.6,38.5C363.6,38.5,363.6,38.5,363.6,38.5
	L363.6,38.5z"/>
<path class="st45" d="M349,41.1c0-0.1,0-0.2,0-0.2S349,41,349,41.1L349,41.1L349,41.1z"/>
<path class="st43" d="M351,189.6c0,0,0.8-14.5,1.2-16.9c2.3-13.9,2.6-29.7,3.5-44.4c0-0.5,0-1,0-1.3c0-1.6,0.2-4.3,0.5-7.7
	c0.8-7.6,2.4-18.4,2.9-20.9c3.4-19.8,10.4-59.4,10.4-59.4s0,0,0,0.1c0,0.7-0.1,2.2-0.4,4.3c-0.4,3.4-1.3,8.5-2.6,14
	c-4,16.7-5.9,34.3-8.1,51.5c-0.4,2.8-0.6,5.3-0.5,7.3c0,0.6-0.1,1.7-0.2,3.1c-2.1,19.9-4.5,40.4-5.2,60.3
	C352.3,183.5,351,189.6,351,189.6L351,189.6z"/>
<path class="st43" d="M374.2,38.5L374.2,38.5C374.2,38.6,374.2,38.5,374.2,38.5L374.2,38.5z M357,168.6c0,0,0.9-5.3,1.2-8.8
	c1.3-18.6,3.6-37.7,6.1-56.3c0.1-1.1,0.2-2,0.3-2.6c0.1-1.8,0.3-3.8,0.6-6c2-14.2,3.9-28.7,6.9-42.5c0.8-3.8,1.5-7.5,1.8-10.2
	c0.3-2,0.4-3.7,0.4-3.7s0,0.1,0,0.2c-2.4,16-5.4,32.1-8.3,48c-0.3,1.8-1.6,9.8-2.4,16c-0.4,2.8-0.6,5.2-0.7,6.6
	c0,0.3-0.1,0.7-0.1,1.2c-1.7,14.5-2.1,29.6-4.3,43.5C358,156.4,357,168.6,357,168.6L357,168.6z"/>
<path class="st43" d="M340.2,188c0.1-0.5,2-8.7,2.4-10.9c0.4-2.4,3.9-24.4,4.3-27.6c2-13,4.4-26.1,6.4-39c3.4-22.4,9.6-68,9.6-68
	s-7.2,56.9-11.2,85.1c-1.9,13.1-4.5,33-5.2,37C345.7,168.6,340.4,187.2,340.2,188C340.2,188,340.2,188,340.2,188
	C340.2,188,340.2,188,340.2,188L340.2,188z"/>
<path class="st43" d="M339.2,96.9c0.4,17.5-1.3,35.3-3.7,52.5c-0.7,5.1-5.2,28.1-5.5,31c-0.4,2.9-2,5.4-2.1,5.3
	c-2.4-6.8,4.8-24.9,7-37.3c0.1-0.5,0.8-9.3,0.9-9.9C338,124.7,338.9,110.8,339.2,96.9L339.2,96.9z"/>
<path class="st43" d="M333.9,187.6L333.9,187.6c0,0,0.5-1,0.9-1.8c0,0,5.5-19.2,5.7-23c0.2-3.7,1.8-15,2.2-17.1c0-0.1,0-0.2,0-0.1
	c0,0.5-1.4,17.6-1.4,19.9c0,2.4-4,21.8-5.1,22.3C335.9,188,334.3,187.6,333.9,187.6L333.9,187.6z"/>
<path class="st43" d="M347.1,60.9c0.9-9.5,1.7-18.6,1.9-19.8l0,0c-1.6,21.8-3.3,43.7-5.5,65.4c-0.3,3.5-3,33.3-3,33.3s5.1-13,6-16.7
	c5.1-21,6.4-44.9,10.5-66.7c0.6-3.4,5.1-17.4,5.1-17.4s-2.6,10.9-4,18c-4.5,21.9-4.6,46.2-11.3,68c-3.9,12.8-6.7,18-6.7,18
	c0.7-13,2.1-26.1,3.3-39C344.5,89.7,345.9,75.3,347.1,60.9L347.1,60.9z"/>
<path class="st43" d="M354.6,54.3c0.6-2.1,1.1-3.5,1.1-3.5S355.3,51.9,354.6,54.3L354.6,54.3z M352.2,41.9
	c-2.4,24.6-7.6,73.7-7.5,73.7c0,0,5.5-38.9,9.1-57.6c0.3-1.4,0.9-3.6,0.9-3.6l-8.3,52c0,0,3.1-30.8,4.7-46.2
	C351.6,55.2,352.2,41.9,352.2,41.9C352.2,41.9,352.2,41.9,352.2,41.9L352.2,41.9z"/>
<path class="st43" d="M348.3,66.3c1.9,1.2,29.5,0.7,31.4,0.7c1.8,0,7.2,2.9,7.3,3.6c0,0.7-4.8,5.1-7.6,4.7c-2.8-0.4-10.5-1.1-20-1.4
	c-85-2.4-175.3-2.6-262.2-5.1c0.6-1.2,1.1-1.8,2.5-3c77.6-4,164.9,2.1,239.4-11.8c10.5,5.1,9.2,6.7,10.8,11.6
	C348.2,65.6,347.5,65.8,348.3,66.3L348.3,66.3z"/>
<path class="st43" d="M381.7,71.6c-8.7-0.9-17.8-0.3-23.1,0.1c-2.1,0.1-4.5,0.1-6.4,0c-0.9,0-1.7-0.1-2.4-0.1
	c-1.6-5-0.3-6.6-10.8-11.6c8.7-1.6,14.3-2.5,29.1-4.2c0.8,0,1.7,0,2.7-0.1c6.4-0.3,13.6,13.5,14.6,14.2
	C386,70.5,383.9,70.7,381.7,71.6L381.7,71.6z"/>
<path class="st43" d="M106.9,61.7c-0.9,0-2.6,0-2.6,0S110.6,61.7,106.9,61.7z"/>
<path class="st43" d="M374.7,48.3c-5.3-0.1-13.3,1.1-13.3,1.1s2.2,0.5,6.7,0.4c-26.1,2.4-50.2,7.9-76.5,9.9
	c-63.1,4.7-128.4,2.7-192,6.1c-1.3,1.2-1.9,1.8-2.5,3c0,0-3-12.1-2.1-12.3c1.6-0.5,1.6-0.6,3.8-0.8c0.9-0.1,3.3-0.1,5.5-0.1
	c0.8,0,1.7,0,2.6,0c3.7,0,0.7,0-2.6,0c-4.8-0.1-8.8-0.5-10.1-0.8c-1.6-0.4-6.7-8.5-6.7-8.5s0.9-1.6,5.3-1.7c4.5-0.1,4.6-0.2,0.1-0.3
	c-4.6-0.1-4.9-0.8-5.2-1.3c-1.2-2.8,5-3.8,7.7-3.7c32.4,0.4,66.6,2.9,99.1,3.8c52.5,1.5,107.4,1.7,160.8,1.1
	c23-0.3,32.4,2.8,32.4,2.8c-1.4,0.4-2.1,0.5-3.4,0.9C384.3,48.1,380,48.5,374.7,48.3L374.7,48.3z"/>
<path class="st44" d="M103.1,39.7c2.6,0.1,5.4,0.2,8.1,0.3c7.8,0.3,63.8,1.7,71.9,2c5.1,0.2,10.2,0.4,15.2,0.5
	c53.1,1.2,108.1,1.7,161.9,1.2c23.2-0.2,28.3,0.4,28.3,0.4c-0.1,0.9-0.3,1.6-0.7,3.1c0,0-2.9,0.1-8.3,0c-5.5-0.1-14,1.1-14,1.1
	s3,0.6,9.8,0.3c6.8-0.3,12.3-0.5,12.9,0.1c1.9,1.7-1.8,15.5-2.4,15.7c-2.1,0.8-18.2-0.2-23.5,0.3c-2.1,0.2-4.4,0.1-6.3,0.1
	c-2.9-0.1-4.9-0.1-3.6,0.6c2,1.2,29.4,0.4,31.3,0.4c1.9,0,3.4,3.7,3.5,4.4c0,0.7-1.2,1.9-4,1.5c-2.9-0.4-10.6-1-19.5-1.1
	c-84.5-0.5-177-2.3-263.9-4.7c0,0-0.1-0.9,0-2.2c0-0.1,0-0.3,0.1-0.4c0.1-0.7,0.2-1.4,0.3-2.2c0.1-1,0-2-0.3-2.9
	c-0.3-0.8-0.9-1.4-1-1.8c-0.1-0.3-0.1-0.5,0.1-0.5c1.5,0,16.7-0.1,19.2-0.2c2.5-0.1-0.4-0.7-6.8-0.8c-6.4,0-11.6-0.5-13.3-1
	c-1-0.3-3.5-2.8-5.3-5.1c-1.4-1.7-2.1-3-2.1-3s0.7-1.2,5.2-1.3c4.5-0.1,5.9-0.9,1.3-1c-4.6-0.1-4.6-0.3-5.2-0.7
	c-0.5-0.3-0.3-0.8-0.3-1.1c0,0,2.8-2,4.2-2C97,39.5,103.1,39.7,103.1,39.7L103.1,39.7z"/>
<path class="st45" d="M92.9,50.4c0.1,0,0.8,0,0.8,0s-0.1,0-0.1,0c-0.1,0-0.1,0-0.2,0C93.2,50.4,93.1,50.4,92.9,50.4L92.9,50.4z"/>
<path class="st45" d="M92.8,50.4L92.8,50.4C92.9,50.4,92.9,50.4,92.8,50.4L92.8,50.4L92.8,50.4z"/>
<path class="st45" d="M93.3,55.6c-0.3,0-0.5-0.1-0.8-0.1C92.5,55.5,93.1,55.5,93.3,55.6C93.2,55.6,93.3,55.6,93.3,55.6L93.3,55.6z"
	/>
<path class="st45" d="M99.8,68c-0.2,0-0.3,0-0.3,0S99.6,68,99.8,68L99.8,68L99.8,68z"/>
<circle class="st41" cx="128.7" cy="172.6" r="3.1"/>
<circle class="st41" cx="342.3" cy="165.6" r="3.1"/>
<polygon class="st46" points="307.9,145 168.8,149.4 159.1,78.1 317.2,83.8 "/>
<path class="st2" d="M186.2,139c4.8-0.5,9.6-1,14.4-1.6c4.8-0.6,9.6-1.3,14.2-2.1c2.3-0.5,4.7-1,6.9-1.7c1.1-0.3,2.2-0.7,3.1-1.2
	c0.5-0.2,0.9-0.5,1.2-0.8c0.2-0.2,0.8-0.7,1.3-1.1c1.9-1.7,4.1-3.1,6.3-4.3c2.2-1.2,4.5-2.3,6.8-3.2c2.4-0.9,4.8-1.6,7.2-2.1
	c2.4-0.6,4.9-0.9,7.4-1.1c1.3-0.1,2.5-0.2,3.8-0.1c0.6,0,1.3,0,1.9,0l1.9,0.1c2.5,0.2,4.9,0.5,7.3,0.8c9.6,1.3,19.2,3,28.6,5.4
	c-9.7-0.7-19.3-1.6-28.9-2.3c-2.4-0.1-4.8-0.3-7.2-0.4l-1.7,0c-0.6,0-1.2,0-1.7,0c-1.2,0-2.3,0.1-3.5,0.2c-4.6,0.5-9.2,1.5-13.6,3.2
	c-4.4,1.6-8.6,3.8-12.1,6.7c-0.5,0.4-0.8,0.7-1.5,1.2c-0.6,0.5-1.3,0.8-1.9,1.1c-1.2,0.6-2.5,1-3.7,1.3c-2.4,0.7-4.9,1.1-7.3,1.4
	c-4.9,0.6-9.7,0.9-14.6,1C195.9,139.4,191.1,139.3,186.2,139z"/>
<path class="st2" d="M242.4,124.3c-5.2,0.8-10.5,1.1-15.7,1.2c-5.3,0-10.5-0.2-15.9-1c-0.7-0.1-1.3-0.2-2-0.4
	c-0.7-0.2-1.3-0.3-2-0.5c-0.7-0.2-1.4-0.4-2-0.8c-0.3-0.2-0.7-0.3-1-0.5l-0.9-0.6c-2.5-1.5-4.4-3.5-6.2-5.5c-1.8-2-3.3-4-5.2-5.7
	c-1.8-1.7-3.9-3.2-6.4-4c2.7,0,5.3,1,7.6,2.5c2.3,1.5,4.3,3.3,6.2,5c1.9,1.7,3.8,3.4,5.9,4.4l0.8,0.4c0.3,0.1,0.5,0.2,0.8,0.3
	c0.5,0.2,1.1,0.4,1.6,0.5c0.5,0.2,1.2,0.3,1.8,0.4c0.6,0.1,1.2,0.2,1.8,0.3c5,0.8,10.2,1.3,15.3,1.8
	C232,123,237.2,123.5,242.4,124.3z"/>
<g>
	<path class="st0" d="M237,94.1c-4.8,0-8.7,3.9-8.7,8.7c0,4.8,8.7,16.4,8.7,16.4s8.7-11.6,8.7-16.4C245.7,98,241.8,94.1,237,94.1z
		 M237.1,107.8c-2.4,0-4.3-1.9-4.3-4.3c0-2.4,1.9-4.3,4.3-4.3c2.4,0,4.3,1.9,4.3,4.3C241.4,105.9,239.5,107.8,237.1,107.8z"/>
</g>
<path class="st43" d="M387.8,49.6c0,0-28.3,0.3-32.9,0.2c-27.3-1-57.9-0.1-86.6,0.1c-1.1,0-1.9,0-2.5,0.1c-3,0.1-8.4,0.2-15,0.1
	c-14.8-0.2-35.9-0.8-40.8-1c-38.7-1.5-116.3-4.6-116.3-4.6s0.1,0,0.1,0c1.3,0,4.3,0,8.4,0c6.7,0.1,16.6,0.5,27.4,1.3
	c32.7,2.2,67.2,2.6,100.7,3.3c5.5,0.1,10.3,0.1,14.2-0.1c1.2,0,3.3,0,6,0c38.9,0.4,78.9,0.9,117.5,0.2
	C375.7,48.9,387.8,49.6,387.8,49.6L387.8,49.6z"/>
<path class="st43" d="M92.2,40.5L92.2,40.5C92.2,40.5,92.2,40.5,92.2,40.5L92.2,40.5z M346.4,46c0,0-10.3-0.4-17.1-0.4
	c-36.2,0.2-73.5-0.4-109.9-1.2c-2.2,0-4-0.1-5.1,0c-3.5,0.1-7.4,0-11.7-0.1c-27.7-0.7-56.2-1.3-83.3-2.9c-7.4-0.4-14.8-0.7-19.9-0.9
	c-4-0.1-7.1-0.1-7.1-0.1s0.2,0,0.4,0c31.4,0.9,62.8,2.3,94,3.7c3.6,0.2,19.3,0.7,31.3,0.9c5.4,0.1,10.1,0.2,12.9,0.2
	c0.6,0,1.3,0,2.3,0c28.3,0.4,57.7-0.3,84.9,0.6C322.5,46,346.4,46,346.4,46L346.4,46z"/>
<path class="st43" d="M385.7,59c-0.9,0-17-1.1-21.4-1.3c-4.6-0.2-47.7-1.6-53.9-1.8c-25.3-0.8-51.1-1.9-76.3-2.7
	c-43.8-1.3-133-3.4-133-3.4s111.2,2.1,166.3,3.5c25.7,0.7,64.5,1.5,72.4,1.8C347.6,55.6,384.3,58.9,385.7,59
	C385.7,59,385.7,59,385.7,59C385.7,59,385.7,59,385.7,59L385.7,59z"/>
<path class="st43" d="M209.1,66.4c34-1.6,68.7-1.4,102.3-0.6c10,0.3,55,2.4,60.6,2.5c5.6,0.1,10.6,1.3,10.4,1.4
	c-12.9,2.5-48.7-2.3-73.1-3.3c-1,0-18.2,0-19.3-0.1C263.1,65.4,236.1,65.6,209.1,66.4L209.1,66.4z"/>
<path class="st43" d="M385.6,64.4L385.6,64.4c0,0-1.9-0.3-3.5-0.7c0,0-37.9-3.3-45.2-3.2c-7.3,0.1-29.4-0.5-33.4-0.7
	c-0.3,0-0.4,0-0.3,0c1,0,34.3-0.1,38.8-0.2c4.6-0.2,42.7,1.9,43.8,2.7C386.2,62.7,385.7,64,385.6,64.4L385.6,64.4z"/>
<path class="st43" d="M138.5,62.2C120,62.1,102.3,62,99.8,62l0,0c42.5-0.2,85.1-0.3,127.6,0c6.8,0,64.9,0.2,64.9,0.2s-25.8-3.5-33-4
	c-41.2-2.9-87.8-2.3-130.5-4.2c-6.7-0.3-34.3-3.2-34.3-3.2s21.4,1.4,35.4,2.2c43,2.3,90.2,0.7,133.2,4.8c25.2,2.4,35.6,4.5,35.6,4.5
	c-25.4,0.3-50.8,0.1-76.1,0C194.6,62.3,166.5,62.2,138.5,62.2L138.5,62.2z"/>
<path class="st43" d="M124.9,56.2c-4.2-0.4-7-0.7-7-0.7S120.2,55.8,124.9,56.2L124.9,56.2z M101,59.2c48,0.3,143.8,1.2,143.8,1.2
	c0,0-76.1-1.9-112.8-3.7c-2.8-0.1-7.1-0.5-7.1-0.5l101.9,3.4c0,0-60.2-0.4-90.2-0.7C127,58.7,101,59.2,101,59.2
	C101,59.2,101,59.2,101,59.2L101,59.2z"/>
<circle class="st41" cx="119.7" cy="53.1" r="3.1"/>
<circle class="st41" cx="357.8" cy="58.7" r="3.1"/>
</svg>
