<?xml version="1.0" encoding="utf-8"?>
<!-- Generator: Adobe Illustrator 26.3.1, SVG Export Plug-In . SVG Version: 6.00 Build 0)  -->
<svg version="1.1" id="Ebene_1" xmlns="http://www.w3.org/2000/svg" xmlns:xlink="http://www.w3.org/1999/xlink" x="0px" y="0px"
	 viewBox="0 0 478.9 288" style="enable-background:new 0 0 478.9 288;" xml:space="preserve">
<style type="text/css">
	.st0{fill:url(#SVGID_1_);}
	.st1{fill:url(#SVGID_00000012448086379472806760000017545574685718943886_);}
	.st2{fill:url(#SVGID_00000041285511963191420750000005323433275124930195_);}
	.st3{fill:#FCB048;}
	.st4{fill:url(#SVGID_00000114073459770671441580000009780126414374493853_);}
	.st5{fill:url(#SVGID_00000116944472885497667210000009238497117529932456_);}
	.st6{fill:url(#SVGID_00000089548267901401391380000017743707933477710265_);}
	.st7{fill:url(#SVGID_00000062163157360537128180000010999850855718592904_);}
	.st8{fill:url(#SVGID_00000178918691408500144890000002143068054451634605_);}
	.st9{fill:url(#SVGID_00000027569644643996060280000002571712322272962700_);}
	.st10{fill:url(#SVGID_00000049904365149842582630000011759020602715253632_);}
	.st11{fill:url(#SVGID_00000135652718159980705260000015018122414199508395_);}
	.st12{fill:url(#SVGID_00000095325122810382451850000016893213123140050583_);}
	.st13{fill:url(#SVGID_00000143619293520073165740000012824296860571199167_);}
	.st14{fill:url(#SVGID_00000146495573184631267490000007467706554295540613_);}
	.st15{fill:url(#SVGID_00000138561390486937375360000001442381772261143946_);}
	.st16{fill:url(#SVGID_00000034071193251046289390000017449748236351483541_);}
	.st17{fill:url(#SVGID_00000064339298433970532980000018295331737158498961_);}
	.st18{fill:url(#SVGID_00000007399511437268122540000000405771185930342840_);}
	.st19{fill:url(#SVGID_00000179637313701033212860000004065021734313340551_);}
	.st20{fill:url(#SVGID_00000131369401549029454810000005706783471965795258_);}
	.st21{fill:url(#SVGID_00000137842459586014011930000010309544707190635194_);}
	.st22{fill:url(#SVGID_00000158009131133460344440000014715130200445723566_);}
	.st23{fill:url(#SVGID_00000013156938254197028820000003117793514293592761_);}
	.st24{fill:url(#SVGID_00000167383584221952485690000005653095674462763933_);}
	.st25{fill:url(#SVGID_00000037661100866098150810000009162071396363214770_);}
	.st26{fill:url(#SVGID_00000155114867567575554570000003351935772517877662_);}
	.st27{fill:url(#SVGID_00000070814645346113110100000005133189738688845952_);}
	.st28{fill:url(#SVGID_00000030461202756153435520000007607213908242146439_);}
	.st29{fill:url(#SVGID_00000056422630793869267690000008199182954682791829_);}
	.st30{fill:url(#SVGID_00000138546661839333733380000010749034806931246489_);}
	.st31{fill:url(#SVGID_00000132085146371107394190000012655792980281425843_);}
	.st32{fill:url(#SVGID_00000183226233857136659080000009197994933986851219_);}
	.st33{fill:url(#SVGID_00000159468655577733350800000015536835066965311897_);}
	.st34{fill:url(#SVGID_00000047035182227279448740000016828011222508059559_);}
	.st35{fill:url(#SVGID_00000155868131531209809710000005765706917051003013_);}
	.st36{fill:url(#SVGID_00000122681518784710154350000007155475013462406073_);}
	.st37{opacity:0.3;fill:url(#SVGID_00000178912020057546295750000002739572338930392225_);}
	.st38{fill:#641E6E;}
	.st39{fill:#7575B4;}
	.st40{fill:#EA5474;}
	.st41{fill:none;}
	.st42{fill:#E6566F;}
	.st43{fill:#FF7D8D;}
	.st44{fill:#FFE3E6;}
	.st45{fill:#542614;}
	.st46{fill:#833500;}
	.st47{fill:#692F4B;}
	.st48{fill:#FFD14B;}
	.st49{fill-rule:evenodd;clip-rule:evenodd;fill:url(#SVGID_00000157283048956329249040000007448169049424731295_);}
	.st50{fill-rule:evenodd;clip-rule:evenodd;fill:url(#SVGID_00000106852820580031518440000007642277738350669993_);}
	.st51{fill-rule:evenodd;clip-rule:evenodd;fill:#E0A5FF;}
	.st52{fill-rule:evenodd;clip-rule:evenodd;fill:url(#SVGID_00000149355243394840411960000001520251348982852539_);}
	.st53{opacity:0.8;fill-rule:evenodd;clip-rule:evenodd;fill:#E698FF;}
	.st54{fill-rule:evenodd;clip-rule:evenodd;fill:url(#SVGID_00000160895630135757091940000005798195516143337136_);}
	.st55{fill-rule:evenodd;clip-rule:evenodd;fill:url(#SVGID_00000044151256211324968060000003073120804645630092_);}
	.st56{fill-rule:evenodd;clip-rule:evenodd;fill:url(#SVGID_00000013884766149429586940000011663750625684496052_);}
	.st57{fill-rule:evenodd;clip-rule:evenodd;fill:url(#SVGID_00000077297937615689824030000004255416166929978505_);}
	.st58{fill-rule:evenodd;clip-rule:evenodd;fill:url(#SVGID_00000120516887430402151830000010538131010556617628_);}
	.st59{fill-rule:evenodd;clip-rule:evenodd;fill:#E081FF;}
	.st60{fill-rule:evenodd;clip-rule:evenodd;fill:url(#SVGID_00000178178946432533001090000014391768972300675994_);}
	.st61{fill-rule:evenodd;clip-rule:evenodd;fill:url(#SVGID_00000024687325238469909980000000873286730523161242_);}
	.st62{fill-rule:evenodd;clip-rule:evenodd;fill:url(#SVGID_00000026866794864810724970000011543326501951620016_);}
	.st63{fill-rule:evenodd;clip-rule:evenodd;fill:#D13BFF;}
	.st64{fill-rule:evenodd;clip-rule:evenodd;fill:url(#SVGID_00000067943134195012600580000008695480813596997023_);}
	.st65{fill-rule:evenodd;clip-rule:evenodd;fill:#FFFFFF;}
	.st66{fill-rule:evenodd;clip-rule:evenodd;fill:url(#SVGID_00000105384566253571156970000005574585707065672619_);}
	.st67{fill-rule:evenodd;clip-rule:evenodd;fill:url(#SVGID_00000121975206390775177140000010010266138559590563_);}
	.st68{fill-rule:evenodd;clip-rule:evenodd;fill:#E43CF6;}
	.st69{fill-rule:evenodd;clip-rule:evenodd;fill:#CF1EDC;}
	.st70{fill-rule:evenodd;clip-rule:evenodd;fill:#B720FF;}
	.st71{fill-rule:evenodd;clip-rule:evenodd;fill:url(#SVGID_00000016062350822911026820000012324384593334757811_);}
	.st72{fill-rule:evenodd;clip-rule:evenodd;fill:url(#SVGID_00000036932693962245924000000006233537892367944323_);}
	.st73{fill-rule:evenodd;clip-rule:evenodd;fill:url(#SVGID_00000012441398307916142390000003604657731094564494_);}
	.st74{fill-rule:evenodd;clip-rule:evenodd;fill:url(#SVGID_00000014625699081518839080000005170414002735052694_);}
	.st75{fill-rule:evenodd;clip-rule:evenodd;fill:url(#SVGID_00000127724360857402980240000005238041751027179136_);}
	.st76{fill-rule:evenodd;clip-rule:evenodd;fill:url(#SVGID_00000135678359550957985720000012954389241266864531_);}
	.st77{fill-rule:evenodd;clip-rule:evenodd;fill:url(#SVGID_00000145049512122991182160000005432386651527052200_);}
	.st78{fill-rule:evenodd;clip-rule:evenodd;fill:url(#SVGID_00000008839953703937273990000017007585925381553061_);}
	.st79{fill-rule:evenodd;clip-rule:evenodd;fill:url(#SVGID_00000044862439141134426440000016641841780870672282_);}
	.st80{fill-rule:evenodd;clip-rule:evenodd;fill:url(#SVGID_00000055672161903994677190000002123568523349793423_);}
	.st81{fill-rule:evenodd;clip-rule:evenodd;fill:url(#SVGID_00000180340168166460942750000014895457796399608713_);}
	.st82{fill-rule:evenodd;clip-rule:evenodd;fill:url(#SVGID_00000041255380167103708040000000065735646615954619_);}
	.st83{fill-rule:evenodd;clip-rule:evenodd;fill:url(#SVGID_00000087389997177974857130000012679674442589545643_);}
	.st84{fill-rule:evenodd;clip-rule:evenodd;fill:url(#SVGID_00000183226124671893253210000001210435708539563665_);}
	.st85{fill-rule:evenodd;clip-rule:evenodd;fill:url(#SVGID_00000036212184792227731040000008052834047742788000_);}
	.st86{fill-rule:evenodd;clip-rule:evenodd;fill:url(#SVGID_00000083089247591858091570000013610632865320926373_);}
	.st87{fill-rule:evenodd;clip-rule:evenodd;fill:url(#SVGID_00000166639796865688221510000010645260472581122694_);}
	.st88{fill-rule:evenodd;clip-rule:evenodd;fill:url(#SVGID_00000011712000461963103830000017478666927276112513_);}
	.st89{fill-rule:evenodd;clip-rule:evenodd;fill:url(#SVGID_00000067957240562605152820000003185694167216897157_);}
	.st90{fill-rule:evenodd;clip-rule:evenodd;fill:url(#SVGID_00000182509682770243963530000007182214103862964897_);}
	.st91{fill-rule:evenodd;clip-rule:evenodd;fill:url(#SVGID_00000095326659286978643440000001606827767664073406_);}
	.st92{fill-rule:evenodd;clip-rule:evenodd;fill:url(#SVGID_00000106125842060583226880000000516484109251743922_);}
	.st93{fill-rule:evenodd;clip-rule:evenodd;fill:url(#SVGID_00000079471271044062753290000010480417234427671230_);}
	.st94{fill-rule:evenodd;clip-rule:evenodd;fill:url(#SVGID_00000168821266673285710550000015011472161249449405_);}
	.st95{fill-rule:evenodd;clip-rule:evenodd;fill:url(#SVGID_00000058552086879740582090000010943836026743187604_);}
	.st96{fill-rule:evenodd;clip-rule:evenodd;fill:url(#SVGID_00000175295184008789250990000000064068811289470121_);}
	.st97{fill-rule:evenodd;clip-rule:evenodd;fill:url(#SVGID_00000066474065107846741570000007040736910279337376_);}
	.st98{fill-rule:evenodd;clip-rule:evenodd;fill:url(#SVGID_00000134968413407607582850000016927432192511558071_);}
	.st99{fill-rule:evenodd;clip-rule:evenodd;fill:url(#SVGID_00000060006596961787276690000013369460671360958082_);}
	.st100{fill-rule:evenodd;clip-rule:evenodd;fill:url(#SVGID_00000024003910490135037810000008712655278987519935_);}
	.st101{fill-rule:evenodd;clip-rule:evenodd;fill:url(#SVGID_00000173161755877956684590000001036449023441055639_);}
	.st102{fill-rule:evenodd;clip-rule:evenodd;fill:url(#SVGID_00000000182423390636961830000005297002772578368896_);}
	.st103{fill-rule:evenodd;clip-rule:evenodd;fill:url(#SVGID_00000068656859130319561970000000396568321827731602_);}
	.st104{fill-rule:evenodd;clip-rule:evenodd;fill:url(#SVGID_00000126324136322954240950000016472962941840299194_);}
	.st105{fill-rule:evenodd;clip-rule:evenodd;fill:url(#SVGID_00000134226422692684005240000015130702092582585516_);}
	.st106{fill-rule:evenodd;clip-rule:evenodd;fill:url(#SVGID_00000051383943826230864350000009138915110147013803_);}
	.st107{fill-rule:evenodd;clip-rule:evenodd;fill:url(#SVGID_00000152978583481747963700000009083500029045047471_);}
	.st108{fill-rule:evenodd;clip-rule:evenodd;fill:url(#SVGID_00000003824378286360087050000014709236577399943301_);}
	.st109{fill-rule:evenodd;clip-rule:evenodd;fill:url(#SVGID_00000061429289283640226230000002983068204711016334_);}
	.st110{fill-rule:evenodd;clip-rule:evenodd;fill:url(#SVGID_00000169516375121931851640000005797850930362025889_);}
	.st111{fill-rule:evenodd;clip-rule:evenodd;fill:url(#SVGID_00000014595858694945114440000001121178717842272190_);}
	.st112{fill-rule:evenodd;clip-rule:evenodd;fill:url(#SVGID_00000129196197978370876980000006154504678471113353_);}
	.st113{fill-rule:evenodd;clip-rule:evenodd;fill:url(#SVGID_00000129187155618447511250000010344872760626099876_);}
	.st114{fill-rule:evenodd;clip-rule:evenodd;fill:url(#SVGID_00000080186984782315986770000013071435849070562750_);}
	.st115{fill-rule:evenodd;clip-rule:evenodd;fill:url(#SVGID_00000031178180277516565390000009511316248414099081_);}
	.st116{fill-rule:evenodd;clip-rule:evenodd;fill:url(#SVGID_00000155838629162138565420000002100600210849119907_);}
	.st117{fill-rule:evenodd;clip-rule:evenodd;fill:url(#SVGID_00000102503533441465651260000007983097006116747707_);}
	.st118{fill-rule:evenodd;clip-rule:evenodd;fill:url(#SVGID_00000001665968523169927180000009903836276509501347_);}
	.st119{fill-rule:evenodd;clip-rule:evenodd;fill:#E6C2FF;}
	.st120{opacity:0.5;}
</style>
<g>
	<path class="st38" d="M163.9,147.8c0,0,0.8,56.6,21.1,87.2c6.9,10.4,14.3,16.7,21.1,20.5c14.1,7.9,31.4-1.8,31.6-17.7
		c0.1-7.6-1.7-17.1-7.5-28.2C213.4,177.1,163.9,147.8,163.9,147.8"/>
	<path class="st39" d="M213.9,230.9c-1.3-2.2-2.5-4.4-3.8-6.6c4.9-7.8,10-15.6,14.9-23.3c-0.1-0.2-0.4-0.5-0.5-0.7
		c-4.9,7.8-9.9,15.5-14.8,23.3c-1.2-2-2.5-4.1-3.6-6.2c4.6-7.5,9.6-14.8,14.9-21.9c-0.1-0.2-0.3-0.4-0.6-0.7
		c-5.3,7-10.2,14.3-14.8,21.7l-3.5-5.9c4.7-6.9,9.4-13.9,14.1-20.8c-0.2-0.2-0.3-0.4-0.6-0.6c-4.7,6.9-9.3,13.7-14,20.6
		c-1.2-2.1-2.5-4.1-3.7-6.2c3.8-6.9,7.9-13.5,12.3-20c-0.2-0.2-0.4-0.4-0.6-0.6c-4.3,6.5-8.4,13-12.2,19.8c-1.2-2.2-2.5-4.3-3.8-6.4
		c3.5-6.1,7.3-12,11.3-17.8c-0.2-0.2-0.4-0.4-0.6-0.5c-4,5.7-7.7,11.6-11.2,17.6c-1-1.7-2-3.5-3-5.3c3-5.7,6.1-11.1,9.6-16.5
		c-0.2-0.2-0.4-0.4-0.6-0.5c-3.4,5.2-6.6,10.6-9.5,16.2c-1.2-2.1-2.5-4.3-3.8-6.4c2-5.1,4.6-9.9,7.7-14.4c-0.2-0.2-0.4-0.4-0.6-0.5
		c-3,4.4-5.6,9.1-7.6,14l-1.3-2.2c0-0.1-0.1-0.3-0.2-0.4c-0.3-0.5-0.6-1-0.9-1.5c1.5-4.5,3.8-8.7,6.8-12.4c-0.2-0.2-0.4-0.4-0.7-0.5
		c-2.9,3.6-5.2,7.6-6.7,12c-0.9-1.6-1.9-3.2-2.8-4.8c1.5-3.6,3.3-7.1,5.3-10.4c-0.2-0.2-0.5-0.4-0.7-0.5c-2,3.2-3.7,6.5-5.2,10
		l-2.6-4.5c1.4-2.2,2.8-4.4,4.2-6.6c0.2-0.3,0.5-0.7,0.7-1.1c-0.2-0.2-0.5-0.3-0.7-0.5c-0.3,0.5-0.7,1.1-1,1.6l-3.7,5.8l-2.2-3.8
		c0.9-2.2,1.8-4.3,2.9-6.4c-0.2-0.2-0.5-0.3-0.7-0.5c-1,1.9-1.9,4-2.8,6c-0.9-1.5-1.7-2.9-2.6-4.4c0.6-1.3,1.2-2.7,2-3.9
		c-0.2-0.2-0.5-0.3-0.7-0.5c-0.6,1.1-1.3,2.3-1.8,3.5c-0.5-0.9-1-1.8-1.5-2.7c0.3-0.8,0.7-1.6,1.1-2.4c-0.3-0.2-0.5-0.3-0.7-0.5
		l-0.8,1.9c-0.8-1.3-1.5-2.7-2.3-4c-1.1-0.7-1.7-1-1.7-1s0,0.7,0.1,1.9l2.6,4.4c-0.8-0.3-1.6-0.6-2.4-0.8c0,0.3,0,0.6,0.1,0.8
		c1,0.3,2.1,0.7,3.1,1.2c0.6,1.1,1.2,2,1.8,3.1c-1.5-0.7-3.2-1.1-4.7-1.5c0,0.3,0,0.6,0.1,0.8c1.7,0.4,3.4,1,5,1.7
		c0.1,0.1,0.2,0.1,0.3,0c1.1,1.9,2.2,3.8,3.3,5.7c-2.7-0.9-5.4-1.8-8.3-2.5c0,0.3,0,0.6,0.1,0.8c2.9,0.8,5.9,1.7,8.8,2.7
		c1,1.7,2,3.4,3,5.1c-3.7-1.2-7.5-2.3-11.3-3.4c0,0.3,0,0.6,0.1,0.9c4,1.1,7.9,2.3,11.9,3.6c1.2,2.1,2.5,4.1,3.7,6.2
		c-4.9-1.8-9.9-3.4-15-4.8c0,0.3,0.1,0.6,0.1,0.9c5.2,1.5,10.4,3.2,15.5,5c0.8,1.4,1.6,2.7,2.4,4.1c-5.7-1-11.4-2.1-17-3.2
		c0,0.3,0.1,0.6,0.1,0.8c5.8,1.1,11.6,2.2,17.4,3.3c1.6,2.7,3.1,5.3,4.7,8c-7-2.5-14.1-4.7-21.3-6.4c0.1,0.3,0.1,0.6,0.2,0.9
		c7.4,1.8,14.7,4,21.8,6.6c1.4,2.4,2.9,4.9,4.3,7.3c-8.1-1.6-16.2-3.3-24.3-5c0.1,0.3,0.1,0.6,0.2,0.9c8.2,1.7,16.4,3.3,24.6,5
		c0.6,0.9,1.1,1.9,1.7,2.8c0.7,1.1,1.3,2.3,2,3.4c-8.9-1.7-17.8-3.3-26.7-4.9c0.1,0.3,0.2,0.6,0.3,0.9c9,1.7,18,3.3,27,5
		c1,1.7,2,3.5,3,5.3c-9.2-0.8-18.5-1.6-27.7-2.5c0.1,0.3,0.2,0.6,0.2,0.8l27.8,2.5c0.1,0,0.1,0,0.1,0c1.4,2.5,2.9,5,4.4,7.5
		c-10-1.1-20-2.3-30-3.5c0.1,0.3,0.2,0.6,0.4,0.9c10,1.1,20.1,2.3,30.2,3.5c1.1,1.9,2.2,3.7,3.3,5.6c-9.8-0.1-19.5-0.1-29.3-0.2
		c0.1,0.2,0.3,0.6,0.4,0.8c9.8,0.1,19.5,0.1,29.3,0.2c1.2,2,2.3,4,3.5,5.9c-9.4,0.9-18.7,1.4-28.2,1.3c0.2,0.3,0.4,0.6,0.6,0.8
		c9.4,0.1,18.7-0.4,28-1.3c1.9,3.2,3.8,6.4,5.7,9.6c-8.4,0.9-16.8,1.4-25.2,1.5c0.3,0.3,0.6,0.5,0.9,0.8c8.2-0.1,16.5-0.6,24.6-1.4
		c0.1,0,0.1,0,0.1,0c0.8,1.4,1.6,2.7,2.4,4.1c-6.6,1-13.3,2-19.9,3c0.3,0.2,0.7,0.5,1.1,0.6c6.4-0.9,12.8-1.9,19.3-2.9
		c0.8,1.4,1.6,2.7,2.4,4c0.6-0.3,1.1-0.6,1.7-0.9c-0.2-0.4-0.4-0.7-0.7-1.1c3.3-4.7,6.8-9.4,10.1-14.2c0-0.5,0.1-1,0.1-1.5l-10.6,15
		c-0.7-1.2-1.4-2.4-2.1-3.6c4.2-5.9,8.3-11.9,12.4-17.8c0-0.4-0.1-0.8-0.1-1.2c-4.2,6.1-8.5,12.2-12.7,18.2
		c-1.1-1.9-2.2-3.7-3.3-5.6c4.8-6.7,9.7-13.3,14.5-20c-0.1-0.3-0.2-0.7-0.3-1c-4.9,6.7-9.8,13.5-14.7,20.2c-0.9-1.6-1.9-3.3-2.9-4.9
		c0-0.1-0.1-0.1-0.1-0.1c4.8-7.3,10-14.4,15.5-21.3c-0.1-0.3-0.2-0.6-0.4-0.9c-5.6,6.8-10.8,13.9-15.5,21.3
		c-0.1-0.2-0.2-0.4-0.4-0.6c0-0.1-0.1-0.1-0.1-0.1c-0.8-1.4-1.6-2.7-2.4-4.1c4.5-8.3,9.5-16.2,14.7-24c-0.1-0.2-0.3-0.6-0.4-0.8
		C223.4,214.7,218.5,222.7,213.9,230.9"/>
</g>
<g>
	<path class="st41" d="M225.8,92.5C225.8,92.5,225.8,92.5,225.8,92.5C225.8,92.5,225.8,92.5,225.8,92.5
		C225.8,92.5,225.8,92.5,225.8,92.5z"/>
	<path class="st42" d="M157.5,104.1c1-0.1,1.6-0.8,1.6-1.6c-0.1-0.9-0.7-1.4-1.8-1.5c-0.2,0-0.3,0-0.5,0c-8.1,0.9-16.1,1.5-24.2,2
		c-5.1,0.3-10.2,0.8-15.4,1.1c-1.1,0.1-2.1,0-2.9,0.9c0,0.2-0.1,0.5-0.1,0.7c0.5,1,1.3,1.3,2.4,1.2c4.4-0.3,8.9-0.4,13.3-0.7
		c7.6-0.4,15.2-0.9,22.8-1.7C154.2,104.5,155.9,104.3,157.5,104.1z"/>
	<path class="st43" d="M294.8,137.4c0-0.7,0.3-1.5,0-2.2v0v0c-1.9-1.7-3.8-3.4-5.8-5.1c-10-8.3-19.3-17.2-27.6-27.3
		c-5.5-6.7-10.7-13.6-14.7-21.2c-3.4-6.5-6.7-13.1-8.6-20.3c-0.7-2.8-1.4-5.7-2.8-8.3c-0.6-1-1.2-2-2.4-2.3
		c-0.3,0.2-0.2,0.5-0.2,0.7c0.7,4.2,0.7,8.5,0.6,12.7c-0.1,3.2-0.5,6.3-0.9,9.4c-0.5,3.8-1.9,7.4-3.2,11c-0.9,2.4-1.7,4.8-2.6,7.2
		c-0.1,0.4-0.3,0.7-0.7,0.7c0,0,0,0,0,0.1c0.3,0.3,0.2,0.6,0.1,1c-1.1,2.5-2.5,4.8-3.8,7.2c-3.4,6.3-8,11.9-12.5,17.4
		c-1.4,1.7-2.8,3.3-4.3,4.8c-1.3,1.6-2.8,3-4.2,4.4c-2.8,2.8-5.8,5.5-9,7.9c-4.6,3.4-9.2,6.6-14.3,9.3c-0.7,0.4-1.6,0.7-2.3,1v0v0
		c0.6,0.8,1.6,0.9,2.4,0.9c5.8,0.3,11.6,0.9,17.4,1.6c0.9,0.1,1.7,0.3,2.6,0.4c6.4,0.5,12.7,0.7,19.1,1.4c4.5,0.5,8.9,1.1,13.3,2v0
		v0c1.1,0.2,3.2,0.6,5.1,0.9c0,0,0.1,0,0.1,0c1.4,0.2,2.8,0.4,4.2,0.9c0.2,0,0.4,0,0.6,0.1c3.3,0.7,4,1.2,7.3,2.3
		c3.8,1.2,7.6,2.6,11.4,4c0.1,0,0.2,0.1,0.3,0.2c2,0.7,4,1.4,5.9,2.3l0,0h0c0.1,0,0.2,0,0.3,0.1c3.3,1.3,6.5,3.1,9.7,4.7
		c0.9,0.1,1.7-0.3,2.4-0.8c1.7-1.3,3.5-2.7,5-4.2c3-3,5.7-6.3,7.7-10.1c1.6-2.8,2.8-5.8,3.8-8.9
		C294.7,141.4,294.9,139.4,294.8,137.4z"/>
	<path class="st44" d="M177.8,144.6c5-2.7,9.7-5.9,14.3-9.3c3.2-2.4,6.2-5.1,9-7.9c1.5-1.4,3-2.8,4.2-4.4c-1.8-3.1-3.8-6.2-6-9
		c-1.5-1.8-3.1-3.6-4.6-5.3c-0.3-0.3-0.5-0.6-0.7-1l0,0c-1.5-1.1-1.9-2.8-1-4.4c2.6-4.6,5.5-8.9,9.2-12.8c1.5-1.6,3.1-3.2,4.8-4.6
		c1.1-0.9,2.3-1.3,3.7-0.7c0.5,0.2,0.8,0.7,1.2,1l0,0h0c4.3,2.8,9,4.8,13.9,6.4l0,0c0,0,0,0,0.1,0c0.5,0,0.6-0.3,0.7-0.7
		c0.9-2.4,1.7-4.8,2.6-7.2c1.4-3.6,2.7-7.2,3.2-11c0.4-3.1,0.8-6.2,0.9-9.4c0.1-4.3,0.1-8.5-0.6-12.7c0-0.3-0.1-0.5,0.2-0.7
		c-0.3-0.3-0.6,0-0.9-0.1c-2.7-0.6-5.2,0.4-7.6,1.5c-5.7,2.5-10.9,5.9-15.8,9.7c-3.3,2.6-6.5,5.3-9.3,8.4
		c-7,7.3-13.2,15.2-18.5,23.8c-2.7,4.4-5,9-6.7,13.9c-1.5,4.5-2.4,9.1-3.2,13.7c-0.2,1.2,0,2.4-0.2,3.6c-0.3,2.1,0,4.1,0,6.2
		c0.1,2.7,0.5,5.4,1.1,8c0.4,1.5,0.8,2.9,1.6,4.2c0.5,0.9,1.4,1.2,2,1.9l0,0C176.2,145.2,177.1,145,177.8,144.6z"/>
	<path class="st42" d="M168.7,24.6c4.1,7.8,8.2,15.5,12.8,23c0.9,1.5,1.8,3,2.7,4.5c0.5,0.8,1.5,1,2.2,0.6c0.7-0.4,0.9-1.3,0.5-2.1
		c-0.2-0.4-0.4-0.8-0.7-1.2c-2-3.4-4.1-6.7-6-10.1c-3.7-6.4-7.1-13-11-19.3c-0.3-0.5-0.6-1-1.3-1c-1.1-0.1-1.8,1-1.3,2.1
		C167.2,22.2,168,23.4,168.7,24.6z"/>
	<path class="st42" d="M169.4,71.5c-1.1-0.7-2.1-1.4-3.2-2.1c-6.2-3.6-12.6-6.6-19-9.8c-0.2-0.1-0.3-0.1-0.4-0.1
		c-0.7-0.1-1.2,0.2-1.5,0.7c-0.3,0.6-0.2,1.2,0.3,1.6c0.4,0.3,0.8,0.6,1.3,0.9c7,3.8,14.2,7.1,20.9,11.5c1,0.6,1.9,0.5,2.4-0.2
		C170.6,73.1,170.4,72.2,169.4,71.5z"/>
	<path class="st42" d="M210.9,49.1c0.1,0.8,0.6,1.3,1.4,1.3c0.8,0,1.2-0.6,1.3-1.9c-0.2-1.8-0.3-4.1-0.6-6.3c-0.1-1-0.8-1.5-1.6-1.4
		c-0.8,0.1-1.3,0.8-1.2,1.7C210.3,44.8,210.6,47,210.9,49.1z"/>
	<path class="st42" d="M225.8,92.5c-4.9-1.6-9.6-3.6-13.9-6.4h0c-0.1,0.1-0.2,0.1-0.2,0.2c0.3,2.6-1.2,4.4-2.6,6.2
		c-2.6,3.6-5.7,6.8-8.6,10.1c-1.3,1.5-2.5,3-4,4.2c-0.8,0.6-1.6,0.9-2.5,0.7l0,0l0,0c0.2,0.3,0.5,0.7,0.7,1c1.5,1.8,3.1,3.5,4.6,5.3
		c2.3,2.8,4.2,5.8,6,9c1.6-1.5,3-3.2,4.3-4.8c4.5-5.5,9.1-11,12.5-17.4c1.3-2.4,2.6-4.7,3.8-7.2C226.1,93.1,226.1,92.8,225.8,92.5
		C225.8,92.5,225.8,92.5,225.8,92.5L225.8,92.5z"/>
	<path class="st43" d="M196.5,106.9c1.5-1.2,2.7-2.8,4-4.2c2.9-3.3,6-6.6,8.6-10.1c1.4-1.8,2.9-3.7,2.6-6.2c0-0.1,0.1-0.1,0.2-0.2
		l0,0c-0.4-0.3-0.7-0.8-1.2-1c-1.4-0.6-2.7-0.1-3.7,0.7c-1.7,1.4-3.3,3-4.8,4.6c-3.6,3.8-6.5,8.2-9.2,12.8c-0.9,1.6-0.5,3.3,1,4.4
		l0,0C194.9,107.9,195.7,107.5,196.5,106.9z"/>
	<path class="st42" d="M226.5,181.4c-0.7,1.3-1.4,2.7-0.9,4.1c0.6,1.7,2.8,2.7,4.7,3.4c0.6,0.3,1.4,0.5,2,0.3
		c0.4-0.1,0.7-0.4,0.9-0.6c7-6.6,20.8-24.4,26.8-31.6c-0.5,0.6-15.1-6.4-18.4-2.8c-1.4,1.5-2,5.1-2.9,6.9
		C237.2,164.3,228.1,178.3,226.5,181.4z"/>
	<path class="st44" d="M318.2,153.1c-0.3-1.3-0.4-2.8-1.6-3.7c-2.7-2-5.3-4.1-8.1-5.8c-3.4-2.2-6.8-4.4-10.2-6.5
		c-1.1-0.7-2.2-1.4-3.4-1.8l0,0c0.2,0.7-0.1,1.5,0,2.2c0.1,2-0.2,4-0.8,5.9c-1,3.1-2.2,6.1-3.8,8.9c-2.1,3.7-4.7,7.1-7.7,10.1
		c-1.6,1.5-3.3,2.9-5,4.2c-0.7,0.6-1.5,0.9-2.4,0.8c0.4,0.6,1,1,1.6,1.4c1.3,0.7,2.5,1.5,3.8,2.2c5.2,3.4,10.8,6.2,16,9.6
		c2.4,1.5,4.5,1.8,7,0.2c1.7-1.1,3.5-2,5.1-3.2c3-2.5,5-5.8,6.8-9.2c1.3-2.5,2-5.1,2.5-7.8C318.3,158,318.7,155.6,318.2,153.1z"/>
	<path class="st42" d="M160.1,126.7c-0.3,0.1-0.6,0.2-0.9,0.4c-3.5,1.8-6.9,3.6-10.2,5.8c-0.5,0.3-1,0.6-1.4,1
		c-0.4,0.4-0.5,0.9-0.3,1.4c0.2,0.5,0.6,0.8,1.1,0.8c0.4,0,0.8-0.1,1.5-0.5c3.6-2.2,7.3-4.1,11.1-5.9c0.2-0.1,0.4-0.2,0.6-0.4
		c0.5-0.5,0.7-1.1,0.4-1.8C161.4,126.7,160.9,126.5,160.1,126.7z"/>
</g>
<g>
	<path class="st38" d="M383.8,217.7c-1.6-5.4-3-8.4,4.1-10.9c7.2-2.5,4.7-7.2,3.1-12.7s0.4-11.1,10.4-17.8c10-6.7,4.8-11.9,4.1-17.7
		c-0.8-5.9-0.6-7.3,5.7-13.5c6.3-6.1,2.1-11.9-2.2-17.7c-4.5-5.9,3.1-29.2,3.1-29.2s-11.1,2.1-16.9,14.3c-5.9,12-10.5,1.1-19.3,10.3
		s-1.1,16.7-11,18.5c-9.9,1.8-17,5.6-18.2,19.7c-1.2,14.1-14.8,10.9-18.2,20.6c-3.3,9.7,9,12.8,2,19.3c-7,6.5-11.9,7.8-6.9,16
		c5.1,8.1-7,12.5-2.6,23.6c0.2,0.4,0.4,0.9,0.5,1.3c6,12.5,23,17.1,34.8,9.3c2.7-1.8,4.5-3.8,4.9-6.2c1.3-9.5,1.9,1.8,11.3,2
		C382.1,246.7,385.4,223.1,383.8,217.7"/>
	<path class="st39" d="M394.3,166.3c-4.7-0.5-9.5-0.5-14.1,0.1c2.5-4.8,4.8-9.7,7-14.7c0.8-1.8,1.5-3.5,2.2-5.3
		c0.1,0,0.2-0.1,0.2-0.1c3.2-2.7,6.9-4.8,11-6.3c0.8-0.4,0.4-1.5-0.5-1.2c-3.5,1.3-6.7,3-9.6,5.2c4.5-11.1,8.5-22.5,12.5-33.8
		c0.3-0.8-1.1-1.3-1.3-0.5c-3.8,10.9-7.6,21.7-11.9,32.4c-1.5-3.4-3.5-6.6-6-9.5c-0.5-0.7-1.7,0.1-1.2,0.7c2.7,3.1,4.8,6.6,6.2,10.4
		c0,0.1,0.1,0.1,0.1,0.2c-0.4,0.9-0.7,1.8-1.1,2.6c-2.9,6.8-6,13.5-9.3,20.1c-2.9-4-6-7.8-9.5-11.3c-0.6-0.6-1.8,0.1-1.2,0.7
		c3.7,3.7,7,7.8,10,11.9c-2.4,4.5-4.8,9.1-7.4,13.6c-2.9,4.9-5.7,9.7-8.6,14.6c-2.3-4.2-5-8.2-7.9-12.1c-0.5-0.7-1.7,0-1.2,0.7
		c3,4,5.7,8.1,8.1,12.4c0.1,0.1,0.1,0.2,0.2,0.3c-3.6,6-7.1,11.9-10.6,17.9c-0.6,1.2-1.3,2.3-2,3.4c-2.1-3.2-4.6-6.2-7.6-8.8
		c-0.6-0.6-1.5,0.4-0.9,1c2.9,2.7,5.4,5.7,7.6,9c0,0.1,0.1,0.1,0.2,0.2c-5.4,9.5-8.5,15.3-12.7,25.4c-5,12.1,2.1-1.3,4.6-6.9
		c2.8-6,5.9-11.8,9.1-17.6v-0.1c5-0.1,10,0.3,14.9,1c0.9,0.2,1.2-1.2,0.2-1.2c-4.7-0.7-9.5-1.1-14.4-1c4.2-7.5,8.6-14.8,12.9-22.1
		c5.3,0,10.6-0.1,15.9-0.1c0.9,0,0.7-1.3-0.2-1.3c-5,0-10,0.1-15,0.1c5.5-9.4,11.1-18.7,16.1-28.3c4.8-0.7,9.7-0.8,14.6-0.2
		C395,167.7,395.2,166.4,394.3,166.3"/>
	<path class="st39" d="M385,127.2c0.4,0.5,0.7,1,1.1,1.5c0.4,0.4,0.9,0.7,1.4,0.4c0.4-0.2,0.8-0.9,0.4-1.3c-0.4-0.5-0.7-1-1.1-1.5
		c-0.4-0.4-0.9-0.7-1.4-0.4C385,126.1,384.6,126.7,385,127.2"/>
	<path class="st39" d="M390,124.7c-0.1,0.6-0.2,1.2-0.2,1.9c-0.1,0.5,0.4,1,1.1,1.1c0.6,0,1.1-0.4,1.2-0.9c0.1-0.6,0.2-1.2,0.2-1.9
		c0.1-0.5-0.4-1-1.1-1.1C390.5,123.7,390,124.1,390,124.7"/>
	<path class="st39" d="M379.1,128.1l1.2,1.8c0.4,0.4,0.9,0.7,1.4,0.4c0.4-0.2,0.8-0.9,0.4-1.3l-1.2-1.8c-0.4-0.4-0.9-0.7-1.4-0.4
		C379.1,127.1,378.7,127.7,379.1,128.1"/>
	<path class="st39" d="M400,131.9c-0.3,0.4-0.4,1-0.7,1.4s0.2,1.1,0.7,1.2c0.6,0.2,1.1-0.1,1.3-0.6c0.3-0.4,0.4-1,0.7-1.4
		s-0.2-1.1-0.7-1.2C400.7,131.1,400.3,131.4,400,131.9"/>
	<path class="st39" d="M405.6,136.3c-0.1,0.1-0.2,0.2-0.4,0.3c-0.1,0-0.1,0.1-0.2,0.1c0.1,0,0.1,0,0,0c-0.1,0.1-0.2,0.1-0.4,0.2
		c0,0-0.4,0.2-0.3,0.1c-0.5,0.2-1,0.6-0.8,1.2c0.1,0.4,0.7,1,1.2,0.8c0.8-0.3,1.5-0.5,2.1-1.1c0.4-0.4,0.5-1,0.1-1.3
		C406.7,136.1,406,135.9,405.6,136.3"/>
	<path class="st39" d="M404.9,142c-0.7-0.1-1.4-0.2-2.1-0.3c-0.5-0.1-1.1,0.4-1.2,0.9c0,0.5,0.4,1,1.1,1.1c0.7,0.1,1.4,0.2,2.1,0.3
		c0.5,0.1,1.1-0.4,1.2-0.9C406,142.4,405.6,142,404.9,142"/>
	<path class="st39" d="M359.6,156c0.7,0.1,1.4,0.2,2.2,0.2c0.5,0.1,1.1-0.4,1.2-0.9c0-0.5-0.4-1-1.1-1.1l-2.2-0.2
		c-0.5-0.1-1.1,0.4-1.2,0.9C358.6,155.5,359,156,359.6,156"/>
	<path class="st39" d="M362.8,150.4c0.5,0.5,1,1.1,1.5,1.6c0.9,1,2.5-0.3,1.6-1.2c-0.5-0.5-1-1.1-1.5-1.6
		C363.5,148.2,361.9,149.4,362.8,150.4"/>
	<path class="st39" d="M369.7,148c-0.3,0.6-0.3,1.3-0.2,2c0.1,0.5,0.7,0.9,1.2,0.8c0.5-0.1,1-0.6,0.8-1.2c0,0-0.1-0.4,0-0.2
		c0-0.1,0-0.2,0-0.4c0-0.1,0-0.1,0-0.2c0,0.1,0,0.1,0,0c0-0.1,0.1-0.2,0.1-0.4c0.2-0.4-0.2-1.1-0.7-1.2
		C370.4,147.3,369.9,147.6,369.7,148"/>
	<path class="st39" d="M374.8,150.8c-0.2,0.4-0.4,0.8-0.5,1.2s0.2,1.1,0.7,1.2c0.6,0.2,1.1-0.1,1.3-0.6c0.2-0.4,0.4-0.8,0.5-1.2
		s-0.2-1.1-0.7-1.2C375.6,150,375.1,150.3,374.8,150.8"/>
	<path class="st39" d="M392.5,161.8c-0.1,0.4-0.1,0.9-0.2,1.3c-0.1,0.5,0.4,1.1,1.1,1.1c0.6,0,1.1-0.4,1.2-0.9
		c0.1-0.4,0.1-0.9,0.2-1.3c0.1-0.5-0.4-1.1-1.1-1.1S392.5,161.3,392.5,161.8"/>
	<path class="st39" d="M399.5,164.3c-0.5,0.2-1.2,0.4-1.7,0.6c-0.5,0.2-0.7,0.9-0.4,1.3c0.3,0.5,0.9,0.6,1.4,0.4
		c0.5-0.2,1.2-0.4,1.7-0.6c0.5-0.2,0.7-0.9,0.4-1.3C400.7,164.3,400,164.1,399.5,164.3"/>
	<path class="st39" d="M399.4,170.6c-0.6-0.4-1.2-0.8-1.8-1.2c-0.4-0.4-1.2-0.2-1.5,0.3s-0.2,1.1,0.4,1.3c0.6,0.4,1.2,0.8,1.8,1.2
		c0.4,0.4,1.2,0.2,1.5-0.3C400,171.5,399.9,170.9,399.4,170.6"/>
	<path class="st39" d="M391.9,172.5c0.4,0.6,0.8,1.2,1.2,1.8c0.4,0.4,0.9,0.7,1.4,0.4c0.4-0.2,0.8-0.9,0.4-1.3l-1.2-1.8
		c-0.4-0.4-0.9-0.7-1.4-0.4C391.9,171.4,391.6,172,391.9,172.5"/>
	<path class="st39" d="M348.3,186.6c-0.8-0.1-1.5-0.2-2.3-0.3c-0.5-0.1-1.1,0.4-1.2,0.9c0,0.5,0.4,1,1.1,1.1
		c0.8,0.1,1.5,0.2,2.3,0.3c0.5,0.1,1.1-0.4,1.2-0.9C349.4,187.2,348.9,186.7,348.3,186.6"/>
	<path class="st39" d="M346.4,180.2c-1.2-0.4-2.3-0.9-3.5-1.2c-1.2-0.4-2,1.3-0.6,1.9c1.2,0.4,2.3,0.9,3.5,1.2
		C347.2,182.5,347.8,180.7,346.4,180.2"/>
	<path class="st39" d="M348.1,176.3c0.5,0.8,1.1,1.6,1.5,2.5c0.7,1.1,2.6,0.3,1.9-0.8c-0.5-0.8-1.1-1.6-1.5-2.5
		C349.4,174.3,347.5,175.1,348.1,176.3"/>
	<path class="st39" d="M356.2,175.4l-0.1,1.5c0,0.5,0.4,1.1,1.1,1.1c0.6,0,1.1-0.4,1.2-0.9c0-0.5,0.1-1,0.1-1.5
		c0-0.5-0.4-1.1-1.1-1.1S356.3,174.9,356.2,175.4"/>
	<path class="st39" d="M361.2,180.7c-0.4,0.6-0.9,1.2-1.3,1.9c-0.7,1.1,1.1,2.1,1.8,1.1c0.4-0.6,0.9-1.2,1.3-1.9
		C363.7,180.8,361.9,179.8,361.2,180.7"/>
	<path class="st39" d="M374.2,190.5c-0.2,0.6-0.4,1.2-0.5,1.8c-0.2,0.5,0.1,1.1,0.7,1.2c0.5,0.2,1.2-0.1,1.3-0.6
		c0.2-0.6,0.4-1.2,0.5-1.8c0.2-0.5-0.2-1.1-0.7-1.2S374.4,189.9,374.2,190.5"/>
	<path class="st39" d="M383.3,188.6c-0.6,0.9-1.2,1.7-1.8,2.6c-0.7,1.1,1.1,2.1,1.8,1.1c0.6-0.9,1.2-1.7,1.8-2.6
		C385.9,188.7,384.1,187.6,383.3,188.6"/>
	<path class="st39" d="M385.8,196.6c-1.2-0.2-2.3-0.3-3.5-0.4c-1.3-0.2-1.4,1.8-0.1,2c1.2,0.2,2.3,0.3,3.5,0.4
		C387.1,198.7,387.2,196.8,385.8,196.6"/>
	<path class="st39" d="M383.1,203.5c-0.9-0.5-1.8-1.1-2.6-1.6c-1.2-0.7-2.3,0.9-1.2,1.6c0.9,0.5,1.8,1.1,2.6,1.6
		C383.1,205.8,384.3,204.2,383.1,203.5"/>
	<path class="st39" d="M377.3,206.3c-1-1.2-2.1-2.1-3.4-2.9c-1.2-0.7-2.3,0.9-1.2,1.6c1.2,0.7,2.1,1.6,2.9,2.6
		C376.6,208.6,378.2,207.3,377.3,206.3"/>
	<path class="st39" d="M335.7,214.4c-1.1,0.2-2.1,0.4-3.2,0.5c-1.3,0.2-0.9,2.1,0.4,2c1.1-0.2,2.1-0.4,3.2-0.5
		C337.6,216.1,337.2,214.2,335.7,214.4"/>
	<path class="st39" d="M331.6,210.9c0.9,0.4,1.7,0.6,2.6,1c0.5,0.2,1.2-0.2,1.3-0.6c0.2-0.5-0.2-1.1-0.7-1.2c-0.9-0.4-1.7-0.6-2.6-1
		c-0.5-0.2-1.2,0.2-1.3,0.6C330.7,210.2,331.1,210.7,331.6,210.9"/>
	<path class="st39" d="M333.2,203.9c0.7,0.4,1.4,0.9,2.2,1.3c1.2,0.7,0.2-2.2-1.1-2.9c-0.7-0.4,0.7,0.4,0,0
		C333.2,201.6,332,203.2,333.2,203.9"/>
	<path class="st39" d="M342.1,202.4c0.1,0.7,0.3,1.3,0.4,2.1c0.1,0.5,0.7,0.9,1.2,0.8c0.6-0.1,0.9-0.6,0.8-1.2
		c-0.2-0.7-0.3-1.3-0.4-2.1c-0.1-0.5-0.7-0.9-1.2-0.8S342,201.9,342.1,202.4"/>
	<path class="st39" d="M346.5,207.2c-0.3,0.5-0.4,1.1-0.7,1.7c-0.2,0.4,0.2,1.1,0.7,1.2c0.6,0.2,1.2-0.1,1.3-0.6
		c0.3-0.5,0.4-1.1,0.7-1.7c0.2-0.4-0.2-1.1-0.7-1.2C347.2,206.4,346.7,206.7,346.5,207.2"/>
	<path class="st39" d="M359.7,213.9c-0.6,0.5-1.2,1-1.9,1.5c-1,0.8,0.4,2.3,1.4,1.5c0.6-0.5,1.2-1,1.9-1.5
		C362.2,214.6,360.7,213.1,359.7,213.9"/>
	<path class="st39" d="M366.2,214.9c-0.6,0.6-1.2,1.1-2.1,1.4c-1.2,0.6-0.3,2.3,1,1.8c0.9-0.4,1.8-1.1,2.5-1.7
		c0.4-0.4,0.5-1,0.1-1.3C367.4,214.6,366.6,214.5,366.2,214.9"/>
	<path class="st39" d="M372.1,219.7c-1.2,0.2-2.3,0.1-3.5-0.1c-0.5-0.1-1.1,0.4-1.2,0.9c0,0.5,0.4,1,1.1,1.1c1.3,0.2,2.7,0.3,4,0.1
		C374,221.5,373.5,219.5,372.1,219.7"/>
	<path class="st39" d="M370.9,225.5c-1.1-0.5-2.2-1-3.3-1.5c-0.5-0.3-1.2,0.2-1.3,0.6c-0.2,0.5,0.2,1,0.7,1.2c1.1,0.5,2.2,1,3.3,1.5
		c0.5,0.3,1.2-0.2,1.3-0.6C371.8,226.2,371.4,225.8,370.9,225.5"/>
	<path class="st39" d="M364.1,227.8c-1.5-1.5-3.1-3-4.6-4.5c-1-0.9-2.6,0.4-1.6,1.2c1.5,1.5,3.1,3,4.6,4.5
		C363.5,230.1,365.1,228.8,364.1,227.8"/>
	<path class="st39" d="M355.8,226.4c-0.8-0.4-1.6-1-2.4-1.4c-1.2-0.7-2.3,0.9-1.2,1.6c0.8,0.4,1.6,1,2.4,1.4
		C355.8,228.7,357,227.1,355.8,226.4"/>
</g>
<path class="st40" d="M388.7,241.7c0,0-2.5-18.5-8.6-18.9c-6.2-0.3-10.1,14.1-10.1,14.1s-3.2-27.6-11.9-28.2
	c-8.6-0.6-10.1,8.6-10.1,8.6s-2.4-15.2-12-15.5c-9.6-0.3-12.1,13.2-12.1,13.2c-1.6-15-16.9-11.2-20.8,1.4
	c-2.1,6.9-2.5,12.8-2.5,12.8s-6.7-14.4-11-15.1c-7.8-1.2-9.8,19.2-9.8,19.2s-2.8-24-11.2-23.4c-8.5,0.6-8.6,19.6-8.6,19.6
	s-0.7-23.2-8.5-22.3c-7.8,0.9-6.4,21-6.6,27.8c-0.3,6.9-6.2,16.8-17.1,5.7c-11-11.1-15.3,13.8-15.3,13.8h170.2
	C390.3,254.5,388.7,241.7,388.7,241.7"/>
<g>
	<path class="st39" d="M362.6,132.9c0,0-76.2,22.1-109.6,58.3c-11.3,12.3-16.9,23.7-19.3,33.4c-5.1,20.2,15,37.8,36.6,32
		c10.4-2.8,22.4-8.5,35.1-19.6C342.8,204.3,362.6,132.9,362.6,132.9"/>
	<path class="st38" d="M270.2,225c2.4-2.4,4.8-4.8,7.3-7.1l37.5,9.5c0.3-0.3,0.5-0.6,0.8-0.9c-12.4-3.2-25-6.3-37.4-9.5
		c2.3-2.2,4.6-4.6,6.9-6.8c12,2.9,23.9,6.2,35.5,10.1c0.3-0.3,0.4-0.6,0.7-0.9c-11.6-3.8-23.4-7.1-35.3-10c2.2-2.2,4.4-4.3,6.6-6.5
		l33.7,9.5c0.2-0.3,0.4-0.6,0.6-0.9l-33.5-9.4c2.3-2.3,4.7-4.5,7-6.8c10.8,2.1,21.5,4.7,32,7.5c0.2-0.3,0.4-0.6,0.5-1
		c-10.4-2.9-21-5.4-31.6-7.5c2.4-2.3,4.8-4.7,7.1-7c9.6,2,19.2,4.4,28.6,7.2c0.2-0.3,0.4-0.6,0.5-1c-9.2-2.8-18.7-5.1-28.2-7.1
		c1.9-1.9,3.9-3.8,5.8-5.7c8.8,1.5,17.5,3.4,26.1,5.6c0.2-0.3,0.4-0.6,0.5-1c-8.5-2.2-17-4.1-25.7-5.6c2.4-2.3,4.7-4.6,7.1-7
		c7.7,0.7,15.2,2,22.6,4.1c0.2-0.3,0.3-0.7,0.5-1c-7.1-2.1-14.5-3.4-22-4.1c0.8-0.8,1.6-1.6,2.4-2.4c0.2,0,0.3-0.2,0.4-0.4
		c0.6-0.6,1.2-1.2,1.8-1.7c6.7,0.1,13.3,1.4,19.5,3.7c0.2-0.3,0.3-0.7,0.5-1c-6-2.2-12.3-3.5-18.9-3.8c1.8-1.7,3.6-3.5,5.3-5.2
		c5.5,0.5,10.9,1.5,16.2,2.7c0.1-0.3,0.3-0.7,0.4-1c-5.1-1.2-10.3-2.1-15.7-2.6c1.6-1.6,3.3-3.2,5-4.8c3.5,0.9,7.1,1.8,10.7,2.6
		c0.6,0.2,1.2,0.3,1.7,0.4c0.1-0.3,0.3-0.7,0.4-1c-0.9-0.2-1.7-0.5-2.6-0.6c-3.1-0.8-6.1-1.5-9.3-2.3c1.4-1.4,2.8-2.7,4.2-4.1
		c3.3,0.3,6.6,0.6,9.9,1.2c0.1-0.3,0.3-0.7,0.4-1c-3-0.5-6.1-0.9-9.2-1.2c1.6-1.6,3.3-3.2,4.9-4.7c2.1,0.2,4.1,0.6,6,0.9
		c0.1-0.3,0.2-0.7,0.4-1c-1.8-0.4-3.6-0.6-5.4-0.9l2.9-2.9c1.2,0.1,2.4,0.3,3.6,0.4c0.1-0.3,0.2-0.7,0.4-1c-1-0.1-2-0.2-3-0.3
		c1.5-1.4,2.9-2.9,4.4-4.3c0.5-1.6,0.7-2.5,0.7-2.5s-0.9,0.3-2.6,0.8c-1.6,1.6-3.3,3.2-5,4.8c0.1-1.1,0.1-2.2,0.2-3.3
		c-0.4,0.1-0.7,0.3-1.1,0.3c0,1.4-0.1,2.8-0.3,4.3c-1.2,1.2-2.3,2.2-3.4,3.4c0.2-2.2,0.3-4.3,0.2-6.3c-0.4,0.1-0.7,0.3-1.1,0.4
		c0.1,2.3,0.1,4.5-0.3,6.8c0,0.2,0,0.3,0.1,0.4c-2.2,2.1-4.2,4.1-6.3,6.2c0.2-3.7,0.2-7.4,0.1-11c-0.4,0.2-0.7,0.3-1.1,0.4
		c0.1,3.9,0.1,7.8-0.1,11.7c-1.9,1.9-3.8,3.7-5.7,5.5c0.1-5.1,0.1-10.1,0.1-15.2c-0.4,0.2-0.7,0.3-1.1,0.4c0.1,5.3,0.1,10.6,0,15.8
		c-2.3,2.3-4.7,4.5-7,6.8c0.5-6.6,0.6-13.4,0.5-20c-0.4,0.2-0.7,0.3-1.1,0.4c0.1,6.9-0.1,13.9-0.6,20.8c-1.5,1.5-3.1,3-4.6,4.5
		c-0.8-7.4-1.7-14.6-2.6-22c-0.3,0.2-0.7,0.3-1.1,0.4c0.9,7.6,1.7,15,2.6,22.6c-2.9,2.9-6,5.8-8.9,8.7c0.6-9.5,0.6-19,0-28.4
		c-0.4,0.2-0.7,0.3-1.2,0.5c0.5,9.7,0.4,19.4-0.1,29.1c-2.7,2.7-5.5,5.3-8.1,8c-1-10.5-2-21-3-31.6c-0.3,0.2-0.7,0.3-1.1,0.5l3,32
		c-1,1-2,2-3.1,3l-3.8,3.7c-1.3-11.5-2.7-23-4-34.4c-0.3,0.2-0.8,0.4-1.1,0.6c1.4,11.6,2.7,23.2,4.1,34.8c-1.9,1.9-3.9,3.8-5.8,5.7
		c-2.6-11.6-5.2-23.2-7.8-34.8c-0.3,0.2-0.7,0.5-1,0.6c2.6,11.6,5.2,23.3,7.8,34.9c0,0.1,0.1,0.1,0,0.2c-2.8,2.7-5.6,5.4-8.4,8.1
		c-2.4-12.6-4.9-25.3-7.3-37.9c-0.4,0.3-0.7,0.5-1,0.7c2.5,12.7,4.9,25.4,7.4,38.1c-2,2-4.2,4.1-6.2,6.1c-3.8-12-7.6-23.9-11.5-35.9
		c-0.4,0.3-0.6,0.6-1,0.8c3.8,12,7.7,24,11.5,36c-2.2,2.2-4.4,4.3-6.6,6.5c-5.1-11.1-9.4-22.4-13-34c-0.3,0.4-0.6,0.7-0.8,1.1
		c3.7,11.5,8,22.8,13.1,33.8c-3.6,3.5-7.2,7.1-10.8,10.6c-4.6-9.9-8.5-20-12-30.3c-0.2,0.5-0.5,0.9-0.7,1.4
		c3.4,10,7.4,19.9,11.9,29.6c0,0.1,0.1,0.1,0.1,0.1c-1.5,1.5-3,2.9-4.6,4.5c-4-7.8-8-15.5-12-23.2c-0.1,0.5-0.3,1-0.4,1.5
		c3.8,7.5,7.8,15,11.6,22.5c-1.5,1.4-3,2.9-4.5,4.4c0.6,0.5,1.3,1.1,1.9,1.7c0.4-0.4,0.9-0.8,1.3-1.2c7.8,2.3,15.5,4.7,23.2,7
		c0.7-0.2,1.5-0.2,2.2-0.4c-8.2-2.5-16.4-4.9-24.5-7.5c1.4-1.3,2.7-2.6,4.1-4c9.7,2.9,19.4,5.7,29.1,8.6c0.5-0.2,1.1-0.4,1.6-0.7
		c-9.9-2.9-19.9-5.8-29.8-8.7c2-2,4.2-4,6.2-6.1c10.9,3.4,21.9,6.8,32.8,10.2c0.4-0.2,0.8-0.5,1.2-0.8c-11.1-3.4-22.1-6.9-33.2-10.3
		c1.8-1.8,3.7-3.5,5.5-5.3c0-0.1,0.1-0.1,0.1-0.1c11.8,3.1,23.5,6.7,34.9,11c0.4-0.3,0.7-0.5,1-0.7c-11.5-4.3-23.2-7.9-35-11.1
		c0.2-0.2,0.5-0.4,0.7-0.7c0.1-0.1,0.1-0.1,0.1-0.1c1.5-1.5,3-2.9,4.6-4.5c12.9,2.5,25.8,5.5,38.4,9.1c0.3-0.3,0.6-0.6,0.9-0.9
		C295.9,230.5,283.1,227.5,270.2,225"/>
</g>
<path class="st45" d="M252.2,249.2c0.5-1.8-0.4-3.7-0.8-4.8c-0.2-0.4-0.2-0.9-0.2-1.3c0-0.2,0-0.4,0-0.4c4.5,0,5.9,0.4,10.2-1.5
	c1.8,1.9,2.7,3.1,4.7,6.2c0,0.2,0.1,0.4,0.2,0.5c0.5,1.3-11.7,2.1-12.4,2.2C253.3,250.2,253.1,249.8,252.2,249.2L252.2,249.2z"/>
<path class="st45" d="M251.5,187.2c0-0.2-0.1-0.5-0.1-0.5S251.6,187.8,251.5,187.2z"/>
<path class="st46" d="M256.6,184.8c0-0.1,0-0.1,0.1-0.2C256.6,184.8,256.6,184.8,256.6,184.8L256.6,184.8L256.6,184.8z"/>
<g>
	<path class="st39" d="M177.4,199.6c-5.7-2.4-9.1-3.4-6.9-10.4c2.2-7.1-3.3-8.4-9-10.8c-5.7-2.4-9.4-7.8-9-19.9
		c0.4-12-7.2-11.7-12.8-15.1c-5.5-3.4-6.7-4.5-8.1-13.4c-1.4-8.8-8.9-9.6-16.8-10.3c-7.8-0.6-23.3-22-23.3-22s-4.9,9.7,1.9,22.4
		c6.8,12.6-5.5,8.6-3,21.4c2.5,12.8,13.8,12,9.3,20.7c-4.5,8.6-5.6,16.6,5.8,26.9c11.4,10.3,0.3,18.5,6.6,27.6s16.6,1.9,17.8,11.5
		c1.3,9.6-0.5,14.2,9.5,15.9c10.2,1.7,6.4,13.6,18.8,17.9c0.4,0.2,1,0.3,1.5,0.4c14.4,3.9,28.9-5.7,29.4-19.9
		c0.1-3.2-0.5-6.1-2.4-7.9c-7.4-7.4-6.3-8.1-0.4-15.2C192.4,212.4,183.1,202,177.4,199.6"/>
	<path class="st38" d="M139.6,156.9c-3.4,3.1-6.2,6.7-8.6,10.6c-2.7-5.2-5.4-10.3-8.4-15.2c-1.1-1.8-2.1-3.5-3.1-5.2
		c0-0.1,0-0.2,0-0.3c-0.4-4.2,0.1-8.4,1.2-12.5c0.3-0.8-1.2-1.2-1.3-0.4c-1,3.5-1.5,7-1.4,10.7c-6.9-10.9-14.2-21.6-21.5-32.2
		c-0.5-0.7-1.8-0.2-1.2,0.6c7,10.2,14.1,20.3,20.6,30.8c-3.8-1.2-7.8-1.9-11.9-2c-0.9,0-1,1.3-0.1,1.3c4.4,0.1,8.6,0.9,12.8,2.3
		c0.1,0,0.1,0,0.2,0c0.5,0.9,1.1,1.7,1.6,2.6c4.1,6.7,8,13.6,11.6,20.5c-5.2-0.6-10.4-0.7-15.6-0.5c-0.9,0.1-1,1.4-0.1,1.3
		c5.5-0.3,11-0.1,16.5,0.6c2.5,4.9,4.9,9.8,7.2,14.8c2.5,5.4,4.9,10.9,7.3,16.3c-5.1-1.1-10.2-1.8-15.3-2.2c-0.9-0.1-1,1.3-0.1,1.3
		c5.3,0.4,10.5,1.2,15.7,2.3c0.1,0,0.3,0,0.4,0c2.9,6.7,5.9,13.4,8.9,20.1c0.6,1.2,1.2,2.5,1.8,3.7c-4.1-0.5-8.2-0.6-12.2-0.3
		c-0.9,0.1-0.6,1.4,0.3,1.3c4.1-0.4,8.3-0.3,12.4,0.4c0.1,0,0.2,0,0.3,0c5,10.4,8,16.8,14.2,26.7c7.4,11.9,0.1-2.4-3.1-8.1
		c-3.4-6.2-6.6-12.4-9.5-18.7v-0.1c3-3.8,6.3-7.3,10-10.5c0.7-0.6-0.3-1.6-1-1c-3.6,3.1-6.8,6.5-9.7,10.1
		c-3.8-8.2-7.5-16.4-11.1-24.7c3.2-4,6.4-8,9.7-12c0.5-0.7-0.6-1.4-1.2-0.7c-3,3.7-6.1,7.5-9.1,11.3c-4.6-10.4-9.4-21-14.5-31.2
		c2.3-4.1,5.4-7.8,8.8-11.1C141.2,157.4,140.2,156.3,139.6,156.9"/>
	<path class="st38" d="M100,137.6c0.6,0.1,1.3,0.1,2,0.2c0.6,0.1,1.2-0.2,1.2-0.8c0.1-0.4-0.3-1.2-0.8-1.2c-0.6-0.1-1.3-0.1-2-0.2
		s-1.2,0.2-1.2,0.8C99.1,136.8,99.4,137.5,100,137.6"/>
	<path class="st38" d="M101,132.1c0.4,0.4,1,0.9,1.4,1.4c0.4,0.4,1.2,0.4,1.5-0.1c0.4-0.4,0.4-1.1-0.1-1.4c-0.4-0.4-1-0.9-1.4-1.4
		c-0.4-0.4-1.2-0.4-1.5,0.1C100.4,131.1,100.5,131.7,101,132.1"/>
	<path class="st38" d="M97.2,142.6l2.3,0.3c0.6,0.1,1.2-0.2,1.2-0.8c0.1-0.5-0.3-1.2-0.8-1.2l-2.3-0.3c-0.6-0.1-1.2,0.2-1.2,0.8
		C96.2,141.9,96.7,142.6,97.2,142.6"/>
	<path class="st38" d="M113.4,129.4c0.3,0.5,0.5,1,0.8,1.5c0.3,0.4,1.1,0.6,1.5,0.3c0.5-0.4,0.5-0.9,0.3-1.4c-0.3-0.5-0.5-1-0.8-1.5
		c-0.3-0.4-1.1-0.6-1.5-0.3C113.2,128.3,113.1,128.8,113.4,129.4"/>
	<path class="st38" d="M120.6,128.2c0,0.2,0,0.3,0,0.4c0,0.1,0,0.2,0,0.2c0-0.1,0-0.1,0,0c0,0.1,0,0.3-0.1,0.4c0,0-0.1,0.4-0.1,0.3
		c-0.2,0.5-0.1,1.2,0.4,1.4c0.4,0.2,1.2,0.1,1.4-0.4c0.3-0.7,0.4-1.5,0.4-2.3c-0.1-0.5-0.5-1.1-1.2-1
		C121,127.2,120.5,127.7,120.6,128.2"/>
	<path class="st38" d="M125,132.5c-0.5,0.4-1.1,0.9-1.6,1.4c-0.4,0.4-0.3,1.1,0.1,1.4c0.4,0.4,1.1,0.3,1.5-0.1
		c0.5-0.4,1.1-0.9,1.6-1.4c0.4-0.4,0.3-1.1-0.1-1.4C126.1,132.1,125.5,132.1,125,132.5"/>
	<path class="st38" d="M109.3,176c0.5-0.5,1-1,1.5-1.5c0.4-0.4,0.4-1.1-0.1-1.4c-0.4-0.4-1.2-0.4-1.5,0.1l-1.5,1.5
		c-0.4,0.4-0.4,1.1,0.1,1.4S109,176.4,109.3,176"/>
	<path class="st38" d="M106.5,169.9c0.8,0,1.5,0,2.3,0c1.4,0,1.2-2.1-0.1-2.1c-0.8,0-1.5,0-2.3,0C105,167.8,105.1,169.9,106.5,169.9
		"/>
	<path class="st38" d="M108.6,163.1c0.4,0.6,1,1.1,1.6,1.4c0.5,0.3,1.2,0.1,1.4-0.4c0.3-0.5,0.1-1.1-0.4-1.4c0,0-0.4-0.2-0.2-0.1
		c-0.1-0.1-0.2-0.2-0.3-0.3c-0.1,0-0.1-0.1-0.1-0.1c0.1,0.1,0.1,0.1,0,0c-0.1-0.1-0.2-0.2-0.2-0.3c-0.3-0.4-1.1-0.6-1.5-0.3
		C108.4,162,108.4,162.6,108.6,163.1"/>
	<path class="st38" d="M114.2,161c0.3,0.4,0.4,0.8,0.7,1.2c0.3,0.4,1.1,0.6,1.5,0.3c0.5-0.4,0.6-0.9,0.3-1.4
		c-0.3-0.4-0.4-0.8-0.7-1.2s-1.1-0.6-1.5-0.3S113.9,160.5,114.2,161"/>
	<path class="st38" d="M134.6,155.3c0.4,0.4,0.7,0.6,1.1,1s1.2,0.4,1.5-0.1s0.4-1.1-0.1-1.4c-0.4-0.4-0.7-0.6-1.1-1
		c-0.4-0.4-1.2-0.4-1.5,0.1C134,154.4,134.1,154.9,134.6,155.3"/>
	<path class="st38" d="M141,151.7c-0.2,0.5-0.4,1.2-0.5,1.7c-0.2,0.5,0.3,1.2,0.8,1.2c0.6,0.1,1.2-0.2,1.2-0.8
		c0.2-0.5,0.4-1.2,0.5-1.7c0.2-0.5-0.3-1.2-0.8-1.2C141.6,150.8,141.1,151.1,141,151.7"/>
	<path class="st38" d="M146.3,156c-0.7,0.2-1.4,0.4-2.1,0.5c-0.5,0.2-0.9,0.8-0.7,1.2c0.2,0.5,0.8,0.8,1.3,0.7
		c0.7-0.2,1.4-0.4,2.1-0.5c0.5-0.2,0.9-0.8,0.7-1.2C147.5,156.1,147,155.9,146.3,156"/>
	<path class="st38" d="M143.4,162.9c0.8,0.1,1.5,0.2,2.3,0.3c0.6,0.1,1.2-0.2,1.2-0.8c0.1-0.5-0.3-1.2-0.8-1.2l-2.3-0.3
		c-0.6-0.1-1.2,0.2-1.2,0.8C142.4,162.2,142.8,162.8,143.4,162.9"/>
	<path class="st38" d="M128.9,205.2c-0.5,0.5-1.1,1.1-1.7,1.5c-0.4,0.4-0.4,1.1,0.1,1.4c0.4,0.4,1.1,0.4,1.5-0.1
		c0.5-0.5,1.1-1.1,1.7-1.5c0.4-0.4,0.4-1.1-0.1-1.4C129.9,204.7,129.2,204.8,128.9,205.2"/>
	<path class="st38" d="M122.2,202.2c-1.1,0.6-2.1,1.2-3.2,1.8c-1.2,0.6,0,2.4,1.2,1.7c1.1-0.6,2.1-1.2,3.2-1.8
		C124.6,203.3,123.3,201.6,122.2,202.2"/>
	<path class="st38" d="M119.8,198.3c1.1,0.2,2.1,0.4,3.1,0.4c1.3,0.2,1.8-1.8,0.4-2c-1.1-0.2-2.1-0.4-3.1-0.4
		C118.9,196.1,118.4,198,119.8,198.3"/>
	<path class="st38" d="M124,191.7l1.2,1.1c0.4,0.4,1.2,0.4,1.5-0.1s0.4-1.1-0.1-1.4c-0.4-0.4-0.8-0.7-1.2-1.1s-1.2-0.4-1.5,0.1
		C123.5,190.6,123.5,191.3,124,191.7"/>
	<path class="st38" d="M131.6,191.6c0.3,0.7,0.5,1.5,0.8,2.2c0.4,1.2,2.5,0.6,2.1-0.6c-0.3-0.7-0.5-1.5-0.8-2.2
		C133.2,189.8,131.2,190.4,131.6,191.6"/>
	<path class="st38" d="M148,188.3c0.4,0.5,0.8,1.1,1.2,1.6c0.4,0.4,1,0.6,1.5,0.3c0.4-0.3,0.6-1,0.3-1.4c-0.4-0.5-0.8-1.1-1.2-1.6
		c-0.4-0.4-1-0.6-1.5-0.3C147.9,187.2,147.7,187.9,148,188.3"/>
	<path class="st38" d="M152.1,180.2c0.4,1.1,0.7,2.1,1.1,3.1c0.4,1.2,2.5,0.6,2.1-0.6c-0.4-1.1-0.7-2.1-1.1-3.1
		C153.7,178.3,151.6,179,152.1,180.2"/>
	<path class="st38" d="M160.4,183.8c-0.8,0.8-1.7,1.5-2.5,2.3c-1,0.9,0.6,2.3,1.6,1.3c0.8-0.8,1.7-1.5,2.5-2.3
		C163,184.2,161.4,182.9,160.4,183.8"/>
	<path class="st38" d="M164.7,190.5c-1,0.3-2,0.6-3,0.9c-1.3,0.4-0.6,2.3,0.7,2c1-0.3,2-0.6,3-0.9
		C166.8,192.1,166.1,190.1,164.7,190.5"/>
	<path class="st38" d="M163.6,196.7c-1.6,0-3.1,0.2-4.6,0.5c-1.3,0.4-0.6,2.3,0.7,2c1.3-0.4,2.7-0.4,4.1-0.4
		C165.2,198.8,165,196.8,163.6,196.7"/>
	<path class="st38" d="M145.1,233.4c-0.5,0.9-1,1.9-1.5,2.8c-0.6,1.2,1.3,2.1,2,1c0.5-0.9,1-1.9,1.5-2.8
		C147.7,233.1,145.7,232.2,145.1,233.4"/>
	<path class="st38" d="M139.6,234.1c0.8-0.4,1.6-0.9,2.4-1.3c0.5-0.3,0.6-1,0.3-1.4c-0.4-0.5-1-0.5-1.5-0.3
		c-0.8,0.4-1.6,0.9-2.4,1.3c-0.5,0.3-0.6,1-0.3,1.4C138.4,234.2,139,234.3,139.6,234.1"/>
	<path class="st38" d="M134.4,228.2c0.8-0.3,1.7-0.5,2.5-0.7c1.3-0.4-1.9-1.6-3.2-1.2c-0.8,0.3,0.8-0.3,0,0
		C132.4,226.7,133.1,228.6,134.4,228.2"/>
	<path class="st38" d="M138.6,220.4c0.7,0.4,1.3,0.7,2.1,1.1c0.5,0.3,1.2,0.1,1.4-0.4c0.3-0.5,0.1-1.1-0.4-1.4
		c-0.7-0.4-1.3-0.7-2.1-1.1c-0.5-0.3-1.2-0.1-1.4,0.4C137.9,219.6,138.1,220.2,138.6,220.4"/>
	<path class="st38" d="M145.5,220.4c0.4,0.5,0.6,1.1,1,1.7c0.3,0.4,1.1,0.6,1.5,0.3c0.5-0.4,0.6-0.9,0.3-1.4c-0.4-0.5-0.6-1.1-1-1.7
		c-0.3-0.4-1.1-0.6-1.5-0.3C145.3,219.4,145.2,220,145.5,220.4"/>
	<path class="st38" d="M159.5,215c0.1,0.8,0.1,1.6,0.2,2.4c0.1,1.3,2.2,1.2,2.1-0.1c-0.1-0.8-0.1-1.6-0.2-2.4
		C161.5,213.6,159.4,213.7,159.5,215"/>
	<path class="st38" d="M164.3,210.8c0.2,0.8,0.2,1.7,0,2.5c-0.2,1.3,1.9,1.8,2.1,0.4c0.2-1,0.2-2.1,0-3c-0.1-0.5-0.5-1-1.2-1
		C164.7,209.8,164.2,210.3,164.3,210.8"/>
	<path class="st38" d="M172,209.6c-0.6,1-1.3,1.8-2.2,2.6c-0.4,0.4-0.3,1.1,0.1,1.4c0.4,0.4,1.1,0.3,1.5-0.1c1-0.9,1.9-1.9,2.5-2.9
		C174.6,209.5,172.7,208.5,172,209.6"/>
	<path class="st38" d="M176.2,214.5c-1.1,0.5-2.2,1-3.3,1.5c-0.5,0.3-0.6,1-0.3,1.4c0.4,0.5,1,0.5,1.5,0.3c1.1-0.5,2.2-1,3.3-1.5
		c0.5-0.3,0.6-1,0.3-1.4S176.8,214.3,176.2,214.5"/>
	<path class="st38" d="M174.1,221.1c-2.2,0.2-4.5,0.3-6.7,0.4c-1.4,0.1-1.2,2.1,0.1,2.1c2.2-0.2,4.5-0.3,6.7-0.4
		C175.6,223.1,175.5,221.1,174.1,221.1"/>
	<path class="st38" d="M167.7,226.4c-0.9,0.3-1.8,0.5-2.8,0.8c-1.3,0.4-0.6,2.3,0.7,2c0.9-0.3,1.8-0.5,2.8-0.8
		C169.8,228,169.1,226,167.7,226.4"/>
</g>
<path class="st40" d="M117.8,265.8c0,0,2.7-28,9.2-28.3c6.5-0.3,11.7,4.5,11.7,4.5s2.3-16.2,11.5-16.8s10.6,13.4,10.6,13.4
	s1.4-21.8,11.6-22.1c10.2-0.3,12.8,11.6,12.8,11.6c1.7-13.1,17.3-12.1,21.9-1.6c4.7,10.8,5.4,18.4,5.4,18.4s1.7-13.9,9.9-15
	c8.2-1.1,10.3,16.9,10.3,16.9s5.2-19.2,24.8-19.2c8.3,0,13.9,11.8,14.1,17.8c0.3,6.1,4.5,14.7,16.1,5c11.6-9.7,21.7,15.4,21.7,15.4
	H117.8z"/>
<path class="st45" d="M364,179.9c0.7,0,2.2-0.1,2.2-0.1S360.9,180,364,179.9z"/>
<path class="st46" d="M375.5,174.7c0.3,0,0.4-0.1,0.7-0.1C376.1,174.6,375.7,174.5,375.5,174.7C375.5,174.6,375.5,174.6,375.5,174.7
	L375.5,174.7z"/>
<path class="st45" d="M154.7,206.9c0,0.4,0.1,1.4,0.1,1.4S154.7,204.9,154.7,206.9z"/>
<path class="st46" d="M161.2,214c0,0.2,0.1,0.3,0.1,0.4C161.3,214.5,161.3,214.2,161.2,214C161.2,214.1,161.2,214.1,161.2,214
	L161.2,214z"/>
<path class="st46" d="M117.8,72.5c0.1,0,0.7,0,0.7,0l-0.1,0c-0.1,0-0.1,0-0.2,0C118.1,72.5,118,72.5,117.8,72.5L117.8,72.5z"/>
<path class="st46" d="M117.7,72.5L117.7,72.5C117.8,72.5,117.8,72.5,117.7,72.5L117.7,72.5L117.7,72.5z"/>
<path class="st46" d="M117.9,77.2c-0.3,0-0.4-0.1-0.7-0.1C117.2,77,117.7,77.1,117.9,77.2C117.8,77.1,117.9,77.2,117.9,77.2
	L117.9,77.2z"/>
</svg>
