<?xml version="1.0" encoding="utf-8"?>
<!-- Generator: Adobe Illustrator 26.0.3, SVG Export Plug-In . SVG Version: 6.00 Build 0)  -->
<svg version="1.1" id="Ebene_1" xmlns="http://www.w3.org/2000/svg" xmlns:xlink="http://www.w3.org/1999/xlink" x="0px" y="0px"
	 viewBox="0 0 326.28 103.08" style="enable-background:new 0 0 326.28 103.08;" xml:space="preserve">
<style type="text/css">
	.st0{fill:#EA5D7B;}
</style>
<g>
	<path class="st0" d="M50.63,90.15v6.01H11.1v-6.01c3.52-3.49,5.29-14.62,5.29-33.4V52.8c0.04-1.74,0.06-3.43,0.06-5.07
		c0-17.7-1.86-29.35-5.57-34.96l-0.11-6.35L50.4,6.71l0.22,6.18c-4.79,2.75-7.18,15.05-7.18,36.91
		C43.44,71.76,45.84,85.21,50.63,90.15z"/>
	<path class="st0" d="M93.79,12.05c-2.12,1.48-3.17,3.17-3.17,5.07c0,0.45,0.06,0.93,0.17,1.45v0.39c0,5.98,5.32,12.51,15.98,19.59
		c4.75,3.82,9.63,9.46,14.64,16.92v-7.46c0-20.08-3.17-32.04-9.52-35.9l-0.06-5.84l32.23,0.11l0.33,6.29
		c-7.61,0-11.41,15.75-11.41,47.26c0,17.14,2.54,27.26,7.63,30.34v5.9h-30.5l-0.33-5.12c1.11-3.01,1.67-5.38,1.67-7.12
		C108.5,73.19,100.66,64,87.89,56.36c-6.79-5.57-11-10.09-12.64-13.58l-0.17,1.34v23.77c0.26,11.99,4.21,19.87,11.86,23.66
		l-0.17,4.62H53.99l0.06-6.79c5.75-0.41,8.63-12.34,8.63-35.79v-5.57c0-17.44-2.82-29.48-8.46-36.13l0.06-5.51l39.3-0.06
		L93.79,12.05z"/>
	<path class="st0" d="M145.82,96.16l0.06-7.12c1.3-0.45,2.3-1.63,3.01-3.56c2.67-12.1,4.01-23.66,4.01-34.68
		c0-11.95-1.56-23.58-4.68-34.9c-0.48-0.96-1.26-1.63-2.34-2V7.1c29.39-0.07,46.07-0.11,50.04-0.11h1.61
		c19.44,2.15,29.17,7.94,29.17,17.37v1.56l-24.21,6.9c-1.97-11.61-5.31-17.42-10.02-17.42h-1.56c-6.79,0-10.74,7.65-11.86,22.93
		l0.06,2.89c4.19-2.23,8.7-3.34,13.53-3.34c5.64,0,10.72,2.06,15.25,6.18c1.34,1.97,2,4.12,2,6.46c0,3.82-2.06,8.67-6.18,14.53
		c-5.9-4.93-11.02-7.98-15.36-9.13c-2.75-0.63-5.25-0.95-7.51-0.95h-1.39l0.39,14.53c0,9.39,2.89,15.49,8.68,18.31v8.35H145.82z"/>
	<path class="st0" d="M271.38,6.09h0.83c21.38,0,36.14,8.05,44.31,24.16c3.38,7.98,5.07,14.97,5.07,20.99
		c0,12.99-6.22,25.22-18.65,36.68c-9.24,6.01-19.76,9.02-31.56,9.02h-5.01c-29.43-3.04-44.75-18.28-45.98-45.7
		c0-17.55,9.63-31.28,28.89-41.19C256.93,7.41,264.29,6.09,271.38,6.09z M264.03,86.64c0.37,0.08,0.76,0.11,1.17,0.11
		c3.71,0,7.76-3.02,12.13-9.07c4.38-6.05,7.59-14.06,9.63-24.05c1.15-5.38,1.73-10.43,1.73-15.14c0-4.01-0.63-8.68-1.89-14.03
		c-1.26-5.34-3.92-8.35-7.96-9.02c-0.45-0.07-0.87-0.11-1.28-0.11c-3.64,0-7.65,3.02-12.02,9.04c-4.38,6.03-7.61,14.06-9.69,24.08
		c-1.15,5.38-1.73,10.43-1.73,15.14c0,4.01,0.63,8.68,1.89,14.03C257.28,82.97,259.95,85.97,264.03,86.64z"/>
</g>
</svg>
