<?xml version="1.0" encoding="UTF-8" standalone="no"?>
<!-- Created with Inkscape (http://www.inkscape.org/) -->

<svg
   version="1.1"
   id="svg2"
   width="896.09332"
   height="115.72"
   viewBox="0 0 896.09332 115.72"
   sodipodi:docname="Festool_Logo_Pantone361_eps.eps"
   xmlns:inkscape="http://www.inkscape.org/namespaces/inkscape"
   xmlns:sodipodi="http://sodipodi.sourceforge.net/DTD/sodipodi-0.dtd"
   xmlns="http://www.w3.org/2000/svg"
   xmlns:svg="http://www.w3.org/2000/svg">
  <defs
     id="defs6" />
  <sodipodi:namedview
     id="namedview4"
     pagecolor="#ffffff"
     bordercolor="#000000"
     borderopacity="0.25"
     inkscape:showpageshadow="2"
     inkscape:pageopacity="0.0"
     inkscape:pagecheckerboard="0"
     inkscape:deskcolor="#d1d1d1" />
  <g
     id="g8"
     inkscape:groupmode="layer"
     inkscape:label="ink_ext_XXXXXX"
     transform="matrix(1.3333333,0,0,-1.3333333,0,115.72)">
    <g
       id="g10"
       transform="scale(0.1)">
      <path
         d="M 836.926,867.828 H 30.9063 C 13.8633,867.828 0,853.965 0,836.922 V 30.8984 C 0,13.8672 13.8633,0 30.9063,0 H 203.621 c 17.043,0 30.906,13.8672 30.906,30.8984 V 318.75 c 0,14.707 11.973,26.68 26.684,26.68 h 518.121 c 17.055,0 30.934,13.855 30.934,30.91 v 115.148 c 0,17.047 -13.879,30.91 -30.934,30.91 H 261.211 c -14.711,0 -26.684,11.957 -26.684,26.657 v 115.148 c 0,14.699 11.973,26.66 26.684,26.66 h 575.715 c 17.039,0 30.902,13.864 30.902,30.903 v 115.156 c 0,17.043 -13.863,30.906 -30.902,30.906"
         style="fill:#47bb3a;fill-opacity:1;fill-rule:nonzero;stroke:none"
         id="path12" />
      <path
         d="m 6689.81,176.98 h -575.73 c -14.72,0 -26.68,11.954 -26.68,26.653 0,15.73 -0.7,630.121 -0.71,636.156 0.04,0.461 0.78,11.254 -6.75,19.414 -5.27,5.719 -13.17,8.633 -23.48,8.668 h -172.7 c -17.02,0 -30.87,-13.879 -30.87,-30.933 V 30.9453 c 0,-17.0508 13.85,-30.9335812 30.87,-30.9335812 h 806.05 c 17.03,0 30.89,13.8827812 30.89,30.9335812 V 146.074 c 0,17.039 -13.86,30.906 -30.89,30.906"
         style="fill:#47bb3a;fill-opacity:1;fill-rule:nonzero;stroke:none"
         id="path14" />
      <path
         d="M 1815.63,867.828 H 952.074 c -17.039,0 -30.902,-13.863 -30.902,-30.906 V 30.8984 C 921.172,13.8672 935.035,0 952.074,0 h 863.556 c 17.06,0 30.93,13.8672 30.93,30.8984 V 146.055 c 0,17.05 -13.87,30.91 -30.93,30.91 h -633.28 c -14.71,0 -26.68,11.961 -26.68,26.66 V 318.75 c 0,14.707 11.97,26.68 26.68,26.68 h 575.72 c 17.04,0 30.9,13.855 30.9,30.91 v 115.148 c 0,17.047 -13.86,30.91 -30.9,30.91 h -575.72 c -14.71,0 -26.68,11.957 -26.68,26.657 v 115.148 c 0,14.699 11.97,26.66 26.68,26.66 h 633.28 c 17.06,0 30.93,13.864 30.93,30.903 v 115.156 c 0,17.043 -13.87,30.906 -30.93,30.906"
         style="fill:#47bb3a;fill-opacity:1;fill-rule:nonzero;stroke:none"
         id="path16" />
      <path
         d="m 2650.42,867.828 h -575.7 c -96.41,0 -174.84,-78.433 -174.84,-174.84 V 520.273 c 0,-96.41 78.43,-174.843 174.84,-174.843 h 460.58 c 30.57,0 55.44,-24.883 55.44,-55.469 v -57.527 c 0,-30.586 -24.87,-55.469 -55.44,-55.469 h -374.21 c -14.7,0 -26.66,11.961 -26.66,26.66 0,17.051 -13.88,30.926 -30.93,30.926 h -172.69 c -17.06,0 -30.93,-13.875 -30.93,-30.926 V 174.836 C 1899.88,78.4297 1978.31,0 2074.72,0 h 575.7 c 96.42,0 174.85,78.4297 174.85,174.836 v 172.715 c 0,96.414 -78.43,174.847 -174.85,174.847 h -460.55 c -30.57,0 -55.44,24.868 -55.44,55.434 v 57.594 c 0,30.566 24.87,55.437 55.44,55.437 h 374.24 c 14.68,0 26.63,-11.961 26.63,-26.66 0,-17.039 13.86,-30.902 30.91,-30.902 h 172.74 c 17.03,0 30.88,13.863 30.88,30.902 v 28.785 c 0,96.407 -78.43,174.84 -174.85,174.84"
         style="fill:#47bb3a;fill-opacity:1;fill-rule:nonzero;stroke:none"
         id="path18" />
      <path
         d="m 3773.12,867.828 h -863.6 c -17.05,0 -30.91,-13.863 -30.91,-30.906 V 721.766 c 0,-17.039 13.86,-30.903 30.91,-30.903 h 287.86 c 14.7,0 26.66,-11.961 26.66,-26.66 V 30.8984 C 3224.04,13.8672 3237.91,0 3254.95,0 h 172.71 c 17.02,0 30.88,13.8672 30.88,30.8984 V 664.203 c 0,14.699 11.97,26.66 26.69,26.66 h 287.89 c 17.04,0 30.91,13.864 30.91,30.903 v 115.156 c 0,17.043 -13.87,30.906 -30.91,30.906"
         style="fill:#47bb3a;fill-opacity:1;fill-rule:nonzero;stroke:none"
         id="path20" />
      <path
         d="M 4548.2,635.426 V 232.434 c 0,-30.586 -24.89,-55.469 -55.49,-55.469 h -345.4 c -30.59,0 -55.46,24.883 -55.46,55.469 v 402.992 c 0,30.566 24.87,55.437 55.46,55.437 h 345.4 c 30.6,0 55.49,-24.871 55.49,-55.437 z m 59.72,232.402 h -575.71 c -96.45,0 -174.93,-78.433 -174.93,-174.84 V 174.836 C 3857.28,78.4297 3935.76,0 4032.21,0 h 575.71 c 96.39,0 174.82,78.4297 174.82,174.836 v 518.152 c 0,96.407 -78.43,174.84 -174.82,174.84"
         style="fill:#47bb3a;fill-opacity:1;fill-rule:nonzero;stroke:none"
         id="path22" />
      <path
         d="M 5548.5,635.438 V 232.441 c 0,-30.586 -24.87,-55.468 -55.44,-55.468 h -345.43 c -30.56,0 -55.43,24.882 -55.43,55.468 v 402.997 c 0,30.582 24.87,55.464 55.43,55.464 h 345.43 c 30.57,0 55.44,-24.882 55.44,-55.464 z m 59.69,232.402 H 5032.5 c -96.4,0 -174.84,-78.422 -174.84,-174.813 V 174.852 c 0,-96.4067 78.44,-174.8402812 174.84,-174.8402812 h 575.69 c 96.42,0 174.87,78.4335812 174.87,174.8402812 v 518.175 c 0,96.391 -78.45,174.813 -174.87,174.813"
         style="fill:#47bb3a;fill-opacity:1;fill-rule:nonzero;stroke:none"
         id="path24" />
    </g>
  </g>
</svg>
