<svg width="250" height="76" viewBox="0 0 250 76" fill="none" xmlns="http://www.w3.org/2000/svg">
<path fill-rule="evenodd" clip-rule="evenodd" d="M147 0H183V9.99999L157 10V36H147V0ZM149 2V34H155V8L181 7.99999V2H149Z" fill="white"/>
<path fill-rule="evenodd" clip-rule="evenodd" d="M133 0H143V36H133V23H107V13H133V0ZM135 2V15H109V21H135V34H141V2H135Z" fill="white"/>
<path fill-rule="evenodd" clip-rule="evenodd" d="M67 0H103V10H77V13H103V23L77 23V26H103V36H67V0ZM69 2V34H101V28H75V21L101 21V15H75V8H101V2H69Z" fill="white"/>
<path fill-rule="evenodd" clip-rule="evenodd" d="M187 0H223V36H187V0ZM189 2V34H221V2H189ZM195 8H215V28H195V8ZM197 10V26H213V10H197Z" fill="white"/>
<path fill-rule="evenodd" clip-rule="evenodd" d="M27 0H63V10H37V36H27V0ZM29 2V34H35V8H61V2H29Z" fill="white"/>
<path fill-rule="evenodd" clip-rule="evenodd" d="M160 40H170V76H160V40ZM162 42V74H168V42H162Z" fill="white"/>
<path fill-rule="evenodd" clip-rule="evenodd" d="M40 40H50V66H66V40H76V76H40V40ZM42 42V74H74V42H68V68H48V42H42Z" fill="white"/>
<path fill-rule="evenodd" clip-rule="evenodd" d="M250 76H240V50H224V76H214V40H250V76ZM248 74V42H216V74H222V48H242V74H248Z" fill="white"/>
<path fill-rule="evenodd" clip-rule="evenodd" d="M26 40H36V76H0V66H26V63H0V53H26L26 40ZM28 42L28 55H2V61H28V68H2V74H34V42H28Z" fill="white"/>
<path fill-rule="evenodd" clip-rule="evenodd" d="M146 40H156V76H146V63H120V53H146V40ZM148 42V55H122V61H148V74H154V42H148Z" fill="white"/>
<path fill-rule="evenodd" clip-rule="evenodd" d="M90 40H80V76H90V63H116V53H90V40ZM88 42V55H114V61H88V74H82V42H88Z" fill="white"/>
<path fill-rule="evenodd" clip-rule="evenodd" d="M174 40H210V76H174V40ZM176 42V74H208V42H176ZM182 48H202V68H182V48ZM184 50V66H200V50H184Z" fill="white"/>
</svg>
