<svg width="450" height="36" viewBox="0 0 450 36" fill="none" xmlns="http://www.w3.org/2000/svg">
<path fill-rule="evenodd" clip-rule="evenodd" d="M360 0H370V36H360V0ZM362 2V34H368V2H362Z" fill="white"/>
<path fill-rule="evenodd" clip-rule="evenodd" d="M240 0H250V26H266V0H276V36H240V0ZM242 2V34H274V2H268V28H248V2H242Z" fill="white"/>
<path fill-rule="evenodd" clip-rule="evenodd" d="M450 36H440V10H424V36H414V0H450V36ZM448 34V2H416V34H422V8H442V34H448Z" fill="white"/>
<path fill-rule="evenodd" clip-rule="evenodd" d="M226 0H236V36H200V26H226V23H200V13H226L226 0ZM228 2L228 15H202V21H228V28H202V34H234V2H228Z" fill="white"/>
<path fill-rule="evenodd" clip-rule="evenodd" d="M120 0H156V9.99999L130 10V36H120V0ZM122 2V34H128V8L154 7.99999V2H122Z" fill="white"/>
<path fill-rule="evenodd" clip-rule="evenodd" d="M106 0H116V36H106V23H80V13H106V0ZM108 2V15H82V21H108V34H114V2H108Z" fill="white"/>
<path fill-rule="evenodd" clip-rule="evenodd" d="M346 0H356V36H346V23H320V13H346V0ZM348 2V15H322V21H348V34H354V2H348Z" fill="white"/>
<path fill-rule="evenodd" clip-rule="evenodd" d="M290 0H280V36H290V23H316V13H290V0ZM288 2V15H314V21H288V34H282V2H288Z" fill="white"/>
<path fill-rule="evenodd" clip-rule="evenodd" d="M40 0H76V10H50V13H76V23L50 23V26H76V36H40V0ZM42 2V34H74V28H48V21L74 21V15H48V8H74V2H42Z" fill="white"/>
<path fill-rule="evenodd" clip-rule="evenodd" d="M160 0H196V36H160V0ZM162 2V34H194V2H162ZM168 8H188V28H168V8ZM170 10V26H186V10H170Z" fill="white"/>
<path fill-rule="evenodd" clip-rule="evenodd" d="M0 0H36V10H10V36H0V0ZM2 2V34H8V8H34V2H2Z" fill="white"/>
<path fill-rule="evenodd" clip-rule="evenodd" d="M374 0H410V36H374V0ZM376 2V34H408V2H376ZM382 8H402V28H382V8ZM384 10V26H400V10H384Z" fill="white"/>
</svg>
