<svg width="252" height="78" viewBox="0 0 252 78" fill="none" xmlns="http://www.w3.org/2000/svg">
<path fill-rule="evenodd" clip-rule="evenodd" d="M148 1H184V11L158 11V37H148V1ZM150 3V35H156V9L182 8.99999V3H150Z" fill="white" stroke="white" stroke-width="2"/>
<path fill-rule="evenodd" clip-rule="evenodd" d="M134 1H144V37H134V24H108V14H134V1ZM136 3V16H110V22H136V35H142V3H136Z" fill="white" stroke="white" stroke-width="2"/>
<path fill-rule="evenodd" clip-rule="evenodd" d="M68 1H104V11H78V14H104V24L78 24V27H104V37H68V1ZM70 3V35H102V29H76V22L102 22V16H76V9H102V3H70Z" fill="white" stroke="white" stroke-width="2"/>
<path fill-rule="evenodd" clip-rule="evenodd" d="M188 1H224V37H188V1ZM190 3V35H222V3H190ZM196 9H216V29H196V9ZM198 11V27H214V11H198Z" fill="white" stroke="white" stroke-width="2"/>
<path fill-rule="evenodd" clip-rule="evenodd" d="M28 1H64V11H38V37H28V1ZM30 3V35H36V9H62V3H30Z" fill="white" stroke="white" stroke-width="2"/>
<path fill-rule="evenodd" clip-rule="evenodd" d="M161 41H171V77H161V41ZM163 43V75H169V43H163Z" fill="white" stroke="white" stroke-width="2"/>
<path fill-rule="evenodd" clip-rule="evenodd" d="M41 41H51V67H67V41H77V77H41V41ZM43 43V75H75V43H69V69H49V43H43Z" fill="white" stroke="white" stroke-width="2"/>
<path fill-rule="evenodd" clip-rule="evenodd" d="M251 77H241V51H225V77H215V41H251V77ZM249 75V43H217V75H223V49H243V75H249Z" fill="white" stroke="white" stroke-width="2"/>
<path fill-rule="evenodd" clip-rule="evenodd" d="M27 41H37V77H1V67H27V64H1V54H27L27 41ZM29 43L29 56H3V62H29V69H3V75H35V43H29Z" fill="white" stroke="white" stroke-width="2"/>
<path fill-rule="evenodd" clip-rule="evenodd" d="M147 41H157V77H147V64H121V54H147V41ZM149 43V56H123V62H149V75H155V43H149Z" fill="white" stroke="white" stroke-width="2"/>
<path fill-rule="evenodd" clip-rule="evenodd" d="M91 41H81V77H91V64H117V54H91V41ZM89 43V56H115V62H89V75H83V43H89Z" fill="white" stroke="white" stroke-width="2"/>
<path fill-rule="evenodd" clip-rule="evenodd" d="M175 41H211V77H175V41ZM177 43V75H209V43H177ZM183 49H203V69H183V49ZM185 51V67H201V51H185Z" fill="white" stroke="white" stroke-width="2"/>
</svg>
