<svg width="400" height="400" viewBox="0 0 400 400" fill="none" xmlns="http://www.w3.org/2000/svg">
<g clip-path="url(#clip0_604_2)">
<rect width="400" height="400" fill="white"/>
<path d="M0 200V0H400V400H0V200ZM217.94 366.25C226.19 360.34 232.94 354.88 232.94 354.12C232.94 353 231.45 352.87 224.94 353.44L216.94 354.14V349C216.94 342.95 216.43 337.38 219 336.58C220 336.27 226.82 335.31 230.94 334.45C259.182 328.687 285.118 314.781 305.55 294.45C311.193 288.869 316.473 282.934 321.36 276.68C333 261 343.17 238 347.49 218C349.7 207.8 350.58 180.9 349.07 169.5C347.78 159.72 344.35 145.01 343.07 143.66C342.27 142.84 319.31 149.44 317.72 150.95C317.28 151.37 317.87 155.27 319.05 159.61C322.05 170.61 322.9 196.78 320.68 209.52C316.329 233.874 304.633 256.315 287.16 273.83C266.32 294.74 240.7 306.46 209.76 309.21C195.67 310.47 192.38 311.74 189.02 317.21C187.25 320.12 187.02 322.27 187.02 337.27V354.07L178.39 353.37C171.9 352.85 169.85 352.97 170.15 353.86C170.67 355.42 200.15 376.97 201.75 376.97C202.4 377 209.7 372.16 217.94 366.25ZM176.67 323.43C179.5 309.61 179.58 307 177.18 307C173.04 307 157.79 301.62 147.5 296.54C118.91 282.4 98.01 258.54 87.1 227.62C82.76 215.33 80.93 203.75 80.93 188.5C80.93 168.92 84.22 154.07 92.61 136.1C97.61 125.44 97.93 122.26 94.75 115.98C92.75 111.98 91.33 110.92 79.14 104.36C71.79 100.36 65.39 96.79 64.92 96.36C64.45 95.93 65.92 92.69 68.19 89.23C70.59 85.58 71.94 82.6 71.41 82.11C70.88 81.62 59.41 87.42 49.79 91.94C29.63 101.34 35 94.92 38.3 120C40.8 138.71 40 141.36 45.61 130.53C47.24 127.38 48.39 124.21 48.82 123.78C49.25 123.35 52.04 124.47 55.03 126.25C62.51 130.73 63.03 132.66 59.68 143.7C54.28 161.47 53.51 167.1 53.5 188.5C53.5 204.03 53.91 210.4 55.31 217C67.52 274.26 107.82 317.08 164 332.51C168.67 333.8 172.94 334.73 173.47 334.6C174 334.47 175.45 329.44 176.67 323.43ZM141.78 244.43C144.755 242.964 147.542 241.144 150.08 239.01L154.66 235.14L155.92 240.06L157.18 244.98H179V165H196V245.76L208.75 245.63L221.5 245.5L221.76 205.25L222 165H240.49C250.66 165 258.98 165.29 258.98 165.64C258.98 165.99 252.66 179.31 244.98 195.24L230.98 224.24L231.27 234.88L231.55 245.53L261.3 245.79L291 246V223L275.7 222.72L260.41 222.45L274.18 193.45L287.96 164.45L287.69 154.45L287.43 144.45L255 144.27L222.5 144L222.22 133C222.06 126.94 221.76 122 221.55 122C221.17 122 201.04 129.2 197.75 130.51C196.34 131.08 196 132.45 196 137.61C196 142.03 195.61 144.01 194.75 144.05C194.06 144.05 186.9 144.05 178.82 144C170.74 143.95 161.82 144.21 159.07 144.58L154 145.26V218L150.75 220C146.75 222.43 140.32 222.59 137.83 220.33C136.12 218.79 136 216.26 136 181.83V145H111V186.82C111 232.12 111.41 236.22 116.39 240.89C121.59 245.78 134.32 247.56 141.78 244.45V244.43ZM339.78 130.51C347.33 126.4 353.84 123.38 354.25 123.79C355.706 125.819 356.78 128.096 357.42 130.51C361.07 144.01 362.37 139.31 364.87 119.77C366.09 110.26 367.07 101.43 367.06 100.16C367.06 98.16 364.75 96.72 349.79 89.5C339.79 84.67 332.15 81.5 331.62 82.04C331.09 82.58 332.39 85.32 334.87 88.86C336.425 90.9394 337.807 93.1436 339 95.45C339 96.86 326.95 101.71 324.57 101.26C322.99 100.96 319.32 97.54 314.57 91.93C301.708 76.954 285.999 64.6822 268.355 55.827C250.711 46.9717 231.484 41.7094 211.79 40.3455C192.096 38.9817 172.327 41.5434 153.631 47.8821C134.935 54.2207 117.684 64.21 102.88 77.27C94.68 84.48 86.27 93.62 87.11 94.42C89.2 96.4 107.58 111 108 111C108.42 111 112.12 107.35 116.52 102.89C130.88 88.33 150.79 77 172 71.2C180.73 68.83 182.7 68.2 201.07 68.2C219.78 68.2 222.57 68.38 231.86 70.94C264.17 79.84 288.44 98.94 306.27 127.94C310.83 135.36 314.77 138.01 321.27 138.02C325.3 138 328.11 136.86 339.74 130.53L339.78 130.51Z" fill="#0B3E75"/>
</g>
<defs>
<clipPath id="clip0_604_2">
<rect width="400" height="400" fill="white"/>
</clipPath>
</defs>
</svg>
