<svg width="279" height="279" viewBox="0 0 279 279" fill="none" xmlns="http://www.w3.org/2000/svg">
<g id="gum">
<g id="Group">
<path id="Vector" d="M139.2 278.4C216.078 278.4 278.4 216.078 278.4 139.2C278.4 62.322 216.078 0 139.2 0C62.322 0 0 62.322 0 139.2C0 216.078 62.322 278.4 139.2 278.4Z" fill="#EA5D7B"/>
<path id="Vector_2" d="M189.72 32.19C189.72 32.19 248.77 55.5 252.55 110.85C256.27 165.34 227.04 112.85 213.34 84.8C195.78 48.84 142.95 14.65 189.72 32.19Z" fill="#F08EB8"/>
<path id="Vector_3" d="M240.66 150.42C235.25 152.1 241.65 171.3 233.65 187.49C221.13 212.82 199.12 242.54 217.62 230.07C240.66 214.55 271.11 140.97 240.66 150.42Z" fill="#F08EB8"/>
</g>
</g>
</svg>
