<svg width="567" height="92" viewBox="0 0 567 92" fill="none" xmlns="http://www.w3.org/2000/svg">
<g id="galerie">
<path id="Vector" d="M63.8701 91.1801C51.0701 91.6601 43.5901 91.9001 41.4401 91.9001C25.3701 91.9001 12.8501 83.2501 3.87009 65.9601C1.68009 60.9101 0.590088 54.7401 0.590088 47.4201C0.590088 26.6801 9.27009 12.1501 26.6401 3.84006C33.1301 1.65006 38.8501 0.560059 43.7801 0.560059H43.8901C45.5201 0.560059 51.1401 1.65006 60.7601 3.84006C64.6201 4.43006 68.6301 4.73006 72.7801 4.73006H73.5001C76.5401 4.58006 80.5301 3.62006 85.4701 1.84006C86.9901 4.36006 87.7501 6.44006 87.7501 8.07006C86.8201 20.8401 81.9401 28.0201 73.1101 29.6101H71.3801C62.3201 29.6101 54.7201 22.9101 48.5601 9.52006C46.9601 8.63006 45.5201 8.18006 44.2201 8.18006C43.1401 8.18006 42.1801 8.59006 41.3301 9.40006C37.8801 12.0001 36.1501 18.3601 36.1501 28.4901V57.6601C36.1501 67.4201 38.6501 75.3101 43.6601 81.3201C45.7401 82.6901 47.7801 83.3801 49.7801 83.3801L60.2401 82.9301C63.9901 82.0401 67.0301 76.7301 69.3701 67.0101C68.5901 62.9301 64.5101 60.8901 57.1201 60.8901H55.5101C54.6201 59.2601 54.1701 58.0301 54.1701 57.2201C57.5801 47.5701 64.6701 42.7501 75.4301 42.7501H77.9301C87.9901 44.0901 93.7201 51.3201 95.1301 64.4601C95.1501 78.5301 84.7201 87.4301 63.8701 91.1801Z" fill="#EA5D7B"/>
<path id="Vector_2" d="M120.45 50.44C119.52 54.56 118.37 59.49 117 65.25C116 70.19 115.5 75.33 115.5 80.67V81.45C115.5 83.2 116.04 84.34 117.11 84.9L117.17 91.19H89.78L89.5 84.9C92.1 84.12 94.71 81.6 97.35 77.33C102.54 68.42 106.59 58.13 109.48 46.44C108.77 46.11 107.83 45.59 106.64 44.88C105.19 44.06 103.93 43.66 102.85 43.66C100.99 43.66 99.31 45.42 97.78 48.95C92.84 47.69 90.1 45.09 89.54 41.16C90.17 30.84 95.79 25.61 106.41 25.46C109.86 25.68 112.44 26.15 114.15 26.85C114.71 24.14 115.13 21.14 115.43 17.83L114.6 1.73999L158.69 2.01999C158.65 4.53999 158.63 6.67999 158.63 8.41999C158.63 28.42 161.9 46.72 168.43 63.3C173.14 76.77 176.39 83.51 178.17 83.51L178.5 91.19H136.86V85.12C138.34 83.82 139.09 80.44 139.09 74.99C139.09 74.21 139.07 73.4 139.03 72.54C139.03 65.86 138.64 59.09 137.86 52.22C137.08 52.33 135.82 52.39 134.07 52.39C130.73 52.39 127.35 52 123.94 51.22C122.22 50.88 121.05 50.62 120.45 50.44ZM130.7 15.54C129.81 13.2 129.23 12.03 128.97 12.03C128.49 12.03 127.8 14.7 126.91 20.05C126.2 23.91 125.33 28.31 124.29 33.24C127.59 35.95 131.62 38.21 136.37 40.03C135.15 32.61 133.26 24.44 130.7 15.54Z" fill="#EA5D7B"/>
<path id="Vector_3" d="M263.9 67.3599C263.9 77.7499 256.76 85.2099 242.47 89.7399C239.58 90.6699 235.33 91.2099 229.72 91.3499C228.09 91.3499 222.33 91.2899 212.46 91.1799H181.07V85.1699C184.59 81.6799 186.36 70.5499 186.36 51.7699V47.8199C186.4 46.0799 186.42 44.3899 186.42 42.7499C186.42 25.0499 184.56 13.3999 180.85 7.78994L180.74 1.43994L220.37 1.71994L220.59 7.89994C215.8 10.6499 213.41 22.9499 213.41 44.8099C213.41 60.3999 214.54 71.5299 216.81 78.2099C222.67 79.5499 228.15 80.2299 233.23 80.2699H233.45C238.35 80.2699 241.24 77.7699 242.13 72.7599C242.2 72.2799 242.24 71.8099 242.24 71.3699C242.24 67.0299 238.16 63.9899 229.99 62.2399C229.36 59.6799 229.04 57.3199 229.04 55.1699C229.04 49.4199 231.36 45.1699 236 42.4199C238.19 41.1199 240.55 40.4699 243.07 40.4699C247.82 40.4699 253.15 42.8299 259.05 47.5399C262.07 51.6599 263.68 58.2699 263.9 67.3599Z" fill="#EA5D7B"/>
<path id="Vector_4" d="M295.83 38.36C301.43 34.61 307.2 32.74 313.14 32.74C318.93 32.74 324.11 34.99 328.67 39.48C330.01 41.45 330.67 43.6 330.67 45.94C330.67 49.76 328.61 54.61 324.49 60.47C318.59 55.54 313.47 52.49 309.13 51.34C306.35 50.71 303.8 50.39 301.5 50.39C299.16 50.39 297.38 50.61 296.16 51.06L296.49 64.92C296.49 77.65 301.46 84.14 311.41 84.4C315.01 84.14 317.83 78.37 319.87 67.09L344.86 66.2C344.45 77.89 338.44 86.35 326.82 91.58L264.48 91.19H262.53V84.4C263.72 84.03 264.61 83.14 265.2 81.73C268.09 69.41 269.54 57.57 269.54 46.22C269.54 33.64 267.96 21.62 264.81 10.15C264.33 9.22004 263.57 8.57004 262.53 8.20004V1.40004C291.92 1.33004 308.6 1.29004 312.57 1.29004H314.18C333.62 3.44004 343.35 9.23004 343.35 18.66V20.22L319.14 27.12C317.17 15.51 313.83 9.70004 309.12 9.70004H307.56C300.77 9.70004 296.82 17.72 295.7 33.75L295.83 38.36Z" fill="#EA5D7B"/>
<path id="Vector_5" d="M377.39 50.9399C377.69 69.1599 380.06 80.5699 384.51 85.1699V91.1799H345V85.1699C348.52 81.6799 350.29 70.5499 350.29 51.7699V47.8199C350.33 46.0799 350.35 44.3899 350.35 42.7499C350.35 25.0499 348.49 13.3999 344.78 7.78994L344.67 1.43994L378.63 1.65994C388.13 1.87994 396.33 2.06994 403.23 2.21994C418.67 3.77994 428.06 8.83994 431.4 17.4199L432.18 22.2099V23.8199C432.18 32.2799 427.75 38.9799 418.88 43.9099C416.35 45.3599 411.85 46.0799 405.35 46.0799H403.96C414.94 47.6799 420.88 52.8299 421.77 61.5499C423.25 67.2299 425.3 70.0899 427.89 70.1199H428.06C430.44 70.1199 431.81 67.6699 432.18 62.7699C437.71 64.5199 440.47 68.2999 440.47 74.1299V75.6899C438.8 86.5199 431.26 91.9399 417.87 91.9399C416.98 91.9399 416.01 91.9199 414.97 91.8799C405.14 89.9099 399.31 86.2899 397.49 80.9999C395.67 75.7099 393.43 66.7599 390.75 54.1399C388.3 51.9899 385.63 50.9099 382.73 50.9099H377.39V50.9399ZM377.39 39.4199H385.68C396.7 37.7099 402.21 32.5399 402.21 23.8899C402.28 23.0399 402.32 22.1999 402.32 21.3899C402.32 13.8599 399.48 10.0899 393.8 10.0899L382.17 9.91994C379.29 13.4799 377.69 23.3099 377.39 39.4199Z" fill="#EA5D7B"/>
<path id="Vector_6" d="M481.38 85.1699V91.1799H441.86V85.1699C445.39 81.6799 447.15 70.5499 447.15 51.7699V47.8199C447.19 46.0799 447.21 44.3899 447.21 42.7499C447.21 25.0499 445.35 13.3999 441.64 7.78994L441.53 1.43994L481.16 1.71994L481.38 7.89994C476.59 10.6499 474.2 22.9499 474.2 44.8099C474.2 66.7799 476.59 80.2399 481.38 85.1699Z" fill="#EA5D7B"/>
<path id="Vector_7" d="M517.61 38.36C523.21 34.61 528.98 32.74 534.92 32.74C540.71 32.74 545.89 34.99 550.45 39.48C551.79 41.45 552.45 43.6 552.45 45.94C552.45 49.76 550.39 54.61 546.27 60.47C540.37 55.54 535.25 52.49 530.91 51.34C528.13 50.71 525.58 50.39 523.28 50.39C520.94 50.39 519.16 50.61 517.94 51.06L518.27 64.92C518.27 77.65 523.24 84.14 533.19 84.4C536.79 84.14 539.61 78.37 541.65 67.09L566.64 66.2C566.23 77.89 560.22 86.35 548.6 91.58L486.26 91.19H484.31V84.4C485.5 84.03 486.39 83.14 486.98 81.73C489.87 69.41 491.32 57.57 491.32 46.22C491.32 33.64 489.74 21.62 486.59 10.15C486.11 9.22004 485.35 8.57004 484.31 8.20004V1.40004C513.7 1.33004 530.38 1.29004 534.35 1.29004H535.96C555.41 3.44004 565.13 9.23004 565.13 18.66V20.22L540.92 27.12C538.95 15.51 535.61 9.70004 530.9 9.70004H529.34C522.55 9.70004 518.6 17.72 517.48 33.75L517.61 38.36Z" fill="#EA5D7B"/>
</g>
</svg>
