<?xml version="1.0" encoding="UTF-8" standalone="no"?>
<!-- Created with Inkscape (http://www.inkscape.org/) -->

<svg
   width="201.55104mm"
   height="65.624306mm"
   viewBox="0 0 201.55104 65.624306"
   version="1.1"
   id="svg5"
   xml:space="preserve"
   xmlns="http://www.w3.org/2000/svg"
   xmlns:svg="http://www.w3.org/2000/svg"><defs
     id="defs2"><rect
       x="162.06068"
       y="148.22624"
       width="454.56049"
       height="88.935745"
       id="rect1700" /><rect
       x="162.06068"
       y="148.22624"
       width="454.56049"
       height="88.935745"
       id="rect2008-1" /><rect
       x="162.06068"
       y="148.22624"
       width="454.56049"
       height="88.935745"
       id="rect1700-5-8" /></defs><g
     id="layer9"
     style="display:inline"
     transform="translate(-4.2233897,-9.6949479)"><g
       id="ellipse265210"><path
         style="color:#000000;fill:#000000;stroke-width:1.06268;stroke-linecap:round;-inkscape-stroke:none"
         d="M 95.407726,40.430141 A 28.507732,22.827972 0 0 1 66.899994,63.258114 28.507732,22.827972 0 0 1 38.392262,40.430141 28.507732,22.827972 0 0 1 66.899994,17.602169 28.507732,22.827972 0 0 1 95.407726,40.430141 Z"
         id="path245896" /><path
         style="color:#000000;fill:#000000;stroke-linecap:round;-inkscape-stroke:none"
         d="m 66.900391,17.070312 c -15.974315,0 -29.039063,10.393243 -29.039063,23.359375 -10e-7,12.966133 13.064747,23.359375 29.039063,23.359375 15.974315,0 29.039063,-10.393242 29.039062,-23.359375 0,-12.966132 -13.064747,-23.359374 -29.039062,-23.359375 z m 0,1.0625 c 15.514424,0 27.976562,10.047951 27.976562,22.296875 10e-7,12.248925 -12.462137,22.296875 -27.976562,22.296875 -15.514426,10e-7 -27.976564,-10.04795 -27.976563,-22.296875 0,-12.248924 12.462138,-22.296874 27.976563,-22.296875 z"
         id="path245898" /></g><g
       id="circle206707"><path
         style="color:#000000;fill:#fff700;stroke-linecap:round;-inkscape-stroke:none"
         d="M 93.251362,40.430141 A 26.351368,21.869286 0 0 1 66.899994,62.299427 26.351368,21.869286 0 0 1 40.548626,40.430141 26.351368,21.869286 0 0 1 66.899994,18.560856 26.351368,21.869286 0 0 1 93.251362,40.430141 Z"
         id="path245890" /><path
         style="color:#000000;fill:#000000;stroke-linecap:round;-inkscape-stroke:none"
         d="m 66.900391,18.060547 c -14.777702,0 -26.851562,9.965479 -26.851563,22.36914 0,12.403663 12.07386,22.369141 26.851563,22.369141 14.777702,0 26.851562,-9.965478 26.851562,-22.369141 -10e-7,-12.403661 -12.07386,-22.36914 -26.851562,-22.36914 z m 0,1 c 14.329185,0 25.851561,9.616681 25.851562,21.36914 0,11.752461 -11.522377,21.369141 -25.851562,21.369141 -14.329186,0 -25.851563,-9.61668 -25.851563,-21.369141 10e-7,-11.752459 11.522377,-21.36914 25.851563,-21.36914 z"
         id="path245892" /></g></g><g
     id="layer8"
     transform="translate(-4.2233897,-9.6949479)"><g
       id="path435987"><path
         style="color:#000000;fill:#ffffff;stroke-width:0.8;stroke-linecap:square;stroke-miterlimit:2.5;-inkscape-stroke:none"
         d="m 165.08239,25.177449 c -0.63623,0.671856 -0.40459,1.338939 0.0308,1.944553 3.15501,4.116097 7.95688,3.318815 8.40127,0.809735 0.44443,-2.509073 -2.28889,-1.122467 -2.28889,-1.122467 -0.0617,-2.977168 8.68186,2.765585 9.95588,-0.09506 1.27399,-2.86064 -1.72975,-1.854554 -1.72975,-1.854554 0.65192,-1.85805 5.11288,1.720021 7.57482,1.56217 2.46195,-0.157843 0.37313,-1.919501 2.09199,-2.738186 1.71883,-0.81869 2.60866,-1.942804 0.55994,-2.911001 0.16076,-0.130556 1.81847,-1.504433 3.67916,-0.437873 1.8607,1.066563 3.97541,1.75107 5.77319,0.934131 1.79778,-0.816937 2.61164,-3.448297 1.44997,-3.930719 -1.16167,-0.48242 -2.9392,2.045839 -4.04102,0.714983 0,0 3.66002,0.56138 3.50618,-2.813881 -0.15383,-3.37526 -3.92932,-2.05371 -3.92932,-2.05371 0.36917,-2.44186 -3.96009,-3.7495368 -6.28586,-2.742308 -2.32576,1.007231 -5.51851,2.820162 -4.13325,4.986663 1.38525,2.166499 3.27135,-0.134201 3.27135,-0.134201 -0.26222,2.008383 -4.77144,1.483163 -3.80017,-1.428361 0.97129,-2.911522 -2.96794,-4.0071198 -6.26126,-2.741135 -0.82332,0.316495 -2.43128,2.937527 0.1793,4.41715 2.07937,1.178539 2.7108,0.791073 2.7108,0.791073 0.90978,2.453981 -3.00911,-0.721407 -3.37182,-1.076688 -0.43143,-0.42258 -1.9002,-1.524054 -3.01608,-0.642673 -1.13243,0.894437 -0.98948,2.446791 0.56975,3.346194 0,0 -0.28991,0.213579 -0.63014,0.879306 -0.37556,0.734848 0.14913,1.581421 -0.79827,1.994987 -0.94739,0.413565 2.17666,1.072442 1.88008,1.964316 -0.29654,0.891881 -0.6057,-0.101577 -2.43384,0.02368 -1.82815,0.125198 -4.79305,2.763023 -6.08374,2.921598 -1.29067,0.158576 -2.19475,-1.239522 -2.83099,-0.567672 z"
         id="path208081" /><path
         style="color:#000000;fill:#000000;stroke-linecap:square;stroke-miterlimit:2.5;-inkscape-stroke:none"
         d="m 191.85547,9.6972656 c -0.77346,-0.020698 -1.53166,0.096571 -2.1836,0.3789064 -1.18193,0.511869 -2.59053,1.221623 -3.57226,2.132812 -0.28346,0.263095 -0.41357,0.595174 -0.60742,0.900391 0.003,-0.441807 0.12071,-0.926069 -0.082,-1.277344 -0.34318,-0.594586 -0.93332,-1.012287 -1.63282,-1.27539 -1.39899,-0.526207 -3.28108,-0.470712 -5.01367,0.195312 -0.33772,0.129825 -0.61063,0.399732 -0.86719,0.75586 -0.25655,0.356127 -0.4775,0.805221 -0.58007,1.310546 -0.0858,0.422717 -5.7e-4,0.892147 0.14648,1.34961 -0.0632,-0.0288 -0.0782,-0.06795 -0.14453,-0.09375 -0.63619,-0.247411 -1.46772,-0.317274 -2.15625,0.226562 -0.66097,0.522058 -0.98279,1.288693 -0.87305,2.042969 0.0905,0.622283 0.52077,1.186471 1.13086,1.654297 -0.12564,0.159284 -0.26932,0.350194 -0.42773,0.660156 -0.25046,0.490066 -0.19774,0.962314 -0.22657,1.261719 -0.0144,0.149702 -0.0409,0.251454 -0.0859,0.326172 -0.0451,0.07472 -0.11048,0.144699 -0.28907,0.222656 -0.0866,0.0378 -0.16705,0.08119 -0.24609,0.15625 -0.079,0.07506 -0.15628,0.198899 -0.16992,0.337891 -0.0273,0.277984 0.13389,0.430986 0.25,0.53125 0.23222,0.200527 0.52572,0.335428 0.83594,0.498046 0.31022,0.162619 0.62717,0.338751 0.81445,0.492188 0.0936,0.07672 0.15091,0.147493 0.16797,0.179687 0.0171,0.03219 0.009,0.005 0.008,0.0098 -0.0181,0.05452 -0.0268,0.06458 -0.0391,0.08984 4.4e-4,-0.006 0.0213,-0.0017 -0.0898,-0.04102 -0.32453,-0.114737 -0.96361,-0.366491 -1.95117,-0.298828 -1.09041,0.07467 -2.28807,0.808813 -3.42578,1.507813 -0.56885,0.349499 -1.1156,0.69619 -1.58789,0.958984 -0.47229,0.262794 -0.88395,0.431495 -1.0918,0.457031 -0.49289,0.06056 -0.95054,-0.183476 -1.42578,-0.433594 -0.23762,-0.125058 -0.47239,-0.252645 -0.75781,-0.302734 -0.15798,-0.02772 -0.32049,0.09854 -0.49219,0.160156 l -0.17187,-0.107422 -0.22656,0.238282 c -0.38023,0.401516 -0.5359,0.877593 -0.49219,1.3125 0.0437,0.434907 0.25153,0.808598 0.49023,1.140625 l 0.002,0.0059 0.004,0.0039 c 1.6447,2.145708 3.75101,3.045193 5.53516,3.046875 1.78415,0.0017 3.31405,-0.919161 3.57812,-2.410156 0.1075,-0.606903 -0.0106,-1.032325 -0.23047,-1.376953 0.61687,0.147413 1.17687,0.255091 1.91016,0.476562 1.17051,0.353523 2.39171,0.71899 3.45508,0.814454 0.53168,0.04773 1.02862,0.03099 1.4707,-0.119141 0.44209,-0.150134 0.82925,-0.461958 1.0332,-0.919922 0.32314,-0.725564 0.39235,-1.253073 0.26758,-1.703125 0.21482,0.08258 0.35641,0.0984 0.58789,0.197266 1.4885,0.635706 3.21144,1.541479 4.65039,1.449218 0.66651,-0.04273 1.11659,-0.195656 1.39649,-0.511718 0.27989,-0.316062 0.30252,-0.704541 0.30273,-1.007813 2.2e-4,-0.303272 -0.0114,-0.563056 0.0449,-0.751953 0.0564,-0.188897 0.14311,-0.336708 0.49415,-0.503906 0.89938,-0.428385 1.63963,-0.910123 1.89648,-1.625 0.12842,-0.357439 0.0772,-0.786577 -0.16211,-1.128906 -0.12842,-0.18368 -0.41522,-0.318739 -0.63086,-0.472657 0.52214,-0.354435 1.47862,-0.873319 2.76367,-0.136718 1.91008,1.094868 4.15672,1.851802 6.13867,0.951171 1.02546,-0.465981 1.73022,-1.406323 2.04688,-2.324218 0.15833,-0.458948 0.22239,-0.916609 0.14648,-1.337891 -0.0759,-0.421282 -0.33121,-0.825606 -0.75586,-1.001953 -0.2639,-0.109597 -0.51301,0.0071 -0.76953,0.05859 0.28308,-0.479566 0.51595,-1.02834 0.48047,-1.806641 -0.0419,-0.91934 -0.34513,-1.590359 -0.80469,-2.019531 -0.45955,-0.429172 -1.04115,-0.601132 -1.58007,-0.652344 -0.88118,-0.08374 -1.42424,0.127393 -1.69727,0.212891 -0.0467,-0.52018 -0.10725,-1.049769 -0.44336,-1.4375 -0.44929,-0.518308 -1.08366,-0.907111 -1.79297,-1.177735 -0.70931,-0.270623 -1.49802,-0.4285206 -2.27148,-0.4492184 z m -0.0195,0.8125004 c 0.68086,0.01752 1.38828,0.149141 2.00586,0.384765 0.61757,0.235624 1.14136,0.570948 1.47265,0.953125 0.33129,0.382178 0.48048,0.786353 0.40625,1.277344 l -0.0996,0.658203 0.62696,-0.220703 c 0,0 0.88993,-0.297412 1.73828,-0.216797 0.42417,0.04031 0.81581,0.169078 1.10742,0.441406 0.29161,0.272329 0.51772,0.702415 0.55273,1.470704 0.0352,0.772251 -0.14275,1.262757 -0.40234,1.603515 -0.25959,0.340758 -0.62109,0.546524 -1.01367,0.669922 -0.78517,0.246796 -1.63086,0.126953 -1.63086,0.126953 l -0.36719,0.650391 c 0.0718,0.08677 0.18272,0.0426 0.26563,0.107422 l -0.0195,0.0332 c 0,0 0.0806,-0.0064 0.084,-0.0059 0.30714,0.215244 0.63152,0.429478 0.95898,0.388672 0.4403,-0.05486 0.83484,-0.259109 1.21094,-0.46875 0.37611,-0.20964 0.73544,-0.432741 1.03906,-0.5625 0.30363,-0.129759 0.51349,-0.153036 0.65625,-0.09375 0.15619,0.06486 0.23336,0.170989 0.27539,0.404297 0.042,0.233308 0.009,0.574235 -0.11523,0.935547 -0.24929,0.722623 -0.85072,1.506467 -1.62305,1.857422 -1.6136,0.733246 -3.59688,0.12224 -5.4082,-0.916016 -2.07819,-1.191235 -3.99153,0.361459 -4.13086,0.47461 l -0.49219,0.40039 0.57422,0.271485 c 0.47503,0.224493 0.74504,0.448903 0.86133,0.615234 0.1163,0.166331 0.1192,0.251487 0.0664,0.398437 -0.1056,0.293901 -0.66884,0.783524 -1.48828,1.173829 -0.5084,0.242144 -0.80562,0.621445 -0.91797,0.998046 -0.11236,0.376602 -0.078,0.721261 -0.0781,0.980469 -1.8e-4,0.259208 -0.025,0.392337 -0.0996,0.476563 -0.0746,0.08423 -0.28709,0.209904 -0.85156,0.246093 -1.02298,0.06559 -2.76275,-0.739318 -4.2832,-1.388671 -0.76023,-0.324677 -1.4692,-0.606782 -2.10157,-0.689454 -0.31618,-0.04134 -0.62285,-0.03517 -0.9082,0.08594 -0.28535,0.12111 -0.52109,0.376895 -0.63281,0.695312 l -0.27149,0.771485 0.77539,-0.259766 c 0,0 0.72076,-0.20717 1.14649,-0.130859 0.21286,0.03815 0.29265,0.08273 0.34375,0.236328 0.0511,0.1536 0.0463,0.537275 -0.25195,1.207031 -0.11455,0.257197 -0.28086,0.393297 -0.56055,0.488281 -0.27969,0.09498 -0.67441,0.121933 -1.14063,0.08008 -0.93243,-0.08371 -2.12995,-0.430765 -3.29687,-0.783204 -1.16692,-0.352438 -2.2976,-0.71086 -3.20703,-0.792968 -0.45472,-0.04105 -0.86793,-0.02624 -1.22461,0.175781 -0.35668,0.202025 -0.57026,0.630963 -0.56055,1.099609 l 0.0117,0.634766 0.56836,-0.287109 c 0,0 0.65601,-0.311787 1.15234,-0.337891 0.24817,-0.01305 0.40071,0.03658 0.48438,0.132812 0.0837,0.09624 0.17805,0.336229 0.0781,0.900391 -0.18031,1.018083 -1.27438,1.751431 -2.79101,1.75 -1.51499,-0.0014 -3.38507,-0.762879 -4.89453,-2.728516 -0.19418,-0.271391 -0.32006,-0.531661 -0.3418,-0.748046 -0.0219,-0.218002 0.0233,-0.411302 0.2793,-0.681641 0.0789,-0.08333 0.0666,-0.07283 0.16992,-0.05469 0.10337,0.01814 0.29417,0.103948 0.52344,0.22461 0.45853,0.241324 1.0987,0.617548 1.89648,0.519531 0.4375,-0.05375 0.87905,-0.272425 1.38281,-0.552734 0.50377,-0.28031 1.05497,-0.631135 1.61719,-0.976563 1.12445,-0.690855 2.32476,-1.340102 3.0625,-1.390625 0.84059,-0.05759 1.26769,0.1262 1.62891,0.253906 0.18061,0.06385 0.37899,0.160783 0.6582,0.06445 0.13961,-0.04816 0.25747,-0.153888 0.33203,-0.261719 0.0746,-0.107831 0.12216,-0.221609 0.16602,-0.353516 0.0726,-0.218243 0.0328,-0.460555 -0.0606,-0.636719 -0.0933,-0.176163 -0.22446,-0.306895 -0.36719,-0.423828 -0.28545,-0.233865 -0.63392,-0.416751 -0.94922,-0.582031 -0.22288,-0.116835 -0.35239,-0.197832 -0.48437,-0.279297 0.15286,-0.107972 0.3305,-0.202023 0.41601,-0.34375 0.13473,-0.223294 0.17749,-0.45857 0.19727,-0.664062 0.0396,-0.410985 0.0175,-0.727875 0.14258,-0.972657 0.15705,-0.307302 0.29782,-0.50268 0.39258,-0.615234 0.0948,-0.112554 0.11914,-0.125 0.11914,-0.125 l 0.49218,-0.363281 -0.52929,-0.304688 c -0.69792,-0.402576 -1.03118,-0.916358 -1.09961,-1.386718 -0.0684,-0.470361 0.10666,-0.92645 0.57812,-1.298828 0.42735,-0.337544 0.88607,-0.298001 1.3711,-0.109375 0.48502,0.188625 0.93946,0.548578 1.11718,0.722656 0.13513,0.132354 0.43111,0.37953 0.84375,0.695312 0.41265,0.315783 0.91645,0.677066 1.39649,0.957031 0.24002,0.139983 0.47324,0.258994 0.69726,0.34375 0.22403,0.08476 0.43718,0.15049 0.68946,0.107422 0.12613,-0.02153 0.26825,-0.08467 0.37304,-0.195312 0.1048,-0.110639 0.15876,-0.254244 0.17774,-0.388672 0.0379,-0.268855 -0.0272,-0.529741 -0.15235,-0.867188 l -0.16796,-0.457031 -0.41602,0.25586 c 0,0 0.0483,-0.01881 0.002,-0.0098 -0.0463,0.009 -0.14762,0.02085 -0.32031,0 -0.34537,-0.04171 -0.97811,-0.21763 -1.98633,-0.789062 -1.18649,-0.672481 -1.33365,-1.467905 -1.18164,-2.216797 0.076,-0.374447 0.24845,-0.731386 0.44336,-1.001953 0.19492,-0.270568 0.43192,-0.44814 0.50586,-0.476563 1.56073,-0.59996 3.29419,-0.628288 4.44531,-0.195312 0.57557,0.216487 0.99553,0.537593 1.22071,0.927734 0.22517,0.390141 0.28702,0.864071 0.0723,1.507812 -0.27336,0.819441 -0.16534,1.554999 0.19531,2.085938 0.36066,0.530938 0.9348,0.850005 1.53125,0.990234 0.59646,0.14023 1.22747,0.108961 1.76758,-0.11914 0.47435,-0.200327 0.84181,-0.614414 0.99219,-1.146485 2.4e-4,-8.56e-4 0.002,-0.0011 0.002,-0.002 0.0205,-0.07298 0.0777,-0.122912 0.0879,-0.201172 l -0.70507,-0.304687 c 0,0 -0.44168,0.518034 -0.97852,0.771484 -0.26842,0.126725 -0.53683,0.180932 -0.79492,0.119141 -0.25809,-0.06179 -0.54475,-0.238904 -0.85156,-0.71875 -0.29511,-0.461541 -0.33057,-0.837316 -0.21875,-1.226563 0.11181,-0.389246 0.40324,-0.799005 0.82812,-1.193359 0.84977,-0.788708 2.20188,-1.489014 3.3457,-1.984375 0.51095,-0.221279 1.16484,-0.318298 1.84571,-0.300781 z m -10.34375,6.263671 c 0.002,0.01384 0.0107,0.03996 0.0117,0.05078 -0.0487,-0.0086 -0.0566,-0.0029 -0.13672,-0.0332 -0.009,-0.0033 -0.0224,-0.01212 -0.0312,-0.01563 0.0584,0.0023 0.10606,3.59e-4 0.15625,-0.002 z"
         id="path208083" /></g><g
       id="path420992"><path
         style="color:#000000;fill:#ffffff;stroke-width:0.8;stroke-linecap:square;stroke-miterlimit:2.5;-inkscape-stroke:none"
         d="m 78.151093,24.003205 c -0.698591,-0.7096 -0.443693,-1.425746 0.03489,-2.078903 3.468497,-4.441928 8.743476,-3.654134 9.230256,-0.978188 0.48678,2.675945 -2.515245,1.230477 -2.515245,1.230477 -0.06943,3.183062 9.539625,-3.072518 10.937665,-0.03192 1.39801,3.040593 -1.90139,2.005497 -1.90139,2.005497 0.71514,1.977288 8.781091,-3.490969 16.895051,-2.967472 8.11396,0.523497 9.97916,6.126373 9.92221,7.577633 -0.057,1.451261 -0.5743,-1.441162 -2.82563,-0.378796 0.17655,0.137391 1.99695,1.583667 4.04176,0.418685 2.0448,-1.164981 4.36844,-1.924999 6.34305,-1.075902 1.97463,0.849094 2.86725,3.650784 1.59075,4.182015 -1.27652,0.53123 -3.22791,-2.147331 -4.43915,-0.710029 0,0 4.0213,-0.64914 3.85038,2.96067 -0.17093,3.609808 -4.31801,2.24787 -4.31801,2.24787 0.40419,2.605104 -4.35277,4.060917 -6.90732,3.015503 -2.55456,-1.045414 -6.06115,-2.940396 -4.53804,-5.274702 1.52309,-2.334305 3.59389,0.09957 3.59389,0.09957 -0.28694,-2.143198 -5.24117,-1.521324 -4.17575,1.577715 1.06542,3.099037 -3.26292,4.322933 -6.88031,3.013919 -0.90433,-0.327252 -2.66938,-3.107253 0.1995,-4.723804 2.2851,-1.287605 2.97858,-0.881923 2.97858,-0.881923 1.00089,-2.635208 -3.30628,0.811455 -3.70497,1.196073 -0.4742,0.457472 -2.08845,1.654514 -3.31388,0.727396 -1.24359,-0.940858 0.26497,-2.669583 1.9785,-3.651853 0,0 -0.34044,-0.795872 -1.02945,-1.201549 -3.04596,-1.793414 -14.165462,-0.667626 -13.702055,-3.269746 0.314685,-1.767019 1.446464,0.647876 1.121154,-0.639118 -0.32531,-1.286994 -0.6655,0.116692 -2.67385,0.0073 -2.00838,-0.109299 -5.264175,-2.88905 -6.682045,-3.041236 -1.417881,-0.152186 -2.411916,1.354337 -3.110508,0.644735 z"
         id="path208087" /><path
         style="color:#000000;fill:#000000;stroke-linecap:square;stroke-miterlimit:2.5;-inkscape-stroke:none"
         d="m 83.914062,18.365234 c -1.943255,0.02551 -4.241124,1.00497 -6.042968,3.3125 l -0.0039,0.0059 -0.0039,0.0039 c -0.260475,0.355489 -0.485463,0.752437 -0.533203,1.212891 -0.04774,0.460453 0.121602,0.96274 0.535156,1.382812 l 0.431641,0.4375 0.107422,-0.269531 c 0.1412,0.02989 0.271861,0.146559 0.40039,0.123047 0.301785,-0.05521 0.557754,-0.19349 0.81836,-0.330078 0.521212,-0.273176 1.035881,-0.548369 1.595703,-0.488282 0.242144,0.02599 0.694698,0.20515 1.214844,0.480469 0.520145,0.275319 1.121628,0.638132 1.746093,1.003906 1.248931,0.731549 2.565983,1.494583 3.742188,1.558594 0.676164,0.03683 0.941363,-0.153857 1.330078,-0.296875 -0.05923,0.137186 -0.115041,0.27146 -0.148437,0.458984 -0.0817,0.458738 0.126532,0.90737 0.466796,1.191407 0.340265,0.284036 0.79295,0.468846 1.333985,0.621093 1.08207,0.304496 2.534545,0.459243 4.091797,0.59375 1.557252,0.134508 3.215075,0.244738 4.660156,0.429688 1.445077,0.18495 2.685807,0.464527 3.339837,0.849609 0.43333,0.255133 0.59143,0.622426 0.69141,0.810547 -0.74222,0.481661 -1.47619,1.027425 -1.89258,1.669922 -0.24575,0.379198 -0.41148,0.783088 -0.40234,1.207031 0.009,0.423944 0.2263,0.844421 0.61523,1.138672 0.74617,0.564524 1.63677,0.480149 2.32617,0.210938 0.098,-0.03825 0.12315,-0.0928 0.21485,-0.136719 -0.17985,0.506392 -0.26364,1.026248 -0.16602,1.494141 0.11191,0.536365 0.3528,1.01169 0.63282,1.386718 0.28001,0.375028 0.58017,0.655849 0.9375,0.785157 1.8942,0.685449 3.95323,0.71974 5.4746,0.144531 0.76069,-0.287605 1.39698,-0.737144 1.76954,-1.369141 0.20132,-0.341525 0.29681,-0.738672 0.3125,-1.162109 0.18512,0.241895 0.27446,0.523351 0.51562,0.738281 1.07348,0.956723 2.61775,1.696068 3.91406,2.226563 1.41806,0.58032 3.31034,0.456332 4.85743,-0.136719 0.77354,-0.296526 1.46309,-0.714143 1.95117,-1.267578 0.37882,-0.429546 0.56603,-0.972339 0.60351,-1.548828 0.32849,0.09299 0.86119,0.291808 1.78321,0.195312 0.58472,-0.0612 1.20896,-0.250429 1.70507,-0.707031 0.49612,-0.456602 0.8286,-1.17042 0.875,-2.150391 0.0402,-0.84815 -0.21353,-1.447655 -0.53515,-1.957031 0.29222,0.06202 0.5811,0.180574 0.8789,0.05664 0.44954,-0.187082 0.7239,-0.608154 0.80664,-1.054688 0.0828,-0.446534 0.0129,-0.933327 -0.16015,-1.419922 -0.34606,-0.973189 -1.11853,-1.964383 -2.23242,-2.443359 -2.15881,-0.928301 -4.60619,-0.09676 -6.69922,1.095703 -0.22626,0.128905 -0.43039,0.132632 -0.64649,0.197266 -6.6e-4,-0.451363 -0.0973,-1.032733 -0.38672,-1.759766 -0.31001,-0.778665 -0.81354,-1.671713 -1.58398,-2.533203 -1.54087,-1.722981 -4.15232,-3.306694 -8.29883,-3.574219 -4.15477,-0.268058 -8.24537,0.99115 -11.374995,2.048828 -1.218763,0.411889 -2.126083,0.702161 -2.986328,0.953125 0.135771,-0.474787 0.05945,-1.035889 -0.294922,-1.80664 -0.221955,-0.48273 -0.638284,-0.805238 -1.115235,-0.957032 -0.47695,-0.151793 -1.015765,-0.1632 -1.595703,-0.105468 -1.159875,0.115463 -2.501201,0.522515 -3.787109,0.916015 -0.823129,0.251886 -1.45993,0.382153 -2.150391,0.548828 0.254951,-0.363846 0.379071,-0.839272 0.257813,-1.505859 -0.143843,-0.790739 -0.648991,-1.440523 -1.34375,-1.869141 -0.694759,-0.428617 -1.581107,-0.653378 -2.552735,-0.640625 z m 0.0098,0.800782 c 0.841525,-0.01105 1.583451,0.186638 2.123047,0.519531 0.539596,0.332892 0.877016,0.784799 0.976562,1.332031 0.109874,0.603998 0.0091,0.868094 -0.09375,0.984375 -0.102853,0.116281 -0.2915,0.175003 -0.572265,0.164063 -0.56153,-0.02188 -1.283203,-0.34961 -1.283203,-0.34961 l -0.560547,-0.269531 -0.01172,0.621094 c -0.01084,0.497009 0.220758,0.943176 0.601563,1.148437 0.380804,0.205262 0.825772,0.217445 1.320312,0.167969 0.989081,-0.09895 2.231243,-0.496236 3.513672,-0.888672 1.282429,-0.392436 2.599964,-0.779994 3.632812,-0.882812 0.516425,-0.05141 0.957572,-0.02826 1.273438,0.07227 0.315866,0.100527 0.503305,0.249925 0.630859,0.527344 0.328155,0.713717 0.336818,1.12443 0.277344,1.298828 -0.05947,0.174398 -0.169418,0.237556 -0.414062,0.283203 -0.48929,0.09129 -1.28125,-0.126953 -1.28125,-0.126953 l -0.769532,-0.240234 0.273438,0.759765 c 0.04403,0.121727 0.203725,0.121698 0.289062,0.212891 l -0.03125,0.03125 c 0,0 0.07975,0.0064 0.08398,0.0078 0.182929,0.171106 0.332902,0.392755 0.580078,0.425782 0.393037,0.05252 0.83187,-0.01062 1.345703,-0.128907 1.027665,-0.236573 2.354849,-0.720467 3.910156,-1.246093 3.110621,-1.051252 7.109181,-2.263251 11.068361,-2.007813 3.96744,0.255972 6.34598,1.736451 7.75195,3.308594 0.70299,0.786072 1.1622,1.598523 1.43946,2.294922 0.20151,0.506153 0.22264,0.820596 0.25976,1.132812 -0.22223,-0.193879 -0.4667,-0.40625 -0.84179,-0.507812 -0.45868,-0.124193 -1.02668,-0.08902 -1.65821,0.208984 l -0.58789,0.277344 0.51367,0.400391 c 0.15455,0.120264 2.22713,1.737187 4.48438,0.451171 1.99656,-1.1375 4.19787,-1.826531 5.98828,-1.05664 0.86074,0.370117 1.52014,1.203827 1.79492,1.976562 0.13739,0.386368 0.17416,0.753088 0.12695,1.007813 -0.0472,0.254725 -0.13941,0.382403 -0.32812,0.460937 -0.17567,0.0731 -0.41995,0.04654 -0.75781,-0.08984 -0.33787,-0.136388 -0.73259,-0.371409 -1.14453,-0.589844 -0.41195,-0.218435 -0.84286,-0.427095 -1.31446,-0.478516 -0.3596,-0.03921 -0.71436,0.186249 -1.04687,0.427735 -0.003,5.12e-4 -0.084,-0.0059 -0.084,-0.0059 l 0.0176,0.0332 c -0.0805,0.06476 -0.18861,0.02104 -0.25976,0.105469 l 0.36914,0.652344 c 0,0 0.93806,-0.141546 1.8125,0.115234 0.43722,0.12839 0.84246,0.347837 1.13086,0.712891 0.2884,0.365053 0.48261,0.88975 0.44336,1.71875 -0.0391,0.824932 -0.28765,1.294364 -0.61719,1.597656 -0.32954,0.303292 -0.77464,0.450455 -1.24805,0.5 -0.94682,0.09909 -1.92773,-0.210937 -1.92773,-0.210937 l -0.6211,-0.205079 0.0996,0.646485 c 0.082,0.52823 -0.0831,0.97108 -0.45312,1.390625 -0.37,0.419544 -0.95418,0.788393 -1.63867,1.050781 -1.36898,0.524777 -3.13109,0.607671 -4.26758,0.142578 -1.25825,-0.514918 -2.74592,-1.248287 -3.6836,-2.083984 -0.46884,-0.417849 -0.79229,-0.855154 -0.91601,-1.273438 -0.12372,-0.418283 -0.0847,-0.826071 0.24414,-1.330078 0.34072,-0.522194 0.66652,-0.725705 0.96484,-0.798828 0.29832,-0.07312 0.6062,-0.0131 0.90625,0.121094 0.6001,0.268385 1.08399,0.818359 1.08399,0.818359 l 0.70117,-0.3125 c -0.0108,-0.08044 -0.0725,-0.130131 -0.0937,-0.205078 0,-2e-6 -0.002,-0.0019 -0.002,-0.002 -0.16153,-0.565084 -0.56153,-0.999855 -1.07618,-1.205078 -0.58362,-0.232731 -1.26872,-0.255084 -1.91406,-0.09961 -0.64534,0.155475 -1.26202,0.497158 -1.65234,1.060547 -0.39032,0.56339 -0.51157,1.34411 -0.21289,2.212891 0.23665,0.688357 0.17037,1.200726 -0.082,1.628906 -0.25241,0.428181 -0.72485,0.785222 -1.36524,1.027344 -1.28078,0.484243 -3.19478,0.475126 -4.91797,-0.148438 -0.0948,-0.03432 -0.35469,-0.22294 -0.57031,-0.511718 -0.21562,-0.288779 -0.40644,-0.670657 -0.49023,-1.072266 -0.16758,-0.803218 0.002,-1.673105 1.32031,-2.416016 1.11182,-0.626486 1.81237,-0.824575 2.20117,-0.875 0.1944,-0.02521 0.31106,-0.01389 0.36719,-0.0039 0.0561,0.01 0.0117,-0.0059 0.0117,-0.0059 l 0.4082,0.238281 0.16797,-0.441406 c 0.13688,-0.360384 0.2069,-0.637566 0.16601,-0.919922 -0.0204,-0.141178 -0.0806,-0.291757 -0.1914,-0.404297 -0.11082,-0.11254 -0.25774,-0.171255 -0.38867,-0.191406 -0.26187,-0.0403 -0.48846,0.02712 -0.73047,0.11914 -0.24201,0.09202 -0.49553,0.223017 -0.75782,0.375 -0.52456,0.303968 -1.07869,0.694775 -1.53125,1.03711 -0.45255,0.342335 -0.77999,0.611243 -0.92382,0.75 -0.19934,0.192308 -0.69956,0.58693 -1.24219,0.798828 -0.54263,0.211898 -1.07347,0.261031 -1.55274,-0.101563 -0.23286,-0.176177 -0.29266,-0.324026 -0.29687,-0.519531 -0.004,-0.195504 0.0814,-0.460532 0.27148,-0.753906 0.38026,-0.586747 1.15003,-1.24692 1.96289,-1.712891 l 0.3086,-0.177734 -0.14063,-0.326172 c 0,0 -0.35688,-0.896172 -1.19336,-1.388672 -0.86895,-0.511624 -2.16251,-0.7654 -3.64453,-0.955078 -1.482017,-0.189678 -3.145966,-0.298153 -4.691406,-0.431641 -1.545439,-0.133487 -2.977625,-0.29605 -3.945312,-0.568359 -0.483844,-0.136154 -0.846078,-0.303426 -1.03711,-0.462891 -0.191032,-0.159464 -0.227515,-0.245708 -0.193359,-0.4375 0.02921,-0.164023 0.06366,-0.244573 0.08984,-0.300781 0.02368,0.01507 0.03895,0.02174 0.06836,0.04492 0.05629,0.04437 0.118058,0.09827 0.181641,0.152344 0.06358,0.05408 0.08577,0.118382 0.289062,0.173828 0.05082,0.01386 0.122985,0.02561 0.212891,0.0059 0.08991,-0.01975 0.187025,-0.08163 0.242187,-0.15039 0.110325,-0.137528 0.101059,-0.237315 0.101563,-0.308594 0.001,-0.142558 -0.02654,-0.250648 -0.07031,-0.423828 -0.04481,-0.177278 -0.09171,-0.321964 -0.160156,-0.453125 -0.06845,-0.131161 -0.171128,-0.263392 -0.330078,-0.337891 -0.15895,-0.0745 -0.330596,-0.06528 -0.453125,-0.03516 -0.122529,0.03012 -0.21972,0.07596 -0.320313,0.123047 -0.402368,0.188364 -0.867171,0.457779 -1.777343,0.408203 -0.832174,-0.04529 -2.145333,-0.725522 -3.38086,-1.449219 -0.617763,-0.361848 -1.223537,-0.729382 -1.77539,-1.021484 -0.551853,-0.292102 -1.037116,-0.518257 -1.503907,-0.56836 -0.858057,-0.0921 -1.549765,0.309581 -2.054687,0.574219 -0.252461,0.132319 -0.464459,0.229017 -0.589844,0.251953 -0.125384,0.02294 -0.132874,0.02873 -0.224609,-0.06445 -0.285036,-0.289527 -0.335255,-0.499973 -0.310547,-0.738281 0.0244,-0.235338 0.163471,-0.52076 0.376953,-0.814453 l 0.002,-0.002 c 1.666318,-2.132567 3.737526,-2.97987 5.419922,-3.001953 z m 35.283198,9.416015 c 0.0881,0.02384 0.14111,0.09436 0.21875,0.134766 -0.13917,-0.04208 -0.16133,-0.07245 -0.28125,-0.125 0.0159,0.0037 0.0471,-0.01395 0.0625,-0.0098 z m -10.21484,4.09375 c -0.001,0.02177 -0.0213,0.08254 -0.0273,0.119141 -0.0986,-0.0052 -0.18793,-0.01552 -0.32031,-0.002 0.0425,-0.01862 0.10008,-0.05369 0.13867,-0.06836 0.11536,-0.04386 0.15187,-0.04077 0.20899,-0.04883 z"
         id="path208089" /></g><g
       id="path435985"
       transform="matrix(1.1158939,0,0,1.1158939,-6.7725585,-3.9001125)"><path
         style="color:#000000;fill:#ffffff;stroke-width:0.8;stroke-linecap:square;stroke-miterlimit:2.5;-inkscape-stroke:none"
         d="m 57.489841,26.291388 c 0.70397,-0.45931 0.622798,-1.095822 0.345827,-1.720693 -2.060002,-4.288095 -6.552066,-4.588893 -7.435665,-2.46983 -0.883597,2.119064 1.852534,1.467946 1.852534,1.467946 -0.51628,2.637488 -7.826036,-6.124494 -9.513895,-4.598382 -1.68786,1.526109 1.206657,1.996472 1.206657,1.996472 -0.946028,1.501754 -4.289435,-2.584991 -6.544336,-2.960422 -2.254899,-0.375425 -0.705959,1.614187 -2.41636,1.976662 -1.710399,0.362475 -2.730405,1.167482 -1.06522,2.449238 -0.170355,0.0815 -1.932179,0.946184 -3.40856,-0.382988 -1.476373,-1.329167 -3.255673,-2.374616 -5.037068,-2.030184 -1.781405,0.344426 -3.022348,2.49406 -2.065372,3.162157 0.956985,0.668096 3.048877,-1.189222 3.78877,0.214331 0,0 -3.199282,-1.2599 -3.70876,1.747799 -0.50947,3.007699 3.155905,2.631789 3.155905,2.631789 -0.802721,2.075525 2.857886,4.133221 5.152914,3.731387 2.295034,-0.40183 5.528259,-1.332736 4.69281,-3.532206 -0.835445,-2.199469 -2.981723,-0.56546 -2.981723,-0.56546 0.622803,-1.715728 4.596353,-0.310213 3.159339,2.053501 -1.437019,2.363712 1.911906,4.152923 5.130922,3.725212 0.804742,-0.106927 2.761238,-2.081477 0.686635,-3.931527 -1.652447,-1.47359 -2.29744,-1.263989 -2.29744,-1.263989 -0.350576,-2.353522 2.58038,1.264923 2.839863,1.653945 0.308637,0.462706 1.424169,1.740733 2.601797,1.196968 1.19508,-0.55182 1.364175,-1.950211 0.128066,-3.069009 0,0 0.302999,-0.127686 0.738327,-0.643466 0.480536,-0.569324 0.257819,-1.621239 0.257819,-1.621239 0,0 -1.712078,-1.09958 -0.69717,-1.441782 0,0 0.816617,2.441798 2.492553,2.713489 1.675939,0.271779 5.295092,-1.711913 6.491795,-1.581937 1.196703,0.129977 1.745,1.551472 2.448972,1.092159 z"
         id="path208093" /><path
         style="color:#000000;fill:#000000;stroke-linecap:square;stroke-miterlimit:2.5;-inkscape-stroke:none"
         d="m 37.466797,17.611328 c -0.612866,-0.102038 -1.057426,-0.06178 -1.384766,0.167969 -0.32734,0.229749 -0.425323,0.5835 -0.484375,0.853515 -0.05905,0.270016 -0.09869,0.494958 -0.179687,0.638672 -0.081,0.143714 -0.172608,0.247619 -0.515625,0.320313 -0.898174,0.190345 -1.667824,0.453988 -2.052735,1.054687 -0.192455,0.30035 -0.228141,0.710505 -0.07422,1.070313 0.07588,0.177372 0.296635,0.342156 0.443359,0.509765 -0.556566,0.197329 -1.463779,0.403781 -2.439453,-0.474609 -1.517627,-1.366308 -3.40261,-2.507494 -5.38086,-2.125 -1.025981,0.198369 -1.854717,0.886343 -2.324218,1.640625 -0.234751,0.377141 -0.383776,0.77548 -0.396485,1.173828 -0.01271,0.398349 0.146886,0.820475 0.501953,1.06836 0.209882,0.146523 0.447235,0.09263 0.679688,0.105468 -0.33553,0.36892 -0.65124,0.785667 -0.765625,1.460938 -0.140328,0.82844 0.0087,1.49618 0.345703,1.976562 0.336991,0.480383 0.831085,0.755499 1.310547,0.914063 0.776064,0.256654 1.294261,0.186358 1.566406,0.167969 -0.04839,0.466055 -0.102357,0.944378 0.123047,1.349609 0.309548,0.556506 0.809689,1.031925 1.400391,1.419922 1.181403,0.775994 2.728039,1.223245 4.02539,0.996094 1.167772,-0.204462 2.578435,-0.534206 3.648438,-1.136719 0.286971,-0.161592 0.455016,-0.417666 0.68164,-0.628906 -0.07103,0.371069 -0.274277,0.756451 -0.164062,1.091796 0.199113,0.605835 0.654382,1.100761 1.238281,1.480469 1.167798,0.759416 2.882382,1.102786 4.582031,0.876953 0.339546,-0.04512 0.642431,-0.229825 0.947266,-0.49414 0.304835,-0.264315 0.593798,-0.618827 0.787109,-1.050782 0.150844,-0.337058 0.148332,-0.749143 0.121094,-1.158203 0.03473,0.025 0.03801,0.05011 0.07422,0.07422 0.530242,0.353035 1.274884,0.593987 2.015625,0.251953 0.707773,-0.326809 1.160148,-0.955331 1.207031,-1.660156 0.03802,-0.571508 -0.240643,-1.152752 -0.689453,-1.689453 0.141581,-0.115132 0.294398,-0.24135 0.486328,-0.46875 0.250905,-0.297265 0.264916,-0.63119 0.300781,-0.947266 0.37655,0.351237 0.818919,0.642961 1.382813,0.734375 1.034668,0.167787 2.352304,-0.307731 3.623047,-0.755859 0.635371,-0.224064 1.250565,-0.449106 1.767578,-0.607422 0.517013,-0.158316 0.953969,-0.233208 1.123047,-0.214844 0.449253,0.04879 0.813608,0.355666 1.195312,0.675781 0.190853,0.160058 0.379039,0.32244 0.63086,0.427735 0.135617,0.05671 0.309058,-0.02276 0.476562,-0.03906 l 0.146485,0.134766 0.261718,-0.169922 c 0.428696,-0.279705 0.673209,-0.684223 0.71875,-1.089844 0.04554,-0.40562 -0.07355,-0.783706 -0.226562,-1.128906 l -0.002,-0.0059 -0.0039,-0.0039 c -1.07756,-2.243047 -2.810029,-3.4797 -4.427734,-3.855468 -0.808852,-0.187884 -1.592275,-0.162678 -2.255859,0.07031 -0.663584,0.232991 -1.211943,0.69 -1.480469,1.333985 -0.123819,0.296946 -0.02204,0.492739 -0.0332,0.740234 -0.583342,-0.409756 -1.131821,-0.772347 -1.814453,-1.314453 -1.050789,-0.834475 -2.143337,-1.710557 -3.111328,-2.298828 -0.483996,-0.294136 -0.935351,-0.519691 -1.367188,-0.625 -0.431836,-0.105309 -0.899504,-0.07817 -1.234375,0.224609 -0.471733,0.426527 -0.709728,0.868121 -0.652344,1.304688 0.01637,0.124562 0.142713,0.156909 0.195313,0.257812 -0.218005,-0.139916 -0.378739,-0.201142 -0.61715,-0.371062 -1.222213,-0.871092 -2.601891,-2.032834 -3.929687,-2.253906 z m -0.13086,0.789063 c 0.927103,0.154358 2.345984,1.224537 3.595704,2.115234 0.62486,0.445349 1.212636,0.844494 1.771484,1.050781 0.279424,0.103144 0.559314,0.163573 0.847656,0.115235 0.288343,-0.04834 0.564046,-0.234669 0.732422,-0.501954 l 0.322266,-0.509765 -0.595703,-0.09766 c 0,0 -0.685086,-0.129191 -1.09375,-0.375 -0.204333,-0.122905 -0.294061,-0.241422 -0.304688,-0.322266 -0.01063,-0.08084 0.02429,-0.270895 0.396484,-0.607422 0.08709,-0.07875 0.214814,-0.112467 0.507813,-0.04102 0.292999,0.07145 0.69391,0.259771 1.140625,0.53125 0.89343,0.542959 1.977131,1.406619 3.029297,2.242188 1.052166,0.835569 2.066755,1.641804 2.908203,2.099609 0.420724,0.228903 0.79486,0.390302 1.195312,0.365235 0.200227,-0.01253 0.41492,-0.09107 0.570313,-0.244141 0.155393,-0.153069 0.242338,-0.355474 0.285156,-0.574219 l 0.119141,-0.611328 -0.603516,0.144531 c 0,0 -0.648361,0.136272 -1.095703,0.05664 -0.223671,-0.03982 -0.347198,-0.11523 -0.398437,-0.207031 -0.05124,-0.0918 -0.09196,-0.306591 0.103515,-0.775391 0.173273,-0.415545 0.516249,-0.714126 1.007813,-0.886719 0.491564,-0.172592 1.126481,-0.203366 1.808593,-0.04492 1.363596,0.316742 2.904217,1.376731 3.886719,3.419921 0.120565,0.275145 0.1805,0.52584 0.160156,0.707032 -0.02062,0.18368 -0.08605,0.328208 -0.361328,0.507812 -0.07701,0.05025 -0.0523,0.04198 -0.138672,0.0059 -0.08637,-0.03612 -0.241975,-0.148586 -0.425781,-0.302735 -0.367612,-0.308297 -0.875598,-0.778192 -1.623047,-0.859375 -0.429273,-0.04662 -0.892836,0.07752 -1.443359,0.246094 -0.550523,0.168577 -1.170332,0.397501 -1.798828,0.619141 -1.256992,0.443278 -2.587247,0.824694 -3.228516,0.720703 -0.661248,-0.107197 -1.21763,-0.68313 -1.601562,-1.28125 -0.383933,-0.598121 -0.576172,-1.164063 -0.576172,-1.164063 l -0.126953,-0.380859 -0.38086,0.128906 c -0.173723,0.05858 -0.3295,0.144476 -0.445312,0.289063 -0.115812,0.144586 -0.161522,0.344807 -0.142578,0.505859 0.03789,0.322104 0.218492,0.521339 0.394531,0.707031 0.279382,0.294703 0.507477,0.433497 0.636719,0.519531 0.01258,0.07295 0.03609,0.170716 0.0332,0.390625 -0.0038,0.286965 -0.07254,0.602892 -0.214844,0.771485 -0.198654,0.235367 -0.360382,0.373813 -0.464844,0.451172 -0.104461,0.07736 -0.123047,0.08203 -0.123047,0.08203 l -0.578125,0.242187 0.464844,0.421875 c 0.549852,0.49767 0.744204,1.011804 0.716797,1.423829 -0.02741,0.412024 -0.256835,0.761318 -0.744141,0.986328 -0.436886,0.20173 -0.837239,0.07431 -1.236328,-0.191407 -0.399089,-0.265713 -0.738073,-0.677524 -0.863281,-0.865234 -0.09892,-0.148306 -0.320233,-0.425923 -0.632812,-0.791016 -0.31258,-0.365092 -0.699087,-0.788633 -1.080079,-1.136718 -0.190495,-0.174043 -0.379009,-0.330762 -0.566406,-0.453125 -0.187396,-0.122364 -0.36613,-0.223081 -0.609375,-0.238282 -0.121622,-0.0076 -0.269988,0.01641 -0.394531,0.09766 -0.124543,0.08124 -0.208146,0.206155 -0.253906,0.328125 -0.09152,0.243939 -0.07995,0.493342 -0.03125,0.820312 l 0.06836,0.46875 0.449219,-0.146484 c 0,0 -0.05275,0.0082 -0.01172,0.0098 0.04103,0.0016 0.132624,0.01049 0.283203,0.06445 0.30116,0.107917 0.836822,0.394103 1.636719,1.107421 0.937925,0.836405 0.912831,1.545594 0.638672,2.158204 -0.13708,0.306304 -0.358522,0.579637 -0.582031,0.773437 -0.22351,0.1938 -0.466472,0.29634 -0.529297,0.304688 -1.519363,0.201878 -3.088854,-0.134718 -4.041016,-0.753907 -0.476081,-0.309594 -0.78882,-0.679477 -0.914062,-1.060547 -0.125243,-0.381069 -0.09304,-0.793782 0.21875,-1.30664 0.410901,-0.675884 0.45631,-1.366962 0.228515,-1.919922 -0.227795,-0.55296 -0.688167,-0.953402 -1.203125,-1.203125 -0.514957,-0.249723 -1.095729,-0.356965 -1.634765,-0.267578 -0.378482,0.06276 -0.63173,0.396072 -0.890625,0.697265 -0.03637,0.02595 -0.244141,0.113282 -0.244141,0.113282 l 0.05273,0.03906 c -0.04284,0.07339 -0.155146,0.06078 -0.185547,0.144531 L 33.75,27.726562 c 0,0 0.492385,-0.359312 1.017578,-0.46875 0.262597,-0.05472 0.511528,-0.04574 0.728516,0.06055 0.216987,0.10629 0.436304,0.317478 0.61914,0.798828 0.175126,0.461049 0.136052,0.780046 -0.0332,1.087891 -0.169254,0.307845 -0.505185,0.604696 -0.960937,0.861328 -0.911504,0.513264 -2.265318,0.849507 -3.392578,1.046875 -0.997675,0.174682 -2.427244,-0.205678 -3.449219,-0.876953 -0.510987,-0.335637 -0.919809,-0.740129 -1.142578,-1.140625 -0.22277,-0.400495 -0.274905,-0.773034 -0.119141,-1.175781 l 0.234375,-0.609375 -0.648437,0.06641 c 0,0 -0.857123,0.07692 -1.603516,-0.169922 -0.373197,-0.12342 -0.699272,-0.318232 -0.90625,-0.613281 -0.206978,-0.295049 -0.325344,-0.707405 -0.210938,-1.382813 0.115089,-0.679423 0.363235,-1.061994 0.654297,-1.300781 0.291063,-0.238787 0.65057,-0.342668 1.025391,-0.36914 0.749642,-0.05295 1.488281,0.226562 1.488281,0.226562 l 0.5,-0.558594 c -0.05081,-0.09639 -0.164285,-0.08045 -0.230469,-0.158203 l 0.02344,-0.02734 c 0,0 -0.07688,-0.01046 -0.08008,-0.01172 -0.238703,-0.251839 -0.489373,-0.512464 -0.792969,-0.544922 -0.413512,-0.04421 -0.81215,0.05365 -1.193359,0.160156 -0.38121,0.106506 -0.748931,0.226974 -1.044922,0.277344 -0.295992,0.05037 -0.483869,0.02729 -0.595703,-0.05078 -0.12342,-0.08616 -0.166645,-0.183346 -0.160157,-0.386719 0.0065,-0.203373 0.09881,-0.490512 0.277344,-0.777344 0.357077,-0.573664 1.0395,-1.131287 1.794922,-1.277344 1.584537,-0.306369 3.260197,0.641571 4.695313,1.933594 1.658089,1.492762 3.702357,0.516779 3.847656,0.447266 l 0.58789,-0.28125 -0.515625,-0.396485 c -0.384617,-0.296054 -0.584587,-0.549939 -0.654296,-0.71289 -0.06971,-0.162952 -0.05453,-0.217789 0.01367,-0.324219 0.136396,-0.212861 0.732699,-0.530995 1.544922,-0.703125 0.512183,-0.108544 0.866781,-0.391386 1.046875,-0.710938 0.180095,-0.319551 0.214297,-0.635559 0.263672,-0.861328 0.04938,-0.225768 0.09419,-0.320098 0.164063,-0.36914 0.06987,-0.04904 0.278386,-0.118878 0.792968,-0.0332 z"
         id="path208095" /></g></g><g
     id="layer1"
     style="display:inline"
     transform="translate(-4.2233897,-9.6949479)"><g
       id="path265208-4"><path
         style="color:#000000;fill:#000000;stroke-width:1.07125;stroke-linecap:square;stroke-miterlimit:2.5;-inkscape-stroke:none"
         d="m 163.8071,70.354702 c 0.87278,2.91589 6.6102,-0.55174 11.20514,0.0234 4.59495,0.57513 7.63452,1.93413 10.81349,2.30512 0.39737,0.0464 1.59226,0.10872 2.38388,-0.47971 0.79162,-0.58842 1.35338,-1.51004 0.89447,-2.80166 -0.45892,-1.29162 -1.97281,-1.31116 -2.36678,-1.3103 0,0 1.20503,-1.59501 3.50542,2.02576 4.32133,7.45301 10.73113,3.06768 10.73113,3.06768 2.81591,-1.49525 4.96313,-5.16803 3.71625,-9.44436 -1.55095,-5.31919 -7.6816,-6.64089 -5.91837,-9.74732 1.0649,3.29088 3.75016,1.52763 4.56504,0.72806 4.33699,-3.47204 0.53605,-12.322886 -4.20544,-9.361826 -4.74149,2.961066 -4.25809,-2.24121 -5.96776,-3.20189 -1.70967,-0.96069 -3.04545,1.47707 -2.82672,2.76227 -2.47978,0.68418 -4.52747,-0.86232 -6.26939,-1.11168 -1.11697,-0.1599 -0.69581,1.08882 -0.69581,1.08882 1.7074,-2.87308 4.62761,2.807076 8.24552,-3.11037 2.85774,-4.67411 -2.32156,-13.51377 -11.3278,-10.6663 -9.00625,2.84746 -14.35669,11.24751 -14.72706,11.19692 2.15493,-2.97689 0.93389,-7.24764 -3.66114,-7.38891 -4.59505,-0.14127 -8.35643,3.59125 -11.24829,6.43775 -2.89187,2.8465 -5.39078,3.75776 -6.02039,3.0589 0,0 2.8832,-0.31107 2.5694,-2.16492 -0.3138,-1.85384 -2.27088,-2.30924 -4.98853,-0.55841 -2.71764,1.75083 -3.49132,2.6348 -5.18083,3.51219 -1.68951,0.87739 -3.06164,1.657676 -7.17935,1.952486 -0.97179,0.0758 -2.21354,-0.679016 -1.71819,-1.879576 0.49534,-1.20056 2.44303,0.74449 2.44303,0.74449 1.00306,-4.09031 -2.48545,-4.47799 -3.90011,-3.72584 -1.41467,0.75214 -1.74973,1.30312 -3.00651,2.91635 -1.32236,1.557396 -3.48968,2.635906 -5.209,2.645426 -2.75733,0 -4.93922,-1.604376 -9.88155,-2.101946 -3.96773,-0.39945 -4.28289,-4.55107 -6.36236,-6.7276 -2.07946,-2.17653 -5.374482,-2.67663 -8.519512,-1.5115 -3.14504,1.16512 -5.10514,5.0455 -3.71592,8.27737 0,0 1.11951,-3.49031 2.62562,-2.32063 1.50611,1.16968 0.72125,3.07511 -0.6442,3.448806 -1.36545,0.37369 -4.12118,-1.536136 -7.07605,-1.197516 -2.43117,0.27861 -5.00887,0.60238 -6.29497,0.41336 -2.79094,-0.4102 -4.25364,-0.96618 -7.82702,-1.44189 -3.57338,-0.4757 -6.04382,1.25218 -9.36218,0.93134 -1.56731,-0.15154 -2.82508,-0.64926 -3.89831,-1.10579 -1.84395,-0.78437 -2.92898,-2.17753 -5.09004,-1.93322 -3.06725,0.34675 -1.99578,3.26315 -1.99578,3.26315 -5.32917,-0.18926 -7.09081,-6.1752 -11.54425,-6.41918 -2.48666,-0.13624 -3.85931,1.57732 -3.66651,3.32226 0.1528,1.15425 0.96491,1.84077 0.96491,1.84077 -0.7923,0.80111 -1.50248,-3.59327 -2.36405,-5.49494 -0.86153,-1.90166 -2.02535,-3.70525 -3.45766,-5.25317 -1.43227,-1.54791 -3.13306,-2.84015 -5.06856,-3.71912 -1.9355,-0.87896 -4.10571,-1.34465 -6.47685,-1.23945 -9.7623608,0.43309 -14.0530207,13.00885 -8.49296,18.741986 1.61804,1.66841 3.37054,2.01022 4.71802,1.92419 2.02698,-0.12941 2.37587,-2.3335 2.37587,-2.3335 1.43042,1.72962 -1.75982,3.55864 -3.58407,4.36386 -1.82424,0.80522 -3.9381208,1.61043 -5.2370307,2.60872 -5.40688,5.13627 -4.81239,12.94669 -0.0191,17.54062 2.7950007,2.61487 5.2495607,2.79143 7.2710307,2.71546 2.02147,-0.076 4.34209,-1.23605 5.52746,-2.46293 1.18538,-1.22687 2.25487,-3.48795 2.64899,-3.47793 0,0 -0.4305,0.61307 -0.73216,1.67572 -0.26813,0.94452 0.0124,2.50182 1.47489,3.27537 1.46254,0.77355 3.20025,-0.48031 4.81684,-2.21694 4.86423,-5.22543 18.53497,6.863496 22.70947,1.33827 1.13184,-1.49806 0.15618,-4.46984 -2.31289,-4.46526 0,0 0.43788,-0.62512 1.33222,-0.32067 0.74412,0.25332 2.25789,2.49211 3.97879,2.97533 1.87898,0.52761 3.77397,-0.0329 5.60941,-0.82264 1.13681,-0.48914 4.09645,-1.93736 7.07871,-2.18609 4.19542,-0.3499 6.8796,0.10577 10.32493,0 5.95613,-0.0341 11.71941,0.11243 17.86934,0 5.668292,-0.10889 11.529652,-0.0284 17.326342,0 0.37811,0.002 2.35932,-0.0615 4.15952,-0.26326 0,0 -0.48855,1.55502 0.97335,3.35633 1.48645,1.83155 5.06638,2.80229 7.85111,2.80229 2.78472,0 5.50323,-0.31617 7.92385,-2.01332 2.42063,-1.69714 2.62654,-4.55947 2.62654,-4.55947 0.88688,0.61327 2.00486,0.67743 2.00486,0.67743 h 15.6836 5.53007 c 4.47579,0 6.13235,-0.87801 6.52424,0.0591 0,0 -3.83408,-0.39221 -2.9613,2.52368 z"
         id="path68032" /><path
         style="color:#000000;fill:#000000;stroke-linecap:square;stroke-miterlimit:2.5;-inkscape-stroke:none"
         d="M 18.783203,28.363281 C 8.5691585,28.816409 4.0012338,41.900675 9.9296875,48.013672 c 1.7271495,1.780916 3.6697415,2.179597 5.1367185,2.085937 0.188161,-0.01201 0.297649,-0.120826 0.464844,-0.162109 -0.657068,0.432855 -1.33293,0.907148 -1.923828,1.167969 -1.805076,0.796761 -3.9364611,1.58924 -5.3476564,2.673828 l -0.021484,0.01758 -0.019531,0.01758 C 2.601081,59.150967 3.2010003,67.3424 8.1972666,72.130863 l 0.00195,0.002 0.00195,0.002 c 2.9004594,2.713531 5.5893524,2.937125 7.6582034,2.859375 2.210572,-0.08311 4.581714,-1.268232 5.892578,-2.625 0.409782,-0.424125 0.721063,-0.938257 1.060547,-1.4375 -0.0018,1.086459 0.360434,2.305666 1.695312,3.011718 0.9145,0.483687 1.940925,0.314238 2.851563,-0.167968 0.910638,-0.482206 1.777716,-1.266888 2.607422,-2.158204 1.060623,-1.13938 2.594291,-1.351975 4.541015,-1.052734 1.946725,0.299242 4.220197,1.13339 6.494141,1.972656 2.273944,0.839267 4.546147,1.683115 6.582031,1.970703 2.035885,0.287589 3.941934,-0.0253 5.126953,-1.59375 0.645239,-0.854012 0.664468,-1.992072 0.31836,-3.007812 0.619276,0.55446 1.268649,1.154553 2.109375,1.390625 2.064278,0.579641 4.090976,-0.04138 5.964844,-0.847656 1.179356,-0.507447 4.072212,-1.905722 6.912109,-2.142578 4.138177,-0.345126 6.79586,0.107479 10.296875,0 5.940541,-0.03374 11.701501,0.112611 17.861328,0 h 0.002 c 5.656127,-0.108657 11.512627,-0.02842 17.312497,0 0.38208,0.002 2.0414,-0.08564 3.60156,-0.226563 -0.0192,0.199084 -0.0609,0.203372 -0.0332,0.484375 0.0697,0.705931 0.35547,1.656792 1.15234,2.638672 1.69326,2.086374 5.35643,3 8.26563,3 2.82526,0 5.68306,-0.323914 8.23242,-2.111328 2.13062,-1.493811 2.55063,-3.432101 2.68359,-4.269531 C 138.21853,68.180022 139,68.306641 139,68.306641 h 0.0156 15.69922 5.5293 c 1.76012,0 2.77405,-0.144743 3.75391,-0.251954 -0.18326,0.139623 -0.41475,0.177241 -0.54883,0.388672 -0.32995,0.520302 -0.40244,1.235436 -0.1543,2.064453 0.27279,0.911351 1.05847,1.421257 1.91602,1.53125 0.85754,0.109994 1.83554,-0.05107 2.91015,-0.269531 2.14924,-0.436915 4.68565,-1.127056 6.82422,-0.859375 4.52066,0.565831 7.52885,1.920798 10.81836,2.304688 0.46535,0.05434 1.75237,0.171149 2.76563,-0.582032 0.45458,-0.337893 0.86745,-0.787503 1.0957,-1.371093 0.11981,-0.306328 -0.002,-0.70788 -0.008,-1.070313 0.0665,0.09819 0.10471,0.104112 0.17383,0.212891 2.23968,3.848033 5.17922,4.752921 7.47851,4.576172 2.26987,-0.174489 3.92407,-1.30268 3.97266,-1.335938 3.02748,-1.619121 5.27632,-5.55011 3.96289,-10.054687 -0.82523,-2.83022 -2.85919,-4.572685 -4.35547,-5.947266 -0.74814,-0.68729 -1.35695,-1.292821 -1.64453,-1.820312 -0.0883,-0.161914 -0.10275,-0.305633 -0.14063,-0.453125 0.1633,0.199411 0.25819,0.546917 0.45117,0.679687 0.53667,0.369219 1.15727,0.451821 1.70899,0.373047 1.08836,-0.155394 1.97704,-0.829436 2.45898,-1.296875 2.38712,-1.924404 2.52261,-5.262295 1.44532,-7.712891 -0.53977,-1.227838 -1.38891,-2.267607 -2.49414,-2.808593 -1.10524,-0.540987 -2.47279,-0.520016 -3.78711,0.300781 -1.12908,0.705107 -1.87454,0.870304 -2.33789,0.808594 -0.46336,-0.06171 -0.75354,-0.319894 -1.05079,-0.775391 -0.29724,-0.455497 -0.54136,-1.081969 -0.82226,-1.683594 -0.2809,-0.601624 -0.59414,-1.215915 -1.21094,-1.5625 -0.3862,-0.217014 -0.7765,-0.167822 -1.16016,-0.142578 2.54021,-5.244565 -3.06084,-13.809557 -12.13867,-10.939453 -4.6184,1.460176 -8.26871,4.327693 -10.81445,6.8125 -0.9657,0.942587 -1.61317,1.708407 -2.25195,2.445312 0.1006,-0.864792 0.025,-1.730902 -0.30274,-2.513671 -0.69015,-1.648229 -2.37808,-2.885253 -4.83984,-2.960938 -4.89367,-0.15045 -8.75012,3.746626 -11.64063,6.591797 -1.04934,1.032877 -1.91139,1.534883 -2.75781,2.048828 0.0901,-0.285467 0.26775,-0.527659 0.21094,-0.863281 -0.18628,-1.100468 -0.97969,-1.914827 -2.04492,-2.070313 -1.06523,-0.155485 -2.33592,0.233777 -3.76172,1.152344 -2.74773,1.770216 -3.5204,2.645931 -5.13867,3.486328 -1.46298,0.759749 -2.88636,1.34468 -5.75391,1.69336 l 0.0664,-0.273438 c 0.26833,-1.094228 0.25068,-1.994243 0,-2.716797 -0.25069,-0.722554 -0.74121,-1.244016 -1.30274,-1.55664 -1.12306,-0.625249 -2.46699,-0.532391 -3.36914,-0.05273 -1.47213,0.782688 -1.92732,1.457072 -3.16211,3.042969 -0.001,0.0013 -0.003,6.13e-4 -0.004,0.002 -1.21396,1.427581 -3.30039,2.445339 -4.79688,2.455078 -2.54955,0 -4.78726,-1.592119 -9.82812,-2.099609 -1.80126,-0.181341 -2.6888,-1.145941 -3.48633,-2.445313 -0.79754,-1.299371 -1.39507,-2.917657 -2.54297,-4.11914 -2.24638,-2.351241 -5.785672,-2.869342 -9.091798,-1.644532 -3.403285,1.260791 -5.47434,5.357398 -4.044922,8.875 -0.128734,-0.03966 -0.150772,-0.02003 -0.285156,-0.0625 -1.243684,-0.393067 -2.746163,-0.819187 -4.355469,-0.634765 -2.435253,0.279078 -5.059077,0.577269 -6.15625,0.416015 -2.748685,-0.403989 -4.225447,-0.962969 -7.833984,-1.443359 -1.88678,-0.251174 -3.479821,0.08228 -4.964844,0.416016 -1.485023,0.333738 -2.863142,0.664002 -4.417969,0.513672 -1.482807,-0.14337 -2.676678,-0.612039 -3.740234,-1.064454 -0.851686,-0.362285 -1.561645,-0.890737 -2.38086,-1.332031 -0.819215,-0.441294 -1.775116,-0.77667 -2.978515,-0.640625 -0.85355,0.09649 -1.490813,0.386872 -1.919922,0.804688 -0.429109,0.417816 -0.626891,0.939657 -0.697266,1.410156 -0.0682,0.45597 0.02854,0.53476 0.08789,0.855469 -2.090756,-0.300487 -3.646018,-1.462042 -5.140625,-2.855469 -1.654086,-1.542109 -3.31948,-3.240133 -5.78125,-3.375 -1.930902,-0.105791 -3.306114,0.881366 -3.898438,2.179687 -0.228094,-0.779051 -0.435859,-1.598731 -0.707031,-2.197265 -0.88382,-1.950862 -2.077795,-3.802495 -3.552734,-5.396485 -1.474902,-1.593983 -3.232341,-2.92995 -5.240235,-3.841796 -2.007894,-0.911836 -4.267137,-1.396053 -6.722656,-1.28711 z m 0.04687,1.070313 c 2.286756,-0.101456 4.36932,0.345324 6.232422,1.191406 1.863102,0.846092 3.506849,2.09387 4.896484,3.595703 1.389679,1.501847 2.524044,3.258874 3.363282,5.111328 0.389613,0.85996 0.79178,2.436863 1.183593,3.697266 0.195907,0.630201 0.382441,1.178304 0.623047,1.591797 0.120303,0.206746 0.242442,0.403116 0.517578,0.537109 0.137569,0.067 0.329204,0.100639 0.501953,0.06055 0.17275,-0.04009 0.306659,-0.135629 0.40625,-0.236328 l 0.408204,-0.41211 -0.44336,-0.375 c 0,0 -0.646579,-0.565932 -0.77539,-1.49414 -0.155451,-1.429529 0.872966,-2.846711 3.101562,-2.72461 1.991666,0.109113 3.436992,1.528724 5.109375,3.087891 1.672383,1.559168 3.582656,3.230367 6.445313,3.332031 l 0.796875,0.02734 -0.273438,-0.748047 c 0,0 -0.21728,-0.63244 -0.126953,-1.236328 0.04516,-0.301944 0.154065,-0.57425 0.386719,-0.800781 0.232654,-0.226532 0.612894,-0.430931 1.292968,-0.507813 0.957659,-0.108264 1.625059,0.129231 2.34961,0.519532 0.724551,0.3903 1.478441,0.950963 2.470703,1.373046 1.082902,0.460645 2.40483,0.986775 4.056641,1.146485 1.76353,0.170509 3.280777,-0.202138 4.753906,-0.533203 1.473129,-0.331066 2.901294,-0.624916 4.58789,-0.400391 3.538216,0.471029 4.987124,1.024997 7.820313,1.441406 1.475025,0.216787 4.006512,-0.133968 6.433594,-0.412109 1.345561,-0.154198 2.69785,0.208029 3.912109,0.591797 1.214259,0.383767 2.248847,0.864184 3.244141,0.591797 0.881086,-0.241136 1.547246,-0.949902 1.77539,-1.804688 0.228145,-0.854785 -0.04343,-1.885076 -0.943359,-2.583984 -0.503835,-0.39129 -1.157844,-0.422537 -1.619141,-0.185547 -0.461296,0.23699 -0.776462,0.634642 -1.037109,1.039062 -0.04707,0.07303 -0.02906,0.08221 -0.07227,0.15625 -0.234496,-2.541699 1.304444,-5.162523 3.675782,-6.041015 2.983928,-1.105447 6.034728,-0.622909 7.947263,1.378906 0.93156,0.975045 1.5305,2.519022 2.40235,3.939453 0.87184,1.420431 2.1265,2.733064 4.29296,2.951172 4.84379,0.487649 6.97045,2.103516 9.93555,2.103516 h 0.002 c 1.94081,-0.01075 4.18495,-1.149481 5.61524,-2.833985 l 0.008,-0.0078 0.006,-0.0098 c 1.26475,-1.623462 1.48605,-2.053788 2.83594,-2.771484 0.51251,-0.272493 1.61965,-0.362114 2.34375,0.04102 0.36204,0.201565 0.64504,0.495627 0.81054,0.972657 0.0906,0.26124 -0.005,0.761441 -0.0137,1.15625 -0.12153,-0.0898 -0.11138,-0.113549 -0.24804,-0.197266 -0.31235,-0.191325 -0.65396,-0.368415 -1.06836,-0.390625 -0.41441,-0.02221 -0.9228,0.259023 -1.11328,0.720703 -0.32296,0.78274 -0.0526,1.578578 0.44726,2.023438 0.49983,0.444859 1.16569,0.645697 1.80664,0.595703 4.17252,-0.299333 5.70595,-1.139882 7.38477,-2.011719 1.76074,-0.914381 2.53706,-1.805669 5.22461,-3.537109 1.29184,-0.832261 2.35617,-1.090155 3.02734,-0.992188 0.67117,0.09797 1.01505,0.436083 1.14258,1.189453 0.0555,0.327954 -0.0156,0.510939 -0.16406,0.701172 -0.14844,0.190234 -0.40583,0.367658 -0.69727,0.5 -0.58288,0.264684 -1.23828,0.341797 -1.23828,0.341797 l -1.04102,0.113281 0.70117,0.777344 c 0.11734,0.130241 0.31296,0.08287 0.46485,0.146484 l -0.01,0.02734 c 0,0 0.0492,-0.0135 0.0508,-0.01367 0.2448,0.09278 0.46436,0.255967 0.73829,0.232422 0.46171,-0.03968 0.97163,-0.198591 1.54296,-0.464844 1.14267,-0.532504 2.52728,-1.50558 4.00782,-2.96289 2.8932,-2.847823 6.55904,-6.417246 10.85547,-6.285156 2.13326,0.06558 3.35437,1.036051 3.88476,2.302734 0.53039,1.266683 0.33732,2.887315 -0.64062,4.238281 l -0.52539,0.722656 0.88671,0.121094 c 0.27916,0.03813 0.3596,-0.06362 0.42383,-0.107422 0.0642,-0.0438 0.10354,-0.0817 0.14649,-0.123047 0.0859,-0.0827 0.17322,-0.17848 0.27734,-0.298828 0.20824,-0.240695 0.47947,-0.574854 0.82422,-0.984375 0.68949,-0.819041 1.66162,-1.937316 2.89844,-3.144531 2.47363,-2.41443 6.00278,-5.171312 10.39062,-6.558594 8.64615,-2.73362 13.25972,5.704989 10.70899,9.876953 -0.86786,1.419465 -1.65227,2.077494 -2.32813,2.365235 -0.67586,0.287741 -1.2873,0.236635 -1.93359,0.08789 -0.6463,-0.148744 -1.28772,-0.420348 -1.99219,-0.464843 -0.0134,-8.46e-4 -0.0276,0.0084 -0.041,0.0078 -0.24038,-0.06685 -0.47844,-0.191602 -0.72265,-0.226562 -0.37138,-0.05316 -0.7301,0.0076 -0.99024,0.216797 -0.26014,0.209238 -0.35566,0.505248 -0.38281,0.736328 -0.0543,0.462159 0.0937,0.83789 0.0937,0.83789 l 0.37305,1.103516 0.5957,-1.001953 c 0.33667,-0.566516 0.56152,-0.595622 0.95899,-0.576172 0.60798,0.185432 1.20007,0.384562 1.9707,0.630859 1.08302,0.34614 2.34073,0.5906 3.7168,0.210938 l 0.46679,-0.128906 -0.0801,-0.476563 c -0.0697,-0.409591 0.15723,-1.270572 0.58008,-1.798828 0.21143,-0.264128 0.45556,-0.445501 0.68555,-0.517578 0.22999,-0.07208 0.45242,-0.06686 0.76953,0.111328 0.23804,0.133754 0.50815,0.530572 0.76563,1.082031 0.25747,0.551459 0.50818,1.219431 0.89648,1.814453 0.3883,0.595023 0.97366,1.142969 1.80664,1.253907 0.83298,0.110938 1.80521,-0.185513 3.04688,-0.960938 1.05641,-0.659731 1.94259,-0.642296 2.74804,-0.248047 0.80545,0.39425 1.52334,1.2286 1.98438,2.277344 0.92206,2.097488 0.78907,4.90945 -1.14649,6.458984 l -0.0215,0.01758 -0.0195,0.01953 c -0.338,0.331645 -1.17954,0.920235 -1.88867,1.021484 -0.35457,0.05062 -0.65744,0.0054 -0.94922,-0.195312 -0.29179,-0.200745 -0.60019,-0.591237 -0.8418,-1.337891 l -0.375,-1.158203 -0.59961,1.058594 c -0.51463,0.90667 -0.45744,1.847187 -0.043,2.607421 0.41447,0.760235 1.10334,1.399368 1.86133,2.095704 1.51597,1.392671 3.32506,2.970019 4.05078,5.458984 1.17755,4.038562 -0.85848,7.444507 -3.45312,8.822266 l -0.0273,0.01367 -0.0234,0.01563 c 0,0 -1.50251,1.017574 -3.48437,1.169922 -1.98186,0.152349 -4.40031,-0.47485 -6.48047,-4.0625 l -0.006,-0.0098 -0.006,-0.0098 c -1.19198,-1.876162 -2.1754,-2.539996 -3.01953,-2.617187 -0.84413,-0.07719 -1.36523,0.55664 -1.36523,0.55664 l -0.65039,0.859375 1.07812,-0.002 c 0.18663,-4.07e-4 0.59824,0.01026 0.98438,0.142578 0.38613,0.132322 0.70941,0.340974 0.87695,0.8125 0.19292,0.542969 0.16315,0.941834 0.0273,1.289063 -0.1358,0.347229 -0.39928,0.651818 -0.73633,0.902343 -0.56997,0.423679 -1.67256,0.415415 -2.00195,0.376954 -3.06842,-0.35809 -6.14131,-1.72026 -10.81055,-2.304688 -2.45636,-0.307458 -5.08547,0.448906 -7.17187,0.873047 -1.0432,0.212071 -1.95131,0.335706 -2.55859,0.257812 -0.60729,-0.07789 -0.86374,-0.228797 -1.02735,-0.77539 -0.18825,-0.628926 -0.11027,-0.957342 0.0332,-1.183594 0.14347,-0.226252 0.41566,-0.397431 0.76757,-0.507812 0.70382,-0.220764 1.59375,-0.146485 1.59375,-0.146485 l 0.89453,0.0918 -0.34765,-0.830078 c -0.16128,-0.385661 -0.56574,-0.657863 -0.95508,-0.726563 -0.38934,-0.0687 -0.79961,-0.03279 -1.32227,0.01953 -1.04531,0.104637 -2.53736,0.318359 -4.74023,0.318359 h -5.5293 -15.65429 c 0,0 -1.00242,-0.07859 -1.73047,-0.582031 l -0.77149,-0.533203 -0.0664,0.935547 c 0,0 -0.19987,2.615381 -2.40039,4.158203 -2.29188,1.606882 -4.87302,1.916015 -7.61719,1.916015 -2.66025,0 -6.15591,-1.026793 -7.43555,-2.603515 -0.66503,-0.819428 -0.8645,-1.546454 -0.91601,-2.06836 -0.0515,-0.521905 0.0391,-0.789062 0.0391,-0.789062 l 0.24609,-0.785156 -0.8164,0.0918 c -1.76934,0.198301 -3.78941,0.261397 -4.09766,0.259766 -5.79349,-0.02838 -11.6594,-0.109123 -17.339842,0 -6.135306,0.112163 -11.894442,-0.03416 -17.861328,0 h -0.0078 -0.0059 c -3.389638,0.10406 -6.100861,-0.35272 -10.353516,0.002 -3.124616,0.260603 -6.151833,1.757684 -7.246094,2.228516 -1.797008,0.773204 -3.558274,1.274406 -5.251953,0.798828 -0.692523,-0.194457 -1.463538,-0.811919 -2.132812,-1.447266 -0.334637,-0.317673 -0.645044,-0.635306 -0.933594,-0.902343 -0.28855,-0.267038 -0.523334,-0.494146 -0.884766,-0.617188 -0.578284,-0.196859 -1.096239,-0.096 -1.425781,0.08008 -0.329541,0.176079 -0.517578,0.439453 -0.517578,0.439453 l -0.591797,0.845703 1.03125,-0.002 c 1.019511,-0.0019 1.673834,0.57665 2.015625,1.34961 0.341792,0.772959 0.287743,1.701813 -0.130859,2.255859 -0.902228,1.194159 -2.269587,1.441507 -4.123047,1.179688 -1.85346,-0.26182 -4.087751,-1.076885 -6.361328,-1.916016 -2.273578,-0.839131 -4.588073,-1.700275 -6.703125,-2.025391 -2.115053,-0.325116 -4.114838,-0.09052 -5.486328,1.382813 -0.786883,0.845313 -1.598174,1.555913 -2.326172,1.941406 -0.727998,0.385493 -1.30157,0.455879 -1.84961,0.166016 -1.224876,-0.64787 -1.408072,-1.952985 -1.208984,-2.654297 0.27988,-0.985927 0.654297,-1.515625 0.654297,-1.515625 l 0.574219,-0.81836 -0.998047,-0.02539 c -0.308168,-0.0078 -0.441136,0.134417 -0.552735,0.236328 -0.111598,0.101911 -0.20324,0.215119 -0.300781,0.34375 -0.195081,0.257262 -0.406146,0.580579 -0.638672,0.939453 -0.465051,0.717749 -1.022269,1.569972 -1.55664,2.123047 -1.059874,1.096989 -3.329746,2.229938 -5.16211,2.298828 -1.972658,0.07414 -4.19199,-0.05547 -6.8789059,-2.566406 -4.5816793,-4.391121 -5.1743907,-11.800247 -0.00977,-16.736328 1.1885289,-0.908634 3.2735539,-1.725915 5.1113289,-2.53711 0.943661,-0.41653 2.226814,-1.080023 3.15625,-1.929687 0.464718,-0.424832 0.855651,-0.899036 1.02539,-1.472656 0.126056,-0.425995 -0.08871,-0.88778 -0.298828,-1.330079 1.62e-4,-10e-4 0.01367,-0.03711 0.01367,-0.03711 l -0.02148,0.0059 c -0.07054,-0.142209 0.01209,-0.299352 -0.0957,-0.429687 l -0.755859,-0.916016 -0.185547,1.171875 c 0,0 -0.07487,0.457192 -0.357422,0.927735 -0.282554,0.470542 -0.700959,0.902568 -1.523437,0.955078 -1.22798,0.0784 -2.789901,-0.205818 -4.298828,-1.761719 C 5.5075622,41.914314 9.5194207,29.846645 18.830078,29.433594 Z m 72.978516,14.394531 c 0.172204,-0.08847 0.221484,-0.115424 0.470703,0.07813 0.606176,0.470771 0.695526,0.977165 0.566406,1.460937 -0.12912,0.483773 -0.539075,0.916269 -1.023437,1.048829 -0.268481,0.07348 -1.122899,-0.19226 -1.914063,-0.419922 l 0.583984,-0.0293 c 0,0 0.274467,-0.828764 0.689454,-1.472656 0.207493,-0.321947 0.454748,-0.577546 0.626953,-0.666016 z m 36.888671,1.603516 c 0.0901,0.0048 0.32795,0.08951 0.56445,0.234375 0.47299,0.289734 0.9375,0.74414 0.9375,0.74414 l 0.13672,0.136719 c -0.22254,0.02033 -0.2794,0.0686 -0.52149,0.08594 h -0.002 c -0.33084,0.02581 -0.77157,-0.114386 -1.01172,-0.328125 -0.24015,-0.213738 -0.34231,-0.396633 -0.16992,-0.814453 0.0572,-0.138599 -0.0237,-0.06342 0.0664,-0.05859 z"
         id="path68034" /></g><g
       id="path207528-0"><path
         style="color:#000000;fill:#ffffff;stroke-linecap:square;stroke-miterlimit:2.5;-inkscape-stroke:none"
         d="m 163.83759,67.947012 c 0.87309,2.54 6.61254,-0.48062 11.20911,0.0204 4.59657,0.50099 7.63722,1.6848 10.81731,2.00796 0.39751,0.0404 1.59283,0.0947 2.38473,-0.41786 0.7919,-0.51257 1.35386,-1.31538 0.89478,-2.4405 -0.45908,-1.12511 -1.97351,-1.14214 -2.36761,-1.14139 0,0 1.20545,-1.38939 3.50666,1.76462 4.32286,6.49223 10.73492,2.67222 10.73492,2.67222 2.81691,-1.30249 4.96489,-4.50181 3.71757,-8.22687 -1.5515,-4.63348 -7.68432,-5.78479 -5.92046,-8.49077 1.06527,2.86665 3.75148,1.3307 4.56665,0.63421 4.33853,-3.02446 0.53624,-10.734326 -4.20693,-8.154976 -4.74317,2.579336 -4.25959,-1.9523 -5.96987,-2.78914 -1.71028,-0.83683 -3.04653,1.28667 -2.82772,2.40619 -2.48066,0.59598 -4.52907,-0.75116 -6.27161,-0.96837 -1.11736,-0.13929 -0.69606,0.94845 -0.69606,0.94845 1.70801,-2.5027 4.62925,2.445216 8.24844,-2.7094 2.85875,-4.07156 -2.32238,-11.77168 -11.33181,-9.29129 -9.00943,2.48039 -14.36177,9.79758 -14.73227,9.75351 2.15569,-2.59314 0.93422,-6.31333 -3.66244,-6.43639 -4.59667,-0.12306 -8.35938,3.12829 -11.25227,5.60785 -2.89289,2.47955 -5.39269,3.27333 -6.02252,2.66456 0,0 2.88422,-0.27097 2.57031,-1.88583 -0.31391,-1.61486 -2.27168,-2.01155 -4.99029,-0.48642 -2.71861,1.52512 -3.49256,2.29514 -5.18267,3.05942 -1.69011,0.764276 -3.06272,1.443986 -7.18189,1.700786 -1.33136,0.006 -1.07676,-1.339876 -0.73092,-1.577406 0.16623,-0.2974 1.03698,0.42143 1.03698,0.42143 1.03299,-3.34074 -2.06729,-3.7335 -3.48245,-3.07832 -1.41517,0.65518 -1.75035,1.13513 -3.00758,2.5404 -1.32283,1.356636 -3.49091,2.296106 -5.21084,2.304396 -2.75831,0 -4.94097,-1.39755 -9.88505,-1.830976 -3.96913,-0.34796 -4.28441,-3.96439 -6.36461,-5.86034 -2.0802,-1.89594 -5.376396,-2.33157 -8.522536,-1.31665 -3.14615,1.01493 -4.56803,3.3571 -3.72938,6.83531 0,0 1.48805,-0.68303 1.67447,-0.12329 0.18641,0.55973 0.0267,0.42521 -0.29046,0.66737 -0.31714,0.242146 -3.51238,-0.52444 -6.46829,-0.22947 -2.43204,0.242696 -5.01065,0.524726 -6.2972,0.360076 -2.79194,-0.357316 -4.25515,-0.841626 -7.8298,-1.256006 -3.57464,-0.41438 -6.04595,1.09075 -9.36549,0.81127 -1.56787,-0.132 -2.82608,-0.56556 -3.89969,-0.96324 -1.8446,-0.68325 -2.93001,-1.89682 -5.09184,-1.68401 -3.06833,0.30206 -1.99648,2.84249 -1.99648,2.84249 -5.33106,-0.16485 -7.09332,-5.37914 -11.54834,-5.59167 -2.48754,-0.11867 -3.86068,1.37399 -3.6678,2.89399 0.15284,1.00545 0.96524,1.60347 0.96524,1.60347 -0.79258,0.69784 -1.50301,-3.13005 -2.36488,-4.78657 -0.86184,-1.65655 -2.02608,-3.22763 -3.45889,-4.57601 -1.43277,-1.34837 -3.13417,-2.47402 -5.07035,-3.23968 -1.93619,-0.76565 -4.10716,-1.1713 -6.47915,-1.07967 -9.7658108,0.37726 -14.0579905,11.33186 -8.49596,16.325916 1.61861,1.45333 3.37173,1.75108 4.71969,1.67614 2.0277,-0.11273 2.37671,-2.03269 2.37671,-2.03269 1.43093,1.50666 -1.76045,3.0999 -3.58534,3.80132 -1.82488,0.70141 -3.9395198,1.40282 -5.2388805,2.27242 -5.40879,4.47415 -4.8141,11.27771 -0.0191,15.27943 2.7959905,2.27777 5.2514205,2.43157 7.2736005,2.3654 2.02219,-0.0662 4.34363,-1.07671 5.52942,-2.14543 1.18579,-1.06871 2.25566,-3.03832 2.64993,-3.02959 0,0 -0.43065,0.53404 -0.73242,1.4597 -0.26822,0.82277 0.0124,2.17931 1.47541,2.85314 1.46306,0.67383 3.20138,-0.41839 4.81854,-1.93115 4.86595,-4.55181 18.54153,5.97872 22.71751,1.16575 1.13224,-1.30494 0.15624,-3.89363 -2.31371,-3.88963 0,0 0.43803,-0.54454 1.33269,-0.27933 0.74438,0.22066 2.25869,2.17084 3.9802,2.59177 1.87965,0.45959 3.77531,-0.0286 5.6114,-0.71659 1.13721,-0.42609 4.0979,-1.68761 7.08122,-1.90428 4.1969,-0.30479 6.88203,0.0921 10.32858,0 5.95824,-0.0297 11.72356,0.0979 17.87567,0 5.670296,-0.0949 11.533736,-0.0247 17.332476,0 0.37824,0.002 2.36015,-0.0536 4.16099,-0.22932 0,0 -0.48872,1.35455 0.9737,2.92366 1.48697,1.59544 5.06817,2.44104 7.85388,2.44104 2.78571,0 5.50518,-0.27542 7.92666,-1.75378 2.42149,-1.47836 2.62747,-3.9717 2.62747,-3.9717 0.88719,0.53421 2.00557,0.5901 2.00557,0.5901 h 15.68915 5.53203 c 4.47737,0 6.13452,-0.76483 6.52655,0.0515 0,0 -3.83544,-0.34165 -2.96235,2.19835 z"
         id="path68038" /><path
         style="color:#000000;fill:#000000;stroke-linecap:square;stroke-miterlimit:2.5;-inkscape-stroke:none"
         d="m 18.767578,31.335937 c -5.066614,0.195727 -8.756798,3.15003 -10.4296874,6.71875 -1.6728896,3.568721 -1.3446728,7.817357 1.6191407,10.478516 1.7268907,1.550554 3.6348397,1.883083 5.0800777,1.802734 0.09752,-0.0054 0.150342,-0.06138 0.242188,-0.07422 -0.583499,0.312461 -1.14894,0.681211 -1.658203,0.876953 -1.808334,0.69505 -3.9314721,1.384277 -5.3359377,2.324219 l -0.021484,0.01367 -0.019531,0.01563 c -2.8072386,2.322148 -4.0935421,5.300423 -4.0175781,8.214844 0.075964,2.914422 1.4993823,5.750327 3.9960938,7.833985 l 0.00195,0.002 0.00391,0.002 c 2.898576,2.361342 5.544756,2.545946 7.605468,2.478515 2.175984,-0.07123 4.53723,-1.094338 5.847657,-2.27539 0.444479,-0.400594 0.790265,-0.88927 1.152343,-1.359375 -0.0192,0.989264 0.356408,2.109892 1.695313,2.726562 0.893106,0.411331 1.871336,0.268575 2.771484,-0.146484 0.900148,-0.415059 1.769601,-1.098574 2.59961,-1.875 1.060918,-0.992427 2.642851,-1.192389 4.605468,-0.929688 1.962618,0.262702 4.240904,0.99159 6.515625,1.722657 2.274722,0.731067 4.546373,1.464414 6.566407,1.71289 2.020033,0.248477 3.872781,-0.0035 5.064453,-1.376953 0.648941,-0.747924 0.673494,-1.769142 0.318359,-2.677734 0.638371,0.50468 1.329735,1.050509 2.185547,1.259765 2.034342,0.497414 4.035097,-0.03398 5.904297,-0.734375 1.173844,-0.439816 4.07605,-1.666755 6.943359,-1.875 4.146322,-0.301116 6.807975,0.09425 10.294922,0.002 5.949488,-0.02966 11.716876,0.09809 17.880859,0 5.660402,-0.09474 11.520932,-0.02471 17.322262,0 0.37696,0.002 2.05687,-0.07508 3.63672,-0.201172 -0.0166,0.172305 -0.0575,0.170786 -0.0312,0.402343 0.0717,0.632962 0.36694,1.476613 1.16602,2.333985 0.84994,0.911944 2.18764,1.533512 3.66797,1.958984 1.48033,0.425473 3.10733,0.640625 4.55078,0.640625 2.81866,0 5.64749,-0.275449 8.1875,-1.826172 2.15645,-1.31655 2.57854,-3.08989 2.70508,-3.794922 0.75391,0.2571 1.64257,0.486329 1.64257,0.486329 h 0.0117 15.70313 5.53125 c 1.71799,0 2.69221,-0.122583 3.66601,-0.214844 -0.13142,0.102534 -0.30767,0.112456 -0.41211,0.255859 -0.33745,0.463385 -0.41584,1.132927 -0.16211,1.871094 0.28292,0.823068 1.05564,1.24463 1.89063,1.337891 0.83499,0.09326 1.80471,-0.04261 2.87695,-0.232422 2.14448,-0.379614 4.69098,-0.986353 6.85938,-0.75 4.53583,0.49437 7.54993,1.675477 10.82031,2.007812 0.45298,0.04604 1.70894,0.149927 2.70703,-0.496094 0.45062,-0.291671 0.866,-0.680606 1.10156,-1.205078 0.13026,-0.290015 0.006,-0.670503 -0.008,-1.019531 0.0989,0.123147 0.16053,0.139165 0.26563,0.283203 l -0.0117,-0.01758 c 2.24971,3.378695 5.16318,4.144427 7.4375,3.992188 2.24486,-0.150267 3.8963,-1.128636 3.93945,-1.154297 3.0028,-1.398555 5.29162,-4.865785 3.96484,-8.828125 -0.83477,-2.493007 -2.86811,-4.003547 -4.36523,-5.201172 -0.74856,-0.598813 -1.3617,-1.131449 -1.64258,-1.580078 -0.11537,-0.184273 -0.16116,-0.334723 -0.18555,-0.492188 0.20195,0.251253 0.34361,0.627874 0.58985,0.775391 0.52673,0.315557 1.11442,0.380847 1.64844,0.314453 1.06113,-0.131929 1.95727,-0.72065 2.43554,-1.126953 2.36332,-1.669019 2.52638,-4.639974 1.43946,-6.792969 -0.54552,-1.080565 -1.40365,-1.986086 -2.49024,-2.449219 -1.08659,-0.463132 -2.40086,-0.448407 -3.70312,0.259766 -1.13495,0.617182 -1.89928,0.770554 -2.39649,0.712891 -0.49721,-0.05766 -0.79194,-0.295201 -1.08594,-0.6875 -0.29399,-0.392299 -0.53776,-0.932024 -0.82031,-1.458985 -0.28255,-0.52696 -0.61303,-1.073637 -1.20898,-1.365234 -0.3909,-0.191264 -0.76378,-0.149216 -1.13281,-0.117188 1.1835,-2.225892 0.54485,-5.112971 -1.49024,-7.207031 -2.19234,-2.255861 -5.9514,-3.604116 -10.60742,-2.322266 -4.60159,1.266867 -8.25093,3.759927 -10.79688,5.923829 -1.00315,0.85262 -1.69151,1.554861 -2.34179,2.210937 0.1084,-0.777781 0.0266,-1.560654 -0.31055,-2.261719 -0.70221,-1.460314 -2.36694,-2.509113 -4.79883,-2.574218 -4.83948,-0.129561 -8.70023,3.250092 -11.59179,5.728515 -1.08202,0.92742 -1.98346,1.393725 -2.85157,1.84375 0.0926,-0.260419 0.274,-0.47693 0.21485,-0.78125 -0.19265,-0.991024 -0.9916,-1.691365 -2.02149,-1.822265 -1.02988,-0.1309 -2.28302,0.197468 -3.70312,0.99414 -2.74593,1.540443 -3.51709,2.305075 -5.14453,3.041016 -1.56565,0.707991 -2.95752,1.268991 -6.31836,1.55664 l 0.12695,-0.408203 c 0.27992,-0.905261 0.29576,-1.669212 0.0859,-2.291015 -0.20983,-0.621804 -0.65024,-1.072097 -1.1543,-1.337891 -1.00813,-0.531587 -2.23504,-0.452859 -3.10351,-0.05078 -1.46585,0.678642 -1.91979,1.263733 -3.15625,2.646484 -1.21258,1.242339 -3.31259,2.144281 -4.85157,2.152344 -2.58942,0 -4.81732,-1.389605 -9.84179,-1.830078 -1.83559,-0.16092 -2.73075,-1.011314 -3.52539,-2.138672 -0.79465,-1.127358 -1.39715,-2.547632 -2.54493,-3.59375 -2.24636,-2.047387 -5.730633,-2.480956 -9.013668,-1.421875 -1.659081,0.53521 -2.924158,1.448153 -3.640625,2.724609 -0.692394,1.233569 -0.825151,2.780861 -0.4375,4.53125 -0.116347,-0.01259 -0.182648,-0.02042 -0.30664,-0.0332 -1.218968,-0.125643 -2.785967,-0.249205 -4.324219,-0.0957 -2.435374,0.243029 -5.0518,0.508126 -6.183594,0.363281 -2.757326,-0.352886 -4.232528,-0.840098 -7.835937,-1.257812 -1.869196,-0.216681 -3.449076,0.07082 -4.933594,0.361328 -1.484518,0.290512 -2.872607,0.581793 -4.447266,0.449219 -1.498947,-0.126198 -2.704242,-0.538996 -3.769531,-0.933594 -0.861835,-0.319229 -1.572724,-0.780286 -2.386719,-1.162109 -0.813995,-0.381823 -1.746484,-0.667064 -2.927734,-0.550782 -0.837911,0.08249 -1.453527,0.325179 -1.88086,0.6875 -0.427332,0.362322 -0.63779,0.833924 -0.710937,1.259766 -0.06829,0.397537 0.02849,0.456351 0.08594,0.740234 -2.147832,-0.252412 -3.721058,-1.289871 -5.228515,-2.513672 -1.65493,-1.343523 -3.317547,-2.810391 -5.736328,-2.925781 -1.347812,-0.0643 -2.448561,0.308651 -3.191407,0.955078 -0.326474,0.2841 -0.549667,0.638922 -0.722656,1.007813 C 34.737618,41.780006 34.522032,41.045371 34.238281,40.5 33.35109,38.794723 32.153261,37.179595 30.677734,35.791016 29.202241,34.402439 27.44809,33.23967 25.449219,32.449219 23.450336,31.658778 21.208203,31.241656 18.767578,31.335937 Z m 0.03711,0.998047 c 2.303351,-0.08898 4.403851,0.304065 6.277344,1.044922 1.873485,0.740868 3.520113,1.830512 4.910156,3.138672 1.390091,1.308178 2.522888,2.83554 3.359375,4.443359 0.384114,0.738269 0.788329,2.111157 1.181641,3.212891 0.196656,0.550867 0.38352,1.033176 0.628906,1.400391 0.122694,0.183607 0.255304,0.357761 0.507813,0.464843 0.252508,0.107083 0.622258,0.0279 0.820312,-0.146484 l 0.464844,-0.410156 -0.5,-0.369141 c 0,0 -0.643217,-0.501032 -0.763672,-1.271484 -0.07221,-0.589894 0.145123,-1.165097 0.660156,-1.613281 0.517389,-0.450234 1.346602,-0.763356 2.486329,-0.708985 2.036234,0.09714 3.48158,1.343209 5.154296,2.701172 1.672717,1.357963 3.575736,2.803219 6.402344,2.890625 l 0.779297,0.02344 -0.302734,-0.71875 c 0,0 -0.205957,-0.535252 -0.121094,-1.029297 0.04243,-0.247023 0.138385,-0.467053 0.373047,-0.666016 0.234662,-0.198963 0.635779,-0.386536 1.332031,-0.455078 0.980578,-0.09653 1.673981,0.118366 2.404297,0.460937 0.730316,0.342572 1.482081,0.831292 2.464844,1.195313 1.081929,0.400762 2.396413,0.854385 4.033203,0.992187 1.744877,0.146906 3.24993,-0.174303 4.724609,-0.46289 1.474679,-0.288587 2.919559,-0.547308 4.625,-0.34961 3.545884,0.411046 4.997671,0.894115 7.824219,1.25586 1.441304,0.184455 3.981455,-0.117012 6.410156,-0.359375 1.417655,-0.141468 2.924182,-0.02962 4.121094,0.09375 0.598456,0.06168 1.118548,0.125545 1.525391,0.160156 0.203421,0.01731 0.377689,0.02895 0.535156,0.02539 0.157467,-0.0036 0.287914,0.04137 0.539062,-0.150391 0.09091,-0.06941 0.175961,-0.0072 0.414063,-0.289062 0.119051,-0.140916 0.161626,-0.367036 0.148437,-0.513672 -0.01319,-0.146636 -0.04814,-0.265379 -0.09961,-0.419922 -0.05963,-0.17903 -0.196676,-0.338104 -0.34375,-0.425781 -0.147074,-0.08768 -0.294253,-0.119036 -0.427734,-0.13086 -0.266963,-0.02365 -0.5076,0.02421 -0.734375,0.08203 -0.111375,0.0284 -0.109305,0.04113 -0.208985,0.07422 -0.228727,-1.367367 -0.12784,-2.525161 0.371094,-3.414062 0.571347,-1.017911 1.589106,-1.783953 3.076172,-2.263672 3.009239,-0.970757 6.119173,-0.533552 8.033208,1.210937 0.93241,0.849831 1.52701,2.187855 2.40234,3.429688 0.87533,1.241832 2.12232,2.371554 4.25586,2.558594 4.86368,0.426377 7.00054,1.833984 9.92773,1.833984 h 0.002 c 1.89997,-0.0092 4.13348,-0.987492 5.5664,-2.457031 l 0.008,-0.0078 0.008,-0.0078 c 1.2655,-1.414519 1.4877,-1.791209 2.8457,-2.419922 0.54669,-0.253102 1.57729,-0.306885 2.21484,0.0293 0.31878,0.168091 0.54866,0.40249 0.67383,0.773437 0.0722,0.213819 -0.0271,0.628272 -0.0547,0.964844 -0.0809,-0.03838 -0.1491,-0.08481 -0.25,-0.109375 -0.0986,-0.02401 -0.21424,-0.04324 -0.36523,-0.0098 -0.12355,0.02739 -0.24757,0.137922 -0.34375,0.253907 -0.1575,0.148488 -0.27518,0.306709 -0.33594,0.49414 -0.0745,0.229745 -0.1076,0.490761 -0.0625,0.767578 0.0451,0.276818 0.18351,0.577485 0.44727,0.792969 0.26375,0.215485 0.62596,0.326098 1.04297,0.324219 h 0.0156 l 0.0137,-0.002 c 4.16697,-0.25978 5.67612,-0.983847 7.35743,-1.744141 1.75277,-0.792618 2.52941,-1.56833 5.2207,-3.078125 1.2985,-0.728456 2.38271,-0.964877 3.08984,-0.875 0.70713,0.08988 1.04475,0.39765 1.16602,1.021484 0.0506,0.260361 -0.007,0.384409 -0.15235,0.546875 -0.14558,0.162467 -0.4108,0.323504 -0.70898,0.441407 -0.59635,0.235806 -1.26562,0.302734 -1.26563,0.302734 l -1.08203,0.103516 0.78125,0.753906 c 0.1075,0.103904 0.27491,0.05882 0.4043,0.111328 l -0.01,0.02734 c 0,0 0.0546,-0.01348 0.0566,-0.01367 0.2389,0.08602 0.45904,0.223732 0.73437,0.203125 0.44451,-0.03327 0.94531,-0.168591 1.51172,-0.398438 1.13281,-0.459693 2.51759,-1.30529 3.99805,-2.574218 2.89421,-2.480692 6.56021,-5.602888 10.91406,-5.486328 2.16477,0.05795 3.40701,0.928985 3.92578,2.007812 0.51877,1.078828 0.33826,2.438893 -0.63477,3.609375 l -0.58789,0.707031 0.91407,0.107422 c 0.23053,0.02742 0.30263,-0.04602 0.36328,-0.08203 0.0606,-0.03601 0.10183,-0.06967 0.14453,-0.105469 0.0854,-0.0716 0.17116,-0.154861 0.27539,-0.259765 0.20845,-0.209808 0.48136,-0.500748 0.82617,-0.857422 0.68963,-0.713349 1.66084,-1.68835 2.89844,-2.740235 2.4752,-2.103769 6.00819,-4.509135 10.41601,-5.722656 4.35341,-1.198537 7.68911,0.06465 9.625,2.056641 1.9359,1.991987 2.42663,4.668595 1.16407,6.466797 -0.86501,1.231976 -1.64507,1.80688 -2.33985,2.064453 -0.69477,0.257573 -1.33872,0.21143 -1.99414,0.08008 -0.65541,-0.131352 -1.29682,-0.364957 -1.97656,-0.402344 -0.0109,-5.98e-4 -0.0223,0.0063 -0.0332,0.0059 -0.24424,-0.05766 -0.49317,-0.166711 -0.73828,-0.197265 -0.35479,-0.04423 -0.67553,-8.65e-4 -0.92774,0.175781 -0.25221,0.176646 -0.3671,0.458006 -0.39648,0.675781 -0.0588,0.435551 0.10156,0.773438 0.10156,0.773438 l 0.34375,0.886719 0.53516,-0.785157 c 0.32904,-0.482143 0.58855,-0.525384 1.00781,-0.509765 1.47985,0.405505 3.33859,1.293072 5.66406,0.734375 l 0.46484,-0.111328 -0.0918,-0.470704 c -0.0612,-0.313296 0.14847,-1.045192 0.56836,-1.501953 0.41988,-0.45676 0.88983,-0.681815 1.54882,-0.359375 0.2592,0.126823 0.51157,0.461976 0.76758,0.939453 0.25602,0.477478 0.5086,1.065094 0.90039,1.587891 0.3918,0.522797 0.97191,0.987347 1.77149,1.080078 0.79958,0.09273 1.75359,-0.15564 2.99023,-0.828125 1.06932,-0.5815 2.00726,-0.570289 2.83203,-0.21875 0.82478,0.351539 1.5346,1.077931 1.99024,1.980469 0.91127,1.805076 0.80892,4.183911 -1.14063,5.542969 l -0.0215,0.01563 -0.0176,0.01563 c -0.33937,0.289962 -1.1806,0.809696 -1.92578,0.902343 -0.37259,0.04632 -0.70971,0.0012 -1.01172,-0.179687 -0.30201,-0.180932 -0.5986,-0.511711 -0.83594,-1.150391 l -0.3457,-0.93164 -0.54102,0.832031 c -0.5222,0.801123 -0.46438,1.682375 -0.043,2.355469 0.42141,0.673094 1.10713,1.223632 1.86523,1.830078 1.5162,1.212892 3.32624,2.59586 4.04297,4.736328 1.16507,3.479431 -0.83144,6.403011 -3.45313,7.615234 l -0.0254,0.0098 -0.0215,0.01367 c 0,0 -1.51102,0.894589 -3.52344,1.029297 -2.01242,0.134708 -4.46591,-0.4353 -6.53906,-3.548828 l -0.006,-0.0078 -0.008,-0.0098 c -1.19571,-1.638825 -2.18329,-2.20605 -2.98047,-2.269531 -0.52319,-0.04166 -0.64445,0.15716 -0.85742,0.310547 -0.0134,-1e-5 -0.0609,-0.0098 -0.0723,-0.0098 l 0.0137,0.03125 c -0.0852,0.06525 -0.39062,0.140625 -0.39062,0.140625 l -0.72071,0.830079 1.09961,-0.002 c 0.18863,-3.58e-4 0.61397,0.0071 1.01563,0.126954 0.40166,0.119856 0.7295,0.317819 0.88672,0.703125 0.18686,0.457969 0.15791,0.768332 0.0293,1.054687 -0.12861,0.286355 -0.39114,0.556446 -0.73242,0.777344 -0.5857,0.379098 -1.72046,0.374605 -2.0625,0.339844 -3.08979,-0.313984 -6.1552,-1.500204 -10.8125,-2.007813 -2.42817,-0.264667 -5.04992,0.387372 -7.14258,0.757813 -1.04632,0.18522 -1.96144,0.296967 -2.59179,0.226562 -0.63036,-0.0704 -0.90302,-0.222991 -1.05664,-0.669922 -0.18281,-0.531832 -0.11074,-0.772055 0.0254,-0.958984 0.13613,-0.186929 0.4234,-0.349879 0.78711,-0.449219 0.72742,-0.19868 1.63281,-0.130859 1.63281,-0.130859 l 0.875,0.07813 L 167.25,65.53125 c -0.0753,-0.156802 -0.27014,-0.176101 -0.41016,-0.277344 l 0.004,-0.0039 c 0,0 -0.008,3e-6 -0.008,0 -0.17647,-0.126369 -0.31062,-0.316154 -0.51563,-0.347656 -0.37002,-0.05686 -0.77417,-0.02977 -1.29492,0.01563 -1.0415,0.09078 -2.54174,0.279297 -4.75195,0.279297 h -5.53125 -15.66407 c 0,0 -1.03212,-0.07121 -1.77343,-0.517579 l -0.68946,-0.416015 -0.0664,0.802734 c 0,0 -0.17178,2.231294 -2.39063,3.585938 -2.30294,1.405994 -4.91326,1.679687 -7.66601,1.679687 -1.34226,0 -2.89696,-0.205376 -4.27539,-0.601562 -1.37844,-0.396187 -2.57587,-0.996194 -3.21289,-1.679688 -0.66335,-0.711736 -0.85481,-1.329035 -0.9043,-1.765625 -0.0495,-0.43659 0.0352,-0.648437 0.0352,-0.648437 l 0.26953,-0.744141 -0.78711,0.07813 c -1.7757,0.173266 -3.79132,0.228255 -4.11133,0.226563 -5.79614,-0.02469 -11.66162,-0.09507 -17.341798,0 -6.140223,0.09771 -11.904113,-0.02974 -17.871093,0 h -0.0059 -0.0039 c -3.40127,0.09089 -6.108026,-0.306224 -10.351562,0.002 -3.099325,0.225095 -6.12013,1.52123 -7.220704,1.933593 -1.802976,0.675583 -3.593404,1.120985 -5.318359,0.699219 -0.720555,-0.176184 -1.486311,-0.715736 -2.15625,-1.269531 -0.334969,-0.276897 -0.64539,-0.554859 -0.933594,-0.787109 -0.288203,-0.232251 -0.53297,-0.430224 -0.867187,-0.529297 -0.558051,-0.165427 -1.036563,-0.08106 -1.353516,0.06641 -0.316953,0.14747 -0.509765,0.378906 -0.509765,0.378906 l -0.65625,0.816406 1.046875,-0.002 c 2.120378,-0.0034 2.760059,2.112226 1.935546,3.0625 -0.896315,1.033037 -2.318764,1.269169 -4.189453,1.039063 -1.870689,-0.230106 -4.106449,-0.942862 -6.380859,-1.673828 -2.27441,-0.730967 -4.588855,-1.480548 -6.689453,-1.761719 -2.100598,-0.281171 -4.049821,-0.09012 -5.421875,1.193359 -0.78715,0.736333 -1.596872,1.35453 -2.335938,1.695313 -0.739065,0.340783 -1.361688,0.408983 -1.93164,0.146484 -1.253475,-0.577322 -1.395157,-1.673053 -1.208985,-2.24414 0.275886,-0.846263 0.644532,-1.300782 0.644532,-1.300782 l 0.638671,-0.791015 -1.015625,-0.02344 c -0.259781,-0.0058 -0.391682,0.105675 -0.501953,0.19336 -0.11027,0.08769 -0.202752,0.184306 -0.300781,0.296875 -0.196057,0.225137 -0.406054,0.50964 -0.638672,0.822265 -0.465235,0.62525 -1.019713,1.36355 -1.554687,1.845703 -1.061151,0.956386 -3.342545,1.956413 -5.210938,2.017578 -1.982491,0.06487 -4.246164,-0.05948 -6.9374997,-2.25 l -0.00195,-0.002 c -7.825e-4,-6.37e-4 -0.00117,-0.0013 -0.00195,-0.002 -2.2954551,-1.917654 -3.5649233,-4.483264 -3.6328125,-7.08789 -0.067737,-2.598784 1.0492769,-5.249736 3.6347656,-7.398438 1.1968386,-0.795176 3.2854766,-1.506151 5.1191406,-2.210937 0.939673,-0.361176 2.219374,-0.935809 3.146484,-1.673829 0.463555,-0.369009 0.8554,-0.779507 1.033203,-1.302734 0.127288,-0.374572 -0.09759,-0.781533 -0.292969,-1.171875 1.31e-4,-7.06e-4 0.01172,-0.0293 0.01172,-0.0293 l -0.01758,0.0059 c -0.07607,-0.146449 0.0106,-0.313022 -0.111328,-0.441407 l -0.679688,-0.71289 -0.175781,0.96875 c 0,0 -0.07021,0.376963 -0.347656,0.779297 -0.277447,0.402334 -0.706099,0.796029 -1.564453,0.84375 -1.25059,0.06957 -2.847007,-0.192686 -4.357333,-1.54879 C 8.0267885,45.456171 7.7180454,41.729918 9.2421875,38.478516 10.76633,35.227114 14.105501,32.515517 18.804688,32.333984 Z M 129.39844,46.667969 c 0.0283,0.01421 0.0359,0.01302 0.0664,0.03125 0.19463,0.116327 0.39454,0.279297 0.39453,0.279297 l 0.2754,0.226562 c -0.12265,0.0088 -0.14917,0.03296 -0.27735,0.04102 -0.23377,-0.002 -0.34386,-0.05431 -0.39453,-0.0957 -0.0521,-0.0426 -0.0774,-0.0911 -0.0918,-0.179688 -0.0144,-0.08859 -0.004,-0.209603 0.0254,-0.298828 0.001,-0.0041 4.8e-4,1.2e-5 0.002,-0.0039 z"
         id="path68040" /></g><g
       aria-label="Lamalagahla"
       transform="matrix(1.0403796,0,0,1.0403796,-150.23969,-116.15069)"
       id="text1698-0-3"
       style="font-weight:600;font-size:27.1269px;font-family:'ITC Souvenir Std';-inkscape-font-specification:'ITC Souvenir Std, Semi-Bold';white-space:pre;shape-inside:url(#rect1700-5-8);display:inline"><path
         d="m 164.14932,168.84301 c 0,1.00369 0,1.16645 -0.56967,1.5191 -0.56966,0.35265 -0.86806,0.51541 -0.86806,1.11221 0,0.62391 0.46116,0.8138 1.32922,0.8138 h 12.17998 c 1.22071,0 1.43772,-0.10851 1.79037,-1.24783 0.24415,-0.67818 0.5968,-1.73613 0.5968,-2.46855 0,-0.51541 -0.48829,-0.89519 -0.97657,-0.89519 -0.7053,0 -1.32922,0.81381 -1.76325,1.30209 -1.16646,1.27497 -2.22441,1.35635 -3.85202,1.35635 h -1.0037 c -1.54623,-0.0814 -1.92601,-0.0814 -1.92601,-1.68187 v -12.77677 c 0,-1.0037 0,-1.16646 0.56967,-1.51911 0.56966,-0.35265 0.86806,-0.51541 0.86806,-1.1122 0,-0.62392 -0.46116,-0.81381 -1.32922,-0.81381 h -5.15411 c -0.86806,0 -1.32922,0.18989 -1.32922,0.81381 0,0.59679 0.2984,0.75955 0.86806,1.1122 0.56967,0.35265 0.56967,0.51541 0.56967,1.51911 z"
         id="path51408" /><path
         d="m 192.33413,164.28569 c 0,-3.17385 -2.0074,-5.26262 -6.72748,-5.26262 -1.32921,0 -5.61526,0.35265 -5.61526,2.25153 0,0.94944 0.89518,1.30209 1.68186,1.30209 1.709,0 1.95314,-1.73612 3.60788,-1.73612 1.73612,0 2.5228,1.22071 2.5228,2.84833 h -0.92231 c -2.98396,0 -7.8668,0.94944 -7.8668,4.80146 0,2.79407 2.33291,4.20467 4.88284,4.20467 1.65474,0 3.28235,-0.56967 4.20467,-2.08878 0,1.22072 0,1.68187 1.35634,1.68187 h 2.8212 c 0.65105,0 1.46485,0 1.46485,-0.86806 0,-0.46116 -0.29839,-0.65104 -0.89518,-0.94944 -0.48829,-0.24414 -0.51541,-0.62392 -0.51541,-1.89888 z m -4.39456,1.1122 c 0,2.8212 0,2.84832 -0.56967,3.77064 -0.48828,0.73243 -1.19358,1.30209 -2.08877,1.30209 -1.1122,0 -1.70899,-0.92231 -1.70899,-1.95314 0,-2.17015 1.95313,-3.11959 3.87914,-3.11959 z"
         id="path51410" /><path
         d="m 195.91487,168.62599 c 0,1.32922 0,1.65474 -0.4069,1.95314 -0.43403,0.18989 -0.67817,0.37977 -0.67817,0.84093 0,0.84094 0.67817,0.86806 1.27496,0.86806 h 4.04191 c 0.59679,0 1.27496,-0.0271 1.27496,-0.86806 0,-0.46116 -0.24414,-0.65104 -0.67817,-0.84093 -0.4069,-0.2984 -0.4069,-0.62392 -0.4069,-1.95314 v -3.85202 c 0,-0.78668 0,-1.73612 0.48828,-2.38717 0.46116,-0.59679 1.08508,-0.92231 1.87176,-0.92231 1.79037,0 1.76325,1.87176 1.76325,3.17385 v 3.98765 c 0,1.32922 0,1.65474 -0.40691,1.95314 -0.43403,0.18989 -0.67817,0.37977 -0.67817,0.84093 0,0.84094 0.67817,0.86806 1.27496,0.86806 h 4.04191 c 0.59679,0 1.27497,-0.0271 1.27497,-0.86806 0,-0.46116 -0.24415,-0.65104 -0.67818,-0.84093 -0.4069,-0.2984 -0.4069,-0.62392 -0.4069,-1.95314 v -3.85202 c 0,-0.78668 0,-1.73612 0.48829,-2.38717 0.46115,-0.59679 1.08507,-0.92231 1.87175,-0.92231 1.79038,0 1.76325,1.87176 1.76325,3.17385 v 3.98765 c 0,1.32922 0,1.65474 -0.4069,1.95314 -0.43403,0.18989 -0.67818,0.37977 -0.67818,0.84093 0,0.84094 0.67818,0.86806 1.27497,0.86806 h 4.04191 c 0.59679,0 1.27496,-0.0271 1.27496,-0.86806 0,-0.46116 -0.24414,-0.65104 -0.67817,-0.84093 -0.40691,-0.2984 -0.40691,-0.62392 -0.40691,-1.95314 v -4.6387 c 0,-1.35634 -0.16276,-2.73982 -1.19358,-3.71638 -0.89519,-0.84094 -2.2244,-1.24784 -3.41799,-1.24784 -1.84463,0 -3.58075,0.62392 -4.6387,2.19728 -0.81381,-1.46486 -2.25153,-2.19728 -3.87914,-2.19728 -1.709,0 -3.28236,0.7053 -4.36744,1.95314 -0.1085,-0.7053 -0.29839,-1.95314 -1.22071,-1.95314 -0.84093,0 -4.17754,1.03082 -4.17754,2.00739 0,0.43403 0.2984,0.62392 0.56967,0.73243 0.92231,0.46115 0.8138,0.94944 0.8138,1.89888 z"
         id="path51412" /><path
         d="m 233.02442,164.28569 c 0,-3.17385 -2.00739,-5.26262 -6.72747,-5.26262 -1.32922,0 -5.61527,0.35265 -5.61527,2.25153 0,0.94944 0.89519,1.30209 1.68187,1.30209 1.709,0 1.95314,-1.73612 3.60788,-1.73612 1.73612,0 2.5228,1.22071 2.5228,2.84833 h -0.92231 c -2.98396,0 -7.8668,0.94944 -7.8668,4.80146 0,2.79407 2.33291,4.20467 4.88284,4.20467 1.65474,0 3.28235,-0.56967 4.20467,-2.08878 0,1.22072 0,1.68187 1.35634,1.68187 h 2.8212 c 0.65105,0 1.46485,0 1.46485,-0.86806 0,-0.46116 -0.29839,-0.65104 -0.89519,-0.94944 -0.48828,-0.24414 -0.51541,-0.62392 -0.51541,-1.89888 z m -4.39455,1.1122 c 0,2.8212 0,2.84832 -0.56967,3.77064 -0.48828,0.73243 -1.19358,1.30209 -2.08877,1.30209 -1.1122,0 -1.709,-0.92231 -1.709,-1.95314 0,-2.17015 1.95314,-3.11959 3.87915,-3.11959 z"
         id="path51414" /><path
         d="m 236.74081,168.62599 c 0,1.32922 0,1.65474 -0.7053,1.95314 -0.43403,0.18989 -0.67817,0.37977 -0.67817,0.84093 0,0.84094 0.67817,0.86806 1.57336,0.86806 h 4.0419 c 0.89519,0 1.57336,-0.0271 1.57336,-0.86806 0,-0.46116 -0.24414,-0.65104 -0.67817,-0.84093 -0.7053,-0.2984 -0.7053,-0.62392 -0.7053,-1.95314 V 154.4115 c 0,-1.11221 -0.0271,-2.65844 -1.1122,-2.65844 -0.84093,0 -2.38717,0.51541 -3.55362,0.84093 -0.94945,0.27127 -1.3021,0.48829 -1.3021,0.97657 0,0.43403 0.35265,0.56967 0.67818,0.75955 0.75955,0.43404 0.86806,0.5968 0.86806,3.01109 z"
         id="path51416" /><path
         d="m 256.89607,164.28569 c 0,-3.17385 -2.00739,-5.26262 -6.72747,-5.26262 -1.32922,0 -5.61527,0.35265 -5.61527,2.25153 0,0.94944 0.89519,1.30209 1.68187,1.30209 1.70899,0 1.95314,-1.73612 3.60788,-1.73612 1.73612,0 2.5228,1.22071 2.5228,2.84833 h -0.92232 c -2.98396,0 -7.8668,0.94944 -7.8668,4.80146 0,2.79407 2.33292,4.20467 4.88284,4.20467 1.65475,0 3.28236,-0.56967 4.20467,-2.08878 0,1.22072 0,1.68187 1.35635,1.68187 h 2.8212 c 0.65104,0 1.46485,0 1.46485,-0.86806 0,-0.46116 -0.2984,-0.65104 -0.89519,-0.94944 -0.48828,-0.24414 -0.51541,-0.62392 -0.51541,-1.89888 z m -4.39456,1.1122 c 0,2.8212 0,2.84832 -0.56966,3.77064 -0.48829,0.73243 -1.19359,1.30209 -2.08877,1.30209 -1.11221,0 -1.709,-0.92231 -1.709,-1.95314 0,-2.17015 1.95314,-3.11959 3.87915,-3.11959 z"
         id="path51418" /><path
         d="m 271.08343,159.24008 c -0.89518,0 -1.46485,-0.0542 -2.17015,-0.1085 -0.7053,-0.0543 -1.16645,-0.10851 -2.17015,-0.10851 -1.84463,0 -3.79777,0.35265 -5.28975,1.5191 -1.5191,1.19359 -2.2244,3.06534 -2.2244,4.96423 0,3.87914 3.01108,6.0493 6.67322,6.0493 0.7053,0 1.41059,-0.0814 2.08877,-0.27127 0.89518,0.37977 1.79037,0.92231 1.79037,2.00739 0,1.73612 -2.19728,2.03452 -3.49937,2.03452 -0.62392,0 -2.63131,-0.18989 -2.63131,-1.11221 0,-0.4069 0.24415,-0.29839 0.24415,-0.73242 0,-0.62392 -1.05795,-0.7053 -1.49198,-0.7053 -1.27497,0 -2.98396,0.62392 -2.98396,2.17015 0,2.44142 5.26262,2.63131 6.97161,2.63131 2.63131,0 7.59553,-0.62392 7.59553,-4.12329 0,-1.87176 -1.60048,-2.8212 -3.20097,-3.20097 1.79037,-1.16646 2.73981,-2.87546 2.73981,-5.01848 0,-1.4106 -0.51541,-2.8212 -1.49197,-3.87915 h 0.70529 c 0.65105,-0.0271 1.65475,-0.0542 1.65475,-0.97657 0,-1.1122 -0.94945,-1.13933 -1.81751,-1.13933 z m -4.82858,10.36248 c -2.08878,0 -2.36004,-2.87545 -2.36004,-4.39456 0,-1.5191 0.51541,-4.47594 2.5228,-4.47594 1.98026,0 2.44142,2.76695 2.44142,4.28605 0,1.68187 -0.35265,4.58445 -2.60418,4.58445 z"
         id="path51420" /><path
         d="m 288.90577,164.28569 c 0,-3.17385 -2.00739,-5.26262 -6.72747,-5.26262 -1.32922,0 -5.61527,0.35265 -5.61527,2.25153 0,0.94944 0.89519,1.30209 1.68187,1.30209 1.70899,0 1.95313,-1.73612 3.60787,-1.73612 1.73612,0 2.52281,1.22071 2.52281,2.84833 h -0.92232 c -2.98396,0 -7.8668,0.94944 -7.8668,4.80146 0,2.79407 2.33291,4.20467 4.88284,4.20467 1.65474,0 3.28236,-0.56967 4.20467,-2.08878 0,1.22072 0,1.68187 1.35635,1.68187 h 2.82119 c 0.65105,0 1.46486,0 1.46486,-0.86806 0,-0.46116 -0.2984,-0.65104 -0.89519,-0.94944 -0.48829,-0.24414 -0.51541,-0.62392 -0.51541,-1.89888 z m -4.39456,1.1122 c 0,2.8212 0,2.84832 -0.56967,3.77064 -0.48828,0.73243 -1.19358,1.30209 -2.08877,1.30209 -1.1122,0 -1.70899,-0.92231 -1.70899,-1.95314 0,-2.17015 1.95314,-3.11959 3.87915,-3.11959 z"
         id="path51422" /><path
         d="m 296.82682,154.4115 c 0,-1.11221 -0.0271,-2.65844 -1.1122,-2.65844 -0.84093,0 -2.38717,0.51541 -3.55362,0.84093 -0.94944,0.27127 -1.30209,0.48829 -1.30209,0.97657 0,0.43403 0.35265,0.56967 0.67817,0.75955 0.75955,0.43404 0.86806,0.5968 0.86806,3.01109 v 11.28479 c 0,1.32922 0,1.65474 -0.4069,1.95314 -0.43403,0.18989 -0.67818,0.37977 -0.67818,0.84093 0,0.84094 0.67818,0.86806 1.27497,0.86806 h 4.04191 c 0.59679,0 1.27496,-0.0271 1.27496,-0.86806 0,-0.46116 -0.24414,-0.65104 -0.67817,-0.84093 -0.40691,-0.2984 -0.40691,-0.62392 -0.40691,-1.95314 v -4.72008 c 0,-0.75955 0.0814,-1.32922 0.5968,-1.89888 0.46115,-0.51541 1.13933,-0.78668 1.8175,-0.78668 1.95314,0 2.19728,1.57336 2.19728,3.11959 v 4.28605 c 0,1.32922 0,1.65474 -0.40691,1.95314 -0.43403,0.18989 -0.67817,0.37977 -0.67817,0.84093 0,0.84094 0.67817,0.86806 1.27497,0.86806 h 4.0419 c 0.5968,0 1.27497,-0.0271 1.27497,-0.86806 0,-0.46116 -0.24414,-0.65104 -0.67817,-0.84093 -0.40691,-0.2984 -0.40691,-0.62392 -0.40691,-1.95314 v -4.09616 c 0,-3.03821 -1.22071,-5.50676 -5.07273,-5.50676 -1.4106,0 -2.8212,0.48828 -3.96053,1.30209 z"
         id="path51424" /><path
         d="m 309.4408,168.62599 c 0,1.32922 0,1.65474 -0.70529,1.95314 -0.43404,0.18989 -0.67818,0.37977 -0.67818,0.84093 0,0.84094 0.67818,0.86806 1.57336,0.86806 h 4.04191 c 0.89519,0 1.57336,-0.0271 1.57336,-0.86806 0,-0.46116 -0.24414,-0.65104 -0.67817,-0.84093 -0.7053,-0.2984 -0.7053,-0.62392 -0.7053,-1.95314 V 154.4115 c 0,-1.11221 -0.0271,-2.65844 -1.1122,-2.65844 -0.84094,0 -2.38717,0.51541 -3.55363,0.84093 -0.94944,0.27127 -1.30209,0.48829 -1.30209,0.97657 0,0.43403 0.35265,0.56967 0.67817,0.75955 0.75956,0.43404 0.86806,0.5968 0.86806,3.01109 z"
         id="path51426" /><path
         d="m 329.59607,164.28569 c 0,-3.17385 -2.00739,-5.26262 -6.72747,-5.26262 -1.32922,0 -5.61527,0.35265 -5.61527,2.25153 0,0.94944 0.89519,1.30209 1.68187,1.30209 1.70899,0 1.95313,-1.73612 3.60787,-1.73612 1.73612,0 2.52281,1.22071 2.52281,2.84833 h -0.92232 c -2.98396,0 -7.8668,0.94944 -7.8668,4.80146 0,2.79407 2.33291,4.20467 4.88284,4.20467 1.65474,0 3.28236,-0.56967 4.20467,-2.08878 0,1.22072 0,1.68187 1.35635,1.68187 h 2.82119 c 0.65105,0 1.46486,0 1.46486,-0.86806 0,-0.46116 -0.2984,-0.65104 -0.89519,-0.94944 -0.48829,-0.24414 -0.51541,-0.62392 -0.51541,-1.89888 z m -4.39456,1.1122 c 0,2.8212 0,2.84832 -0.56967,3.77064 -0.48828,0.73243 -1.19358,1.30209 -2.08877,1.30209 -1.1122,0 -1.70899,-0.92231 -1.70899,-1.95314 0,-2.17015 1.95314,-3.11959 3.87915,-3.11959 z"
         id="path51428" /></g><g
       aria-label="Festival"
       transform="matrix(0.26458333,0,0,0.26458333,4.3238652,-9.6105813)"
       id="text1698"
       style="font-size:48px;font-family:'Editorial New';-inkscape-font-specification:'Editorial New, Normal';white-space:pre;shape-inside:url(#rect1700);display:inline;stroke:#000000;stroke-width:0.755906"><path
         d="m 190.90855,150.96942 h -27.888 v 1.152 c 4.464,0 5.136,0.864 5.136,3.792 v 28.512 c 0,2.928 -0.672,3.792 -5.136,3.792 v 1.152 h 15.648 v -1.152 c -4.464,0 -5.136,-0.864 -5.136,-3.792 v -12.96 h 7.104 c 2.928,0 3.792,0.72 3.792,5.616 h 1.152 v -13.248 h -1.152 c 0,4.944 -0.864,5.664 -3.792,5.664 h -7.104 v -16.56 h 12.576 c 2.928,0 3.888,1.008 4.464,7.2 l 1.152,-0.096 -0.72,-7.776 z"
         id="path51391" /><path
         d="m 205.69238,179.28942 c -1.344,5.664 -3.552,7.488 -5.856,7.488 -3.792,0 -5.76,-4.704 -5.76,-11.232 v -0.192 h 12.72 c 0,-7.008 -2.688,-12.288 -8.16,-12.288 -5.856,0 -9.216,6.432 -9.216,13.824 0,8.208 3.312,13.44 8.784,13.44 4.464,0 7.632,-3.648 8.64,-11.04 z m -7.248,-14.208 c 2.88,0 3.744,3.696 3.744,8.304 h -8.064 c 0.24,-4.848 1.488,-8.304 4.32,-8.304 z"
         id="path51393" /><path
         d="m 209.91632,189.84942 h 1.104 c 0,-0.96 0.144,-1.44 0.768,-1.44 1.008,0 2.544,1.92 6.336,1.92 3.504,0 6.624,-2.064 6.624,-6.576 0,-4.032 -2.064,-6.096 -6.432,-9.84 -2.88,-2.496 -4.704,-4.08 -4.704,-6.288 0,-1.152 0.72,-2.544 2.736,-2.544 3.072,0 5.184,2.832 5.856,6.384 h 1.104 v -7.92 h -1.104 c 0,0.96 0,1.44 -0.576,1.44 -0.816,0 -2.064,-1.92 -5.472,-1.92 -3.744,0 -6.288,2.448 -6.288,6 0,3.696 2.496,5.76 5.76,8.64 3.264,2.88 5.376,4.656 5.376,7.44 0,1.968 -0.96,3.216 -3.024,3.216 -3.792,0 -6.288,-3.504 -6.96,-8.16 h -1.104 z"
         id="path51395" /><path
         d="m 240.4922,178.80942 c -0.096,6.336 -0.96,8.688 -3.168,8.688 -2.64,0 -2.928,-2.88 -2.928,-7.584 v -13.872 h 5.568 v -2.016 h -5.568 v -6.864 h -1.488 c -0.432,4.992 -2.304,6.72 -6.72,6.864 v 2.016 h 3.744 v 15.408 c 0,6.432 2.256,8.88 6.048,8.88 4.56,0 5.568,-4.032 5.616,-11.52 z"
         id="path51397" /><path
         d="m 248.26816,155.62542 c 1.584,0 2.832,-1.248 2.832,-2.784 0,-1.584 -1.248,-2.832 -2.832,-2.832 -1.536,0 -2.784,1.248 -2.784,2.832 0,1.536 1.248,2.784 2.784,2.784 z m 2.496,28.8 v -20.688 l -0.672,-0.672 -3.408,1.728 -3.6,1.776 0.528,1.008 c 2.688,-1.344 2.64,-0.72 2.64,2.4 v 14.448 c 0,3.072 -0.48,3.792 -3.408,3.792 v 1.152 h 11.28 v -1.152 c -2.928,0 -3.36,-0.72 -3.36,-3.792 z"
         id="path51399" /><path
         d="m 270.54005,168.82542 -3.984,13.92 h -0.144 l -3.984,-13.92 c -0.864,-2.976 -0.864,-3.648 1.968,-3.648 v -1.152 h -10.944 v 1.152 c 2.016,0 2.88,0.624 3.744,3.648 l 6.384,21.648 h 2.784 l 6.144,-21.648 c 0.864,-2.976 1.68,-3.648 3.744,-3.648 v -1.152 h -7.92 v 1.152 c 3.072,0 3.072,0.672 2.208,3.648 z"
         id="path51401" /><path
         d="m 296.84391,186.10542 c -0.576,1.536 -0.912,2.256 -1.728,2.256 -0.912,0 -1.056,-0.768 -1.056,-2.256 v -15.408 c 0,-5.232 -3.024,-7.632 -7.824,-7.632 -4.656,0 -8.064,2.112 -8.064,5.568 0,2.112 0.96,3.312 2.64,3.312 1.536,0 2.544,-0.768 2.544,-1.92 0,-1.296 -0.768,-1.824 -0.768,-2.976 0,-1.44 1.44,-2.304 3.312,-2.304 3.216,0 3.648,2.256 3.648,5.856 v 2.256 l -2.256,1.056 c -5.088,2.304 -10.464,4.224 -10.464,10.368 0,3.696 2.064,6.048 5.424,6.048 4.176,0 6.288,-3.456 7.2,-4.944 h 0.096 v 0.192 c 0,2.976 1.248,4.752 4.08,4.752 2.784,0 3.648,-1.776 4.32,-4.224 z m -12.384,0.864 c -1.872,0 -3.168,-1.296 -3.168,-3.888 0,-3.408 2.448,-5.712 6.144,-7.44 l 2.112,-1.008 v 8.88 c -1.824,2.352 -3.216,3.456 -5.088,3.456 z"
         id="path51403" /><path
         d="m 306.63586,184.42542 v -33.744 l -0.672,-0.672 -3.408,1.68 -3.6,1.824 0.528,1.008 c 2.688,-1.344 2.64,-0.768 2.64,2.352 v 27.552 c 0,3.072 -0.48,3.792 -3.408,3.792 v 1.152 h 11.28 v -1.152 c -2.928,0 -3.36,-0.72 -3.36,-3.792 z"
         id="path51405" /></g><g
       aria-label="2023"
       transform="matrix(0.26458333,0,0,0.26458333,97.416874,30.431116)"
       id="text2006-7"
       style="font-size:24px;font-family:'Editorial New';-inkscape-font-specification:'Editorial New, Normal';white-space:pre;shape-inside:url(#rect2008-1);display:inline;stroke:#000000;stroke-width:0.755906"><path
         d="m 170.79655,166.66199 h -5.856 v -0.072 c 3.816,-3.552 8.136,-8.232 8.136,-12.72 0,-2.664 -1.464,-4.752 -4.368,-4.752 -3.576,0 -5.784,2.88 -5.784,7.272 h 0.552 c 0.144,-3.096 1.512,-5.136 3.96,-5.136 2.16,0 3.072,1.632 3.072,3.864 0,4.104 -3.528,8.184 -8.208,13.104 v 0.576 h 10.248 l 0.624,-1.824 0.816,-2.4 -0.552,-0.168 c -0.6,1.8 -1.08,2.256 -2.64,2.256 z"
         id="path51382" /><path
         d="m 181.35654,169.27799 c 3.84,0 5.832,-4.512 5.832,-10.08 0,-5.568 -1.992,-10.08 -5.832,-10.08 -3.84,0 -5.832,4.512 -5.832,10.08 0,5.568 1.992,10.08 5.832,10.08 z m 0,-0.984 c -2.232,0 -3.072,-3.792 -3.072,-9.096 0,-5.328 0.84,-9.096 3.072,-9.096 2.232,0 3.072,3.768 3.072,9.096 0,5.304 -0.84,9.096 -3.072,9.096 z"
         id="path51384" /><path
         d="m 196.78846,166.66199 h -5.856 v -0.072 c 3.816,-3.552 8.136,-8.232 8.136,-12.72 0,-2.664 -1.464,-4.752 -4.368,-4.752 -3.576,0 -5.784,2.88 -5.784,7.272 h 0.552 c 0.144,-3.096 1.512,-5.136 3.96,-5.136 2.16,0 3.072,1.632 3.072,3.864 0,4.104 -3.528,8.184 -8.208,13.104 v 0.576 h 10.248 l 0.624,-1.824 0.816,-2.4 -0.552,-0.168 c -0.6,1.8 -1.08,2.256 -2.64,2.256 z"
         id="path51386" /><path
         d="m 201.27646,167.38199 c 0,1.248 2.16,1.896 4.08,1.896 3.24,0 6.168,-2.256 6.168,-5.904 0,-3.144 -1.92,-4.92 -4.584,-5.256 v -0.072 c 2.16,-0.984 3.456,-2.496 3.456,-4.632 0,-2.736 -1.824,-4.296 -4.128,-4.296 -2.616,0 -4.416,1.68 -4.8,4.536 h 0.576 c 0.384,-1.584 1.368,-2.76 3.192,-2.76 1.728,0 2.592,1.296 2.592,2.904 0,2.304 -1.344,3.768 -3.48,4.512 v 0.576 c 2.568,0.24 4.584,1.464 4.584,5.088 0,2.856 -1.56,4.32 -3.144,4.32 -1.056,0 -1.488,-0.432 -1.896,-0.96 -0.312,-0.456 -0.672,-0.888 -1.44,-0.888 -0.672,0 -1.176,0.36 -1.176,0.936 z"
         id="path51388" /></g></g></svg>
