<?xml version="1.0" encoding="utf-8"?>
<!-- Generator: Adobe Illustrator 26.0.3, SVG Export Plug-In . SVG Version: 6.00 Build 0)  -->
<svg version="1.1" id="Ebene_1" xmlns="http://www.w3.org/2000/svg" xmlns:xlink="http://www.w3.org/1999/xlink" x="0px" y="0px"
	 viewBox="0 0 478.9 288" style="enable-background:new 0 0 478.9 288;" xml:space="preserve">
<style type="text/css">
	.st0{fill:#641E6E;}
	.st1{fill:#7575B4;}
	.st2{fill:#EA5474;}
	.st3{fill:#271607;}
	.st4{opacity:0.1;}
	.st5{clip-path:url(#SVGID_00000124122745376769450250000018124832785019547301_);fill:#FFFFFF;}
	.st6{fill:#3B3534;}
	.st7{fill:#381947;}
	.st8{fill:#002E2C;}
	.st9{fill:#694F7F;}
	.st10{opacity:0.9;}
	.st11{clip-path:url(#SVGID_00000151544710355653680600000009296156429674644650_);fill:#D8DADA;}
	.st12{clip-path:url(#SVGID_00000067950535157187687310000014958969052700755597_);fill:#D8DADA;}
	.st13{fill:#518198;}
	.st14{fill:#F69C00;}
	.st15{fill:#ED5607;}
	.st16{fill:#FDD184;}
	.st17{fill:#EA3C0F;}
	.st18{fill:#E6BFA5;}
	.st19{clip-path:url(#SVGID_00000028325003144093895590000008556924317682906771_);fill:#381947;}
	.st20{clip-path:url(#SVGID_00000082369511073954641070000001335998911485676425_);fill:#FFFFFF;}
	.st21{clip-path:url(#SVGID_00000134207600564455638280000002670244643361576577_);fill:#FFFFFF;}
	.st22{fill:#877C7A;}
	.st23{fill:#302B28;}
	.st24{fill:#5A524F;}
	.st25{fill:#A8A09E;}
	.st26{fill:#B8A8A6;}
	.st27{fill:#DCCECB;}
	.st28{opacity:0.3;}
	.st29{clip-path:url(#SVGID_00000084521632572522696170000014770012025946451894_);fill:#AADBE0;}
	.st30{opacity:0.2;}
	.st31{clip-path:url(#SVGID_00000078759764884967234380000007982991155359218566_);fill:#AADBE0;}
	.st32{fill:#FFE274;}
	.st33{fill:#FAB40C;}
	.st34{clip-path:url(#SVGID_00000168807015523760945900000004811893744789947035_);fill:#AADBE0;}
	
		.st35{clip-path:url(#SVGID_00000094612386149638894330000014889979148215113623_);fill:url(#SVGID_00000134208508722850935720000011576947975502030015_);}
	.st36{fill:#D78D5A;}
	.st37{fill:#D99A68;}
	.st38{fill:#66322A;}
	.st39{fill:#BE7A50;}
	.st40{fill:#2F0C27;}
	.st41{fill:#636664;}
	.st42{fill:#4F2B1E;}
	.st43{fill:#542614;}
	.st44{fill:#79422C;}
	.st45{fill:#833500;}
	.st46{fill:#A57555;}
	.st47{fill:#485B5E;}
	.st48{fill:#7B8E91;}
	.st49{opacity:0.6;fill:#9EB1B5;}
	.st50{fill:#596D71;}
	.st51{fill:#F4931F;}
	.st52{fill:#9EB1B5;}
	.st53{fill:#FDCF0C;}
	.st54{fill:#F9AE15;}
	.st55{fill:#FFFFFF;}
	.st56{fill:#E7EAE1;}
	.st57{fill:#C6C4AF;}
	.st58{filter:url(#Adobe_OpacityMaskFilter);}
	.st59{opacity:0.1;mask:url(#SVGID_00000124851957725539588360000013799686733761214359_);}
	.st60{fill:#87442A;}
	.st61{filter:url(#Adobe_OpacityMaskFilter_00000043428700460782007920000017052125798984580522_);}
	.st62{opacity:0.1;mask:url(#SVGID_00000079478650042323419520000018083690150988965274_);}
</style>
<g>
	<path class="st1" d="M164.4,136.2c-3.5-2.7-5.7-4-2.8-8.5c2.9-4.5-0.8-6.5-4.3-9.2c-3.5-2.7-5.1-7.2-2.6-15.5
		c2.4-8.3-2.9-9.4-6.2-12.8c-3.2-3.4-3.8-4.3-3.2-10.8c0.7-6.4-4.4-8.3-9.7-10.2c-5.3-1.9-12.2-19.6-12.2-19.6s-5.2,5.9-2.8,15.9
		c2.4,10-5.4,5-6,14.3c-0.6,9.3,7.4,10.9,2.6,16.1c-4.7,5.2-6.9,10.5-0.9,19.8c6,9.3-3.2,12.9-0.5,20.3c2.8,7.5,11.2,4.4,10.3,11.3
		c-0.9,6.9-3,9.8,3.7,12.8c6.7,3,1.9,10.7,9.8,15.9c0.3,0.2,0.6,0.4,0.9,0.6c9.3,5.4,21.1,1.3,24.1-8.4c0.7-2.2,0.7-4.3-0.2-5.9
		c-3.8-6.5-2.9-6.8,2.5-10.6C172.4,147.9,167.9,139,164.4,136.2"/>
	<path class="st0" d="M145.9,99.7c-2.9,1.6-5.6,3.5-7.9,5.8c-0.9-4.1-1.9-8.1-3-12.1c-0.4-1.4-0.8-2.8-1.2-4.2c0,0,0.1-0.1,0.1-0.2
		c0.5-3,1.6-5.8,3.2-8.4c0.3-0.5-0.5-1.1-0.9-0.6c-1.3,2.2-2.3,4.6-3,7.2c-2.8-8.8-5.9-17.6-9.1-26.3c-0.2-0.6-1.2-0.4-1,0.2
		c3,8.3,6,16.7,8.7,25.1c-2.4-1.5-5.1-2.7-7.9-3.5c-0.6-0.2-0.9,0.7-0.3,0.9c3,0.9,5.9,2.2,8.5,4c0,0,0.1,0,0.1,0.1
		c0.2,0.7,0.4,1.4,0.6,2.1c1.6,5.4,3.1,10.9,4.3,16.4c-3.5-1.4-7.1-2.4-10.8-3.2c-0.6-0.1-1,0.8-0.3,0.9c3.9,0.8,7.7,2,11.3,3.4
		c0.8,3.8,1.6,7.7,2.3,11.6c0.7,4.2,1.4,8.4,2.1,12.7c-3.3-1.7-6.7-3.1-10.2-4.4c-0.6-0.2-0.9,0.7-0.3,0.9c3.6,1.3,7.1,2.8,10.5,4.5
		c0.1,0,0.2,0.1,0.2,0.1c0.8,5.2,1.6,10.4,2.5,15.6c0.2,1,0.4,2,0.5,2.9c-2.7-1.1-5.6-2-8.5-2.4c-0.7-0.1-0.7,0.9,0,1
		c2.9,0.5,5.8,1.3,8.5,2.5c0.1,0,0.1,0,0.2,0c1.5,8.2,2.5,13.1,5,21.1c3,9.7,0.5-1.7-0.7-6.2c-1.2-4.9-2.3-9.8-3.2-14.7
		c0,0,0,0,0-0.1c2.8-2.1,5.7-3.9,8.9-5.5c0.6-0.3,0.1-1.2-0.5-0.9c-3,1.5-5.9,3.3-8.6,5.2c-1.2-6.4-2.2-12.8-3.2-19.2
		c3-2.2,5.9-4.4,8.9-6.6c0.5-0.4-0.2-1.1-0.7-0.7c-2.8,2.1-5.6,4.1-8.4,6.2c-1.3-8.1-2.7-16.3-4.4-24.3c2.4-2.4,5.1-4.5,8.2-6.1
		C147,100.3,146.5,99.4,145.9,99.7"/>
	<path class="st0" d="M122,79c0.4,0.2,0.9,0.3,1.3,0.5c0.4,0.1,0.8,0.1,1-0.3c0.2-0.3,0-0.9-0.4-1c-0.4-0.2-0.9-0.3-1.3-0.5
		c-0.4-0.1-0.8-0.1-1,0.3C121.5,78.3,121.6,78.9,122,79"/>
	<path class="st0" d="M123.6,75.4c0.3,0.4,0.5,0.8,0.8,1.2c0.2,0.4,0.7,0.4,1.1,0.2c0.4-0.2,0.4-0.7,0.2-1c-0.3-0.4-0.5-0.8-0.8-1.2
		c-0.2-0.4-0.7-0.4-1.1-0.2C123.5,74.6,123.4,75,123.6,75.4"/>
	<path class="st0" d="M119.1,82l1.5,0.6c0.4,0.1,0.8,0.1,1-0.3c0.2-0.3,0-0.9-0.4-1l-1.5-0.6c-0.4-0.1-0.8-0.1-1,0.3
		C118.6,81.3,118.7,81.9,119.1,82"/>
	<path class="st0" d="M132.7,75.8c0.1,0.4,0.2,0.8,0.3,1.2c0.1,0.4,0.6,0.6,1,0.5c0.4-0.2,0.6-0.5,0.5-0.9c-0.1-0.4-0.2-0.8-0.3-1.2
		c-0.1-0.4-0.6-0.6-1-0.5C132.8,75,132.7,75.4,132.7,75.8"/>
	<path class="st0" d="M138,76.3c0,0.1,0,0.2-0.1,0.3c0,0,0,0.1,0,0.1c0,0,0,0,0,0c0,0.1-0.1,0.2-0.1,0.2c0,0-0.1,0.2-0.1,0.2
		c-0.2,0.3-0.3,0.8,0.1,1.1c0.3,0.2,0.9,0.3,1.1,0c0.3-0.5,0.6-1,0.6-1.5c0.1-0.4-0.2-0.8-0.6-0.9C138.5,75.7,138,75.9,138,76.3"/>
	<path class="st0" d="M140.3,80.1c-0.5,0.2-0.9,0.5-1.4,0.7c-0.4,0.2-0.4,0.7-0.2,1c0.3,0.4,0.7,0.4,1.1,0.2
		c0.4-0.2,0.9-0.5,1.4-0.7c0.4-0.2,0.4-0.7,0.2-1C141.1,80,140.7,79.9,140.3,80.1"/>
	<path class="st0" d="M121.4,107.4c0.4-0.3,0.9-0.5,1.3-0.8c0.4-0.2,0.4-0.7,0.2-1c-0.2-0.4-0.7-0.4-1.1-0.2l-1.3,0.8
		c-0.4,0.2-0.4,0.7-0.2,1C120.6,107.5,121.1,107.6,121.4,107.4"/>
	<path class="st0" d="M120.5,102.6c0.5,0.1,1.1,0.3,1.6,0.4c1,0.2,1.3-1.2,0.3-1.4c-0.5-0.1-1.1-0.3-1.6-0.4
		C119.9,100.9,119.6,102.4,120.5,102.6"/>
	<path class="st0" d="M123.3,98.3c0.2,0.5,0.5,0.9,0.9,1.3c0.3,0.3,0.8,0.3,1.1,0c0.3-0.3,0.2-0.8-0.1-1.1c0,0-0.2-0.2-0.1-0.1
		c-0.1-0.1-0.1-0.1-0.2-0.2c0,0,0-0.1-0.1-0.1c0,0.1,0,0.1,0,0c0-0.1-0.1-0.2-0.1-0.2c-0.1-0.4-0.6-0.6-1-0.5
		C123.4,97.5,123.2,97.9,123.3,98.3"/>
	<path class="st0" d="M127.5,97.9c0.1,0.3,0.2,0.7,0.3,1c0.1,0.4,0.6,0.6,1,0.5c0.4-0.1,0.6-0.5,0.5-0.9c-0.1-0.3-0.2-0.7-0.3-1
		c-0.1-0.4-0.6-0.6-1-0.5C127.5,97.1,127.4,97.5,127.5,97.9"/>
	<path class="st0" d="M142.7,97.7c0.2,0.3,0.4,0.6,0.5,0.9c0.2,0.3,0.8,0.5,1.1,0.2c0.4-0.2,0.4-0.7,0.2-1c-0.2-0.3-0.4-0.6-0.5-0.9
		c-0.2-0.3-0.8-0.5-1.1-0.2C142.6,96.9,142.5,97.3,142.7,97.7"/>
	<path class="st0" d="M147.8,96.3c-0.2,0.4-0.4,0.7-0.7,1.1c-0.2,0.3,0,0.8,0.4,1c0.4,0.2,0.8,0.1,1-0.3c0.2-0.4,0.4-0.7,0.7-1.1
		c0.2-0.3,0-0.8-0.4-1C148.5,95.8,148.1,95.9,147.8,96.3"/>
	<path class="st0" d="M150.8,100.3c-0.5,0-1.1,0-1.6,0c-0.4,0-0.7,0.4-0.7,0.8c0,0.4,0.4,0.7,0.8,0.7c0.5,0,1.1,0,1.6,0
		c0.4,0,0.7-0.4,0.7-0.8C151.6,100.6,151.2,100.3,150.8,100.3"/>
	<path class="st0" d="M147.5,104.6c0.5,0.2,1,0.4,1.5,0.6c0.4,0.1,0.8,0.1,1-0.3c0.2-0.3,0-0.9-0.4-1l-1.5-0.6
		c-0.4-0.1-0.8-0.1-1,0.3C146.9,103.9,147.1,104.4,147.5,104.6"/>
	<path class="st0" d="M129.6,131.3c-0.5,0.3-1,0.5-1.4,0.8c-0.4,0.2-0.4,0.7-0.2,1c0.3,0.4,0.7,0.4,1.1,0.2c0.5-0.3,1-0.5,1.4-0.8
		c0.4-0.2,0.4-0.7,0.2-1C130.4,131.1,130,131.1,129.6,131.3"/>
	<path class="st0" d="M125.5,128c-0.9,0.2-1.7,0.4-2.6,0.6c-1,0.2-0.4,1.7,0.5,1.4c0.9-0.2,1.7-0.4,2.6-0.6
		C127,129.2,126.5,127.8,125.5,128"/>
	<path class="st0" d="M124.6,124.8c0.7,0.3,1.4,0.6,2,0.9c0.9,0.4,1.6-0.9,0.7-1.3c-0.7-0.3-1.4-0.6-2-0.9
		C124.3,123.1,123.7,124.4,124.6,124.8"/>
	<path class="st0" d="M128.7,121l0.6,1c0.2,0.3,0.7,0.5,1.1,0.2c0.3-0.2,0.4-0.7,0.2-1c-0.2-0.3-0.4-0.6-0.6-1
		c-0.2-0.3-0.7-0.5-1.1-0.2C128.6,120.2,128.5,120.6,128.7,121"/>
	<path class="st0" d="M134.1,122.3c0,0.6,0.1,1.1,0.1,1.7c0.1,1,1.6,0.9,1.5-0.1c0-0.6-0.1-1.1-0.1-1.7
		C135.5,121.3,134,121.4,134.1,122.3"/>
	<path class="st0" d="M146,123.1c0.2,0.4,0.4,0.9,0.6,1.3c0.2,0.4,0.6,0.6,1,0.5c0.4-0.1,0.6-0.6,0.5-0.9c-0.2-0.4-0.4-0.9-0.6-1.3
		c-0.2-0.4-0.6-0.6-1-0.5C146.1,122.2,145.8,122.7,146,123.1"/>
	<path class="st0" d="M150.3,118.2c0.1,0.8,0.1,1.6,0.2,2.3c0.1,1,1.6,0.9,1.5-0.1c-0.1-0.8-0.1-1.6-0.2-2.3
		C151.8,117.2,150.2,117.2,150.3,118.2"/>
	<path class="st0" d="M155.5,122.2c-0.7,0.4-1.4,0.8-2.2,1.2c-0.9,0.5,0,1.7,0.9,1.3c0.7-0.4,1.4-0.8,2.2-1.2
		C157.2,123,156.3,121.7,155.5,122.2"/>
	<path class="st0" d="M157.2,127.6c-0.7,0-1.5,0-2.2,0.1c-1,0-0.9,1.5,0.1,1.5c0.7,0,1.5,0,2.2-0.1
		C158.3,129.1,158.2,127.6,157.2,127.6"/>
	<path class="st0" d="M155.3,131.8c-1.1-0.3-2.2-0.5-3.3-0.5c-1,0-0.9,1.5,0.1,1.5c1,0,2,0.2,2.9,0.4
		C156,133.5,156.3,132,155.3,131.8"/>
	<path class="st0" d="M135.7,153.8c-0.5,0.6-1.1,1.1-1.6,1.7c-0.7,0.7,0.5,1.7,1.2,1c0.5-0.6,1.1-1.1,1.6-1.7
		C137.6,154.1,136.4,153.1,135.7,153.8"/>
	<path class="st0" d="M131.7,153.3c0.6-0.2,1.3-0.3,1.9-0.5c0.4-0.1,0.6-0.6,0.5-0.9c-0.1-0.4-0.6-0.6-1-0.5
		c-0.6,0.2-1.3,0.3-1.9,0.5c-0.4,0.1-0.6,0.6-0.5,0.9C130.9,153.2,131.3,153.4,131.7,153.3"/>
	<path class="st0" d="M129.3,148.3c0.6,0,1.2,0,1.9-0.1c1,0-1-1.5-2-1.4c-0.6,0,0.6,0,0,0C128.2,146.8,128.3,148.3,129.3,148.3"/>
	<path class="st0" d="M133.6,143.7c0.4,0.4,0.8,0.8,1.2,1.1c0.3,0.3,0.8,0.3,1.1,0c0.3-0.3,0.2-0.8-0.1-1.1
		c-0.4-0.4-0.8-0.8-1.2-1.1c-0.3-0.3-0.8-0.3-1.1,0C133.3,142.9,133.3,143.4,133.6,143.7"/>
	<path class="st0" d="M138.4,144.9c0.1,0.4,0.3,0.9,0.4,1.3c0.1,0.4,0.6,0.6,1,0.5c0.4-0.1,0.6-0.5,0.5-0.9
		c-0.1-0.4-0.3-0.9-0.4-1.3c-0.1-0.4-0.6-0.6-1-0.5C138.4,144.1,138.3,144.5,138.4,144.9"/>
	<path class="st0" d="M149,143.7c-0.1,0.6-0.2,1.2-0.3,1.7c-0.2,0.9,1.3,1.3,1.5,0.3c0.1-0.6,0.2-1.2,0.3-1.7
		C150.7,143.1,149.2,142.8,149,143.7"/>
	<path class="st0" d="M153.2,141.7c-0.1,0.6-0.2,1.2-0.4,1.7c-0.4,0.9,1,1.6,1.4,0.7c0.3-0.7,0.5-1.4,0.6-2.1c0-0.4-0.2-0.8-0.6-0.9
		C153.7,141,153.2,141.3,153.2,141.7"/>
	<path class="st0" d="M158.8,142.3c-0.6,0.6-1.3,1-2,1.4c-0.4,0.2-0.4,0.7-0.2,1c0.3,0.4,0.7,0.4,1.1,0.2c0.9-0.4,1.6-1,2.3-1.6
		C160.6,142.6,159.5,141.6,158.8,142.3"/>
	<path class="st0" d="M160.8,146.4c-0.9,0.1-1.7,0.3-2.6,0.4c-0.4,0.1-0.6,0.6-0.5,0.9c0.2,0.4,0.6,0.6,1,0.5
		c0.9-0.1,1.7-0.3,2.6-0.4c0.4-0.1,0.6-0.6,0.5-0.9C161.7,146.5,161.2,146.3,160.8,146.4"/>
	<path class="st0" d="M158.1,150.7c-1.6-0.3-3.2-0.6-4.8-0.9c-1-0.2-1.3,1.3-0.3,1.4c1.6,0.3,3.2,0.6,4.8,0.9
		C158.8,152.3,159.1,150.8,158.1,150.7"/>
	<path class="st0" d="M152.8,153.2c-0.7,0-1.4,0-2.1,0.1c-1,0-0.9,1.5,0.1,1.5c0.7,0,1.4,0,2.1-0.1
		C153.9,154.6,153.8,153.1,152.8,153.2"/>
</g>
<path class="st0" d="M84,77.1c0,0-10.9,81.2,9.9,129.4c7,16.3,15.7,26.9,24,33.8c17.4,14.3,42.7,4.1,46.3-18.8
	c1.7-10.9,1.3-24.9-4.1-41.9C144.4,129.5,84,77.1,84,77.1"/>
<path class="st1" d="M133.7,206.7c-1.3-3.4-2.5-6.8-3.8-10.2c8.3-10.1,16.7-20.2,25-30.3c-0.2-0.4-0.4-0.8-0.5-1.2
	c-8.3,10.1-16.6,20.2-24.9,30.2c-1.2-3.2-2.4-6.4-3.6-9.6c7.8-9.8,16.1-19.2,24.7-28.2c-0.2-0.4-0.4-0.7-0.6-1.1
	c-8.6,9-16.8,18.3-24.6,28l-3.5-9.3c7.8-8.9,15.6-17.9,23.4-26.8c-0.2-0.3-0.4-0.7-0.6-1c-7.7,8.9-15.5,17.7-23.2,26.6
	c-1.2-3.2-2.4-6.5-3.6-9.7c6.6-9,13.5-17.7,20.8-26.1c-0.2-0.3-0.5-0.7-0.7-1c-7.2,8.3-14.1,16.9-20.6,25.8c-1.2-3.3-2.5-6.7-3.7-10
	c6-8,12.4-15.7,19-23.1c-0.2-0.3-0.5-0.6-0.7-0.9c-6.6,7.3-12.8,14.9-18.8,22.8c-1-2.7-2-5.4-3-8.1c5.2-7.5,10.6-14.7,16.4-21.6
	c-0.2-0.3-0.5-0.6-0.7-0.9c-5.7,6.8-11.1,13.9-16.2,21.2c-1.2-3.3-2.5-6.6-3.7-9.9c3.8-6.8,8.3-13.2,13.4-19
	c-0.3-0.3-0.5-0.6-0.8-0.9c-5,5.7-9.4,11.8-13.2,18.5l-1.3-3.4c0-0.2,0-0.4-0.2-0.6c-0.3-0.8-0.6-1.6-0.9-2.4
	c3-6.2,7-11.7,11.8-16.4c-0.3-0.3-0.5-0.6-0.8-0.9c-4.7,4.5-8.6,9.8-11.6,15.8c-0.9-2.5-1.8-5-2.8-7.4c2.8-4.8,6-9.4,9.4-13.8
	c-0.3-0.3-0.5-0.6-0.8-0.9c-3.3,4.2-6.4,8.6-9.1,13.2l-2.6-6.9c2.3-2.9,4.7-5.7,7-8.6c0.4-0.5,0.8-0.9,1.2-1.4
	c-0.3-0.3-0.5-0.6-0.8-0.8c-0.6,0.7-1.2,1.4-1.7,2.1l-6.1,7.5l-2.2-5.8c1.7-2.9,3.4-5.8,5.3-8.6c-0.3-0.3-0.6-0.6-0.8-0.8
	c-1.8,2.6-3.4,5.3-5,8c-0.8-2.3-1.7-4.6-2.5-6.8c1.1-1.8,2.2-3.5,3.5-5.2c-0.3-0.3-0.6-0.5-0.8-0.8c-1.1,1.5-2.2,3-3.1,4.6
	c-0.5-1.4-1-2.7-1.5-4.1c0.6-1.1,1.3-2.1,1.9-3.2c-0.3-0.3-0.6-0.5-0.8-0.8l-1.6,2.6c-0.8-2-1.5-4.1-2.3-6.2
	c-1.4-1.2-2.1-1.9-2.1-1.9s-0.1,1-0.3,2.8l2.6,6.9c-1-0.6-2-1.2-3.1-1.7c0,0.4-0.1,0.8-0.1,1.2c1.4,0.7,2.7,1.4,3.9,2.4
	c0.6,1.6,1.2,3.2,1.8,4.8c-1.9-1.3-4-2.3-6.1-3.2c0,0.4-0.1,0.8-0.1,1.2c2.2,0.9,4.3,2.1,6.4,3.5c0.1,0.1,0.3,0.1,0.4,0.1
	c1.1,2.9,2.2,5.9,3.3,8.8c-3.5-1.9-7-3.7-10.6-5.3c0,0.4-0.1,0.8-0.1,1.2c3.8,1.8,7.6,3.7,11.3,5.7c1,2.6,2,5.3,3,7.9
	c-4.8-2.5-9.7-4.9-14.6-7.2c0,0.4,0,0.8-0.1,1.3c5.1,2.4,10.2,4.9,15.2,7.6c1.2,3.2,2.4,6.5,3.6,9.7c-6.3-3.6-12.6-6.9-19.1-10
	c0,0.4,0,0.9,0,1.3c6.7,3.2,13.3,6.7,19.8,10.4c0.8,2.1,1.6,4.3,2.4,6.4c-7.4-2.7-14.9-5.4-22.3-8.1c0,0.4,0,0.8,0,1.2
	c7.6,2.8,15.2,5.5,22.8,8.3c1.5,4.1,3.1,8.3,4.6,12.4c-8.9-5-18-9.6-27.4-13.6c0,0.4,0,0.9,0,1.3c9.6,4.1,18.9,8.8,28,14
	c1.4,3.8,2.8,7.6,4.2,11.4c-10.6-4.1-21.1-8.2-31.7-12.2c0,0.4,0.1,0.9,0.1,1.3c10.7,4.1,21.4,8.3,32.1,12.4
	c0.5,1.4,1.1,2.9,1.6,4.3c0.7,1.8,1.3,3.5,2,5.3c-11.6-4.2-23.3-8.4-34.9-12.6c0,0.4,0.1,0.9,0.1,1.3c11.8,4.3,23.5,8.5,35.3,12.8
	c1,2.7,2,5.4,3,8.1c-12.3-3.1-24.6-6.2-36.8-9.3c0.1,0.4,0.1,0.8,0.2,1.3l36.9,9.3c0.1,0,0.1,0,0.2,0c1.4,3.9,2.9,7.8,4.3,11.6
	c-13.2-3.7-26.4-7.5-39.6-11.2c0.1,0.4,0.2,0.9,0.3,1.3c13.3,3.8,26.6,7.5,39.9,11.3c1.1,2.9,2.2,5.8,3.2,8.7
	c-13.1-2.1-26.3-4.3-39.4-6.4c0.1,0.4,0.3,0.8,0.4,1.3c13.2,2.1,26.3,4.3,39.5,6.4c1.2,3.1,2.3,6.2,3.5,9.3
	c-12.8-0.6-25.6-1.9-38.2-4c0.2,0.4,0.4,0.9,0.6,1.3c12.6,2.1,25.3,3.4,38.1,3.9c1.9,5,3.7,10,5.6,15c-11.5-0.5-22.9-1.6-34.3-3.2
	c0.3,0.5,0.7,0.9,1,1.3c11.1,1.6,22.3,2.6,33.5,3.1c0.1,0,0.1,0,0.2,0c0.8,2.1,1.6,4.2,2.4,6.3c-9.2,0-18.3,0-27.5,0.1
	c0.4,0.4,0.9,0.8,1.3,1.2c8.9,0,17.7,0,26.6-0.1c0.8,2.1,1.6,4.2,2.3,6.3c0.8-0.3,1.6-0.6,2.4-1c-0.2-0.6-0.4-1.2-0.6-1.7
	c5.5-6.1,11.1-12.2,16.6-18.2c0.2-0.7,0.3-1.5,0.5-2.2l-17.5,19.2c-0.7-1.9-1.4-3.7-2.1-5.6c6.8-7.6,13.7-15.3,20.5-22.9
	c0-0.6,0-1.2,0-1.8c-7,7.8-14,15.7-21,23.5c-1.1-2.9-2.2-5.8-3.2-8.7c7.9-8.5,15.8-17,23.7-25.6c-0.1-0.5-0.1-1-0.2-1.5
	c-8,8.6-16,17.2-24,25.9c-0.9-2.5-1.9-5.1-2.8-7.6c0-0.1-0.1-0.1-0.1-0.2c8-9.5,16.4-18.6,25.3-27.2c-0.1-0.4-0.2-0.9-0.3-1.3
	c-8.9,8.6-17.4,17.7-25.5,27.3c-0.1-0.3-0.2-0.6-0.4-1c0-0.1,0-0.1-0.1-0.2c-0.8-2.1-1.6-4.2-2.4-6.3c7.8-10.9,16.2-21.3,24.9-31.3
	c-0.1-0.4-0.3-0.8-0.4-1.2C149.9,185.4,141.6,195.9,133.7,206.7"/>
<path class="st2" d="M30.7,235.2c0,0,3.2-27.3,11.1-27.8c7.9-0.4,12.9,20.7,12.9,20.7s4.1-40.6,15.3-41.5
	c11.1-0.9,12.9,22.5,12.9,22.5s1.8-36.6,14.1-37c12.3-0.4,15.5,19.4,15.5,19.4c2.1-22.1,19.1-21.6,19.4-2.6
	c0.3,19,13.8,30.9,13.8,30.9s2.1-23.4,12-25.1c10-1.8,12.6,28.2,12.6,28.2s3.5-35.3,14.4-34.4c10.9,0.9,11.1,28.9,11.1,28.9
	s0.9-34.2,10.9-32.9c10,1.3,8.2,30.9,8.5,41c0.3,10.1,7.9,24.7,22,8.4c14.1-16.3,19.6,20.3,19.6,20.3l-218.2,0
	C28.7,254.1,30.7,235.2,30.7,235.2"/>
<path class="st0" d="M452,239.8c0,0-2.4-20.8-8.5-21.1c-6-0.3-9.8,15.7-9.8,15.7s-3.1-30.8-11.6-31.5c-8.5-0.7-9.8,17.1-9.8,17.1
	s-1.3-27.8-10.7-28.1c-9.3-0.3-11.8,14.7-11.8,14.7c-1.6-16.7-14.5-16.4-14.7-2c-0.2,14.4-10.5,23.4-10.5,23.4s-1.6-17.7-9.1-19.1
	c-7.6-1.3-9.6,21.4-9.6,21.4s-2.7-26.8-10.9-26.1c-8.2,0.7-8.5,21.9-8.5,21.9s-0.7-25.9-8.2-24.9c-7.6,1-6.2,23.4-6.5,31.1
	c-0.2,7.7-6,18.7-16.7,6.4c-10.7-12.4-60.1,15.4-60.1,15.4l210.8,0C453.6,254.2,452,239.8,452,239.8"/>
<g>
	<defs>
		<polygon id="SVGID_00000060750110071617422880000014970890102909518729_" points="68.5,220.9 77.8,252.8 81.6,250.5 72.3,218.6 		
			"/>
	</defs>
	<clipPath id="SVGID_00000057125188965550136480000010224536870521865377_">
		<use xlink:href="#SVGID_00000060750110071617422880000014970890102909518729_"  style="overflow:visible;"/>
	</clipPath>
	
		<linearGradient id="SVGID_00000070824662004096497900000004499349457620077715_" gradientUnits="userSpaceOnUse" x1="513.5881" y1="275.0325" x2="514.4909" y2="275.0325" gradientTransform="matrix(9.419 36.9769 36.9769 -9.419 -14936.5361 -16181.3525)">
		<stop  offset="0" style="stop-color:#002B3D"/>
		<stop  offset="0.2383" style="stop-color:#002B3D"/>
		<stop  offset="0.4639" style="stop-color:#003144"/>
		<stop  offset="0.806" style="stop-color:#014356"/>
		<stop  offset="1" style="stop-color:#0E4F63"/>
	</linearGradient>
	
		<polygon style="clip-path:url(#SVGID_00000057125188965550136480000010224536870521865377_);fill:url(#SVGID_00000070824662004096497900000004499349457620077715_);" points="
		73.4,218.3 81.9,251.7 76.7,253 68.2,219.7 	"/>
</g>
<g>
	<path class="st1" d="M392.2,172.7c-3-5.5-5.2-8.3,1-12.6c6.2-4.3,2.5-8.8-0.5-14.3c-3-5.5-2.6-12.1,5.1-21.5c7.7-9.4,1.4-13.8-1-20
		c-2.4-6.2-2.6-7.7,1.8-15.7c4.4-8-1.2-13.3-7-18.6c-5.9-5.4-5-32.1-5-32.1s-10,4.8-12.3,19.1c-2.3,14.3-9.8,3.5-15.7,15.3
		c-5.9,11.8,3.6,18.2-5.4,22.3c-9,4.1-14.8,9.8-12,25.2c2.7,15.4-11.2,14.9-11.7,26.1c-0.5,11.2,12.1,11.8,7.2,20.3
		c-4.9,8.5-9.3,11-2.2,18.7c7.1,7.6-3.3,14.9,4,26c0.3,0.4,0.6,0.8,0.9,1.3c9.1,12.1,26.7,13.3,35.8,2.3c2.1-2.5,3.3-5.2,3-7.8
		c-1.3-10.5,0-10.5,9-12.4C396.2,192.2,395.2,178.1,392.2,172.7"/>
	<path class="st0" d="M388.2,115.1c-4.7,0.4-9.2,1.5-13.5,3.2c1.1-5.8,2-11.5,2.7-17.4c0.2-2,0.5-4.1,0.7-6.1c0.1,0,0.1-0.1,0.2-0.2
		c2.3-3.6,5.3-6.7,8.7-9.2c0.7-0.5-0.1-1.7-0.8-1.2c-3,2.2-5.6,4.7-7.8,7.7c1.3-13,2-26,2.7-39.1c0-0.9-1.4-1.2-1.4-0.3
		c-0.7,12.5-1.3,25-2.5,37.4c-2.3-3.3-5.1-6.3-8.3-8.9c-0.7-0.6-1.6,0.5-0.9,1c3.4,2.8,6.4,6.1,8.8,9.8c0,0.1,0.1,0.1,0.1,0.2
		c-0.1,1-0.2,2-0.3,3c-0.8,7.9-2,15.8-3.4,23.6c-3.8-3.7-7.9-7.1-12.2-10.1c-0.8-0.5-1.7,0.5-0.9,1c4.6,3.2,8.9,6.7,12.8,10.7
		c-1,5.5-2.1,10.9-3.4,16.3c-1.3,5.9-2.8,11.7-4.2,17.6c-3.4-4-7-7.7-10.9-11.3c-0.7-0.6-1.6,0.4-0.9,1c4,3.6,7.7,7.5,11.1,11.6
		c0.1,0.1,0.2,0.2,0.3,0.2c-1.8,7.2-3.6,14.4-5.2,21.6c-0.3,1.4-0.6,2.7-0.9,4.1c-2.9-3-6.1-5.6-9.6-7.8c-0.8-0.5-1.4,0.8-0.6,1.3
		c3.6,2.2,6.8,4.9,9.7,8c0.1,0.1,0.1,0.1,0.2,0.1c-2.5,11.5-3.9,18.4-5.2,30.1c-1.5,14.2,1.6-1.9,2.5-8.4c1.1-7,2.4-14,3.9-20.9
		c0,0,0-0.1,0-0.1c4.7-1.2,9.6-1.9,14.5-2.2c0.9-0.1,0.8-1.5-0.2-1.4c-4.8,0.3-9.4,1-14,2.1c2-8.9,4.2-17.8,6.3-26.7
		c5.1-1.2,10.1-2.4,15.2-3.6c0.9-0.2,0.4-1.6-0.5-1.4c-4.8,1.1-9.5,2.3-14.3,3.4c2.8-11.3,5.5-22.6,7.6-34c4.4-1.8,9.1-3,13.9-3.4
		C389.2,116.4,389.1,115,388.2,115.1"/>
	<path class="st0" d="M368.5,75.1c0.5,0.5,1,0.9,1.5,1.4c0.4,0.4,1,0.6,1.5,0.2c0.4-0.3,0.5-1.1,0.1-1.5c-0.5-0.5-1-0.9-1.5-1.4
		c-0.4-0.4-1-0.6-1.5-0.2C368.2,73.9,368.1,74.7,368.5,75.1"/>
	<path class="st0" d="M372.7,71.3c0.1,0.7,0.2,1.3,0.3,2c0.1,0.6,0.7,1,1.3,0.9c0.6-0.1,0.9-0.6,0.8-1.2c-0.1-0.7-0.2-1.3-0.3-2
		c-0.1-0.6-0.7-1-1.3-0.9C372.9,70.2,372.6,70.7,372.7,71.3"/>
	<path class="st0" d="M363.1,77.4l1.7,1.6c0.4,0.4,1,0.6,1.5,0.2c0.4-0.3,0.5-1.1,0.1-1.5l-1.7-1.6c-0.4-0.4-1-0.6-1.5-0.2
		C362.8,76.3,362.7,77,363.1,77.4"/>
	<path class="st0" d="M384.3,76.8c-0.1,0.6-0.2,1.1-0.3,1.7c-0.1,0.5,0.5,1.1,1,1.2c0.6,0,1-0.4,1.1-1c0.1-0.6,0.2-1.1,0.3-1.7
		c0.1-0.5-0.5-1.1-1-1.2C384.7,75.8,384.4,76.2,384.3,76.8"/>
	<path class="st0" d="M390.7,80.4c-0.1,0.1-0.1,0.2-0.2,0.4c0,0.1-0.1,0.1-0.1,0.2c0.1-0.1,0.1-0.1,0,0c-0.1,0.1-0.2,0.2-0.3,0.3
		c0,0-0.3,0.2-0.2,0.2c-0.5,0.3-0.8,0.8-0.5,1.4c0.3,0.5,0.9,0.9,1.4,0.6c0.7-0.4,1.3-0.9,1.7-1.6c0.3-0.5,0.2-1.2-0.3-1.5
		C391.8,79.8,391,79.9,390.7,80.4"/>
	<path class="st0" d="M391.7,86.6c-0.7,0-1.4,0.1-2.1,0.1c-0.6,0-0.9,0.7-0.8,1.2c0.1,0.6,0.7,0.9,1.3,0.9c0.7,0,1.4-0.1,2.1-0.1
		c0.6,0,0.9-0.7,0.8-1.2C392.8,86.9,392.3,86.5,391.7,86.6"/>
	<path class="st0" d="M352.2,111.7c0.7-0.1,1.4-0.2,2.2-0.3c0.6-0.1,0.9-0.7,0.8-1.2c-0.1-0.6-0.7-1-1.3-0.9l-2.2,0.3
		c-0.6,0.1-0.9,0.7-0.8,1.2C351,111.4,351.6,111.8,352.2,111.7"/>
	<path class="st0" d="M353.7,105c0.6,0.5,1.3,0.9,1.9,1.4c1.1,0.8,2.3-0.9,1.2-1.7c-0.6-0.5-1.3-0.9-1.9-1.4
		C353.7,102.4,352.5,104.1,353.7,105"/>
	<path class="st0" d="M359.6,100.9c-0.1,0.7,0.1,1.5,0.4,2.2c0.2,0.5,0.9,0.8,1.4,0.6c0.5-0.3,0.7-0.9,0.5-1.4c0,0-0.2-0.4-0.1-0.2
		c0-0.1-0.1-0.2-0.1-0.4c0-0.1,0-0.1,0-0.2c0,0.1,0,0.1,0,0c0-0.1,0-0.2,0-0.4c0-0.6-0.5-1.1-1-1.2
		C360.2,99.9,359.7,100.3,359.6,100.9"/>
	<path class="st0" d="M365.3,102.7c-0.1,0.5-0.1,0.9-0.2,1.4c-0.1,0.6,0.5,1.1,1,1.2c0.6,0,1-0.4,1.1-1c0.1-0.5,0.1-0.9,0.2-1.4
		c0.1-0.6-0.5-1.1-1-1.2C365.8,101.7,365.4,102.1,365.3,102.7"/>
	<path class="st0" d="M385.2,110.7c0.1,0.5,0.1,1,0.2,1.4c0.1,0.6,0.7,1,1.3,0.9c0.6-0.1,0.9-0.6,0.8-1.2c-0.1-0.5-0.1-1-0.2-1.4
		c-0.1-0.6-0.7-1-1.3-0.9C385.4,109.6,385.1,110.1,385.2,110.7"/>
	<path class="st0" d="M392.6,111.8c-0.5,0.4-1,0.7-1.5,1.1c-0.4,0.3-0.5,1.1-0.1,1.5c0.4,0.5,1,0.5,1.5,0.2c0.5-0.4,1-0.7,1.5-1.1
		c0.4-0.3,0.5-1.1,0.1-1.5C393.7,111.5,393.1,111.4,392.6,111.8"/>
	<path class="st0" d="M394.2,118.6c-0.7-0.3-1.4-0.6-2.1-0.9c-0.5-0.2-1.2,0.1-1.3,0.6c-0.2,0.6,0.1,1.1,0.7,1.4
		c0.7,0.3,1.4,0.6,2.1,0.9c0.5,0.2,1.2-0.1,1.3-0.6C395.1,119.4,394.7,118.8,394.2,118.6"/>
	<path class="st0" d="M387.6,122.3c0.6,0.5,1.1,1.1,1.7,1.6c0.4,0.4,1,0.6,1.5,0.2c0.4-0.3,0.5-1.1,0.1-1.5l-1.7-1.6
		c-0.4-0.4-1-0.6-1.5-0.2C387.3,121.1,387.1,121.9,387.6,122.3"/>
	<path class="st0" d="M349.8,147.1c-0.8,0.1-1.5,0.1-2.3,0.2c-0.6,0.1-0.9,0.7-0.8,1.2c0.1,0.6,0.7,0.9,1.3,0.9
		c0.8-0.1,1.5-0.1,2.3-0.2c0.6-0.1,0.9-0.7,0.8-1.2C350.9,147.4,350.3,147.1,349.8,147.1"/>
	<path class="st0" d="M346.2,140.6c-1.2-0.2-2.5-0.4-3.7-0.6c-1.4-0.2-1.5,1.9-0.1,2.1c1.2,0.2,2.5,0.4,3.7,0.6
		C347.5,143,347.6,140.9,346.2,140.6"/>
	<path class="st0" d="M346.8,136c0.7,0.8,1.4,1.5,2.2,2.3c1,1,2.6-0.3,1.6-1.3c-0.7-0.8-1.4-1.5-2.2-2.3
		C347.4,133.6,345.8,135,346.8,136"/>
	<path class="st0" d="M354.2,133.3l0.3,1.6c0.1,0.6,0.7,1,1.3,0.9c0.6-0.1,0.9-0.6,0.8-1.2c-0.1-0.5-0.2-1.1-0.3-1.6
		c-0.1-0.6-0.7-1-1.3-0.9C354.5,132.2,354.1,132.7,354.2,133.3"/>
	<path class="st0" d="M360.4,138c-0.3,0.8-0.5,1.5-0.8,2.3c-0.4,1.3,1.6,2.1,2,0.8c0.3-0.8,0.5-1.5,0.8-2.3
		C362.9,137.5,360.8,136.7,360.4,138"/>
	<path class="st0" d="M375.5,145.5c0,0.7,0,1.4,0,2c0,0.6,0.4,1.1,1,1.2c0.6,0.1,1.1-0.4,1.1-1c0-0.7,0-1.4,0-2c0-0.6-0.4-1.1-1-1.2
		C376.1,144.5,375.5,144.9,375.5,145.5"/>
	<path class="st0" d="M383.8,141.5c-0.3,1-0.7,2.1-1,3.1c-0.4,1.3,1.6,2.1,2,0.8c0.3-1,0.7-2.1,1-3.1
		C386.2,141,384.2,140.2,383.8,141.5"/>
	<path class="st0" d="M388.3,149.5c-1.1,0.1-2.3,0.2-3.4,0.3c-1.4,0.1-0.9,2.2,0.4,2.1c1.1-0.1,2.3-0.2,3.4-0.3
		C390.1,151.5,389.7,149.4,388.3,149.5"/>
	<path class="st0" d="M387.6,157.6c-1-0.4-2-0.8-2.9-1.1c-1.3-0.5-2,1.5-0.7,2c1,0.4,2,0.8,2.9,1.1
		C388.2,160,388.9,158.1,387.6,157.6"/>
	<path class="st0" d="M382.8,161.9c-1.2-1-2.6-1.8-4.1-2.4c-1.3-0.6-2,1.4-0.7,2c1.3,0.6,2.5,1.3,3.6,2.2
		C382.8,164.5,383.9,162.8,382.8,161.9"/>
	<path class="st0" d="M345.3,179.7c-1,0.4-2,0.9-3,1.3c-1.2,0.5-0.3,2.5,1,2c1-0.4,2-0.9,3-1.3C347.5,181.2,346.6,179.2,345.3,179.7
		"/>
	<path class="st0" d="M340.4,176.9c0.9,0.2,1.8,0.3,2.7,0.5c0.6,0.1,1.1-0.4,1.1-1c0-0.6-0.4-1.1-1-1.2c-0.9-0.2-1.8-0.3-2.7-0.5
		c-0.6-0.1-1.1,0.4-1.1,1C339.4,176.3,339.9,176.8,340.4,176.9"/>
	<path class="st0" d="M340,169c0.8,0.3,1.6,0.6,2.5,0.9c1.3,0.5-0.5-2.4-1.8-2.9c-0.8-0.3,0.8,0.3,0,0
		C339.3,166.5,338.7,168.5,340,169"/>
	<path class="st0" d="M348.1,165.4c0.3,0.7,0.6,1.4,1,2.1c0.2,0.5,0.9,0.8,1.4,0.6c0.5-0.3,0.7-0.9,0.5-1.4
		c-0.3-0.7-0.6-1.4-0.9-2.1c-0.2-0.5-0.9-0.8-1.4-0.6C348.1,164.3,347.9,164.9,348.1,165.4"/>
	<path class="st0" d="M353.6,169.6c-0.1,0.7-0.2,1.3-0.2,2c-0.1,0.6,0.5,1.1,1,1.2c0.6,0.1,1-0.4,1.1-1c0.1-0.7,0.2-1.3,0.2-2
		c0.1-0.6-0.5-1.1-1-1.2C354.1,168.6,353.7,169.1,353.6,169.6"/>
	<path class="st0" d="M368.1,173.9c-0.5,0.7-0.9,1.4-1.4,2.1c-0.7,1.1,1,2.4,1.8,1.3c0.5-0.7,0.9-1.4,1.4-2.1
		C370.7,174.1,368.9,172.8,368.1,173.9"/>
	<path class="st0" d="M374.6,173.6c-0.4,0.8-0.9,1.4-1.5,2c-1,0.9,0.4,2.6,1.4,1.7c0.8-0.7,1.4-1.5,1.9-2.4c0.3-0.5,0.2-1.1-0.3-1.5
		C375.7,173,374.9,173.1,374.6,173.6"/>
	<path class="st0" d="M381.6,177.4c-1.1,0.4-2.2,0.6-3.4,0.7c-0.6,0-0.9,0.7-0.8,1.2c0.1,0.6,0.7,0.9,1.3,0.9
		c1.3-0.1,2.6-0.4,3.9-0.8C383.8,178.9,382.8,176.9,381.6,177.4"/>
	<path class="st0" d="M382,183.9c-1.2-0.3-2.4-0.6-3.6-0.8c-0.6-0.1-1.1,0.4-1.1,1c0,0.6,0.4,1,1,1.2c1.2,0.3,2.4,0.6,3.6,0.8
		c0.6,0.1,1.1-0.4,1.1-1C383,184.5,382.5,184.1,382,183.9"/>
	<path class="st0" d="M376.1,187.9c-1.9-1.3-3.8-2.5-5.7-3.8c-1.2-0.8-2.3,0.9-1.2,1.7c1.9,1.3,3.8,2.5,5.7,3.8
		C376.1,190.4,377.3,188.7,376.1,187.9"/>
	<path class="st0" d="M367.8,188.3c-0.9-0.3-1.8-0.7-2.7-1c-1.3-0.5-2,1.5-0.7,2c0.9,0.3,1.8,0.7,2.7,1
		C368.4,190.8,369.1,188.8,367.8,188.3"/>
</g>
<g>
	<path class="st36" d="M343.4,251.1c1.2-19.4,64.9-7.9,47-61.7c-7.4-22.2-59.9-124.7-67-135.8l-151.5,0l73,200.6L343.4,251.1z"/>
	<path class="st37" d="M171.8,53.6c0,0-51.2,160.2-98.1,200.6l198.9,0C237.9,224.2,171.8,53.6,171.8,53.6"/>
	<polygon class="st38" points="171.8,53.6 173.2,254.2 143.2,254.2 	"/>
</g>
<path class="st39" d="M143.8,254.2c-12.3,0-25.1-10.6-29.2-20.2c0,0,31.1-68.4,57.3-180L143.8,254.2z"/>
<path class="st2" d="M431.3,88.7c0,0-63.4,47.4-82.1,96.3c-6.3,16.6-7.6,30.4-6.6,41.5c2.2,23.1,26.8,35.4,45,22.5
	c8.7-6.2,18-16.1,26-31.8C437.2,170.7,431.3,88.7,431.3,88.7"/>
<path class="st1" d="M376.7,215.5c1.5-3.3,2.9-6.6,4.4-9.9c12.7-0.6,25.5-1.1,38.2-1.7c0.1-0.4,0.3-0.8,0.4-1.2
	c-12.7,0.6-25.4,1.1-38.1,1.7c1.4-3.1,2.8-6.2,4.1-9.3c12.2-0.7,24.4-0.9,36.5-0.5c0.1-0.4,0.2-0.8,0.3-1.2
	c-12.1-0.4-24.2-0.2-36.3,0.5c1.3-3,2.6-6,4-9c11.5-0.2,23.1-0.4,34.6-0.5c0.1-0.4,0.2-0.8,0.3-1.2c-11.5,0.2-22.9,0.4-34.4,0.5
	c1.4-3.1,2.8-6.3,4.2-9.4c10.8-1.1,21.6-1.8,32.4-2c0.1-0.4,0.1-0.8,0.2-1.2c-10.7,0.2-21.4,0.9-32,2c1.4-3.2,2.9-6.5,4.3-9.7
	c9.7-0.9,19.4-1.3,29.1-1.3c0.1-0.4,0.1-0.8,0.2-1.2c-9.6,0-19.1,0.4-28.7,1.3c1.2-2.6,2.3-5.3,3.5-7.9c8.7-1.2,17.4-1.9,26.2-2.3
	c0-0.4,0.1-0.8,0.1-1.2c-8.6,0.3-17.2,1.1-25.8,2.2c1.4-3.2,2.8-6.4,4.3-9.6c7.3-1.8,14.8-2.7,22.4-2.7c0-0.4,0.1-0.8,0.1-1.2
	c-7.3,0.1-14.7,0.9-21.8,2.6c0.5-1.1,1-2.2,1.4-3.3c0.2-0.1,0.3-0.3,0.3-0.6c0.3-0.8,0.7-1.6,1-2.4c6.3-2,12.9-2.7,19.4-2.2
	c0-0.4,0-0.8,0.1-1.2c-6.4-0.5-12.7,0.2-18.9,2c1.1-2.4,2.1-4.8,3.2-7.2c5.3-1.2,10.6-1.9,16-2.3c0-0.4,0-0.8,0-1.2
	c-5.2,0.3-10.3,1-15.4,2.1l3-6.7l10.8-0.6c0.6,0,1.2-0.1,1.8-0.1c0-0.4,0-0.8,0-1.2c-0.9,0-1.8,0.1-2.6,0.1
	c-3.1,0.2-6.3,0.3-9.4,0.5c0.8-1.9,1.7-3.8,2.5-5.7c3.2-0.8,6.4-1.4,9.6-1.8c0-0.4,0-0.8,0-1.2c-3,0.4-6,1-9,1.7
	c1-2.2,2-4.4,2.9-6.6c2-0.4,4-0.7,6-0.9c0-0.4,0-0.8,0-1.2c-1.8,0.2-3.6,0.4-5.4,0.8c0.6-1.3,1.2-2.7,1.8-4l3.5-0.7
	c0-0.4,0-0.8,0-1.2c-1,0.2-1.9,0.4-2.9,0.6c0.9-2,1.8-4,2.6-6c-0.1-1.9-0.2-2.9-0.2-2.9s-0.8,0.6-2.2,1.7c-1,2.2-2,4.4-2.9,6.7
	c-0.2-1.2-0.6-2.4-1-3.5c-0.3,0.2-0.6,0.5-0.9,0.8c0.5,1.5,0.9,3,1.1,4.6c-0.7,1.5-1.4,3.1-2.1,4.6c-0.5-2.3-1.2-4.6-2-6.8
	c-0.3,0.2-0.6,0.5-0.9,0.8c0.9,2.3,1.6,4.8,2,7.3c0,0.2,0.1,0.3,0.2,0.4c-1.3,2.8-2.5,5.7-3.8,8.5c-1.1-3.9-2.3-7.9-3.7-11.7
	c-0.3,0.3-0.6,0.5-0.9,0.8c1.4,4.1,2.7,8.3,3.9,12.5c-1.1,2.6-2.3,5.1-3.4,7.7c-1.6-5.4-3.3-10.8-5.1-16.1c-0.3,0.3-0.6,0.5-0.9,0.8
	c1.9,5.6,3.7,11.2,5.3,16.8c-1.4,3.1-2.8,6.3-4.2,9.4c-1.9-7.2-4-14.4-6.4-21.4c-0.3,0.3-0.6,0.6-0.9,0.9c2.5,7.3,4.7,14.7,6.6,22.2
	c-0.9,2.1-1.8,4.1-2.7,6.2c-3.3-7.5-6.6-15-9.9-22.6c-0.3,0.3-0.6,0.6-0.9,0.9c3.4,7.7,6.7,15.4,10.1,23.1c-1.8,4-3.5,8-5.3,12
	c-2.7-10.2-5.9-20.3-9.6-30.2c-0.3,0.3-0.6,0.6-0.9,0.9c3.8,10.1,7.1,20.4,9.8,30.9c-1.6,3.7-3.2,7.4-4.9,11
	c-4.5-10.8-9-21.7-13.5-32.5c-0.3,0.3-0.5,0.6-0.8,0.9c4.6,11,9.2,22,13.7,33c-0.6,1.4-1.2,2.8-1.9,4.2c-0.8,1.7-1.5,3.4-2.3,5.1
	c-5.2-11.8-10.4-23.5-15.5-35.3c-0.3,0.3-0.5,0.7-0.8,1c5.2,11.9,10.5,23.8,15.7,35.7c-1.2,2.6-2.3,5.3-3.5,7.9
	c-6.4-11.5-12.8-23-19.2-34.5c-0.2,0.3-0.5,0.7-0.7,1c6.4,11.5,12.8,23.1,19.2,34.6c0,0.1,0.1,0.1,0.1,0.2l-5,11.3l-19.8-37.9
	c-0.2,0.4-0.5,0.7-0.7,1.1c6.6,12.7,13.3,25.4,19.9,38.2c-1.2,2.8-2.5,5.6-3.7,8.4c-7.6-11.5-15.3-23-22.9-34.5
	c-0.2,0.4-0.4,0.8-0.6,1.2c7.7,11.5,15.3,23,23,34.5c-1.3,3-2.6,6-4,9c-8.5-10.2-16.4-20.8-23.7-31.9c-0.2,0.5-0.3,0.9-0.5,1.4
	c7.3,11,15.2,21.6,23.7,31.7c-2.1,4.9-4.3,9.7-6.4,14.6c-7.6-9.1-14.8-18.5-21.6-28.3c-0.1,0.6-0.2,1.1-0.2,1.7
	c6.6,9.6,13.7,18.8,21.1,27.7c0,0.1,0.1,0.1,0.1,0.1c-0.9,2-1.8,4.1-2.7,6.1c-6.4-7-12.7-13.9-19.1-20.9c0,0.6,0.1,1.2,0.1,1.8
	c6.2,6.7,12.3,13.5,18.5,20.2c-0.9,2-1.8,4.1-2.7,6.1c0.8,0.4,1.6,0.8,2.4,1.2c0.2-0.6,0.5-1.1,0.7-1.7c8,0.1,16,0.1,24,0.2
	c0.6-0.4,1.2-0.8,1.8-1.2c-8.5-0.1-16.9-0.1-25.4-0.2c0.8-1.8,1.6-3.6,2.4-5.4c10,0,20,0,30-0.1c0.4-0.4,0.8-0.8,1.3-1.2
	c-10.2,0-20.5,0-30.7,0.1c1.2-2.8,2.5-5.6,3.7-8.4c11.3,0.2,22.7,0.4,34,0.6c0.3-0.4,0.6-0.8,0.9-1.2c-11.5-0.2-23-0.4-34.4-0.6
	c1.1-2.5,2.2-4.9,3.2-7.4c0-0.1,0.1-0.1,0.1-0.2c12.1-0.4,24.2-0.2,36.2,0.7c0.2-0.4,0.5-0.8,0.7-1.1c-12.1-0.9-24.3-1.2-36.4-0.8
	c0.1-0.3,0.3-0.6,0.4-0.9c0-0.1,0.1-0.1,0.1-0.2c0.9-2.1,1.8-4.1,2.7-6.2c12.9-1.5,25.9-2.3,38.8-2.4c0.2-0.4,0.4-0.8,0.6-1.2
	C402.5,213.3,389.6,214.1,376.7,215.5"/>
<path class="st1" d="M192.5,263.6c0,0,2.7-38.1,9.4-38.4c6.7-0.4,10.9,16.8,10.9,16.8s3.5-32.8,12.9-33.5
	c9.4-0.7,10.9,18.2,10.9,18.2s1.5-29.6,11.9-30c10.4-0.4,13.1,15.7,13.1,15.7c1.7-17.8,17.7-16.5,22.5-2.1c4.9,14.6,5.5,25,5.5,25
	s1.7-18.9,10.2-20.3c8.4-1.4,10.6,22.8,10.6,22.8s5.4-26,25.4-26c8.5,0,14.3,16,14.5,24.2c0.2,8.2,4.6,20,16.5,6.8
	c11.9-13.2,22.3,20.9,22.3,20.9L192.5,263.6z"/>
</svg>
