<?xml version="1.0" encoding="utf-8"?>
<!-- Generator: Adobe Illustrator 26.0.3, SVG Export Plug-In . SVG Version: 6.00 Build 0)  -->
<svg version="1.1" id="Ebene_1" xmlns="http://www.w3.org/2000/svg" xmlns:xlink="http://www.w3.org/1999/xlink" x="0px" y="0px"
	 viewBox="0 0 478.9 288" style="enable-background:new 0 0 478.9 288;" xml:space="preserve">
<style type="text/css">
	.st0{fill:#D99A68;}
	.st1{fill:#F0C29C;}
	.st2{fill:#641E6E;}
	.st3{fill:#EA5474;}
	.st4{fill:#7575B4;}
	.st5{opacity:0.3;fill:url(#SVGID_1_);}
	.st6{fill:#BE7A50;}
	.st7{opacity:0.2;fill:url(#SVGID_00000072973697770040916340000006055826322741810859_);}
	.st8{opacity:0.2;fill:url(#SVGID_00000173850662819324869840000007042889866809900215_);}
	.st9{fill:#4F2B1E;}
	.st10{fill:#542614;}
	.st11{fill:#79422C;}
	.st12{fill:#833500;}
	.st13{fill:#636664;}
	.st14{fill:#A57555;}
	.st15{fill:#271607;}
	.st16{opacity:0.1;}
	.st17{clip-path:url(#SVGID_00000162351846048420816790000010607786819329850787_);fill:#FFFFFF;}
	.st18{fill:#3B3534;}
	.st19{fill:#381947;}
	.st20{fill:#002E2C;}
	.st21{fill:#694F7F;}
	.st22{opacity:0.9;}
	.st23{clip-path:url(#SVGID_00000066478455160154204330000012012900400128172472_);fill:#D8DADA;}
	.st24{clip-path:url(#SVGID_00000183928374579319169480000000114327171957530044_);fill:#D8DADA;}
	.st25{fill:#518198;}
	.st26{fill:#F69C00;}
	.st27{fill:#ED5607;}
	.st28{fill:#FDD184;}
	.st29{fill:#EA3C0F;}
	.st30{fill:#E6BFA5;}
	.st31{clip-path:url(#SVGID_00000030481746467188883530000016387250418497559442_);fill:#381947;}
	.st32{clip-path:url(#SVGID_00000004535719483619118970000012258809027383310228_);fill:#FFFFFF;}
	.st33{clip-path:url(#SVGID_00000009552293192693137510000006843782392170139579_);fill:#FFFFFF;}
	.st34{fill:#877C7A;}
	.st35{fill:#302B28;}
	.st36{fill:#5A524F;}
	.st37{fill:#A8A09E;}
	.st38{fill:#B8A8A6;}
	.st39{fill:#DCCECB;}
	.st40{opacity:0.3;}
	.st41{clip-path:url(#SVGID_00000008835321838184539910000004693502698171721629_);fill:#AADBE0;}
	.st42{opacity:0.2;}
	.st43{clip-path:url(#SVGID_00000118395871107610000380000003528380375769276060_);fill:#AADBE0;}
	.st44{fill:#FFE274;}
	.st45{fill:#FAB40C;}
	.st46{clip-path:url(#SVGID_00000129197945971008155610000016515144977275085999_);fill:#AADBE0;}
	
		.st47{clip-path:url(#SVGID_00000021116192905269831020000013628907162654499491_);fill:url(#SVGID_00000183212882557308610810000014837505415751573156_);}
	.st48{fill:#D78D5A;}
	.st49{fill:#66322A;}
	.st50{fill:#2F0C27;}
	.st51{fill:#485B5E;}
	.st52{fill:#7B8E91;}
	.st53{opacity:0.6;fill:#9EB1B5;}
	.st54{fill:#596D71;}
	.st55{fill:#F4931F;}
	.st56{fill:#9EB1B5;}
	.st57{fill:#FDCF0C;}
	.st58{fill:#F9AE15;}
	.st59{fill:#FFFFFF;}
	.st60{fill:#E7EAE1;}
	.st61{fill:#C6C4AF;}
	.st62{filter:url(#Adobe_OpacityMaskFilter);}
	.st63{opacity:0.1;mask:url(#SVGID_00000164478840454154158500000016857161931405809551_);}
	.st64{fill:#87442A;}
	.st65{filter:url(#Adobe_OpacityMaskFilter_00000061433408705577578640000002051396454352901767_);}
	.st66{opacity:0.1;mask:url(#SVGID_00000117677564500913366580000006241317752899987876_);}
</style>
<g>
	<g>
		<path class="st0" d="M203,125c-1.6,0.3-3.1-0.6-4.3-1.3c-3.8-1.9-7.8-3.1-11.7-4.5c-2.8-1-5.7-1.7-8.4-3.1c-0.6-0.3-1.2-0.7-2-0.7
			c-0.9,0-0.2-0.5-0.1-0.7c0.7-2.6,2.5-4.6,3.6-7c0.9-2,2.4-3.7,3.1-5.8c0.1-0.4,0.4-0.8,0.2-1.3c-1.4-5.5-0.3-10.9,0.8-16.4
			c0.9-4.2,2.1-8.3,3-12.5c1-4.4,2.5-11.6,3.5-16c0.8-3.4,1.4-6.8,2.3-10.1c0.9-3.8,5-5.4,8-3.1c0.9,0.7,1.2,1.9,1.4,2.9
			c0.6,3.1-0.5,6.1-1.1,9c-0.3,1.7-0.7,3.5-1.1,5.3c-0.5,2.3-0.9,4.6-1.4,6.9c-0.2,1,0.4,0.9,0.8,0.7c0.6-0.2,0.9-0.7,1.1-1.3
			c1.8-5.2,3.7-10.3,5.5-15.5c1.2-3.4,2.2-6.7,3.4-10.1c1.2-3.6,4.5-5.5,7.5-3.8c2.2,1.3,3.1,4.1,2.3,6.6
			c-1.8,5.4-3.8,10.7-5.6,16.1c-0.9,2.6-1.6,5.3-2.6,7.9c-0.2,0.5-0.4,1.3,0.3,1.5c0.5,0.2,0.9-0.5,1.1-0.9
			c4.8-9.6,9.5-19.1,14.3-28.7c1-1.9,2.4-3.3,4.5-3.8c1.5-0.3,4.6,1.9,4.9,3.7c0.2,1.4,0.3,2.8-0.4,4.2c-4.6,9-9,18-13.5,27
			c-0.2,0.3-1.3,3.1,1.4,0.4c1.8-1,3-2.8,4.8-3.8c2.1-1.3,4.1-1,6.3-0.6c2.8,0.6,4.8,2.4,6.7,4.3c0.1,0.1,0.2,0.1,0.3,0.1
			c0.7,1,0.5,2.8,1.8,3.1c0.5,0.1,1.2-1.9,1.4-3c1.8-1.9,3.9-3.3,6.2-4.5c1.7-0.4,3.5-0.3,5.2-0.3c1.3,0.3,2.5,1,3.6,1.7
			c1.4,1.7,6.4,7,7.2,8.3c-0.6-1.3-1.3-2.5-1.9-3.8c-0.6-2-11-23.3-13.7-28.4c-0.5-0.9-0.8-1.9-0.9-2.9c-0.1-3.5,2.7-5.3,6.1-5
			c2.6,0.5,3.8,4.4,4.3,5.1c1,2.4,6.9,14.3,8.3,16.6c1.5,3.9,3.6,7.5,5.4,11.3c0.2,0.5,0.6,1.1,0.9,0c0.2-0.1,0.3-0.1,0.5-0.2
			c-1.2-2.5-8.5-25.6-9.1-27.6c0.4-1.9,1.4-3.3,3.1-4.3c1.2-0.5,2.4-0.5,3.6-0.4c1.2,0.8,2.4,1.7,3.1,3c1.3,4,6.7,19.4,7.6,22.2
			c0.6,1.8,1.4,3.6,2.1,5.4c0.2,0.6,0.6,0.9,1.2,0.7c0.6-0.2,0.5-0.7,0.4-1.1c-0.8-2.3-0.9-4.8-1.5-7.2c-0.7-3.1-1.5-6.1-2.1-9.2
			c-0.5-2.4-0.6-4.8,1.2-6.8c1.6-1.8,4.3-1.9,6.1-0.4c2,1.7,2.3,4.1,2.7,6.4c0.4,2,8.7,37.5,9.3,42c0.4,3,0.1,6.1,0,9.2
			c0,1.1,0.2,2.1,0.7,3.2c1.2,2.6,2.9,4.9,4.2,7.4c-0.2,0.2-0.3,0.4-0.5,0.6c-4.4,2.4-8.8,4.9-13.2,7.2c-3.8,2-7.4,4.4-11.4,5.9
			c-1.8-2.9-3.1-6.1-5.1-9c-1.8-1.3-3.8-1.6-6-1.6c-1.3-0.5-2.7,0-4,0.1c-2.8-0.4-5.5-0.1-8.2,0.8c-0.4,0-0.8-0.1-1,0.3
			c-0.1,0.1-0.2,0.1-0.4,0.2c-0.5,0.1-0.9,0.2-1.4,0.3c-2,0.8-5.7,3.4-7.6,5c-1,0.8-2.3,1.3-3.6,1.2c-0.4,0-0.8-0.1-1.2-0.4
			c-0.8-0.4-1.2-1.2-1.2-2.1c0-1.3,0-2.6,0-3.9c0.1-0.8,0.2-1.6,0.7-2.2c0.8-1.1,16-12.1,16.7-15.1c4.9-15.2-6.1-22.3-7.5-23.6
			c0-0.1,0.1-0.3,0.1-0.4c3.5-1,5-3.5,3.8-6.6c-1.5,2.2-2.3,4.6-3.9,6.6c-0.3,0.1-0.5,0.2-0.8,0.4l-0.8,0.8
			c-0.1,0.1-0.2,0.1-0.3,0.2c-1,0.6-2,1.3-3.1,1.8c-1.7,0.8-3.4,1.8-5.1-0.1c-0.8-0.9-0.8,0.3-1.2,0.5c-0.9,0.3-1.7,0.7-2.9,0.3
			c-1.8-0.6-3.3-1.7-4.8-2.7c-0.8-0.6-1.6-1-2.3-0.4c-2.2,1.9-4.4,3.7-5.8,6.2c-2.5,4.6-3,9.7-2.2,14.7c0.7,4.4,3.1,7.8,7.5,9.7
			c4.7,2,10.4,4.6,10.9,10.1c0.2,2-0.1,4.7-1,5.4c-1.4,1.4-3.2,1.5-4.6-0.1c-2.6-2.9-5.9-4.4-9.3-5.8c-2.5-1-5.5-1.5-8.3-0.8
			c-1.6,0.4-3.2,0.5-4.7,0c-2.3-0.8-4.5,0.1-6.4,0.8c-1.1,0.4-1.6,2.3-2.3,3.6C205.3,120.7,204.2,122.8,203,125z M294.2,76.6
			c-9.2,5.6-18.8,8.1-29.1,7.7c7.2,4.2,23.8,0.4,28.8-7.4l0.1-0.1l-0.1-0.1C293.9,76.8,293.8,76.9,294.2,76.6z M222.6,84.3
			c-10.3,0.6-19.9-2.1-28.9-6.8C198.8,84.6,214,88.2,222.6,84.3z M273.6,101.7c4.7-9.7,12.7-13.9,23.3-14.4
			c-2.3-2.1-10-1.1-13.5,0.9C276.8,92.1,272.5,97.4,273.6,101.7z M213.5,102c0.9-5.1-4-10.9-11.8-14.7c-3.5-1.7-9.3-1.8-11.2,0
			C201,87.9,209,92,213.5,102z"/>
		<path class="st1" d="M294.2,76.6c-5.4,8.1-22,11.9-29.1,7.7C275.4,84.6,285,82.2,294.2,76.6z"/>
		<path class="st1" d="M222.6,84.3c-8.6,3.9-23.9,0.4-28.9-6.8C202.8,82.2,212.3,84.9,222.6,84.3z"/>
		<path class="st1" d="M273.6,101.7c-1.1-4.3,3.2-9.6,9.7-13.4c3.5-2.1,11.2-3.1,13.5-0.9C286.3,87.8,278.3,92,273.6,101.7z"/>
		<path class="st1" d="M213.5,102c-4.5-10-12.5-14.2-23-14.7c1.9-1.7,7.7-1.6,11.2,0C209.5,91.1,214.4,96.9,213.5,102z"/>
		<path class="st1" d="M254.1,74.1c1.6-2,2.4-4.4,3.9-6.6C259.1,70.6,257.6,73.1,254.1,74.1C254.1,74.1,254.1,74.1,254.1,74.1z"/>
		<path class="st1" d="M254,74.5c-0.2,0-0.5,0-0.7-0.1c0.3-0.1,0.5-0.2,0.8-0.4c0,0,0,0,0,0C254.1,74.3,254,74.4,254,74.5z"/>
		<polygon class="st1" points="293.8,76.9 293.9,76.8 294,76.8 		"/>
	</g>
	<polygon class="st2" points="174,107.6 209.2,121.5 182.9,207.7 138.7,187.3 	"/>
	<polygon class="st2" points="275.6,119.2 312.1,105.3 358.6,192.2 310.5,207.3 	"/>
</g>
<g>
	<path class="st0" d="M354.4,108.5c-3.7-0.7-7.3-1.7-10.9-2.6c0.7-2.6,1.4-5.2,2.1-7.8c0.7-2.7,1.5-5.4,2.2-8.1
		c0.2-0.8-0.4-1.4-0.6-2.1C346,84,345.6,80,346,76c0.2-2.3,0.8-4.5,1.5-6.7c0.8-2.9,1.7-5.8,2.3-8.7c0.3-1.6,1.2-3.1,1.2-4.8
		c0.8-3.7,2.8-6.1,6.4-5.7c0.9,0.6,2.2,0.7,2.5,1.9c-1,1-0.4,2.3-0.8,3.4c0.7-1.1,1.8-1.9,1.5-3.4c1-1.8,2.6-2.1,4.4-1.9
		c1.7,0.1,3,0.9,3.5,2.6c-0.8,1.7-1,3.6-1.3,5.4c0.8-1.8,1.9-3.4,1.9-5.4c1.3-1.6,2.6-2.9,4.9-2.6c1.2,0.1,2.1,0.5,2.7,1.5
		c-0.1,0.6-1.4,0.7-0.8,1.4c0.7,1,0.2,1.8,0.1,2.7c-0.3,1.3-0.6,2.6-0.9,3.9c1.2-2.4,2-4.9,2.5-7.5c0.6-2.1,1.3-4.3,1.9-6.4
		c0.8-2.9,1.6-5.8,2.3-8.7c0.5-2.1,1.1-4.1,1.5-6.2c0.4-2.1,2.4-4.3,4.4-4.7c1-0.2,1.6,0.7,2.6,0.6c2.3,1.4,2.3,3.4,1.6,6.3
		c-0.9,3.7-2.2,7.4-2.9,11.2c-0.4,0.3-0.5,0.6-0.6,1.1c-0.4,2.2-1.2,4.4-1.8,6.6c-0.7,2.9-1.4,5.7-2.2,8.6c-0.1,0.3-0.4,0.5-0.4,0.8
		c-0.7,4.5-2.3,8.7-3.3,13.1c-1,4.2-2.1,8.3-3.2,12.5c-1.1,1.1-2.1,2.3-3.2,3.4c-0.3,0-0.8,0-0.9,0.1c-0.6,1.5-2.5,1.9-3,3.6
		c-0.8,0.1-1.1,0.6-1.3,1.4c-0.6,2.5-1.5,4.9-2,7.4c-0.6,2.9-1.6,5.8-2.4,8.6c-1.1-0.1-2.2-0.4-3.2-0.9c-0.1-0.1-0.3-0.4-0.4-0.4
		C358.9,110,356.7,108.9,354.4,108.5z"/>
	<path class="st1" d="M377.7,52c-0.6,2.6-1.3,5.1-2.5,7.5c0.3-1.3,0.6-2.6,0.9-3.9c0.2-0.9,0.7-1.7-0.1-2.7
		c-0.6-0.8,0.7-0.9,0.8-1.4C377,51.6,377.2,52,377.7,52z"/>
	<path class="st1" d="M369.1,52.6c0,2-1.1,3.7-1.9,5.4c0.3-1.9,0.5-3.7,1.3-5.4C368.7,52.6,368.9,52.6,369.1,52.6z"/>
	<path class="st1" d="M360.5,51.9c0.3,1.4-0.8,2.3-1.5,3.4c0.4-1.1-0.2-2.4,0.8-3.4C360.1,51.9,360.3,51.9,360.5,51.9z"/>
	<path class="st0" d="M377.7,86.6c1.1-4.2,2.1-8.3,3.2-12.5c1.1-4.4,2.6-8.6,3.3-13.1c0-0.3,0.3-0.6,0.4-0.8
		c0.1,0.7,0.7,0.7,1.2,0.7c1.3,0,2.6-0.1,3.9-0.1c0.4,0.1,0.8,0.1,1.1,0.2c1,0.5,1.6,0.8,0.9,2.3c-2.1,3.9-4,8-6,12
		c-1,2.2-2.1,4.3-3.1,6.5c-0.6,0.2-1,0.6-1.1,1.3c-0.4,0-0.6,0.3-0.7,0.7C379.5,84.4,378.8,85.7,377.7,86.6z"/>
</g>
<polygon class="st3" points="343.9,89.3 370.9,100.7 362,170.1 324.1,178.7 "/>
<g>
	<g>
		<path class="st0" d="M138.8,56.4c0.9,0.6,1,1.7,1.1,2.5c0.4,2.9,1.2,5.7,1.6,8.6c0.3,2.3,0.6,4.6,0.4,6.9c-0.4,4.5-0.7,9-3,13
			c-0.9,1.5-0.3,3.1,0.1,4.5c0.5,1.8,0.6,3.7,0.9,5.5c0.4,2.2,1.1,4.4,0.8,6.7c-0.8,0.2-1.5,0.4-2.3,0.5c-1,0.1-2-0.1-3,0.4
			c-1.7,0.3-3.5,0.2-5.2,0.9c-1.2,0.2-2.5-0.1-3.8,0.4c-0.7,0.1-1.5,0.2-2.2,0.4c-2.2-0.2-4.2,0.9-6.4,0.8c-0.2,0-0.4,0.3-0.6,0.5
			c-0.2,0-0.4-0.1-0.6-0.1c-0.6-3.6-1.1-7.2-1.9-10.8c-0.1-0.6-0.6-0.9-1-1.2c-4.1-3.3-7.1-7.5-9.4-12.1c-1.1-2.1-2-4.4-1.5-6.9
			c0.6-0.6,0.4-1.4,0.7-2.1c2.5-5.3,5.5-10.2,8.3-15.4c1.4-2.6,2.8-5.2,4.2-7.8c1.3-2.3,2.6-4.7,4-7c0.9-1.4,2.1-1.4,3.2-0.1
			c2.2,2.7,2.2,5.7,0.9,8.8c-1,2.2-2.3,4.4-3.5,6.5c-2,3.8-4.1,7.5-6.1,11.2c-0.3,0.6-0.6,1.3,0.5,1.3c1.3,0,2.6,0.2,3.9,0.5
			c0.6,0.1,0.9-0.3,1-0.7c0.2-0.7-0.3-0.6-0.7-0.7c-0.5-0.1-0.9-0.2-1.4-0.3c-0.9-0.2-1.4-0.6-0.9-1.7c0.2-0.3,0.2-0.7,0.4-1
			c0.6-0.9,1-2.1,1.8-2.7c0.6-0.4,1.4,0.7,2.1,1.1c2,1.1,5.5,0.5,6.9-1.3c0.7-0.8,1.3-0.8,2-0.1c2,2,4.2,2.4,6.8,1.2
			c2-0.9,3.3-5,2.1-6.9c-0.2-0.3-0.3-0.7-0.8-0.5c-0.4,0.1-0.3,0.5-0.3,0.8c0,0.3,0.1,0.5,0.1,0.8c0.4,2.3-0.9,4.2-3.2,4.5
			c-3.5,0.5-5.3-0.4-5.4-3.2c-0.3-6.3-0.5-12.5-0.7-18.8c1.2-1,2.2-2.1,4-2.1c3.5,0,4.2,1.6,4.8,4.4c0.2,0.9,0,1.8,0.1,2.7
			c0,3-0.1,6,0.3,9c0.1,0.4-0.1,1,0.4,1c0.6,0,0.5-0.6,0.5-1C138.8,56.9,138.8,56.7,138.8,56.4z M131.3,82.6c0.9-3.8-2-7.2-6.3-9.2
			c-0.5-0.2-0.9-0.5-1.2,0.2c-0.2,0.6-0.1,0.9,0.5,1.3C127.4,76.6,130,78.9,131.3,82.6z"/>
		<path class="st0" d="M102.7,74.8c0-2.9-0.1-5.8,0-8.7c0-3.6-1.1-6.9-1.7-10.3c-0.6-3.4-1.7-6.8-2.2-10.2c-0.3-2.2-0.8-4.4-1.5-6.5
			c-0.4-1.2-0.3-2.4-0.6-3.5c-0.7-2.5-1.1-5.2-1.6-7.7c-0.7-3.3,3.5-5.4,5.8-4.9c1.4,0.4,2.1,1.5,2.5,2.8c0.1,0.8,2.3,10.6,2.7,13.2
			c0.5,2.7,1,5.3,1.7,7.9c0.5,1.7,0.4,3.5,1.7,5.4c0.2-2.3,0.3-4.2-0.2-6.1c-0.4-1.6-0.4-3.2-0.3-4.9c0-1.6,1.8-3,3.3-3.3
			c2.7-0.4,4.6,0.5,5.5,3.2c-0.1,1.7,0.5,3.6-0.3,5.2c-2,4-4.2,7.9-6.4,11.8c-0.4,0.8-0.5,0.8-1.3-0.1c0.3,1.9-0.5,3.3-1.3,4.8
			C106.5,66.8,103.8,70.4,102.7,74.8z"/>
		<path class="st1" d="M102.7,74.8c1.2-4.4,3.9-8,5.9-11.9c0.8-1.5,1.7-2.9,1.3-4.8c0.8,0.9,0.8,0.9,1.3,0.1
			c2.2-3.9,4.4-7.8,6.4-11.8c0.8-1.6,0.2-3.4,0.3-5.2c0.2,0,0.4,0,0.6,0c-0.1,0.6-0.2,1.1-0.2,1.7c-0.1,0.5-0.1,1,0.4,1.3
			c0.5,0.3,0.8-0.2,1.1-0.5c1.9-1.6,4.1-1.2,5,1.1c1.5,3.8,1.1,7.5-0.7,11c-1.2,2.4-2.5,4.9-3.8,7.3c-0.4,0.7-0.1,1,0.4,1.3
			c1.7,1.1,3.5,1.2,5.3,0.2c1.6-0.8,1.9-2.3,1.8-3.9c-0.2-5.7-0.5-11.5-0.7-17.2c0-0.4-0.2-0.8,0.4-1c0.6,0,0.7,0.8,1.3,0.8
			c0.2,6.3,0.4,12.5,0.7,18.8c0.1,2.8,1.9,3.8,5.4,3.2c2.3-0.3,3.6-2.3,3.2-4.5c0-0.3-0.1-0.5-0.1-0.8c0-0.3,0-0.7,0.3-0.8
			c0.5-0.2,0.6,0.2,0.8,0.5c1.2,1.9-0.1,5.9-2.1,6.9c-2.6,1.2-4.8,0.8-6.8-1.2c-0.7-0.7-1.3-0.7-2,0.1c-1.4,1.8-4.9,2.4-6.9,1.3
			c-0.7-0.4-1.5-1.6-2.1-1.1c-0.8,0.6-1.2,1.8-1.8,2.7c-0.2,0.3-0.2,0.7-0.4,1c-0.6,1-0.1,1.5,0.9,1.7c0.5,0.1,0.9,0.2,1.4,0.3
			c0.4,0.1,0.9,0.1,0.7,0.7c-0.2,0.5-0.4,0.9-1,0.7c-1.3-0.3-2.6-0.5-3.9-0.5c-1.1,0-0.8-0.7-0.5-1.3c2-3.8,4.1-7.5,6.1-11.2
			c1.2-2.2,2.5-4.3,3.5-6.5c1.4-3,1.3-6.1-0.9-8.8c-1.1-1.3-2.3-1.3-3.2,0.1c-1.4,2.3-2.7,4.7-4,7c-1.4,2.6-2.8,5.2-4.2,7.8
			c-2.8,5.1-5.8,10.1-8.3,15.4c-0.3,0.6-0.1,1.5-0.7,2.1C102.7,76.1,102.7,75.4,102.7,74.8z"/>
		<path class="st0" d="M127.4,42.4c-0.6,0.1-0.5,0.5-0.4,1c0.3,5.7,0.5,11.5,0.7,17.2c0.1,1.6-0.2,3.1-1.8,3.9
			c-1.8,0.9-3.6,0.8-5.3-0.2c-0.5-0.3-0.8-0.6-0.4-1.3c1.3-2.4,2.6-4.8,3.8-7.3c1.8-3.6,2.1-7.3,0.7-11c-0.9-2.3-3.1-2.7-5-1.1
			c-0.3,0.3-0.6,0.7-1.1,0.5c-0.5-0.3-0.4-0.8-0.4-1.3c0.1-0.6,0.2-1.1,0.2-1.7c1.1-1.8,2.6-2.7,4.7-2.4c1.7,0.2,3.1,1.1,3.7,2.9
			C127,42,127.2,42.2,127.4,42.4z"/>
		<path class="st1" d="M138.8,56.4c0,0.3,0,0.5,0,0.8c0,0.4,0.1,1-0.5,1c-0.6,0-0.4-0.6-0.4-1c-0.4-3-0.3-6-0.3-9
			c0.3,0.1,0.5,0.3,0.5,0.7C138.2,51.4,138,54,138.8,56.4z"/>
		<path class="st1" d="M131.3,82.6c-1.3-3.7-3.9-6-7.1-7.7c-0.6-0.3-0.7-0.7-0.5-1.3c0.3-0.8,0.7-0.5,1.2-0.2
			C129.3,75.4,132.2,78.8,131.3,82.6z"/>
	</g>
	<polygon class="st3" points="111.4,99.6 144.1,97.8 172.5,189.1 129.8,188.6 	"/>
</g>
<rect x="200.3" y="179.9" class="st3" width="118.7" height="63.7"/>
<path class="st3" d="M169.9,187.9l6.4-16.6c0,0,0-0.1,0-0.1c1.4-3.4,7.2-3.4,8.9-0.2l3.4,3.5c0,0,2-17,10.3-17.4
	c8.2-0.4,9.5,5.4,9.5,5.4s1.3-11.7,10.4-11.9c9.1-0.2,11.4,8.7,11.4,8.7c1.5-9.9,15.4-9.1,19.6-1.2c4.2,8.1,4.8,9.7,4.8,9.7l2.2-9.9
	c4.7-18.4,20.4-6.3,27.2-1.9c2.6,1.7,6.2,2.9,10.9,2.9c7.4,0,12.4,8.9,12.6,13.5c0.2,4.6,4,11.1,14.4,3.8
	c10.4-7.3,19.4,11.6,19.4,11.6L169.9,187.9z"/>
<g>
	<path class="st2" d="M360.9,224.4c0.2-5.8-0.1-9.1,7.7-9c7.8,0.1,7-5.3,7.2-11c0.2-5.8,4.2-10.5,16.1-13.5
		c11.9-2.9,8.7-9.7,10-15.6c1.2-5.9,1.9-7.2,10.1-10.9c8.2-3.6,6.1-10.6,3.8-17.8c-2.3-7.2,12.9-26.9,12.9-26.9s-11.4-1.8-21.2,7.7
		c-9.8,9.5-10.6-2.6-22.1,3c-11.6,5.7-6.7,15.6-16.8,13.9c-10.2-1.8-18.4-0.6-24.3,12.5c-5.9,13.1-18,5.2-24.5,13.3
		c-6.5,8.2,4.3,15.4-4.6,19.2c-8.9,3.8-14.2,3.3-12,12.9c2.1,9.6-11,9.5-10.5,21.8c0,0.5,0.1,0.9,0.1,1.4
		c1.5,14,16.5,24.5,30.5,21.1c3.2-0.8,5.7-2.1,6.9-4.3c4.5-8.7,1.2,2.4,10.3,5.8C349.4,251.6,360.6,230.1,360.9,224.4"/>
	<path class="st4" d="M388.4,178.9c-4.4-2.2-8.9-3.8-13.6-4.9c4-3.8,8-7.6,11.8-11.7c1.3-1.4,2.6-2.8,3.9-4.2c0.1,0,0.2,0,0.3,0
		c4-1.4,8.3-2.2,12.7-2.2c0.9,0,0.8-1.4-0.1-1.4c-3.8,0-7.5,0.6-11,1.6c8.1-9.1,15.8-18.6,23.5-28c0.5-0.7-0.5-1.7-1.1-1
		c-7.3,9.1-14.7,18.1-22.4,26.8c-0.3-3.8-1.1-7.5-2.5-11.2c-0.3-0.8-1.7-0.5-1.4,0.3c1.5,4,2.4,8.1,2.5,12.2c0,0.1,0,0.1,0,0.2
		c-0.6,0.7-1.3,1.4-1.9,2.1c-5,5.5-10.3,10.8-15.8,16c-1.4-4.8-3.2-9.6-5.4-14.2c-0.4-0.8-1.8-0.5-1.4,0.3c2.3,4.9,4.2,9.9,5.6,15
		c-3.8,3.6-7.8,7-11.8,10.5c-4.4,3.7-8.8,7.3-13.3,11c-0.8-4.8-2-9.6-3.6-14.4c-0.3-0.9-1.6-0.6-1.4,0.3c1.6,4.9,2.8,9.8,3.6,14.7
		c0,0.1,0.1,0.2,0.1,0.3c-5.5,4.5-10.9,8.9-16.3,13.4c-1,0.9-2,1.7-3,2.6c-1-3.8-2.4-7.5-4.3-11.1c-0.4-0.8-1.6-0.2-1.2,0.6
		c1.9,3.6,3.4,7.4,4.3,11.3c0,0.1,0.1,0.1,0.1,0.2c-8.4,7.3-13.4,11.7-20.8,19.9c-9,9.9,2.4-0.6,6.8-5c4.7-4.7,9.7-9.2,14.7-13.6
		c0,0,0,0,0.1-0.1c4.8,1.7,9.5,3.7,14.1,6.2c0.8,0.5,1.5-0.7,0.6-1.2c-4.4-2.4-8.9-4.4-13.6-6c6.6-5.7,13.3-11.2,20-16.7
		c5.1,1.8,10.3,3.7,15.4,5.5c0.9,0.3,1.2-1,0.3-1.3c-4.8-1.7-9.7-3.4-14.5-5.2c8.5-7,17-14,25.1-21.5c4.9,1,9.7,2.7,14.2,5
		C388.6,180.4,389.3,179.3,388.4,178.9"/>
	<path class="st4" d="M392.6,138.1c0.2,0.6,0.4,1.2,0.6,1.8c0.2,0.5,0.6,1,1.2,0.9c0.5,0,1.1-0.5,0.9-1.1c-0.2-0.6-0.4-1.2-0.6-1.8
		c-0.2-0.5-0.6-1-1.2-0.9C393,137,392.4,137.5,392.6,138.1"/>
	<path class="st4" d="M398.3,137.4c-0.3,0.6-0.6,1.1-0.8,1.7c-0.2,0.5,0.1,1.1,0.6,1.4c0.6,0.2,1.2,0,1.4-0.5
		c0.3-0.6,0.6-1.1,0.8-1.7c0.2-0.5-0.1-1.1-0.6-1.4C399.2,136.7,398.6,137,398.3,137.4"/>
	<path class="st4" d="M386.6,136.9l0.6,2.1c0.2,0.5,0.6,1,1.2,0.9c0.5,0,1.1-0.5,0.9-1.1l-0.6-2.1c-0.2-0.5-0.6-1-1.2-0.9
		C387,135.9,386.4,136.4,386.6,136.9"/>
	<path class="st4" d="M405.6,147.9c-0.4,0.4-0.8,0.7-1.1,1.1c-0.4,0.4-0.2,1.1,0.3,1.4c0.5,0.4,1.1,0.3,1.5-0.1
		c0.4-0.4,0.8-0.7,1.1-1.1c0.4-0.4,0.2-1.1-0.3-1.4C406.6,147.4,406,147.5,405.6,147.9"/>
	<path class="st4" d="M409.5,154.1c-0.1,0.1-0.3,0.1-0.4,0.1c-0.1,0-0.1,0-0.2,0.1c0.1,0,0.1,0,0,0c-0.1,0-0.3,0-0.4,0
		c0,0-0.4,0-0.3,0c-0.6,0-1.1,0.2-1.2,0.8c0,0.5,0.4,1.2,1,1.2c0.8,0.1,1.6,0,2.4-0.3c0.5-0.2,0.8-0.8,0.5-1.3
		C410.6,154.2,410,153.9,409.5,154.1"/>
	<path class="st4" d="M406.9,159.3c-0.7-0.3-1.3-0.7-2-1c-0.5-0.3-1.2,0-1.4,0.5c-0.2,0.5,0.1,1.1,0.6,1.4c0.7,0.3,1.3,0.7,2,1
		c0.5,0.3,1.2,0,1.4-0.5C407.8,160.1,407.5,159.5,406.9,159.3"/>
	<path class="st4" d="M358.4,156.8c0.7,0.3,1.4,0.6,2.1,1c0.5,0.3,1.2,0,1.4-0.5c0.2-0.5-0.1-1.1-0.6-1.4l-2.1-1
		c-0.5-0.3-1.2,0-1.4,0.5C357.6,156,357.9,156.6,358.4,156.8"/>
	<path class="st4" d="M363.3,152.6c0.3,0.7,0.6,1.4,0.9,2.1c0.5,1.2,2.5,0.6,2-0.7c-0.3-0.7-0.6-1.4-0.9-2.1
		C364.8,150.7,362.8,151.3,363.3,152.6"/>
	<path class="st4" d="M370.8,152.7c-0.5,0.5-0.7,1.2-0.8,1.8c-0.1,0.5,0.4,1.1,1,1.2c0.6,0.1,1.1-0.2,1.2-0.8c0,0,0.1-0.4,0-0.2
		c0-0.1,0.1-0.2,0.1-0.3c0-0.1,0-0.1,0.1-0.2c-0.1,0.1-0.1,0.1,0,0c0.1-0.1,0.1-0.2,0.2-0.3c0.3-0.4,0.2-1.1-0.3-1.4
		C371.8,152.3,371.2,152.3,370.8,152.7"/>
	<path class="st4" d="M374.9,157.1c-0.3,0.3-0.6,0.6-0.9,1c-0.4,0.4-0.2,1.1,0.3,1.4c0.5,0.4,1.1,0.3,1.5-0.1c0.3-0.3,0.6-0.6,0.9-1
		c0.4-0.4,0.2-1.1-0.3-1.4C375.8,156.6,375.3,156.7,374.9,157.1"/>
	<path class="st4" d="M388.1,173.9c-0.2,0.4-0.4,0.8-0.6,1.2c-0.2,0.5,0.1,1.2,0.6,1.4c0.6,0.2,1.1,0,1.4-0.5
		c0.2-0.4,0.4-0.8,0.6-1.2c0.2-0.5-0.1-1.2-0.6-1.4C388.9,173.2,388.4,173.4,388.1,173.9"/>
	<path class="st4" d="M394.1,178.7c-0.6,0-1.3,0-1.9,0c-0.6,0-1,0.6-0.9,1.1c0.1,0.6,0.6,1,1.2,0.9c0.6,0,1.3,0,1.9,0
		c0.6,0,1-0.6,0.9-1.1C395.3,179.1,394.7,178.7,394.1,178.7"/>
	<path class="st4" d="M391.9,184.8c-0.4-0.6-0.9-1.2-1.3-1.8c-0.3-0.5-1.1-0.6-1.5-0.3c-0.5,0.3-0.5,0.9-0.1,1.4
		c0.4,0.6,0.9,1.2,1.3,1.8c0.3,0.5,1.1,0.6,1.5,0.3C392.2,185.9,392.2,185.2,391.9,184.8"/>
	<path class="st4" d="M384,183.9c0.2,0.7,0.4,1.4,0.6,2.1c0.2,0.5,0.6,1,1.2,0.9c0.5,0,1.1-0.5,0.9-1.1l-0.6-2.1
		c-0.2-0.5-0.6-1-1.2-0.9C384.4,182.9,383.8,183.4,384,183.9"/>
	<path class="st4" d="M337.1,182.2c-0.7-0.4-1.4-0.7-2.1-1.1c-0.5-0.3-1.2,0-1.4,0.5c-0.2,0.5,0.1,1.1,0.6,1.4
		c0.7,0.4,1.4,0.7,2.1,1.1c0.5,0.3,1.2,0,1.4-0.5C338,183,337.6,182.5,337.1,182.2"/>
	<path class="st4" d="M337.5,175.4c-1-0.8-2-1.6-2.9-2.4c-1.1-0.9-2.3,0.6-1.2,1.6c1,0.8,2,1.6,2.9,2.4
		C337.3,177.9,338.6,176.3,337.5,175.4"/>
	<path class="st4" d="M340.5,172.2c0.2,1,0.5,1.9,0.7,2.9c0.3,1.3,2.4,1.2,2.1-0.1c-0.2-1-0.5-1.9-0.7-2.9
		C342.3,170.8,340.2,170.9,340.5,172.2"/>
	<path class="st4" d="M348.5,174.2l-0.6,1.4c-0.2,0.5,0.1,1.1,0.6,1.4c0.6,0.2,1.2,0,1.4-0.5c0.2-0.5,0.4-0.9,0.6-1.4
		c0.2-0.5-0.1-1.1-0.6-1.4C349.3,173.5,348.7,173.7,348.5,174.2"/>
	<path class="st4" d="M351.5,181.1c-0.6,0.4-1.3,0.9-1.9,1.3c-1.1,0.7,0.3,2.4,1.4,1.7c0.6-0.4,1.3-0.9,1.9-1.3
		C353.9,182,352.5,180.3,351.5,181.1"/>
	<path class="st4" d="M360.8,194.9c-0.4,0.5-0.7,1-1.1,1.5c-0.3,0.4-0.2,1.1,0.3,1.4c0.5,0.3,1.2,0.3,1.5-0.1c0.4-0.5,0.7-1,1.1-1.5
		c0.3-0.4,0.2-1.1-0.3-1.4C361.9,194.4,361.1,194.5,360.8,194.9"/>
	<path class="st4" d="M370.2,196.4c-0.9,0.6-1.8,1.2-2.6,1.8c-1.1,0.7,0.3,2.4,1.4,1.7c0.9-0.6,1.7-1.2,2.6-1.8
		C372.7,197.3,371.3,195.6,370.2,196.4"/>
	<path class="st4" d="M369.9,204.9c-1.1-0.5-2.1-1.1-3.2-1.6c-1.3-0.6-2,1.2-0.7,1.8c1.1,0.5,2.1,1.1,3.2,1.6
		C370.5,207.4,371.2,205.5,369.9,204.9"/>
	<path class="st4" d="M365,210.5c-0.7-0.8-1.3-1.6-2-2.4c-0.9-1.1-2.6,0.1-1.7,1.1c0.7,0.8,1.3,1.6,2,2.4
		C364.2,212.8,365.9,211.6,365,210.5"/>
	<path class="st4" d="M358.4,211.2c-0.6-1.4-1.3-2.8-2.3-4c-0.8-1.1-2.5,0-1.7,1.1c0.8,1.1,1.5,2.3,2,3.5
		C357,213.2,358.9,212.5,358.4,211.2"/>
	<path class="st4" d="M315.6,204.4c-1.1-0.2-2.2-0.4-3.3-0.6c-1.4-0.3-1.6,1.7-0.2,2c1.1,0.2,2.2,0.4,3.3,0.6
		C316.8,206.7,317,204.7,315.6,204.4"/>
	<path class="st4" d="M312.8,199.6c0.7,0.6,1.5,1.2,2.2,1.8c0.5,0.4,1.2,0.3,1.5-0.1c0.4-0.4,0.2-1.1-0.3-1.4
		c-0.7-0.6-1.5-1.2-2.2-1.8c-0.5-0.4-1.2-0.3-1.5,0.1C312.2,198.6,312.3,199.2,312.8,199.6"/>
	<path class="st4" d="M316.6,193.4c0.6,0.7,1.1,1.4,1.7,2c0.9,1.1,0.9-2.1,0-3.2c-0.6-0.7,0.6,0.7,0,0
		C317.4,191.2,315.7,192.3,316.6,193.4"/>
	<path class="st4" d="M325.8,195.1c-0.1,0.7-0.2,1.4-0.3,2.1c-0.1,0.5,0.4,1.1,1,1.2c0.6,0.1,1.1-0.3,1.2-0.8
		c0.1-0.7,0.2-1.4,0.3-2.1c0.1-0.5-0.4-1.1-1-1.2C326.3,194.2,325.9,194.6,325.8,195.1"/>
	<path class="st4" d="M328.4,201.3c-0.4,0.4-0.8,0.9-1.3,1.3c-0.4,0.4-0.2,1.1,0.3,1.4c0.5,0.4,1.1,0.3,1.5-0.1
		c0.4-0.4,0.8-0.9,1.3-1.3c0.4-0.4,0.2-1.1-0.3-1.4C329.4,200.8,328.7,200.9,328.4,201.3"/>
	<path class="st4" d="M338.9,212.4c-0.8,0.3-1.6,0.5-2.3,0.8c-1.3,0.4-0.4,2.4,0.9,1.9c0.8-0.3,1.6-0.5,2.3-0.8
		C341,213.8,340.2,211.9,338.9,212.4"/>
	<path class="st4" d="M344.8,215.6c-0.8,0.4-1.6,0.6-2.4,0.7c-1.4,0.2-1,2.2,0.3,2c1-0.1,2-0.4,3-0.8c0.5-0.2,0.8-0.7,0.5-1.3
		C346.1,215.8,345.4,215.4,344.8,215.6"/>
	<path class="st4" d="M348.9,222.3c-1.2-0.3-2.3-0.7-3.3-1.3c-0.5-0.3-1.2,0-1.4,0.5c-0.2,0.5,0.1,1.1,0.6,1.4
		c1.2,0.7,2.5,1.2,3.9,1.5C350.1,224.6,350.3,222.6,348.9,222.3"/>
	<path class="st4" d="M345.7,227.4c-0.9-0.9-1.8-1.7-2.7-2.6c-0.4-0.4-1.2-0.3-1.5,0.1c-0.4,0.5-0.2,1,0.3,1.4
		c0.9,0.9,1.8,1.7,2.7,2.6c0.4,0.4,1.2,0.3,1.5-0.1C346.4,228.3,346.2,227.8,345.7,227.4"/>
	<path class="st4" d="M338.4,227.2c-1-2-2-4-3-5.9c-0.6-1.2-2.6-0.6-2,0.7c1,2,2,4,3,5.9C337,229.1,339,228.4,338.4,227.2"/>
	<path class="st4" d="M330.9,223c-0.6-0.7-1.2-1.5-1.8-2.2c-0.9-1.1-2.6,0.1-1.7,1.1c0.6,0.7,1.2,1.5,1.8,2.2
		C330.1,225.2,331.7,224,330.9,223"/>
</g>
<path class="st3" d="M407.6,235.9c0,0-2.8-20.8-9.7-21.2c-6.9-0.3-14.3,7.8-14.3,7.8s-0.6-16.9-10.3-17.6
	c-9.7-0.7-11.3,3.6-11.3,3.6s-2.7-17.1-13.5-17.4c-10.8-0.3-13.6,14.8-13.6,14.8c-1.8-16.8-19-12.6-23.3,1.6
	c-2.4,7.7-2.8,14.4-2.8,14.4s-7.5-16.2-12.3-16.9c-8.7-1.3-11,21.5-11,21.5s-3.1-26.9-12.6-26.2c-9.5,0.7-9.7,22-9.7,22
	s-0.8-26-9.5-25c-8.7,1-7.2,23.5-7.4,31.2c-0.3,7.7-6.9,18.8-19.2,6.4c-12.3-12.4-17.2,15.5-17.2,15.5l190.9,0
	C409.4,250.4,407.6,235.9,407.6,235.9"/>
<g>
	<path class="st4" d="M255.5,131.4c0,0-40.7,40.3-49.4,74.8c-3,11.7-2.6,20.9-0.7,27.9c3.8,14.6,22.5,18.8,34.3,7.7
		c5.6-5.3,11.3-13.1,15.5-24.6C267.5,183.6,255.5,131.4,255.5,131.4"/>
	<path class="st2" d="M228.6,221.8c0.7-2.4,1.5-4.7,2.2-7.1l27.1-6.9c0.1-0.3,0.1-0.6,0.2-0.8c-9,2.3-18,4.6-27,6.9
		c0.7-2.2,1.4-4.5,2.1-6.7c8.6-2.3,17.3-4.3,26-5.9c0-0.3,0.1-0.5,0.1-0.8c-8.7,1.6-17.3,3.5-25.9,5.8c0.7-2.1,1.3-4.3,2-6.4
		l24.7-5.6c0-0.3,0.1-0.5,0.1-0.8l-24.5,5.6c0.7-2.2,1.4-4.5,2.1-6.7c7.6-2.4,15.2-4.5,22.9-6.2c0-0.3,0-0.5,0-0.8
		c-7.6,1.8-15.2,3.8-22.7,6.2c0.7-2.3,1.4-4.6,2.1-6.9c6.8-2.1,13.7-3.8,20.6-5.3c0-0.3,0-0.5,0-0.8c-6.8,1.5-13.6,3.2-20.4,5.2
		c0.6-1.9,1.2-3.8,1.7-5.6c6.1-2.1,12.3-3.9,18.5-5.5c0-0.3,0-0.5,0-0.8c-6.1,1.5-12.2,3.3-18.2,5.3c0.7-2.3,1.4-4.6,2.1-6.9
		c5.1-2.3,10.3-4,15.7-5.2c0-0.3,0-0.5-0.1-0.8c-5.2,1.2-10.4,2.8-15.4,5c0.2-0.8,0.5-1.6,0.7-2.3c0.1-0.1,0.2-0.3,0.1-0.4
		c0.2-0.6,0.3-1.1,0.5-1.7c4.3-2.2,8.9-3.7,13.7-4.4c0-0.3,0-0.5-0.1-0.8c-4.6,0.7-9.1,2.1-13.3,4.1c0.5-1.7,1.1-3.4,1.6-5.2
		c3.7-1.6,7.4-2.9,11.2-3.9c0-0.3-0.1-0.5-0.1-0.8c-3.7,1-7.3,2.2-10.8,3.7c0.5-1.6,1-3.2,1.5-4.8c2.5-0.7,5.1-1.3,7.6-2
		c0.4-0.1,0.8-0.2,1.3-0.3c0-0.3-0.1-0.5-0.1-0.8c-0.6,0.2-1.3,0.3-1.9,0.5c-2.2,0.6-4.5,1.2-6.7,1.8c0.4-1.4,0.8-2.7,1.2-4.1
		c2.2-1,4.4-1.9,6.7-2.6c0-0.3-0.1-0.5-0.1-0.8c-2.1,0.7-4.2,1.6-6.2,2.4c0.5-1.6,1-3.2,1.5-4.7c1.4-0.6,2.8-1.1,4.2-1.5
		c0-0.3-0.1-0.5-0.1-0.8c-1.3,0.4-2.5,0.8-3.8,1.3l0.9-2.9c0.8-0.3,1.6-0.7,2.4-1c0-0.3-0.1-0.5-0.1-0.8c-0.7,0.3-1.3,0.5-2,0.8
		c0.4-1.4,0.9-2.8,1.3-4.3c-0.2-1.2-0.4-1.9-0.4-1.9s-0.5,0.5-1.4,1.4c-0.5,1.6-1,3.2-1.5,4.8c-0.3-0.7-0.6-1.5-1-2.1
		c-0.2,0.2-0.4,0.4-0.6,0.6c0.5,0.9,0.9,1.8,1.2,2.8c-0.3,1.1-0.7,2.2-1,3.3c-0.6-1.4-1.3-2.8-2.1-4.1c-0.2,0.2-0.4,0.4-0.6,0.6
		c0.9,1.4,1.6,2.8,2.1,4.4c0,0.1,0.1,0.2,0.2,0.2c-0.6,2-1.3,4.1-1.9,6.1c-1.2-2.4-2.4-4.7-3.7-7c-0.2,0.2-0.4,0.4-0.6,0.7
		c1.4,2.4,2.7,5,4,7.5c-0.6,1.8-1.1,3.7-1.7,5.5c-1.6-3.3-3.4-6.5-5.2-9.6c-0.2,0.2-0.4,0.4-0.6,0.7c1.9,3.3,3.7,6.7,5.4,10.1
		c-0.7,2.2-1.4,4.5-2.1,6.7c-2-4.4-4.2-8.7-6.6-12.9c-0.2,0.2-0.4,0.5-0.6,0.7c2.5,4.4,4.7,8.8,6.8,13.4c-0.5,1.5-0.9,3-1.4,4.4
		c-3.1-4.4-6.1-8.7-9.2-13.1c-0.2,0.2-0.4,0.5-0.5,0.7c3.1,4.5,6.3,8.9,9.4,13.4c-0.9,2.9-1.8,5.7-2.7,8.6
		c-2.9-6.2-6.2-12.3-9.8-18.1c-0.2,0.2-0.4,0.5-0.5,0.7c3.7,6,7,12.2,9.9,18.5c-0.8,2.6-1.6,5.3-2.4,7.9c-4.3-6.3-8.5-12.7-12.8-19
		c-0.2,0.2-0.3,0.5-0.5,0.7l13,19.3c-0.3,1-0.6,2-0.9,3l-1.1,3.7c-4.8-6.8-9.6-13.7-14.5-20.5c-0.2,0.3-0.3,0.5-0.5,0.8
		c4.9,6.9,9.7,13.8,14.6,20.7c-0.6,1.9-1.2,3.8-1.7,5.6c-5.7-6.5-11.3-12.9-17-19.4c-0.1,0.3-0.3,0.5-0.4,0.8
		c5.7,6.5,11.3,13,17,19.5c0,0,0.1,0.1,0.1,0.1c-0.8,2.7-1.7,5.4-2.5,8.1c-5.9-7.2-11.8-14.4-17.7-21.5c-0.1,0.3-0.3,0.5-0.4,0.8
		c5.9,7.2,11.9,14.4,17.8,21.7c-0.6,2-1.2,4-1.9,6c-6.6-6.3-13.1-12.5-19.7-18.8c-0.1,0.3-0.2,0.6-0.3,0.9
		c6.6,6.3,13.1,12.6,19.7,18.8c-0.7,2.1-1.3,4.3-2,6.4c-7-5.3-13.7-11-20-17.1c-0.1,0.3-0.1,0.6-0.2,1c6.3,6,12.9,11.7,19.9,16.9
		c-1.1,3.5-2.1,7-3.2,10.4c-6.3-4.7-12.3-9.8-18.1-15.1c0,0.4,0,0.8,0,1.1c5.6,5.2,11.6,10.1,17.7,14.7c0,0,0.1,0,0.1,0.1
		c-0.5,1.5-0.9,2.9-1.4,4.4c-5.2-3.5-10.4-7.1-15.6-10.6c0.1,0.4,0.2,0.8,0.2,1.2c5,3.4,10.1,6.9,15.1,10.3
		c-0.4,1.4-0.9,2.9-1.3,4.3c0.6,0.2,1.2,0.3,1.8,0.4c0.1-0.4,0.2-0.8,0.4-1.2c5.7-1.2,11.5-2.4,17.2-3.5c0.4-0.3,0.8-0.7,1.2-1
		c-6,1.2-12.1,2.5-18.1,3.7c0.4-1.3,0.8-2.6,1.2-3.9c7.1-1.5,14.3-3.1,21.4-4.6c0.3-0.3,0.5-0.6,0.8-1c-7.3,1.6-14.6,3.1-21.9,4.7
		c0.6-2,1.2-4,1.9-6c8.1-1.6,16.2-3.2,24.4-4.8c0.2-0.3,0.4-0.6,0.5-0.9c-8.2,1.6-16.4,3.2-24.6,4.9c0.5-1.8,1.1-3.5,1.6-5.3
		c0,0,0-0.1,0-0.1c8.6-2.1,17.2-3.8,25.9-5.1c0.1-0.3,0.3-0.6,0.4-0.8c-8.7,1.2-17.4,2.9-26.1,5.1c0.1-0.2,0.1-0.5,0.2-0.7
		c0,0,0-0.1,0-0.1c0.5-1.5,0.9-2.9,1.4-4.4c9.1-2.9,18.3-5.4,27.5-7.5c0.1-0.3,0.2-0.6,0.3-0.9C246.8,216.4,237.7,218.9,228.6,221.8
		"/>
</g>
<g>
	<path class="st2" d="M133.1,113.7c0,0-13.5,69.8,6.9,111.5c6.9,14.2,15.7,23.4,24.2,29.4c17.8,12.5,44.5,4,48.9-15.6
		c2.1-9.4,2-21.4-3.1-36.1C194.9,159.6,133.1,113.7,133.1,113.7"/>
	<path class="st4" d="M181.7,225.9c-1.2-2.9-2.5-5.9-3.7-8.8c9-8.6,17.9-17.2,26.9-25.8c-0.2-0.3-0.4-0.7-0.5-1
		c-8.9,8.6-17.9,17.1-26.8,25.7c-1.2-2.8-2.3-5.6-3.5-8.3c8.4-8.3,17.3-16.4,26.5-24c-0.2-0.3-0.4-0.6-0.6-0.9
		c-9.2,7.6-18,15.6-26.4,23.8l-3.4-8c8.4-7.6,16.8-15.2,25.1-22.8c-0.2-0.3-0.4-0.6-0.6-0.9c-8.3,7.5-16.6,15.1-24.9,22.6
		c-1.2-2.8-2.4-5.6-3.5-8.4c7.1-7.7,14.6-15.1,22.4-22.2c-0.2-0.3-0.5-0.6-0.7-0.8c-7.7,7.1-15.1,14.4-22.2,22
		c-1.2-2.9-2.4-5.8-3.6-8.7c6.5-6.8,13.3-13.4,20.5-19.7c-0.2-0.3-0.5-0.5-0.7-0.8c-7.1,6.2-13.8,12.7-20.2,19.4c-1-2.3-2-4.7-3-7
		c5.6-6.4,11.5-12.5,17.7-18.4c-0.2-0.3-0.5-0.5-0.7-0.8c-6.1,5.8-11.9,11.8-17.4,18c-1.2-2.9-2.4-5.7-3.6-8.6
		c4.2-5.8,9.1-11.2,14.6-16.2c-0.3-0.3-0.5-0.5-0.8-0.8c-5.4,4.8-10.1,10.1-14.3,15.7l-1.2-2.9c0-0.2,0-0.4-0.2-0.5
		c-0.3-0.7-0.6-1.4-0.9-2.1c3.3-5.3,7.6-10,12.8-13.9c-0.3-0.3-0.5-0.5-0.8-0.8c-5,3.8-9.2,8.4-12.5,13.4c-0.9-2.1-1.8-4.3-2.7-6.4
		c3.1-4.1,6.5-8,10.2-11.7c-0.3-0.2-0.5-0.5-0.8-0.7c-3.6,3.6-6.9,7.3-9.9,11.3l-2.5-6c2.5-2.4,5-4.9,7.5-7.3
		c0.4-0.4,0.8-0.8,1.3-1.2c-0.3-0.2-0.5-0.5-0.8-0.7c-0.6,0.6-1.2,1.2-1.9,1.8l-6.6,6.4l-2.1-5.1c1.8-2.5,3.7-5,5.8-7.3
		c-0.3-0.2-0.6-0.5-0.8-0.7c-1.9,2.2-3.7,4.5-5.4,6.8c-0.8-2-1.7-3.9-2.5-5.9c1.2-1.5,2.4-3,3.8-4.4c-0.3-0.2-0.6-0.5-0.9-0.7
		c-1.2,1.3-2.3,2.6-3.4,4c-0.5-1.2-1-2.4-1.5-3.6c0.7-0.9,1.4-1.8,2.1-2.7c-0.3-0.2-0.6-0.5-0.9-0.7l-1.7,2.2
		c-0.7-1.8-1.5-3.6-2.2-5.3c-1.4-1.1-2.2-1.6-2.2-1.6s-0.2,0.8-0.4,2.4l2.5,5.9c-1-0.6-2.1-1.1-3.2-1.5c-0.1,0.3-0.1,0.7-0.2,1.1
		c1.4,0.6,2.8,1.3,4,2.1c0.6,1.4,1.2,2.8,1.7,4.1c-2-1.1-4.1-2.1-6.2-2.8c0,0.3-0.1,0.7-0.1,1c2.3,0.8,4.5,1.9,6.6,3.1
		c0.1,0.1,0.3,0.1,0.4,0.1c1.1,2.5,2.1,5.1,3.2,7.6c-3.6-1.7-7.2-3.2-10.9-4.7c0,0.4-0.1,0.7-0.1,1.1c3.9,1.6,7.8,3.3,11.6,5.1
		c1,2.3,1.9,4.6,2.9,6.9c-4.9-2.2-10-4.4-15-6.4c0,0.4-0.1,0.7-0.1,1.1c5.3,2.1,10.5,4.4,15.7,6.7c1.2,2.8,2.4,5.6,3.5,8.4
		c-6.4-3.2-13-6.1-19.7-8.8c0,0.4,0,0.7-0.1,1.1c6.9,2.8,13.7,5.9,20.4,9.2c0.8,1.8,1.6,3.7,2.3,5.5c-7.7-2.4-15.4-4.8-23.1-7.3
		c0,0.4,0,0.7,0,1.1c7.9,2.5,15.7,5,23.6,7.4c1.5,3.6,3,7.2,4.5,10.7c-9.2-4.5-18.6-8.5-28.2-12c0,0.4,0,0.7,0,1.1
		c9.9,3.7,19.5,7.8,28.9,12.4c1.4,3.3,2.8,6.6,4.1,9.8c-10.9-3.6-21.8-7.3-32.7-10.9c0,0.4,0,0.7,0.1,1.1
		c11.1,3.7,22.1,7.4,33.2,11.1c0.5,1.3,1.1,2.5,1.6,3.8c0.6,1.5,1.3,3,1.9,4.6c-12-3.8-24.1-7.5-36.1-11.3c0,0.4,0.1,0.7,0.1,1.1
		c12.2,3.8,24.4,7.6,36.6,11.4c1,2.3,2,4.7,3,7c-12.7-2.8-25.5-5.6-38.2-8.5c0.1,0.4,0.1,0.7,0.2,1.1l38.3,8.5c0.1,0,0.1,0,0.2,0
		c1.4,3.4,2.8,6.7,4.2,10.1c-13.7-3.4-27.4-6.8-41.1-10.2c0.1,0.4,0.2,0.7,0.3,1.1c13.8,3.4,27.6,6.8,41.3,10.2
		c1.1,2.5,2.1,5,3.2,7.5c-13.7-2-27.3-4-41-6c0.1,0.4,0.3,0.7,0.4,1.1c13.7,2,27.4,4,41.1,6c1.1,2.7,2.2,5.4,3.4,8
		c-13.4-0.7-26.6-2-39.8-4c0.2,0.4,0.4,0.8,0.6,1.1c13.1,1.9,26.4,3.2,39.7,3.9c1.8,4.3,3.6,8.7,5.5,13c-12-0.6-23.9-1.6-35.7-3.2
		c0.3,0.4,0.7,0.8,1,1.2c11.6,1.5,23.2,2.5,34.9,3c0.1,0,0.1,0,0.2,0c0.8,1.8,1.5,3.7,2.3,5.5c-9.6-0.1-19.1-0.2-28.7-0.3
		c0.4,0.4,0.9,0.7,1.3,1c9.3,0.1,18.5,0.2,27.8,0.3c0.8,1.8,1.5,3.6,2.3,5.4c0.9-0.2,1.7-0.5,2.6-0.8c-0.2-0.5-0.4-1-0.6-1.5
		c5.9-5.2,11.9-10.3,17.8-15.5c0.2-0.6,0.4-1.3,0.5-1.9l-18.8,16.3c-0.7-1.6-1.4-3.2-2-4.8c7.4-6.5,14.7-13,22.1-19.5
		c0-0.5,0.1-1,0.1-1.5c-7.5,6.7-15.1,13.3-22.6,20c-1.1-2.5-2.1-5-3.2-7.5c8.5-7.2,17-14.5,25.5-21.7c0-0.4-0.1-0.9-0.1-1.3
		c-8.6,7.3-17.2,14.7-25.8,22c-0.9-2.2-1.8-4.4-2.8-6.6c0-0.1-0.1-0.1-0.1-0.2c8.6-8.1,17.7-15.8,27.2-23.1
		c-0.1-0.4-0.2-0.8-0.3-1.1c-9.6,7.3-18.7,15-27.3,23.2c-0.1-0.3-0.2-0.6-0.4-0.8c0-0.1,0-0.1-0.1-0.2c-0.8-1.8-1.5-3.7-2.3-5.5
		c8.5-9.3,17.4-18.2,26.9-26.7c-0.1-0.4-0.3-0.7-0.4-1.1C199.1,207.8,190.2,216.7,181.7,225.9"/>
</g>
<g>
	<path class="st4" d="M160.8,199.8c-5.6-1.1-8.8-1.3-7.8-8.1c1-6.9-4.3-7-9.8-8c-5.6-1.1-9.7-5.3-11.1-16.2
		c-1.4-10.9-8.3-9.1-13.9-11.1c-5.6-2-6.8-2.8-9.3-10.5c-2.5-7.7-9.6-7-16.8-6.1c-7.3,0.9-24.6-15.4-24.6-15.4s-3.1,9.8,4.9,19.8
		c8,10.1-3.8,8.9,0.3,19.9c4.1,11,14.4,8.2,11.4,16.9c-2.9,8.7-2.8,16.1,9.2,23.3c12,7.2,2.9,16.6,10,23.6c7.1,7,15.5-1.5,18.1,6.9
		c2.6,8.4,1.5,13,11.1,12.5c9.6-0.4,7.8,11.1,19.9,12.5c0.4,0.1,0.9,0.1,1.4,0.1c13.8,0.8,25.7-10.8,24.1-23.7
		c-0.4-2.9-1.3-5.4-3.3-6.7c-7.9-5.3-7-6.1-2.5-13.6C176.4,208.6,166.4,200.9,160.8,199.8"/>
	<path class="st2" d="M120,168.7c-2.7,3.5-4.8,7.3-6.4,11.3c-3.2-4.1-6.4-8.2-9.9-12.1c-1.2-1.4-2.4-2.7-3.6-4.1c0-0.1,0-0.1,0-0.2
		c-0.9-3.8-1.1-7.6-0.6-11.5c0.1-0.8-1.2-0.9-1.3-0.1c-0.4,3.4-0.4,6.7,0.2,10c-7.8-8.5-16.1-16.7-24.4-24.9
		c-0.6-0.6-1.7,0.2-1.1,0.8c7.9,7.8,15.8,15.7,23.3,23.8c-3.7-0.3-7.4-0.1-11.1,0.6c-0.9,0.2-0.7,1.4,0.1,1.3
		c4-0.8,8.1-0.9,12.1-0.4c0.1,0,0.1,0,0.2,0c0.6,0.7,1.2,1.3,1.8,2c4.8,5.3,9.3,10.7,13.6,16.3c-4.9,0.5-9.7,1.3-14.4,2.6
		c-0.8,0.2-0.7,1.5,0.1,1.3c5-1.3,10.1-2.2,15.2-2.7c3,3.9,5.9,7.9,8.7,12c3.1,4.4,6.1,8.9,9,13.3c-4.8,0-9.6,0.3-14.4,1
		c-0.9,0.1-0.7,1.4,0.1,1.3c4.9-0.6,9.8-1,14.7-1c0.1,0,0.2,0,0.3-0.1c3.7,5.5,7.3,11,11.1,16.4c0.7,1,1.4,2,2.2,3.1
		c-3.8,0.3-7.6,1-11.3,2.1c-0.8,0.3-0.4,1.4,0.5,1.2c3.7-1.2,7.6-1.8,11.4-2.1c0.1,0,0.1,0,0.2,0c6.1,8.5,9.8,13.6,16.8,21.4
		c8.5,9.4-0.3-2.2-4-6.8c-4-4.9-7.8-9.9-11.4-15c0,0,0,0,0-0.1c2.2-4,4.8-7.8,7.7-11.5c0.5-0.7-0.5-1.4-1-0.7
		c-2.8,3.5-5.3,7.2-7.5,11c-4.7-6.6-9.2-13.4-13.8-20.1c2.4-4.2,4.8-8.5,7.2-12.7c0.4-0.7-0.8-1.2-1.2-0.4c-2.2,4-4.5,8-6.7,12
		c-5.8-8.6-11.6-17.1-17.8-25.4c1.6-4.2,3.8-8.1,6.5-11.8C121.5,168.7,120.5,168,120,168.7"/>
	<path class="st2" d="M80.9,158.9c0.6-0.1,1.2-0.1,1.9-0.2c0.5-0.1,1-0.4,1.1-0.9c0-0.5-0.4-1-0.9-1c-0.6,0.1-1.2,0.1-1.9,0.2
		c-0.5,0.1-1,0.4-1.1,0.9C79.9,158.4,80.3,158.9,80.9,158.9"/>
	<path class="st2" d="M81,153.7c0.5,0.3,1,0.7,1.5,1c0.4,0.3,1.1,0.1,1.4-0.4c0.3-0.5,0.1-1-0.3-1.3c-0.5-0.3-1-0.7-1.5-1
		c-0.4-0.3-1.1-0.1-1.4,0.4C80.3,152.9,80.5,153.4,81,153.7"/>
	<path class="st2" d="M79,164l2.1-0.2c0.5-0.1,1-0.4,1.1-0.9c0-0.5-0.4-1-0.9-1l-2.1,0.2c-0.5,0.1-1,0.4-1.1,0.9
		C78.1,163.5,78.5,164.1,79,164"/>
	<path class="st2" d="M92,148.9c0.3,0.4,0.6,0.8,0.9,1.2c0.3,0.4,1.1,0.3,1.4,0c0.4-0.4,0.4-0.9,0.1-1.3c-0.3-0.4-0.6-0.8-0.9-1.2
		c-0.3-0.4-1.1-0.3-1.4,0C91.6,148,91.6,148.5,92,148.9"/>
	<path class="st2" d="M98.4,146.4c0,0.1,0.1,0.2,0.1,0.4c0,0.1,0,0.1,0,0.2c0-0.1,0-0.1,0,0c0,0.1,0,0.2,0,0.3c0,0,0,0.4,0,0.2
		c-0.1,0.5,0.1,1,0.6,1.2c0.5,0.1,1.2-0.2,1.3-0.7c0.1-0.7,0.2-1.4,0-2.1c-0.1-0.5-0.6-0.8-1.2-0.7
		C98.7,145.4,98.3,145.9,98.4,146.4"/>
	<path class="st2" d="M103.2,149.4c-0.4,0.5-0.8,1-1.3,1.6c-0.3,0.4-0.1,1.1,0.3,1.3c0.5,0.3,1.1,0.1,1.4-0.4c0.4-0.5,0.8-1,1.3-1.6
		c0.3-0.4,0.1-1.1-0.3-1.3C104.1,148.8,103.5,149,103.2,149.4"/>
	<path class="st2" d="M94.9,191.8c0.4-0.6,0.8-1.1,1.2-1.7c0.3-0.4,0.1-1-0.3-1.3c-0.5-0.3-1.1-0.1-1.4,0.4l-1.2,1.7
		c-0.3,0.4-0.1,1,0.3,1.3C94,192.4,94.6,192.3,94.9,191.8"/>
	<path class="st2" d="M91.4,186.8c0.7-0.2,1.4-0.3,2.1-0.5c1.3-0.3,0.9-2.1-0.4-1.8c-0.7,0.2-1.4,0.3-2.1,0.5
		C89.7,185.3,90.1,187.1,91.4,186.8"/>
	<path class="st2" d="M92.5,180.3c0.4,0.5,1,0.8,1.7,1c0.5,0.1,1.1-0.2,1.3-0.7c0.2-0.5-0.1-1-0.6-1.2c0,0-0.4-0.1-0.2,0
		c-0.1,0-0.2-0.1-0.3-0.1c0,0-0.1-0.1-0.1-0.1c0.1,0.1,0.1,0.1,0,0c-0.1-0.1-0.2-0.1-0.2-0.2c-0.3-0.4-1-0.4-1.4,0
		C92.1,179.3,92.1,179.9,92.5,180.3"/>
	<path class="st2" d="M97.2,177.4c0.3,0.3,0.5,0.7,0.8,1c0.3,0.4,1.1,0.3,1.4,0c0.4-0.4,0.4-0.9,0.1-1.3c-0.3-0.3-0.5-0.7-0.8-1
		c-0.3-0.4-1.1-0.3-1.4,0C96.9,176.4,96.9,176.9,97.2,177.4"/>
	<path class="st2" d="M115.1,168.2c0.4,0.2,0.7,0.5,1.1,0.7c0.4,0.3,1.1,0.1,1.4-0.4c0.3-0.5,0.2-1-0.3-1.3
		c-0.4-0.2-0.7-0.5-1.1-0.7c-0.4-0.3-1.1-0.1-1.4,0.4C114.5,167.4,114.7,167.9,115.1,168.2"/>
	<path class="st2" d="M120.5,163.6c-0.1,0.6-0.1,1.1-0.2,1.7c-0.1,0.5,0.4,1,0.9,0.9c0.6,0,1-0.4,1.1-0.9c0.1-0.6,0.1-1.1,0.2-1.7
		c0.1-0.5-0.4-1-0.9-0.9C121,162.7,120.6,163.1,120.5,163.6"/>
	<path class="st2" d="M126.1,166.5c-0.6,0.3-1.3,0.6-1.9,0.9c-0.5,0.2-0.7,0.9-0.4,1.3c0.3,0.5,0.9,0.6,1.4,0.3
		c0.6-0.3,1.3-0.6,1.9-0.9c0.5-0.2,0.7-0.9,0.4-1.3C127.2,166.4,126.6,166.3,126.1,166.5"/>
	<path class="st2" d="M124.3,173.3c0.7-0.1,1.4-0.2,2.1-0.2c0.5-0.1,1-0.4,1.1-0.9c0-0.5-0.4-1-0.9-0.9l-2.1,0.2
		c-0.5,0.1-1,0.4-1.1,0.9C123.4,172.9,123.8,173.4,124.3,173.3"/>
	<path class="st2" d="M117,214.4c-0.4,0.6-0.9,1.1-1.3,1.7c-0.3,0.4-0.1,1.1,0.3,1.3c0.5,0.3,1.1,0.1,1.4-0.4
		c0.4-0.6,0.9-1.1,1.3-1.7c0.3-0.4,0.1-1.1-0.3-1.3C117.9,213.8,117.3,214,117,214.4"/>
	<path class="st2" d="M110.5,213c-0.9,0.7-1.8,1.5-2.7,2.2c-1,0.8,0.3,2.1,1.4,1.3c0.9-0.7,1.8-1.5,2.7-2.2
		C112.8,213.5,111.5,212.2,110.5,213"/>
	<path class="st2" d="M107.7,209.9c1-0.1,1.9-0.1,2.9-0.2c1.3-0.1,1.4-2,0.1-1.9c-1,0.1-1.9,0.1-2.9,0.2
		C106.5,208.1,106.4,210,107.7,209.9"/>
	<path class="st2" d="M110.6,203.1l1.3,0.7c0.4,0.3,1.1,0.1,1.4-0.4c0.3-0.5,0.2-1-0.3-1.3c-0.4-0.2-0.8-0.5-1.3-0.7
		c-0.4-0.3-1.1-0.1-1.4,0.4C110.1,202.3,110.2,202.9,110.6,203.1"/>
	<path class="st2" d="M117.7,201.6c0.3,0.6,0.7,1.3,1,1.9c0.6,1.1,2.4,0.1,1.8-1c-0.3-0.6-0.7-1.3-1-1.9
		C118.9,199.6,117.1,200.5,117.7,201.6"/>
	<path class="st2" d="M132.2,195.4c0.5,0.4,0.9,0.8,1.4,1.2c0.4,0.3,1,0.4,1.4,0c0.4-0.4,0.5-1,0.1-1.3c-0.5-0.4-0.9-0.8-1.4-1.2
		c-0.4-0.3-1-0.4-1.4,0C131.9,194.4,131.8,195.1,132.2,195.4"/>
	<path class="st2" d="M134.8,187.3c0.5,0.9,1,1.7,1.4,2.6c0.6,1.1,2.4,0.1,1.8-1c-0.5-0.9-1-1.7-1.4-2.6
		C136,185.3,134.2,186.3,134.8,187.3"/>
	<path class="st2" d="M143,188.9c-0.7,0.9-1.3,1.7-2,2.6c-0.8,1,0.9,2,1.7,0.9c0.7-0.9,1.3-1.7,2-2.6
		C145.4,188.8,143.7,187.9,143,188.9"/>
	<path class="st2" d="M147.9,194.1c-0.9,0.5-1.7,0.9-2.6,1.4c-1.2,0.6-0.3,2.3,0.9,1.6c0.9-0.5,1.7-0.9,2.6-1.4
		C149.9,195.1,149,193.5,147.9,194.1"/>
	<path class="st2" d="M147.8,200c-1.5,0.3-2.9,0.8-4.2,1.4c-1.2,0.6-0.3,2.2,0.9,1.6c1.2-0.6,2.4-1,3.7-1.2
		C149.4,201.6,149,199.7,147.8,200"/>
	<path class="st2" d="M136,236.7c-0.3,0.9-0.7,1.9-1,2.8c-0.4,1.2,1.5,1.7,1.9,0.5c0.3-0.9,0.7-1.9,1-2.8
		C138.3,236,136.4,235.5,136,236.7"/>
	<path class="st2" d="M130.9,238.4c0.7-0.5,1.4-1.1,2-1.6c0.4-0.3,0.4-1,0.1-1.3c-0.4-0.4-1-0.3-1.4,0c-0.7,0.5-1.4,1.1-2,1.6
		c-0.4,0.3-0.4,1-0.1,1.3C129.9,238.8,130.5,238.8,130.9,238.4"/>
	<path class="st2" d="M125.4,234.1c0.7-0.4,1.5-0.8,2.2-1.2c1.2-0.6-1.9-1.1-3.1-0.5c-0.7,0.4,0.7-0.4,0,0
		C123.4,233.1,124.3,234.8,125.4,234.1"/>
	<path class="st2" d="M128.2,226.3c0.7,0.2,1.3,0.4,2,0.6c0.5,0.1,1.1-0.2,1.3-0.7c0.2-0.5-0.1-1-0.6-1.2c-0.7-0.2-1.3-0.4-2-0.6
		c-0.5-0.1-1.1,0.2-1.3,0.7C127.4,225.7,127.6,226.2,128.2,226.3"/>
	<path class="st2" d="M134.5,225c0.4,0.4,0.8,0.9,1.2,1.3c0.3,0.4,1,0.3,1.4,0c0.4-0.4,0.4-1,0.1-1.3c-0.4-0.4-0.8-0.9-1.2-1.3
		c-0.3-0.4-1-0.3-1.4,0C134.1,224,134.1,224.6,134.5,225"/>
	<path class="st2" d="M146.5,217.4c0.2,0.7,0.3,1.5,0.5,2.2c0.3,1.2,2.2,0.7,2-0.5c-0.2-0.7-0.3-1.5-0.5-2.2
		C148.2,215.7,146.2,216.2,146.5,217.4"/>
	<path class="st2" d="M150.3,212.6c0.2,0.7,0.4,1.5,0.4,2.2c0,1.2,2,1.2,2,0c0-0.9-0.1-1.9-0.4-2.7c-0.2-0.5-0.6-0.8-1.2-0.7
		C150.6,211.6,150.2,212.1,150.3,212.6"/>
	<path class="st2" d="M157.3,210c-0.4,1-1,1.9-1.7,2.7c-0.3,0.4-0.1,1.1,0.3,1.3c0.5,0.3,1,0.1,1.4-0.4c0.8-1,1.4-2,1.9-3.2
		C159.7,209.3,157.8,208.9,157.3,210"/>
	<path class="st2" d="M161.9,213.6c-0.9,0.7-1.9,1.3-2.8,2c-0.4,0.3-0.4,1-0.1,1.3c0.4,0.4,1,0.3,1.4,0c0.9-0.7,1.9-1.3,2.8-2
		c0.5-0.3,0.4-1,0.1-1.3C162.9,213.2,162.3,213.3,161.9,213.6"/>
	<path class="st2" d="M160.8,220c-2,0.6-4.1,1.1-6.1,1.7c-1.3,0.4-0.9,2.2,0.4,1.8c2-0.6,4.1-1.1,6.1-1.7
		C162.5,221.5,162.1,219.7,160.8,220"/>
	<path class="st2" d="M155.8,226c-0.8,0.4-1.6,0.9-2.4,1.3c-1.2,0.6-0.3,2.3,0.9,1.6c0.8-0.4,1.6-0.9,2.4-1.3
		C157.9,227.1,157,225.4,155.8,226"/>
</g>
<path class="st2" d="M89.3,262.1c0,0,3.3-34.4,11.2-34.7c8-0.3,14.4,5.4,14.4,5.4s2.8-19.9,14.1-20.6c11.2-0.6,13,16.4,13,16.4
	s1.8-26.7,14.2-27.1c12.4-0.3,15.7,14.2,15.7,14.2c2.1-16.1,21.2-14.9,26.8-1.9c5.8,13.2,6.6,22.5,6.6,22.5s2.1-17.1,12.1-18.4
	c10.1-1.3,12.7,20.6,12.7,20.6s6.4-23.5,30.4-23.5c10.1,0,17,14.5,17.3,21.9c0.3,7.4,5.5,18,19.7,6.1c14.2-11.9,26.6,18.9,26.6,18.9
	L89.3,262.1z"/>
</svg>
