<?xml version="1.0" encoding="utf-8"?>
<!-- Generator: Adobe Illustrator 26.0.3, SVG Export Plug-In . SVG Version: 6.00 Build 0)  -->
<svg version="1.1" id="Ebene_1" xmlns="http://www.w3.org/2000/svg" xmlns:xlink="http://www.w3.org/1999/xlink" x="0px" y="0px"
	 viewBox="0 0 478.9 288" style="enable-background:new 0 0 478.9 288;" xml:space="preserve">
<style type="text/css">
	.st0{fill:#641E6E;}
	.st1{fill:#EA5474;}
	.st2{fill:#7575B4;}
	.st3{fill:#D99A68;}
	.st4{opacity:0.3;fill:url(#SVGID_1_);}
	.st5{fill:#BE7A50;}
	.st6{opacity:0.2;fill:url(#SVGID_00000013155158545526896500000007264799896149807000_);}
	.st7{opacity:0.2;fill:url(#SVGID_00000108296523084829045130000011192563144800294786_);}
	.st8{fill:#F0C29C;}
	.st9{fill:#4F2B1E;}
	.st10{fill:#542614;}
	.st11{fill:#79422C;}
	.st12{fill:#833500;}
	.st13{fill:#636664;}
	.st14{fill:#A57555;}
	.st15{fill:#271607;}
	.st16{opacity:0.1;}
	.st17{clip-path:url(#SVGID_00000047758367805753165660000002793255573693930909_);fill:#FFFFFF;}
	.st18{fill:#3B3534;}
	.st19{fill:#381947;}
	.st20{fill:#002E2C;}
	.st21{fill:#694F7F;}
	.st22{opacity:0.9;}
	.st23{clip-path:url(#SVGID_00000026875022464716512580000014148027284055101838_);fill:#D8DADA;}
	.st24{clip-path:url(#SVGID_00000060725492398341684320000008917877625325283262_);fill:#D8DADA;}
	.st25{fill:#518198;}
	.st26{fill:#F69C00;}
	.st27{fill:#ED5607;}
	.st28{fill:#FDD184;}
	.st29{fill:#EA3C0F;}
	.st30{fill:#E6BFA5;}
	.st31{clip-path:url(#SVGID_00000036217883924022040690000003770398477023741336_);fill:#381947;}
	.st32{clip-path:url(#SVGID_00000154388573147727974200000017436903344103511968_);fill:#FFFFFF;}
	.st33{clip-path:url(#SVGID_00000102516801045425949260000007926629496174342044_);fill:#FFFFFF;}
	.st34{fill:#877C7A;}
	.st35{fill:#302B28;}
	.st36{fill:#5A524F;}
	.st37{fill:#A8A09E;}
	.st38{fill:#B8A8A6;}
	.st39{fill:#DCCECB;}
	.st40{opacity:0.3;}
	.st41{clip-path:url(#SVGID_00000047042524002785795580000000704068392846248353_);fill:#AADBE0;}
	.st42{opacity:0.2;}
	.st43{clip-path:url(#SVGID_00000170989366611210623510000011665295992565665931_);fill:#AADBE0;}
	.st44{fill:#FFE274;}
	.st45{fill:#FAB40C;}
	.st46{clip-path:url(#SVGID_00000138574783122721489230000015609022705542055571_);fill:#AADBE0;}
	
		.st47{clip-path:url(#SVGID_00000023991521809351095360000001887256745553559207_);fill:url(#SVGID_00000091707249519860075440000009325337268722099124_);}
	.st48{fill:#D78D5A;}
	.st49{fill:#66322A;}
	.st50{fill:#2F0C27;}
	.st51{fill:#485B5E;}
	.st52{fill:#7B8E91;}
	.st53{opacity:0.6;fill:#9EB1B5;}
	.st54{fill:#596D71;}
	.st55{fill:#F4931F;}
	.st56{fill:#9EB1B5;}
	.st57{fill:#FDCF0C;}
	.st58{fill:#F9AE15;}
	.st59{fill:#FFFFFF;}
	.st60{fill:#E7EAE1;}
	.st61{fill:#C6C4AF;}
	.st62{filter:url(#Adobe_OpacityMaskFilter);}
	.st63{opacity:0.1;mask:url(#SVGID_00000125568559424576129100000011459990150030260659_);}
	.st64{fill:#87442A;}
	.st65{filter:url(#Adobe_OpacityMaskFilter_00000000920682641035639070000011111497440275294398_);}
	.st66{opacity:0.1;mask:url(#SVGID_00000047031107842466347650000003299877399958899861_);}
</style>
<g>
	<path class="st1" d="M310.7,182.5c-3.2-4.4-5.4-6.7,0.4-11.4c5.8-4.7,2.1-8.2-1.1-12.6c-3.2-4.4-3-10.4,4.1-19.8
		c7.1-9.4,0.8-12.5-1.7-17.7c-2.5-5.2-2.8-6.5,1.1-14.2c3.9-7.7-1.7-11.6-7.6-15.6c-5.9-4-6.2-27.8-6.2-27.8s-9.5,5.6-11.2,18.6
		c-1.7,13-9.4,4.5-14.6,15.7c-5.2,11.3,4.2,15.7-4.4,20.6c-8.6,4.9-13.9,10.8-10.7,24.1c3.3,13.3-10.3,14.8-10.4,24.8
		c-0.1,10,12.2,8.8,7.8,17c-4.4,8.2-8.6,11.1-1.4,16.9c7.2,5.8-2.6,13.7,4.9,22.6c0.3,0.3,0.6,0.7,0.9,1c9.3,9.5,26.5,8.2,34.9-2.9
		c1.9-2.5,3-5.1,2.6-7.3c-1.7-9.2,2.3,1.1,11-1.9C318.1,209.7,313.9,187,310.7,182.5"/>
	<path class="st2" d="M304.5,131.9c-4.5,1-8.9,2.6-13,4.7c0.8-5.3,1.5-10.5,1.9-15.8c0.2-1.8,0.3-3.7,0.4-5.5c0.1,0,0.1-0.1,0.2-0.2
		c2.1-3.5,4.8-6.7,8.1-9.4c0.7-0.6-0.2-1.5-0.9-1c-2.8,2.3-5.2,5-7.2,7.9c0.7-11.7,0.9-23.4,1-35.1c0-0.8-1.4-0.9-1.4-0.1
		c-0.1,11.2-0.3,22.4-0.9,33.6c-2.4-2.6-5.2-4.9-8.4-6.8c-0.7-0.4-1.6,0.6-0.8,1.1c3.5,2,6.5,4.5,9,7.5c0,0,0.1,0.1,0.1,0.1
		c-0.1,0.9-0.1,1.8-0.2,2.7c-0.5,7.2-1.3,14.3-2.4,21.5c-3.8-2.8-7.9-5.2-12.3-7.3c-0.8-0.4-1.6,0.7-0.8,1.1
		c4.6,2.2,8.9,4.8,12.9,7.7c-0.8,5-1.6,10-2.6,15c-1.1,5.4-2.2,10.8-3.4,16.2c-3.5-3.1-7.1-5.9-11-8.5c-0.7-0.5-1.5,0.6-0.8,1.1
		c4,2.7,7.8,5.6,11.3,8.7c0.1,0.1,0.2,0.1,0.3,0.1c-1.4,6.6-2.9,13.3-4.2,19.9c-0.3,1.3-0.5,2.5-0.7,3.8c-2.9-2.2-6.2-4.1-9.7-5.6
		c-0.8-0.3-1.3,0.9-0.5,1.2c3.5,1.5,6.8,3.4,9.7,5.8c0.1,0,0.1,0.1,0.2,0.1c-1.9,10.5-3.1,16.9-3.8,27.5c-0.9,12.8,1.4-1.9,2.1-7.9
		c0.7-6.4,1.8-12.8,3-19.1c0,0,0,0,0-0.1c4.6-1.7,9.2-3,14-4c0.9-0.2,0.7-1.4-0.2-1.2c-4.6,0.9-9.1,2.2-13.5,3.8
		c1.6-8.2,3.3-16.4,5.1-24.6c4.9-1.8,9.7-3.5,14.6-5.3c0.8-0.3,0.3-1.4-0.6-1.1c-4.6,1.7-9.2,3.3-13.7,5c2.2-10.4,4.4-20.8,6.1-31.2
		c4.2-2.2,8.7-3.9,13.4-5C305.6,133,305.4,131.7,304.5,131.9"/>
	<path class="st2" d="M283.8,99.1c0.5,0.3,1,0.7,1.5,1c0.4,0.3,1,0.4,1.5-0.1c0.4-0.3,0.5-1,0-1.3c-0.5-0.3-1-0.7-1.5-1
		c-0.4-0.3-1-0.4-1.5,0.1C283.4,98.1,283.3,98.8,283.8,99.1"/>
	<path class="st2" d="M287.7,95.1c0.1,0.6,0.2,1.2,0.4,1.8c0.1,0.5,0.7,0.8,1.3,0.6c0.6-0.2,0.9-0.7,0.7-1.2
		c-0.1-0.6-0.2-1.2-0.4-1.8c-0.1-0.5-0.7-0.8-1.3-0.6C287.8,94.1,287.6,94.6,287.7,95.1"/>
	<path class="st2" d="M278.7,101.9l1.7,1.2c0.4,0.3,1,0.4,1.5,0c0.4-0.3,0.5-1,0-1.4l-1.7-1.2c-0.4-0.3-1-0.4-1.5,0.1
		C278.3,100.9,278.2,101.6,278.7,101.9"/>
	<path class="st2" d="M299.2,98.5c-0.1,0.5-0.1,1-0.2,1.5c-0.1,0.5,0.5,0.9,1,0.9c0.6-0.1,1-0.5,1-1c0.1-0.5,0.1-1,0.2-1.5
		c0.1-0.5-0.5-1-1-0.9C299.6,97.5,299.2,97.9,299.2,98.5"/>
	<path class="st2" d="M305.6,100.7c-0.1,0.1-0.1,0.2-0.2,0.4c0,0.1-0.1,0.1-0.1,0.2c0-0.1,0-0.1,0,0c-0.1,0.1-0.2,0.2-0.3,0.3
		c0,0-0.3,0.3-0.2,0.2c-0.4,0.3-0.7,0.9-0.4,1.3c0.3,0.4,0.9,0.6,1.4,0.3c0.6-0.5,1.2-1,1.6-1.7c0.2-0.5,0.2-1.1-0.4-1.3
		C306.6,100.1,305.9,100.2,305.6,100.7"/>
	<path class="st2" d="M306.8,106.1c-0.7,0.1-1.4,0.3-2.1,0.4c-0.6,0.1-0.9,0.7-0.7,1.2c0.2,0.5,0.7,0.7,1.3,0.6
		c0.7-0.1,1.4-0.3,2.1-0.4c0.6-0.1,0.9-0.7,0.7-1.2C307.9,106.2,307.3,106,306.8,106.1"/>
	<path class="st2" d="M269.4,133.8c0.7-0.2,1.4-0.4,2.1-0.5c0.5-0.1,0.9-0.7,0.7-1.2c-0.1-0.5-0.7-0.8-1.3-0.6l-2.1,0.5
		c-0.5,0.1-0.9,0.7-0.7,1.2C268.3,133.7,268.9,134,269.4,133.8"/>
	<path class="st2" d="M270.6,127.7c0.6,0.3,1.3,0.7,1.9,1c1.1,0.6,2.2-1.1,1.1-1.7c-0.6-0.3-1.3-0.7-1.9-1
		C270.5,125.4,269.5,127.1,270.6,127.7"/>
	<path class="st2" d="M276.2,123.2c0,0.7,0.1,1.3,0.5,1.9c0.3,0.4,0.9,0.6,1.4,0.3c0.5-0.3,0.7-0.9,0.4-1.3c0,0-0.2-0.3-0.1-0.1
		c0-0.1-0.1-0.2-0.1-0.3c0-0.1,0-0.1,0-0.2c0,0.1,0,0.1,0,0c0-0.1,0-0.2,0-0.3c0-0.5-0.5-1-1-0.9
		C276.7,122.3,276.2,122.7,276.2,123.2"/>
	<path class="st2" d="M281.8,124c0,0.4-0.1,0.9-0.1,1.3c-0.1,0.5,0.5,1,1,0.9c0.6-0.1,1-0.5,1-1c0-0.4,0.1-0.9,0.1-1.3
		c0.1-0.5-0.5-1-1-0.9C282.2,123.1,281.8,123.5,281.8,124"/>
	<path class="st2" d="M301.4,128.5c0.1,0.4,0.2,0.8,0.3,1.3c0.1,0.5,0.8,0.8,1.3,0.6c0.6-0.2,0.9-0.7,0.7-1.2
		c-0.1-0.4-0.2-0.8-0.3-1.3c-0.1-0.5-0.8-0.8-1.3-0.6C301.6,127.4,301.3,127.9,301.4,128.5"/>
	<path class="st2" d="M308.7,128.4c-0.5,0.4-0.9,0.8-1.4,1.2c-0.4,0.3-0.4,1,0,1.3c0.4,0.4,1,0.3,1.5-0.1c0.5-0.4,0.9-0.8,1.4-1.2
		c0.4-0.3,0.4-1,0-1.3C309.7,128,309.1,128,308.7,128.4"/>
	<path class="st2" d="M310.5,134.2c-0.7-0.2-1.4-0.4-2-0.5c-0.5-0.1-1.1,0.2-1.3,0.7c-0.2,0.5,0.2,1,0.7,1.1c0.7,0.2,1.4,0.4,2,0.5
		c0.5,0.1,1.1-0.2,1.3-0.7C311.4,134.8,311,134.4,310.5,134.2"/>
	<path class="st2" d="M304.2,138.4c0.6,0.4,1.1,0.8,1.7,1.2c0.4,0.3,1,0.4,1.5-0.1c0.4-0.3,0.5-1,0-1.3l-1.7-1.2
		c-0.4-0.3-1-0.4-1.5,0.1C303.8,137.4,303.7,138.1,304.2,138.4"/>
	<path class="st2" d="M268.5,165.7c-0.7,0.2-1.5,0.3-2.2,0.5c-0.6,0.1-0.9,0.7-0.7,1.2c0.1,0.5,0.7,0.7,1.3,0.6
		c0.7-0.2,1.5-0.3,2.2-0.5c0.6-0.1,0.9-0.7,0.7-1.2C269.6,165.8,269,165.5,268.5,165.7"/>
	<path class="st2" d="M264.8,160.4c-1.2,0-2.4,0-3.6,0c-1.3,0-1.3,1.9,0,1.9c1.2,0,2.4,0,3.6,0C266.1,162.3,266.1,160.4,264.8,160.4
		"/>
	<path class="st2" d="M265.1,156.2c0.7,0.6,1.5,1.2,2.2,1.7c1,0.8,2.5-0.6,1.5-1.4c-0.7-0.6-1.5-1.2-2.2-1.7
		C265.6,154,264.1,155.4,265.1,156.2"/>
	<path class="st2" d="M272.2,152.8l0.4,1.4c0.1,0.5,0.7,0.8,1.3,0.6c0.6-0.2,0.9-0.7,0.7-1.2c-0.1-0.5-0.2-0.9-0.4-1.4
		c-0.1-0.5-0.7-0.8-1.3-0.6C272.4,151.8,272.1,152.3,272.2,152.8"/>
	<path class="st2" d="M278.4,156.1c-0.2,0.7-0.4,1.4-0.7,2.1c-0.4,1.2,1.6,1.6,2,0.4c0.2-0.7,0.4-1.4,0.7-2.1
		C280.8,155.3,278.8,154.9,278.4,156.1"/>
	<path class="st2" d="M293.4,160.7c0,0.6,0.1,1.2,0.1,1.8c0,0.5,0.5,0.9,1,0.9c0.5,0,1.1-0.5,1-1c0-0.6-0.1-1.2-0.1-1.8
		c0-0.5-0.5-0.9-1-0.9C293.9,159.7,293.4,160.2,293.4,160.7"/>
	<path class="st2" d="M301.3,156c-0.3,1-0.6,2-0.9,2.9c-0.4,1.2,1.6,1.6,2,0.4c0.3-1,0.6-2,0.9-2.9
		C303.6,155.2,301.6,154.8,301.3,156"/>
	<path class="st2" d="M306,162.5c-1.1,0.3-2.2,0.5-3.3,0.8c-1.3,0.3-0.8,2.1,0.5,1.8c1.1-0.3,2.2-0.5,3.3-0.8
		C307.8,164,307.3,162.2,306,162.5"/>
	<path class="st2" d="M305.6,169.7c-1-0.2-1.9-0.4-2.9-0.6c-1.3-0.3-1.9,1.6-0.6,1.9c1,0.2,1.9,0.4,2.9,0.6
		C306.4,171.9,306.9,170,305.6,169.7"/>
	<path class="st2" d="M301.2,174.3c-1.3-0.7-2.6-1.2-4-1.6c-1.3-0.3-1.8,1.6-0.6,1.9c1.3,0.3,2.4,0.8,3.5,1.4
		C301.2,176.6,302.3,174.9,301.2,174.3"/>
	<path class="st2" d="M265.5,195.3c-0.9,0.5-1.9,1-2.8,1.5c-1.2,0.6-0.2,2.3,1,1.6c0.9-0.5,1.9-1,2.8-1.5
		C267.7,196.2,266.7,194.6,265.5,195.3"/>
	<path class="st2" d="M260.6,193.4c0.9,0,1.8,0,2.7,0c0.6,0,1-0.5,1-1c0-0.5-0.5-0.9-1-0.9c-0.9,0-1.8,0-2.7,0c-0.6,0-1,0.5-1,1
		C259.6,193,260,193.4,260.6,193.4"/>
	<path class="st2" d="M259.8,186.5c0.8,0.2,1.6,0.3,2.4,0.5c1.3,0.3-0.6-2.1-1.9-2.4c-0.8-0.2,0.8,0.2,0,0
		C259.1,184.4,258.5,186.2,259.8,186.5"/>
	<path class="st2" d="M267.6,182.2c0.3,0.6,0.7,1.2,1,1.8c0.2,0.4,0.9,0.6,1.4,0.3c0.5-0.3,0.7-0.9,0.4-1.3c-0.3-0.6-0.7-1.2-1-1.8
		c-0.2-0.4-1-0.6-1.4-0.3C267.5,181.2,267.3,181.7,267.6,182.2"/>
	<path class="st2" d="M273.1,185.2c-0.1,0.6-0.1,1.2-0.2,1.8c0,0.5,0.5,0.9,1,0.9c0.6,0,1-0.5,1-1c0.1-0.6,0.1-1.2,0.2-1.8
		c0-0.5-0.5-0.9-1-0.9C273.6,184.2,273.2,184.6,273.1,185.2"/>
	<path class="st2" d="M287.4,187c-0.4,0.7-0.8,1.3-1.3,2c-0.7,1.1,1.1,2,1.8,0.9c0.4-0.7,0.8-1.3,1.3-2
		C289.9,186.8,288.1,185.9,287.4,187"/>
	<path class="st2" d="M293.7,185.8c-0.4,0.7-0.8,1.4-1.4,2c-0.9,0.9,0.5,2.2,1.4,1.3c0.7-0.7,1.3-1.5,1.7-2.4c0.2-0.5,0.2-1-0.3-1.3
		C294.7,185.1,293.9,185.3,293.7,185.8"/>
	<path class="st2" d="M300.6,188.2c-1,0.5-2.1,0.8-3.2,1.1c-0.6,0.1-0.9,0.7-0.7,1.2c0.2,0.5,0.7,0.7,1.3,0.6
		c1.3-0.2,2.5-0.7,3.7-1.3C302.8,189.2,301.8,187.6,300.6,188.2"/>
	<path class="st2" d="M301.2,194c-1.2-0.1-2.4-0.2-3.5-0.3c-0.6,0-1,0.5-1,1c0,0.6,0.5,0.9,1,0.9c1.2,0.1,2.4,0.2,3.5,0.3
		c0.6,0,1-0.5,1-1C302.3,194.3,301.8,194,301.2,194"/>
	<path class="st2" d="M295.7,198.3c-1.9-0.9-3.8-1.7-5.7-2.6c-1.2-0.5-2.2,1.1-1.1,1.7c1.9,0.9,3.8,1.7,5.7,2.6
		C295.8,200.6,296.9,198.9,295.7,198.3"/>
	<path class="st2" d="M287.6,199.8c-0.9-0.2-1.8-0.4-2.7-0.6c-1.3-0.3-1.9,1.6-0.6,1.9c0.9,0.2,1.8,0.4,2.7,0.6
		C288.4,201.9,288.9,200,287.6,199.8"/>
</g>
<g>
	<path class="st2" d="M96.2,58.5c0,0,28.8,101.2,77.5,146.8c16.5,15.5,32,23.3,45.2,26.9c27.6,7.6,51.9-18,44.4-46.7
		c-3.6-13.8-11.2-29.9-26.1-47.1C193.3,87.9,96.2,58.5,96.2,58.5"/>
	<path class="st0" d="M220.2,184.3c-3.2-3.3-6.4-6.6-9.6-9.9l13.7-48.9c-0.4-0.4-0.8-0.7-1.2-1.1c-4.5,16.3-9.1,32.5-13.6,48.8
		c-3-3.1-6.1-6.3-9.1-9.4c4.1-15.7,8.9-31.1,14.4-46.3c-0.4-0.3-0.8-0.6-1.2-0.9c-5.4,15.1-10.2,30.5-14.3,46c-2.9-3-5.8-6-8.7-9
		l13.6-43.9c-0.4-0.3-0.8-0.6-1.3-0.9l-13.5,43.6c-3.1-3.2-6.1-6.3-9.2-9.5c3.1-14.1,6.7-28,10.9-41.7c-0.4-0.3-0.9-0.5-1.3-0.8
		c-4.2,13.6-7.8,27.3-10.8,41.3c-3.1-3.3-6.3-6.5-9.4-9.8c2.9-12.6,6.4-25,10.4-37.3c-0.4-0.2-0.9-0.5-1.3-0.7
		c-3.9,12.1-7.3,24.3-10.3,36.8c-2.6-2.6-5.1-5.3-7.7-7.9c2.2-11.5,4.9-22.9,8.1-34.1c-0.4-0.2-0.9-0.5-1.3-0.7
		c-3.2,11-5.8,22.2-8,33.5c-3.1-3.2-6.2-6.5-9.4-9.7c1-10.1,3-19.9,6-29.4c-0.4-0.2-0.9-0.4-1.3-0.6c-2.9,9.3-4.9,18.9-6,28.7
		c-1.1-1.1-2.1-2.2-3.2-3.3c-0.1-0.3-0.3-0.5-0.6-0.6c-0.8-0.8-1.5-1.6-2.3-2.4c0.3-8.9,2.2-17.5,5.4-25.5c-0.4-0.2-0.9-0.4-1.3-0.6
		c-3.2,7.8-5,16.1-5.5,24.7c-2.3-2.4-4.7-4.8-7-7.3c0.8-7.2,2.1-14.2,3.9-21.2c-0.5-0.2-0.9-0.4-1.4-0.6c-1.8,6.7-3.1,13.5-3.9,20.4
		c-2.2-2.2-4.4-4.5-6.5-6.7c1.3-4.6,2.5-9.2,3.8-13.9c0.2-0.8,0.4-1.5,0.6-2.3c-0.5-0.2-0.9-0.4-1.4-0.5c-0.3,1.1-0.6,2.3-0.9,3.4
		c-1.1,4-2.2,8.1-3.3,12.1c-1.8-1.9-3.7-3.8-5.5-5.7c0.4-4.3,1-8.6,1.8-12.9c-0.5-0.2-0.9-0.4-1.4-0.5c-0.7,4-1.3,8-1.8,12.1
		c-2.1-2.2-4.3-4.4-6.4-6.7c0.4-2.7,0.8-5.3,1.4-7.9c-0.5-0.2-0.9-0.3-1.4-0.5c-0.5,2.3-1,4.7-1.3,7.1l-3.9-4
		c0.2-1.6,0.4-3.2,0.6-4.7c-0.5-0.2-0.9-0.3-1.4-0.5c-0.2,1.3-0.3,2.6-0.5,3.9c-1.9-2-3.9-4-5.8-6c-2.2-0.7-3.4-1.1-3.4-1.1
		s0.3,1.2,1,3.5c2.2,2.2,4.3,4.5,6.5,6.7c-1.5-0.2-3-0.3-4.5-0.3c0.2,0.5,0.3,1,0.5,1.5c1.9,0,3.9,0.3,5.8,0.7
		c1.5,1.6,3,3.1,4.5,4.7c-2.9-0.4-5.8-0.6-8.7-0.5c0.2,0.5,0.3,1,0.5,1.5c3.1-0.1,6.1,0.2,9.2,0.7c0.2,0,0.4,0,0.5-0.1
		c2.8,2.9,5.5,5.7,8.3,8.6c-5-0.4-10-0.6-15-0.6c0.2,0.5,0.4,1,0.5,1.5c5.3,0,10.7,0.3,16,0.7c2.5,2.6,5,5.2,7.5,7.7
		c-6.9-0.4-13.8-0.7-20.7-0.7c0.2,0.5,0.4,1,0.6,1.5c7.2,0.1,14.4,0.4,21.6,0.8c3.1,3.2,6.1,6.3,9.2,9.5c-9.1-0.9-18.2-1.4-27.4-1.6
		c0.2,0.5,0.4,1,0.6,1.5c9.5,0.2,18.9,0.7,28.4,1.7c2,2.1,4,4.2,6,6.2c-10,0.8-20.1,1.6-30.1,2.3c0.2,0.5,0.4,1,0.6,1.5
		c10.3-0.8,20.6-1.6,30.8-2.4c3.9,4,7.8,8.1,11.7,12.1c-12.9-1.2-25.9-1.7-38.8-1.4c0.2,0.5,0.5,1,0.7,1.5
		c13.2-0.3,26.5,0.3,39.7,1.6c3.6,3.7,7.2,7.4,10.7,11.1c-14.4,0.8-28.7,1.6-43.1,2.5c0.3,0.5,0.5,1,0.8,1.5l43.8-2.5
		c1.4,1.4,2.7,2.8,4.1,4.2l5,5.1c-15.7,1.2-31.4,2.5-47.1,3.7c0.3,0.5,0.5,1,0.8,1.4c15.9-1.3,31.8-2.5,47.7-3.8
		c2.6,2.6,5.1,5.3,7.7,7.9c-15.9,2.9-31.8,5.8-47.7,8.7c0.3,0.5,0.6,0.9,0.9,1.4c15.9-2.9,31.9-5.8,47.8-8.7c0.1,0,0.2,0,0.2-0.1
		c3.7,3.8,7.3,7.6,11,11.4c-17.3,2.6-34.6,5.3-51.9,7.9c0.3,0.5,0.7,0.9,1,1.4c17.4-2.6,34.8-5.3,52.2-7.9c2.7,2.8,5.5,5.7,8.2,8.5
		c-16.4,4.5-32.8,9-49.2,13.5c0.4,0.4,0.8,0.8,1.1,1.3c16.4-4.5,32.8-9,49.2-13.5c2.9,3,5.8,6,8.8,9.1
		c-15.2,6.1-30.8,11.3-46.6,15.6c0.5,0.4,0.9,0.8,1.4,1.2c15.7-4.3,31.2-9.5,46.4-15.6c4.7,4.9,9.5,9.8,14.2,14.7
		c-13.6,5.5-27.5,10.3-41.6,14.5c0.6,0.4,1.2,0.7,1.9,1c13.8-4.1,27.3-8.8,40.6-14.2c0.1,0,0.1-0.1,0.2-0.1c2,2.1,4,4.1,6,6.2
		c-10.7,4.9-21.3,9.8-32,14.7c0.7,0.2,1.4,0.5,2.1,0.7c10.3-4.7,20.6-9.5,31-14.2c2,2,3.9,4.1,5.9,6.1c0.8-0.8,1.6-1.6,2.3-2.5
		c-0.5-0.6-1.1-1.1-1.6-1.7c3.4-10.1,6.7-20.2,10.1-30.3c-0.2-0.9-0.4-1.9-0.6-2.8c-3.5,10.6-7.1,21.3-10.6,31.9
		c-1.8-1.8-3.5-3.6-5.3-5.5c4.1-12.6,8.2-25.3,12.2-37.9c-0.3-0.7-0.6-1.4-0.9-2.1c-4.2,12.9-8.4,25.9-12.5,38.8
		c-2.7-2.8-5.5-5.7-8.2-8.5c4.9-14.2,9.8-28.5,14.6-42.7c-0.3-0.6-0.6-1.1-1-1.7c-4.9,14.4-9.9,28.8-14.8,43.2
		c-2.4-2.5-4.8-4.9-7.2-7.4c-0.1-0.1-0.1-0.1-0.2-0.2c4.5-15.4,9.7-30.6,15.7-45.4c-0.3-0.5-0.7-0.9-1-1.4
		c-6,14.9-11.3,30.1-15.8,45.6c-0.3-0.3-0.6-0.6-0.9-1c-0.1-0.1-0.1-0.2-0.2-0.2c-2-2.1-4-4.1-6-6.2c3.6-16.9,8-33.6,13.1-50.1
		c-0.4-0.4-0.8-0.8-1.2-1.2C228.2,150.7,223.9,167.4,220.2,184.3"/>
</g>
<g>
	<path class="st2" d="M365.8,185c-0.9-5.7-1.8-8.9,5.2-11.2c7-2.3,5.3-7.4,4.4-13.1c-0.9-5.7,1.8-11.7,11.9-18.3
		c10.1-6.6,6-12.2,6-18.5c0-6.2,0.3-7.7,7-13.9c6.7-6.1,3.5-12.4,0.1-18.8c-3.4-6.4,6.5-30.5,6.5-30.5s-10.6,1.8-17.6,14.2
		c-7,12.4-10,0.7-19.3,9.9c-9.3,9.2-3,17.5-12.5,18.9c-9.5,1.4-16.6,5.2-19.5,19.9c-2.8,14.7-15.2,10.7-19.5,20.8
		c-4.3,10.1,6.8,13.8-0.5,20.3c-7.3,6.5-12.1,7.7-8.4,16.4c3.7,8.8-8.1,12.8-5.4,24.7c0.1,0.4,0.2,0.9,0.4,1.4
		c4,13.3,19.4,19,31.3,11.2c2.7-1.8,4.8-3.9,5.4-6.3c2.4-9.9,3.6-9.5,12.4-9C362.6,203.9,366.6,190.8,365.8,185"/>
	<path class="st0" d="M382,131.6c-4.3-0.8-8.7-1-13.2-0.6c2.9-5,5.7-10,8.4-15.2c0.9-1.8,1.8-3.6,2.7-5.4c0.1,0,0.1-0.1,0.2-0.1
		c3.3-2.7,7-4.8,11-6.2c0.8-0.3,0.5-1.6-0.3-1.3c-3.4,1.2-6.6,2.9-9.6,5c5.6-11.5,10.7-23.2,15.8-34.9c0.4-0.8-0.8-1.5-1.2-0.6
		c-4.9,11.2-9.8,22.4-15.1,33.4c-1-3.6-2.4-7.1-4.4-10.2c-0.5-0.7-1.6,0-1.2,0.7c2.1,3.4,3.7,7.2,4.6,11.2c0,0.1,0,0.1,0.1,0.2
		c-0.4,0.9-0.9,1.8-1.3,2.7c-3.5,7-7.2,13.9-11.2,20.7c-2.1-4.3-4.6-8.4-7.5-12.3c-0.5-0.7-1.7,0-1.2,0.7c3,4.1,5.6,8.4,7.8,13
		c-2.8,4.7-5.7,9.4-8.6,14c-3.2,5-6.5,10-9.9,14.9c-1.7-4.5-3.6-8.9-5.9-13c-0.4-0.8-1.6,0-1.2,0.7c2.3,4.3,4.3,8.8,6,13.4
		c0,0.1,0.1,0.2,0.2,0.3c-4.1,6.1-8.2,12.2-12.1,18.3c-0.8,1.2-1.5,2.3-2.2,3.5c-1.6-3.5-3.6-6.7-6-9.6c-0.5-0.7-1.5,0.3-1,1
		c2.4,3,4.4,6.2,6,9.7c0,0.1,0.1,0.1,0.1,0.2c-6.2,9.8-9.9,15.7-15,26.1c-6.2,12.5,2.1-1.3,5.2-7c3.4-6.1,7-12.1,10.7-18
		c0,0,0,0,0-0.1c4.7,0.1,9.3,0.7,13.8,1.7c0.8,0.2,1.2-1.2,0.4-1.3c-4.4-1-8.8-1.5-13.3-1.7c4.8-7.6,9.9-15.2,14.9-22.7
		c5,0.2,9.9,0.4,14.9,0.6c0.9,0,0.9-1.3,0-1.4c-4.7-0.2-9.3-0.4-14-0.5c6.4-9.6,12.7-19.1,18.5-29c4.6-0.5,9.2-0.4,13.7,0.4
		C382.5,133.1,382.9,131.7,382,131.6"/>
	<path class="st0" d="M378.1,90.1c0.3,0.5,0.6,1.1,0.8,1.6c0.2,0.5,0.7,0.8,1.3,0.5c0.5-0.2,0.8-0.9,0.6-1.3
		c-0.3-0.5-0.6-1.1-0.8-1.6c-0.2-0.5-0.7-0.8-1.3-0.5C378.3,88.9,377.9,89.6,378.1,90.1"/>
	<path class="st0" d="M383.2,87.7c-0.1,0.6-0.3,1.3-0.4,1.9c-0.1,0.5,0.3,1.1,0.8,1.1c0.6,0.1,1-0.4,1.2-0.9
		c0.1-0.6,0.3-1.3,0.4-1.9c0.1-0.5-0.3-1.1-0.8-1.1C383.7,86.7,383.3,87.1,383.2,87.7"/>
	<path class="st0" d="M372.5,90.8l1,1.9c0.2,0.5,0.7,0.8,1.3,0.5c0.5-0.2,0.8-0.9,0.6-1.3l-1-1.9c-0.2-0.5-0.7-0.8-1.3-0.5
		C372.6,89.7,372.3,90.4,372.5,90.8"/>
	<path class="st0" d="M391.6,95.7c-0.3,0.5-0.6,1-0.8,1.4c-0.3,0.5,0,1.2,0.5,1.3c0.6,0.2,1-0.1,1.3-0.6c0.3-0.5,0.6-1,0.8-1.4
		c0.3-0.5,0-1.2-0.5-1.3C392.4,94.9,391.9,95.2,391.6,95.7"/>
	<path class="st0" d="M396.3,100.6c-0.1,0.1-0.2,0.2-0.3,0.3c-0.1,0-0.1,0.1-0.2,0.1c0.1,0,0.1,0,0,0c-0.1,0.1-0.2,0.1-0.3,0.2
		c0,0-0.4,0.1-0.2,0.1c-0.5,0.1-1,0.6-0.9,1.2c0.1,0.5,0.5,1,1.1,0.9c0.8-0.2,1.4-0.5,2.1-1.1c0.4-0.4,0.6-1,0.2-1.4
		C397.3,100.4,396.7,100.2,396.3,100.6"/>
	<path class="st0" d="M395,106.5c-0.7-0.1-1.3-0.3-2-0.4c-0.5-0.1-1.1,0.4-1.2,0.9c-0.1,0.6,0.3,1,0.8,1.1c0.7,0.1,1.3,0.3,2,0.4
		c0.5,0.1,1.1-0.4,1.2-0.9C395.9,107,395.5,106.6,395,106.5"/>
	<path class="st0" d="M350.9,119.2c0.7,0.1,1.4,0.2,2,0.3c0.5,0.1,1.1-0.4,1.2-0.9c0.1-0.6-0.3-1.1-0.8-1.1l-2-0.3
		c-0.5-0.1-1.1,0.4-1.2,0.9C350,118.7,350.4,119.2,350.9,119.2"/>
	<path class="st0" d="M354.6,113.5c0.4,0.6,0.8,1.2,1.2,1.8c0.7,1.1,2.4-0.2,1.6-1.3c-0.4-0.6-0.8-1.2-1.2-1.8
		C355.5,111.2,353.8,112.5,354.6,113.5"/>
	<path class="st0" d="M361.3,111.3c-0.3,0.6-0.4,1.4-0.4,2.1c0,0.5,0.6,1,1.1,0.9c0.5-0.1,1-0.6,0.9-1.2c0,0,0-0.4,0-0.2
		c0-0.1,0-0.2,0-0.4c0-0.1,0-0.1,0-0.2c0,0.1,0,0.1,0,0c0-0.1,0.1-0.2,0.1-0.3c0.2-0.5,0-1.2-0.5-1.3
		C362.1,110.6,361.5,110.8,361.3,111.3"/>
	<path class="st0" d="M365.8,114.4c-0.2,0.4-0.4,0.8-0.7,1.2c-0.3,0.5,0,1.2,0.5,1.3c0.5,0.2,1.1-0.1,1.3-0.6
		c0.2-0.4,0.4-0.8,0.7-1.2c0.3-0.5,0-1.2-0.5-1.3C366.5,113.6,366,113.9,365.8,114.4"/>
	<path class="st0" d="M380.8,126.8c-0.1,0.5-0.2,0.9-0.3,1.4c-0.1,0.5,0.3,1.1,0.8,1.1c0.6,0,1-0.3,1.2-0.9c0.1-0.5,0.2-0.9,0.3-1.4
		c0.1-0.5-0.3-1.1-0.8-1.1C381.4,125.9,380.9,126.2,380.8,126.8"/>
	<path class="st0" d="M387.1,129.7c-0.6,0.2-1.1,0.4-1.7,0.6c-0.5,0.2-0.8,0.9-0.6,1.3c0.2,0.5,0.8,0.7,1.3,0.5
		c0.6-0.2,1.1-0.4,1.7-0.6c0.5-0.2,0.8-0.9,0.6-1.3C388.2,129.7,387.6,129.5,387.1,129.7"/>
	<path class="st0" d="M386.2,136.3c-0.5-0.5-1-0.9-1.5-1.4c-0.4-0.4-1.1-0.2-1.4,0.2c-0.4,0.5-0.3,1.1,0.1,1.4
		c0.5,0.5,1,0.9,1.5,1.4c0.4,0.4,1.1,0.2,1.4-0.2C386.7,137.3,386.6,136.7,386.2,136.3"/>
	<path class="st0" d="M379,137.9c0.3,0.6,0.6,1.3,1,1.9c0.2,0.5,0.7,0.8,1.3,0.5c0.5-0.2,0.8-0.9,0.6-1.3l-1-1.9
		c-0.2-0.5-0.7-0.8-1.3-0.5C379.1,136.8,378.7,137.5,379,137.9"/>
	<path class="st0" d="M336.5,150.9c-0.7-0.1-1.4-0.3-2.1-0.4c-0.5-0.1-1.1,0.4-1.2,0.9c-0.1,0.6,0.3,1,0.8,1.1
		c0.7,0.1,1.4,0.3,2.1,0.4c0.5,0.1,1.1-0.4,1.2-0.9C337.5,151.5,337.1,151,336.5,150.9"/>
	<path class="st0" d="M335.6,144.1c-1-0.5-2.1-1-3.1-1.5c-1.1-0.6-2,1.4-0.8,1.9c1,0.5,2.1,1,3.1,1.5
		C335.9,146.6,336.8,144.6,335.6,144.1"/>
	<path class="st0" d="M337.7,140c0.4,0.9,0.8,1.8,1.2,2.6c0.5,1.2,2.4,0.4,1.9-0.8c-0.4-0.9-0.8-1.8-1.1-2.6
		C339.1,138,337.2,138.8,337.7,140"/>
	<path class="st0" d="M345.3,139.5L345,141c-0.1,0.5,0.3,1.1,0.8,1.1c0.6,0,1-0.3,1.2-0.9c0.1-0.5,0.2-1,0.3-1.5
		c0.1-0.5-0.3-1.1-0.8-1.1C345.9,138.5,345.4,138.9,345.3,139.5"/>
	<path class="st0" d="M349.2,145.3c-0.5,0.6-1,1.3-1.5,1.9c-0.8,1.1,0.7,2.3,1.5,1.2c0.5-0.6,1-1.3,1.5-1.9
		C351.6,145.5,350,144.3,349.2,145.3"/>
	<path class="st0" d="M360.2,156c-0.2,0.6-0.5,1.2-0.7,1.9c-0.2,0.5,0,1.1,0.5,1.3c0.5,0.2,1.1-0.1,1.3-0.6c0.2-0.6,0.5-1.2,0.7-1.9
		c0.2-0.5,0-1.1-0.5-1.3C361.1,155.2,360.4,155.5,360.2,156"/>
	<path class="st0" d="M368.9,154.5c-0.7,0.9-1.3,1.7-2,2.6c-0.8,1.1,0.7,2.3,1.5,1.2c0.7-0.9,1.3-1.7,2-2.6
		C371.3,154.7,369.8,153.4,368.9,154.5"/>
	<path class="st0" d="M370.3,163c-1.1-0.2-2.1-0.4-3.2-0.6c-1.3-0.2-1.6,1.8-0.3,2c1.1,0.2,2.1,0.4,3.2,0.6
		C371.2,165.3,371.5,163.2,370.3,163"/>
	<path class="st0" d="M366.9,170.1c-0.8-0.6-1.5-1.2-2.3-1.8c-1-0.8-2.3,0.9-1.3,1.6c0.8,0.6,1.5,1.2,2.3,1.8
		C366.6,172.5,367.9,170.9,366.9,170.1"/>
	<path class="st0" d="M361.1,172.8c-0.8-1.2-1.7-2.3-2.8-3.3c-1-0.8-2.2,0.8-1.3,1.6c1,0.8,1.8,1.8,2.4,2.9
		C360.2,175.2,361.8,173.9,361.1,172.8"/>
	<path class="st0" d="M321.4,179.5c-1,0.1-2.1,0.3-3.1,0.4c-1.3,0.2-1.1,2.2,0.2,2c1-0.1,2.1-0.3,3.1-0.4
		C322.8,181.4,322.7,179.3,321.4,179.5"/>
	<path class="st0" d="M318,175.6c0.8,0.4,1.5,0.7,2.3,1.1c0.5,0.2,1.1-0.1,1.3-0.6c0.2-0.5,0-1.1-0.5-1.3c-0.8-0.4-1.5-0.7-2.3-1.1
		c-0.5-0.2-1.1,0.1-1.3,0.6C317.2,174.8,317.5,175.4,318,175.6"/>
	<path class="st0" d="M320.2,168.4c0.6,0.5,1.3,1,1.9,1.5c1,0.8,2.3-0.9,1.3-1.6c-0.6-0.5-1.3-1-1.9-1.5
		C320.5,165.9,319.2,167.6,320.2,168.4"/>
	<path class="st0" d="M328.8,167.2c0,0.7,0.1,1.5,0.1,2.2c0,0.5,0.6,1,1.1,0.9c0.6-0.1,0.9-0.6,0.9-1.2c0-0.7-0.1-1.5-0.1-2.2
		c0-0.5-0.6-1-1.1-0.9C329.1,166.1,328.7,166.6,328.8,167.2"/>
	<path class="st0" d="M332.3,172.4c-0.3,0.6-0.6,1.1-0.9,1.7c-0.3,0.5,0,1.1,0.5,1.3c0.5,0.2,1.1-0.1,1.3-0.6
		c0.3-0.6,0.6-1.1,0.9-1.7c0.3-0.5,0-1.1-0.5-1.3C333.1,171.6,332.5,171.9,332.3,172.4"/>
	<path class="st0" d="M343.8,180.1c-0.6,0.5-1.3,1-1.9,1.5c-1.1,0.8,0.1,2.4,1.2,1.6c0.6-0.5,1.3-1,1.9-1.5
		C346,180.8,344.8,179.2,343.8,180.1"/>
	<path class="st0" d="M349.7,181.4c-0.6,0.6-1.3,1.1-2.1,1.4c-1.2,0.6-0.5,2.5,0.7,1.9c0.9-0.4,1.8-1,2.5-1.7c0.4-0.4,0.6-1,0.2-1.4
		C350.9,181.2,350.2,181,349.7,181.4"/>
	<path class="st0" d="M354.6,186.7c-1.1,0.1-2.2,0-3.2-0.3c-0.5-0.1-1.1,0.4-1.2,0.9c-0.1,0.6,0.3,1,0.8,1.1
		c1.2,0.3,2.5,0.4,3.8,0.2C356.1,188.6,355.9,186.6,354.6,186.7"/>
	<path class="st0" d="M352.7,192.7c-1-0.6-2-1.1-2.9-1.7c-0.5-0.3-1.1,0.1-1.3,0.6c-0.3,0.6,0,1.1,0.5,1.3c1,0.6,2,1.1,2.9,1.7
		c0.5,0.3,1.1-0.1,1.3-0.6C353.5,193.5,353.2,193,352.7,192.7"/>
	<path class="st0" d="M346.1,194.8c-1.3-1.6-2.5-3.3-3.8-4.9c-0.8-1-2.4,0.2-1.6,1.3c1.3,1.6,2.5,3.3,3.8,4.9
		C345.2,197.1,346.9,195.9,346.1,194.8"/>
	<path class="st0" d="M338.6,193c-0.7-0.5-1.4-1.1-2.1-1.6c-1-0.8-2.3,0.9-1.3,1.6c0.7,0.5,1.4,1.1,2.1,1.6
		C338.3,195.4,339.6,193.8,338.6,193"/>
</g>
<rect x="172.3" y="36" class="st9" width="161.9" height="122.6"/>
<path class="st10" d="M251.4,212.6c-1,0.3,0.3,5.6,0.4,5.9c0,0.3-2.4,1.2-3,1.2c-0.6,0-4.8-1.2-4.5-1.7c0.3-0.5,0.7-1.9,0.6-3.7
	c-0.6-16-3.2-33-3.7-49.3c1.1,0.2,1.7,0.3,2.8,0.6c6.1,14.9,3.4,31.1,18.2,45.9c-4.3,1.7-5.7,1.4-10.2,1.4
	C251.9,212.7,251.8,212.5,251.4,212.6L251.4,212.6z"/>
<path class="st10" d="M238.3,167.9c0-0.2-0.1-0.6-0.1-0.6S238.4,168.7,238.3,167.9z"/>
<path class="st10" d="M267.8,239.8c0-1.4-1.4-3.6-1.4-3.6s-0.4,0.5-0.2,1.7c-2.9-7-8.6-13.7-11.2-20.8c-6.1-16.9-6.3-34-11.2-50.9
	c-1.1-0.4-1.7-0.6-2.8-0.8c0,0,10.8,0,11.1,0.2c0.5,0.5,0.6,0.5,0.8,1c0.1,0.2,0.2,0.9,0.2,1.5c0,0.2,0,0.5,0,0.7c0.1,1,0,0.2,0-0.7
	c-0.1-1.3,0.2-2.3,0.4-2.6c0.3-0.4,7.5-1.2,7.5-1.2s1.4,0.3,1.7,1.5c0.2,1.2,0.3,1.2,0.2,0c-0.1-1.2,0.5-1.2,1-1.3
	c2.5-0.1,3.6,1.6,3.6,2.3c0.6,8.5-0.6,17.3-0.5,25.8c0.2,13.7,1.6,28.1,3.8,42.2c0.9,6.1-1.6,8.3-1.6,8.3c-0.4-0.4-0.6-0.6-0.9-1
	C268.4,242.4,267.9,241.2,267.8,239.8L267.8,239.8z"/>
<path class="st11" d="M267.6,168.7c0,0.7,0,1.4,0,2.1c0,2,0.4,16.7,0.4,18.8c0,1.3-0.1,2.7,0,4c0.6,13.9,1.8,28.4,3.9,42.6
	c0.9,6.1,0.5,7.4,0.5,7.4c-0.8-0.1-1.4-0.2-2.8-0.4c0,0-0.2-0.8-0.2-2.2c-0.1-1.4-1.4-3.8-1.4-3.8s-0.5,0.7,0,2.6
	c0.5,1.8,0.8,3.3,0.3,3.4c-1.5,0.4-14.1-1.6-14.3-1.8c-0.8-0.6-0.4-4.8-1-6.2c-0.2-0.6-0.2-1.2-0.3-1.7c0-0.8,0-1.3-0.6-1
	c-1,0.5,0.5,7.7,0.6,8.2c0.1,0.5-3.2,0.6-3.8,0.6c-0.6,0-1.7-0.4-1.4-1.2c0.3-0.7,0.6-2.7,0.4-5.1c-2.2-22.3-3.4-46.5-4-69.3
	c0,0,0.8,0,2,0.2c0.1,0,0.3,0,0.4,0c0.6,0.1,1.3,0.2,2,0.2c0.9,0.1,1.9,0.2,2.6,0.1c0.7,0,1.2-0.1,1.6-0.1c0.3,0,0.5,0,0.5,0.1
	c0,0.4,0.6,4.4,0.8,5.1c0.2,0.7,0.6-0.1,0.5-1.7c-0.2-1.7,0.1-3,0.5-3.4c0.2-0.2,2.4-0.7,4.4-1c1.5-0.2,2.7-0.3,2.7-0.3
	s1.1,0.3,1.4,1.5c0.2,1.2,1,1.6,0.9,0.4c-0.1-1.2,0.1-1.2,0.5-1.3c0.3-0.1,0.7,0,1,0c0,0,1.9,0.9,1.9,1.2
	C267.6,167.2,267.6,168.7,267.6,168.7L267.6,168.7z"/>
<path class="st12" d="M248.5,165.3c0,0,0,0.2,0,0.2s0,0,0,0c0,0,0,0,0,0C248.5,165.3,248.5,165.3,248.5,165.3L248.5,165.3z"/>
<path class="st12" d="M248.5,165.2L248.5,165.2C248.5,165.3,248.5,165.3,248.5,165.2L248.5,165.2L248.5,165.2z"/>
<path class="st12" d="M243.6,165c0-0.1,0-0.1,0.1-0.2C243.7,164.8,243.7,165,243.6,165C243.6,165,243.6,165,243.6,165L243.6,165z"/>
<path class="st12" d="M264.7,165.7C264.7,165.7,264.7,165.7,264.7,165.7C264.7,165.7,264.7,165.7,264.7,165.7L264.7,165.7
	L264.7,165.7z"/>
<g>
	<path class="st10" d="M267.7,237.6c0,0-1.2-7-1.2-8.1c0-6.6-1.7-14.2-2.9-21.2c0-0.3-0.1-0.5-0.1-0.6c-0.2-0.7-0.4-2.1-0.5-3.7
		c-0.3-3.6-0.5-8.7-0.4-10c0.2-9.4,0.5-28.2,0.5-28.2s0,0,0,0c0.1,0.3,0.2,1.1,0.2,2.1c0.1,1.6,0,4-0.3,6.6
		c-1,7.9-0.2,16.3,0.2,24.5c0.1,1.3,0.2,2.5,0.5,3.5c0.1,0.3,0.1,0.8,0.2,1.5c0.9,9.5,1.7,19.3,3.6,28.8
		C267.9,234.7,267.7,237.6,267.7,237.6L267.7,237.6z"/>
	<path class="st10" d="M266.6,165.7L266.6,165.7C266.6,165.8,266.6,165.8,266.6,165.7L266.6,165.7z M269.7,227.7
		c0,0,0.1-2.5-0.2-4.2c-1.3-8.9-2-18-2.4-26.9c0-0.5-0.1-1-0.1-1.2c-0.2-0.9-0.3-1.8-0.3-2.9c-0.3-6.8-0.6-13.7,0-20.2
		c0.2-1.8,0.2-3.6,0.1-4.8c-0.1-1-0.2-1.7-0.2-1.7s0,0.1,0,0.1c0.2,7.6-0.1,15.2-0.4,22.8c0,0.9,0,4.7,0.1,7.6
		c0.1,1.3,0.2,2.5,0.3,3.1c0,0.1,0,0.3,0.1,0.6c0.5,6.9,2.1,14.2,2.2,20.8C268.9,221.9,269.7,227.7,269.7,227.7L269.7,227.7z"/>
	<path class="st10" d="M259.1,236.5c0-0.2,0.5-4.1,0.5-5.2c0-1.1-0.1-11.6-0.1-13.1c-0.1-6.2,0.1-12.4,0-18.5
		c-0.2-10.7-1.1-32.4-1.1-32.4s1.6,27.1,2.1,40.5c0.2,6.3,0.7,15.7,0.6,17.6C261,227.4,259.2,236.1,259.1,236.5
		C259.1,236.5,259.1,236.5,259.1,236.5C259.1,236.5,259.1,236.5,259.1,236.5L259.1,236.5z"/>
	<path class="st10" d="M246.8,192.6c2.5,8.4,3.5,16.9,3.8,25.1c0.1,2.4-0.4,13.3-0.4,14.7c0.1,1.4-0.9,2.5-0.9,2.5
		c-2.7-3.3,0.5-11.8,0.7-17.7c0-0.2-0.5-4.4-0.5-4.7C249.4,206,248.4,199.3,246.8,192.6L246.8,192.6z"/>
	<path class="st10" d="M254.2,236.1L254.2,236.1c0,0,0.2-0.5,0.5-0.8c0,0,1.8-9.1,1.5-10.9c-0.3-1.8-0.5-7.2-0.5-8.2
		c0-0.1,0-0.1,0-0.1c0,0.2,1.1,8.4,1.4,9.5c0.3,1.2-0.3,10.3-1.1,10.6C255.8,236.3,254.5,236.1,254.2,236.1L254.2,236.1z"/>
	<path class="st10" d="M248.4,175.6c-0.5-4.5-1-8.9-1.1-9.5l0,0c1.5,10.4,2.9,20.9,4,31.3c0.2,1.7,1.8,15.9,1.8,15.9
		s2.3-6.1,2.6-7.8c1.3-9.9-0.7-21.4-0.3-31.7c0.1-1.6,1.8-8.2,1.8-8.2s-0.6,5.2-0.8,8.5c-0.7,10.4,2.2,22.1-0.1,32.3
		c-1.4,6-2.9,8.4-2.9,8.4c-1.1-6.2-1.7-12.5-2.4-18.7C250.1,189.4,249.3,182.5,248.4,175.6L248.4,175.6z"/>
	<path class="st10" d="M253.4,172.7c0.2-1,0.4-1.7,0.4-1.7S253.6,171.6,253.4,172.7L253.4,172.7z M249.9,166.6
		c1.3,11.7,3.5,35.2,3.5,35.2c0,0-0.7-18.5-0.2-27.4c0-0.7,0.2-1.7,0.2-1.7l0.2,24.8c0,0-1.5-14.7-2.2-22.1
		C251.2,173,249.9,166.6,249.9,166.6C249.9,166.6,249.9,166.6,249.9,166.6L249.9,166.6z"/>
</g>
<path class="st10" d="M176.6,174.6c-1.7,1.3-25.9,1.3-27.5,1.3c-1.6,0.1-6.3,3.2-6.4,4c0,0.7,4.2,5.4,6.7,4.9
	c2.5-0.5,9.2-1.4,17.5-1.9c74.5-4.1,121.1-6.1,197.3-10.4c-0.5-1.3-1-1.9-2.2-3.1c-68-2.8-112,5.3-177.4-8
	c-9.2,5.6-8.1,7.3-9.4,12.6C176.7,173.9,177.4,174,176.6,174.6L176.6,174.6z"/>
<path class="st10" d="M147.3,174.5c7.6-1.1,15.6-0.6,20.3-0.3c1.9,0.1,3.9,0,5.6-0.1c0.8,0,1.5-0.1,2.1-0.1c1.3-5.3,0.2-7,9.4-12.6
	c-7.6-1.6-12.5-2.4-25.5-3.9c-0.7,0-1.5,0-2.3,0c-5.6-0.2-11.9,14.6-12.7,15.4C143.6,173.4,145.4,173.6,147.3,174.5L147.3,174.5z"/>
<path class="st10" d="M153.4,156c4.6-0.2,11.7,0.9,11.7,0.9s-1.9,0.5-5.8,0.6c22.9,2,44.1,7.5,67.1,9.1c55.3,3.8,80,0.5,135.7,2.8
	c1.2,1.2,1.6,1.9,2.2,3.1c0,0,2.5-12.9,1.8-13.1c-1.4-0.5-1.4-0.6-3.3-0.7c-0.8,0-2.9,0-4.8,0c-0.7,0-1.5,0.1-2.3,0.1
	c-3.3,0.1-0.6,0,2.3-0.1c4.2-0.2,7.7-0.7,8.9-1.1c1.4-0.5,5.8-9.1,5.8-9.1s-0.8-1.6-4.7-1.7c-3.9,0-4.1-0.1-0.1-0.3
	c4-0.1,4.3-0.9,4.5-1.4c1.1-3-4.4-3.9-6.7-3.8c-28.4,1-58.4,4.3-86.8,5.9c-46,2.5-61.6,3.8-108.4,4.2c-20.2,0.2-28.4,3.6-28.4,3.6
	c1.2,0.4,1.8,0.5,3,0.9C145,155.9,148.8,156.2,153.4,156L153.4,156z"/>
<path class="st11" d="M358.8,141.6c-2.3,0.2-4.7,0.3-7.1,0.4c-6.8,0.5-55.9,3-63,3.5c-4.4,0.3-8.9,0.6-13.3,0.9
	c-46.5,2.3-62.2,3.9-109.4,4.4c-20.3,0.2-24.8,0.9-24.8,0.9c0.1,1,0.3,1.7,0.7,3.3c0,0,2.5,0,7.3-0.2c4.8-0.2,12.3,0.9,12.3,0.9
	s-2.6,0.7-8.5,0.5c-5.9-0.2-10.8-0.3-11.3,0.3c-1.6,1.9,1.6,16.5,2.2,16.7c1.9,0.8,16-0.5,20.6-0.2c1.8,0.1,3.9,0,5.5,0
	c2.6-0.1,4.3-0.2,3.2,0.5c-1.8,1.3-25.7,1-27.4,1.1c-1.6,0-3,4-3,4.7c0,0.7,1,2,3.5,1.5c2.5-0.5,9.3-1.3,17-1.5
	c74-2.1,122.6-5.8,198.7-10c0,0,0.1-1,0-2.4c0-0.2,0-0.3-0.1-0.5c-0.1-0.7-0.2-1.5-0.3-2.3c-0.1-1.1-0.1-2.2,0.2-3.1
	c0.3-0.8,0.8-1.5,0.9-2c0.1-0.3,0.1-0.6-0.1-0.6c-1.4,0-14.7,0.2-16.8,0.2c-2.2-0.1,0.4-0.8,6-0.9c5.6-0.1,10.2-0.7,11.7-1.3
	c0.9-0.3,3.1-3,4.6-5.5c1.2-1.9,1.8-3.3,1.8-3.3s-0.6-1.3-4.5-1.3c-3.9,0-5.2-0.9-1.2-1c4-0.2,4-0.4,4.6-0.9
	c0.4-0.3,0.3-0.9,0.2-1.2c0,0-2.5-2.1-3.7-2.1C364.2,141.3,358.8,141.6,358.8,141.6L358.8,141.6z"/>
<g>
	<path class="st10" d="M141.9,157.6c0,0,24.8-0.2,28.8-0.4c23.9-1.5,50.7-1.2,75.8-1.5c0.9,0,1.7,0,2.2,0c2.6,0.1,7.4,0,13.2-0.2
		c13-0.5-1.1-1.5,3.3-1.8c33.9-2.4,101.9-7.1,101.9-7.1s-0.1,0-0.1,0c-1.2,0-3.8,0-7.3,0.2c-5.9,0.2-14.5,0.9-24,1.9
		c-28.7,3-58.9,4.1-88.2,5.4c-4.8,0.2,23.4,0.3,20.1,0.2c-1.1,0-2.9,0-5.3,0.1c-34.1,1.2-69.1,2.5-102.9,2.4
		C152.5,156.7,141.9,157.6,141.9,157.6L141.9,157.6z"/>
	<path class="st10" d="M368.4,142.3C368.4,142.3,368.4,142.3,368.4,142.3L368.4,142.3L368.4,142.3z M178.2,152.9
		c0,0,20.9-0.4,24.9-0.6c23.9-1.4,17.1-1.2,41.9-2.2c0.8,0,1.5-0.1,2-0.1c2.4,0,6.5-0.2,11.3-0.4c10.5-0.5,24.2-1.3,27.4-1.6
		c27.4-2.1,54.9-4.2,82.4-5.7c0.1,0,0.3,0,0.3,0s-2.8,0.1-6.3,0.2c-4.5,0.2-10.9,0.7-17.4,1.3c-23.7,2.2-48.7,3.4-72.9,4.6
		c-3.7,0.2-7.2,0.3-10.2,0.3c-1,0-2.5,0-4.5,0.1c-31.9,1.5-32,2.9-63.8,3.3C187.2,152.3,178.2,152.9,178.2,152.9L178.2,152.9z"/>
	<path class="st10" d="M143.8,167.6c0.8,0,14.9-1.5,18.8-1.8c4-0.3,41.8-2.6,47.3-2.9c22.2-1.3,12.3-3,34.3-4.3
		c38.4-2.2,116.5-6.1,116.5-6.1s-64.9,4.3-113.2,6.9c-22.5,1.2-56.5,2.8-63.4,3.3C177.1,163.2,145,167.4,143.8,167.6
		C143.8,167.6,143.8,167.6,143.8,167.6C143.8,167.6,143.8,167.6,143.8,167.6L143.8,167.6z"/>
	<path class="st10" d="M266.1,172.1c-29.8-1-27.7-0.2-57.1,1.3c-8.8,0.5-48.2,3.6-53.1,3.8c-4.9,0.2-9.3,1.6-9.1,1.7
		c11.4,2.5,42.7-3.4,64-4.9c0.9-0.1,15.9-0.4,16.9-0.4C251.2,172.1,242.4,171.8,266.1,172.1L266.1,172.1z"/>
	<path class="st10" d="M143.9,173.3L143.9,173.3c0,0,1.7-0.4,3.1-0.8c0,0,33.2-4.3,39.6-4.3c6.4,0,25.7-1,29.3-1.3
		c0.2,0,0.3,0,0.3,0c-0.9,0-30,0.6-34,0.5c-4.1-0.1-37.4,2.8-38.4,3.8C143.4,171.5,143.8,172.9,143.9,173.3L143.9,173.3z"/>
	<path class="st10" d="M328,166.2c16.2-0.4,31.7-0.9,33.9-0.9l0,0c-37.3,0.6-74.6,1.3-111.8,2.5c-6,0.2-24.4,1.5-24.4,1.5
		s22.6-4.2,28.9-4.9c36.1-3.8,44.4-4.1,81.8-7c5.9-0.4,30.1-4,30.1-4s-18.8,1.9-31,3c-37.7,3.3-46.5,2.4-84.2,7.7
		c-22,3.1-31.2,5.5-31.2,5.5c22.2-0.1,12-0.9,34.2-1.4C278.7,167.4,303.4,166.8,328,166.2L328,166.2z"/>
	<path class="st10" d="M339.8,159.6c4.1-0.5,6.1-0.8,6.1-0.8S343.5,159.1,339.8,159.6L339.8,159.6z M360.8,162.3
		C360.8,162.3,360.8,162.3,360.8,162.3c0,0-22.8,0-31.2,0.3c-26.3,0.9-79,2.5-79,2.5l89.2-5.5c0,0-3.8,0.4-6.2,0.6
		c-32.2,2.6-66.3,6.1-66.3,6.1C267.3,166.3,318.8,163.5,360.8,162.3L360.8,162.3z"/>
</g>
<path class="st10" d="M154.8,35.6c-1.3-1.2-1.1-18.2-1.1-19.3c0-1.1-3.2-4.4-4-4.4c-0.7,0-5.5,3-5,4.7c0.5,1.7,1.3,6.5,1.7,12.3
	c3.5,52.2,4.9,107.7,8.6,161.1c1.3-0.4,1.9-0.7,3.2-1.5c3.4-47.8-4.2-101.3,9.9-147.3c-5.6-6.4-7.3-5.6-12.7-6.5
	C155.4,35.7,155.3,36.1,154.8,35.6L154.8,35.6z"/>
<path class="st10" d="M155.1,15.1c1.1,5.4,0.5,10.9,0.1,14.2c-0.1,1.3,0,2.8,0.1,4c0,0.6,0.1,1.1,0.1,1.5c5.4,0.9,7.1,0.1,12.7,6.5
	c1.7-5.4,2.5-8.8,4.2-17.9c0-0.5,0-1,0.1-1.6c0.3-3.9-14.7-8.2-15.5-8.8C156.2,12.4,156,13.7,155.1,15.1L155.1,15.1z"/>
<path class="st10" d="M173.8,19.2c0.2,3.2-1,8.2-1,8.2s-0.5-1.3-0.5-4.1c-2.2,16.1-8,31-9.8,47.1c-4.3,38.8-1.4,79-4.3,118
	c-1.3,0.8-1.9,1.2-3.2,1.5c0,0,13,1.7,13.3,1.1c0.5-1,0.7-1,0.8-2.3c0-0.5,0-2,0-3.4c0-0.5-0.1-1.1-0.1-1.6c-0.1-2.3,0-0.4,0.1,1.6
	c0.1,3,0.6,5.4,1,6.2c0.5,1,9.2,4,9.2,4s1.7-0.6,1.8-3.3c0.1-2.7,0.2-2.9,0.3,0c0.1,2.8,0.9,3,1.4,3.2c3,0.7,4-3.1,3.9-4.8
	c-0.8-19.9-3.9-40.9-5.3-60.9c-2.2-32.3-3.1-66-3.1-98.8c0-14.1-3.4-19.9-3.4-19.9c-0.4,0.8-0.6,1.3-1,2.1
	C174,13.3,173.6,15.9,173.8,19.2L173.8,19.2z"/>
<path class="st11" d="M186.3,186c-0.1-1.6-0.2-3.3-0.4-5c-0.4-4.8-2.6-39.2-3-44.1c-0.3-3.1-0.6-6.3-0.8-9.3
	c-1.9-32.6-3.1-66.4-3.2-99.5c-0.1-14.3-0.7-17.4-0.7-17.4c-1,0.1-1.7,0.2-3.4,0.5c0,0-0.1,1.8,0.1,5.1c0.2,3.4-1,8.6-1,8.6
	s-0.7-1.8-0.4-6c0.3-4.2,0.4-7.5-0.2-7.9c-1.9-1.1-16.7,1.3-17,1.7c-0.9,1.3,0.4,11.2,0,14.4c-0.2,1.3-0.1,2.7,0,3.9
	c0.1,1.8,0.2,3-0.6,2.2c-1.3-1.2-0.8-18-0.8-19.2c0-1.2-4-2.1-4.8-2.1c-0.8,0-2,0.7-1.5,2.5c0.5,1.8,1.3,6.5,1.4,11.9
	c1.5,51.9,4.6,108.8,8.2,162.1c0,0,1,0.1,2.4-0.1c0.2,0,0.3,0,0.5,0c0.7-0.1,1.5-0.2,2.3-0.2c1.1-0.1,2.2-0.1,3.1,0.1
	c0.9,0.2,1.5,0.5,2,0.6c0.3,0.1,0.6,0.1,0.6-0.1c0-1-0.1-10.3,0-11.8c0.1-1.5,0.8,0.2,0.9,4.2c0.1,3.9,0.7,7.1,1.2,8.2
	c0.3,0.6,3.1,2.1,5.6,3.2c1.9,0.8,3.3,1.2,3.3,1.2s1.3-0.4,1.4-3.2c0.1-2.8,0.9-3.6,1-0.8c0.1,2.8,0.4,2.8,0.8,3.2
	c0.3,0.3,0.9,0.2,1.2,0.1c0,0,2.2-1.8,2.1-2.6C186.6,189.7,186.3,186,186.3,186L186.3,186z"/>
<path class="st10" d="M172.3,11.1c0,0,0,17.4,0.2,20.2c1.4,16.7,0.8,35.6,0.9,53.2c0,0.7,0,1.2,0,1.6c-0.1,1.9-0.1,5.2,0.1,9.2
	c0.4,9.1,1.2,22,1.5,25.1c2.1,23.8,6.4,71.4,6.4,71.4s0-0.1,0-0.1c0-0.8,0-2.7-0.1-5.1c-0.2-4.1-0.8-10.2-1.7-16.8
	c-2.8-20.1-3.6-41.3-4.7-61.8c-0.2-3.4-0.2-6.4-0.1-8.7c0-0.8,0-2-0.1-3.7c-0.9-23.9-1.9-48.5-1.6-72.2
	C173.1,18.6,172.3,11.1,172.3,11.1L172.3,11.1z"/>
<path class="st10" d="M185.6,192.7C185.6,192.7,185.6,192.7,185.6,192.7L185.6,192.7L185.6,192.7z M176.7,36.6
	c0,0,0.2,14.7,0.4,17.5c1.2,16.7,0.8,34.8,1.6,52.2c0,0.6,0,1,0,1.4c0,1.7,0.1,4.6,0.3,7.9c0.4,7.4,1.2,17,1.4,19.2
	c1.9,19.2,3.8,38.5,5.1,57.7c0,0.1,0,0.2,0,0.2s0-1.9-0.2-4.4c-0.2-3.1-0.6-7.7-1.2-12.2c-2-16.6-3-34.1-4.1-51.1
	c-0.2-2.6-0.2-5.1-0.2-7.2c0-0.7,0-1.8-0.1-3.1c-1.3-22.3-2.4-45.3-2.6-67.5C177.3,42.9,176.7,36.6,176.7,36.6L176.7,36.6z"/>
<path class="st10" d="M162.2,12.5c0,0.6,1.4,10.5,1.6,13.1c0.3,2.8,2.3,29.3,2.5,33.1c1.1,15.6,2.7,31.4,3.8,46.8
	c1.9,26.9,5.2,81.7,5.2,81.7s-3.6-68.3-5.8-102.2c-1-15.8-2.4-39.6-2.8-44.5C166.3,35.9,162.3,13.4,162.2,12.5
	C162.2,12.6,162.2,12.5,162.2,12.5C162.2,12.5,162.2,12.5,162.2,12.5L162.2,12.5z"/>
<path class="st10" d="M156.3,121.2c1.3-20.9,0.7-42.2-0.6-62.9c-0.4-6.1-3.3-33.8-3.5-37.2c-0.2-3.5-1.6-6.5-1.6-6.4
	c-2.6,8,3.1,29.9,4.5,44.9c0.1,0.6,0.3,11.2,0.3,11.9C156.7,88,156.8,104.6,156.3,121.2L156.3,121.2z"/>
<path class="st10" d="M156.3,12.7L156.3,12.7c0,0,0.4,1.2,0.8,2.2c0,0,4.1,23.2,4,27.7c0,4.5,0.8,18,1.1,20.5c0,0.2,0,0.2,0,0.2
	c0-0.6-0.3-21.1-0.2-23.8c0.1-2.9-2.5-26.2-3.5-26.9C158.2,12.3,156.7,12.6,156.3,12.7L156.3,12.7z"/>
<path class="st10" d="M161.7,164.5c0.3,11.4,0.6,22.2,0.6,23.7l0,0c-0.3-26.1-0.7-52.3-1.6-78.4c-0.1-4.2-1-39.9-1-39.9
	s4.1,15.8,4.7,20.2c3.6,25.3,3.5,53.9,6.1,80.1c0.4,4.1,3.8,21.1,3.8,21.1s-1.8-13.2-2.8-21.7c-3-26.4-1.8-55.4-6.8-81.8
	c-2.9-15.4-5.3-21.8-5.3-21.8c-0.1,15.6,0.5,31.2,0.9,46.8C160.9,130,161.3,147.3,161.7,164.5L161.7,164.5z"/>
<path class="st10" d="M168.3,172.8c0.4,2.9,0.8,4.3,0.8,4.3S168.8,175.4,168.3,172.8L168.3,172.8z M165.3,187.5
	C165.3,187.5,165.3,187.5,165.3,187.5c0,0,0.2-16,0-21.9c-0.7-18.4-1.8-55.4-1.8-55.4l4.8,62.6c0,0-0.4-2.7-0.6-4.4
	c-2.4-22.6-5.3-69.3-5.3-69.3C162.3,99.1,164.5,158.1,165.3,187.5L165.3,187.5z"/>
<path class="st10" d="M326.8,161.8c-1.3,1-1.9,17.1-2,18.1c-0.1,1.1-3.4,4-4.2,4c-0.7,0-5.4-3.1-4.8-4.8c0.6-1.6,1.6-6,2.3-11.5
	c5.9-49.1,9.8-101.3,15.9-151.5c1.3,0.4,1.9,0.8,3.1,1.6c1.2,45.2-8.8,95.4,3.2,139.5c-5.9,5.7-7.6,4.9-13,5.4
	C327.5,161.8,327.4,161.4,326.8,161.8L326.8,161.8z"/>
<path class="st10" d="M326.2,181.2c1.3-5,1-10.3,0.8-13.4c-0.1-1.2,0.1-2.6,0.2-3.7c0.1-0.5,0.1-1,0.2-1.4c5.4-0.5,7.1,0.3,13-5.4
	c1.4,5.1,2.1,8.4,3.3,17.1c0,0.5,0,1,0,1.6c0.1,3.7-15,6.9-15.9,7.5C327.2,183.8,327,182.5,326.2,181.2L326.2,181.2z"/>
<path class="st10" d="M347.8,22.8c0-0.5,0.1-1.5,0.1-1.5S347.6,24.9,347.8,22.8z"/>
<path class="st10" d="M345.1,178.4c0.4-3-0.6-7.8-0.6-7.8s-0.6,1.2-0.7,3.8c-1.5-15.3-6.5-29.7-7.6-45c-2.6-36.9,2.2-74.6,1.1-111.6
	c-1.2-0.9-1.9-1.2-3.1-1.6c0,0,13.1-0.8,13.3-0.3c0.4,1,0.6,1,0.7,2.2c0,0.5,0,1.9-0.2,3.2c0,0.5-0.1,1-0.1,1.5
	c-0.2,2.2,0,0.4,0.1-1.5c0.3-2.8,0.8-5,1.3-5.8c0.5-0.9,9.4-3.3,9.4-3.3s1.6,0.6,1.6,3.2c0,2.6,0,2.7,0.3,0.1c0.2-2.6,1-2.8,1.6-2.9
	c3.1-0.5,3.9,3.2,3.7,4.7c-1.7,18.7-5.8,38.4-8,57.2c-3.7,30.3-6.1,62.1-7.6,93.1c-0.6,13.3-4.3,18.6-4.3,18.6
	c-0.3-0.8-0.5-1.2-0.9-2C345,184,344.7,181.4,345.1,178.4L345.1,178.4z"/>
<path class="st11" d="M365.2,21.7c-0.2,1.5-0.4,3.1-0.6,4.7c-0.6,4.5-4.4,36.8-5,41.5c-0.4,2.9-0.9,5.9-1.2,8.7
	c-3.4,30.7-6.1,62.5-7.8,93.7c-0.7,13.5-1.5,16.4-1.5,16.4c-1-0.1-1.7-0.3-3.3-0.7c0,0,0-1.7,0.4-4.8c0.3-3.2-0.6-8.2-0.6-8.2
	s-0.8,1.7-0.7,5.6c0.1,3.9,0.1,7.1-0.6,7.5c-1.9,1-16.6-2.1-16.9-2.5c-0.8-1.3,0.9-10.5,0.7-13.6c-0.1-1.2,0.1-2.6,0.2-3.6
	c0.2-1.7,0.3-2.8-0.5-2.2c-1.4,1.1-1.6,17-1.7,18.1c-0.1,1.1-4.1,1.7-4.8,1.7c-0.7,0-2-0.8-1.4-2.4c0.6-1.6,1.5-6,2-11.2
	c3.9-48.9,9.6-102.4,15.6-152.5c0,0,1,0,2.4,0.2c0.2,0,0.3,0,0.5,0.1c0.7,0.1,1.5,0.2,2.3,0.3c1.1,0.1,2.2,0.2,3.1,0
	c0.9-0.1,1.5-0.4,2-0.5c0.3,0,0.6,0,0.6,0.1c-0.1,0.9-0.6,9.7-0.6,11.1c0,1.5,0.8-0.2,1.1-3.9c0.3-3.7,1-6.7,1.6-7.6
	c0.3-0.5,3.1-1.8,5.7-2.7c1.9-0.7,3.3-1,3.3-1s1.3,0.5,1.2,3.1c-0.1,2.6,0.7,3.5,1,0.8c0.3-2.7,0.5-2.6,1-3c0.4-0.3,0.9-0.1,1.2-0.1
	c0,0,2.1,1.8,2,2.6C365.6,18.2,365.2,21.7,365.2,21.7L365.2,21.7z"/>
<path class="st12" d="M341.3,18.2c0-0.1,0-0.2,0-0.2S341.3,18.1,341.3,18.2L341.3,18.2L341.3,18.2z"/>
<path class="st10" d="M343.2,185.9c0,0,0.8-16.4,1.1-19.1c2.1-15.7,2.4-33.5,3.3-50.1c0-0.6,0-1.1,0-1.5c0-1.8,0.2-4.9,0.5-8.7
	c0.8-8.6,2.2-20.7,2.7-23.6c3.2-22.3,9.6-67.1,9.6-67.1s0,0,0,0.1c0,0.8-0.1,2.5-0.4,4.9c-0.4,3.9-1.2,9.6-2.5,15.8
	c-3.7,18.8-5.5,38.8-7.5,58.1c-0.3,3.2-0.5,6-0.5,8.2c0,0.7-0.1,1.9-0.2,3.5c-2,22.5-4.1,45.6-4.8,68
	C344.4,178.9,343.2,185.9,343.2,185.9L343.2,185.9z"/>
<path class="st10" d="M364.7,15.3L364.7,15.3C364.7,15.3,364.7,15.3,364.7,15.3L364.7,15.3z M348.8,162.1c0,0,0.9-5.9,1.1-9.9
	c1.2-21,3.3-42.6,5.6-63.6c0.1-1.3,0.2-2.3,0.2-2.9c0.1-2,0.2-4.3,0.5-6.8c1.8-16,3.6-32.4,6.4-48c0.8-4.3,1.4-8.5,1.7-11.5
	c0.2-2.3,0.4-4.1,0.4-4.1s0,0.1,0,0.2c-2.2,18.1-5,36.2-7.7,54.2c-0.3,2.1-1.5,11.1-2.2,18c-0.3,3.1-0.6,5.8-0.7,7.4
	c0,0.3-0.1,0.8-0.1,1.3c-1.6,16.4-2,33.4-4,49.2C349.6,148.3,348.8,162.1,348.8,162.1L348.8,162.1z"/>
<path class="st10" d="M333.1,184c0.1-0.5,1.9-9.8,2.2-12.3c0.4-2.7,3.6-27.5,4-31.1c1.8-14.6,4.1-29.5,5.9-44
	c3.1-25.3,8.9-76.8,8.9-76.8s-6.7,64.2-10.4,96.1c-1.7,14.8-4.2,37.3-4.8,41.8C338.3,162.2,333.3,183.2,333.1,184
	C333.1,184,333.1,184,333.1,184C333.1,184,333.1,184,333.1,184L333.1,184z"/>
<path class="st10" d="M332.2,81.2c0.3,19.8-1.2,39.9-3.4,59.3c-0.7,5.8-4.8,31.7-5.1,34.9c-0.3,3.3-1.9,6.1-1.9,5.9
	c-2.2-7.7,4.4-28.1,6.5-42.1c0.1-0.6,0.8-10.5,0.9-11.2C331.1,112.6,331.9,96.9,332.2,81.2L332.2,81.2z"/>
<path class="st10" d="M327.3,183.5L327.3,183.5c0,0,0.4-1.1,0.9-2c0,0,5.1-21.7,5.3-25.9c0.2-4.2,1.7-17,2-19.3c0-0.2,0-0.2,0-0.2
	c0,0.6-1.3,19.9-1.3,22.5c0,2.7-3.7,24.6-4.7,25.2C329.1,184,327.7,183.6,327.3,183.5L327.3,183.5z"/>
<path class="st10" d="M339.6,40.6c0.8-10.7,1.6-21,1.7-22.4l0,0c-1.5,24.6-3.1,49.3-5.1,73.9c-0.3,3.9-2.8,37.6-2.8,37.6
	s4.8-14.7,5.6-18.8c4.7-23.7,6-50.7,9.7-75.3c0.6-3.8,4.8-19.7,4.8-19.7s-2.4,12.3-3.7,20.4c-4.2,24.8-4.3,52.2-10.5,76.8
	c-3.6,14.4-6.3,20.3-6.3,20.3c0.6-14.7,1.9-29.4,3-44.1C337.2,73.1,338.4,56.8,339.6,40.6L339.6,40.6z"/>
<path class="st10" d="M346.6,33.1c0.6-2.4,1-4,1-4S347.1,30.4,346.6,33.1L346.6,33.1z M344.3,19.1c-2.2,27.8-7,83.2-7,83.2
	c0,0,5.1-43.9,8.5-65.1c0.3-1.6,0.8-4.1,0.8-4.1l-7.7,58.8c0,0,2.9-34.8,4.4-52.2C343.7,34.2,344.3,19.1,344.3,19.1
	C344.3,19.1,344.3,19.1,344.3,19.1L344.3,19.1z"/>
<path class="st10" d="M340.6,46.6c1.8,1.3,27.4,0.7,29.1,0.8c1.7,0,6.7,3.3,6.8,4.1c0,0.8-4.4,5.8-7.1,5.3
	c-2.6-0.5-9.8-1.3-18.6-1.6c-79-2.7-130.2-3-211-5.8c0.5-1.3,1-2,2.3-3.4c72.1-4.5,120.7,2.3,189.8-13.3c9.7,5.7,8.6,7.5,10,13.1
	C340.6,45.9,339.9,46,340.6,46.6L340.6,46.6z"/>
<path class="st10" d="M371.7,52.6c-8.1-1-16.5-0.3-21.5,0.1c-2,0.2-4.2,0.1-6,0c-0.8,0-1.6-0.1-2.2-0.1c-1.4-5.6-0.3-7.4-10-13.1
	c8.1-1.8,13.2-2.8,27-4.7c0.8,0,1.6,0,2.5-0.1c5.9-0.4,12.7,15.2,13.6,16.1C375.7,51.4,373.7,51.6,371.7,52.6L371.7,52.6z"/>
<path class="st10" d="M149,41.5c-0.8,0-2.4,0-2.4,0S152.5,41.5,149,41.5z"/>
<path class="st10" d="M365.2,26.4c-4.9-0.2-12.4,1.2-12.4,1.2s2,0.5,6.2,0.5c-24.3,2.7-46.7,8.9-71,11.1
	c-58.6,5.3-86.8,3.1-145.8,6.9c-1.2,1.4-1.7,2-2.3,3.4c0,0-2.7-13.6-2-13.9c1.5-0.5,1.5-0.7,3.5-0.9c0.8-0.1,3.1-0.1,5.1-0.1
	c0.8,0,1.6,0,2.4,0c3.5,0,0.6,0-2.4,0c-4.5-0.1-8.1-0.5-9.4-0.9c-1.5-0.5-6.2-9.5-6.2-9.5s0.8-1.8,4.9-1.9c4.1-0.1,4.3-0.2,0.1-0.3
	c-4.2-0.1-4.6-0.9-4.8-1.4c-1.1-3.2,4.7-4.3,7.1-4.2c30.1,0.4,61.9,3.3,92.1,4.3c48.8,1.6,67.2,1.9,116.8,1.2
	c21.4-0.3,30.1,3.2,30.1,3.2c-1.3,0.4-1.9,0.6-3.2,1C374.1,26.1,370.1,26.5,365.2,26.4L365.2,26.4z"/>
<path class="st11" d="M145.5,16.6c2.5,0.1,5,0.2,7.5,0.3c7.2,0.3,59.2,1.9,66.7,2.3c4.7,0.2,9.5,0.5,14.1,0.6
	c49.3,1.4,67.9,1.9,117.8,1.4c21.5-0.2,26.3,0.4,26.3,0.4c-0.1,1-0.3,1.8-0.7,3.5c0,0-2.7,0.1-7.8,0c-5.1-0.1-13,1.2-13,1.2
	s2.8,0.7,9.1,0.3c6.3-0.4,11.4-0.6,12,0.1c1.8,2-1.6,17.5-2.2,17.8c-2,0.9-16.9-0.2-21.8,0.3c-1.9,0.2-4.1,0.1-5.8,0.1
	c-2.7-0.1-4.5-0.2-3.4,0.7c1.9,1.3,27.3,0.5,29,0.5c1.7,0,3.2,4.2,3.2,4.9c0,0.8-1.1,2.1-3.7,1.6c-2.7-0.5-9.8-1.2-18.1-1.2
	c-78.5-0.6-131.9-2.6-212.5-5.3c0,0-0.1-1.1,0-2.5c0-0.2,0-0.3,0.1-0.5c0.1-0.8,0.2-1.6,0.3-2.5c0.1-1.2,0-2.3-0.3-3.3
	c-0.3-0.9-0.8-1.6-1-2.1c-0.1-0.3-0.1-0.6,0.1-0.6c1.4,0,15.5-0.1,17.8-0.2c2.3-0.1-0.4-0.8-6.3-0.8c-5.9,0-10.8-0.6-12.4-1.1
	c-0.9-0.3-3.3-3.1-4.9-5.7c-1.3-2-1.9-3.4-1.9-3.4s0.6-1.4,4.8-1.5c4.2-0.1,5.5-1,1.2-1.1c-4.3-0.1-4.2-0.3-4.8-0.8
	c-0.5-0.4-0.3-0.9-0.2-1.3c0,0,2.6-2.3,3.9-2.3C139.8,16.4,145.5,16.6,145.5,16.6L145.5,16.6z"/>
<path class="st12" d="M136,28.7c0.1,0,0.7,0,0.7,0s-0.1,0-0.1,0c-0.1,0-0.1,0-0.2,0C136.3,28.7,136.1,28.7,136,28.7L136,28.7z"/>
<path class="st12" d="M135.9,28.7L135.9,28.7C136,28.7,136,28.7,135.9,28.7L135.9,28.7L135.9,28.7z"/>
<path class="st12" d="M136.4,34.6c-0.3,0-0.5-0.1-0.7-0.1C135.6,34.5,136.2,34.5,136.4,34.6C136.3,34.6,136.3,34.6,136.4,34.6
	L136.4,34.6z"/>
<path class="st12" d="M142.4,48.5c-0.2,0-0.3,0-0.3,0S142.2,48.5,142.4,48.5L142.4,48.5L142.4,48.5z"/>
<ellipse class="st13" cx="169.3" cy="166.7" rx="2.9" ry="3.5"/>
<ellipse class="st13" cx="335.1" cy="158.7" rx="2.9" ry="3.5"/>
<polygon class="st14" points="312.1,138 192.6,144.1 192.6,56.8 324.3,64.1 "/>
<path class="st10" d="M377.4,27.8c0,0-26.2,0.4-30.5,0.2c-25.3-1.1-53.7-0.1-80.4,0.2c-1,0-1.8,0-2.4,0.1c-2.8,0.1-7.8,0.2-14,0.1
	c-13.7-0.2-0.8-0.8-5.4-1.1c-36-1.7-108-5.2-108-5.2s0.1,0,0.1,0c1.2-0.1,4,0,7.8,0c6.2,0.1,15.4,0.6,25.4,1.4
	c30.4,2.5,62.4,3,93.5,3.7c5.1,0.1-22.9,0.1-19.3-0.1c1.1-0.1,3.1,0,5.6,0c36.1,0.5,73.3,1.1,109.1,0.2
	C366.1,27.1,377.4,27.8,377.4,27.8L377.4,27.8z"/>
<path class="st10" d="M135.3,17.5L135.3,17.5C135.4,17.5,135.3,17.5,135.3,17.5L135.3,17.5z M338.9,23.7c0,0-9.6-0.5-15.9-0.4
	c-33.7,0.2-35.8-0.4-69.6-1.3c-2.1-0.1-3.7-0.1-4.7,0c-3.2,0.1-6.9,0.1-10.9-0.1c-25.7-0.8-52.2-1.5-77.3-3.3
	c-6.9-0.5-13.7-0.8-18.5-1c-3.7-0.1-6.6-0.1-6.6-0.1s0.2,0,0.3,0c29.1,1,58.3,2.6,87.3,4.2c3.3,0.2,17.9,0.8,29,1.1
	c5,0.1,9.4,0.2,12,0.2c0.5,0,1.2,0,2.1,0c26.3,0.5,21.1-0.3,46.4,0.6C316.7,23.7,338.9,23.7,338.9,23.7L338.9,23.7z"/>
<path class="st10" d="M375.4,38.4c-0.8,0-15.8-1.3-19.9-1.5c-4.3-0.2-44.3-1.8-50.1-2c-23.5-0.9-15-2.2-38.3-3
	c-40.7-1.4-123.5-3.8-123.5-3.8s70.7,2.4,121.9,4c23.9,0.8,59.9,1.7,67.2,2.1C340.1,34.6,374.1,38.3,375.4,38.4
	C375.4,38.4,375.4,38.4,375.4,38.4C375.4,38.4,375.4,38.4,375.4,38.4L375.4,38.4z"/>
<path class="st10" d="M243.9,46.8c31.6-1.8,31.3-1.6,62.5-0.7c9.3,0.3,51.1,2.7,56.3,2.9c5.2,0.1,9.9,1.5,9.7,1.6
	c-12,2.9-45.2-2.6-67.9-3.8c-0.9,0-16.9,0-17.9-0.1C261.6,45.7,269,45.9,243.9,46.8L243.9,46.8z"/>
<path class="st10" d="M375.3,44.5L375.3,44.5c0,0-1.8-0.4-3.3-0.8c0,0-35.2-3.8-41.9-3.7c-6.7,0.1-27.3-0.5-31.1-0.7
	c-0.3,0-0.3,0-0.3,0c0.9,0,31.8-0.1,36-0.3c4.3-0.2,39.6,2.1,40.7,3.1C375.8,42.6,375.4,44.1,375.3,44.5L375.3,44.5z"/>
<path class="st10" d="M178.3,42c-17.2-0.1-33.6-0.2-35.9-0.2l0,0c39.5-0.2,79.1-0.3,118.5,0.1c6.3,0.1,27.8,0.3,27.8,0.3
	s-24-3.9-30.6-4.5c-38.3-3.2-49.1-2.6-88.7-4.8c-6.2-0.3-31.9-3.6-31.9-3.6s19.9,1.6,32.9,2.4c40,2.6,51.2,0.8,91.2,5.5
	c23.4,2.7,33.1,5.1,33.1,5.1c-23.6,0.4-14.7,0.1-38.2,0C230.5,42.1,204.4,42,178.3,42L178.3,42z"/>
<path class="st10" d="M165.7,35.2c-3.9-0.4-6.5-0.7-6.5-0.7S161.3,34.8,165.7,35.2L165.7,35.2z M143.5,38.6
	c44.5,0.3,101.1,1.4,101.1,1.3c0,0-38.1-2.2-72.3-4.2c-2.6-0.2-6.6-0.5-6.6-0.5l94.6,3.8c0,0-55.9-0.5-83.7-0.8
	C167.7,38.1,143.5,38.6,143.5,38.6C143.5,38.6,143.5,38.6,143.5,38.6L143.5,38.6z"/>
<ellipse class="st13" cx="160.8" cy="31.8" rx="2.9" ry="3.5"/>
<ellipse class="st13" cx="349.5" cy="38.1" rx="2.9" ry="3.5"/>
<g>
	<path class="st1" d="M356.6,239.9c1.4-5.3,1.8-8.4,9.1-6.8c7.3,1.6,7.7-3.5,9.1-8.8c1.4-5.3,6.2-8.9,18-9.3
		c11.8-0.4,10.2-7.2,12.6-12.5c2.4-5.2,3.3-6.3,11.7-8.1c8.4-1.8,8-8.6,7.3-15.7c-0.6-7.1,17.7-22.3,17.7-22.3s-10.3-3.9-21.5,3
		c-11.2,6.9-9.4-4.5-21.4-1.4c-12,3-9.5,13.1-18.7,9.6c-9.2-3.6-17.1-4.1-25.4,6.9c-8.3,10.9-18,1.3-25.8,7.6
		c-7.8,6.3,0.8,15-8.3,16.8c-9.2,1.7-14,0.3-14,9.6c0,9.2-12.3,6.6-14.4,18.1c-0.1,0.4-0.1,0.9-0.2,1.4
		c-1.5,13.2,10.3,25.7,24.2,25.3c3.2-0.1,5.8-0.8,7.3-2.6c6-7.1,0.6,2.4,8.4,7.4C340.1,262.8,355.1,245.2,356.6,239.9"/>
	<path class="st2" d="M392,203.3c-3.6-2.9-7.6-5.3-11.8-7.1c4.6-2.7,9.1-5.5,13.5-8.5c1.5-1,3.1-2.1,4.6-3.2c0.1,0,0.2,0,0.2,0
		c4.1-0.6,8.2-0.4,12.4,0.4c0.9,0.2,1.1-1.1,0.2-1.3c-3.6-0.7-7.2-0.9-10.7-0.6c9.6-6.8,18.7-14.1,27.9-21.3
		c0.6-0.5-0.2-1.6-0.8-1.1c-8.8,6.9-17.6,13.9-26.7,20.4c0.5-3.5,0.5-7.1,0-10.8c-0.1-0.8-1.5-0.8-1.3,0c0.6,4,0.6,7.9-0.2,11.7
		c0,0.1,0,0.1,0,0.2c-0.7,0.5-1.5,1.1-2.2,1.6c-5.9,4.1-12,8-18.2,11.7c-0.3-4.7-1-9.4-2.1-14.1c-0.2-0.8-1.5-0.8-1.3,0
		c1.2,4.9,1.9,9.9,2.1,14.9c-4.4,2.5-8.8,5-13.3,7.4c-4.9,2.6-9.8,5.1-14.7,7.6c0.2-4.6,0.1-9.3-0.3-13.9c-0.1-0.8-1.4-0.8-1.3,0
		c0.5,4.8,0.6,9.5,0.3,14.3c0,0.1,0,0.2,0.1,0.3c-6.1,3.1-12.1,6.1-18.1,9.3c-1.1,0.6-2.3,1.2-3.4,1.8c-0.1-3.7-0.7-7.4-1.7-11.1
		c-0.2-0.8-1.5-0.5-1.3,0.3c1.1,3.7,1.6,7.4,1.7,11.2c0,0.1,0,0.1,0,0.2c-9.4,5.1-15.1,8.2-23.8,14.4c-10.5,7.4,2.4-0.1,7.4-3.3
		c5.4-3.4,11-6.7,16.7-9.7c0,0,0,0,0.1,0c4.2,2.5,8.2,5.3,11.9,8.4c0.7,0.6,1.5-0.4,0.8-0.9c-3.6-3-7.4-5.7-11.5-8.1
		c7.4-4,14.8-7.7,22.3-11.5c4.4,2.7,8.9,5.3,13.3,8c0.8,0.5,1.3-0.7,0.5-1.1c-4.2-2.5-8.4-5-12.5-7.5c9.5-4.8,18.9-9.7,28.1-15
		c4.4,1.9,8.5,4.3,12.3,7.3C391.9,204.8,392.7,203.8,392,203.3"/>
	<path class="st2" d="M404.5,166.5c0,0.6,0.1,1.2,0.1,1.8c0,0.5,0.4,1,1,1.1c0.5,0.1,1.1-0.3,1.1-0.8c0-0.6-0.1-1.2-0.1-1.8
		c0-0.5-0.4-1-1-1.1C405.1,165.6,404.5,165.9,404.5,166.5"/>
	<path class="st2" d="M410,167c-0.4,0.5-0.8,0.9-1.1,1.4c-0.3,0.4-0.1,1.1,0.3,1.4c0.5,0.3,1.1,0.2,1.4-0.2c0.4-0.5,0.8-0.9,1.1-1.4
		c0.3-0.4,0.1-1.1-0.3-1.4C410.9,166.5,410.3,166.6,410,167"/>
	<path class="st2" d="M399.1,164.3l0.1,2.1c0,0.5,0.4,1,1,1.1c0.5,0.1,1.1-0.3,1.1-0.8l-0.1-2.1c0-0.5-0.4-1-1-1.1
		C399.7,163.4,399.1,163.7,399.1,164.3"/>
	<path class="st2" d="M414.7,178c-0.4,0.3-0.9,0.5-1.3,0.8c-0.4,0.3-0.4,1-0.1,1.4c0.4,0.4,1,0.5,1.4,0.2c0.4-0.3,0.9-0.5,1.3-0.8
		c0.4-0.3,0.4-1,0.1-1.4C415.7,177.8,415.1,177.7,414.7,178"/>
	<path class="st2" d="M417,184.5c-0.1,0-0.3,0-0.4,0.1c-0.1,0-0.1,0-0.2,0c0.1,0,0.1,0,0,0c-0.1,0-0.2,0-0.4,0c0,0-0.4-0.1-0.3,0
		c-0.5-0.1-1.1,0-1.3,0.5c-0.1,0.4,0.1,1.1,0.7,1.3c0.8,0.2,1.5,0.3,2.3,0.2c0.5-0.1,0.9-0.5,0.8-1.1
		C418.1,184.8,417.5,184.4,417,184.5"/>
	<path class="st2" d="M413.5,188.8c-0.5-0.4-1.1-0.9-1.6-1.3c-0.4-0.4-1.1-0.2-1.4,0.2c-0.3,0.5-0.1,1,0.3,1.4
		c0.5,0.4,1.1,0.9,1.6,1.3c0.4,0.4,1.1,0.2,1.4-0.2C414.1,189.7,414,189.1,413.5,188.8"/>
	<path class="st2" d="M368.4,177.2c0.6,0.4,1.2,0.9,1.7,1.3c0.5,0.3,1.1,0.2,1.4-0.2c0.3-0.4,0.1-1-0.3-1.4l-1.7-1.3
		c-0.5-0.3-1.1-0.2-1.4,0.2C367.8,176.2,368,176.8,368.4,177.2"/>
	<path class="st2" d="M374,174.2c0.1,0.7,0.3,1.4,0.4,2.1c0.3,1.3,2.2,1,2-0.2c-0.1-0.7-0.3-1.4-0.4-2.1
		C375.7,172.7,373.7,173,374,174.2"/>
	<path class="st2" d="M381,175.8c-0.5,0.4-0.9,0.9-1.1,1.5c-0.2,0.5,0.1,1.1,0.7,1.3c0.5,0.2,1.1,0,1.3-0.5c0,0,0.2-0.3,0.1-0.2
		c0.1-0.1,0.1-0.2,0.2-0.3c0,0,0.1-0.1,0.1-0.1c-0.1,0.1-0.1,0.1,0,0c0.1-0.1,0.2-0.1,0.3-0.2c0.4-0.3,0.4-1,0.1-1.4
		C382,175.6,381.4,175.5,381,175.8"/>
	<path class="st2" d="M383.8,180.6c-0.4,0.2-0.7,0.5-1.1,0.7c-0.4,0.3-0.4,1-0.1,1.4c0.4,0.4,1,0.5,1.4,0.2c0.4-0.2,0.7-0.5,1.1-0.7
		c0.4-0.3,0.4-1,0.1-1.4C384.9,180.4,384.3,180.3,383.8,180.6"/>
	<path class="st2" d="M392.8,198.7c-0.3,0.3-0.5,0.7-0.8,1c-0.3,0.4-0.1,1.1,0.3,1.4c0.5,0.3,1.1,0.2,1.4-0.2c0.3-0.3,0.5-0.7,0.8-1
		c0.3-0.4,0.1-1.1-0.3-1.4C393.7,198.2,393.1,198.3,392.8,198.7"/>
	<path class="st2" d="M397.4,204.2c-0.6-0.1-1.2-0.2-1.8-0.3c-0.5-0.1-1.1,0.3-1.1,0.8c0,0.6,0.4,1,1,1.1c0.6,0.1,1.2,0.2,1.8,0.3
		c0.5,0.1,1.1-0.3,1.1-0.8C398.4,204.8,398,204.3,397.4,204.2"/>
	<path class="st2" d="M394,209.4c-0.3-0.6-0.6-1.3-0.9-1.9c-0.2-0.5-0.9-0.7-1.4-0.5c-0.5,0.2-0.7,0.8-0.4,1.3
		c0.3,0.6,0.6,1.3,0.9,1.9c0.2,0.5,0.9,0.7,1.4,0.5C394.1,210.4,394.2,209.9,394,209.4"/>
	<path class="st2" d="M386.8,207.1c0,0.7,0.1,1.4,0.1,2.1c0,0.5,0.4,1,1,1.1c0.5,0.1,1.1-0.3,1.1-0.8l-0.1-2.1c0-0.5-0.4-1-1-1.1
		C387.4,206.2,386.8,206.5,386.8,207.1"/>
	<path class="st2" d="M343.1,196.5c-0.6-0.5-1.2-0.9-1.8-1.4c-0.4-0.3-1.1-0.2-1.4,0.2c-0.3,0.4-0.1,1,0.3,1.4
		c0.6,0.5,1.2,0.9,1.8,1.4c0.4,0.4,1.1,0.2,1.4-0.2C343.7,197.4,343.6,196.8,343.1,196.5"/>
	<path class="st2" d="M344.9,190.3c-0.7-0.9-1.5-1.9-2.2-2.8c-0.8-1-2.3,0.1-1.5,1.2c0.7,0.9,1.5,1.9,2.2,2.8
		C344.2,192.5,345.7,191.3,344.9,190.3"/>
	<path class="st2" d="M348.4,187.9c0,0.9,0,1.9,0,2.8c0,1.3,2,1.5,2,0.3c0-0.9,0-1.9,0-2.8C350.4,186.9,348.4,186.7,348.4,187.9"/>
	<path class="st2" d="M355.5,191.3l-0.9,1.2c-0.3,0.4-0.1,1.1,0.3,1.4c0.5,0.3,1.1,0.2,1.4-0.2c0.3-0.4,0.6-0.8,0.9-1.1
		c0.3-0.4,0.1-1.1-0.3-1.4C356.4,190.8,355.8,190.9,355.5,191.3"/>
	<path class="st2" d="M356.8,198.2c-0.7,0.3-1.4,0.6-2.1,0.8c-1.2,0.5-0.2,2.3,0.9,1.8c0.7-0.3,1.4-0.6,2.1-0.8
		C358.9,199.6,358,197.7,356.8,198.2"/>
	<path class="st2" d="M362.7,212.7c-0.5,0.4-0.9,0.8-1.4,1.2c-0.4,0.3-0.4,0.9-0.1,1.4c0.4,0.4,1.1,0.5,1.4,0.2
		c0.5-0.4,0.9-0.8,1.4-1.2c0.4-0.3,0.4-0.9,0.1-1.4C363.8,212.5,363.1,212.4,362.7,212.7"/>
	<path class="st2" d="M371.3,215.9c-0.9,0.4-1.9,0.8-2.8,1.2c-1.2,0.5-0.2,2.3,0.9,1.8c0.9-0.4,1.9-0.8,2.8-1.2
		C373.4,217.3,372.4,215.4,371.3,215.9"/>
	<path class="st2" d="M369.2,223.7c-0.9-0.7-1.8-1.4-2.7-2.1c-1.1-0.8-2.1,0.7-1.1,1.5c0.9,0.7,1.8,1.4,2.7,2.1
		C369.2,226.1,370.3,224.5,369.2,223.7"/>
	<path class="st2" d="M363.4,227.9c-0.5-0.9-0.9-1.8-1.4-2.6c-0.6-1.2-2.4-0.4-1.8,0.7c0.5,0.9,0.9,1.8,1.4,2.6
		C362.2,229.8,364,229.1,363.4,227.9"/>
	<path class="st2" d="M357.1,227.3c-0.2-1.4-0.7-2.8-1.3-4.2c-0.6-1.2-2.4-0.5-1.8,0.7c0.6,1.2,0.9,2.4,1.1,3.6
		C355.3,228.8,357.3,228.6,357.1,227.3"/>
	<path class="st2" d="M318.3,212.8c-1-0.4-2-0.8-3-1.2c-1.2-0.5-1.9,1.3-0.6,1.8c1,0.4,2,0.8,3,1.2
		C318.9,215.1,319.5,213.3,318.3,212.8"/>
	<path class="st2" d="M316.6,207.8c0.6,0.7,1.1,1.4,1.7,2.1c0.3,0.4,1.1,0.5,1.4,0.2c0.4-0.3,0.4-0.9,0.1-1.4
		c-0.6-0.7-1.1-1.4-1.7-2.1c-0.3-0.4-1.1-0.5-1.4-0.2C316.3,206.8,316.3,207.4,316.6,207.8"/>
	<path class="st2" d="M321.5,202.9c0.4,0.7,0.8,1.5,1.1,2.2c0.6,1.2,1.3-1.8,0.7-2.9c-0.4-0.7,0.4,0.7,0,0
		C322.7,201,320.9,201.7,321.5,202.9"/>
	<path class="st2" d="M329.8,206.2c-0.2,0.6-0.5,1.3-0.7,1.9c-0.2,0.5,0.1,1.1,0.7,1.3c0.5,0.2,1.1,0,1.3-0.5
		c0.2-0.6,0.5-1.3,0.7-1.9c0.2-0.5-0.1-1.1-0.7-1.3C330.5,205.5,330,205.7,329.8,206.2"/>
	<path class="st2" d="M330.9,212.4c-0.5,0.3-1,0.7-1.5,1c-0.4,0.3-0.4,1-0.1,1.4c0.4,0.4,1,0.5,1.4,0.2c0.5-0.3,1-0.7,1.5-1
		c0.4-0.3,0.4-1,0.1-1.4C332,212.1,331.3,212.1,330.9,212.4"/>
	<path class="st2" d="M338.5,224.6c-0.8,0.1-1.6,0.2-2.4,0.3c-1.3,0.2-0.9,2.1,0.4,1.9c0.8-0.1,1.6-0.2,2.4-0.3
		C340.2,226.4,339.8,224.5,338.5,224.6"/>
	<path class="st2" d="M343.4,228.7c-0.8,0.2-1.6,0.2-2.4,0.2c-1.3-0.1-1.4,1.8-0.1,1.9c1,0.1,2,0.1,3-0.2c0.5-0.1,0.9-0.5,0.8-1.1
		C344.5,229.1,343.9,228.6,343.4,228.7"/>
	<path class="st2" d="M345.8,235.7c-1-0.5-2-1.1-2.9-1.8c-0.4-0.4-1.1-0.2-1.4,0.2c-0.3,0.5-0.1,1,0.3,1.4c1,0.9,2.1,1.6,3.3,2.1
		C346.4,238,347,236.2,345.8,235.7"/>
	<path class="st2" d="M341.8,239.8c-0.7-1-1.3-1.9-2-2.9c-0.3-0.5-1.1-0.5-1.4-0.2c-0.4,0.3-0.4,0.9-0.1,1.4c0.7,1,1.3,1.9,2,2.9
		c0.3,0.5,1.1,0.5,1.4,0.2C342.2,240.8,342.1,240.2,341.8,239.8"/>
	<path class="st2" d="M334.9,238.2c-0.5-2-1-4-1.5-6c-0.3-1.2-2.3-1-2,0.2c0.5,2,1,4,1.5,6C333.2,239.7,335.2,239.5,334.9,238.2"/>
	<path class="st2" d="M328.7,232.8c-0.4-0.8-0.8-1.6-1.3-2.4c-0.6-1.2-2.4-0.4-1.8,0.7c0.4,0.8,0.8,1.6,1.3,2.4
		C327.5,234.8,329.3,234,328.7,232.8"/>
</g>
<g>
	<path class="st0" d="M50.6,125.8c0,0,46.3,80.3,97.5,111.1c17.4,10.5,32.2,14.7,44.2,15.8c25,2.2,40.1-22.7,27.6-45.6
		c-6-11-16-23.3-32.3-35.4C139.4,136,50.6,125.8,50.6,125.8"/>
	<path class="st2" d="M183.1,212.6c-3.4-2.3-6.9-4.6-10.3-6.9c0.3-14.3,0.7-28.6,1-42.9c-0.4-0.2-0.8-0.5-1.3-0.7
		c-0.3,14.3-0.7,28.5-1,42.8c-3.3-2.2-6.5-4.3-9.8-6.5c0.1-13.7,0.8-27.3,2.2-40.8c-0.4-0.2-0.8-0.4-1.2-0.6
		c-1.3,13.4-2.1,27-2.2,40.6l-9.4-6.3c0.7-12.9,1.4-25.8,2-38.7c-0.4-0.2-0.8-0.4-1.3-0.5c-0.7,12.8-1.3,25.6-2,38.4
		c-3.3-2.2-6.6-4.4-9.8-6.6c-0.4-12.2-0.3-24.4,0.2-36.5c-0.4-0.2-0.8-0.3-1.3-0.5c-0.6,12-0.7,24-0.3,36.1
		c-3.4-2.3-6.7-4.5-10.1-6.8c-0.2-11,0-21.9,0.7-32.7c-0.4-0.1-0.8-0.3-1.3-0.4c-0.7,10.7-1,21.4-0.8,32.2c-2.7-1.8-5.5-3.7-8.2-5.5
		c-0.6-9.9-0.8-19.8-0.5-29.7c-0.4-0.1-0.8-0.3-1.3-0.4c-0.3,9.7-0.2,19.4,0.4,29.2c-3.3-2.2-6.7-4.5-10-6.7
		c-1.3-8.5-1.8-17.1-1.3-25.5c-0.4-0.1-0.8-0.2-1.3-0.3c-0.5,8.2-0.1,16.5,1.1,24.9l-3.4-2.3c-0.1-0.2-0.3-0.4-0.6-0.4
		c-0.8-0.6-1.7-1.1-2.5-1.7c-1.6-7.4-1.9-14.9-0.9-22.1c-0.4-0.1-0.8-0.2-1.3-0.3c-1,7-0.8,14.2,0.7,21.4c-2.5-1.7-5-3.4-7.5-5
		c-0.9-6.1-1.3-12.2-1.2-18.3c-0.4-0.1-0.9-0.2-1.3-0.3c0,5.8,0.3,11.7,1.1,17.6l-7-4.7c0.1-4,0.1-8.1,0.2-12.1c0-0.7,0-1.3,0-2
		c-0.4-0.1-0.8-0.2-1.3-0.3c0,1,0,2-0.1,3l-0.2,10.6l-5.9-4c-0.6-3.7-1-7.4-1.2-11c-0.4-0.1-0.9-0.2-1.3-0.2
		c0.2,3.4,0.6,6.9,1.1,10.3c-2.3-1.5-4.6-3.1-6.9-4.6c-0.3-2.3-0.4-4.6-0.5-6.8c-0.4-0.1-0.9-0.1-1.3-0.2c0.1,2,0.2,4.1,0.4,6.1
		c-1.4-0.9-2.8-1.9-4.2-2.8c-0.2-1.3-0.3-2.7-0.5-4c-0.4-0.1-0.9-0.1-1.3-0.2l0.4,3.3c-2.1-1.4-4.2-2.8-6.2-4.2
		c-2-0.3-3.1-0.4-3.1-0.4s0.6,1,1.6,2.7l6.9,4.6c-1.3,0-2.6,0.2-3.9,0.4c0.2,0.4,0.5,0.8,0.7,1.2c1.6-0.2,3.3-0.3,5.1-0.3
		c1.6,1.1,3.2,2.2,4.8,3.2c-2.6,0.1-5.1,0.3-7.5,0.8c0.2,0.4,0.5,0.8,0.7,1.2c2.6-0.5,5.2-0.8,8-0.8c0.2,0,0.3-0.1,0.4-0.2
		c3,2,5.9,4,8.9,6c-4.3,0.4-8.6,1-12.9,1.7c0.3,0.4,0.5,0.8,0.8,1.2c4.5-0.8,9.1-1.3,13.8-1.8c2.7,1.8,5.3,3.6,8,5.4
		c-5.9,0.7-11.8,1.5-17.7,2.4c0.3,0.4,0.5,0.8,0.8,1.2c6.1-1,12.3-1.8,18.5-2.5c3.3,2.2,6.6,4.4,9.8,6.6c-7.9,0.6-15.8,1.5-23.5,2.8
		c0.3,0.4,0.6,0.8,0.8,1.2c8.1-1.3,16.2-2.2,24.4-2.8c2.2,1.4,4.3,2.9,6.5,4.3c-8.3,2.1-16.7,4.3-25,6.4c0.3,0.4,0.6,0.8,0.9,1.1
		c8.5-2.2,17.1-4.4,25.6-6.6c4.2,2.8,8.4,5.6,12.6,8.4c-11.2,0.9-22.3,2.4-33.2,4.6c0.3,0.4,0.6,0.8,0.9,1.1
		c11.2-2.2,22.5-3.7,34.1-4.6c3.8,2.6,7.7,5.1,11.5,7.7c-12,2.8-24,5.6-36.1,8.5c0.3,0.4,0.6,0.7,1,1.1c12.2-2.9,24.4-5.7,36.6-8.6
		c1.5,1,2.9,2,4.4,2.9c1.8,1.2,3.6,2.4,5.3,3.6c-13.1,3.4-26.1,6.7-39.2,10.1c0.3,0.4,0.7,0.7,1,1.1c13.2-3.4,26.4-6.8,39.6-10.2
		c2.7,1.8,5.5,3.7,8.2,5.5c-12.9,4.8-25.7,9.5-38.6,14.3c0.3,0.3,0.7,0.7,1,1l38.7-14.3c0.1,0,0.1-0.1,0.2-0.1
		c3.9,2.6,7.8,5.2,11.8,7.9c-14.1,4.8-28.2,9.5-42.3,14.3c0.4,0.3,0.8,0.7,1.1,1c14.2-4.8,28.4-9.6,42.6-14.4c2.9,2,5.9,3.9,8.8,5.9
		c-12.9,6.2-25.9,12.4-38.8,18.5c0.4,0.3,0.8,0.6,1.2,0.9c13-6.2,25.9-12.4,38.9-18.6c3.1,2.1,6.3,4.2,9.4,6.3
		c-11.6,7.4-23.7,14-36.2,19.9c0.5,0.3,1,0.5,1.4,0.8c12.4-5.9,24.4-12.6,36-19.9c5.1,3.4,10.2,6.8,15.2,10.2
		c-10.4,6.6-21.1,12.7-32.1,18.2c0.6,0.2,1.2,0.4,1.8,0.6c10.8-5.4,21.3-11.4,31.4-17.9c0.1,0,0.1-0.1,0.1-0.1
		c2.1,1.4,4.3,2.9,6.4,4.3c-8,5.7-16,11.3-23.9,17c0.7,0.1,1.3,0.2,1.9,0.3c7.7-5.5,15.5-11,23.2-16.5c2.1,1.4,4.2,2.8,6.3,4.2
		c0.5-0.8,1-1.6,1.4-2.4c-0.6-0.4-1.2-0.8-1.8-1.2c0.7-8.9,1.3-17.8,2-26.8c-0.3-0.8-0.7-1.5-1.1-2.3l-2.1,28.2
		c-1.9-1.3-3.8-2.5-5.7-3.8c0.7-11.2,1.5-22.3,2.2-33.5c-0.4-0.5-0.8-1.1-1.2-1.6c-0.8,11.4-1.5,22.8-2.3,34.3
		c-2.9-2-5.9-3.9-8.8-5.9c1.1-12.6,2.1-25.2,3.2-37.8c-0.4-0.4-0.8-0.8-1.2-1.2c-1.1,12.8-2.1,25.5-3.2,38.3
		c-2.6-1.7-5.1-3.4-7.7-5.1c-0.1,0-0.1-0.1-0.2-0.1c0.4-13.6,1.6-27,3.5-40.3c-0.4-0.3-0.8-0.7-1.2-1c-1.9,13.3-3.1,26.8-3.6,40.4
		c-0.3-0.2-0.7-0.4-1-0.7c-0.1-0.1-0.1-0.1-0.2-0.1c-2.1-1.4-4.3-2.9-6.4-4.3c-0.6-14.7-0.5-29.3,0.3-43.8c-0.4-0.3-0.8-0.6-1.2-0.9
		C182.6,183.3,182.5,197.9,183.1,212.6"/>
</g>
<path class="st1" d="M45.4,248.9l8.5-29.6c0,0,0-0.1,0-0.1c1.8-6,9.6-6.1,11.9-0.3l4.6,6.3c0,0,2.7-30.4,13.7-31.1
	c11-0.7,12.7,9.6,12.7,9.6s1.7-21,13.9-21.3C122.8,182,126,198,126,198c2-17.7,20.7-16.3,26.2-2.1c5.7,14.5,6.4,17.2,6.4,17.2
	l3-17.7c6.3-32.8,27.4-11.2,36.4-3.3c3.5,3.1,8.3,5.2,14.5,5.2c9.9,0,16.6,15.9,16.9,24.1c0.3,8.2,5.4,19.8,19.3,6.7
	c13.9-13.1,26,20.8,26,20.8L45.4,248.9z"/>
<path class="st0" d="M383.6,244c0,0-3.5-24.9-11.9-25.3c-8.5-0.4-13.8,18.9-13.8,18.9s-4.4-37-16.3-37.8
	c-11.9-0.8-13.8,11.5-13.8,11.5s-3.3-20.5-16.5-20.9c-13.2-0.4-16.6,17.7-16.6,17.7c-2.2-20.1-23.2-15.1-28.5,1.9
	c-2.9,9.2-3.4,11.3-3.4,11.3s-9.2-13.4-15-14.3c-10.7-1.6-13.5,18.3-13.5,18.3s-3.8-24.8-15.4-23.9c-11.6,0.8-11.9,12.4-11.9,12.4
	s-0.9-17.2-11.6-16c-10.7,1.2-8.8,22.6-9.1,31.8c-0.3,9.3-8.5,22.5-23.5,7.6c-15.1-14.9-21,24.1-21,24.1l233.4,0
	C385.8,261.3,383.6,244,383.6,244"/>
<g>
	<path class="st19" d="M232,87.3l12.9,7.5l7.8-13.4l-1.5-3.8c0,0-2.2-5.1-7.3-4.5c-4.6,0.5-5.6,3.6-6.4,5.1
		C236.6,79.7,232,87.3,232,87.3z M278.2,90l-12.6,8l8.4,13.1l4,0.4c0,0,5.5,0.4,7.4-4.4c1.6-4.4-0.7-6.6-1.6-8.1
		C282.9,97.6,278.2,90,278.2,90z M252.8,129.8l-0.2-14.9l-15.5,0.2l-2.5,3.2c0,0-3.3,4.5-0.1,8.6c2.8,3.7,5.9,3.3,7.6,3.3
		C243.8,130.1,252.8,129.8,252.8,129.8z"/>
	<path class="st0" d="M249.4,72.8l16,0c0,0,2.5,0.1,3.8,2.5c1.2,2.4,3.2,5.6,3.2,5.6l4.5-2.1l-5.7,14.5l-15.7-1.6l4.4-2.8
		c0,0-7.4-16.3-10.5-15.7V72.8z M283.2,112.1l-7.3,14.2c0,0-1.2,2.2-3.9,2.2c-2.7,0-6.5,0.3-6.5,0.3l-0.2,5l-10.9-11.6l9.2-13.4
		l0.5,5.2c0,0,17.9,0.9,18.8-2.1L283.2,112.1z M231.5,122.4l-8.2-13.7c0,0-1.2-2.2,0.2-4.5c1.4-2.3,3.2-5.6,3.2-5.6l-4.2-2.8
		l14.6-2.6l7.5,14.4l-4.7-2.3c0,0-10.2,14.7-8.2,17.1L231.5,122.4z"/>
</g>
</svg>
