<?xml version="1.0" encoding="utf-8"?>
<!-- Generator: Adobe Illustrator 26.3.1, SVG Export Plug-In . SVG Version: 6.00 Build 0)  -->
<svg version="1.1" id="Ebene_1" xmlns="http://www.w3.org/2000/svg" xmlns:xlink="http://www.w3.org/1999/xlink" x="0px" y="0px"
	 viewBox="0 0 478.9 347.2" style="enable-background:new 0 0 478.9 347.2;" xml:space="preserve">
<style type="text/css">
	.st0{fill:url(#SVGID_1_);}
	.st1{fill:url(#SVGID_00000132049304866368739120000015897779633204433285_);}
	.st2{fill:url(#SVGID_00000008148805961399865440000012076553766113216936_);}
	.st3{fill:#FCB048;}
	.st4{fill:url(#SVGID_00000182527670279035770910000011429435037955834756_);}
	.st5{fill:url(#SVGID_00000005228135276868313170000017380753830440063918_);}
	.st6{fill:url(#SVGID_00000044882149827982693790000007519110132466231704_);}
	.st7{fill:url(#SVGID_00000163780093207477304620000014852795510065576858_);}
	.st8{fill:url(#SVGID_00000134232643352998563460000011576997760193540232_);}
	.st9{fill:url(#SVGID_00000033353694341108825140000006580087126276084373_);}
	.st10{fill:url(#SVGID_00000075860557732659089420000004663489933098615687_);}
	.st11{fill:url(#SVGID_00000088110550530022829580000007149282002625565358_);}
	.st12{fill:url(#SVGID_00000080175076751557976060000005574563000330337970_);}
	.st13{fill:url(#SVGID_00000047034022769327994050000009473511231245426845_);}
	.st14{fill:url(#SVGID_00000066517738577510406900000011813850637789343622_);}
	.st15{fill:url(#SVGID_00000037688236618765581640000002298182212268261544_);}
	.st16{fill:url(#SVGID_00000132786161786866967200000009090669838997425538_);}
	.st17{fill:url(#SVGID_00000171682081204516004050000013542540215895070344_);}
	.st18{fill:url(#SVGID_00000001650854639370569350000001339107175856197022_);}
	.st19{fill:url(#SVGID_00000067203513569596817420000011648151973412795057_);}
	.st20{fill:url(#SVGID_00000116236387247165701340000005054622688391269761_);}
	.st21{fill:url(#SVGID_00000165917420418230455940000004820458602285306522_);}
	.st22{fill:url(#SVGID_00000176031521824606880240000005905818486245143212_);}
	.st23{fill:url(#SVGID_00000142161052959708410780000010381563094747543466_);}
	.st24{fill:url(#SVGID_00000176002263481724031290000018392665955732046766_);}
	.st25{fill:url(#SVGID_00000165210693928206202420000003095097648318318520_);}
	.st26{fill:url(#SVGID_00000005267395671405775730000011698498695357626550_);}
	.st27{fill:url(#SVGID_00000160891060949626700600000003528639546636715449_);}
	.st28{fill:url(#SVGID_00000167377450092241981270000004939170053643041943_);}
	.st29{fill:url(#SVGID_00000177484018305386915920000000056731649366436263_);}
	.st30{fill:url(#SVGID_00000161607233586590629780000003744086376696669846_);}
	.st31{fill:url(#SVGID_00000121239911055798924800000007636528206340052642_);}
	.st32{fill:url(#SVGID_00000026153598788199965170000002915606640399963065_);}
	.st33{fill:url(#SVGID_00000093163938279690746810000006528061482070796472_);}
	.st34{fill:url(#SVGID_00000147195043086556318440000001990507924828750482_);}
	.st35{fill:url(#SVGID_00000044153396318094151420000004556826304817145535_);}
	.st36{fill:url(#SVGID_00000175310676352908004990000001081718048486330268_);}
	.st37{opacity:0.3;fill:url(#SVGID_00000178169008771896122960000002143397232771643548_);}
	.st38{fill:#641E6E;}
	.st39{fill:#7575B4;}
	.st40{fill:#EA5474;}
	.st41{fill:none;}
	.st42{fill:#E6566F;}
	.st43{fill:#FF7D8D;}
	.st44{fill:#FFE3E6;}
	.st45{fill:#542614;}
	.st46{fill:#833500;}
	.st47{fill:#692F4B;}
	.st48{fill:#FFD14B;}
	.st49{fill-rule:evenodd;clip-rule:evenodd;fill:url(#SVGID_00000023277031867436610870000006246973933413271467_);}
	.st50{fill-rule:evenodd;clip-rule:evenodd;fill:url(#SVGID_00000076572241144118509110000013321049057627554487_);}
	.st51{fill-rule:evenodd;clip-rule:evenodd;fill:#E0A5FF;}
	.st52{fill-rule:evenodd;clip-rule:evenodd;fill:url(#SVGID_00000072248458184090959740000008518625143956593055_);}
	.st53{opacity:0.8;fill-rule:evenodd;clip-rule:evenodd;fill:#E698FF;}
	.st54{fill-rule:evenodd;clip-rule:evenodd;fill:url(#SVGID_00000075160114376689365120000005402593003488400815_);}
	.st55{fill-rule:evenodd;clip-rule:evenodd;fill:url(#SVGID_00000039134174387488626460000012942194335823944622_);}
	.st56{fill-rule:evenodd;clip-rule:evenodd;fill:url(#SVGID_00000123424133339971523850000008251697128969611162_);}
	.st57{fill-rule:evenodd;clip-rule:evenodd;fill:url(#SVGID_00000039815581999844713930000015321191259276595856_);}
	.st58{fill-rule:evenodd;clip-rule:evenodd;fill:url(#SVGID_00000015354818688731162220000002329548775369356947_);}
	.st59{fill-rule:evenodd;clip-rule:evenodd;fill:#E081FF;}
	.st60{fill-rule:evenodd;clip-rule:evenodd;fill:url(#SVGID_00000172428887600919840700000006519675771631773352_);}
	.st61{fill-rule:evenodd;clip-rule:evenodd;fill:url(#SVGID_00000097477300392751342420000005678648253071650749_);}
	.st62{fill-rule:evenodd;clip-rule:evenodd;fill:url(#SVGID_00000174588638227801674980000002555322062348583578_);}
	.st63{fill-rule:evenodd;clip-rule:evenodd;fill:#D13BFF;}
	.st64{fill-rule:evenodd;clip-rule:evenodd;fill:url(#SVGID_00000053515694644048677760000008031791732330821810_);}
	.st65{fill-rule:evenodd;clip-rule:evenodd;fill:#FFFFFF;}
	.st66{fill-rule:evenodd;clip-rule:evenodd;fill:url(#SVGID_00000168796582363876223790000009267686428255553174_);}
	.st67{fill-rule:evenodd;clip-rule:evenodd;fill:url(#SVGID_00000030479529035768194010000001055487397562619807_);}
	.st68{fill-rule:evenodd;clip-rule:evenodd;fill:#E43CF6;}
	.st69{fill-rule:evenodd;clip-rule:evenodd;fill:#CF1EDC;}
	.st70{fill-rule:evenodd;clip-rule:evenodd;fill:#B720FF;}
	.st71{fill-rule:evenodd;clip-rule:evenodd;fill:url(#SVGID_00000180353489292423344810000000437122373981384331_);}
	.st72{fill-rule:evenodd;clip-rule:evenodd;fill:url(#SVGID_00000033350272331146021580000015903894846492052391_);}
	.st73{fill-rule:evenodd;clip-rule:evenodd;fill:url(#SVGID_00000022544014045336032160000006635125774394653342_);}
	.st74{fill-rule:evenodd;clip-rule:evenodd;fill:url(#SVGID_00000031167006649176126570000015336700288565063043_);}
	.st75{fill-rule:evenodd;clip-rule:evenodd;fill:url(#SVGID_00000171695941754451419510000002144755388677705608_);}
	.st76{fill-rule:evenodd;clip-rule:evenodd;fill:url(#SVGID_00000017504607840090802990000001641768187745627041_);}
	.st77{fill-rule:evenodd;clip-rule:evenodd;fill:url(#SVGID_00000107583139500858958580000017656515282057357711_);}
	.st78{fill-rule:evenodd;clip-rule:evenodd;fill:url(#SVGID_00000132057001221847481930000002095723335659683989_);}
	.st79{fill-rule:evenodd;clip-rule:evenodd;fill:url(#SVGID_00000114052014601707592210000014128227404138371216_);}
	.st80{fill-rule:evenodd;clip-rule:evenodd;fill:url(#SVGID_00000158006632220386914010000002180096685137588669_);}
	.st81{fill-rule:evenodd;clip-rule:evenodd;fill:url(#SVGID_00000147184722637353301240000015761283030185078919_);}
	.st82{fill-rule:evenodd;clip-rule:evenodd;fill:url(#SVGID_00000002342195772083239620000004396820821750440369_);}
	.st83{fill-rule:evenodd;clip-rule:evenodd;fill:url(#SVGID_00000099662066978398015960000007036216628452800150_);}
	.st84{fill-rule:evenodd;clip-rule:evenodd;fill:url(#SVGID_00000168093763730007317370000005291399530809733563_);}
	.st85{fill-rule:evenodd;clip-rule:evenodd;fill:url(#SVGID_00000116935273761004285010000006350843804351130011_);}
	.st86{fill-rule:evenodd;clip-rule:evenodd;fill:url(#SVGID_00000051370191276192064510000005247001549943744396_);}
	.st87{fill-rule:evenodd;clip-rule:evenodd;fill:url(#SVGID_00000138561520982821409870000009115344363522310294_);}
	.st88{fill-rule:evenodd;clip-rule:evenodd;fill:url(#SVGID_00000035522038607624352540000009485094922366715541_);}
	.st89{fill-rule:evenodd;clip-rule:evenodd;fill:url(#SVGID_00000108988994708615185070000004836609247342546841_);}
	.st90{fill-rule:evenodd;clip-rule:evenodd;fill:url(#SVGID_00000118380790697631386280000011560662850075809951_);}
	.st91{fill-rule:evenodd;clip-rule:evenodd;fill:url(#SVGID_00000035512537631329027590000008162604509080198793_);}
	.st92{fill-rule:evenodd;clip-rule:evenodd;fill:url(#SVGID_00000049909441870967387360000016747641975097912477_);}
	.st93{fill-rule:evenodd;clip-rule:evenodd;fill:url(#SVGID_00000134214681378750587110000000271088547433253042_);}
	.st94{fill-rule:evenodd;clip-rule:evenodd;fill:url(#SVGID_00000137842365332968303210000010537870119068489119_);}
	.st95{fill-rule:evenodd;clip-rule:evenodd;fill:url(#SVGID_00000065778167991133421930000007381741406918794399_);}
	.st96{fill-rule:evenodd;clip-rule:evenodd;fill:url(#SVGID_00000060741764109330530760000017205034481327978894_);}
	.st97{fill-rule:evenodd;clip-rule:evenodd;fill:url(#SVGID_00000152246748924524942530000000781219042771275427_);}
	.st98{fill-rule:evenodd;clip-rule:evenodd;fill:url(#SVGID_00000137113802537777507330000003656354352691937168_);}
	.st99{fill-rule:evenodd;clip-rule:evenodd;fill:url(#SVGID_00000065055672208820522520000009807994681496325564_);}
	.st100{fill-rule:evenodd;clip-rule:evenodd;fill:url(#SVGID_00000140706073209522594130000011943655650050142620_);}
	.st101{fill-rule:evenodd;clip-rule:evenodd;fill:url(#SVGID_00000173132550748242514350000001200333749900831385_);}
	.st102{fill-rule:evenodd;clip-rule:evenodd;fill:url(#SVGID_00000179628694756816500730000013628415223555109035_);}
	.st103{fill-rule:evenodd;clip-rule:evenodd;fill:url(#SVGID_00000133529513164572991520000005535627256419639487_);}
	.st104{fill-rule:evenodd;clip-rule:evenodd;fill:url(#SVGID_00000135651344404163352110000014792044347046713988_);}
	.st105{fill-rule:evenodd;clip-rule:evenodd;fill:url(#SVGID_00000103961200075091710640000001101408708191071656_);}
	.st106{fill-rule:evenodd;clip-rule:evenodd;fill:url(#SVGID_00000137102837796862688120000017755764330789055143_);}
	.st107{fill-rule:evenodd;clip-rule:evenodd;fill:url(#SVGID_00000003092248279389072310000001395845752658532758_);}
	.st108{fill-rule:evenodd;clip-rule:evenodd;fill:url(#SVGID_00000181802689692908765020000003604078203041205183_);}
	.st109{fill-rule:evenodd;clip-rule:evenodd;fill:url(#SVGID_00000019649027357229059790000010785688431405579947_);}
	.st110{fill-rule:evenodd;clip-rule:evenodd;fill:url(#SVGID_00000170967504030638814880000013537961667680738190_);}
	.st111{fill-rule:evenodd;clip-rule:evenodd;fill:url(#SVGID_00000087386716930937113170000006913938396664234412_);}
	.st112{fill-rule:evenodd;clip-rule:evenodd;fill:url(#SVGID_00000158030845699831013270000013294005908372967305_);}
	.st113{fill-rule:evenodd;clip-rule:evenodd;fill:url(#SVGID_00000090266199257785694600000005825852505787553936_);}
	.st114{fill-rule:evenodd;clip-rule:evenodd;fill:url(#SVGID_00000165227577981148933380000009660483118950396571_);}
	.st115{fill-rule:evenodd;clip-rule:evenodd;fill:url(#SVGID_00000077289619856271613970000004849099918286693032_);}
	.st116{fill-rule:evenodd;clip-rule:evenodd;fill:url(#SVGID_00000127730728958431241660000000133412922969724069_);}
	.st117{fill-rule:evenodd;clip-rule:evenodd;fill:url(#SVGID_00000160180190607488506580000010614063193916175003_);}
	.st118{fill-rule:evenodd;clip-rule:evenodd;fill:url(#SVGID_00000102521226593416741500000006772143721326211514_);}
	.st119{fill-rule:evenodd;clip-rule:evenodd;fill:#E6C2FF;}
	.st120{opacity:0.5;}
</style>
<polygon class="st47" points="284.4,216.3 276.4,94.3 285.3,94.3 286.6,220.8 "/>
<path class="st48" d="M282.3,110.3c0,0,22.8-11.4,39.4-10.9c17.2,0.5,42.9-3.6,45.3-6c2.4-2.4,3.5,67.3,3.5,67.3s-30.5,2-35,1.7
	c-24-1.6-31.3-0.8-50.4,6.5"/>
<g>
	<g>
		<path d="M299.5,135.4c-0.2-1.2-0.3-2.4-2.2-14.9c0-0.1,0-0.3-0.1-0.4c0,0-0.1,0-0.1,0c0,0-0.3,0-0.4,0c-0.2,0-0.6,0.1-0.7,0.1
			c-0.7,0.2-1.4,0.5-2.2,0.8c-0.4,0.2-0.8,0-1-0.3c-0.1-0.7-0.2-1.3-0.3-1.9c-0.1-0.4-0.3-2.2-0.4-2.6c0-0.3,0.1-0.8,0.3-1
			c0.1,0,0.2-0.1,0.3-0.1c0.6-0.3,1.2-0.5,1.8-0.6c0.4-0.2,0.8-0.3,1.2-0.5c1.4-0.5,2.7-1,4.2-1.5c2.3-0.7,4.7-1.1,7-1.5
			c1.1-0.2,1.6,2.7,1.7,3.4c0,0.1,0,0.2,0,0.3c0,0,0,0.3,0,0.3c0,0.2,0.1,1.2,0.1,1.4c0.1,0.8-1.2,1-1.9,1.1c0,0-0.1,0-0.1,0
			c-0.6,0.1-1.2,0.2-1.9,0.3c-0.1,0-0.2,0-0.2,0.1c0.1,0.6,0.1,1.4,0.2,2.1c0,0.1,0,0.1,0,0.2c0.1,1.7,1.8,12.4,1.9,13.7
			c0,0.3-0.1,0.6-0.1,0.9c-0.2,0.8-0.7,1.3-1.6,1.5c-0.2,0-0.9,0.2-1.1,0.2c-1.1,0.2-2.2,0.2-3.4,0.5
			C299.9,137,299.6,136.1,299.5,135.4z"/>
		<path d="M319.7,132.9c-0.1,0-0.2-0.1-0.2-0.1c-0.2,0-1.3,0-1.5,0c0,0-0.3-0.1-0.4-0.1c0,0-0.1,0-0.1,0c-0.1,0.5-0.2,0.9-0.3,1.4
			c0,0-0.2,0.5-0.2,0.5c0,0.1-0.1,0.9-0.1,1c0,0.2-0.4,0.5-0.7,0.5c-2-0.1-4-0.1-6-0.1c-0.1-0.2-0.6,0-0.6-0.3c0,0,0-0.1,0-0.1
			c0.5-5,1-10,1.5-15.1c0,0,0-0.3,0-0.4c0.2-2.2,0.2-4.4,0.4-6.7c0.3-1-0.3-2.3,0.6-3.1c0.2-0.2,0.5-0.4,0.8-0.5
			c0.5-0.1,2.6-0.3,3.1-0.3c0.1,0,0.2,0,0.3,0c0.5,0,2.9-0.1,3.4-0.2c1.4,0.2,2.1,0.8,2.6,2.1c2.5,7.1,5,14.3,7.4,21.7
			c0,0.2,0.2,1,0.3,1.1c0,0.2,0.3,1.2,0.4,1.3c0,0,0,0,0,0c-0.4,0.6-1.2,0.8-1.9,0.8c-0.6,0-1.2,0-1.8-0.1c-0.6,0.1-1.5,0.2-2.1,0.2
			c-0.3,0-0.7-0.1-1.1-0.3c-0.2-0.1-0.3-0.2-0.5-0.3c-0.2-0.1-0.1-0.5-0.2-0.6c-0.1-0.3-0.3-1-0.3-1c-0.1-0.3-0.5-1.1-0.5-1.2
			c0,0-0.1-0.1-0.1-0.1C321.2,132.9,320.4,132.9,319.7,132.9z M317.2,126.6C317.3,126.6,317.3,126.6,317.2,126.6
			c0.1,0,0.5,0.1,0.6,0.1c0.4,0,0.7,0.1,1.1,0.1c0.1,0,0.1,0,0.2,0c0.3-0.2,1,0,1-0.3c0-0.3-0.4-1.9-0.4-2c-0.4-1.5-0.8-3-1.2-4.5
			c0,0-0.1-0.3-0.2-0.5c-0.2-0.5-0.9-0.5-0.9-0.5c-0.5,1.2-0.2,4.3-0.3,5.9c0,0.4,0,0.8,0,1.3C317.2,126.4,317.2,126.5,317.2,126.6z
			"/>
		<path d="M331.4,132.9c0.3-1.3,0.7-2.5,0.9-3.7c0.1-0.2,0.1-0.8,0.2-0.9c0.1-0.9,0.3-1.7,0.4-2.6c0.1-0.2,0.1-0.4,0.2-0.7
			c0.2-0.7,0.3-1.3,0.4-2c0-0.4,0.2-0.7,0.2-1c0,0,0-0.4,0-0.5c0.1-0.2,0.2-0.3,0.1-0.5c0-0.2-0.2-0.3-0.2-0.5
			c-0.4-1.4-1.2-2.5-2-3.7c0,0-0.1-0.2-0.1-0.3c0-0.1-0.2-0.3-0.2-0.3c-0.6-0.9-1.1-1.8-1.7-2.7c-0.2-0.6-0.6-1.1-0.9-1.6
			c-0.1-0.2-0.1-0.4-0.3-0.6c-0.3-0.4-0.8-0.8-0.9-1.4c0-0.2,0-0.4,0.3-0.5c0.2,0,1.2-0.1,1.4-0.2c0.8-0.1,1.6-0.1,2.4-0.2
			c0.2,0,1.7-0.2,1.9-0.3c0.1,0,0.2,0,0.3,0c1.1-0.1,1,0.5,1.6,1.4c0.5,1.2,1.1,2.4,1.6,3.7c0.1,0.2,0.2,0.5,0.2,0.7
			c0.1,0,0.3-2.5,0.3-2.8c0-1.4-0.3-2.5,0.9-3.4c1.8-0.2,3.5-0.4,5.4-0.7c0.1,0,0.1,0,0.2,0c1.1-0.2,2.1-0.3,2.9,0.4
			c0,0,0.1,0.1,0.1,0.1c0,0.1,0.1,0.3,0.1,0.4c0.1,0.6-0.4,1.4-0.5,2c-0.3,0.9-0.4,1.9-0.8,2.8c-0.1,0.3-0.7,1.7-0.8,1.9
			c-0.1,0.6-0.4,1.3-0.6,1.9c-0.1,0.2-0.1,0.3-0.2,0.5c-0.2,0.7-0.7,1.3-0.9,2c0,0-0.1,0.3-0.1,0.4c-0.1,0.5-0.4,1-0.6,1.5
			c-0.1,0.3-0.3,0.9-0.3,0.9c0,0.1,0,0.1,0,0.2c0.4,0.4,0.5,0.9,0.8,1.4c0.1,0.2,0.9,1.2,0.9,1.3c0.1,0.1,0.7,1.2,0.9,1.5
			c0,0,0.2,0.3,0.2,0.3c0.4,0.6,0.7,1.2,1.1,1.8c0,0.1,0.2,0.5,0.2,0.5c0.2,0.5,0.5,0.8,0.8,1.3c0.4,0.6,0.8,1.4,1.2,2
			c0,0.1,0.1,0.2,0.1,0.2c0.2,0.4,0.5,0.7,0.5,1.2c0,0.2-0.2,0.8-3.4,1.3c0,0,0,0,0,0c-0.7,0.2-1.4,0.3-2.1,0.3c-0.3,0-0.5,0-0.9,0
			c-0.7-0.2-0.9-0.7-1.3-1.2c-0.5-1.5-1.2-2.8-2-4.2c-0.2-0.2-0.1-0.6-0.4-0.7c0,0,0,0.1,0,0.1c-0.1,0.5-0.2,1-0.4,1.5
			c0,0,0,0.1,0,0.1c-0.2,0.7-0.3,1.4-0.5,2.1c0,0-0.1,0.3-0.1,0.4c-0.1,0.1-0.9,2.2-0.9,2.2c-1.1,0.1-2.5,0.2-3.7,0.2
			c-0.5,0-2.5-0.1-2.6-0.8C330.9,134.9,331.3,132.9,331.4,132.9z"/>
		<path d="M352,129.6c-0.1-0.8-0.3-1.7-0.4-2.5c-0.1-0.9,0-1.9-0.1-2.9c-0.1-1.1-0.3-2.3-0.5-3.4c0-0.1-0.1-0.2-0.1-0.3
			c-0.1-0.2-0.1-1-0.1-1.2c-0.1-1.5-0.3-2.9-0.4-4.4c-0.1-0.2-0.1-0.3-0.1-0.6c0-0.4,0-0.7,0-1.1c-0.1-1.6-0.5-3-0.7-4.6
			c0-0.4,0-0.7,0.2-1.1c0.2-0.5,0.9-0.6,1.4-0.7c1.2-0.3,2.4-0.6,3.6-1c0.7-0.3,1.3-0.7,2-0.9c0,0,0.3-0.1,0.4-0.1
			c1-0.1,0.7,2.5,1.1,3c0,1,0.2,1.8,0.3,2.8c0,0,0,0.1,0,0.1c0,0.2,0,1.6,0.1,1.8c0,0.5,0.1,0.7,0,1.2c0.1,0.8,0.1,1.6,0.2,2.3
			c0,0.1,0.1,0.5,0.2,0.6c0,0.3,0,0.6,0.1,0.9c0.1,0.2,0.1,0.4,0.1,0.6c0.5,2.7,0.8,5.5,1,8.3c0.1,1.5,0.2,2.8-0.1,4.5
			c-0.3,1.6-1.8,2.1-3.1,2.5c-0.1,0-0.1,0-0.2,0.1c-0.8,0.2-1.8,0.3-2.7,0.5c-0.5,0.1-1.8,0.6-1.9-0.3c-0.1-0.2-0.2-0.9-0.2-1
			C352,131.7,352.1,130.6,352,129.6z"/>
		<path d="M298.9,151.2c0.1,0,0.2-0.2,0.2-0.2c0,0,0.1,0,0.1,0c0.3-0.1,0.3,0.1,0.5,0.3c0.4,0.2,1,0.5,1.5,0.4
			c0.3-0.1,0.8-0.3,0.8-0.7c-0.1-0.7-0.8-1-1.4-1.5c-1-0.7-2.6-2-2.8-3.3c0-0.2,0-0.5,0-0.7c0,0,0-0.2,0-0.2
			c0.1-0.5,0.2-0.9,0.4-1.4c0.4-1.1,1.6-1.8,2.8-2.1c0.7-0.2,3.4-0.2,3.8,0.6c0.1,0.1,0.1,0.2,0.1,0.3c0.1,0.5-0.1,1-0.2,1.5
			c-0.1,0.3,0,1.1-0.5,1.2c-0.1,0-0.2-0.1-0.3-0.2c-0.5-0.3-1.1-0.6-1.8-0.5c-0.1,0.2-0.2,0-0.4,0.3c-0.1,0-0.1,0.7-0.1,0.8
			c0,0,0,0.1,0,0.1c0,0,0.1,0.1,0.1,0.1c0.3,0.3,0.5,0.5,0.9,0.6c0,0,0,0,0,0c0.4,0.3,0.8,0.5,1.1,0.8c0.1,0.1,0.1,0.1,0.1,0.2
			c0.1,0.2,0.4,0.3,0.5,0.5c0,0,0.3,0.4,0.3,0.4c0.5,0.6,0.7,1.2,0.8,2c0,0.1,0,0.2,0,0.2c-0.1,1.1-0.9,2.9-1.9,3.6
			c-0.3,0.2-0.9,0.3-1.3,0.4c-0.1,0-0.8,0-1,0c0,0,0,0,0,0c-1,0-2.1-0.2-2.9-0.7c-0.2-0.1-0.4-0.2-0.5-0.4
			C297.8,152.9,298.2,151.8,298.9,151.2z"/>
		<path d="M308.2,154.2c-0.2,0-0.4-0.2-0.4-0.3c-0.1-0.5-0.1-0.9-0.2-1.4c0-0.1,0-0.2,0-0.3c-0.2-1.3-0.4-2.5-0.5-3.8
			c0-0.2,0-0.3-0.1-0.5c0-0.1,0-0.2,0-0.3c0,0-0.1-0.4-0.1-0.4c-0.2-1.9-0.4-3.8-0.7-5.8c0-0.1,0-0.3,0.2-0.3c0.4,0,0.7-0.1,1.1-0.1
			c0.3,0,1.7-0.1,2-0.1c0.1,0,0.1,0,0.2,0c0.3,0,1.5,0,1.7-0.1c0.5,0,1-0.2,1.5-0.2c0.2,0,0.3,0,0.6,0.1c0,0,0,0,0,0
			c0,0.1,0,0.1,0,0.1c0,0.1,0.2,0.2,0.2,0.3c0.1,0.2,0.1,0.7,0.2,1c0,0,0,0.1,0,0.1c0,0,0,0,0,0c0,0,0,0,0,0c0,0,0,0.1,0,0.1
			c0,0,0,0.1,0,0.1c0,0,0,0.1,0,0.2c0,0,0,0.1,0,0.1c0,0,0,0,0,0.1c0,0,0,0.1,0,0.1c0,0.2,0,0.4,0,0.6c0,0,0,0,0,0c0,0,0,0,0,0
			c0,0.1,0,0.1-0.1,0.1c0,0,0,0,0,0c0,0,0,0,0,0c0,0,0,0,0,0c-0.2,0.3-0.6,0.4-1.1,0.4c-0.1,0-0.3,0-0.4,0.1c-0.3,0-0.7,0-1,0
			c0,0-0.1,0-0.1,0.1c-0.3,0-0.7,0-1,0c0,0.1,0.1,0.8,0.1,0.9c0,0.3,0.1,0.6,0.1,1c0.1,0,0.1,0,0.1,0c0.6,0,1.2-0.1,1.8-0.2
			c0.5,0,0.7,0.4,0.9,0.9c0,0.2,0,0.3,0.1,0.5c0,0.1,0,0.4,0,0.5c0,0.2,0,0.4,0,0.6c-0.1,0.4-0.6,0.6-0.9,0.7
			c-0.2,0-1.1,0.1-1.2,0.2c0,0-0.1,0-0.1,0c0,0.3,0.1,0.6,0.1,0.9c0,0.1,0.1,0.2,0.1,0.2c1.1,0,2.1,0.1,3.1,0.1c0.1,0,0.1,0,0.2,0
			c0,0,0.2,0.2,0.3,0.3c0,0,0.2,0.2,0.2,0.3c0,0,0.1,0.1,0.1,0.1c0,0.4,0.1,0.8,0.1,1.1c0,0,0,0.1,0.1,0.1c0,0.3,0.1,0.5,0.1,0.8
			c0,0,0,0.1,0,0.2c-0.2,0.5-0.3,0.5-0.8,0.6c-0.2,0.1-0.3,0.1-0.5,0.1c-0.3,0-0.7,0-1,0.1c-0.7,0-1.4,0-2,0
			C310.1,154.1,309.1,154.1,308.2,154.2z"/>
		<path d="M317.6,154.2c0,0-0.4-0.2-0.4-0.2c-0.4-0.2-0.5-0.9-0.5-1.3c0,0,0,0,0-0.1c-0.1-0.6,0-1.2-0.1-1.9c0-0.3-0.1-0.6-0.1-1
			c-0.1-0.3-0.3-1.5-0.4-1.7c0-0.1-0.1-0.7-0.1-0.9c0-0.1-0.1-0.7-0.1-0.9c0.1-0.4,0-0.8-0.1-1.2c-0.1-0.4-0.1-0.9-0.2-1.3
			c0-0.3-0.1-0.5-0.2-0.8c-0.1-0.6,0-1.3-0.1-1.9c0,0,0.2-0.1,0.2-0.1c0,0,0.2-0.1,0.3-0.1c0.2,0,1.1-0.1,1.3,0c0,0,0.5,0,0.7,0
			c0.1,0,0.6,0,0.7,0c0.6,0.1,1.2,0.1,1.8,0.2c0.2,0.1,1.2,0.3,1.3,0.4c0.6,0.2,1,0.5,1.5,0.9c0.1,0.1,0.2,0.2,0.3,0.3
			c0.1,0.2,0.4,0.4,0.6,0.7c0.4,0.8,0.8,1.4,0.9,2.3c0,0.2,0,0.3,0,0.6c0,0.3,0,0.5-0.1,0.8c0,0.2-0.2,0.4-0.3,0.6c0,0,0,0.1,0,0.1
			c-0.3,0.7-0.8,1.4-1.5,1.5c0,0,0,0,0,0c0.3,0.4,0.5,0.8,0.8,1.1c0,0,0,0.1,0,0.1c0.2,0.5,0.5,0.9,0.8,1.4c0.3,0.5,0.5,1,0.8,1.5
			c0.1,0.1,0.1,0.1,0.1,0.2c0.1,0.6-0.9,0.7-1.3,0.7c-0.4,0-0.8,0-1.2,0c0,0-0.2,0-0.2,0c-0.1,0-0.1-0.1-0.1-0.1
			c-0.7-0.4-0.7-1-1-1.6c-0.2-0.3-0.4-0.7-0.6-1c-0.3-0.5-0.5-1-0.8-1.5c0,0,0,0.2,0,0.3c0,0.2,0.1,0.4,0.2,0.7c0,0.1,0,0.2,0,0.4
			c0,0,0,0,0,0c0,0.2,0.1,0.8,0.2,1c0.1,0.3,0.2,0.6,0.2,0.9c0.1,1.1-0.6,1.3-1.5,1.2c0,0-0.1,0-0.1,0c-0.2,0-1.1-0.1-1.3-0.1
			C317.8,154.4,317.7,154.3,317.6,154.2z M319.8,147.4c0,0,0.1,0,0.2,0c0.8,0,1.2-1.2,1.1-2c-0.1-0.6-0.7-1.1-1.2-1.3
			c-0.1-0.1-0.3-0.1-0.4-0.2c0,0-0.1,0-0.1,0c0.1,1.1,0.3,2.1,0.4,3.2C319.8,147.2,319.8,147.3,319.8,147.4z M320.1,150
			C320.2,150.1,320.2,150,320.1,150C320.1,150,320.1,150,320.1,150z"/>
		<path d="M328.5,153.7c0-0.1-0.1-0.6-0.2-0.7c0,0-0.1-0.2-0.1-0.3c0,0,0-0.2-0.1-0.3c-0.1-0.3-0.2-0.5-0.3-0.8
			c-0.1-0.2-0.1-0.3-0.1-0.5c-0.3-0.9-0.6-1.8-0.9-2.7c-0.2-0.3-0.2-0.6-0.3-1c-0.1-0.4-0.4-0.9-0.5-1.3c-0.1-0.3-0.1-0.5-0.2-0.8
			c0,0-0.1-0.2-0.1-0.3c-0.2-0.5-0.3-1.1-0.6-1.5c0-0.1-0.1-0.5-0.1-0.6c0-0.2-0.1-0.3-0.2-0.5c0-0.4-0.1-0.8,0.3-1
			c0.1-0.1,0.2-0.1,0.3-0.1c0.7,0,1.4-0.1,2.1-0.1c0.4,0,0.9,0,1.2,0.4c0.1,0.2,0.1,0.5,0.2,0.7c0.1,0.3,0.1,0.6,0.2,0.9
			c0,0.1,0.1,0.5,0.2,0.5c0,0,0.1,0.2,0.1,0.2c0.2,0.9,0.4,2,1.2,5c0,0,0-0.1,0-0.1c0-0.9,0-1.7,0.1-2.6c0.1-0.6,0.2-1.2,0.2-1.8
			c0-0.4,0-0.7,0.1-1.1c0-0.3,0.2-1.4,0.3-1.7c0.1-0.4,0.3-0.4,0.7-0.4c0.1,0,1.3-0.1,1.4-0.1c0.2,0,0.4,0,0.6,0
			c0.5,0,0.7,0,1.2,0.3c0,0,0.1,0,0.1,0c0.1,0,0,1-0.1,1.5c0,0.1-0.2,0.7-0.1,0.8c0,0,0,0.2,0,0.2c0,0.2-0.1,0.9-0.2,1.1
			c0,0.1,0,0.5,0,0.6c-0.1,0.4-0.2,0.8-0.2,1.2c0,0,0,0.1,0,0.1c-0.1,0.8-0.3,1.7-0.4,2.5c0,0.1,0,0.5,0,0.5c0,0.3-0.1,0.7-0.1,1
			c0,0.3,0,0.4,0,0.6c0,0.2-0.1,0.3-0.1,0.6c0,0,0,0.3,0,0.4c0,0.5-0.2,0.9-0.4,1.4c0,0.1,0,0.3-0.1,0.4c0,0.1-0.2,0.4-0.2,0.5
			c0,0,0,0,0,0c-0.6,0.3-1.4,0.2-2.2,0.3c-0.4,0-0.7-0.1-1.1-0.1c-0.5,0-0.8-0.3-1.1-0.8c0,0-0.1-0.3-0.1-0.3c0,0,0,0,0-0.1
			C328.6,154.2,328.5,153.7,328.5,153.7z"/>
		<path d="M337.7,153.1c0-0.4-0.2-0.9-0.2-1.3c0-0.5,0-0.9-0.1-1.4c-0.1-0.6-0.2-1.2-0.3-1.8c0,0-0.1-0.1-0.1-0.1
			c0-0.1-0.1-0.5-0.1-0.6c-0.1-0.7-0.1-1.5-0.2-2.2c-0.1-0.1-0.1-0.2-0.1-0.3c0-0.2,0-0.4,0-0.5c-0.1-0.8-0.3-1.6-0.4-2.4
			c0-0.2,0-0.3,0.1-0.5c0.1-0.2,0.4-0.2,0.7-0.2c0.6,0,1.2,0,1.8,0c0.3,0,0.6-0.2,1-0.2c0,0,0.1,0,0.2,0c0.5,0.1,0.4,1.3,0.6,1.7
			c0,0.5,0.1,0.9,0.2,1.5c0,0,0,0,0,0c0,0.1,0,0.8,0,0.9c0,0.3,0.1,0.3,0,0.6c0,0.4,0.1,0.8,0.1,1.2c0,0.1,0,0.3,0.1,0.3
			c0,0.2,0,0.3,0,0.5c0.1,0.1,0,0.2,0,0.3c0.2,1.4,0.4,2.9,0.6,4.3c0.1,0.8,0.1,1.4,0,2.2c-0.1,0.7-0.9,0.7-1.5,0.7c0,0-0.1,0-0.1,0
			c-0.4,0-0.9-0.1-1.3-0.1c-0.2,0-0.9,0.1-0.9-0.4c0-0.1-0.1-0.5-0.1-0.5C337.6,154.1,337.7,153.6,337.7,153.1z"/>
		<path d="M342.4,146.2c0-0.3,0-0.4,0-0.6c0.1-0.8,0.2-1.6,0.7-2.1c0.4-0.5,0.8-1,1.2-1.5c0.1,0,0.5-0.3,0.5-0.4
			c0.9-0.7,2-0.9,3.1-1.1c0.6-0.1,1.2,0,1.9,0.1c0,0,0.3,0.1,0.4,0.1c0,0,0.1,0,0.1,0c0.1,0,0.2,0.4,0.2,0.5c0,0.2,0.1,0.8,0.1,0.9
			c0,0,0,0.3,0.1,0.4c0,0.1,0,0.3,0,0.4c0,0.3-0.1,0.5-0.1,0.8c-0.1,0.1,0,0.3-0.1,0.4c-0.1,0.1-0.4,0.2-0.6,0.2
			c-0.4,0.1-0.9,0-1.3,0.1c-0.6,0-1.5,0.4-1.8,1c0,0-0.1,0.3-0.1,0.3c0,0.1-0.2,0.6-0.3,0.7c-0.1,0.5-0.2,1.2-0.1,1.7
			c0,0.3,0.2,0.6,0.3,0.9c0.1,0.2,0.3,0.9,0.3,1c0.1,0.4,0.2,0.7,0.5,1c0,0,0,0,0,0c0.1,0,0.2,0.1,0.3,0.1c0,0,0.3,0,0.4,0
			c0.4,0,0.6-0.1,1-0.2c0.1,0,0.3-0.1,0.4-0.1c0.3,0,0.7,0.2,0.8,0.5c0.1,0.2,0.1,0.5,0.2,0.7c0.1,0.3,0.3,0.5,0.4,0.8
			c0,0.1,0.1,0.6,0.1,0.8c0,0.2,0.1,0.5,0.2,0.7c0.2,0.8-0.8,1-1,1c-0.1,0-0.7,0.2-0.9,0.3c0,0-0.1,0-0.2,0c-0.5,0.1-1,0-1.6,0
			c-0.4,0-0.7-0.1-1.1-0.2c-0.2,0-0.3-0.1-0.4-0.1c-0.2-0.1-0.4-0.1-0.5-0.1c-0.6-0.3-0.9-0.6-1.3-1.1c-0.7-0.8-1.1-1.6-1.4-2.6
			c0,0-0.1-0.1-0.1-0.2c0-0.1-0.1-0.4-0.1-0.5c0-0.2-0.2-0.4-0.3-0.7c-0.2-0.5-0.3-1-0.3-1.6C342.4,147.7,342.4,147,342.4,146.2z"/>
		<path d="M353.4,154.5c-0.2,0-0.4-0.1-0.4-0.3c0-0.5-0.1-1-0.1-1.5c0-0.1,0-0.2,0-0.3c-0.1-1.4-0.2-2.8-0.3-4.2c0-0.2,0-0.4,0-0.6
			c0-0.1,0-0.2,0-0.3c0,0-0.1-0.4-0.1-0.4c-0.1-2.1-0.2-4.3-0.3-6.4c0-0.1,0-0.3,0.2-0.3c0.4-0.1,0.7-0.1,1.1-0.2
			c0.3-0.1,1.7-0.4,2-0.4c0.1,0,0.1,0,0.2,0c0.3,0,1.5-0.4,1.7-0.5c0.5-0.2,1-0.5,1.5-0.6c0.2-0.1,0.3-0.1,0.6-0.1c0,0,0,0,0,0
			c0,0.1,0,0.1,0,0.1c0,0.1,0.2,0.2,0.2,0.3c0.1,0.2,0.1,0.8,0.1,1c0,0,0,0.1,0,0.1c0,0,0,0,0,0c0,0,0,0,0,0c0,0,0,0.1,0,0.1
			c0,0,0,0.1,0,0.1c0,0,0,0.1,0,0.2c0,0,0,0.1,0,0.1c0,0,0,0.1,0,0.1c0,0,0,0.1,0,0.1c0,0.2-0.1,0.5-0.1,0.7c0,0,0,0,0,0
			c0,0,0,0,0,0c0,0.1,0,0.1-0.1,0.1c0,0,0,0,0,0c0,0,0,0,0,0c0,0,0,0,0,0c-0.2,0.5-0.7,0.6-1.1,0.8c-0.1,0.1-0.3,0.1-0.4,0.2
			c-0.3,0.1-0.7,0.2-1,0.3c-0.1,0-0.1,0.1-0.2,0.1c-0.3,0.1-0.7,0.2-1,0.3c0,0.1,0,0.9,0,1c0,0.4,0.1,0.7,0.1,1.1c0.1,0,0.1,0,0.1,0
			c0.6-0.2,1.2-0.4,1.8-0.6c0.5-0.2,0.7,0.3,0.8,0.7c0,0.2,0,0.4,0.1,0.5c0,0.1,0,0.5,0,0.6c0,0.2,0,0.5,0,0.7c-0.1,0.5-0.6,0.8-1,1
			c-0.2,0.1-1.1,0.4-1.3,0.5c0,0-0.1,0-0.1,0.1c0,0.3,0,0.6,0.1,0.9c0,0.1,0.1,0.2,0.1,0.2c1.1-0.2,2.1-0.5,3.2-0.9
			c0.1,0,0.1,0,0.2,0c0,0,0.2,0.1,0.3,0.2c0,0,0.2,0.2,0.2,0.3c0,0,0.1,0.1,0.1,0.1c0,0.4,0.1,0.8,0.1,1.2c0,0,0,0.1,0,0.1
			c0,0.3,0,0.5,0.1,0.8c0,0,0,0.2,0,0.2c-0.2,0.7-0.4,0.7-0.9,0.9c-0.2,0.1-0.3,0.2-0.5,0.3c-0.3,0.1-0.7,0.2-1,0.4
			c-0.7,0.2-1.4,0.4-2.1,0.6C355.4,154.1,354.4,154.3,353.4,154.5z"/>
	</g>
</g>
<g>
	<linearGradient id="SVGID_1_" gradientUnits="userSpaceOnUse" x1="389.0262" y1="233.8012" x2="389.0262" y2="173.9587">
		<stop  offset="0" style="stop-color:#CDC2FF"/>
		<stop  offset="0.6484" style="stop-color:#DCC2FF"/>
		<stop  offset="1" style="stop-color:#E6C2FF"/>
	</linearGradient>
	<path style="fill-rule:evenodd;clip-rule:evenodd;fill:url(#SVGID_1_);" d="M392.5,179.5c0,0,14.8,14.1,13,52.5l-14,1.8
		c0,0,2.3-49.7-19.1-59.8C372.4,174,383.9,174.6,392.5,179.5z"/>
	
		<linearGradient id="SVGID_00000092453290019177165870000007672574949323505847_" gradientUnits="userSpaceOnUse" x1="361.6874" y1="229.4595" x2="361.6874" y2="189.1573">
		<stop  offset="0" style="stop-color:#87C2FF"/>
		<stop  offset="1" style="stop-color:#7BB4FF"/>
	</linearGradient>
	<path style="fill-rule:evenodd;clip-rule:evenodd;fill:url(#SVGID_00000092453290019177165870000007672574949323505847_);" d="
		M364.1,189.8c0,0,16.5,10.8,10.6,39.7h-7.9c0,0,6.3-38.1-19.3-39.1C347.4,190.4,355.8,188.1,364.1,189.8z"/>
	<polygon class="st51" points="197.4,258.9 201,309.5 206.9,309.5 218.2,260 	"/>
	
		<linearGradient id="SVGID_00000079467406185661120130000007288555586139080597_" gradientUnits="userSpaceOnUse" x1="194.3705" y1="309.5314" x2="194.3705" y2="259.3892">
		<stop  offset="0" style="stop-color:#C5A5FF"/>
		<stop  offset="0.2243" style="stop-color:#CE92FF"/>
		<stop  offset="0.7337" style="stop-color:#DF6BFF"/>
		<stop  offset="1" style="stop-color:#E65CFF"/>
	</linearGradient>
	
		<polygon style="fill-rule:evenodd;clip-rule:evenodd;fill:url(#SVGID_00000079467406185661120130000007288555586139080597_);" points="
		197.4,259.7 187.7,259.4 197.6,309.5 201,309.5 	"/>
	<polygon class="st53" points="213.8,279.4 199.3,285.9 201,309.5 197.6,309.5 187.9,260.2 217.2,261.3 	"/>
	
		<linearGradient id="SVGID_00000114043259320689904590000002219568382867218620_" gradientUnits="userSpaceOnUse" x1="324.2416" y1="310.813" x2="324.2416" y2="260.1851">
		<stop  offset="0" style="stop-color:#E6C2FF"/>
		<stop  offset="0.2786" style="stop-color:#E6BBFF"/>
		<stop  offset="1" style="stop-color:#E6ACFF"/>
	</linearGradient>
	
		<polygon style="fill-rule:evenodd;clip-rule:evenodd;fill:url(#SVGID_00000114043259320689904590000002219568382867218620_);" points="
		310.8,260.2 315.6,310.8 323.1,310.8 337.7,261.3 	"/>
	
		<linearGradient id="SVGID_00000178180159686243078490000003000154014690942623_" gradientUnits="userSpaceOnUse" x1="308.5035" y1="310.813" x2="308.5035" y2="259.8422">
		<stop  offset="0" style="stop-color:#C5A5FF"/>
		<stop  offset="0.2243" style="stop-color:#CE92FF"/>
		<stop  offset="0.7337" style="stop-color:#DF6BFF"/>
		<stop  offset="1" style="stop-color:#E65CFF"/>
	</linearGradient>
	
		<polygon style="fill-rule:evenodd;clip-rule:evenodd;fill:url(#SVGID_00000178180159686243078490000003000154014690942623_);" points="
		310.8,260.2 301.5,259.8 311.1,310.8 315.6,310.8 	"/>
	<polygon class="st51" points="260.6,258.9 264.3,309.5 270.2,309.5 281.5,260 	"/>
	
		<linearGradient id="SVGID_00000084511589852603531480000017443370425626612640_" gradientUnits="userSpaceOnUse" x1="258.8172" y1="309.5314" x2="258.8172" y2="258.5607">
		<stop  offset="0" style="stop-color:#C5A5FF"/>
		<stop  offset="0.2243" style="stop-color:#CE92FF"/>
		<stop  offset="0.7337" style="stop-color:#DF6BFF"/>
		<stop  offset="1" style="stop-color:#E65CFF"/>
	</linearGradient>
	
		<polygon style="fill-rule:evenodd;clip-rule:evenodd;fill:url(#SVGID_00000084511589852603531480000017443370425626612640_);" points="
		260.6,258.9 253.3,258.6 260.9,309.5 264.3,309.5 	"/>
	
		<linearGradient id="SVGID_00000154393722914881068680000006520369800907576737_" gradientUnits="userSpaceOnUse" x1="234.331" y1="310.813" x2="234.331" y2="260.1851">
		<stop  offset="0" style="stop-color:#E6C2FF"/>
		<stop  offset="0.2786" style="stop-color:#E6BBFF"/>
		<stop  offset="1" style="stop-color:#E6ACFF"/>
	</linearGradient>
	
		<polygon style="fill-rule:evenodd;clip-rule:evenodd;fill:url(#SVGID_00000154393722914881068680000006520369800907576737_);" points="
		222.4,260.2 227.1,310.8 234.6,310.8 246.3,260.5 	"/>
	
		<linearGradient id="SVGID_00000124159189399212856280000000287954425361625746_" gradientUnits="userSpaceOnUse" x1="220.0318" y1="310.813" x2="220.0318" y2="259.8422">
		<stop  offset="0" style="stop-color:#C5A5FF"/>
		<stop  offset="0.2243" style="stop-color:#CE92FF"/>
		<stop  offset="0.7337" style="stop-color:#DF6BFF"/>
		<stop  offset="1" style="stop-color:#E65CFF"/>
	</linearGradient>
	
		<polygon style="fill-rule:evenodd;clip-rule:evenodd;fill:url(#SVGID_00000124159189399212856280000000287954425361625746_);" points="
		222.4,260.2 213,259.8 222.7,310.8 227.1,310.8 	"/>
	<polygon class="st53" points="242.7,277.9 224.6,284.5 227.1,310.8 222.7,310.8 213.1,261.1 245.8,262.8 	"/>
	<polygon class="st53" points="277.2,278.6 262.3,282.1 264.3,309.5 260.9,309.5 253.5,260.7 280.9,262.5 	"/>
	<polygon class="st53" points="306.3,285.3 311.1,310.8 315.6,310.8 312.6,279.1 332.1,280.2 337.7,262.5 302.6,260.7 	"/>
	<polygon class="st51" points="231,91.3 224.3,47.3 218.4,46 213.7,80.1 	"/>
	<polygon class="st59" points="218.4,46 215.6,47.8 207.1,83.9 213.7,80.1 	"/>
	
		<linearGradient id="SVGID_00000153665248344026483060000005948052130324882073_" gradientUnits="userSpaceOnUse" x1="202.8979" y1="260.1851" x2="202.8979" y2="118.3889">
		<stop  offset="0" style="stop-color:#C5A5FF"/>
		<stop  offset="0.2243" style="stop-color:#CE92FF"/>
		<stop  offset="0.7337" style="stop-color:#DF6BFF"/>
		<stop  offset="1" style="stop-color:#E65CFF"/>
	</linearGradient>
	
		<polygon style="fill-rule:evenodd;clip-rule:evenodd;fill:url(#SVGID_00000153665248344026483060000005948052130324882073_);" points="
		187.7,259.4 181.1,185.6 196.5,122.1 224.7,118.4 217.3,188.1 213.1,260.2 	"/>
	
		<linearGradient id="SVGID_00000140005508298922582310000018179604378773328799_" gradientUnits="userSpaceOnUse" x1="266.3513" y1="261.2831" x2="266.3513" y2="71.0085">
		<stop  offset="0" style="stop-color:#E6C2FF"/>
		<stop  offset="0.2786" style="stop-color:#E6BBFF"/>
		<stop  offset="1" style="stop-color:#E6ACFF"/>
	</linearGradient>
	
		<polygon style="fill-rule:evenodd;clip-rule:evenodd;fill:url(#SVGID_00000140005508298922582310000018179604378773328799_);" points="
		259,193 255.5,108.2 249.2,82 231.7,71 190.8,89.6 190.8,101.2 185.3,103.1 192.3,117.9 223.9,126.2 216.2,180.5 213.1,260.2 
		337.7,261.3 347.4,198.4 	"/>
	<polygon class="st59" points="173.1,103.8 175.7,95.9 190.8,89.6 190.8,101.2 185.3,103.1 192.3,117.9 172.5,119.1 166.4,105 	"/>
	
		<linearGradient id="SVGID_00000176038202167762958610000007061242152465323173_" gradientUnits="userSpaceOnUse" x1="178.6019" y1="105.0103" x2="178.6019" y2="101.1813">
		<stop  offset="0" style="stop-color:#C5C2FF"/>
		<stop  offset="0.1268" style="stop-color:#CAC2FF"/>
		<stop  offset="1" style="stop-color:#E6C2FF"/>
	</linearGradient>
	
		<polygon style="fill-rule:evenodd;clip-rule:evenodd;fill:url(#SVGID_00000176038202167762958610000007061242152465323173_);" points="
		166.4,105 185.7,103.1 190.8,101.2 173.1,103.8 	"/>
	<polygon class="st63" points="172.5,119.1 195.4,128.2 223.9,126.2 192.3,117.9 	"/>
	<polygon class="st63" points="190.8,101.2 199.8,100.4 190.8,100.5 173.1,103.8 	"/>
	
		<linearGradient id="SVGID_00000165916940621533739030000018053629026844876709_" gradientUnits="userSpaceOnUse" x1="222.4479" y1="103.7939" x2="222.4479" y2="82.8215">
		<stop  offset="1.711450e-02" style="stop-color:#B122F0"/>
		<stop  offset="1" style="stop-color:#D442FF"/>
	</linearGradient>
	<path style="fill-rule:evenodd;clip-rule:evenodd;fill:url(#SVGID_00000165916940621533739030000018053629026844876709_);" d="
		M231.7,92.4c0,5.3-4.2,11.4-9.3,11.4c-5.1,0-9.1-6.1-9.1-11.4c0-5.3,4.1-9.6,9.2-9.6C227.6,82.8,231.7,87.1,231.7,92.4z"/>
	<ellipse class="st65" cx="222.4" cy="92.4" rx="8.4" ry="8.7"/>
	
		<linearGradient id="SVGID_00000013888263887417352250000008654881001811732414_" gradientUnits="userSpaceOnUse" x1="223.8557" y1="95.9503" x2="223.8557" y2="90.665">
		<stop  offset="1.711450e-02" style="stop-color:#B122F0"/>
		<stop  offset="1" style="stop-color:#D442FF"/>
	</linearGradient>
	
		<ellipse style="fill-rule:evenodd;clip-rule:evenodd;fill:url(#SVGID_00000013888263887417352250000008654881001811732414_);" cx="223.9" cy="93.3" rx="2.4" ry="2.6"/>
	
		<linearGradient id="SVGID_00000120561267525947624820000002200882525895171204_" gradientUnits="userSpaceOnUse" x1="240.4903" y1="81.9987" x2="240.4903" y2="36.6094">
		<stop  offset="0" style="stop-color:#E6ACFF"/>
		<stop  offset="0.7214" style="stop-color:#E6BBFF"/>
		<stop  offset="1" style="stop-color:#E6C2FF"/>
	</linearGradient>
	
		<polygon style="fill-rule:evenodd;clip-rule:evenodd;fill:url(#SVGID_00000120561267525947624820000002200882525895171204_);" points="
		249.2,82 245.6,38.4 239.8,36.6 231.7,71 	"/>
	<polygon class="st59" points="239.8,36.6 235.6,39.8 224.8,74.2 231.7,71 	"/>
	<polygon class="st68" points="203.4,83.9 207.1,121.6 211.9,123 205.7,82.8 	"/>
	<polygon class="st69" points="207.1,121.6 179.4,121.8 184.4,123.8 211.9,123 	"/>
	<polygon class="st68" points="211.4,119.5 255.8,114.8 255.8,121.4 211.9,123 	"/>
	<polygon class="st63" points="185.3,100.4 185.8,93.3 189.9,92.2 189.4,99.5 	"/>
	<polygon class="st63" points="175.4,102.1 177,96.4 180.3,95 179.4,101.2 	"/>
	<polygon class="st70" points="177,101.7 177.9,97.4 180,96.8 179.4,101.2 	"/>
	<polygon class="st70" points="186.7,100.1 187.2,94.5 189.7,93.9 189.4,99.5 	"/>
	
		<linearGradient id="SVGID_00000085959044234954771280000011105058832519652750_" gradientUnits="userSpaceOnUse" x1="279.2303" y1="270.0863" x2="279.2303" y2="248.1841">
		<stop  offset="0" style="stop-color:#87C2FF"/>
		<stop  offset="1" style="stop-color:#7BB4FF"/>
	</linearGradient>
	<path style="fill-rule:evenodd;clip-rule:evenodd;fill:url(#SVGID_00000085959044234954771280000011105058832519652750_);" d="
		M339.7,248.2c0,0,0.1,11.2,6.2,16.4l-8.3,0.8c0,0-1.1-0.8-2.1-4.1l-1,7.3h-4l-1.2-7.2l-1.8,7.2H320v-7.2l-2.3,5.9l-5.1-0.5
		l-1.7-5.8v6.3l-6.4-0.7l-0.7-5.2l-0.9,6.2l-7.5-0.6l-1-5.9l-1.3,7.6h-7.8v-7.7l-2.3,7.7l-5.9-1.2l-0.8-6.5l-0.8,7.6h-5.8l1.4-7.6
		l-3.3,7.6h-3.5l-1-7.9l-0.8,8.9h-5.1l-1.2-8.9l-2.9,8.9h-9.1V262l-1.4,8l-7.8-0.7v-6.5l-0.7,6.6l-4.8,0.6v-9.8l-1.3,6h-5.9
		l-1.2-6.5l0.3,7.9l-4.9,0.3v-7.9l-1.2,7.8l-2.4-0.2l0.2-7.6l-0.6-10.4L339.7,248.2z"/>
	
		<linearGradient id="SVGID_00000110463407975526493930000005308966291972320430_" gradientUnits="userSpaceOnUse" x1="196.6314" y1="267.7742" x2="196.6314" y2="249.6366">
		<stop  offset="0" style="stop-color:#87C2FF"/>
		<stop  offset="1.772606e-02" style="stop-color:#87C1FF"/>
		<stop  offset="0.663" style="stop-color:#7E9AFF"/>
		<stop  offset="1" style="stop-color:#7B8BFF"/>
	</linearGradient>
	<path style="fill-rule:evenodd;clip-rule:evenodd;fill:url(#SVGID_00000110463407975526493930000005308966291972320430_);" d="
		M212.5,249.8l-26.9-0.2c0,0-1,13.3-5.4,15.6l4.2,1.1c0,0,3.8-1.3,5.5-7.4l-1.3,7.8h5l0.8-7.1l1.1,7.1h5.9l1.4-6.8l-0.6,6.8h3.1
		l0.6-6.5l0.8,6.5h2.4l1.1-6.5l0.6,7l2.2,0.6L212.5,249.8z"/>
	
		<linearGradient id="SVGID_00000101818755430639372730000001325828313076197518_" gradientUnits="userSpaceOnUse" x1="276.6187" y1="258.9036" x2="276.6187" y2="237.3307">
		<stop  offset="0" style="stop-color:#E6C2FF"/>
		<stop  offset="0.3516" style="stop-color:#DCC2FF"/>
		<stop  offset="1" style="stop-color:#CDC2FF"/>
	</linearGradient>
	
		<polygon style="fill-rule:evenodd;clip-rule:evenodd;fill:url(#SVGID_00000101818755430639372730000001325828313076197518_);" points="
		341.1,239.6 343.2,258.6 339,258.9 337.7,248.2 336.1,257.9 330.4,257.9 328.6,248.2 328.6,257.9 324.2,257.9 323.1,248 
		322.9,256.8 313.9,255.9 313,248.2 313,257.9 308.5,257.9 308.5,248.2 306.8,258.6 299.3,257.9 298.2,248.2 297.1,257.9 
		291.2,257.9 290.1,248.2 290.1,255.6 286.5,255.3 283.7,247.3 283.7,256.4 277.5,256.8 276.8,248 276.1,255.9 271.9,256.1 
		271.1,248 271.1,255.4 264.3,255.7 262.9,248 262.9,255.1 261.1,255.3 259.4,248 259.4,254.9 255.9,255.6 254.5,248.2 253.3,256.3 
		248.3,256.4 246.3,248.2 246.8,255.2 240.9,255 238.3,249.8 238.3,255.9 232.4,255.9 232.4,249.6 231,257.9 224.7,257.6 
		224.7,249.8 223.5,256.6 218.8,255.9 218.8,249.6 217,255.3 213.4,255.1 214,249.6 212.2,255.8 210.1,255.6 213.2,237.3 	"/>
	
		<linearGradient id="SVGID_00000084514546006241897150000009519604340570376872_" gradientUnits="userSpaceOnUse" x1="197.163" y1="257.2008" x2="197.163" y2="237.3307">
		<stop  offset="0" style="stop-color:#B9C2FF"/>
		<stop  offset="0.6018" style="stop-color:#C6A4FF"/>
		<stop  offset="1" style="stop-color:#CD95FF"/>
	</linearGradient>
	
		<polygon style="fill-rule:evenodd;clip-rule:evenodd;fill:url(#SVGID_00000084514546006241897150000009519604340570376872_);" points="
		184.8,237.8 181.1,254.4 183,254.9 185.3,244.8 184.6,254.9 187.4,254 189.1,249.7 189.1,254.9 195.2,254.9 195.8,249.8 
		195.8,256.1 198,256.1 199.8,249.8 199.8,256.1 204.4,256.1 205.7,249.8 205.7,257.2 207.5,257.2 208,254.9 209,249.8 209,254.9 
		210.1,255.6 213.2,237.3 	"/>
	
		<linearGradient id="SVGID_00000052098961249178835480000000814459111974553243_" gradientUnits="userSpaceOnUse" x1="277.9949" y1="250.4027" x2="277.9949" y2="222.6895">
		<stop  offset="0" style="stop-color:#C5A5FF"/>
		<stop  offset="0.2243" style="stop-color:#CE92FF"/>
		<stop  offset="0.7337" style="stop-color:#DF6BFF"/>
		<stop  offset="1" style="stop-color:#E65CFF"/>
	</linearGradient>
	
		<polygon style="fill-rule:evenodd;clip-rule:evenodd;fill:url(#SVGID_00000052098961249178835480000000814459111974553243_);" points="
		343.2,225.8 345.9,250.1 339.3,250.4 337.7,239.5 337.7,246.5 332.7,247.3 331.4,239.3 329.9,247.3 324.2,247.3 323,239 
		321.6,247.3 315.6,247.3 314.2,238.8 313.4,246.4 306.3,245.6 305,238.5 305,245.5 300.7,245.2 299.7,238.3 299.8,247.7 
		293.9,247.4 293.4,238.1 293.1,246.1 286,245.6 285.1,237.9 284.5,244.5 279.4,242.9 278.4,237.7 278.6,245.5 272.5,245.5 
		271.1,237.4 269.6,245.6 264.4,245.6 263.2,237.2 262.5,245.6 258.8,246.2 257.9,237 257.1,247.3 251.4,247.3 251.4,236.8 
		250.1,245.6 245.2,246 244,236.6 244,245.6 235.8,247.3 235,238 235,247.3 230.9,247.3 229.2,237.3 227.9,248.9 223.3,248.9 
		221.1,237.6 221.1,247.3 217,246 217,237.4 215.2,243.1 210.1,242.9 214,222.7 	"/>
	
		<linearGradient id="SVGID_00000036958016751117745750000000389094391181424788_" gradientUnits="userSpaceOnUse" x1="197.5372" y1="247.6045" x2="197.5372" y2="223.2935">
		<stop  offset="0" style="stop-color:#D45CFF"/>
		<stop  offset="0.443" style="stop-color:#D14DFF"/>
		<stop  offset="1" style="stop-color:#CF3EFF"/>
	</linearGradient>
	
		<polygon style="fill-rule:evenodd;clip-rule:evenodd;fill:url(#SVGID_00000036958016751117745750000000389094391181424788_);" points="
		214,223.3 183.9,224.4 181.1,244.9 184.1,245.7 187.1,238.4 186.5,245.7 190.9,245.7 191.4,239.1 192.1,247.6 193.1,247.6 
		194.9,239.3 195.8,247.3 198.3,247.3 199.8,237.8 199.8,247.6 204.3,247.3 205,244.1 206.5,236.4 207.3,244.5 210.1,242.9 	"/>
	
		<linearGradient id="SVGID_00000135658652859938697460000002630248481604268954_" gradientUnits="userSpaceOnUse" x1="278.7537" y1="240.4357" x2="278.7537" y2="216.141">
		<stop  offset="0" style="stop-color:#87C2FF"/>
		<stop  offset="1" style="stop-color:#7BB4FF"/>
	</linearGradient>
	
		<polygon style="fill-rule:evenodd;clip-rule:evenodd;fill:url(#SVGID_00000135658652859938697460000002630248481604268954_);" points="
		344.9,217.8 347.4,240.4 343.2,240.4 340.5,233.8 339.4,239.5 334.8,238.3 332.4,232.3 331.9,238.3 324.2,238.3 322.5,228.3 
		323,239 315.6,238.8 315.6,228.3 313.2,239.1 308.5,238.3 306.8,227.8 306.8,237.2 301.5,237.4 299.3,230.1 300.1,236.5 
		296.5,236.9 295.3,228.3 294.7,237.7 289.5,237.3 287.7,226.6 286.6,237.1 278.6,236.3 276.1,228.3 275.5,235.7 271.1,234.5 
		269.2,228.3 268.6,235.2 264.3,234.3 264.3,226.7 261.5,234.8 255.9,233.8 255.9,225.2 253.3,233.8 248.6,233.8 251,225.7 
		246.3,233.8 240.1,233.8 240.1,225.2 237.2,234.5 234.4,234 234.4,224.9 231.9,235.4 223.3,234.6 223.3,225.2 221.8,234.1 
		218.8,234 219.7,227.5 217.7,231.5 215.2,231.2 215.2,225.2 213.2,231.7 210.1,230.8 214.3,216.1 	"/>
	
		<linearGradient id="SVGID_00000100362444073656596170000012996760075022595974_" gradientUnits="userSpaceOnUse" x1="197.3174" y1="233.6395" x2="197.3174" y2="216.141">
		<stop  offset="0" style="stop-color:#87C2FF"/>
		<stop  offset="1.772606e-02" style="stop-color:#87C1FF"/>
		<stop  offset="0.663" style="stop-color:#7E9AFF"/>
		<stop  offset="1" style="stop-color:#7B8BFF"/>
	</linearGradient>
	
		<polygon style="fill-rule:evenodd;clip-rule:evenodd;fill:url(#SVGID_00000100362444073656596170000012996760075022595974_);" points="
		214.3,216.1 183.4,217.2 180.3,232.1 184.4,232.1 185.9,227.8 184.7,233.6 188.8,233.6 190.4,227.8 190.1,232.1 192.6,231.3 
		193.9,224.9 194.1,232.1 198.3,232.1 199.8,224.9 199.8,230.7 202.9,229.7 204.2,223.9 204.1,230.6 207.9,229.9 209.4,223.9 
		208.7,231.5 210.1,230.8 	"/>
	
		<linearGradient id="SVGID_00000130639865849465288420000013358539785050703533_" gradientUnits="userSpaceOnUse" x1="280.5827" y1="227.4645" x2="280.5827" y2="205.9434">
		<stop  offset="0" style="stop-color:#E6C2FF"/>
		<stop  offset="0.3516" style="stop-color:#DCC2FF"/>
		<stop  offset="1" style="stop-color:#CDC2FF"/>
	</linearGradient>
	
		<polygon style="fill-rule:evenodd;clip-rule:evenodd;fill:url(#SVGID_00000130639865849465288420000013358539785050703533_);" points="
		345.9,205.9 346.8,227.5 340.3,227.5 339,218.2 337.7,226.9 331.9,226.9 330.2,218.2 331.1,226.3 322.1,226 320,216.7 319.8,224.8 
		313.6,224.7 312.3,217.3 311.7,224.7 298.8,224.6 296.9,218.1 297.7,223.9 289.6,223.8 288.3,216.4 288.3,223.2 281.5,222.8 
		279.4,216.7 280.1,223.9 273.9,224 271.7,217 272.3,225.1 268.4,224.8 267,215.8 266.6,225 258.8,224.4 258.8,215.2 257.6,224.6 
		253.3,224.9 250.8,215.4 252.1,225.7 246.3,225.9 243.2,215.2 244.2,225.3 237.3,226.7 234.7,216.7 235.5,226.6 230.4,227.1 
		227.7,216.1 228.4,227.4 222.1,226.9 219.4,218.4 220,224.9 214.8,223.9 214.3,216.7 214.8,207.8 	"/>
	
		<linearGradient id="SVGID_00000100373463817419086160000010576129016333511820_" gradientUnits="userSpaceOnUse" x1="280.8752" y1="220.8138" x2="280.8752" y2="193.1007">
		<stop  offset="0" style="stop-color:#C5A5FF"/>
		<stop  offset="0.2243" style="stop-color:#CE92FF"/>
		<stop  offset="0.7337" style="stop-color:#DF6BFF"/>
		<stop  offset="1" style="stop-color:#E65CFF"/>
	</linearGradient>
	
		<polygon style="fill-rule:evenodd;clip-rule:evenodd;fill:url(#SVGID_00000100373463817419086160000010576129016333511820_);" points="
		347.4,198.4 348.8,220.5 342.2,220.8 340.5,209.9 340.5,216.9 335.6,217.7 334.3,209.7 332.8,217.7 327.1,217.7 325.8,209.4 
		324.5,217.7 318.4,217.7 317.1,209.2 316.3,216.8 309.2,216 307.8,208.9 307.8,213.8 303.5,214 302.6,208.7 300.7,217.7 295,217.7 
		296.3,208.5 293.8,216 288.8,216 288,208.3 287.4,215 282.3,213.3 281.3,208.1 281.3,214.8 275.1,214.8 273.9,207.8 272.5,216 
		267.2,215.1 266.1,207.6 265.4,216 261.7,216.6 260.8,207.4 259.9,217.7 254.3,217.7 254.3,207.2 253,216 249.2,215.1 246.9,207 
		246.9,214.5 238.6,216.1 237.9,208.4 237.9,217.7 233.8,217.7 232.1,207.7 230.8,219.4 226.2,219.4 224,208 224,217.7 219.9,216.4 
		219.9,207.9 218.1,213.5 213,213.3 216.8,193.1 	"/>
	
		<linearGradient id="SVGID_00000002386592600395834640000010803970265043580306_" gradientUnits="userSpaceOnUse" x1="196.9117" y1="223.3301" x2="196.9117" y2="204.8369">
		<stop  offset="0" style="stop-color:#B9C2FF"/>
		<stop  offset="0.6018" style="stop-color:#C6A4FF"/>
		<stop  offset="1" style="stop-color:#CD95FF"/>
	</linearGradient>
	
		<polygon style="fill-rule:evenodd;clip-rule:evenodd;fill:url(#SVGID_00000002386592600395834640000010803970265043580306_);" points="
		182.5,204.8 179,221.5 183.7,221.6 188.2,211.1 185.3,221.8 189.1,221.8 190.8,214.1 190.8,222.7 194.6,221.6 196.1,209.9 
		198.2,221.5 202.9,221.6 204.3,208.2 205.7,222.5 210.1,222.9 210.1,209.9 211.2,223.3 213,223.3 214.8,207.8 	"/>
	
		<linearGradient id="SVGID_00000071540235305367255040000012562683997121739690_" gradientUnits="userSpaceOnUse" x1="197.5439" y1="214.5952" x2="197.5439" y2="191.428">
		<stop  offset="0" style="stop-color:#D45CFF"/>
		<stop  offset="0.443" style="stop-color:#D14DFF"/>
		<stop  offset="1" style="stop-color:#CF3EFF"/>
	</linearGradient>
	
		<polygon style="fill-rule:evenodd;clip-rule:evenodd;fill:url(#SVGID_00000071540235305367255040000012562683997121739690_);" points="
		216.8,193.1 181,191.4 178.2,211.9 181.3,212.7 184.3,205.4 183.6,212.7 188.1,212.7 188.5,206.1 189.2,214.6 190.3,214.6 
		192,206.3 192.9,214.3 195.5,214.3 196.9,204.8 196.9,214.6 201.4,214.3 202.1,211.1 203.7,203.4 204.4,211.5 214.3,212.7 	"/>
	
		<linearGradient id="SVGID_00000017508768259101270430000005989481099429032367_" gradientUnits="userSpaceOnUse" x1="240.6788" y1="200.8298" x2="240.6788" y2="182.6317">
		<stop  offset="0" style="stop-color:#87C2FF"/>
		<stop  offset="1" style="stop-color:#7BB4FF"/>
	</linearGradient>
	
		<polygon style="fill-rule:evenodd;clip-rule:evenodd;fill:url(#SVGID_00000017508768259101270430000005989481099429032367_);" points="
		258.6,182.9 267.4,193.5 262.6,193.8 259,193 265.2,198.2 263.2,199.8 257.1,193.5 259,198.8 252.1,199.8 249.6,193.1 251,199.4 
		247,199.8 245.6,193.4 245.9,199.8 242.4,199.8 241.7,192.7 240.8,199.3 235.2,200.8 234.3,194 234.3,200.6 230.6,200.2 
		229.9,193.8 229.1,199.8 224.7,200 224.7,194.3 223.9,199.2 221.8,199.2 221.8,194.2 220.8,199.5 217.9,199.7 217.9,194.3 
		216.8,200.2 214,199.9 216.1,182.6 	"/>
	
		<linearGradient id="SVGID_00000170977328582684954770000008271361851389338023_" gradientUnits="userSpaceOnUse" x1="196.0914" y1="199.8664" x2="196.0914" y2="178.8746">
		<stop  offset="0" style="stop-color:#87C2FF"/>
		<stop  offset="1.772606e-02" style="stop-color:#87C1FF"/>
		<stop  offset="0.663" style="stop-color:#7E9AFF"/>
		<stop  offset="1" style="stop-color:#7B8BFF"/>
	</linearGradient>
	<path style="fill-rule:evenodd;clip-rule:evenodd;fill:url(#SVGID_00000170977328582684954770000008271361851389338023_);" d="
		M216.1,182.6l-33.4-3.8l-6.7,14.2h3l2.1-7.5l-0.8,7.5l3,0.7l2.3-2.4l-1.1,4.4h3.5l2-4.4l-0.8,4.4l4.2,0.4l1.6-4l-0.7,4.4l5.9,0.7
		c0,0,2.5-5.7,2.3-5.4s-1.1,6.3-1.1,6.3h4.7l1.4-5.6v6.6h3.8l1.6-6.9l-0.3,6.9l1.3,0.5L216.1,182.6z"/>
	
		<linearGradient id="SVGID_00000021841516564423525580000014310003075779966881_" gradientUnits="userSpaceOnUse" x1="237.8902" y1="192.0336" x2="237.8902" y2="167.4937">
		<stop  offset="0" style="stop-color:#E6C2FF"/>
		<stop  offset="0.3516" style="stop-color:#DCC2FF"/>
		<stop  offset="1" style="stop-color:#CDC2FF"/>
	</linearGradient>
	
		<polygon style="fill-rule:evenodd;clip-rule:evenodd;fill:url(#SVGID_00000021841516564423525580000014310003075779966881_);" points="
		258,167.5 263.2,188.5 258.8,189.8 258.6,182.9 257.1,190.4 252.1,191.5 251.3,182.5 250,190.4 246.3,190.4 245.3,182.3 
		245.3,190.4 238.6,192 238.6,183.7 237.5,191.4 234,191.4 233.1,183.4 232.2,191.4 225.8,191.4 225.8,183.1 224.7,191.4 
		222.3,191.4 222.3,182.9 220.1,191.4 216.1,190.3 216.1,182.6 214,191.4 212.5,191.4 216.8,173.9 	"/>
	
		<linearGradient id="SVGID_00000065796785387227635180000018244319809531441570_" gradientUnits="userSpaceOnUse" x1="196.9705" y1="192.0336" x2="196.9705" y2="170.2596">
		<stop  offset="0" style="stop-color:#B9C2FF"/>
		<stop  offset="0.6018" style="stop-color:#C6A4FF"/>
		<stop  offset="1" style="stop-color:#CD95FF"/>
	</linearGradient>
	<path style="fill-rule:evenodd;clip-rule:evenodd;fill:url(#SVGID_00000065796785387227635180000018244319809531441570_);" d="
		M184.8,170.3l32,3.6l-4.3,17.6h-2.5v-8.8l-1.4,9.4l-6.7-1.9l0.9-6.3l-2.1,7.2l-4.7-0.8v-6.5l-1.8,6.5h-3.5l1.2-8.6l-2.8,8.6
		l-3.3-0.7l1.5-7.9l-2.6,7.4l-3.5-1.1l2.4-8.6l-6.1,3.9l-0.6-3C177.1,180.1,184,176.8,184.8,170.3z"/>
	
		<linearGradient id="SVGID_00000119809267100714646320000011444537608736854915_" gradientUnits="userSpaceOnUse" x1="241.059" y1="181.1211" x2="241.059" y2="158.2559">
		<stop  offset="0" style="stop-color:#C5A5FF"/>
		<stop  offset="0.2243" style="stop-color:#CE92FF"/>
		<stop  offset="0.7337" style="stop-color:#DF6BFF"/>
		<stop  offset="1" style="stop-color:#E65CFF"/>
	</linearGradient>
	<path style="fill-rule:evenodd;clip-rule:evenodd;fill:url(#SVGID_00000119809267100714646320000011444537608736854915_);" d="
		M257.6,158.3c0,0,2.1,13.3,9.4,13l-2.6,1.8c0,0-4.9-0.9-6.7-7.7l2.6,11l-2.6,0.9l-2.8-7.5v6.1l-3,0.2l-1.3-5.4v6.7h-4.3l-1.5-6v6.8
		l-2.3-0.8l-1.1-6v6.4l-5.5,2l-1.2-6.2v6.2h-4.3l-0.5-6.7l-0.5,7h-4.6l-2-6.2v6.9l-3.1,0.4l-0.8-7.5l-0.8,7.5l-2.9-0.3l3.1-14.7
		L257.6,158.3z"/>
	
		<linearGradient id="SVGID_00000108297835035672487430000013945168500446145724_" gradientUnits="userSpaceOnUse" x1="199.6848" y1="183.3514" x2="199.6848" y2="166.1174">
		<stop  offset="0" style="stop-color:#D45CFF"/>
		<stop  offset="0.443" style="stop-color:#D14DFF"/>
		<stop  offset="1" style="stop-color:#CF3EFF"/>
	</linearGradient>
	
		<polygon style="fill-rule:evenodd;clip-rule:evenodd;fill:url(#SVGID_00000108297835035672487430000013945168500446145724_);" points="
		218.3,166.1 185.6,167 181.1,177.6 184.9,177.6 187.8,172.5 186.8,179.1 190.9,179.6 193.1,173.9 192.6,181.1 196.5,181.1 
		196.9,175.6 196.9,182.6 200.4,183.4 202.9,174.3 202.1,183.4 206.1,183.4 208.5,174.7 207.8,183.4 213,183.4 214,174.7 
		214.3,181.1 215.5,180.8 	"/>
	
		<linearGradient id="SVGID_00000025433213163543793980000017664035349434713757_" gradientUnits="userSpaceOnUse" x1="242.0512" y1="171.4332" x2="242.0512" y2="144.6171">
		<stop  offset="0" style="stop-color:#87C2FF"/>
		<stop  offset="1" style="stop-color:#7BB4FF"/>
	</linearGradient>
	<path style="fill-rule:evenodd;clip-rule:evenodd;fill:url(#SVGID_00000025433213163543793980000017664035349434713757_);" d="
		M257.1,146.6c0,0,1.3,8.2,9.9,12.7l-3.7,3.3l-5.8-8l1.9,9.8l-3.6,0v-5.2l-1.6,5.1l-2.6,0.4l-2.3-5.5v7.2h-3.8v-6.2l-1.5,7.2
		l-7.6,1.6v-4.9l-1.1,5.9h-5.5v-7.4l-1.3,7.4h-4.4v-7.4l-1.5,7.5l-3.2-0.1V166l-0.9,5.5h-1.1l4.3-26.8L257.1,146.6z"/>
	
		<linearGradient id="SVGID_00000076563592064807865540000004039757286195735194_" gradientUnits="userSpaceOnUse" x1="201.2639" y1="173.8666" x2="201.2639" y2="144.6171">
		<stop  offset="0" style="stop-color:#87C2FF"/>
		<stop  offset="1.772606e-02" style="stop-color:#87C1FF"/>
		<stop  offset="0.663" style="stop-color:#7E9AFF"/>
		<stop  offset="1" style="stop-color:#7B8BFF"/>
	</linearGradient>
	
		<polygon style="fill-rule:evenodd;clip-rule:evenodd;fill:url(#SVGID_00000076563592064807865540000004039757286195735194_);" points="
		221.4,144.6 190.8,145.8 181.1,170.3 186.5,170.4 188.2,166.1 187.6,171.4 189.7,171.4 191.6,166.5 190.4,173.9 193.9,173.9 
		196.9,166.7 196.5,172 199.7,171.9 201.8,166.1 200.9,171.4 204.1,171.4 206.8,167 205.5,173.9 209.6,173.4 212.1,167 211.4,173.2 
		214.3,173.6 216.1,167.6 215.7,171 217.1,171.4 	"/>
	
		<linearGradient id="SVGID_00000173863035973942922930000014800018995636468911_" gradientUnits="userSpaceOnUse" x1="239.6527" y1="154.2576" x2="239.6527" y2="135.4305">
		<stop  offset="0" style="stop-color:#E6C2FF"/>
		<stop  offset="0.3516" style="stop-color:#DCC2FF"/>
		<stop  offset="1" style="stop-color:#CDC2FF"/>
	</linearGradient>
	<path style="fill-rule:evenodd;clip-rule:evenodd;fill:url(#SVGID_00000173863035973942922930000014800018995636468911_);" d="
		M256.7,137.3c0,0,1.3,9.2,3.8,14.3h-4.7l-1.9-2.8v3.4h-3.5l-1.4-5.4v5.4h-5.6l-1.6-5.8v5.8l-3.9,1.6v-6.5l-1,6.5H233v-6.3l-1.3,6.3
		h-5.5l-0.6-7.5v7.9h-4.2l1-8.4l-2.5,8.4l-1.1-0.7l3.6-18.2L256.7,137.3z"/>
	
		<linearGradient id="SVGID_00000173159320191999855760000006228551977839487406_" gradientUnits="userSpaceOnUse" x1="203.4623" y1="155.5397" x2="203.4623" y2="135.4305">
		<stop  offset="0" style="stop-color:#B9C2FF"/>
		<stop  offset="0.6018" style="stop-color:#C6A4FF"/>
		<stop  offset="1" style="stop-color:#CD95FF"/>
	</linearGradient>
	
		<polygon style="fill-rule:evenodd;clip-rule:evenodd;fill:url(#SVGID_00000173159320191999855760000006228551977839487406_);" points="
		222.4,135.4 193.3,135.4 184.5,152.4 188.2,152.4 191.1,144.6 189.7,154.3 193.4,154.3 196.1,145.6 194.9,154.3 202.1,155.5 
		205.3,145.5 204.1,154.3 205.6,154.3 207.1,147.1 207.1,155.5 211.9,155.5 214,145.5 213.7,155.5 216.1,154.3 216.8,146.3 
		217.1,154.3 218.8,153.6 	"/>
	
		<linearGradient id="SVGID_00000036237176694867939970000004445843054712540820_" gradientUnits="userSpaceOnUse" x1="236.5116" y1="144.6171" x2="236.5116" y2="121.391">
		<stop  offset="0" style="stop-color:#C5A5FF"/>
		<stop  offset="0.2243" style="stop-color:#CE92FF"/>
		<stop  offset="0.7337" style="stop-color:#DF6BFF"/>
		<stop  offset="1" style="stop-color:#E65CFF"/>
	</linearGradient>
	
		<polygon style="fill-rule:evenodd;clip-rule:evenodd;fill:url(#SVGID_00000036237176694867939970000004445843054712540820_);" points="
		255.8,121.4 260.5,141.3 258.1,141.3 255.8,137.2 255.8,142 253.9,142 253.1,137.3 252.4,143 248,143 248,136.3 247,143 244.3,143 
		244.3,135.9 243.6,143 237.8,144.6 236.3,136.9 235.5,143.9 232.4,143.7 231.1,136.3 231.1,141.4 226.6,141.7 226.6,136.4 
		225.4,143.1 222.4,142.5 222.9,135.5 221,142.6 220.1,142.3 223.9,126.2 212.5,123 	"/>
	
		<linearGradient id="SVGID_00000090288796387495825150000010417359633886237883_" gradientUnits="userSpaceOnUse" x1="206.0271" y1="142.3117" x2="206.0271" y2="126.1669">
		<stop  offset="0" style="stop-color:#D45CFF"/>
		<stop  offset="0.443" style="stop-color:#D14DFF"/>
		<stop  offset="1" style="stop-color:#CF3EFF"/>
	</linearGradient>
	
		<polygon style="fill-rule:evenodd;clip-rule:evenodd;fill:url(#SVGID_00000090288796387495825150000010417359633886237883_);" points="
		195.4,128.2 188.2,140 191.8,140 195.4,135.4 194.1,140 197.5,140 200.6,135.4 199.7,140.9 201.3,140.6 203.5,135.9 202.9,140.6 
		205.9,140.6 207.7,136.3 207,140.9 211.9,140.9 214,136.2 213,141.5 214.8,141.5 216.1,135.4 216.1,142 217.7,142 219.8,135.4 
		218.8,142 220.1,142.3 223.9,126.2 	"/>
	
		<linearGradient id="SVGID_00000098906917394103560690000005764345832213548702_" gradientUnits="userSpaceOnUse" x1="321.6655" y1="309.5314" x2="321.6655" y2="299.347">
		<stop  offset="0" style="stop-color:#7BC2FF"/>
		<stop  offset="1" style="stop-color:#87C2FF"/>
	</linearGradient>
	
		<polygon style="fill-rule:evenodd;clip-rule:evenodd;fill:url(#SVGID_00000098906917394103560690000005764345832213548702_);" points="
		326,301 331.3,309.5 326,309.5 324.2,301.7 324.2,309.5 318.3,309.5 318.3,301 315.6,309.5 312.1,309.5 314.5,299.3 	"/>
	
		<linearGradient id="SVGID_00000026154638275562702170000005516719216151914128_" gradientUnits="userSpaceOnUse" x1="270.2352" y1="308.5111" x2="270.2352" y2="300.8041">
		<stop  offset="0" style="stop-color:#7BC2FF"/>
		<stop  offset="1" style="stop-color:#87C2FF"/>
	</linearGradient>
	
		<polygon style="fill-rule:evenodd;clip-rule:evenodd;fill:url(#SVGID_00000026154638275562702170000005516719216151914128_);" points="
		272.1,301.3 277.2,307.6 273.2,307.6 271.1,303 271.1,308.5 267,308 265.7,303 265.7,307.7 263.2,307.9 263.7,300.8 	"/>
	
		<linearGradient id="SVGID_00000066485764861307990580000003480991574235101871_" gradientUnits="userSpaceOnUse" x1="386.7131" y1="263.5268" x2="386.7131" y2="192.6687">
		<stop  offset="0" style="stop-color:#87C2FF"/>
		<stop  offset="1" style="stop-color:#7BB4FF"/>
	</linearGradient>
	<path style="fill-rule:evenodd;clip-rule:evenodd;fill:url(#SVGID_00000066485764861307990580000003480991574235101871_);" d="
		M391.5,204.7c0,0,12.7,27.3,0,58.8l-14-3.7c0,0,14.8-41.9-1.2-67.2C376.3,192.7,389,197.7,391.5,204.7z"/>
	
		<linearGradient id="SVGID_00000148649922703568081010000001271026423565495460_" gradientUnits="userSpaceOnUse" x1="234.439" y1="309.5314" x2="234.439" y2="302.3812">
		<stop  offset="0" style="stop-color:#7BC2FF"/>
		<stop  offset="1" style="stop-color:#87C2FF"/>
	</linearGradient>
	
		<polygon style="fill-rule:evenodd;clip-rule:evenodd;fill:url(#SVGID_00000148649922703568081010000001271026423565495460_);" points="
		236.5,302.9 243.7,308.5 238.5,308.5 236.1,304.7 236.1,309.5 232.6,309.1 232.6,303.7 231.3,309.5 229.4,309.5 228.5,303.7 
		228.5,309.5 225.1,309.5 226.3,302.4 	"/>
	
		<linearGradient id="SVGID_00000088116470018728518090000004561752618419807372_" gradientUnits="userSpaceOnUse" x1="204.6295" y1="307.0522" x2="204.6295" y2="302.3812">
		<stop  offset="0" style="stop-color:#7BC2FF"/>
		<stop  offset="1" style="stop-color:#87C2FF"/>
	</linearGradient>
	
		<polygon style="fill-rule:evenodd;clip-rule:evenodd;fill:url(#SVGID_00000088116470018728518090000004561752618419807372_);" points="
		208.5,302.4 210,307.1 206.8,306.6 205.9,302.9 205.9,306.7 203.2,307.1 203.2,303.3 202.2,307.1 199.3,306.6 200.5,302.4 	"/>
	
		<linearGradient id="SVGID_00000141427333060032286080000010450949459930168705_" gradientUnits="userSpaceOnUse" x1="307.9691" y1="309.5314" x2="307.9691" y2="299.347">
		<stop  offset="0" style="stop-color:#87C2FF"/>
		<stop  offset="1.772606e-02" style="stop-color:#87C1FF"/>
		<stop  offset="0.663" style="stop-color:#7E9AFF"/>
		<stop  offset="1" style="stop-color:#7B8BFF"/>
	</linearGradient>
	
		<polygon style="fill-rule:evenodd;clip-rule:evenodd;fill:url(#SVGID_00000141427333060032286080000010450949459930168705_);" points="
		314.5,299.3 309,299.8 301.5,308.5 305.3,308.5 308.5,302.4 306.8,309.1 309.4,308.5 310.8,305.2 310,309.5 312.1,309.5 	"/>
	
		<linearGradient id="SVGID_00000027606274004276139670000003063921136091446914_" gradientUnits="userSpaceOnUse" x1="257.9453" y1="308.5111" x2="257.9453" y2="300.8041">
		<stop  offset="0" style="stop-color:#87C2FF"/>
		<stop  offset="1.772606e-02" style="stop-color:#87C1FF"/>
		<stop  offset="0.663" style="stop-color:#7E9AFF"/>
		<stop  offset="1" style="stop-color:#7B8BFF"/>
	</linearGradient>
	
		<polygon style="fill-rule:evenodd;clip-rule:evenodd;fill:url(#SVGID_00000027606274004276139670000003063921136091446914_);" points="
		263.7,300.8 259.5,300.8 252.2,307.5 255,307.5 258.8,303.1 255.7,308.5 257.9,308 260.6,302.9 258.8,307.9 263.2,307.9 	"/>
	
		<linearGradient id="SVGID_00000159454917016700384710000005047999633269336223_" gradientUnits="userSpaceOnUse" x1="220.7488" y1="309.5314" x2="220.7488" y2="302.3812">
		<stop  offset="0" style="stop-color:#87C2FF"/>
		<stop  offset="1.772606e-02" style="stop-color:#87C1FF"/>
		<stop  offset="0.663" style="stop-color:#7E9AFF"/>
		<stop  offset="1" style="stop-color:#7B8BFF"/>
	</linearGradient>
	
		<polygon style="fill-rule:evenodd;clip-rule:evenodd;fill:url(#SVGID_00000159454917016700384710000005047999633269336223_);" points="
		226.3,302.4 221.1,302.7 215.2,309 216.3,309 220,305.7 217.2,309.5 220,309.2 224,304.4 222.4,309.3 225.1,309.5 	"/>
	
		<linearGradient id="SVGID_00000020365930423041986540000003879755322007031196_" gradientUnits="userSpaceOnUse" x1="194.1112" y1="307.6303" x2="194.1112" y2="302.3812">
		<stop  offset="0" style="stop-color:#87C2FF"/>
		<stop  offset="1.772606e-02" style="stop-color:#87C1FF"/>
		<stop  offset="0.663" style="stop-color:#7E9AFF"/>
		<stop  offset="1" style="stop-color:#7B8BFF"/>
	</linearGradient>
	
		<polygon style="fill-rule:evenodd;clip-rule:evenodd;fill:url(#SVGID_00000020365930423041986540000003879755322007031196_);" points="
		200.5,302.4 196.2,302.4 187.7,307.6 190.3,307.6 195,305 191.8,307.6 195,307.6 199.3,304.4 197.4,307.1 199.3,306.6 	"/>
	
		<linearGradient id="SVGID_00000026882942705815994640000016741460479194809501_" gradientUnits="userSpaceOnUse" x1="365.1163" y1="276.5822" x2="365.1163" y2="198.3954">
		<stop  offset="0" style="stop-color:#C5A5FF"/>
		<stop  offset="0.2243" style="stop-color:#CE92FF"/>
		<stop  offset="0.7337" style="stop-color:#DF6BFF"/>
		<stop  offset="1" style="stop-color:#E65CFF"/>
	</linearGradient>
	<path style="fill-rule:evenodd;clip-rule:evenodd;fill:url(#SVGID_00000026882942705815994640000016741460479194809501_);" d="
		M347.4,198.4c0,0,27.1,0.4,33.1,30.1c6,29.6-1.8,48.1-1.8,48.1l-9.1-1.1c0,0,13.1-30.8,7-52.2c-6-21.5-29.2-21.9-29.2-21.9V198.4z"
		/>
	
		<linearGradient id="SVGID_00000183971115670474078750000004969446138908880316_" gradientUnits="userSpaceOnUse" x1="347.4325" y1="198.4621" x2="391.4963" y2="198.4621">
		<stop  offset="0" style="stop-color:#87C2FF"/>
		<stop  offset="1" style="stop-color:#7BC2FF"/>
	</linearGradient>
	<path style="fill-rule:evenodd;clip-rule:evenodd;fill:url(#SVGID_00000183971115670474078750000004969446138908880316_);" d="
		M347.4,198.4c0,0,16.6-8.1,28.9-5.7c0,0,11.2,4.2,15.2,12c0,0-15.8-8.2-44.1-3.3V198.4z"/>
	
		<linearGradient id="SVGID_00000039134091533816222230000006668395536425404080_" gradientUnits="userSpaceOnUse" x1="345.0454" y1="193.8342" x2="364.0815" y2="193.8342">
		<stop  offset="0" style="stop-color:#87C2FF"/>
		<stop  offset="1" style="stop-color:#7BC2FF"/>
	</linearGradient>
	<path style="fill-rule:evenodd;clip-rule:evenodd;fill:url(#SVGID_00000039134091533816222230000006668395536425404080_);" d="
		M347.4,198.4c0,0,8.9-6.5,16.6-8.6c0,0-11.3-1.5-16.6,0.6C342.1,192.5,347.4,198.4,347.4,198.4z"/>
	
		<linearGradient id="SVGID_00000132054346697195501630000012104862002015316352_" gradientUnits="userSpaceOnUse" x1="359.18" y1="278.564" x2="359.18" y2="199.799">
		<stop  offset="0" style="stop-color:#CDC2FF"/>
		<stop  offset="0.6484" style="stop-color:#DCC2FF"/>
		<stop  offset="1" style="stop-color:#E6C2FF"/>
	</linearGradient>
	<path style="fill-rule:evenodd;clip-rule:evenodd;fill:url(#SVGID_00000132054346697195501630000012104862002015316352_);" d="
		M347.5,199.8c0,0,10.9-0.7,19.7,14.7c8.8,15.4-0.7,64.1-0.7,64.1l-9.5-2c0,0,3.7-29,2.1-51.1c-1.6-22.1-11.7-24.1-11.7-24.1
		L347.5,199.8z"/>
	
		<linearGradient id="SVGID_00000177470692530336774820000015640952115070327481_" gradientUnits="userSpaceOnUse" x1="368.7663" y1="198.3954" x2="368.7663" y2="173.9185">
		<stop  offset="0" style="stop-color:#CDC2FF"/>
		<stop  offset="0.6484" style="stop-color:#DCC2FF"/>
		<stop  offset="1" style="stop-color:#E6C2FF"/>
	</linearGradient>
	<path style="fill-rule:evenodd;clip-rule:evenodd;fill:url(#SVGID_00000177470692530336774820000015640952115070327481_);" d="
		M345,198.4c0,0,13.5-19.6,27.4-24.4c0,0,13-0.9,20.1,5.5c0,0-29.1,3.9-45.1,18.9H345z"/>
	
		<linearGradient id="SVGID_00000069362145730906229950000003318745393212498328_" gradientUnits="userSpaceOnUse" x1="237.607" y1="90.7324" x2="237.607" y2="71.0085">
		<stop  offset="0" style="stop-color:#C5A5FF"/>
		<stop  offset="0.2243" style="stop-color:#CE92FF"/>
		<stop  offset="0.7337" style="stop-color:#DF6BFF"/>
		<stop  offset="1" style="stop-color:#E65CFF"/>
	</linearGradient>
	
		<polygon style="fill-rule:evenodd;clip-rule:evenodd;fill:url(#SVGID_00000069362145730906229950000003318745393212498328_);" points="
		249.2,82 253.8,90.5 250.2,90.7 246.7,83.5 246.7,90.7 240.3,89.6 240.8,79.4 237.3,87.5 233,83.9 235.9,78.3 228.7,82.8 
		226.3,78.7 230.9,76.3 224.7,76.3 221.5,74.2 231.7,71 	"/>
	
		<linearGradient id="SVGID_00000091009968195849530410000007740009760642779527_" gradientUnits="userSpaceOnUse" x1="295.1918" y1="202.2292" x2="295.1918" y2="190.3858">
		<stop  offset="0" style="stop-color:#87C2FF"/>
		<stop  offset="1" style="stop-color:#7BB4FF"/>
	</linearGradient>
	
		<polygon style="fill-rule:evenodd;clip-rule:evenodd;fill:url(#SVGID_00000091009968195849530410000007740009760642779527_);" points="
		270.2,194.3 273.2,202.2 277.2,201.4 273.7,194.3 278.6,201.4 283,201.4 281.5,196.7 285,200.6 291.7,199.8 290.8,196.7 
		293.6,200.6 301.5,200.6 299.3,196.7 303.6,199.4 310.8,199.4 309.4,196.7 312.6,198.2 319.3,196.7 313.1,196.7 320.1,191.5 
		317,190.4 310.8,195 302.6,195.7 303.8,190.4 301.5,191.5 298,194.8 	"/>
	
		<linearGradient id="SVGID_00000150099586324744944110000006412082136119702144_" gradientUnits="userSpaceOnUse" x1="245.0847" y1="85.0785" x2="245.0847" y2="76.8944">
		<stop  offset="0" style="stop-color:#87C2FF"/>
		<stop  offset="1" style="stop-color:#7BB4FF"/>
	</linearGradient>
	
		<polygon style="fill-rule:evenodd;clip-rule:evenodd;fill:url(#SVGID_00000150099586324744944110000006412082136119702144_);" points="
		242.7,76.9 242.7,84.2 247.5,85.1 247.5,81 	"/>
	
		<linearGradient id="SVGID_00000043433500928513108850000016545705864098828460_" gradientUnits="userSpaceOnUse" x1="251.7097" y1="86.6601" x2="251.7097" y2="81.1738">
		<stop  offset="0" style="stop-color:#87C2FF"/>
		<stop  offset="1" style="stop-color:#7BB4FF"/>
	</linearGradient>
	
		<polygon style="fill-rule:evenodd;clip-rule:evenodd;fill:url(#SVGID_00000043433500928513108850000016545705864098828460_);" points="
		248.2,81.2 250.5,86.7 255.2,86.7 249.2,82 	"/>
	
		<linearGradient id="SVGID_00000117641988476516748440000002198364802961459087_" gradientUnits="userSpaceOnUse" x1="223.7195" y1="74.1865" x2="223.7195" y2="71.0085">
		<stop  offset="0" style="stop-color:#87C2FF"/>
		<stop  offset="1" style="stop-color:#7BB4FF"/>
	</linearGradient>
	
		<polygon style="fill-rule:evenodd;clip-rule:evenodd;fill:url(#SVGID_00000117641988476516748440000002198364802961459087_);" points="
		231.7,71 225.6,71.4 215.7,73.7 220.8,74.2 	"/>
	
		<linearGradient id="SVGID_00000044887513319820954510000007481882516534756997_" gradientUnits="userSpaceOnUse" x1="231.2966" y1="78.5422" x2="231.2966" y2="72.1628">
		<stop  offset="0" style="stop-color:#87C2FF"/>
		<stop  offset="1" style="stop-color:#7BB4FF"/>
	</linearGradient>
	
		<polygon style="fill-rule:evenodd;clip-rule:evenodd;fill:url(#SVGID_00000044887513319820954510000007481882516534756997_);" points="
		233.2,72.2 227.3,75.8 230.3,78.5 235.3,74.2 	"/>
	
		<linearGradient id="SVGID_00000093870677429743603650000003138601039645978030_" gradientUnits="userSpaceOnUse" x1="244.9535" y1="38.4079" x2="244.9535" y2="25.5547">
		<stop  offset="0" style="stop-color:#C5A5FF"/>
		<stop  offset="0.2243" style="stop-color:#CE92FF"/>
		<stop  offset="0.7337" style="stop-color:#DF6BFF"/>
		<stop  offset="1" style="stop-color:#E65CFF"/>
	</linearGradient>
	
		<polygon style="fill-rule:evenodd;clip-rule:evenodd;fill:url(#SVGID_00000093870677429743603650000003138601039645978030_);" points="
		245.6,38.4 250.7,30.8 247.5,30 244.3,36.1 245.8,30 242.7,29.3 241.1,36 241.9,25.6 239.2,25.6 239.8,36.6 	"/>
	
		<linearGradient id="SVGID_00000075124265804172594870000002317701190405460134_" gradientUnits="userSpaceOnUse" x1="235.5731" y1="39.7717" x2="235.5731" y2="25.5547">
		<stop  offset="0" style="stop-color:#D45CFF"/>
		<stop  offset="0.443" style="stop-color:#D14DFF"/>
		<stop  offset="1" style="stop-color:#CF3EFF"/>
	</linearGradient>
	
		<polygon style="fill-rule:evenodd;clip-rule:evenodd;fill:url(#SVGID_00000075124265804172594870000002317701190405460134_);" points="
		235.6,39.8 231.3,27.7 232.9,27 236.5,32.6 235.1,26.2 238.2,25.6 238.7,31.8 238.7,25.6 239.2,25.6 239.8,36.6 	"/>
	
		<linearGradient id="SVGID_00000139283022238216364280000002409955930817299618_" gradientUnits="userSpaceOnUse" x1="224.1395" y1="48.0551" x2="224.1395" y2="33.554">
		<stop  offset="0" style="stop-color:#C5A5FF"/>
		<stop  offset="0.2243" style="stop-color:#CE92FF"/>
		<stop  offset="0.7337" style="stop-color:#DF6BFF"/>
		<stop  offset="1" style="stop-color:#E65CFF"/>
	</linearGradient>
	
		<polygon style="fill-rule:evenodd;clip-rule:evenodd;fill:url(#SVGID_00000139283022238216364280000002409955930817299618_);" points="
		224.4,48.1 229.6,40.5 226.4,39.6 223.2,45.8 224.7,39.6 221.6,38.9 220,45.7 222,33.6 219.3,33.6 218.7,46.3 	"/>
	
		<linearGradient id="SVGID_00000169542289600714976080000007502510107628281480_" gradientUnits="userSpaceOnUse" x1="215.3857" y1="47.771" x2="215.3857" y2="33.554">
		<stop  offset="0" style="stop-color:#D45CFF"/>
		<stop  offset="0.443" style="stop-color:#D14DFF"/>
		<stop  offset="1" style="stop-color:#CF3EFF"/>
	</linearGradient>
	
		<polygon style="fill-rule:evenodd;clip-rule:evenodd;fill:url(#SVGID_00000169542289600714976080000007502510107628281480_);" points="
		215.8,47.8 211.4,35.7 213,35 215.4,42.2 215.2,34.2 218.3,33.6 217.5,41.5 218.8,33.6 219.3,33.6 218.7,46.3 	"/>
	<g>
		<polygon class="st119" points="278.6,236.3 276.4,227.5 285.6,226.4 286.6,237.1 		"/>
		<polygon class="st119" points="296.5,236.9 295.2,226.8 298.5,227.5 300.1,236.5 		"/>
		<polygon class="st119" points="309.2,216 308.5,203.9 316.8,204.7 316.3,216.8 		"/>
		<polygon class="st119" points="249.7,193.8 252,199.6 259,198.8 256.5,192.2 		"/>
		<polygon class="st119" points="249.2,215.1 246.4,203.2 255.3,203.2 253,216 		"/>
		<polygon class="st119" points="255.9,233.8 256.3,225.2 264.2,226.4 261.2,234.7 		"/>
		<polygon class="st119" points="204.3,247.3 207.6,233.6 199.7,235 199.8,247.6 		"/>
		<polygon class="st119" points="196.9,214.6 197.2,200.7 204.8,199.9 201.4,214.3 		"/>
		<polygon class="st119" points="181.3,212.7 185.7,199.9 181.1,198 178.2,211.3 		"/>
		<polygon class="st119" points="218.8,255.9 219.5,248.9 224.7,249.8 223.9,257.2 		"/>
		<polygon class="st119" points="235,269.4 236.1,258.9 243.7,259.4 242.9,270.1 		"/>
		<polygon class="st119" points="254.3,217.7 255.3,205.4 260.6,204.7 259.9,217.7 		"/>
		<polygon class="st119" points="230.3,179.6 229.9,172.3 233.8,171.9 234.6,179.6 		"/>
		<polygon class="st119" points="246.2,177.2 244.6,169.1 249.7,168.5 250.5,176.9 		"/>
		<polygon class="st119" points="243.9,167.5 246,154.3 236.4,155.9 236.2,169.1 		"/>
		<polygon class="st119" points="205.5,173.9 209.5,157.4 214,158 209.6,173.4 		"/>
		<polygon class="st119" points="200.4,183.4 202.9,173 198.2,173.5 197.3,182.7 		"/>
		<polygon class="st119" points="234.6,57.6 246.6,51.3 245.9,42.1 237.5,43.7 		"/>
		<polygon class="st119" points="233.2,64.2 243.7,64.4 243.7,70.9 231.7,71 		"/>
	</g>
	<g class="st120">
		<polygon class="st119" points="299.3,257.9 298.2,248.2 308.5,248.2 306.8,258.6 		"/>
		<polygon class="st119" points="315.6,247.3 314.2,238.8 323.2,240.4 321.6,247.3 		"/>
		<polygon class="st119" points="327.1,217.7 325.1,202.2 333,202.2 332.8,217.7 		"/>
		<polygon class="st119" points="335.6,217.7 334,207 341.2,207 340.5,216.9 		"/>
		<polygon class="st119" points="282.3,213.3 280.8,205.3 288,204.7 287.4,215 		"/>
		<polygon class="st119" points="244,245.6 243.7,234.7 235.6,236.9 236.3,247.3 		"/>
		<polygon class="st119" points="231,257.9 232.4,249.6 225.8,250.2 225.1,257.6 		"/>
		<polygon class="st119" points="253.3,269.5 256.7,258.7 245.8,258.6 245,269.5 		"/>
		<polygon class="st119" points="264.3,268.5 263.1,258.9 272,257.9 267.8,268.5 		"/>
		<polygon class="st119" points="221.5,267.8 221.1,257.1 216,258.2 216.5,268.1 		"/>
		<polygon class="st119" points="285.3,268.5 285.9,257.9 294,258.9 293.1,268.5 		"/>
		<polygon class="st119" points="204.6,211.3 205.3,199.9 216.1,200.7 214.3,212.7 		"/>
		<polygon class="st119" points="193.9,173.9 200.1,159.2 194.4,159.2 190.4,173.9 		"/>
		<polygon class="st119" points="229.6,170.2 229.9,156.4 236.7,156.8 235.1,170.2 		"/>
		<polygon class="st119" points="226.2,153.8 226.2,145.1 233,144.6 231.7,153.8 		"/>
		<polygon class="st119" points="237.8,144.6 235.6,128.7 243.1,127.1 243.7,142.3 		"/>
		<polygon class="st119" points="254.4,105.9 231.7,108.9 232.3,117.9 255.8,114.8 		"/>
		<polygon class="st119" points="234.6,101.2 233.2,93.9 235.6,93.9 237,100.5 		"/>
		<polygon class="st119" points="185.7,103.1 192.3,117.9 185.3,117.9 177,104.3 		"/>
	</g>
</g>
<g>
	<path class="st38" d="M378,288.8c0.2-5.8-0.1-9.1,7.7-9c7.8,0.1,7-5.3,7.2-11c0.2-5.8,4.2-10.5,16.1-13.5c11.9-2.9,8.7-9.7,10-15.6
		c1.2-5.9,1.9-7.2,10.1-10.9c8.2-3.6,6.1-10.6,3.8-17.8c-2.3-7.2,12.9-26.9,12.9-26.9s-11.4-1.8-21.2,7.7c-9.8,9.5-10.6-2.6-22.1,3
		c-11.6,5.7-6.7,15.6-16.8,13.9c-10.2-1.8-18.4-0.6-24.3,12.5s-18,5.2-24.5,13.3c-6.5,8.2,4.3,15.4-4.6,19.2
		c-8.9,3.8-14.2,3.3-12,12.9c2.1,9.6-11,9.5-10.5,21.8c0,0.5,0.1,0.9,0.1,1.4c1.5,14,16.5,24.5,30.5,21.1c3.2-0.8,5.7-2.1,6.9-4.3
		c4.5-8.7,1.2,2.4,10.3,5.8C366.5,316,377.7,294.5,378,288.8"/>
	<path class="st39" d="M405.5,243.3c-4.4-2.2-8.9-3.8-13.6-4.9c4-3.8,8-7.6,11.8-11.7c1.3-1.4,2.6-2.8,3.9-4.2c0.1,0,0.2,0,0.3,0
		c4-1.4,8.3-2.2,12.7-2.2c0.9,0,0.8-1.4-0.1-1.4c-3.8,0-7.5,0.6-11,1.6c8.1-9.1,15.8-18.6,23.5-28c0.5-0.7-0.5-1.7-1.1-1
		c-7.3,9.1-14.7,18.1-22.4,26.8c-0.3-3.8-1.1-7.5-2.5-11.2c-0.3-0.8-1.7-0.5-1.4,0.3c1.5,4,2.4,8.1,2.5,12.2c0,0.1,0,0.1,0,0.2
		c-0.6,0.7-1.3,1.4-1.9,2.1c-5,5.5-10.3,10.8-15.8,16c-1.4-4.8-3.2-9.6-5.4-14.2c-0.4-0.8-1.8-0.5-1.4,0.3c2.3,4.9,4.2,9.9,5.6,15
		c-3.8,3.6-7.8,7-11.8,10.5c-4.4,3.7-8.8,7.3-13.3,11c-0.8-4.8-2-9.6-3.6-14.4c-0.3-0.9-1.6-0.6-1.4,0.3c1.6,4.9,2.8,9.8,3.6,14.7
		c0,0.1,0.1,0.2,0.1,0.3c-5.5,4.5-10.9,8.9-16.3,13.4c-1,0.9-2,1.7-3,2.6c-1-3.8-2.4-7.5-4.3-11.1c-0.4-0.8-1.6-0.2-1.2,0.6
		c1.9,3.6,3.4,7.4,4.3,11.3c0,0.1,0.1,0.1,0.1,0.2c-8.4,7.3-13.4,11.7-20.8,19.9c-9,9.9,2.4-0.6,6.8-5c4.7-4.7,9.7-9.2,14.7-13.6
		c0,0,0,0,0.1-0.1c4.8,1.7,9.5,3.7,14.1,6.2c0.8,0.5,1.5-0.7,0.6-1.2c-4.4-2.4-8.9-4.4-13.6-6c6.6-5.7,13.3-11.2,20-16.7
		c5.1,1.8,10.3,3.7,15.4,5.5c0.9,0.3,1.2-1,0.3-1.3c-4.8-1.7-9.7-3.4-14.5-5.2c8.5-7,17-14,25.1-21.5c4.9,1,9.7,2.7,14.2,5
		C405.7,244.8,406.4,243.7,405.5,243.3"/>
	<path class="st39" d="M409.7,202.5c0.2,0.6,0.4,1.2,0.6,1.8c0.2,0.5,0.6,1,1.2,0.9c0.5,0,1.1-0.5,0.9-1.1s-0.4-1.2-0.6-1.8
		c-0.2-0.5-0.6-1-1.2-0.9C410.1,201.4,409.5,201.9,409.7,202.5"/>
	<path class="st39" d="M415.4,201.8c-0.3,0.6-0.6,1.1-0.8,1.7c-0.2,0.5,0.1,1.1,0.6,1.4c0.6,0.2,1.2,0,1.4-0.5
		c0.3-0.6,0.6-1.1,0.8-1.7c0.2-0.5-0.1-1.1-0.6-1.4C416.3,201.1,415.7,201.4,415.4,201.8"/>
	<path class="st39" d="M403.7,201.3l0.6,2.1c0.2,0.5,0.6,1,1.2,0.9c0.5,0,1.1-0.5,0.9-1.1l-0.6-2.1c-0.2-0.5-0.6-1-1.2-0.9
		C404.1,200.3,403.5,200.8,403.7,201.3"/>
	<path class="st39" d="M422.7,212.3c-0.4,0.4-0.8,0.7-1.1,1.1c-0.4,0.4-0.2,1.1,0.3,1.4c0.5,0.4,1.1,0.3,1.5-0.1
		c0.4-0.4,0.8-0.7,1.1-1.1c0.4-0.4,0.2-1.1-0.3-1.4C423.7,211.8,423.1,211.9,422.7,212.3"/>
	<path class="st39" d="M426.6,218.5c-0.1,0.1-0.3,0.1-0.4,0.1s-0.1,0-0.2,0.1c0.1,0,0.1,0,0,0s-0.3,0-0.4,0c0,0-0.4,0-0.3,0
		c-0.6,0-1.1,0.2-1.2,0.8c0,0.5,0.4,1.2,1,1.2c0.8,0.1,1.6,0,2.4-0.3c0.5-0.2,0.8-0.8,0.5-1.3C427.7,218.6,427.1,218.3,426.6,218.5"
		/>
	<path class="st39" d="M424,223.7c-0.7-0.3-1.3-0.7-2-1c-0.5-0.3-1.2,0-1.4,0.5c-0.2,0.5,0.1,1.1,0.6,1.4c0.7,0.3,1.3,0.7,2,1
		c0.5,0.3,1.2,0,1.4-0.5C424.9,224.5,424.6,223.9,424,223.7"/>
	<path class="st39" d="M375.5,221.2c0.7,0.3,1.4,0.6,2.1,1c0.5,0.3,1.2,0,1.4-0.5c0.2-0.5-0.1-1.1-0.6-1.4l-2.1-1
		c-0.5-0.3-1.2,0-1.4,0.5C374.7,220.4,375,221,375.5,221.2"/>
	<path class="st39" d="M380.4,217c0.3,0.7,0.6,1.4,0.9,2.1c0.5,1.2,2.5,0.6,2-0.7c-0.3-0.7-0.6-1.4-0.9-2.1
		C381.9,215.1,379.9,215.7,380.4,217"/>
	<path class="st39" d="M387.9,217.1c-0.5,0.5-0.7,1.2-0.8,1.8c-0.1,0.5,0.4,1.1,1,1.2c0.6,0.1,1.1-0.2,1.2-0.8c0,0,0.1-0.4,0-0.2
		c0-0.1,0.1-0.2,0.1-0.3s0-0.1,0.1-0.2c-0.1,0.1-0.1,0.1,0,0s0.1-0.2,0.2-0.3c0.3-0.4,0.2-1.1-0.3-1.4
		C388.9,216.7,388.3,216.7,387.9,217.1"/>
	<path class="st39" d="M392,221.5c-0.3,0.3-0.6,0.6-0.9,1c-0.4,0.4-0.2,1.1,0.3,1.4c0.5,0.4,1.1,0.3,1.5-0.1c0.3-0.3,0.6-0.6,0.9-1
		c0.4-0.4,0.2-1.1-0.3-1.4C392.9,221,392.4,221.1,392,221.5"/>
	<path class="st39" d="M405.2,238.3c-0.2,0.4-0.4,0.8-0.6,1.2c-0.2,0.5,0.1,1.2,0.6,1.4c0.6,0.2,1.1,0,1.4-0.5
		c0.2-0.4,0.4-0.8,0.6-1.2c0.2-0.5-0.1-1.2-0.6-1.4C406,237.6,405.5,237.8,405.2,238.3"/>
	<path class="st39" d="M411.2,243.1c-0.6,0-1.3,0-1.9,0s-1,0.6-0.9,1.1c0.1,0.6,0.6,1,1.2,0.9c0.6,0,1.3,0,1.9,0s1-0.6,0.9-1.1
		C412.4,243.5,411.8,243.1,411.2,243.1"/>
	<path class="st39" d="M409,249.2c-0.4-0.6-0.9-1.2-1.3-1.8c-0.3-0.5-1.1-0.6-1.5-0.3c-0.5,0.3-0.5,0.9-0.1,1.4
		c0.4,0.6,0.9,1.2,1.3,1.8c0.3,0.5,1.1,0.6,1.5,0.3C409.3,250.3,409.3,249.6,409,249.2"/>
	<path class="st39" d="M401.1,248.3c0.2,0.7,0.4,1.4,0.6,2.1c0.2,0.5,0.6,1,1.2,0.9c0.5,0,1.1-0.5,0.9-1.1l-0.6-2.1
		c-0.2-0.5-0.6-1-1.2-0.9C401.5,247.3,400.9,247.8,401.1,248.3"/>
	<path class="st39" d="M354.2,246.6c-0.7-0.4-1.4-0.7-2.1-1.1c-0.5-0.3-1.2,0-1.4,0.5c-0.2,0.5,0.1,1.1,0.6,1.4
		c0.7,0.4,1.4,0.7,2.1,1.1c0.5,0.3,1.2,0,1.4-0.5C355.1,247.4,354.7,246.9,354.2,246.6"/>
	<path class="st39" d="M354.6,239.8c-1-0.8-2-1.6-2.9-2.4c-1.1-0.9-2.3,0.6-1.2,1.6c1,0.8,2,1.6,2.9,2.4
		C354.4,242.3,355.7,240.7,354.6,239.8"/>
	<path class="st39" d="M357.6,236.6c0.2,1,0.5,1.9,0.7,2.9c0.3,1.3,2.4,1.2,2.1-0.1c-0.2-1-0.5-1.9-0.7-2.9
		C359.4,235.2,357.3,235.3,357.6,236.6"/>
	<path class="st39" d="M365.6,238.6L365,240c-0.2,0.5,0.1,1.1,0.6,1.4c0.6,0.2,1.2,0,1.4-0.5c0.2-0.5,0.4-0.9,0.6-1.4
		s-0.1-1.1-0.6-1.4C366.4,237.9,365.8,238.1,365.6,238.6"/>
	<path class="st39" d="M368.6,245.5c-0.6,0.4-1.3,0.9-1.9,1.3c-1.1,0.7,0.3,2.4,1.4,1.7c0.6-0.4,1.3-0.9,1.9-1.3
		C371,246.4,369.6,244.7,368.6,245.5"/>
	<path class="st39" d="M377.9,259.3c-0.4,0.5-0.7,1-1.1,1.5c-0.3,0.4-0.2,1.1,0.3,1.4s1.2,0.3,1.5-0.1c0.4-0.5,0.7-1,1.1-1.5
		c0.3-0.4,0.2-1.1-0.3-1.4C379,258.8,378.2,258.9,377.9,259.3"/>
	<path class="st39" d="M387.3,260.8c-0.9,0.6-1.8,1.2-2.6,1.8c-1.1,0.7,0.3,2.4,1.4,1.7c0.9-0.6,1.7-1.2,2.6-1.8
		C389.8,261.7,388.4,260,387.3,260.8"/>
	<path class="st39" d="M387,269.3c-1.1-0.5-2.1-1.1-3.2-1.6c-1.3-0.6-2,1.2-0.7,1.8c1.1,0.5,2.1,1.1,3.2,1.6
		C387.6,271.8,388.3,269.9,387,269.3"/>
	<path class="st39" d="M382.1,274.9c-0.7-0.8-1.3-1.6-2-2.4c-0.9-1.1-2.6,0.1-1.7,1.1c0.7,0.8,1.3,1.6,2,2.4
		C381.3,277.2,383,276,382.1,274.9"/>
	<path class="st39" d="M375.5,275.6c-0.6-1.4-1.3-2.8-2.3-4c-0.8-1.1-2.5,0-1.7,1.1s1.5,2.3,2,3.5
		C374.1,277.6,376,276.9,375.5,275.6"/>
	<path class="st39" d="M332.7,268.8c-1.1-0.2-2.2-0.4-3.3-0.6c-1.4-0.3-1.6,1.7-0.2,2c1.1,0.2,2.2,0.4,3.3,0.6
		C333.9,271.1,334.1,269.1,332.7,268.8"/>
	<path class="st39" d="M329.9,264c0.7,0.6,1.5,1.2,2.2,1.8c0.5,0.4,1.2,0.3,1.5-0.1c0.4-0.4,0.2-1.1-0.3-1.4
		c-0.7-0.6-1.5-1.2-2.2-1.8c-0.5-0.4-1.2-0.3-1.5,0.1C329.3,263,329.4,263.6,329.9,264"/>
	<path class="st39" d="M333.7,257.8c0.6,0.7,1.1,1.4,1.7,2c0.9,1.1,0.9-2.1,0-3.2c-0.6-0.7,0.6,0.7,0,0
		C334.5,255.6,332.8,256.7,333.7,257.8"/>
	<path class="st39" d="M342.9,259.5c-0.1,0.7-0.2,1.4-0.3,2.1c-0.1,0.5,0.4,1.1,1,1.2c0.6,0.1,1.1-0.3,1.2-0.8
		c0.1-0.7,0.2-1.4,0.3-2.1c0.1-0.5-0.4-1.1-1-1.2C343.4,258.6,343,259,342.9,259.5"/>
	<path class="st39" d="M345.5,265.7c-0.4,0.4-0.8,0.9-1.3,1.3c-0.4,0.4-0.2,1.1,0.3,1.4c0.5,0.4,1.1,0.3,1.5-0.1s0.8-0.9,1.3-1.3
		c0.4-0.4,0.2-1.1-0.3-1.4C346.5,265.2,345.8,265.3,345.5,265.7"/>
	<path class="st39" d="M356,276.8c-0.8,0.3-1.6,0.5-2.3,0.8c-1.3,0.4-0.4,2.4,0.9,1.9c0.8-0.3,1.6-0.5,2.3-0.8
		C358.1,278.2,357.3,276.3,356,276.8"/>
	<path class="st39" d="M361.9,280c-0.8,0.4-1.6,0.6-2.4,0.7c-1.4,0.2-1,2.2,0.3,2c1-0.1,2-0.4,3-0.8c0.5-0.2,0.8-0.7,0.5-1.3
		C363.2,280.2,362.5,279.8,361.9,280"/>
	<path class="st39" d="M366,286.7c-1.2-0.3-2.3-0.7-3.3-1.3c-0.5-0.3-1.2,0-1.4,0.5c-0.2,0.5,0.1,1.1,0.6,1.4
		c1.2,0.7,2.5,1.2,3.9,1.5C367.2,289,367.4,287,366,286.7"/>
	<path class="st39" d="M362.8,291.8c-0.9-0.9-1.8-1.7-2.7-2.6c-0.4-0.4-1.2-0.3-1.5,0.1c-0.4,0.5-0.2,1,0.3,1.4
		c0.9,0.9,1.8,1.7,2.7,2.6c0.4,0.4,1.2,0.3,1.5-0.1C363.5,292.7,363.3,292.2,362.8,291.8"/>
	<path class="st39" d="M355.5,291.6c-1-2-2-4-3-5.9c-0.6-1.2-2.6-0.6-2,0.7c1,2,2,4,3,5.9C354.1,293.5,356.1,292.8,355.5,291.6"/>
	<path class="st39" d="M348,287.4c-0.6-0.7-1.2-1.5-1.8-2.2c-0.9-1.1-2.6,0.1-1.7,1.1c0.6,0.7,1.2,1.5,1.8,2.2
		C347.2,289.6,348.8,288.4,348,287.4"/>
</g>
<path class="st40" d="M424.7,297.4c0,0-3.4-30.4-11.7-30.9c-8.3-0.4-17.3,11.4-17.3,11.4s-0.7-24.7-12.5-25.7
	c-11.7-1-13.7,5.3-13.7,5.3s-3.3-25-16.3-25.4c-13.1-0.4-16.4,21.6-16.4,21.6c-2.2-24.5-23-18.4-28.2,2.3c-2.9,11.2-3.4,21-3.4,21
	s-9.1-23.6-14.9-24.7c-10.5-1.9-13.3,31.4-13.3,31.4s-3.7-39.3-15.2-38.2c-11.5,1-11.7,32.1-11.7,32.1s-1-38-11.5-36.5
	s-8.7,34.3-8.9,45.5c-0.4,11.2-8.3,27.4-23.2,9.3c-14.9-18.1-20.8,22.6-20.8,22.6h230.8C426.9,318.6,424.7,297.4,424.7,297.4"/>
<g>
	<path class="st39" d="M272.6,195.8c0,0-40.7,40.3-49.4,74.8c-3,11.7-2.6,20.9-0.7,27.9c3.8,14.6,22.5,18.8,34.3,7.7
		c5.6-5.3,11.3-13.1,15.5-24.6C284.6,248,272.6,195.8,272.6,195.8"/>
	<path class="st38" d="M245.7,286.2c0.7-2.4,1.5-4.7,2.2-7.1l27.1-6.9c0.1-0.3,0.1-0.6,0.2-0.8c-9,2.3-18,4.6-27,6.9
		c0.7-2.2,1.4-4.5,2.1-6.7c8.6-2.3,17.3-4.3,26-5.9c0-0.3,0.1-0.5,0.1-0.8c-8.7,1.6-17.3,3.5-25.9,5.8c0.7-2.1,1.3-4.3,2-6.4
		l24.7-5.6c0-0.3,0.1-0.5,0.1-0.8l-24.5,5.6c0.7-2.2,1.4-4.5,2.1-6.7c7.6-2.4,15.2-4.5,22.9-6.2c0-0.3,0-0.5,0-0.8
		c-7.6,1.8-15.2,3.8-22.7,6.2c0.7-2.3,1.4-4.6,2.1-6.9c6.8-2.1,13.7-3.8,20.6-5.3c0-0.3,0-0.5,0-0.8c-6.8,1.5-13.6,3.2-20.4,5.2
		c0.6-1.9,1.2-3.8,1.7-5.6c6.1-2.1,12.3-3.9,18.5-5.5c0-0.3,0-0.5,0-0.8c-6.1,1.5-12.2,3.3-18.2,5.3c0.7-2.3,1.4-4.6,2.1-6.9
		c5.1-2.3,10.3-4,15.7-5.2c0-0.3,0-0.5-0.1-0.8c-5.2,1.2-10.4,2.8-15.4,5c0.2-0.8,0.5-1.6,0.7-2.3c0.1-0.1,0.2-0.3,0.1-0.4
		c0.2-0.6,0.3-1.1,0.5-1.7c4.3-2.2,8.9-3.7,13.7-4.4c0-0.3,0-0.5-0.1-0.8c-4.6,0.7-9.1,2.1-13.3,4.1c0.5-1.7,1.1-3.4,1.6-5.2
		c3.7-1.6,7.4-2.9,11.2-3.9c0-0.3-0.1-0.5-0.1-0.8c-3.7,1-7.3,2.2-10.8,3.7c0.5-1.6,1-3.2,1.5-4.8c2.5-0.7,5.1-1.3,7.6-2
		c0.4-0.1,0.8-0.2,1.3-0.3c0-0.3-0.1-0.5-0.1-0.8c-0.6,0.2-1.3,0.3-1.9,0.5c-2.2,0.6-4.5,1.2-6.7,1.8c0.4-1.4,0.8-2.7,1.2-4.1
		c2.2-1,4.4-1.9,6.7-2.6c0-0.3-0.1-0.5-0.1-0.8c-2.1,0.7-4.2,1.6-6.2,2.4c0.5-1.6,1-3.2,1.5-4.7c1.4-0.6,2.8-1.1,4.2-1.5
		c0-0.3-0.1-0.5-0.1-0.8c-1.3,0.4-2.5,0.8-3.8,1.3l0.9-2.9c0.8-0.3,1.6-0.7,2.4-1c0-0.3-0.1-0.5-0.1-0.8c-0.7,0.3-1.3,0.5-2,0.8
		c0.4-1.4,0.9-2.8,1.3-4.3c-0.2-1.2-0.4-1.9-0.4-1.9s-0.5,0.5-1.4,1.4c-0.5,1.6-1,3.2-1.5,4.8c-0.3-0.7-0.6-1.5-1-2.1
		c-0.2,0.2-0.4,0.4-0.6,0.6c0.5,0.9,0.9,1.8,1.2,2.8c-0.3,1.1-0.7,2.2-1,3.3c-0.6-1.4-1.3-2.8-2.1-4.1c-0.2,0.2-0.4,0.4-0.6,0.6
		c0.9,1.4,1.6,2.8,2.1,4.4c0,0.1,0.1,0.2,0.2,0.2c-0.6,2-1.3,4.1-1.9,6.1c-1.2-2.4-2.4-4.7-3.7-7c-0.2,0.2-0.4,0.4-0.6,0.7
		c1.4,2.4,2.7,5,4,7.5c-0.6,1.8-1.1,3.7-1.7,5.5c-1.6-3.3-3.4-6.5-5.2-9.6c-0.2,0.2-0.4,0.4-0.6,0.7c1.9,3.3,3.7,6.7,5.4,10.1
		c-0.7,2.2-1.4,4.5-2.1,6.7c-2-4.4-4.2-8.7-6.6-12.9c-0.2,0.2-0.4,0.5-0.6,0.7c2.5,4.4,4.7,8.8,6.8,13.4c-0.5,1.5-0.9,3-1.4,4.4
		c-3.1-4.4-6.1-8.7-9.2-13.1c-0.2,0.2-0.4,0.5-0.5,0.7c3.1,4.5,6.3,8.9,9.4,13.4c-0.9,2.9-1.8,5.7-2.7,8.6
		c-2.9-6.2-6.2-12.3-9.8-18.1c-0.2,0.2-0.4,0.5-0.5,0.7c3.7,6,7,12.2,9.9,18.5c-0.8,2.6-1.6,5.3-2.4,7.9c-4.3-6.3-8.5-12.7-12.8-19
		c-0.2,0.2-0.3,0.5-0.5,0.7l13,19.3c-0.3,1-0.6,2-0.9,3l-1.1,3.7c-4.8-6.8-9.6-13.7-14.5-20.5c-0.2,0.3-0.3,0.5-0.5,0.8
		c4.9,6.9,9.7,13.8,14.6,20.7c-0.6,1.9-1.2,3.8-1.7,5.6c-5.7-6.5-11.3-12.9-17-19.4c-0.1,0.3-0.3,0.5-0.4,0.8
		c5.7,6.5,11.3,13,17,19.5l0.1,0.1c-0.8,2.7-1.7,5.4-2.5,8.1c-5.9-7.2-11.8-14.4-17.7-21.5c-0.1,0.3-0.3,0.5-0.4,0.8
		c5.9,7.2,11.9,14.4,17.8,21.7c-0.6,2-1.2,4-1.9,6c-6.6-6.3-13.1-12.5-19.7-18.8c-0.1,0.3-0.2,0.6-0.3,0.9
		c6.6,6.3,13.1,12.6,19.7,18.8c-0.7,2.1-1.3,4.3-2,6.4c-7-5.3-13.7-11-20-17.1c-0.1,0.3-0.1,0.6-0.2,1c6.3,6,12.9,11.7,19.9,16.9
		c-1.1,3.5-2.1,7-3.2,10.4c-6.3-4.7-12.3-9.8-18.1-15.1c0,0.4,0,0.8,0,1.1c5.6,5.2,11.6,10.1,17.7,14.7c0,0,0.1,0,0.1,0.1
		c-0.5,1.5-0.9,2.9-1.4,4.4c-5.2-3.5-10.4-7.1-15.6-10.6c0.1,0.4,0.2,0.8,0.2,1.2c5,3.4,10.1,6.9,15.1,10.3
		c-0.4,1.4-0.9,2.9-1.3,4.3c0.6,0.2,1.2,0.3,1.8,0.4c0.1-0.4,0.2-0.8,0.4-1.2c5.7-1.2,11.5-2.4,17.2-3.5c0.4-0.3,0.8-0.7,1.2-1
		c-6,1.2-12.1,2.5-18.1,3.7c0.4-1.3,0.8-2.6,1.2-3.9c7.1-1.5,14.3-3.1,21.4-4.6c0.3-0.3,0.5-0.6,0.8-1c-7.3,1.6-14.6,3.1-21.9,4.7
		c0.6-2,1.2-4,1.9-6c8.1-1.6,16.2-3.2,24.4-4.8c0.2-0.3,0.4-0.6,0.5-0.9c-8.2,1.6-16.4,3.2-24.6,4.9c0.5-1.8,1.1-3.5,1.6-5.3V293
		c8.6-2.1,17.2-3.8,25.9-5.1c0.1-0.3,0.3-0.6,0.4-0.8c-8.7,1.2-17.4,2.9-26.1,5.1c0.1-0.2,0.1-0.5,0.2-0.7v-0.1
		c0.5-1.5,0.9-2.9,1.4-4.4c9.1-2.9,18.3-5.4,27.5-7.5c0.1-0.3,0.2-0.6,0.3-0.9C263.9,280.8,254.8,283.3,245.7,286.2"/>
</g>
<g>
	<path class="st38" d="M150.2,178.1c0,0-13.5,69.8,6.9,111.5c6.9,14.2,15.7,23.4,24.2,29.4c17.8,12.5,44.5,4,48.9-15.6
		c2.1-9.4,2-21.4-3.1-36.1C212,224,150.2,178.1,150.2,178.1"/>
	<path class="st39" d="M198.8,290.3c-1.2-2.9-2.5-5.9-3.7-8.8c9-8.6,17.9-17.2,26.9-25.8c-0.2-0.3-0.4-0.7-0.5-1
		c-8.9,8.6-17.9,17.1-26.8,25.7c-1.2-2.8-2.3-5.6-3.5-8.3c8.4-8.3,17.3-16.4,26.5-24c-0.2-0.3-0.4-0.6-0.6-0.9
		c-9.2,7.6-18,15.6-26.4,23.8l-3.4-8c8.4-7.6,16.8-15.2,25.1-22.8c-0.2-0.3-0.4-0.6-0.6-0.9c-8.3,7.5-16.6,15.1-24.9,22.6
		c-1.2-2.8-2.4-5.6-3.5-8.4c7.1-7.7,14.6-15.1,22.4-22.2c-0.2-0.3-0.5-0.6-0.7-0.8c-7.7,7.1-15.1,14.4-22.2,22
		c-1.2-2.9-2.4-5.8-3.6-8.7c6.5-6.8,13.3-13.4,20.5-19.7c-0.2-0.3-0.5-0.5-0.7-0.8c-7.1,6.2-13.8,12.7-20.2,19.4c-1-2.3-2-4.7-3-7
		c5.6-6.4,11.5-12.5,17.7-18.4c-0.2-0.3-0.5-0.5-0.7-0.8c-6.1,5.8-11.9,11.8-17.4,18c-1.2-2.9-2.4-5.7-3.6-8.6
		c4.2-5.8,9.1-11.2,14.6-16.2c-0.3-0.3-0.5-0.5-0.8-0.8c-5.4,4.8-10.1,10.1-14.3,15.7l-1.2-2.9c0-0.2,0-0.4-0.2-0.5
		c-0.3-0.7-0.6-1.4-0.9-2.1c3.3-5.3,7.6-10,12.8-13.9c-0.3-0.3-0.5-0.5-0.8-0.8c-5,3.8-9.2,8.4-12.5,13.4c-0.9-2.1-1.8-4.3-2.7-6.4
		c3.1-4.1,6.5-8,10.2-11.7c-0.3-0.2-0.5-0.5-0.8-0.7c-3.6,3.6-6.9,7.3-9.9,11.3l-2.5-6c2.5-2.4,5-4.9,7.5-7.3
		c0.4-0.4,0.8-0.8,1.3-1.2c-0.3-0.2-0.5-0.5-0.8-0.7c-0.6,0.6-1.2,1.2-1.9,1.8l-6.6,6.4l-2.1-5.1c1.8-2.5,3.7-5,5.8-7.3
		c-0.3-0.2-0.6-0.5-0.8-0.7c-1.9,2.2-3.7,4.5-5.4,6.8c-0.8-2-1.7-3.9-2.5-5.9c1.2-1.5,2.4-3,3.8-4.4c-0.3-0.2-0.6-0.5-0.9-0.7
		c-1.2,1.3-2.3,2.6-3.4,4c-0.5-1.2-1-2.4-1.5-3.6c0.7-0.9,1.4-1.8,2.1-2.7c-0.3-0.2-0.6-0.5-0.9-0.7l-1.7,2.2
		c-0.7-1.8-1.5-3.6-2.2-5.3c-1.4-1.1-2.2-1.6-2.2-1.6s-0.2,0.8-0.4,2.4l2.5,5.9c-1-0.6-2.1-1.1-3.2-1.5c-0.1,0.3-0.1,0.7-0.2,1.1
		c1.4,0.6,2.8,1.3,4,2.1c0.6,1.4,1.2,2.8,1.7,4.1c-2-1.1-4.1-2.1-6.2-2.8c0,0.3-0.1,0.7-0.1,1c2.3,0.8,4.5,1.9,6.6,3.1
		c0.1,0.1,0.3,0.1,0.4,0.1c1.1,2.5,2.1,5.1,3.2,7.6c-3.6-1.7-7.2-3.2-10.9-4.7c0,0.4-0.1,0.7-0.1,1.1c3.9,1.6,7.8,3.3,11.6,5.1
		c1,2.3,1.9,4.6,2.9,6.9c-4.9-2.2-10-4.4-15-6.4c0,0.4-0.1,0.7-0.1,1.1c5.3,2.1,10.5,4.4,15.7,6.7c1.2,2.8,2.4,5.6,3.5,8.4
		c-6.4-3.2-13-6.1-19.7-8.8c0,0.4,0,0.7-0.1,1.1c6.9,2.8,13.7,5.9,20.4,9.2c0.8,1.8,1.6,3.7,2.3,5.5c-7.7-2.4-15.4-4.8-23.1-7.3
		c0,0.4,0,0.7,0,1.1c7.9,2.5,15.7,5,23.6,7.4c1.5,3.6,3,7.2,4.5,10.7c-9.2-4.5-18.6-8.5-28.2-12c0,0.4,0,0.7,0,1.1
		c9.9,3.7,19.5,7.8,28.9,12.4c1.4,3.3,2.8,6.6,4.1,9.8c-10.9-3.6-21.8-7.3-32.7-10.9c0,0.4,0,0.7,0.1,1.1
		c11.1,3.7,22.1,7.4,33.2,11.1c0.5,1.3,1.1,2.5,1.6,3.8c0.6,1.5,1.3,3,1.9,4.6c-12-3.8-24.1-7.5-36.1-11.3c0,0.4,0.1,0.7,0.1,1.1
		c12.2,3.8,24.4,7.6,36.6,11.4c1,2.3,2,4.7,3,7c-12.7-2.8-25.5-5.6-38.2-8.5c0.1,0.4,0.1,0.7,0.2,1.1l38.3,8.5c0.1,0,0.1,0,0.2,0
		c1.4,3.4,2.8,6.7,4.2,10.1c-13.7-3.4-27.4-6.8-41.1-10.2c0.1,0.4,0.2,0.7,0.3,1.1c13.8,3.4,27.6,6.8,41.3,10.2
		c1.1,2.5,2.1,5,3.2,7.5c-13.7-2-27.3-4-41-6c0.1,0.4,0.3,0.7,0.4,1.1c13.7,2,27.4,4,41.1,6c1.1,2.7,2.2,5.4,3.4,8
		c-13.4-0.7-26.6-2-39.8-4c0.2,0.4,0.4,0.8,0.6,1.1c13.1,1.9,26.4,3.2,39.7,3.9c1.8,4.3,3.6,8.7,5.5,13c-12-0.6-23.9-1.6-35.7-3.2
		c0.3,0.4,0.7,0.8,1,1.2c11.6,1.5,23.2,2.5,34.9,3c0.1,0,0.1,0,0.2,0c0.8,1.8,1.5,3.7,2.3,5.5c-9.6-0.1-19.1-0.2-28.7-0.3
		c0.4,0.4,0.9,0.7,1.3,1c9.3,0.1,18.5,0.2,27.8,0.3c0.8,1.8,1.5,3.6,2.3,5.4c0.9-0.2,1.7-0.5,2.6-0.8c-0.2-0.5-0.4-1-0.6-1.5
		c5.9-5.2,11.9-10.3,17.8-15.5c0.2-0.6,0.4-1.3,0.5-1.9L212,320.1c-0.7-1.6-1.4-3.2-2-4.8c7.4-6.5,14.7-13,22.1-19.5
		c0-0.5,0.1-1,0.1-1.5c-7.5,6.7-15.1,13.3-22.6,20c-1.1-2.5-2.1-5-3.2-7.5c8.5-7.2,17-14.5,25.5-21.7c0-0.4-0.1-0.9-0.1-1.3
		c-8.6,7.3-17.2,14.7-25.8,22c-0.9-2.2-1.8-4.4-2.8-6.6c0-0.1-0.1-0.1-0.1-0.2c8.6-8.1,17.7-15.8,27.2-23.1
		c-0.1-0.4-0.2-0.8-0.3-1.1c-9.6,7.3-18.7,15-27.3,23.2c-0.1-0.3-0.2-0.6-0.4-0.8c0-0.1,0-0.1-0.1-0.2c-0.8-1.8-1.5-3.7-2.3-5.5
		c8.5-9.3,17.4-18.2,26.9-26.7c-0.1-0.4-0.3-0.7-0.4-1.1C216.2,272.2,207.3,281.1,198.8,290.3"/>
</g>
<g>
	<path class="st39" d="M180.4,264.5c-5.7-0.5-8.9-0.3-8.6-7.2c0.2-7-5-6.5-10.6-6.9c-5.7-0.5-10.2-4.2-12.8-14.9s-9.3-8.1-15-9.5
		c-5.8-1.4-7.1-2-10.4-9.4s-10.3-5.9-17.4-4.2c-7.2,1.7-26.2-12.6-26.2-12.6s-2,10.1,7.1,19.1c9.1,9.2-2.8,9.3,2.5,19.7
		c5.3,10.5,15.2,6.6,13.2,15.5c-1.9,9-1,16.3,11.7,22.1c12.7,5.8,4.7,16.2,12.5,22.4s15.2-3.2,18.8,4.9c3.5,8.1,2.9,12.8,12.4,11.2
		c9.5-1.5,9,10.2,21.2,10.2c0.4,0.1,0.9,0,1.4-0.1c13.8-0.7,24.4-13.6,21.3-26.2c-0.7-2.8-1.9-5.2-4-6.3c-8.4-4.4-7.6-5.3-4-13.2
		C196.9,271.5,186.1,265,180.4,264.5"/>
	<path class="st38" d="M136.5,238.1c-2.3,3.8-4,7.8-5.1,11.9c-3.6-3.7-7.3-7.4-11.2-10.9c-1.3-1.3-2.7-2.4-4-3.7c0-0.1,0-0.1,0-0.2
		c-1.3-3.7-1.9-7.4-1.9-11.4c0-0.8-1.3-0.8-1.3,0c0,3.4,0.3,6.7,1.3,9.9c-8.7-7.6-17.8-14.8-27-22.1c-0.7-0.5-1.7,0.4-1,0.9
		c8.7,6.9,17.4,13.9,25.8,21.1c-3.7,0.1-7.4,0.7-11,1.8c-0.9,0.3-0.5,1.5,0.2,1.3c3.9-1.2,8-1.8,12-1.7c0.1,0,0.1,0,0.2,0
		c0.7,0.6,1.3,1.2,2,1.8c5.4,4.7,10.4,9.6,15.3,14.7c-4.8,1-9.5,2.4-14,4.2c-0.8,0.3-0.5,1.6,0.2,1.3c4.8-1.8,9.8-3.3,14.8-4.4
		c3.4,3.5,6.7,7.2,10,11c3.6,4,7,8.2,10.4,12.2c-4.8,0.5-9.5,1.4-14.2,2.6c-0.9,0.2-0.5,1.5,0.2,1.3c4.8-1.1,9.6-2.1,14.5-2.6
		c0.1,0,0.2,0,0.3-0.1c4.3,5.1,8.5,10.1,12.8,15.1c0.8,0.9,1.6,1.8,2.5,2.8c-3.7,0.7-7.4,1.8-11,3.3c-0.8,0.4-0.2,1.4,0.6,1.1
		c3.5-1.6,7.4-2.6,11.1-3.3c0.1,0,0.1,0,0.2,0c7,7.8,11.2,12.4,19.1,19.4c9.5,8.4-0.5-2.2-4.7-6.3c-4.5-4.4-8.8-9-13-13.6
		c0,0,0,0,0-0.1c1.7-4.2,3.9-8.3,6.4-12.3c0.4-0.8-0.7-1.3-1.1-0.6c-2.4,3.8-4.5,7.7-6.2,11.8c-5.4-6-10.6-12.3-15.9-18.5
		c1.9-4.4,3.8-9,5.8-13.4c0.3-0.7-0.9-1.1-1.2-0.3c-1.7,4.2-3.6,8.4-5.3,12.7c-6.7-7.9-13.4-15.7-20.5-23.3
		c1.1-4.4,2.9-8.5,5.2-12.4C137.9,237.9,136.9,237.3,136.5,238.1"/>
	<path class="st38" d="M96.5,232.7c0.6-0.2,1.2-0.2,1.9-0.4c0.5-0.2,0.9-0.5,1-1c-0.1-0.5-0.5-0.9-1-0.9c-0.6,0.2-1.2,0.2-1.9,0.4
		c-0.5,0.2-0.9,0.5-1,1C95.5,232.3,95.9,232.7,96.5,232.7"/>
	<path class="st38" d="M96,227.5c0.5,0.2,1.1,0.6,1.6,0.8c0.4,0.3,1.1,0,1.3-0.6s0-1-0.4-1.3c-0.5-0.2-1.1-0.6-1.6-0.8
		c-0.4-0.3-1.1,0-1.3,0.6C95.3,226.8,95.5,227.2,96,227.5"/>
	<path class="st38" d="M95.2,237.9l2.1-0.4c0.5-0.2,0.9-0.5,1-1c-0.1-0.5-0.5-0.9-1-0.9l-2.1,0.4c-0.5,0.2-0.9,0.5-1,1
		C94.2,237.5,94.7,238.1,95.2,237.9"/>
	<path class="st38" d="M106.4,221.5c0.3,0.4,0.7,0.7,1,1.1c0.3,0.4,1.1,0.2,1.4-0.2c0.4-0.4,0.3-0.9,0-1.3c-0.3-0.4-0.7-0.7-1-1.1
		c-0.3-0.4-1.1-0.2-1.4,0.2C105.9,220.7,106,221.2,106.4,221.5"/>
	<path class="st38" d="M112.5,218.3c0,0.1,0.1,0.2,0.1,0.4c0,0.1,0,0.1,0,0.2c0-0.1,0-0.1,0,0c0,0.1,0,0.2,0,0.3c0,0,0,0.4,0,0.2
		c0,0.5,0.2,1,0.7,1.1c0.5,0,1.2-0.3,1.2-0.8c0-0.7,0-1.4-0.2-2.1c-0.2-0.5-0.7-0.7-1.3-0.6C112.7,217.3,112.4,217.8,112.5,218.3"/>
	<path class="st38" d="M117.6,220.8c-0.3,0.5-0.7,1.1-1.1,1.7c-0.3,0.4,0,1.1,0.4,1.3c0.5,0.2,1.1,0,1.3-0.6
		c0.3-0.5,0.7-1.1,1.1-1.7c0.3-0.4,0-1.1-0.4-1.3C118.5,220.1,117.9,220.3,117.6,220.8"/>
	<path class="st38" d="M114.1,263.8c0.3-0.6,0.7-1.2,1-1.8c0.3-0.4,0-1-0.4-1.3c-0.5-0.2-1.1,0-1.3,0.6l-1,1.8c-0.3,0.4,0,1,0.4,1.3
		C113.2,264.5,113.8,264.4,114.1,263.8"/>
	<path class="st38" d="M110,259.2c0.7-0.3,1.4-0.5,2-0.7c1.3-0.4,0.7-2.2-0.6-1.7c-0.7,0.3-1.4,0.5-2,0.7
		C108.2,257.9,108.8,259.7,110,259.2"/>
	<path class="st38" d="M110.4,252.7c0.5,0.5,1.1,0.7,1.8,0.8c0.5,0,1.1-0.3,1.2-0.8c0.1-0.5-0.2-1-0.7-1.1c0,0-0.4-0.1-0.2,0
		c-0.1,0-0.2-0.1-0.3-0.1l-0.1-0.1c0.1,0.1,0.1,0.1,0,0c-0.1-0.1-0.2-0.1-0.2-0.2c-0.3-0.4-1-0.3-1.4,0.2
		C109.9,251.7,110,252.3,110.4,252.7"/>
	<path class="st38" d="M114.8,249.3c0.3,0.3,0.6,0.6,0.9,0.9c0.3,0.4,1.1,0.2,1.4-0.2c0.4-0.4,0.3-0.9,0-1.3
		c-0.3-0.3-0.6-0.6-0.9-0.9c-0.3-0.4-1.1-0.2-1.4,0.2C114.3,248.3,114.4,248.8,114.8,249.3"/>
	<path class="st38" d="M131.5,238.1c0.4,0.2,0.8,0.4,1.2,0.6c0.4,0.3,1.1,0,1.3-0.6c0.2-0.5,0.1-1-0.4-1.3c-0.4-0.2-0.8-0.4-1.2-0.6
		c-0.4-0.3-1.1,0-1.3,0.6S131.1,237.9,131.5,238.1"/>
	<path class="st38" d="M136.4,233c0,0.6,0,1.1,0,1.7c0,0.5,0.5,0.9,1,0.8c0.6-0.1,0.9-0.5,1-1c0-0.6,0-1.1,0-1.7
		c0-0.5-0.5-0.9-1-0.8C136.8,232,136.4,232.5,136.4,233"/>
	<path class="st38" d="M142.3,235.2c-0.6,0.4-1.2,0.7-1.8,1.1c-0.5,0.3-0.6,1-0.3,1.3c0.4,0.5,1,0.5,1.4,0.1
		c0.6-0.4,1.2-0.7,1.8-1.1c0.5-0.3,0.6-1,0.3-1.3C143.4,235,142.7,235,142.3,235.2"/>
	<path class="st38" d="M141.2,242.2c0.7-0.2,1.4-0.4,2.1-0.4c0.5-0.2,0.9-0.5,1-1c-0.1-0.5-0.5-0.9-1-0.8l-2.1,0.4
		c-0.5,0.2-0.9,0.5-1,1C140.3,241.9,140.7,242.3,141.2,242.2"/>
	<path class="st38" d="M138.5,283.8c-0.3,0.6-0.8,1.2-1.1,1.8c-0.3,0.4,0,1.1,0.4,1.3c0.5,0.2,1.1,0,1.3-0.6
		c0.3-0.6,0.8-1.2,1.1-1.8c0.3-0.4,0-1.1-0.4-1.3C139.3,283.1,138.8,283.4,138.5,283.8"/>
	<path class="st38" d="M131.9,283.2c-0.8,0.8-1.6,1.7-2.4,2.5c-0.9,0.9,0.5,2.1,1.5,1.1c0.8-0.8,1.6-1.7,2.4-2.5
		C134.2,283.4,132.8,282.3,131.9,283.2"/>
	<path class="st38" d="M128.8,280.4c1-0.2,1.9-0.3,2.9-0.5c1.3-0.2,1.2-2.1-0.1-1.9c-1,0.2-1.9,0.3-2.9,0.5
		C127.4,278.7,127.5,280.6,128.8,280.4"/>
	<path class="st38" d="M130.9,273.3l1.4,0.6c0.4,0.3,1.1,0,1.3-0.6c0.2-0.5,0.1-1-0.4-1.3c-0.4-0.2-0.9-0.4-1.4-0.6
		c-0.4-0.3-1.1,0-1.3,0.6C130.3,272.6,130.5,273.2,130.9,273.3"/>
	<path class="st38" d="M137.8,271c0.4,0.6,0.8,1.2,1.2,1.8c0.7,1,2.4-0.2,1.7-1.2c-0.4-0.6-0.8-1.2-1.2-1.8
		C138.8,268.9,137.1,270,137.8,271"/>
	<path class="st38" d="M151.5,263.3c0.5,0.3,1,0.7,1.5,1c0.4,0.3,1,0.3,1.4-0.2s0.4-1,0-1.3c-0.5-0.3-1-0.7-1.5-1
		c-0.4-0.3-1-0.3-1.4,0.2C151.1,262.3,151.1,263,151.5,263.3"/>
	<path class="st38" d="M153.2,254.9c0.6,0.8,1.2,1.6,1.7,2.4c0.7,1,2.4-0.2,1.7-1.2c-0.6-0.8-1.2-1.6-1.7-2.4
		C154.2,252.8,152.5,254,153.2,254.9"/>
	<path class="st38" d="M161.5,255.6c-0.6,1-1.1,1.8-1.7,2.8c-0.7,1.1,1.1,1.9,1.8,0.7c0.6-1,1.1-1.8,1.7-2.8
		C163.9,255.3,162.1,254.6,161.5,255.6"/>
	<path class="st38" d="M167,260.3c-0.8,0.6-1.6,1.1-2.4,1.7c-1.1,0.7,0,2.3,1.1,1.5c0.8-0.6,1.6-1.1,2.4-1.7
		C169.1,261,168,259.5,167,260.3"/>
	<path class="st38" d="M167.5,266.1c-1.5,0.5-2.8,1.1-4,1.9c-1.1,0.7-0.1,2.2,1.1,1.5c1.1-0.7,2.3-1.3,3.5-1.6
		C169.3,267.5,168.7,265.7,167.5,266.1"/>
	<path class="st38" d="M159.9,303.9c-0.2,0.9-0.5,2-0.7,2.9c-0.3,1.2,1.7,1.5,1.9,0.3c0.2-0.9,0.5-2,0.7-2.9
		C162.1,303,160.1,302.7,159.9,303.9"/>
	<path class="st38" d="M155,306.2c0.6-0.6,1.3-1.2,1.8-1.8c0.4-0.3,0.3-1,0-1.3c-0.4-0.4-1-0.2-1.4,0.2c-0.6,0.6-1.3,1.2-1.8,1.8
		c-0.4,0.3-0.3,1,0,1.3C154,306.7,154.6,306.6,155,306.2"/>
	<path class="st38" d="M149,302.5c0.7-0.5,1.4-1,2.1-1.4c1.1-0.7-2-0.9-3.1-0.2c-0.7,0.5,0.7-0.5,0,0
		C146.9,301.7,148,303.3,149,302.5"/>
	<path class="st38" d="M151,294.4c0.7,0.1,1.3,0.3,2.1,0.4c0.5,0,1.1-0.3,1.2-0.8c0.1-0.5-0.2-1-0.7-1.1c-0.7-0.1-1.3-0.3-2.1-0.4
		c-0.5,0-1.1,0.3-1.2,0.8C150.1,293.9,150.4,294.4,151,294.4"/>
	<path class="st38" d="M157.1,292.4c0.4,0.4,0.9,0.8,1.3,1.2c0.3,0.4,1,0.2,1.4-0.2c0.4-0.4,0.3-1,0-1.3c-0.4-0.4-0.9-0.8-1.3-1.2
		c-0.3-0.4-1-0.2-1.4,0.2C156.6,291.5,156.6,292.1,157.1,292.4"/>
	<path class="st38" d="M168.2,283.6c0.3,0.7,0.5,1.5,0.7,2.1c0.4,1.2,2.3,0.5,1.9-0.7c-0.3-0.7-0.5-1.5-0.7-2.1
		C169.7,281.7,167.7,282.4,168.2,283.6"/>
	<path class="st38" d="M171.4,278.4c0.3,0.7,0.6,1.4,0.6,2.1c0.1,1.2,2.1,1,2-0.2c-0.1-0.9-0.3-1.9-0.7-2.6
		c-0.3-0.5-0.7-0.7-1.3-0.6C171.6,277.3,171.3,277.9,171.4,278.4"/>
	<path class="st38" d="M178.1,275c-0.3,1-0.8,2-1.4,2.9c-0.3,0.4,0,1.1,0.4,1.3c0.5,0.2,1,0,1.3-0.6c0.7-1.1,1.2-2.1,1.5-3.4
		C180.4,274.1,178.5,273.9,178.1,275"/>
	<path class="st38" d="M183.1,278.1c-0.8,0.8-1.7,1.5-2.6,2.3c-0.4,0.3-0.3,1,0,1.3c0.4,0.4,1,0.2,1.4-0.2c0.8-0.8,1.7-1.5,2.6-2.3
		c0.5-0.4,0.3-1,0-1.3C184,277.6,183.4,277.7,183.1,278.1"/>
	<path class="st38" d="M182.7,284.6c-1.9,0.8-4,1.5-5.9,2.4c-1.2,0.5-0.7,2.3,0.6,1.7c1.9-0.8,4-1.5,5.9-2.4
		C184.5,285.9,183.9,284.1,182.7,284.6"/>
	<path class="st38" d="M178.4,291.1c-0.8,0.5-1.5,1.1-2.2,1.6c-1.1,0.7,0,2.3,1.1,1.5c0.8-0.5,1.5-1.1,2.2-1.6
		C180.6,291.9,179.5,290.4,178.4,291.1"/>
</g>
<path class="st38" d="M106.4,326.5c0,0,3.3-35.5,11.2-35.8c8-0.3,14.4,5.6,14.4,5.6s2.8-20.6,14.1-21.3c11.2-0.6,13,16.9,13,16.9
	s1.8-27.6,14.2-28c12.4-0.3,15.7,14.7,15.7,14.7c2.1-16.6,21.2-15.4,26.8-2c5.8,13.6,6.6,23.2,6.6,23.2s2.1-17.7,12.1-19
	c10.1-1.3,12.7,21.3,12.7,21.3s6.4-24.3,30.4-24.3c10.1,0,17,15,17.3,22.6s5.5,18.6,19.7,6.3s26.6,19.5,26.6,19.5L106.4,326.5z"/>
</svg>
