<?xml version="1.0" encoding="utf-8"?>
<!-- Generator: Adobe Illustrator 26.3.1, SVG Export Plug-In . SVG Version: 6.00 Build 0)  -->
<svg version="1.1" id="Ebene_1" xmlns="http://www.w3.org/2000/svg" xmlns:xlink="http://www.w3.org/1999/xlink" x="0px" y="0px"
	 viewBox="0 0 478.9 288" style="enable-background:new 0 0 478.9 288;" xml:space="preserve">
<style type="text/css">
	.st0{fill:url(#SVGID_1_);}
	.st1{fill:url(#SVGID_00000134216157121373112340000011439880216402216374_);}
	.st2{fill:url(#SVGID_00000164515472656287573440000015263549041321073341_);}
	.st3{fill:#FCB048;}
	.st4{fill:url(#SVGID_00000073683646404884344100000007827740275345602702_);}
	.st5{fill:url(#SVGID_00000011733558222778765760000012293388711961802649_);}
	.st6{fill:url(#SVGID_00000156564259047720499350000004977132074565099705_);}
	.st7{fill:url(#SVGID_00000003085870409490410080000015634665566471989172_);}
	.st8{fill:url(#SVGID_00000134932423104160460310000013739977317830279826_);}
	.st9{fill:url(#SVGID_00000056388505438760839560000018320054028981696189_);}
	.st10{fill:url(#SVGID_00000102524478594728302610000008487824959290640317_);}
	.st11{fill:url(#SVGID_00000127746722709270351680000009968919216497279660_);}
	.st12{fill:url(#SVGID_00000034781819305731812580000007148087474057677217_);}
	.st13{fill:url(#SVGID_00000096771178505640909390000015020493535681910945_);}
	.st14{fill:url(#SVGID_00000013888249739214538470000006680122884110402959_);}
	.st15{fill:url(#SVGID_00000152961564365273798610000002634855281653889200_);}
	.st16{fill:url(#SVGID_00000176028765255272201330000005949932099728806533_);}
	.st17{fill:url(#SVGID_00000150061396275705898140000011979997067057968277_);}
	.st18{fill:url(#SVGID_00000062160983688545405420000015095653283613154224_);}
	.st19{fill:url(#SVGID_00000052081999326681566280000006447351419215025574_);}
	.st20{fill:url(#SVGID_00000111890888879451705940000015809071698878536623_);}
	.st21{fill:url(#SVGID_00000080913654369017777390000017795749186983161501_);}
	.st22{fill:url(#SVGID_00000070080185370084837410000017612219533849518754_);}
	.st23{fill:url(#SVGID_00000127761921561966494200000009550988489620923037_);}
	.st24{fill:url(#SVGID_00000056403278760928902560000004545519609595287723_);}
	.st25{fill:url(#SVGID_00000006674504035113398830000010509804163117246625_);}
	.st26{fill:url(#SVGID_00000091722640602437112050000007513205188371591061_);}
	.st27{fill:url(#SVGID_00000014608664665340543230000009844626609227102639_);}
	.st28{fill:url(#SVGID_00000158742004836120192040000015590403688300495548_);}
	.st29{fill:url(#SVGID_00000008854943640410642650000004035493228014237839_);}
	.st30{fill:url(#SVGID_00000138547158868456499570000003764680687845385618_);}
	.st31{fill:url(#SVGID_00000115509000376009048990000003426596101199103675_);}
	.st32{fill:url(#SVGID_00000161609507931816235330000017635980058416331193_);}
	.st33{fill:url(#SVGID_00000092438120601442577490000005476907468028511384_);}
	.st34{fill:url(#SVGID_00000151543228916549854260000013624118104708463001_);}
	.st35{fill:url(#SVGID_00000175320535792084275660000015731271822306206097_);}
	.st36{fill:url(#SVGID_00000022540246318606707220000011420263181462130865_);}
	.st37{opacity:0.3;fill:url(#SVGID_00000165223533998789128100000012973049934586300311_);}
	.st38{fill:#641E6E;}
	.st39{fill:#7575B4;}
	.st40{fill:#EA5474;}
	.st41{fill:none;}
	.st42{fill:#E6566F;}
	.st43{fill:#FF7D8D;}
	.st44{fill:#FFE3E6;}
	.st45{fill:#542614;}
	.st46{fill:#833500;}
	.st47{fill:#692F4B;}
	.st48{fill:#FFD14B;}
	.st49{fill-rule:evenodd;clip-rule:evenodd;fill:url(#SVGID_00000006682778449142126880000004879537109190123928_);}
	.st50{fill-rule:evenodd;clip-rule:evenodd;fill:url(#SVGID_00000089574907125874782790000006575292234593041542_);}
	.st51{fill-rule:evenodd;clip-rule:evenodd;fill:#E0A5FF;}
	.st52{fill-rule:evenodd;clip-rule:evenodd;fill:url(#SVGID_00000002354392160153922450000000907774805594084777_);}
	.st53{opacity:0.8;fill-rule:evenodd;clip-rule:evenodd;fill:#E698FF;}
	.st54{fill-rule:evenodd;clip-rule:evenodd;fill:url(#SVGID_00000070812111310695244160000009308783010681856422_);}
	.st55{fill-rule:evenodd;clip-rule:evenodd;fill:url(#SVGID_00000124854352068738052650000001788151452684384646_);}
	.st56{fill-rule:evenodd;clip-rule:evenodd;fill:url(#SVGID_00000049936700242538401030000008103915919058985897_);}
	.st57{fill-rule:evenodd;clip-rule:evenodd;fill:url(#SVGID_00000051379029790193095750000006924610374499833485_);}
	.st58{fill-rule:evenodd;clip-rule:evenodd;fill:url(#SVGID_00000075138552505693305200000015013332137604293262_);}
	.st59{fill-rule:evenodd;clip-rule:evenodd;fill:#E081FF;}
	.st60{fill-rule:evenodd;clip-rule:evenodd;fill:url(#SVGID_00000179639465821878488180000016885860280650579849_);}
	.st61{fill-rule:evenodd;clip-rule:evenodd;fill:url(#SVGID_00000168825787445251250440000011559348852908171435_);}
	.st62{fill-rule:evenodd;clip-rule:evenodd;fill:url(#SVGID_00000119810965374615652080000013468672616374352530_);}
	.st63{fill-rule:evenodd;clip-rule:evenodd;fill:#D13BFF;}
	.st64{fill-rule:evenodd;clip-rule:evenodd;fill:url(#SVGID_00000055680206839653873860000014157000614204523181_);}
	.st65{fill-rule:evenodd;clip-rule:evenodd;fill:#FFFFFF;}
	.st66{fill-rule:evenodd;clip-rule:evenodd;fill:url(#SVGID_00000145045995698005007790000016296671920863818135_);}
	.st67{fill-rule:evenodd;clip-rule:evenodd;fill:url(#SVGID_00000137837717731979253810000013336156090680921001_);}
	.st68{fill-rule:evenodd;clip-rule:evenodd;fill:#E43CF6;}
	.st69{fill-rule:evenodd;clip-rule:evenodd;fill:#CF1EDC;}
	.st70{fill-rule:evenodd;clip-rule:evenodd;fill:#B720FF;}
	.st71{fill-rule:evenodd;clip-rule:evenodd;fill:url(#SVGID_00000163788908193635593070000005134542073230288532_);}
	.st72{fill-rule:evenodd;clip-rule:evenodd;fill:url(#SVGID_00000123409381820617400970000015431758857845876382_);}
	.st73{fill-rule:evenodd;clip-rule:evenodd;fill:url(#SVGID_00000026843619909059799870000010511866075876874634_);}
	.st74{fill-rule:evenodd;clip-rule:evenodd;fill:url(#SVGID_00000041280691951433798400000004301008173508783294_);}
	.st75{fill-rule:evenodd;clip-rule:evenodd;fill:url(#SVGID_00000124875291824272092930000015308567183316343989_);}
	.st76{fill-rule:evenodd;clip-rule:evenodd;fill:url(#SVGID_00000107552916846296328450000007124548474691267748_);}
	.st77{fill-rule:evenodd;clip-rule:evenodd;fill:url(#SVGID_00000106840278310575539800000007040340512917815426_);}
	.st78{fill-rule:evenodd;clip-rule:evenodd;fill:url(#SVGID_00000001622133512212846610000015413258449055616921_);}
	.st79{fill-rule:evenodd;clip-rule:evenodd;fill:url(#SVGID_00000080927313559086500470000016855799633272654524_);}
	.st80{fill-rule:evenodd;clip-rule:evenodd;fill:url(#SVGID_00000040553245256403971560000012259996983396412804_);}
	.st81{fill-rule:evenodd;clip-rule:evenodd;fill:url(#SVGID_00000096037124402208560920000001136959804809307554_);}
	.st82{fill-rule:evenodd;clip-rule:evenodd;fill:url(#SVGID_00000153675691922958591460000014525602489702869392_);}
	.st83{fill-rule:evenodd;clip-rule:evenodd;fill:url(#SVGID_00000132049614549218242670000002180137264612695203_);}
	.st84{fill-rule:evenodd;clip-rule:evenodd;fill:url(#SVGID_00000062909919534205159930000012464507555616606888_);}
	.st85{fill-rule:evenodd;clip-rule:evenodd;fill:url(#SVGID_00000155134686629556436230000016235524515697488563_);}
	.st86{fill-rule:evenodd;clip-rule:evenodd;fill:url(#SVGID_00000044161300278598419200000008775790809850385055_);}
	.st87{fill-rule:evenodd;clip-rule:evenodd;fill:url(#SVGID_00000124852714445394971110000002198403580169895850_);}
	.st88{fill-rule:evenodd;clip-rule:evenodd;fill:url(#SVGID_00000043454617536306001120000011650701449209492900_);}
	.st89{fill-rule:evenodd;clip-rule:evenodd;fill:url(#SVGID_00000091017690027163132390000014372890409403070131_);}
	.st90{fill-rule:evenodd;clip-rule:evenodd;fill:url(#SVGID_00000041975551891505687250000007496164334641032883_);}
	.st91{fill-rule:evenodd;clip-rule:evenodd;fill:url(#SVGID_00000040576023487251774440000005927512715482574525_);}
	.st92{fill-rule:evenodd;clip-rule:evenodd;fill:url(#SVGID_00000160875698626336264340000006737917179468275840_);}
	.st93{fill-rule:evenodd;clip-rule:evenodd;fill:url(#SVGID_00000048493128615859631470000002595630528166397090_);}
	.st94{fill-rule:evenodd;clip-rule:evenodd;fill:url(#SVGID_00000083067977994746823760000000774149709334977189_);}
	.st95{fill-rule:evenodd;clip-rule:evenodd;fill:url(#SVGID_00000183951550910893404730000012735381209918681497_);}
	.st96{fill-rule:evenodd;clip-rule:evenodd;fill:url(#SVGID_00000134234877418204288140000014025929280273794489_);}
	.st97{fill-rule:evenodd;clip-rule:evenodd;fill:url(#SVGID_00000029732544345956427870000014695805106912843185_);}
	.st98{fill-rule:evenodd;clip-rule:evenodd;fill:url(#SVGID_00000182488235524990031010000004891718488234523267_);}
	.st99{fill-rule:evenodd;clip-rule:evenodd;fill:url(#SVGID_00000109727189808473603790000006510732732603845292_);}
	.st100{fill-rule:evenodd;clip-rule:evenodd;fill:url(#SVGID_00000092440482859628611880000016254212095625551243_);}
	.st101{fill-rule:evenodd;clip-rule:evenodd;fill:url(#SVGID_00000099631203323584197390000007067927014534047663_);}
	.st102{fill-rule:evenodd;clip-rule:evenodd;fill:url(#SVGID_00000158745493263575985710000011939604540120181679_);}
	.st103{fill-rule:evenodd;clip-rule:evenodd;fill:url(#SVGID_00000104684017347917901320000003157702819666349474_);}
	.st104{fill-rule:evenodd;clip-rule:evenodd;fill:url(#SVGID_00000146497290736120098090000010132828884854275994_);}
	.st105{fill-rule:evenodd;clip-rule:evenodd;fill:url(#SVGID_00000067202169483093328300000009023148398483129479_);}
	.st106{fill-rule:evenodd;clip-rule:evenodd;fill:url(#SVGID_00000165223819909201022780000004001005283062900132_);}
	.st107{fill-rule:evenodd;clip-rule:evenodd;fill:url(#SVGID_00000150090181655954249350000013528169669257961400_);}
	.st108{fill-rule:evenodd;clip-rule:evenodd;fill:url(#SVGID_00000061463237944233760310000004683564273627837312_);}
	.st109{fill-rule:evenodd;clip-rule:evenodd;fill:url(#SVGID_00000108277987666187613870000001426606423950554259_);}
	.st110{fill-rule:evenodd;clip-rule:evenodd;fill:url(#SVGID_00000127724299499921085280000018366082342926047935_);}
	.st111{fill-rule:evenodd;clip-rule:evenodd;fill:url(#SVGID_00000054251748983062997590000006826849697573890744_);}
	.st112{fill-rule:evenodd;clip-rule:evenodd;fill:url(#SVGID_00000106847358699030152200000011532104051341336227_);}
	.st113{fill-rule:evenodd;clip-rule:evenodd;fill:url(#SVGID_00000163031145770554093270000005697708121563650976_);}
	.st114{fill-rule:evenodd;clip-rule:evenodd;fill:url(#SVGID_00000019637028157269391900000009526354983920808635_);}
	.st115{fill-rule:evenodd;clip-rule:evenodd;fill:url(#SVGID_00000001649379937046551440000002825159012190871453_);}
	.st116{fill-rule:evenodd;clip-rule:evenodd;fill:url(#SVGID_00000039108758898265150670000001477597238139489950_);}
	.st117{fill-rule:evenodd;clip-rule:evenodd;fill:url(#SVGID_00000183240968820506366570000015645986406454527374_);}
	.st118{fill-rule:evenodd;clip-rule:evenodd;fill:url(#SVGID_00000010301652845899216740000016321290219397533065_);}
	.st119{fill-rule:evenodd;clip-rule:evenodd;fill:#E6C2FF;}
	.st120{opacity:0.5;}
</style>
<g>
	<g>
		<linearGradient id="SVGID_1_" gradientUnits="userSpaceOnUse" x1="176.0615" y1="241.4729" x2="318.7908" y2="241.4729">
			<stop  offset="0" style="stop-color:#FCB148"/>
			<stop  offset="5.207239e-02" style="stop-color:#FDBA46"/>
			<stop  offset="0.1424" style="stop-color:#FFC244"/>
			<stop  offset="0.3183" style="stop-color:#FFC444"/>
			<stop  offset="0.4849" style="stop-color:#FDB946"/>
			<stop  offset="0.7754" style="stop-color:#F99C4D"/>
			<stop  offset="0.8658" style="stop-color:#F8924F"/>
			<stop  offset="1" style="stop-color:#F8924F"/>
		</linearGradient>
		<path class="st0" d="M186.7,230.6v13.8c0,4.4,27.8,8.1,62,8.1c34.3,0,62-3.6,62-8.1v-13.8H186.7z"/>
		
			<linearGradient id="SVGID_00000183237633670816900160000000849774702928601514_" gradientUnits="userSpaceOnUse" x1="248.0821" y1="225.3949" x2="255.6067" y2="288.3864">
			<stop  offset="0" style="stop-color:#FFDB44"/>
			<stop  offset="1" style="stop-color:#FEEF06"/>
		</linearGradient>
		
			<ellipse style="fill:url(#SVGID_00000183237633670816900160000000849774702928601514_);" cx="248.7" cy="230.6" rx="62" ry="8.1"/>
		
			<linearGradient id="SVGID_00000030463243753058577130000006673617922941351059_" gradientUnits="userSpaceOnUse" x1="247.755" y1="222.5857" x2="250.0659" y2="241.9314">
			<stop  offset="0" style="stop-color:#FFDB44"/>
			<stop  offset="1" style="stop-color:#FEEF06"/>
		</linearGradient>
		<path style="fill:url(#SVGID_00000030463243753058577130000006673617922941351059_);" d="M248.7,239.2c-30.3,0-62.1-2.9-62.1-8.5
			c0-0.3,0.1-0.8,0.4-0.8s0.2,0.4,0.2,0.7c0,3.5,25.2,7.5,61.5,7.5c36.2,0,61.5-3.9,61.5-7.5c0-0.3,0.1-0.6,0.4-0.6s0.2,0.4,0.2,0.7
			C310.8,236.3,279,239.2,248.7,239.2z"/>
		<g>
			<path class="st3" d="M242.8,231c0.6-0.4,1.3-0.8,1.9-1.2c0.7-0.4,1.6-0.8,2.7-1.1c1.1-0.3,2.5-0.6,4.1-0.8
				c1.6-0.2,3.7-0.3,6.1-0.3c2.4,0,4.6,0.1,6.8,0.2c2.1,0.2,4,0.4,5.6,0.7c1.6,0.3,2.9,0.7,3.9,1.2c1,0.5,1.6,1,1.8,1.7l7,0.1
				c0.5,0,1,0,1.3,0.1c0.4,0.1,0.6,0.2,0.6,0.3l0,0.6l-9-0.1c-0.3,0.7-1.1,1.3-2.4,1.9c-1.3,0.6-2.9,1.1-4.9,1.5l-3.3-0.5
				c-0.3,0-0.5-0.1-0.7-0.2c-0.2-0.1-0.3-0.1-0.3-0.2c0-0.1,0.3-0.2,0.8-0.4c0.5-0.1,1.1-0.3,1.7-0.5c0.6-0.2,1.3-0.5,1.9-0.7
				c0.6-0.3,1-0.6,1.2-1l-21.2-0.2c-0.6,0.4-1.2,0.8-1.9,1.2c-0.7,0.4-1.6,0.8-2.7,1.1c-1.1,0.3-2.6,0.6-4.3,0.8
				c-1.7,0.2-3.8,0.3-6.4,0.3c-1.9,0-3.8-0.1-5.7-0.2c-1.9-0.2-3.5-0.4-4.9-0.7c-1.4-0.3-2.6-0.7-3.5-1.2c-0.9-0.5-1.4-1-1.5-1.6
				l-5.8-0.1c-0.5,0-1,0-1.4-0.1c-0.4-0.1-0.6-0.2-0.6-0.3l0-0.6l7.9,0.1c0.3-0.6,1.1-1.1,2.1-1.6c1.1-0.4,2.4-0.9,4-1.2l2.6,0.4
				c0.8,0.1,1.2,0.2,1.2,0.4c0,0.1-0.2,0.2-0.5,0.3c-0.3,0.1-0.7,0.3-1.2,0.4c-0.4,0.2-0.9,0.4-1.3,0.6c-0.4,0.2-0.7,0.5-1,0.8
				L242.8,231z M223.4,231.8c0.2,0.4,0.5,0.7,1,1c0.5,0.3,1.2,0.5,2,0.7c0.8,0.2,1.7,0.3,2.7,0.4c1,0.1,2,0.1,3.1,0.1
				c1.3,0,2.4-0.1,3.3-0.2c0.9-0.1,1.8-0.2,2.5-0.4c0.7-0.2,1.3-0.4,1.9-0.6c0.5-0.2,1-0.5,1.4-0.8L223.4,231.8z M269.6,231.3
				c-0.2-0.4-0.5-0.7-1.1-1c-0.6-0.3-1.4-0.5-2.3-0.7c-0.9-0.2-2-0.3-3.3-0.4c-1.2-0.1-2.6-0.1-4.1-0.1c-1.3,0-2.5,0.1-3.4,0.2
				c-1,0.1-1.8,0.3-2.5,0.5c-0.7,0.2-1.3,0.4-1.8,0.7c-0.5,0.3-1,0.5-1.4,0.8L269.6,231.3z"/>
		</g>
		
			<linearGradient id="SVGID_00000088821984419093609480000017951591404149685665_" gradientUnits="userSpaceOnUse" x1="-1812.6783" y1="466.4867" x2="-1810.3756" y2="485.7638" gradientTransform="matrix(-1 0 0 -1 -1562.751 706.39)">
			<stop  offset="3.597120e-03" style="stop-color:#F36F56"/>
			<stop  offset="0.3059" style="stop-color:#F99C4C"/>
			<stop  offset="0.545" style="stop-color:#FDB946"/>
			<stop  offset="0.6817" style="stop-color:#FFC444"/>
			<stop  offset="0.8038" style="stop-color:#FFC244"/>
			<stop  offset="0.8667" style="stop-color:#FEBA46"/>
			<stop  offset="0.916" style="stop-color:#FCAD49"/>
			<stop  offset="0.958" style="stop-color:#F99A4D"/>
			<stop  offset="0.9955" style="stop-color:#F58152"/>
			<stop  offset="1" style="stop-color:#F57E53"/>
		</linearGradient>
		<path style="fill:url(#SVGID_00000088821984419093609480000017951591404149685665_);" d="M248.7,223.4c-27.7,0-56.5,2.4-61.1,7.1
			c0.2,0.2,0.3,0.3,0.5,0.5c3.9-3.3,27.7-6.6,60.6-6.6c33.7,0,57.9,3.5,60.8,6.8c0.1-0.2,0.3-0.4,0.5-0.5
			C306.2,225.9,276.9,223.4,248.7,223.4z"/>
	</g>
	<g>
		
			<linearGradient id="SVGID_00000103227550473140216180000008428993167918827911_" gradientUnits="userSpaceOnUse" x1="158.817" y1="227.0206" x2="301.5461" y2="227.0206">
			<stop  offset="0" style="stop-color:#FCB148"/>
			<stop  offset="5.207239e-02" style="stop-color:#FDBA46"/>
			<stop  offset="0.1424" style="stop-color:#FFC244"/>
			<stop  offset="0.3183" style="stop-color:#FFC444"/>
			<stop  offset="0.4849" style="stop-color:#FDB946"/>
			<stop  offset="0.7754" style="stop-color:#F99C4D"/>
			<stop  offset="0.8658" style="stop-color:#F8924F"/>
			<stop  offset="1" style="stop-color:#F8924F"/>
		</linearGradient>
		<path style="fill:url(#SVGID_00000103227550473140216180000008428993167918827911_);" d="M169.4,216.1v13.8c0,4.4,27.8,8.1,62,8.1
			c34.3,0,62-3.6,62-8.1v-13.8H169.4z"/>
		
			<linearGradient id="SVGID_00000110469149695896064530000008066787958695587203_" gradientUnits="userSpaceOnUse" x1="230.8375" y1="210.9427" x2="238.362" y2="273.9341">
			<stop  offset="0" style="stop-color:#FFDB44"/>
			<stop  offset="1" style="stop-color:#FEEF06"/>
		</linearGradient>
		
			<ellipse style="fill:url(#SVGID_00000110469149695896064530000008066787958695587203_);" cx="231.5" cy="216.1" rx="62" ry="8.1"/>
		
			<linearGradient id="SVGID_00000124854593614197994500000010273410843652061587_" gradientUnits="userSpaceOnUse" x1="230.5103" y1="208.1336" x2="232.8212" y2="227.4792">
			<stop  offset="0" style="stop-color:#FFDB44"/>
			<stop  offset="1" style="stop-color:#FEEF06"/>
		</linearGradient>
		<path style="fill:url(#SVGID_00000124854593614197994500000010273410843652061587_);" d="M231.5,224.7c-30.3,0-62.1-2.9-62.1-8.5
			c0-0.3,0.1-0.8,0.4-0.8s0.2,0.4,0.2,0.7c0,3.5,25.2,7.5,61.5,7.5c36.2,0,61.5-3.9,61.5-7.5c0-0.3,0.1-0.6,0.4-0.6
			c0.3,0,0.2,0.4,0.2,0.7C293.5,221.8,261.8,224.7,231.5,224.7z"/>
		<g>
			<path class="st3" d="M225.6,216.6c0.6-0.4,1.3-0.8,1.9-1.2c0.7-0.4,1.6-0.8,2.7-1.1c1.1-0.3,2.5-0.6,4.1-0.8
				c1.6-0.2,3.7-0.3,6.1-0.3c2.4,0,4.6,0.1,6.8,0.2c2.1,0.2,4,0.4,5.6,0.7c1.6,0.3,2.9,0.7,3.9,1.2c1,0.5,1.6,1,1.8,1.7l7,0.1
				c0.5,0,1,0,1.3,0.1c0.4,0.1,0.6,0.2,0.6,0.3l0,0.6l-9-0.1c-0.3,0.7-1.1,1.3-2.4,1.9c-1.3,0.6-2.9,1.1-4.9,1.5l-3.3-0.5
				c-0.3,0-0.5-0.1-0.7-0.2c-0.2-0.1-0.3-0.1-0.3-0.2c0-0.1,0.3-0.2,0.8-0.4c0.5-0.1,1.1-0.3,1.7-0.5c0.6-0.2,1.3-0.5,1.9-0.7
				c0.6-0.3,1-0.6,1.2-1l-21.2-0.2c-0.6,0.4-1.2,0.8-1.9,1.2c-0.7,0.4-1.6,0.8-2.7,1.1c-1.1,0.3-2.6,0.6-4.3,0.8
				c-1.7,0.2-3.8,0.3-6.4,0.3c-1.9,0-3.8-0.1-5.7-0.2c-1.9-0.2-3.5-0.4-4.9-0.7c-1.4-0.3-2.6-0.7-3.5-1.2c-0.9-0.5-1.4-1-1.5-1.6
				l-5.8-0.1c-0.5,0-1,0-1.4-0.1c-0.4-0.1-0.6-0.2-0.6-0.3l0-0.6l7.9,0.1c0.3-0.6,1.1-1.1,2.1-1.6c1.1-0.5,2.4-0.9,4-1.2l2.6,0.4
				c0.8,0.1,1.2,0.2,1.2,0.4c0,0.1-0.2,0.2-0.5,0.3c-0.3,0.1-0.7,0.3-1.2,0.4c-0.4,0.2-0.9,0.4-1.3,0.6c-0.4,0.2-0.7,0.5-1,0.8
				L225.6,216.6z M206.2,217.3c0.2,0.4,0.5,0.7,1,1c0.5,0.3,1.2,0.5,2,0.7c0.8,0.2,1.7,0.3,2.7,0.4c1,0.1,2,0.1,3.1,0.1
				c1.3,0,2.4-0.1,3.3-0.2c0.9-0.1,1.8-0.2,2.5-0.4c0.7-0.2,1.3-0.4,1.9-0.6c0.5-0.2,1-0.5,1.4-0.8L206.2,217.3z M252.3,216.8
				c-0.2-0.4-0.5-0.7-1.1-1c-0.6-0.3-1.4-0.5-2.3-0.7c-0.9-0.2-2-0.3-3.3-0.4c-1.2-0.1-2.6-0.1-4.1-0.1c-1.3,0-2.5,0.1-3.4,0.2
				c-1,0.1-1.8,0.3-2.5,0.5c-0.7,0.2-1.3,0.4-1.8,0.7c-0.5,0.3-1,0.5-1.4,0.8L252.3,216.8z"/>
		</g>
		
			<linearGradient id="SVGID_00000116949708663741375170000016397576059460245932_" gradientUnits="userSpaceOnUse" x1="-1795.4336" y1="480.939" x2="-1793.1309" y2="500.216" gradientTransform="matrix(-1 0 0 -1 -1562.751 706.39)">
			<stop  offset="3.597120e-03" style="stop-color:#F36F56"/>
			<stop  offset="0.3059" style="stop-color:#F99C4C"/>
			<stop  offset="0.545" style="stop-color:#FDB946"/>
			<stop  offset="0.6817" style="stop-color:#FFC444"/>
			<stop  offset="0.8038" style="stop-color:#FFC244"/>
			<stop  offset="0.8667" style="stop-color:#FEBA46"/>
			<stop  offset="0.916" style="stop-color:#FCAD49"/>
			<stop  offset="0.958" style="stop-color:#F99A4D"/>
			<stop  offset="0.9955" style="stop-color:#F58152"/>
			<stop  offset="1" style="stop-color:#F57E53"/>
		</linearGradient>
		<path style="fill:url(#SVGID_00000116949708663741375170000016397576059460245932_);" d="M231.5,208.9c-27.7,0-56.5,2.4-61.1,7.1
			c0.2,0.2,0.3,0.3,0.5,0.5c3.9-3.3,27.7-6.6,60.6-6.6c33.7,0,57.9,3.5,60.8,6.8c0.1-0.2,0.3-0.4,0.5-0.5
			C289,211.5,259.6,208.9,231.5,208.9z"/>
	</g>
	<g>
		
			<linearGradient id="SVGID_00000109720391624249944570000006827650265926879665_" gradientUnits="userSpaceOnUse" x1="173.6967" y1="212.6106" x2="316.426" y2="212.6106">
			<stop  offset="0" style="stop-color:#FCB148"/>
			<stop  offset="5.207239e-02" style="stop-color:#FDBA46"/>
			<stop  offset="0.1424" style="stop-color:#FFC244"/>
			<stop  offset="0.3183" style="stop-color:#FFC444"/>
			<stop  offset="0.4849" style="stop-color:#FDB946"/>
			<stop  offset="0.7754" style="stop-color:#F99C4D"/>
			<stop  offset="0.8658" style="stop-color:#F8924F"/>
			<stop  offset="1" style="stop-color:#F8924F"/>
		</linearGradient>
		<path style="fill:url(#SVGID_00000109720391624249944570000006827650265926879665_);" d="M184.3,201.7v13.8c0,4.4,27.8,8.1,62,8.1
			c34.3,0,62-3.6,62-8.1v-13.8H184.3z"/>
		
			<linearGradient id="SVGID_00000072251843604388343120000001159985623007554438_" gradientUnits="userSpaceOnUse" x1="245.7173" y1="196.5328" x2="253.2418" y2="259.5243">
			<stop  offset="0" style="stop-color:#FFDB44"/>
			<stop  offset="1" style="stop-color:#FEEF06"/>
		</linearGradient>
		
			<ellipse style="fill:url(#SVGID_00000072251843604388343120000001159985623007554438_);" cx="246.3" cy="201.7" rx="62" ry="8.1"/>
		
			<linearGradient id="SVGID_00000168810168405703362110000002294736964384730516_" gradientUnits="userSpaceOnUse" x1="245.3901" y1="193.7236" x2="247.701" y2="213.0692">
			<stop  offset="0" style="stop-color:#FFDB44"/>
			<stop  offset="1" style="stop-color:#FEEF06"/>
		</linearGradient>
		<path style="fill:url(#SVGID_00000168810168405703362110000002294736964384730516_);" d="M246.3,210.3c-30.3,0-62.1-2.9-62.1-8.5
			c0-0.3,0.1-0.8,0.4-0.8s0.2,0.4,0.2,0.7c0,3.5,25.2,7.5,61.5,7.5c36.2,0,61.5-3.9,61.5-7.5c0-0.3,0.1-0.6,0.4-0.6
			c0.3,0,0.2,0.4,0.2,0.7C308.4,207.4,276.7,210.3,246.3,210.3z"/>
		<g>
			<path class="st3" d="M240.5,202.2c0.6-0.4,1.3-0.8,1.9-1.2c0.7-0.4,1.6-0.8,2.7-1.1c1.1-0.3,2.5-0.6,4.1-0.8
				c1.6-0.2,3.7-0.3,6.1-0.3c2.4,0,4.6,0.1,6.8,0.2c2.1,0.2,4,0.4,5.6,0.7c1.6,0.3,2.9,0.7,3.9,1.2c1,0.5,1.6,1,1.8,1.7l7,0.1
				c0.5,0,1,0,1.3,0.1c0.4,0.1,0.6,0.2,0.6,0.3l0,0.6l-9-0.1c-0.3,0.7-1.1,1.3-2.4,1.9c-1.3,0.6-2.9,1.1-4.9,1.5l-3.3-0.5
				c-0.3,0-0.5-0.1-0.7-0.2c-0.2-0.1-0.3-0.1-0.3-0.2c0-0.1,0.3-0.2,0.8-0.4c0.5-0.1,1.1-0.3,1.7-0.5c0.6-0.2,1.3-0.5,1.9-0.7
				c0.6-0.3,1-0.6,1.2-1l-21.2-0.2c-0.6,0.4-1.2,0.8-1.9,1.2c-0.7,0.4-1.6,0.8-2.7,1.1c-1.1,0.3-2.6,0.6-4.3,0.8
				c-1.7,0.2-3.8,0.3-6.4,0.3c-1.9,0-3.8-0.1-5.7-0.2c-1.9-0.2-3.5-0.4-4.9-0.7c-1.4-0.3-2.6-0.7-3.5-1.2c-0.9-0.5-1.4-1-1.5-1.6
				l-5.8-0.1c-0.5,0-1,0-1.4-0.1c-0.4-0.1-0.6-0.2-0.6-0.3l0-0.6l7.9,0.1c0.3-0.6,1.1-1.1,2.1-1.6c1.1-0.5,2.4-0.9,4-1.2l2.6,0.4
				c0.8,0.1,1.2,0.2,1.2,0.4c0,0.1-0.2,0.2-0.5,0.3c-0.3,0.1-0.7,0.3-1.2,0.4c-0.4,0.2-0.9,0.4-1.3,0.6c-0.4,0.2-0.7,0.5-1,0.8
				L240.5,202.2z M221.1,202.9c0.2,0.4,0.5,0.7,1,1c0.5,0.3,1.2,0.5,2,0.7s1.7,0.3,2.7,0.4c1,0.1,2,0.1,3.1,0.1
				c1.3,0,2.4-0.1,3.3-0.2c0.9-0.1,1.8-0.2,2.5-0.4c0.7-0.2,1.3-0.4,1.9-0.6c0.5-0.2,1-0.5,1.4-0.8L221.1,202.9z M267.2,202.4
				c-0.2-0.4-0.5-0.7-1.1-1c-0.6-0.3-1.4-0.5-2.3-0.7c-0.9-0.2-2-0.3-3.3-0.4c-1.2-0.1-2.6-0.1-4.1-0.1c-1.3,0-2.5,0.1-3.4,0.2
				c-1,0.1-1.8,0.3-2.5,0.5c-0.7,0.2-1.3,0.4-1.8,0.7c-0.5,0.3-1,0.5-1.4,0.8L267.2,202.4z"/>
		</g>
		
			<linearGradient id="SVGID_00000035525929156903404630000007441838651552540332_" gradientUnits="userSpaceOnUse" x1="-1810.3135" y1="495.3489" x2="-1808.0107" y2="514.626" gradientTransform="matrix(-1 0 0 -1 -1562.751 706.39)">
			<stop  offset="3.597120e-03" style="stop-color:#F36F56"/>
			<stop  offset="0.3059" style="stop-color:#F99C4C"/>
			<stop  offset="0.545" style="stop-color:#FDB946"/>
			<stop  offset="0.6817" style="stop-color:#FFC444"/>
			<stop  offset="0.8038" style="stop-color:#FFC244"/>
			<stop  offset="0.8667" style="stop-color:#FEBA46"/>
			<stop  offset="0.916" style="stop-color:#FCAD49"/>
			<stop  offset="0.958" style="stop-color:#F99A4D"/>
			<stop  offset="0.9955" style="stop-color:#F58152"/>
			<stop  offset="1" style="stop-color:#F57E53"/>
		</linearGradient>
		<path style="fill:url(#SVGID_00000035525929156903404630000007441838651552540332_);" d="M246.3,194.5c-27.7,0-56.5,2.4-61.1,7.1
			c0.2,0.2,0.3,0.3,0.5,0.5c3.9-3.3,27.7-6.6,60.6-6.6c33.7,0,57.9,3.5,60.8,6.8c0.1-0.2,0.3-0.4,0.5-0.5
			C303.8,197.1,274.5,194.5,246.3,194.5z"/>
	</g>
	<g>
		
			<linearGradient id="SVGID_00000009549504797925673840000013523544672282655673_" gradientUnits="userSpaceOnUse" x1="182.7263" y1="198.1585" x2="325.4554" y2="198.1585">
			<stop  offset="0" style="stop-color:#FCB148"/>
			<stop  offset="5.207239e-02" style="stop-color:#FDBA46"/>
			<stop  offset="0.1424" style="stop-color:#FFC244"/>
			<stop  offset="0.3183" style="stop-color:#FFC444"/>
			<stop  offset="0.4849" style="stop-color:#FDB946"/>
			<stop  offset="0.7754" style="stop-color:#F99C4D"/>
			<stop  offset="0.8658" style="stop-color:#F8924F"/>
			<stop  offset="1" style="stop-color:#F8924F"/>
		</linearGradient>
		<path style="fill:url(#SVGID_00000009549504797925673840000013523544672282655673_);" d="M193.3,187.3V201c0,4.4,27.8,8.1,62,8.1
			c34.3,0,62-3.6,62-8.1v-13.8H193.3z"/>
		
			<linearGradient id="SVGID_00000059270379005091306320000002547252792970610102_" gradientUnits="userSpaceOnUse" x1="254.7468" y1="182.0805" x2="262.2713" y2="245.072">
			<stop  offset="0" style="stop-color:#FFDB44"/>
			<stop  offset="1" style="stop-color:#FEEF06"/>
		</linearGradient>
		<path style="fill:url(#SVGID_00000059270379005091306320000002547252792970610102_);" d="M317.4,187.3c0,4.4-27.8,8.1-62,8.1
			c-34.3,0-62-3.6-62-8.1c0-4.4,27.8-8.1,62-8.1C289.6,179.2,317.4,182.8,317.4,187.3z"/>
		
			<linearGradient id="SVGID_00000083771319677098858620000014343042748838994839_" gradientUnits="userSpaceOnUse" x1="254.4196" y1="179.2713" x2="256.7305" y2="198.617">
			<stop  offset="0" style="stop-color:#FFDB44"/>
			<stop  offset="1" style="stop-color:#FEEF06"/>
		</linearGradient>
		<path style="fill:url(#SVGID_00000083771319677098858620000014343042748838994839_);" d="M255.4,195.9c-30.3,0-62.1-2.9-62.1-8.5
			c0-0.3,0.1-0.8,0.4-0.8s0.2,0.4,0.2,0.7c0,3.5,25.2,7.5,61.5,7.5c36.2,0,61.5-3.9,61.5-7.5c0-0.3,0.1-0.6,0.4-0.6
			c0.3,0,0.2,0.4,0.2,0.7C317.4,193,285.7,195.9,255.4,195.9z"/>
		<g>
			<path class="st3" d="M249.5,187.7c0.6-0.4,1.3-0.8,1.9-1.2c0.7-0.4,1.6-0.8,2.7-1.1c1.1-0.3,2.5-0.6,4.1-0.8
				c1.6-0.2,3.7-0.3,6.1-0.3c2.4,0,4.6,0.1,6.8,0.2c2.1,0.2,4,0.4,5.6,0.7c1.6,0.3,2.9,0.7,3.9,1.2c1,0.5,1.6,1,1.8,1.7l7,0.1
				c0.5,0,1,0,1.3,0.1c0.4,0.1,0.6,0.2,0.6,0.3l0,0.6l-9-0.1c-0.3,0.7-1.1,1.3-2.4,1.9c-1.3,0.6-2.9,1.1-4.9,1.5l-3.3-0.5
				c-0.3,0-0.5-0.1-0.7-0.2c-0.2-0.1-0.3-0.1-0.3-0.2c0-0.1,0.3-0.2,0.8-0.4c0.5-0.1,1.1-0.3,1.7-0.5c0.6-0.2,1.3-0.5,1.9-0.7
				c0.6-0.3,1-0.6,1.2-1l-21.2-0.2c-0.6,0.4-1.2,0.8-1.9,1.2c-0.7,0.4-1.6,0.8-2.7,1.1c-1.1,0.3-2.6,0.6-4.3,0.8
				c-1.7,0.2-3.8,0.3-6.4,0.3c-1.9,0-3.8-0.1-5.7-0.2c-1.9-0.2-3.5-0.4-4.9-0.7c-1.4-0.3-2.6-0.7-3.5-1.2c-0.9-0.5-1.4-1-1.5-1.6
				l-5.8-0.1c-0.5,0-1,0-1.4-0.1c-0.4-0.1-0.6-0.2-0.6-0.3l0-0.6l7.9,0.1c0.3-0.6,1.1-1.1,2.1-1.6c1.1-0.4,2.4-0.9,4-1.2l2.6,0.4
				c0.8,0.1,1.2,0.2,1.2,0.4c0,0.1-0.2,0.2-0.5,0.3c-0.3,0.1-0.7,0.3-1.2,0.4c-0.4,0.2-0.9,0.4-1.3,0.6c-0.4,0.2-0.7,0.5-1,0.8
				L249.5,187.7z M230.1,188.5c0.2,0.4,0.5,0.7,1,1c0.5,0.3,1.2,0.5,2,0.7c0.8,0.2,1.7,0.3,2.7,0.4c1,0.1,2,0.1,3.1,0.1
				c1.3,0,2.4-0.1,3.3-0.2c0.9-0.1,1.8-0.2,2.5-0.4c0.7-0.2,1.3-0.4,1.9-0.6c0.5-0.2,1-0.5,1.4-0.8L230.1,188.5z M276.2,188
				c-0.2-0.4-0.5-0.7-1.1-1c-0.6-0.3-1.4-0.5-2.3-0.7c-0.9-0.2-2-0.3-3.3-0.4c-1.2-0.1-2.6-0.1-4.1-0.1c-1.3,0-2.5,0.1-3.4,0.2
				c-1,0.1-1.8,0.3-2.5,0.5c-0.7,0.2-1.3,0.4-1.8,0.7c-0.5,0.3-1,0.5-1.4,0.8L276.2,188z"/>
		</g>
		
			<linearGradient id="SVGID_00000023248857868786771450000016403849882206565046_" gradientUnits="userSpaceOnUse" x1="-1819.3429" y1="509.8011" x2="-1817.0402" y2="529.0781" gradientTransform="matrix(-1 0 0 -1 -1562.751 706.39)">
			<stop  offset="3.597120e-03" style="stop-color:#F36F56"/>
			<stop  offset="0.3059" style="stop-color:#F99C4C"/>
			<stop  offset="0.545" style="stop-color:#FDB946"/>
			<stop  offset="0.6817" style="stop-color:#FFC444"/>
			<stop  offset="0.8038" style="stop-color:#FFC244"/>
			<stop  offset="0.8667" style="stop-color:#FEBA46"/>
			<stop  offset="0.916" style="stop-color:#FCAD49"/>
			<stop  offset="0.958" style="stop-color:#F99A4D"/>
			<stop  offset="0.9955" style="stop-color:#F58152"/>
			<stop  offset="1" style="stop-color:#F57E53"/>
		</linearGradient>
		<path style="fill:url(#SVGID_00000023248857868786771450000016403849882206565046_);" d="M255.4,180.1c-27.7,0-56.5,2.4-61.1,7.1
			c0.2,0.2,0.3,0.3,0.5,0.5c3.9-3.3,27.7-6.6,60.6-6.6c33.7,0,57.9,3.5,60.8,6.8c0.1-0.2,0.3-0.4,0.5-0.5
			C312.9,182.6,283.5,180.1,255.4,180.1z"/>
	</g>
	<g>
		
			<linearGradient id="SVGID_00000072282690819796762800000015855220650551239082_" gradientUnits="userSpaceOnUse" x1="176.0615" y1="182.5661" x2="318.7908" y2="182.5661">
			<stop  offset="0" style="stop-color:#FCB148"/>
			<stop  offset="5.207239e-02" style="stop-color:#FDBA46"/>
			<stop  offset="0.1424" style="stop-color:#FFC244"/>
			<stop  offset="0.3183" style="stop-color:#FFC444"/>
			<stop  offset="0.4849" style="stop-color:#FDB946"/>
			<stop  offset="0.7754" style="stop-color:#F99C4D"/>
			<stop  offset="0.8658" style="stop-color:#F8924F"/>
			<stop  offset="1" style="stop-color:#F8924F"/>
		</linearGradient>
		<path style="fill:url(#SVGID_00000072282690819796762800000015855220650551239082_);" d="M186.7,171.7v13.8c0,4.4,27.8,8.1,62,8.1
			c34.3,0,62-3.6,62-8.1v-13.8H186.7z"/>
		
			<linearGradient id="SVGID_00000049937833407260809650000008435700173504514221_" gradientUnits="userSpaceOnUse" x1="248.0821" y1="166.4882" x2="255.6067" y2="229.4797">
			<stop  offset="0" style="stop-color:#FFDB44"/>
			<stop  offset="1" style="stop-color:#FEEF06"/>
		</linearGradient>
		
			<ellipse style="fill:url(#SVGID_00000049937833407260809650000008435700173504514221_);" cx="248.7" cy="171.7" rx="62" ry="8.1"/>
		
			<linearGradient id="SVGID_00000176745540480556002250000009759768916033350074_" gradientUnits="userSpaceOnUse" x1="247.755" y1="163.679" x2="250.0659" y2="183.0247">
			<stop  offset="0" style="stop-color:#FFDB44"/>
			<stop  offset="1" style="stop-color:#FEEF06"/>
		</linearGradient>
		<path style="fill:url(#SVGID_00000176745540480556002250000009759768916033350074_);" d="M248.7,180.3c-30.3,0-62.1-2.9-62.1-8.5
			c0-0.3,0.1-0.8,0.4-0.8s0.2,0.4,0.2,0.7c0,3.5,25.2,7.5,61.5,7.5c36.2,0,61.5-3.9,61.5-7.5c0-0.3,0.1-0.6,0.4-0.6s0.2,0.4,0.2,0.7
			C310.8,177.4,279,180.3,248.7,180.3z"/>
		<g>
			<path class="st3" d="M242.8,172.1c0.6-0.4,1.3-0.8,1.9-1.2c0.7-0.4,1.6-0.8,2.7-1.1c1.1-0.3,2.5-0.6,4.1-0.8
				c1.6-0.2,3.7-0.3,6.1-0.3c2.4,0,4.6,0.1,6.8,0.2c2.1,0.2,4,0.4,5.6,0.7c1.6,0.3,2.9,0.7,3.9,1.2c1,0.5,1.6,1,1.8,1.7l7,0.1
				c0.5,0,1,0,1.3,0.1c0.4,0.1,0.6,0.2,0.6,0.3l0,0.6l-9-0.1c-0.3,0.7-1.1,1.3-2.4,1.9c-1.3,0.6-2.9,1.1-4.9,1.5l-3.3-0.5
				c-0.3,0-0.5-0.1-0.7-0.2c-0.2-0.1-0.3-0.1-0.3-0.2c0-0.1,0.3-0.2,0.8-0.4c0.5-0.1,1.1-0.3,1.7-0.5c0.6-0.2,1.3-0.5,1.9-0.7
				c0.6-0.3,1-0.6,1.2-1l-21.2-0.2c-0.6,0.4-1.2,0.8-1.9,1.2c-0.7,0.4-1.6,0.8-2.7,1.1c-1.1,0.3-2.6,0.6-4.3,0.8
				c-1.7,0.2-3.8,0.3-6.4,0.3c-1.9,0-3.8-0.1-5.7-0.2c-1.9-0.2-3.5-0.4-4.9-0.7c-1.4-0.3-2.6-0.7-3.5-1.2c-0.9-0.5-1.4-1-1.5-1.6
				l-5.8-0.1c-0.5,0-1,0-1.4-0.1c-0.4-0.1-0.6-0.2-0.6-0.3l0-0.6l7.9,0.1c0.3-0.6,1.1-1.1,2.1-1.6c1.1-0.4,2.4-0.9,4-1.2l2.6,0.4
				c0.8,0.1,1.2,0.2,1.2,0.4c0,0.1-0.2,0.2-0.5,0.3c-0.3,0.1-0.7,0.3-1.2,0.4c-0.4,0.2-0.9,0.4-1.3,0.6c-0.4,0.2-0.7,0.5-1,0.8
				L242.8,172.1z M223.4,172.9c0.2,0.4,0.5,0.7,1,1c0.5,0.3,1.2,0.5,2,0.7c0.8,0.2,1.7,0.3,2.7,0.4c1,0.1,2,0.1,3.1,0.1
				c1.3,0,2.4-0.1,3.3-0.2c0.9-0.1,1.8-0.2,2.5-0.4c0.7-0.2,1.3-0.4,1.9-0.6c0.5-0.2,1-0.5,1.4-0.8L223.4,172.9z M269.6,172.4
				c-0.2-0.4-0.5-0.7-1.1-1c-0.6-0.3-1.4-0.5-2.3-0.7c-0.9-0.2-2-0.3-3.3-0.4c-1.2-0.1-2.6-0.1-4.1-0.1c-1.3,0-2.5,0.1-3.4,0.2
				c-1,0.1-1.8,0.3-2.5,0.5c-0.7,0.2-1.3,0.4-1.8,0.7c-0.5,0.3-1,0.5-1.4,0.8L269.6,172.4z"/>
		</g>
		
			<linearGradient id="SVGID_00000022525175237341367500000015034693410281810867_" gradientUnits="userSpaceOnUse" x1="-1812.6783" y1="525.3934" x2="-1810.3756" y2="544.6705" gradientTransform="matrix(-1 0 0 -1 -1562.751 706.39)">
			<stop  offset="3.597120e-03" style="stop-color:#F36F56"/>
			<stop  offset="0.3059" style="stop-color:#F99C4C"/>
			<stop  offset="0.545" style="stop-color:#FDB946"/>
			<stop  offset="0.6817" style="stop-color:#FFC444"/>
			<stop  offset="0.8038" style="stop-color:#FFC244"/>
			<stop  offset="0.8667" style="stop-color:#FEBA46"/>
			<stop  offset="0.916" style="stop-color:#FCAD49"/>
			<stop  offset="0.958" style="stop-color:#F99A4D"/>
			<stop  offset="0.9955" style="stop-color:#F58152"/>
			<stop  offset="1" style="stop-color:#F57E53"/>
		</linearGradient>
		<path style="fill:url(#SVGID_00000022525175237341367500000015034693410281810867_);" d="M248.7,164.5c-27.7,0-56.5,2.4-61.1,7.1
			c0.2,0.2,0.3,0.3,0.5,0.5c3.9-3.3,27.7-6.6,60.6-6.6c33.7,0,57.9,3.5,60.8,6.8c0.1-0.2,0.3-0.4,0.5-0.5
			C306.2,167,276.9,164.5,248.7,164.5z"/>
	</g>
	<g>
		
			<linearGradient id="SVGID_00000152263203083002499840000016829776657876160397_" gradientUnits="userSpaceOnUse" x1="158.817" y1="168.1138" x2="301.5461" y2="168.1138">
			<stop  offset="0" style="stop-color:#FCB148"/>
			<stop  offset="5.207239e-02" style="stop-color:#FDBA46"/>
			<stop  offset="0.1424" style="stop-color:#FFC244"/>
			<stop  offset="0.3183" style="stop-color:#FFC444"/>
			<stop  offset="0.4849" style="stop-color:#FDB946"/>
			<stop  offset="0.7754" style="stop-color:#F99C4D"/>
			<stop  offset="0.8658" style="stop-color:#F8924F"/>
			<stop  offset="1" style="stop-color:#F8924F"/>
		</linearGradient>
		<path style="fill:url(#SVGID_00000152263203083002499840000016829776657876160397_);" d="M169.4,157.2V171c0,4.4,27.8,8.1,62,8.1
			c34.3,0,62-3.6,62-8.1v-13.8H169.4z"/>
		
			<linearGradient id="SVGID_00000078027154573760411870000004170844179429216173_" gradientUnits="userSpaceOnUse" x1="230.8375" y1="152.0359" x2="238.362" y2="215.0274">
			<stop  offset="0" style="stop-color:#FFDB44"/>
			<stop  offset="1" style="stop-color:#FEEF06"/>
		</linearGradient>
		
			<ellipse style="fill:url(#SVGID_00000078027154573760411870000004170844179429216173_);" cx="231.5" cy="157.2" rx="62" ry="8.1"/>
		
			<linearGradient id="SVGID_00000066478070151135851750000006766989910128235923_" gradientUnits="userSpaceOnUse" x1="230.5103" y1="149.2268" x2="232.8212" y2="168.5725">
			<stop  offset="0" style="stop-color:#FFDB44"/>
			<stop  offset="1" style="stop-color:#FEEF06"/>
		</linearGradient>
		<path style="fill:url(#SVGID_00000066478070151135851750000006766989910128235923_);" d="M231.5,165.8c-30.3,0-62.1-2.9-62.1-8.5
			c0-0.3,0.1-0.8,0.4-0.8s0.2,0.4,0.2,0.7c0,3.5,25.2,7.5,61.5,7.5c36.2,0,61.5-3.9,61.5-7.5c0-0.3,0.1-0.6,0.4-0.6
			c0.3,0,0.2,0.4,0.2,0.7C293.5,162.9,261.8,165.8,231.5,165.8z"/>
		<g>
			<path class="st3" d="M225.6,157.7c0.6-0.4,1.3-0.8,1.9-1.2c0.7-0.4,1.6-0.8,2.7-1.1c1.1-0.3,2.5-0.6,4.1-0.8s3.7-0.3,6.1-0.3
				c2.4,0,4.6,0.1,6.8,0.2c2.1,0.2,4,0.4,5.6,0.7c1.6,0.3,2.9,0.7,3.9,1.2c1,0.5,1.6,1,1.8,1.7l7,0.1c0.5,0,1,0,1.3,0.1
				c0.4,0.1,0.6,0.2,0.6,0.3l0,0.6l-9-0.1c-0.3,0.7-1.1,1.3-2.4,1.9c-1.3,0.6-2.9,1.1-4.9,1.5l-3.3-0.5c-0.3,0-0.5-0.1-0.7-0.2
				c-0.2-0.1-0.3-0.1-0.3-0.2c0-0.1,0.3-0.2,0.8-0.4c0.5-0.1,1.1-0.3,1.7-0.5c0.6-0.2,1.3-0.5,1.9-0.7c0.6-0.3,1-0.6,1.2-1
				l-21.2-0.2c-0.6,0.4-1.2,0.8-1.9,1.2c-0.7,0.4-1.6,0.8-2.7,1.1c-1.1,0.3-2.6,0.6-4.3,0.8c-1.7,0.2-3.8,0.3-6.4,0.3
				c-1.9,0-3.8-0.1-5.7-0.2c-1.9-0.2-3.5-0.4-4.9-0.7c-1.4-0.3-2.6-0.7-3.5-1.2c-0.9-0.5-1.4-1-1.5-1.6l-5.8-0.1c-0.5,0-1,0-1.4-0.1
				c-0.4-0.1-0.6-0.2-0.6-0.3l0-0.6l7.9,0.1c0.3-0.6,1.1-1.1,2.1-1.6c1.1-0.4,2.4-0.9,4-1.2l2.6,0.4c0.8,0.1,1.2,0.2,1.2,0.4
				c0,0.1-0.2,0.2-0.5,0.3c-0.3,0.1-0.7,0.3-1.2,0.4c-0.4,0.2-0.9,0.4-1.3,0.6c-0.4,0.2-0.7,0.5-1,0.8L225.6,157.7z M206.2,158.4
				c0.2,0.4,0.5,0.7,1,1c0.5,0.3,1.2,0.5,2,0.7c0.8,0.2,1.7,0.3,2.7,0.4c1,0.1,2,0.1,3.1,0.1c1.3,0,2.4-0.1,3.3-0.2
				c0.9-0.1,1.8-0.2,2.5-0.4c0.7-0.2,1.3-0.4,1.9-0.6c0.5-0.2,1-0.5,1.4-0.8L206.2,158.4z M252.3,157.9c-0.2-0.4-0.5-0.7-1.1-1
				c-0.6-0.3-1.4-0.5-2.3-0.7c-0.9-0.2-2-0.3-3.3-0.4c-1.2-0.1-2.6-0.1-4.1-0.1c-1.3,0-2.5,0.1-3.4,0.2c-1,0.1-1.8,0.3-2.5,0.5
				c-0.7,0.2-1.3,0.4-1.8,0.7c-0.5,0.3-1,0.5-1.4,0.8L252.3,157.9z"/>
		</g>
		
			<linearGradient id="SVGID_00000005968148398022472810000001284034789135597999_" gradientUnits="userSpaceOnUse" x1="-1795.4336" y1="539.8458" x2="-1793.1309" y2="559.1228" gradientTransform="matrix(-1 0 0 -1 -1562.751 706.39)">
			<stop  offset="3.597120e-03" style="stop-color:#F36F56"/>
			<stop  offset="0.3059" style="stop-color:#F99C4C"/>
			<stop  offset="0.545" style="stop-color:#FDB946"/>
			<stop  offset="0.6817" style="stop-color:#FFC444"/>
			<stop  offset="0.8038" style="stop-color:#FFC244"/>
			<stop  offset="0.8667" style="stop-color:#FEBA46"/>
			<stop  offset="0.916" style="stop-color:#FCAD49"/>
			<stop  offset="0.958" style="stop-color:#F99A4D"/>
			<stop  offset="0.9955" style="stop-color:#F58152"/>
			<stop  offset="1" style="stop-color:#F57E53"/>
		</linearGradient>
		<path style="fill:url(#SVGID_00000005968148398022472810000001284034789135597999_);" d="M231.5,150c-27.7,0-56.5,2.4-61.1,7.1
			c0.2,0.2,0.3,0.3,0.5,0.5c3.9-3.3,27.7-6.6,60.6-6.6c33.7,0,57.9,3.5,60.8,6.8c0.1-0.2,0.3-0.4,0.5-0.5
			C289,152.6,259.6,150,231.5,150z"/>
	</g>
	<g>
		
			<linearGradient id="SVGID_00000031189907584000723640000011111355814817760398_" gradientUnits="userSpaceOnUse" x1="173.6967" y1="153.704" x2="316.426" y2="153.704">
			<stop  offset="0" style="stop-color:#FCB148"/>
			<stop  offset="5.207239e-02" style="stop-color:#FDBA46"/>
			<stop  offset="0.1424" style="stop-color:#FFC244"/>
			<stop  offset="0.3183" style="stop-color:#FFC444"/>
			<stop  offset="0.4849" style="stop-color:#FDB946"/>
			<stop  offset="0.7754" style="stop-color:#F99C4D"/>
			<stop  offset="0.8658" style="stop-color:#F8924F"/>
			<stop  offset="1" style="stop-color:#F8924F"/>
		</linearGradient>
		<path style="fill:url(#SVGID_00000031189907584000723640000011111355814817760398_);" d="M184.3,142.8v13.8c0,4.4,27.8,8.1,62,8.1
			c34.3,0,62-3.6,62-8.1v-13.8H184.3z"/>
		
			<linearGradient id="SVGID_00000099637286089008038080000006676790860492697733_" gradientUnits="userSpaceOnUse" x1="245.7173" y1="137.626" x2="253.2418" y2="200.6175">
			<stop  offset="0" style="stop-color:#FFDB44"/>
			<stop  offset="1" style="stop-color:#FEEF06"/>
		</linearGradient>
		
			<ellipse style="fill:url(#SVGID_00000099637286089008038080000006676790860492697733_);" cx="246.3" cy="142.8" rx="62" ry="8.1"/>
		
			<linearGradient id="SVGID_00000045612577308215032670000003339902208271415427_" gradientUnits="userSpaceOnUse" x1="245.3901" y1="134.8168" x2="247.701" y2="154.1626">
			<stop  offset="0" style="stop-color:#FFDB44"/>
			<stop  offset="1" style="stop-color:#FEEF06"/>
		</linearGradient>
		<path style="fill:url(#SVGID_00000045612577308215032670000003339902208271415427_);" d="M246.3,151.4c-30.3,0-62.1-2.9-62.1-8.5
			c0-0.3,0.1-0.8,0.4-0.8s0.2,0.4,0.2,0.7c0,3.5,25.2,7.5,61.5,7.5c36.2,0,61.5-3.9,61.5-7.5c0-0.3,0.1-0.6,0.4-0.6
			c0.3,0,0.2,0.4,0.2,0.7C308.4,148.5,276.7,151.4,246.3,151.4z"/>
		<g>
			<path class="st3" d="M240.5,143.2c0.6-0.4,1.3-0.8,1.9-1.2c0.7-0.4,1.6-0.8,2.7-1.1c1.1-0.3,2.5-0.6,4.1-0.8
				c1.6-0.2,3.7-0.3,6.1-0.3c2.4,0,4.6,0.1,6.8,0.2c2.1,0.2,4,0.4,5.6,0.7c1.6,0.3,2.9,0.7,3.9,1.2c1,0.5,1.6,1,1.8,1.7l7,0.1
				c0.5,0,1,0,1.3,0.1c0.4,0.1,0.6,0.2,0.6,0.3l0,0.6l-9-0.1c-0.3,0.7-1.1,1.3-2.4,1.9c-1.3,0.6-2.9,1.1-4.9,1.5l-3.3-0.5
				c-0.3,0-0.5-0.1-0.7-0.2c-0.2-0.1-0.3-0.1-0.3-0.2c0-0.1,0.3-0.2,0.8-0.4c0.5-0.1,1.1-0.3,1.7-0.5c0.6-0.2,1.3-0.5,1.9-0.7
				c0.6-0.3,1-0.6,1.2-1l-21.2-0.2c-0.6,0.4-1.2,0.8-1.9,1.2c-0.7,0.4-1.6,0.8-2.7,1.1c-1.1,0.3-2.6,0.6-4.3,0.8
				c-1.7,0.2-3.8,0.3-6.4,0.3c-1.9,0-3.8-0.1-5.7-0.2c-1.9-0.2-3.5-0.4-4.9-0.7c-1.4-0.3-2.6-0.7-3.5-1.2c-0.9-0.5-1.4-1-1.5-1.6
				l-5.8-0.1c-0.5,0-1,0-1.4-0.1c-0.4-0.1-0.6-0.2-0.6-0.3l0-0.6l7.9,0.1c0.3-0.6,1.1-1.1,2.1-1.6c1.1-0.4,2.4-0.9,4-1.2l2.6,0.4
				c0.8,0.1,1.2,0.2,1.2,0.4c0,0.1-0.2,0.2-0.5,0.3c-0.3,0.1-0.7,0.3-1.2,0.4c-0.4,0.2-0.9,0.4-1.3,0.6c-0.4,0.2-0.7,0.5-1,0.8
				L240.5,143.2z M221.1,144c0.2,0.4,0.5,0.7,1,1c0.5,0.3,1.2,0.5,2,0.7s1.7,0.3,2.7,0.4c1,0.1,2,0.1,3.1,0.1c1.3,0,2.4-0.1,3.3-0.2
				c0.9-0.1,1.8-0.2,2.5-0.4c0.7-0.2,1.3-0.4,1.9-0.6c0.5-0.2,1-0.5,1.4-0.8L221.1,144z M267.2,143.5c-0.2-0.4-0.5-0.7-1.1-1
				c-0.6-0.3-1.4-0.5-2.3-0.7c-0.9-0.2-2-0.3-3.3-0.4c-1.2-0.1-2.6-0.1-4.1-0.1c-1.3,0-2.5,0.1-3.4,0.2c-1,0.1-1.8,0.3-2.5,0.5
				c-0.7,0.2-1.3,0.4-1.8,0.7c-0.5,0.3-1,0.5-1.4,0.8L267.2,143.5z"/>
		</g>
		
			<linearGradient id="SVGID_00000121239057941763000240000011976075550498415534_" gradientUnits="userSpaceOnUse" x1="-1810.3135" y1="554.2557" x2="-1808.0107" y2="573.5327" gradientTransform="matrix(-1 0 0 -1 -1562.751 706.39)">
			<stop  offset="3.597120e-03" style="stop-color:#F36F56"/>
			<stop  offset="0.3059" style="stop-color:#F99C4C"/>
			<stop  offset="0.545" style="stop-color:#FDB946"/>
			<stop  offset="0.6817" style="stop-color:#FFC444"/>
			<stop  offset="0.8038" style="stop-color:#FFC244"/>
			<stop  offset="0.8667" style="stop-color:#FEBA46"/>
			<stop  offset="0.916" style="stop-color:#FCAD49"/>
			<stop  offset="0.958" style="stop-color:#F99A4D"/>
			<stop  offset="0.9955" style="stop-color:#F58152"/>
			<stop  offset="1" style="stop-color:#F57E53"/>
		</linearGradient>
		<path style="fill:url(#SVGID_00000121239057941763000240000011976075550498415534_);" d="M246.3,135.6c-27.7,0-56.5,2.4-61.1,7.1
			c0.2,0.2,0.3,0.3,0.5,0.5c3.9-3.3,27.7-6.6,60.6-6.6c33.7,0,57.9,3.5,60.8,6.8c0.1-0.2,0.3-0.4,0.5-0.5
			C303.8,138.1,274.5,135.6,246.3,135.6z"/>
	</g>
	<g>
		
			<linearGradient id="SVGID_00000099645852161818090010000011623147919177019580_" gradientUnits="userSpaceOnUse" x1="165.9572" y1="139.2517" x2="308.6864" y2="139.2517">
			<stop  offset="0" style="stop-color:#FCB148"/>
			<stop  offset="5.207239e-02" style="stop-color:#FDBA46"/>
			<stop  offset="0.1424" style="stop-color:#FFC244"/>
			<stop  offset="0.3183" style="stop-color:#FFC444"/>
			<stop  offset="0.4849" style="stop-color:#FDB946"/>
			<stop  offset="0.7754" style="stop-color:#F99C4D"/>
			<stop  offset="0.8658" style="stop-color:#F8924F"/>
			<stop  offset="1" style="stop-color:#F8924F"/>
		</linearGradient>
		<path style="fill:url(#SVGID_00000099645852161818090010000011623147919177019580_);" d="M176.6,128.3v13.8c0,4.4,27.8,8.1,62,8.1
			c34.3,0,62-3.6,62-8.1v-13.8H176.6z"/>
		
			<linearGradient id="SVGID_00000030476303932776027830000006594997078048115387_" gradientUnits="userSpaceOnUse" x1="237.9777" y1="123.1738" x2="245.5023" y2="186.1653">
			<stop  offset="0" style="stop-color:#FFDB44"/>
			<stop  offset="1" style="stop-color:#FEEF06"/>
		</linearGradient>
		
			<ellipse style="fill:url(#SVGID_00000030476303932776027830000006594997078048115387_);" cx="238.6" cy="128.3" rx="62" ry="8.1"/>
		
			<linearGradient id="SVGID_00000049189490848613254000000012634466750034695311_" gradientUnits="userSpaceOnUse" x1="237.6505" y1="120.3647" x2="239.9614" y2="139.7103">
			<stop  offset="0" style="stop-color:#FFDB44"/>
			<stop  offset="1" style="stop-color:#FEEF06"/>
		</linearGradient>
		<path style="fill:url(#SVGID_00000049189490848613254000000012634466750034695311_);" d="M238.6,137c-30.3,0-62.1-2.9-62.1-8.5
			c0-0.3,0.1-0.8,0.4-0.8s0.2,0.4,0.2,0.7c0,3.5,25.2,7.5,61.5,7.5c36.2,0,61.5-3.9,61.5-7.5c0-0.3,0.1-0.6,0.4-0.6s0.2,0.4,0.2,0.7
			C300.7,134.1,268.9,137,238.6,137z"/>
		
			<linearGradient id="SVGID_00000157294237892379150140000006683502233012211132_" gradientUnits="userSpaceOnUse" x1="-1802.5739" y1="568.7078" x2="-1800.2711" y2="587.9849" gradientTransform="matrix(-1 0 0 -1 -1562.751 706.39)">
			<stop  offset="3.597120e-03" style="stop-color:#F36F56"/>
			<stop  offset="0.3059" style="stop-color:#F99C4C"/>
			<stop  offset="0.545" style="stop-color:#FDB946"/>
			<stop  offset="0.6817" style="stop-color:#FFC444"/>
			<stop  offset="0.8038" style="stop-color:#FFC244"/>
			<stop  offset="0.8667" style="stop-color:#FEBA46"/>
			<stop  offset="0.916" style="stop-color:#FCAD49"/>
			<stop  offset="0.958" style="stop-color:#F99A4D"/>
			<stop  offset="0.9955" style="stop-color:#F58152"/>
			<stop  offset="1" style="stop-color:#F57E53"/>
		</linearGradient>
		<path style="fill:url(#SVGID_00000157294237892379150140000006683502233012211132_);" d="M238.6,121.2c-27.7,0-56.5,2.4-61.1,7.1
			c0.2,0.2,0.3,0.3,0.5,0.5c3.9-3.3,27.7-6.6,60.6-6.6c33.7,0,57.9,3.5,60.8,6.8c0.1-0.2,0.3-0.4,0.5-0.5
			C296.1,123.7,266.8,121.2,238.6,121.2z"/>
	</g>
</g>
<g>
	<g>
		
			<linearGradient id="SVGID_00000045612424573102383880000000157295042105515698_" gradientUnits="userSpaceOnUse" x1="216.7435" y1="82.1084" x2="155.1011" y2="101.8913">
			<stop  offset="0" style="stop-color:#FCB148"/>
			<stop  offset="5.207239e-02" style="stop-color:#FDBA46"/>
			<stop  offset="0.1424" style="stop-color:#FFC244"/>
			<stop  offset="0.3183" style="stop-color:#FFC444"/>
			<stop  offset="0.4849" style="stop-color:#FDB946"/>
			<stop  offset="0.7754" style="stop-color:#F99C4D"/>
			<stop  offset="0.8658" style="stop-color:#F8924F"/>
			<stop  offset="1" style="stop-color:#F8924F"/>
		</linearGradient>
		<path style="fill:url(#SVGID_00000045612424573102383880000000157295042105515698_);" d="M287.7,79.9c0,28.6-22.4,51.1-50.9,50.2
			C207,129.2,182,103.5,182,72.7c0-30.7,25-53.1,54.8-50C265.3,25.8,287.7,51.3,287.7,79.9z"/>
		
			<linearGradient id="SVGID_00000176729458347426468750000014568815399292659349_" gradientUnits="userSpaceOnUse" x1="266.6085" y1="20.7497" x2="211.578" y2="142.1572">
			<stop  offset="0" style="stop-color:#FFDB44"/>
			<stop  offset="1" style="stop-color:#FEEF06"/>
		</linearGradient>
		<path style="fill:url(#SVGID_00000176729458347426468750000014568815399292659349_);" d="M295.4,77.4c0,28.6-22.4,51.1-50.9,50.2
			c-29.7-0.9-54.8-26.6-54.8-57.3c0-30.7,25-53.1,54.8-50C273.1,23.3,295.4,48.8,295.4,77.4z"/>
		
			<linearGradient id="SVGID_00000136371909816338786690000016806148008362349456_" gradientUnits="userSpaceOnUse" x1="256.4856" y1="148.9426" x2="245.8674" y2="90.9355">
			<stop  offset="0" style="stop-color:#FCB148"/>
			<stop  offset="5.207239e-02" style="stop-color:#FDBA46"/>
			<stop  offset="0.1424" style="stop-color:#FFC244"/>
			<stop  offset="0.3183" style="stop-color:#FFC444"/>
			<stop  offset="0.4849" style="stop-color:#FDB946"/>
			<stop  offset="0.7754" style="stop-color:#F99C4D"/>
			<stop  offset="0.8658" style="stop-color:#F8924F"/>
			<stop  offset="1" style="stop-color:#F8924F"/>
		</linearGradient>
		<path style="fill:url(#SVGID_00000136371909816338786690000016806148008362349456_);" d="M293.2,77.3c0,27.3-21.4,48.8-48.7,47.9
			c-28.4-0.9-52.2-25.4-52.2-54.7c0-29.3,23.8-50.6,52.2-47.7C271.8,25.6,293.2,49.9,293.2,77.3z"/>
		
			<linearGradient id="SVGID_00000080204636424950444020000006331597638271380101_" gradientUnits="userSpaceOnUse" x1="233.9729" y1="55.0518" x2="277.7321" y2="147.9442">
			<stop  offset="0" style="stop-color:#FCB148"/>
			<stop  offset="5.207239e-02" style="stop-color:#FDBA46"/>
			<stop  offset="0.1424" style="stop-color:#FFC244"/>
			<stop  offset="0.3183" style="stop-color:#FFC444"/>
			<stop  offset="0.4849" style="stop-color:#FDB946"/>
			<stop  offset="0.7754" style="stop-color:#F99C4D"/>
			<stop  offset="0.8658" style="stop-color:#F8924F"/>
			<stop  offset="1" style="stop-color:#F8924F"/>
		</linearGradient>
		<path style="fill:url(#SVGID_00000080204636424950444020000006331597638271380101_);" d="M291.6,77.1c0,26.4-20.7,47.2-47.1,46.3
			c-27.4-0.9-50.3-24.6-50.3-52.9s23-48.8,50.3-46.1C270.9,27.2,291.6,50.7,291.6,77.1z"/>
		
			<linearGradient id="SVGID_00000110451207849984389870000014917847670329440683_" gradientUnits="userSpaceOnUse" x1="221.0991" y1="61.0633" x2="264.77" y2="153.7684">
			<stop  offset="0" style="stop-color:#FCB148"/>
			<stop  offset="5.207239e-02" style="stop-color:#FDBA46"/>
			<stop  offset="0.1424" style="stop-color:#FFC244"/>
			<stop  offset="0.3183" style="stop-color:#FFC444"/>
			<stop  offset="0.4849" style="stop-color:#FDB946"/>
			<stop  offset="0.7754" style="stop-color:#F99C4D"/>
			<stop  offset="0.8658" style="stop-color:#F8924F"/>
			<stop  offset="1" style="stop-color:#F8924F"/>
		</linearGradient>
		<path style="opacity:0.3;fill:url(#SVGID_00000110451207849984389870000014917847670329440683_);" d="M236,83.6
			c1.6-15.7,16-22.4,14.1-36.8c-1.2-8.9-7.9-16.4-15.4-22.3c-22.8,2.4-40.5,21.3-40.5,46.1c0,28.3,23,51.9,50.3,52.9
			c2.7,0.1,5.3,0,7.8-0.4C241.4,112.2,234.6,97.1,236,83.6z"/>
	</g>
</g>
<g>
	<path class="st38" d="M49.3,139.8c0,0,42.5,76.2,91.2,104.3c16.6,9.6,30.8,13.2,42.5,13.9c24.2,1.4,39.7-23.2,28.2-44.9
		c-5.5-10.4-14.8-22-30.3-33.2C135.3,146.8,49.3,139.8,49.3,139.8"/>
	<path class="st39" d="M175.3,219.4c-3.3-2.1-6.5-4.2-9.8-6.3c0.8-13.8,1.6-27.7,2.3-41.5c-0.4-0.2-0.8-0.4-1.2-0.7
		c-0.8,13.8-1.6,27.6-2.3,41.4c-3.1-2-6.2-4-9.3-6c0.5-13.3,1.7-26.4,3.4-39.5c-0.4-0.2-0.8-0.4-1.2-0.5c-1.7,13-2.9,26.1-3.4,39.3
		l-8.9-5.8c1.1-12.5,2.1-25,3.2-37.5c-0.4-0.2-0.8-0.3-1.2-0.5c-1.1,12.4-2.1,24.8-3.2,37.2c-3.1-2-6.2-4-9.3-6
		c0-11.8,0.4-23.6,1.4-35.3c-0.4-0.1-0.8-0.3-1.2-0.4c-0.9,11.6-1.4,23.2-1.4,34.9c-3.2-2.1-6.4-4.1-9.6-6.2
		c0.1-10.6,0.7-21.1,1.7-31.6c-0.4-0.1-0.8-0.2-1.2-0.4c-1,10.3-1.6,20.7-1.7,31.2c-2.6-1.7-5.2-3.4-7.8-5.1
		c-0.3-9.6-0.1-19.1,0.5-28.7c-0.4-0.1-0.8-0.2-1.2-0.3c-0.6,9.4-0.8,18.7-0.5,28.2c-3.2-2.1-6.4-4.1-9.6-6.2
		c-1-8.2-1.2-16.4-0.4-24.6c-0.4-0.1-0.8-0.2-1.2-0.3c-0.7,7.9-0.6,16,0.3,24l-3.3-2.1c-0.1-0.2-0.3-0.4-0.6-0.4
		c-0.8-0.5-1.6-1-2.4-1.5c-1.4-7.1-1.4-14.3-0.2-21.3c-0.4-0.1-0.8-0.2-1.2-0.3c-1.2,6.8-1.2,13.8,0,20.7c-2.4-1.5-4.8-3.1-7.2-4.6
		c-0.6-5.9-0.9-11.8-0.6-17.6c-0.4-0.1-0.8-0.2-1.2-0.2c-0.2,5.6,0,11.3,0.5,17l-6.7-4.3c0.2-3.9,0.4-7.8,0.6-11.7
		c0-0.6,0.1-1.3,0.1-1.9c-0.4-0.1-0.8-0.1-1.2-0.2c0,1-0.1,1.9-0.2,2.9l-0.5,10.2l-5.6-3.6c-0.4-3.5-0.7-7.1-0.9-10.6
		c-0.4-0.1-0.8-0.1-1.2-0.2c0.1,3.3,0.4,6.6,0.8,10c-2.2-1.4-4.4-2.8-6.6-4.2c-0.2-2.2-0.3-4.4-0.3-6.6c-0.4-0.1-0.8-0.1-1.2-0.2
		c0,2,0.1,3.9,0.2,5.9c-1.3-0.9-2.6-1.7-4-2.6c-0.1-1.3-0.3-2.6-0.4-3.9c-0.4-0.1-0.8-0.1-1.2-0.2l0.3,3.2c-2-1.3-3.9-2.5-5.9-3.8
		c-2-0.2-3-0.3-3-0.3s0.5,0.9,1.5,2.6l6.6,4.3c-1.3,0.1-2.5,0.2-3.8,0.5c0.2,0.4,0.4,0.7,0.7,1.1c1.6-0.3,3.2-0.4,4.9-0.4
		c1.5,1,3.1,2,4.6,3c-2.5,0.1-4.9,0.5-7.3,1c0.2,0.4,0.5,0.7,0.7,1.1c2.5-0.6,5.1-0.9,7.8-1c0.2,0,0.3-0.1,0.4-0.2
		c2.8,1.8,5.7,3.6,8.5,5.5c-4.2,0.5-8.4,1.2-12.6,2c0.2,0.4,0.5,0.7,0.7,1.1c4.4-0.9,8.9-1.6,13.4-2.1c2.5,1.6,5.1,3.3,7.6,4.9
		c-5.8,0.8-11.5,1.8-17.3,2.9c0.2,0.4,0.5,0.7,0.8,1.1c6-1.2,12-2.2,18.1-3c3.1,2,6.2,4,9.3,6c-7.7,0.8-15.4,2-23,3.4
		c0.3,0.4,0.5,0.7,0.8,1.1c7.9-1.5,15.8-2.6,23.8-3.4c2.1,1.3,4.1,2.7,6.2,4c-8.2,2.3-16.3,4.6-24.5,7c0.3,0.4,0.5,0.7,0.8,1.1
		c8.4-2.4,16.7-4.8,25.1-7.1c4,2.6,8,5.1,12,7.7c-10.9,1.2-21.8,3.1-32.4,5.5c0.3,0.4,0.6,0.7,0.8,1.1c10.9-2.4,22-4.3,33.2-5.5
		c3.6,2.4,7.3,4.7,10.9,7.1c-11.8,3.1-23.5,6.2-35.3,9.3c0.3,0.3,0.6,0.7,0.9,1c11.9-3.1,23.9-6.3,35.8-9.4c1.4,0.9,2.8,1.8,4.2,2.7
		c1.7,1.1,3.4,2.2,5.1,3.3c-12.8,3.7-25.6,7.3-38.4,11c0.3,0.3,0.6,0.7,0.9,1c12.9-3.7,25.9-7.4,38.8-11.1c2.6,1.7,5.2,3.4,7.8,5.1
		c-12.6,5-25.3,10-37.9,15c0.3,0.3,0.7,0.6,1,1l38-15.1c0.1,0,0.1-0.1,0.2-0.1c3.7,2.4,7.5,4.8,11.2,7.2
		c-13.9,5-27.7,10.1-41.6,15.1c0.4,0.3,0.7,0.6,1.1,0.9c13.9-5.1,27.9-10.1,41.8-15.2c2.8,1.8,5.6,3.6,8.4,5.4
		c-12.8,6.4-25.5,12.7-38.3,19.1c0.4,0.3,0.8,0.5,1.2,0.8c12.8-6.4,25.6-12.8,38.3-19.1c3,1.9,6,3.8,8.9,5.8
		c-11.5,7.5-23.4,14.3-35.8,20.4c0.5,0.2,0.9,0.5,1.4,0.7c12.3-6.1,24.1-12.9,35.6-20.4c4.8,3.1,9.7,6.2,14.5,9.3
		c-10.3,6.7-20.9,12.9-31.8,18.6c0.6,0.2,1.2,0.3,1.7,0.5c10.7-5.6,21-11.7,31-18.3c0.1,0,0.1-0.1,0.1-0.1c2,1.3,4.1,2.6,6.1,3.9
		c-7.9,5.7-15.9,11.5-23.8,17.2c0.6,0.1,1.3,0.1,1.9,0.2c7.7-5.5,15.4-11.1,23-16.6c2,1.3,4,2.6,6,3.9c0.5-0.8,1-1.6,1.5-2.4
		c-0.6-0.4-1.1-0.7-1.7-1.1c0.9-8.6,1.8-17.3,2.8-25.9c-0.3-0.7-0.6-1.5-1-2.2l-2.9,27.3c-1.8-1.2-3.6-2.3-5.4-3.5
		c1.1-10.8,2.1-21.6,3.2-32.4c-0.4-0.5-0.7-1-1.1-1.5c-1.1,11.1-2.2,22.1-3.3,33.2c-2.8-1.8-5.6-3.6-8.4-5.4
		c1.4-12.2,2.8-24.4,4.3-36.6c-0.4-0.4-0.7-0.8-1.1-1.2c-1.4,12.4-2.9,24.7-4.3,37.1c-2.4-1.6-4.9-3.1-7.3-4.7
		c-0.1,0-0.1-0.1-0.2-0.1c0.9-13.1,2.4-26.1,4.6-39c-0.4-0.3-0.7-0.6-1.1-0.9c-2.3,12.9-3.8,26-4.7,39.2c-0.3-0.2-0.6-0.4-0.9-0.6
		c-0.1-0.1-0.1-0.1-0.2-0.1c-2-1.3-4.1-2.6-6.1-3.9c-0.1-14.2,0.4-28.3,1.6-42.3c-0.4-0.3-0.8-0.5-1.2-0.8
		C175.8,191.2,175.2,205.3,175.3,219.4"/>
</g>
<g>
	<path class="st40" d="M356.6,239.9c1.4-5.3,1.8-8.4,9.1-6.8c7.3,1.6,7.7-3.5,9.1-8.8s6.2-8.9,18-9.3c11.8-0.4,10.2-7.2,12.6-12.5
		c2.4-5.2,3.3-6.3,11.7-8.1c8.4-1.8,8-8.6,7.3-15.7c-0.6-7.1,17.7-22.3,17.7-22.3s-10.3-3.9-21.5,3s-9.4-4.5-21.4-1.4
		c-12,3-9.5,13.1-18.7,9.6c-9.2-3.6-17.1-4.1-25.4,6.9c-8.3,10.9-18,1.3-25.8,7.6s0.8,15-8.3,16.8c-9.2,1.7-14,0.3-14,9.6
		c0,9.2-12.3,6.6-14.4,18.1c-0.1,0.4-0.1,0.9-0.2,1.4c-1.5,13.2,10.3,25.7,24.2,25.3c3.2-0.1,5.8-0.8,7.3-2.6c6-7.1,0.6,2.4,8.4,7.4
		C340.1,262.8,355.1,245.2,356.6,239.9"/>
	<path class="st39" d="M392,203.3c-3.6-2.9-7.6-5.3-11.8-7.1c4.6-2.7,9.1-5.5,13.5-8.5c1.5-1,3.1-2.1,4.6-3.2c0.1,0,0.2,0,0.2,0
		c4.1-0.6,8.2-0.4,12.4,0.4c0.9,0.2,1.1-1.1,0.2-1.3c-3.6-0.7-7.2-0.9-10.7-0.6c9.6-6.8,18.7-14.1,27.9-21.3
		c0.6-0.5-0.2-1.6-0.8-1.1c-8.8,6.9-17.6,13.9-26.7,20.4c0.5-3.5,0.5-7.1,0-10.8c-0.1-0.8-1.5-0.8-1.3,0c0.6,4,0.6,7.9-0.2,11.7
		c0,0.1,0,0.1,0,0.2c-0.7,0.5-1.5,1.1-2.2,1.6c-5.9,4.1-12,8-18.2,11.7c-0.3-4.7-1-9.4-2.1-14.1c-0.2-0.8-1.5-0.8-1.3,0
		c1.2,4.9,1.9,9.9,2.1,14.9c-4.4,2.5-8.8,5-13.3,7.4c-4.9,2.6-9.8,5.1-14.7,7.6c0.2-4.6,0.1-9.3-0.3-13.9c-0.1-0.8-1.4-0.8-1.3,0
		c0.5,4.8,0.6,9.5,0.3,14.3c0,0.1,0,0.2,0.1,0.3c-6.1,3.1-12.1,6.1-18.1,9.3c-1.1,0.6-2.3,1.2-3.4,1.8c-0.1-3.7-0.7-7.4-1.7-11.1
		c-0.2-0.8-1.5-0.5-1.3,0.3c1.1,3.7,1.6,7.4,1.7,11.2c0,0.1,0,0.1,0,0.2c-9.4,5.1-15.1,8.2-23.8,14.4c-10.5,7.4,2.4-0.1,7.4-3.3
		c5.4-3.4,11-6.7,16.7-9.7c0,0,0,0,0.1,0c4.2,2.5,8.2,5.3,11.9,8.4c0.7,0.6,1.5-0.4,0.8-0.9c-3.6-3-7.4-5.7-11.5-8.1
		c7.4-4,14.8-7.7,22.3-11.5c4.4,2.7,8.9,5.3,13.3,8c0.8,0.5,1.3-0.7,0.5-1.1c-4.2-2.5-8.4-5-12.5-7.5c9.5-4.8,18.9-9.7,28.1-15
		c4.4,1.9,8.5,4.3,12.3,7.3C391.9,204.8,392.7,203.8,392,203.3"/>
	<path class="st39" d="M404.5,166.5c0,0.6,0.1,1.2,0.1,1.8c0,0.5,0.4,1,1,1.1c0.5,0.1,1.1-0.3,1.1-0.8c0-0.6-0.1-1.2-0.1-1.8
		c0-0.5-0.4-1-1-1.1C405.1,165.6,404.5,165.9,404.5,166.5"/>
	<path class="st39" d="M410,167c-0.4,0.5-0.8,0.9-1.1,1.4c-0.3,0.4-0.1,1.1,0.3,1.4c0.5,0.3,1.1,0.2,1.4-0.2
		c0.4-0.5,0.8-0.9,1.1-1.4c0.3-0.4,0.1-1.1-0.3-1.4C410.9,166.5,410.3,166.6,410,167"/>
	<path class="st39" d="M399.1,164.3l0.1,2.1c0,0.5,0.4,1,1,1.1c0.5,0.1,1.1-0.3,1.1-0.8l-0.1-2.1c0-0.5-0.4-1-1-1.1
		C399.7,163.4,399.1,163.7,399.1,164.3"/>
	<path class="st39" d="M414.7,178c-0.4,0.3-0.9,0.5-1.3,0.8s-0.4,1-0.1,1.4c0.4,0.4,1,0.5,1.4,0.2s0.9-0.5,1.3-0.8s0.4-1,0.1-1.4
		C415.7,177.8,415.1,177.7,414.7,178"/>
	<path class="st39" d="M417,184.5c-0.1,0-0.3,0-0.4,0.1c-0.1,0-0.1,0-0.2,0c0.1,0,0.1,0,0,0s-0.2,0-0.4,0c0,0-0.4-0.1-0.3,0
		c-0.5-0.1-1.1,0-1.3,0.5c-0.1,0.4,0.1,1.1,0.7,1.3c0.8,0.2,1.5,0.3,2.3,0.2c0.5-0.1,0.9-0.5,0.8-1.1
		C418.1,184.8,417.5,184.4,417,184.5"/>
	<path class="st39" d="M413.5,188.8c-0.5-0.4-1.1-0.9-1.6-1.3c-0.4-0.4-1.1-0.2-1.4,0.2c-0.3,0.5-0.1,1,0.3,1.4
		c0.5,0.4,1.1,0.9,1.6,1.3c0.4,0.4,1.1,0.2,1.4-0.2C414.1,189.7,414,189.1,413.5,188.8"/>
	<path class="st39" d="M368.4,177.2c0.6,0.4,1.2,0.9,1.7,1.3c0.5,0.3,1.1,0.2,1.4-0.2s0.1-1-0.3-1.4l-1.7-1.3
		c-0.5-0.3-1.1-0.2-1.4,0.2C367.8,176.2,368,176.8,368.4,177.2"/>
	<path class="st39" d="M374,174.2c0.1,0.7,0.3,1.4,0.4,2.1c0.3,1.3,2.2,1,2-0.2c-0.1-0.7-0.3-1.4-0.4-2.1
		C375.7,172.7,373.7,173,374,174.2"/>
	<path class="st39" d="M381,175.8c-0.5,0.4-0.9,0.9-1.1,1.5c-0.2,0.5,0.1,1.1,0.7,1.3c0.5,0.2,1.1,0,1.3-0.5c0,0,0.2-0.3,0.1-0.2
		c0.1-0.1,0.1-0.2,0.2-0.3l0.1-0.1c-0.1,0.1-0.1,0.1,0,0s0.2-0.1,0.3-0.2c0.4-0.3,0.4-1,0.1-1.4C382,175.6,381.4,175.5,381,175.8"/>
	<path class="st39" d="M383.8,180.6c-0.4,0.2-0.7,0.5-1.1,0.7c-0.4,0.3-0.4,1-0.1,1.4c0.4,0.4,1,0.5,1.4,0.2
		c0.4-0.2,0.7-0.5,1.1-0.7c0.4-0.3,0.4-1,0.1-1.4C384.9,180.4,384.3,180.3,383.8,180.6"/>
	<path class="st39" d="M392.8,198.7c-0.3,0.3-0.5,0.7-0.8,1c-0.3,0.4-0.1,1.1,0.3,1.4c0.5,0.3,1.1,0.2,1.4-0.2
		c0.3-0.3,0.5-0.7,0.8-1c0.3-0.4,0.1-1.1-0.3-1.4C393.7,198.2,393.1,198.3,392.8,198.7"/>
	<path class="st39" d="M397.4,204.2c-0.6-0.1-1.2-0.2-1.8-0.3c-0.5-0.1-1.1,0.3-1.1,0.8c0,0.6,0.4,1,1,1.1s1.2,0.2,1.8,0.3
		c0.5,0.1,1.1-0.3,1.1-0.8S398,204.3,397.4,204.2"/>
	<path class="st39" d="M394,209.4c-0.3-0.6-0.6-1.3-0.9-1.9c-0.2-0.5-0.9-0.7-1.4-0.5s-0.7,0.8-0.4,1.3c0.3,0.6,0.6,1.3,0.9,1.9
		c0.2,0.5,0.9,0.7,1.4,0.5C394.1,210.4,394.2,209.9,394,209.4"/>
	<path class="st39" d="M386.8,207.1c0,0.7,0.1,1.4,0.1,2.1c0,0.5,0.4,1,1,1.1c0.5,0.1,1.1-0.3,1.1-0.8l-0.1-2.1c0-0.5-0.4-1-1-1.1
		C387.4,206.2,386.8,206.5,386.8,207.1"/>
	<path class="st39" d="M343.1,196.5c-0.6-0.5-1.2-0.9-1.8-1.4c-0.4-0.3-1.1-0.2-1.4,0.2s-0.1,1,0.3,1.4c0.6,0.5,1.2,0.9,1.8,1.4
		c0.4,0.4,1.1,0.2,1.4-0.2C343.7,197.4,343.6,196.8,343.1,196.5"/>
	<path class="st39" d="M344.9,190.3c-0.7-0.9-1.5-1.9-2.2-2.8c-0.8-1-2.3,0.1-1.5,1.2c0.7,0.9,1.5,1.9,2.2,2.8
		C344.2,192.5,345.7,191.3,344.9,190.3"/>
	<path class="st39" d="M348.4,187.9c0,0.9,0,1.9,0,2.8c0,1.3,2,1.5,2,0.3c0-0.9,0-1.9,0-2.8C350.4,186.9,348.4,186.7,348.4,187.9"/>
	<path class="st39" d="M355.5,191.3l-0.9,1.2c-0.3,0.4-0.1,1.1,0.3,1.4c0.5,0.3,1.1,0.2,1.4-0.2s0.6-0.8,0.9-1.1
		c0.3-0.4,0.1-1.1-0.3-1.4C356.4,190.8,355.8,190.9,355.5,191.3"/>
	<path class="st39" d="M356.8,198.2c-0.7,0.3-1.4,0.6-2.1,0.8c-1.2,0.5-0.2,2.3,0.9,1.8c0.7-0.3,1.4-0.6,2.1-0.8
		C358.9,199.6,358,197.7,356.8,198.2"/>
	<path class="st39" d="M362.7,212.7c-0.5,0.4-0.9,0.8-1.4,1.2c-0.4,0.3-0.4,0.9-0.1,1.4c0.4,0.4,1.1,0.5,1.4,0.2
		c0.5-0.4,0.9-0.8,1.4-1.2c0.4-0.3,0.4-0.9,0.1-1.4C363.8,212.5,363.1,212.4,362.7,212.7"/>
	<path class="st39" d="M371.3,215.9c-0.9,0.4-1.9,0.8-2.8,1.2c-1.2,0.5-0.2,2.3,0.9,1.8c0.9-0.4,1.9-0.8,2.8-1.2
		C373.4,217.3,372.4,215.4,371.3,215.9"/>
	<path class="st39" d="M369.2,223.7c-0.9-0.7-1.8-1.4-2.7-2.1c-1.1-0.8-2.1,0.7-1.1,1.5c0.9,0.7,1.8,1.4,2.7,2.1
		C369.2,226.1,370.3,224.5,369.2,223.7"/>
	<path class="st39" d="M363.4,227.9c-0.5-0.9-0.9-1.8-1.4-2.6c-0.6-1.2-2.4-0.4-1.8,0.7c0.5,0.9,0.9,1.8,1.4,2.6
		C362.2,229.8,364,229.1,363.4,227.9"/>
	<path class="st39" d="M357.1,227.3c-0.2-1.4-0.7-2.8-1.3-4.2c-0.6-1.2-2.4-0.5-1.8,0.7s0.9,2.4,1.1,3.6
		C355.3,228.8,357.3,228.6,357.1,227.3"/>
	<path class="st39" d="M318.3,212.8c-1-0.4-2-0.8-3-1.2c-1.2-0.5-1.9,1.3-0.6,1.8c1,0.4,2,0.8,3,1.2
		C318.9,215.1,319.5,213.3,318.3,212.8"/>
	<path class="st39" d="M316.6,207.8c0.6,0.7,1.1,1.4,1.7,2.1c0.3,0.4,1.1,0.5,1.4,0.2c0.4-0.3,0.4-0.9,0.1-1.4
		c-0.6-0.7-1.1-1.4-1.7-2.1c-0.3-0.4-1.1-0.5-1.4-0.2C316.3,206.8,316.3,207.4,316.6,207.8"/>
	<path class="st39" d="M321.5,202.9c0.4,0.7,0.8,1.5,1.1,2.2c0.6,1.2,1.3-1.8,0.7-2.9c-0.4-0.7,0.4,0.7,0,0
		C322.7,201,320.9,201.7,321.5,202.9"/>
	<path class="st39" d="M329.8,206.2c-0.2,0.6-0.5,1.3-0.7,1.9c-0.2,0.5,0.1,1.1,0.7,1.3c0.5,0.2,1.1,0,1.3-0.5
		c0.2-0.6,0.5-1.3,0.7-1.9c0.2-0.5-0.1-1.1-0.7-1.3C330.5,205.5,330,205.7,329.8,206.2"/>
	<path class="st39" d="M330.9,212.4c-0.5,0.3-1,0.7-1.5,1c-0.4,0.3-0.4,1-0.1,1.4c0.4,0.4,1,0.5,1.4,0.2c0.5-0.3,1-0.7,1.5-1
		c0.4-0.3,0.4-1,0.1-1.4C332,212.1,331.3,212.1,330.9,212.4"/>
	<path class="st39" d="M338.5,224.6c-0.8,0.1-1.6,0.2-2.4,0.3c-1.3,0.2-0.9,2.1,0.4,1.9c0.8-0.1,1.6-0.2,2.4-0.3
		C340.2,226.4,339.8,224.5,338.5,224.6"/>
	<path class="st39" d="M343.4,228.7c-0.8,0.2-1.6,0.2-2.4,0.2c-1.3-0.1-1.4,1.8-0.1,1.9c1,0.1,2,0.1,3-0.2c0.5-0.1,0.9-0.5,0.8-1.1
		C344.5,229.1,343.9,228.6,343.4,228.7"/>
	<path class="st39" d="M345.8,235.7c-1-0.5-2-1.1-2.9-1.8c-0.4-0.4-1.1-0.2-1.4,0.2c-0.3,0.5-0.1,1,0.3,1.4c1,0.9,2.1,1.6,3.3,2.1
		C346.4,238,347,236.2,345.8,235.7"/>
	<path class="st39" d="M341.8,239.8c-0.7-1-1.3-1.9-2-2.9c-0.3-0.5-1.1-0.5-1.4-0.2c-0.4,0.3-0.4,0.9-0.1,1.4c0.7,1,1.3,1.9,2,2.9
		c0.3,0.5,1.1,0.5,1.4,0.2C342.2,240.8,342.1,240.2,341.8,239.8"/>
	<path class="st39" d="M334.9,238.2c-0.5-2-1-4-1.5-6c-0.3-1.2-2.3-1-2,0.2c0.5,2,1,4,1.5,6C333.2,239.7,335.2,239.5,334.9,238.2"/>
	<path class="st39" d="M328.7,232.8c-0.4-0.8-0.8-1.6-1.3-2.4c-0.6-1.2-2.4-0.4-1.8,0.7c0.4,0.8,0.8,1.6,1.3,2.4
		C327.5,234.8,329.3,234,328.7,232.8"/>
</g>
<path class="st40" d="M32.6,249.3l8.9-31v-0.1c1.9-6.3,10.1-6.4,12.5-0.3l4.8,6.6c0,0,2.8-31.8,14.3-32.6
	c11.5-0.7,13.3,10.1,13.3,10.1s1.8-22,14.6-22.3c12.7-0.4,16,16.3,16,16.3c2.1-18.5,21.7-17.1,27.4-2.2c6,15.2,6.7,18,6.7,18
	l3.1-18.5c6.6-34.3,35-31.8,45.3-13.4c3.7,3.2,1.5,15.4,8,15.4c10.4,0,17.4,16.6,17.7,25.2c0.3,8.6,5.7,20.7,20.2,7
	c14.6-13.7,27.2,21.8,27.2,21.8H32.6z"/>
<g>
	<path class="st39" d="M363.8,184.6c-0.9-5.7-1.8-8.9,5.2-11.2s5.3-7.4,4.4-13.1c-0.9-5.7,1.8-11.7,11.9-18.3s6-12.2,6-18.5
		c0-6.2,0.3-7.7,7-13.9c6.7-6.1,3.5-12.4,0.1-18.8c-3.4-6.4,6.5-30.5,6.5-30.5s-10.6,1.8-17.6,14.2s-10,0.7-19.3,9.9
		s-3,17.5-12.5,18.9s-16.6,5.2-19.5,19.9c-2.8,14.7-15.2,10.7-19.5,20.8c-4.3,10.1,6.8,13.8-0.5,20.3s-12.1,7.7-8.4,16.4
		c3.7,8.8-8.1,12.8-5.4,24.7c0.1,0.4,0.2,0.9,0.4,1.4c4,13.3,19.4,19,31.3,11.2c2.7-1.8,4.8-3.9,5.4-6.3c2.4-9.9,3.6-9.5,12.4-9
		C360.7,203.5,364.7,190.4,363.8,184.6"/>
	<path class="st38" d="M380.1,131.2c-4.3-0.8-8.7-1-13.2-0.6c2.9-5,5.7-10,8.4-15.2c0.9-1.8,1.8-3.6,2.7-5.4c0.1,0,0.1-0.1,0.2-0.1
		c3.3-2.7,7-4.8,11-6.2c0.8-0.3,0.5-1.6-0.3-1.3c-3.4,1.2-6.6,2.9-9.6,5c5.6-11.5,10.7-23.2,15.8-34.9c0.4-0.8-0.8-1.5-1.2-0.6
		c-4.9,11.2-9.8,22.4-15.1,33.4c-1-3.6-2.4-7.1-4.4-10.2c-0.5-0.7-1.6,0-1.2,0.7c2.1,3.4,3.7,7.2,4.6,11.2c0,0.1,0,0.1,0.1,0.2
		c-0.4,0.9-0.9,1.8-1.3,2.7c-3.5,7-7.2,13.9-11.2,20.7c-2.1-4.3-4.6-8.4-7.5-12.3c-0.5-0.7-1.7,0-1.2,0.7c3,4.1,5.6,8.4,7.8,13
		c-2.8,4.7-5.7,9.4-8.6,14c-3.2,5-6.5,10-9.9,14.9c-1.7-4.5-3.6-8.9-5.9-13c-0.4-0.8-1.6,0-1.2,0.7c2.3,4.3,4.3,8.8,6,13.4
		c0,0.1,0.1,0.2,0.2,0.3c-4.1,6.1-8.2,12.2-12.1,18.3c-0.8,1.2-1.5,2.3-2.2,3.5c-1.6-3.5-3.6-6.7-6-9.6c-0.5-0.7-1.5,0.3-1,1
		c2.4,3,4.4,6.2,6,9.7c0,0.1,0.1,0.1,0.1,0.2c-6.2,9.8-9.9,15.7-15,26.1c-6.2,12.5,2.1-1.3,5.2-7c3.4-6.1,7-12.1,10.7-18
		c0,0,0,0,0-0.1c4.7,0.1,9.3,0.7,13.8,1.7c0.8,0.2,1.2-1.2,0.4-1.3c-4.4-1-8.8-1.5-13.3-1.7c4.8-7.6,9.9-15.2,14.9-22.7
		c5,0.2,9.9,0.4,14.9,0.6c0.9,0,0.9-1.3,0-1.4c-4.7-0.2-9.3-0.4-14-0.5c6.4-9.6,12.7-19.1,18.5-29c4.6-0.5,9.2-0.4,13.7,0.4
		C380.5,132.6,380.9,131.3,380.1,131.2"/>
	<path class="st38" d="M376.2,89.7c0.3,0.5,0.6,1.1,0.8,1.6c0.2,0.5,0.7,0.8,1.3,0.5c0.5-0.2,0.8-0.9,0.6-1.3
		c-0.3-0.5-0.6-1.1-0.8-1.6c-0.2-0.5-0.7-0.8-1.3-0.5C376.3,88.5,375.9,89.2,376.2,89.7"/>
	<path class="st38" d="M381.2,87.3c-0.1,0.6-0.3,1.3-0.4,1.9c-0.1,0.5,0.3,1.1,0.8,1.1c0.6,0.1,1-0.4,1.2-0.9
		c0.1-0.6,0.3-1.3,0.4-1.9c0.1-0.5-0.3-1.1-0.8-1.1C381.8,86.3,381.3,86.7,381.2,87.3"/>
	<path class="st38" d="M370.6,90.4l1,1.9c0.2,0.5,0.7,0.8,1.3,0.5c0.5-0.2,0.8-0.9,0.6-1.3l-1-1.9c-0.2-0.5-0.7-0.8-1.3-0.5
		C370.7,89.3,370.3,89.9,370.6,90.4"/>
	<path class="st38" d="M389.7,95.3c-0.3,0.5-0.6,1-0.8,1.4c-0.3,0.5,0,1.2,0.5,1.3c0.6,0.2,1-0.1,1.3-0.6s0.6-1,0.8-1.4
		c0.3-0.5,0-1.2-0.5-1.3C390.5,94.5,390,94.8,389.7,95.3"/>
	<path class="st38" d="M394.3,100.2c-0.1,0.1-0.2,0.2-0.3,0.3c-0.1,0-0.1,0.1-0.2,0.1c0.1,0,0.1,0,0,0c-0.1,0.1-0.2,0.1-0.3,0.2
		c0,0-0.4,0.1-0.2,0.1c-0.5,0.1-1,0.6-0.9,1.2c0.1,0.5,0.5,1,1.1,0.9c0.8-0.2,1.4-0.5,2.1-1.1c0.4-0.4,0.6-1,0.2-1.4
		C395.4,99.9,394.7,99.8,394.3,100.2"/>
	<path class="st38" d="M393,106.1c-0.7-0.1-1.3-0.3-2-0.4c-0.5-0.1-1.1,0.4-1.2,0.9c-0.1,0.6,0.3,1,0.8,1.1c0.7,0.1,1.3,0.3,2,0.4
		c0.5,0.1,1.1-0.4,1.2-0.9C393.9,106.6,393.5,106.2,393,106.1"/>
	<path class="st38" d="M349,118.8c0.7,0.1,1.4,0.2,2,0.3c0.5,0.1,1.1-0.4,1.2-0.9c0.1-0.6-0.3-1.1-0.8-1.1l-2-0.3
		c-0.5-0.1-1.1,0.4-1.2,0.9C348,118.3,348.4,118.7,349,118.8"/>
	<path class="st38" d="M352.6,113.1c0.4,0.6,0.8,1.2,1.2,1.8c0.7,1.1,2.4-0.2,1.6-1.3c-0.4-0.6-0.8-1.2-1.2-1.8
		C353.5,110.8,351.9,112,352.6,113.1"/>
	<path class="st38" d="M359.3,110.9c-0.3,0.6-0.4,1.4-0.4,2.1c0,0.5,0.6,1,1.1,0.9s1-0.6,0.9-1.2c0,0,0-0.4,0-0.2c0-0.1,0-0.2,0-0.4
		c0-0.1,0-0.1,0-0.2c0,0.1,0,0.1,0,0s0.1-0.2,0.1-0.3c0.2-0.5,0-1.2-0.5-1.3C360.1,110.1,359.6,110.4,359.3,110.9"/>
	<path class="st38" d="M363.8,114c-0.2,0.4-0.4,0.8-0.7,1.2c-0.3,0.5,0,1.2,0.5,1.3c0.5,0.2,1.1-0.1,1.3-0.6
		c0.2-0.4,0.4-0.8,0.7-1.2c0.3-0.5,0-1.2-0.5-1.3C364.6,113.2,364.1,113.5,363.8,114"/>
	<path class="st38" d="M378.9,126.4c-0.1,0.5-0.2,0.9-0.3,1.4c-0.1,0.5,0.3,1.1,0.8,1.1c0.6,0,1-0.3,1.2-0.9
		c0.1-0.5,0.2-0.9,0.3-1.4c0.1-0.5-0.3-1.1-0.8-1.1C379.4,125.4,379,125.8,378.9,126.4"/>
	<path class="st38" d="M385.2,129.2c-0.6,0.2-1.1,0.4-1.7,0.6c-0.5,0.2-0.8,0.9-0.6,1.3c0.2,0.5,0.8,0.7,1.3,0.5
		c0.6-0.2,1.1-0.4,1.7-0.6c0.5-0.2,0.8-0.9,0.6-1.3C386.2,129.3,385.7,129,385.2,129.2"/>
	<path class="st38" d="M384.2,135.9c-0.5-0.5-1-0.9-1.5-1.4c-0.4-0.4-1.1-0.2-1.4,0.2c-0.4,0.5-0.3,1.1,0.1,1.4
		c0.5,0.5,1,0.9,1.5,1.4c0.4,0.4,1.1,0.2,1.4-0.2C384.7,136.9,384.6,136.2,384.2,135.9"/>
	<path class="st38" d="M377,137.5c0.3,0.6,0.6,1.3,1,1.9c0.2,0.5,0.7,0.8,1.3,0.5c0.5-0.2,0.8-0.9,0.6-1.3l-1-1.9
		c-0.2-0.5-0.7-0.8-1.3-0.5C377.2,136.4,376.8,137,377,137.5"/>
	<path class="st38" d="M334.6,150.5c-0.7-0.1-1.4-0.3-2.1-0.4c-0.5-0.1-1.1,0.4-1.2,0.9c-0.1,0.6,0.3,1,0.8,1.1
		c0.7,0.1,1.4,0.3,2.1,0.4c0.5,0.1,1.1-0.4,1.2-0.9S335.1,150.6,334.6,150.5"/>
	<path class="st38" d="M333.7,143.7c-1-0.5-2.1-1-3.1-1.5c-1.1-0.6-2,1.4-0.8,1.9c1,0.5,2.1,1,3.1,1.5
		C334,146.1,334.8,144.2,333.7,143.7"/>
	<path class="st38" d="M335.7,139.6c0.4,0.9,0.8,1.8,1.2,2.6c0.5,1.2,2.4,0.4,1.9-0.8c-0.4-0.9-0.8-1.8-1.1-2.6
		C337.1,137.6,335.2,138.4,335.7,139.6"/>
	<path class="st38" d="M343.3,139.1l-0.3,1.5c-0.1,0.5,0.3,1.1,0.8,1.1c0.6,0,1-0.3,1.2-0.9c0.1-0.5,0.2-1,0.3-1.5
		c0.1-0.5-0.3-1.1-0.8-1.1C343.9,138.1,343.4,138.5,343.3,139.1"/>
	<path class="st38" d="M347.3,144.9c-0.5,0.6-1,1.3-1.5,1.9c-0.8,1.1,0.7,2.3,1.5,1.2c0.5-0.6,1-1.3,1.5-1.9
		C349.6,145.1,348.1,143.8,347.3,144.9"/>
	<path class="st38" d="M358.2,155.6c-0.2,0.6-0.5,1.2-0.7,1.9c-0.2,0.5,0,1.1,0.5,1.3s1.1-0.1,1.3-0.6c0.2-0.6,0.5-1.2,0.7-1.9
		c0.2-0.5,0-1.1-0.5-1.3C359.1,154.8,358.4,155.1,358.2,155.6"/>
	<path class="st38" d="M367,154.1c-0.7,0.9-1.3,1.7-2,2.6c-0.8,1.1,0.7,2.3,1.5,1.2c0.7-0.9,1.3-1.7,2-2.6
		C369.4,154.3,367.8,153,367,154.1"/>
	<path class="st38" d="M368.3,162.6c-1.1-0.2-2.1-0.4-3.2-0.6c-1.3-0.2-1.6,1.8-0.3,2c1.1,0.2,2.1,0.4,3.2,0.6
		C369.3,164.8,369.6,162.8,368.3,162.6"/>
	<path class="st38" d="M364.9,169.7c-0.8-0.6-1.5-1.2-2.3-1.8c-1-0.8-2.3,0.9-1.3,1.6c0.8,0.6,1.5,1.2,2.3,1.8
		C364.6,172.1,365.9,170.5,364.9,169.7"/>
	<path class="st38" d="M359.2,172.4c-0.8-1.2-1.7-2.3-2.8-3.3c-1-0.8-2.2,0.8-1.3,1.6c1,0.8,1.8,1.8,2.4,2.9
		C358.2,174.8,359.8,173.5,359.2,172.4"/>
	<path class="st38" d="M319.4,179.1c-1,0.1-2.1,0.3-3.1,0.4c-1.3,0.2-1.1,2.2,0.2,2c1-0.1,2.1-0.3,3.1-0.4
		C320.9,181,320.7,178.9,319.4,179.1"/>
	<path class="st38" d="M316,175.2c0.8,0.4,1.5,0.7,2.3,1.1c0.5,0.2,1.1-0.1,1.3-0.6c0.2-0.5,0-1.1-0.5-1.3c-0.8-0.4-1.5-0.7-2.3-1.1
		c-0.5-0.2-1.1,0.1-1.3,0.6C315.3,174.4,315.5,175,316,175.2"/>
	<path class="st38" d="M318.3,168c0.6,0.5,1.3,1,1.9,1.5c1,0.8,2.3-0.9,1.3-1.6c-0.6-0.5-1.3-1-1.9-1.5
		C318.6,165.5,317.3,167.2,318.3,168"/>
	<path class="st38" d="M326.8,166.8c0,0.7,0.1,1.5,0.1,2.2c0,0.5,0.6,1,1.1,0.9c0.6-0.1,0.9-0.6,0.9-1.2c0-0.7-0.1-1.5-0.1-2.2
		c0-0.5-0.6-1-1.1-0.9C327.2,165.7,326.8,166.2,326.8,166.8"/>
	<path class="st38" d="M330.3,172c-0.3,0.6-0.6,1.1-0.9,1.7c-0.3,0.5,0,1.1,0.5,1.3s1.1-0.1,1.3-0.6c0.3-0.6,0.6-1.1,0.9-1.7
		c0.3-0.5,0-1.1-0.5-1.3C331.1,171.2,330.6,171.5,330.3,172"/>
	<path class="st38" d="M341.8,179.6c-0.6,0.5-1.3,1-1.9,1.5c-1.1,0.8,0.1,2.4,1.2,1.6c0.6-0.5,1.3-1,1.9-1.5
		C344,180.4,342.9,178.8,341.8,179.6"/>
	<path class="st38" d="M347.8,181c-0.6,0.6-1.3,1.1-2.1,1.4c-1.2,0.6-0.5,2.5,0.7,1.9c0.9-0.4,1.8-1,2.5-1.7c0.4-0.4,0.6-1,0.2-1.4
		C348.9,180.7,348.2,180.6,347.8,181"/>
	<path class="st38" d="M352.7,186.2c-1.1,0.1-2.2,0-3.2-0.3c-0.5-0.1-1.1,0.4-1.2,0.9c-0.1,0.6,0.3,1,0.8,1.1
		c1.2,0.3,2.5,0.4,3.8,0.2C354.2,188.2,354,186.1,352.7,186.2"/>
	<path class="st38" d="M350.8,192.3c-1-0.6-2-1.1-2.9-1.7c-0.5-0.3-1.1,0.1-1.3,0.6c-0.3,0.6,0,1.1,0.5,1.3c1,0.6,2,1.1,2.9,1.7
		c0.5,0.3,1.1-0.1,1.3-0.6C351.6,193,351.3,192.5,350.8,192.3"/>
	<path class="st38" d="M344.2,194.4c-1.3-1.6-2.5-3.3-3.8-4.9c-0.8-1-2.4,0.2-1.6,1.3c1.3,1.6,2.5,3.3,3.8,4.9
		C343.3,196.7,344.9,195.4,344.2,194.4"/>
	<path class="st38" d="M336.6,192.6c-0.7-0.5-1.4-1.1-2.1-1.6c-1-0.8-2.3,0.9-1.3,1.6c0.7,0.5,1.4,1.1,2.1,1.6
		C336.3,195,337.6,193.4,336.6,192.6"/>
</g>
<path class="st38" d="M383.6,244c0,0-3.5-24.9-11.9-25.3c-8.5-0.4-13.8,18.9-13.8,18.9s-4.4-37-16.3-37.8s-13.8,11.5-13.8,11.5
	s-3.3-20.5-16.5-20.9s-16.6,17.7-16.6,17.7c-2.2-20.1-23.2-15.1-28.5,1.9c-2.9,9.2-3.4,11.3-3.4,11.3s-9.2-13.4-15-14.3
	c-10.7-1.6-13.5,18.3-13.5,18.3s-3.8-24.8-15.4-23.9c-11.6,0.8-11.9,12.4-11.9,12.4s-0.9-17.2-11.6-16c-10.7,1.2-8.8,22.6-9.1,31.8
	c-0.3,9.3-8.5,22.5-23.5,7.6c-15.1-14.9-21,24.1-21,24.1h233.4C385.8,261.3,383.6,244,383.6,244"/>
</svg>
