<?xml version="1.0" encoding="utf-8"?>
<!-- Generator: Adobe Illustrator 26.0.3, SVG Export Plug-In . SVG Version: 6.00 Build 0)  -->
<svg version="1.1" id="Ebene_1" xmlns="http://www.w3.org/2000/svg" xmlns:xlink="http://www.w3.org/1999/xlink" x="0px" y="0px"
	 viewBox="0 0 478.9 288" style="enable-background:new 0 0 478.9 288;" xml:space="preserve">
<style type="text/css">
	.st0{fill:#641E6E;}
	.st1{fill:#EA5474;}
	.st2{fill:#7575B4;}
	.st3{fill:#D99A68;}
	.st4{opacity:0.3;fill:url(#SVGID_1_);}
	.st5{fill:#BE7A50;}
	.st6{opacity:0.2;fill:url(#SVGID_00000164488754164547660880000008374878328633525134_);}
	.st7{opacity:0.2;fill:url(#SVGID_00000095301893058353764550000015300002065514750903_);}
	.st8{fill:#F0C29C;}
	.st9{fill:#4F2B1E;}
	.st10{fill:#542614;}
	.st11{fill:#79422C;}
	.st12{fill:#833500;}
	.st13{fill:#636664;}
	.st14{fill:#A57555;}
	.st15{fill:#271607;}
	.st16{opacity:0.1;}
	.st17{clip-path:url(#SVGID_00000018929050927829085430000008146296233719979171_);fill:#FFFFFF;}
	.st18{fill:#3B3534;}
	.st19{fill:#381947;}
	.st20{fill:#002E2C;}
	.st21{fill:#694F7F;}
	.st22{opacity:0.9;}
	.st23{clip-path:url(#SVGID_00000178183191614237349900000011047814329847228085_);fill:#D8DADA;}
	.st24{clip-path:url(#SVGID_00000045605860250996324360000002658359961839642808_);fill:#D8DADA;}
	.st25{fill:#518198;}
	.st26{fill:#F69C00;}
	.st27{fill:#ED5607;}
	.st28{fill:#FDD184;}
	.st29{fill:#EA3C0F;}
	.st30{fill:#E6BFA5;}
	.st31{clip-path:url(#SVGID_00000160884941066886498340000009565634908027668658_);fill:#381947;}
	.st32{clip-path:url(#SVGID_00000098189387710725655330000000312050944560188827_);fill:#FFFFFF;}
	.st33{clip-path:url(#SVGID_00000016794310081865181440000002959944622112167063_);fill:#FFFFFF;}
	.st34{fill:#877C7A;}
	.st35{fill:#302B28;}
	.st36{fill:#5A524F;}
	.st37{fill:#A8A09E;}
	.st38{fill:#B8A8A6;}
	.st39{fill:#DCCECB;}
	.st40{opacity:0.3;}
	.st41{clip-path:url(#SVGID_00000156572149162770357520000003291624438321054852_);fill:#AADBE0;}
	.st42{opacity:0.2;}
	.st43{clip-path:url(#SVGID_00000132795775040170736810000013232786567182682788_);fill:#AADBE0;}
	.st44{fill:#FFE274;}
	.st45{fill:#FAB40C;}
	.st46{clip-path:url(#SVGID_00000011015248453080017200000006831938428653467021_);fill:#AADBE0;}
	
		.st47{clip-path:url(#SVGID_00000075144189153054808510000015118604129536104613_);fill:url(#SVGID_00000056403488931761089280000001723119433788569271_);}
	.st48{fill:#D78D5A;}
	.st49{fill:#66322A;}
	.st50{fill:#2F0C27;}
	.st51{fill:#485B5E;}
	.st52{fill:#7B8E91;}
	.st53{opacity:0.6;fill:#9EB1B5;}
	.st54{fill:#596D71;}
	.st55{fill:#F4931F;}
	.st56{fill:#9EB1B5;}
	.st57{fill:#FDCF0C;}
	.st58{fill:#F9AE15;}
	.st59{fill:#FFFFFF;}
	.st60{fill:#E7EAE1;}
	.st61{fill:#C6C4AF;}
	.st62{filter:url(#Adobe_OpacityMaskFilter);}
	.st63{opacity:0.1;mask:url(#SVGID_00000003106735438299591760000010169889652003741827_);}
	.st64{fill:#87442A;}
	.st65{filter:url(#Adobe_OpacityMaskFilter_00000131365770526237443580000008122805081544673972_);}
	.st66{opacity:0.1;mask:url(#SVGID_00000047036049242838044240000000579836186811866775_);}
</style>
<g>
	<path class="st0" d="M196.4,155.5c-5.2-2.8-8.4-4-4.9-11.3c3.5-7.3-1.7-8.9-6.9-11.8c-5.2-2.8-7.8-8.7-5.3-21.2
		c2.5-12.5-5-12.5-9.9-16.4c-4.9-3.8-5.8-5-5.5-14.4c0.3-9.3-7-10.5-14.6-11.7c-7.6-1.1-19-24.3-19-24.3s-6.6,9.9-2.3,23.4
		c4.4,13.5-7,8.7-6.9,22.1c0.1,13.4,11.4,13.3,5.3,22.1c-6.1,8.8-8.6,17,0.8,28.4c9.4,11.4-3.1,19.2,1.5,29c4.6,9.8,16,2.9,15.5,13
		c-0.5,10.1-3.2,14.8,6.5,17.1c9.7,2.3,3.8,14.6,15.3,19.7c0.4,0.2,0.9,0.4,1.4,0.5c13.5,4.9,29.6-4.4,32.7-19.1
		c0.7-3.3,0.6-6.3-0.9-8.4c-5.9-8.1,2.7,0,9.8-7C216.3,178.6,201.6,158.4,196.4,155.5"/>
	<path class="st1" d="M166.9,109.1c-3.9,3.1-7.4,6.6-10.5,10.6c-1.7-5.5-3.5-10.9-5.5-16.3c-0.7-1.9-1.4-3.7-2.2-5.6
		c0-0.1,0.1-0.2,0.1-0.3c0.4-4.4,1.6-8.8,3.5-12.9c0.4-0.9-0.9-1.4-1.3-0.5c-1.6,3.6-2.8,7.3-3.4,11.1
		c-4.8-11.7-10.1-23.2-15.4-34.7c-0.4-0.8-1.7-0.2-1.4,0.6c5.1,11,10.1,21.9,14.7,33.2c-3.6-1.4-7.4-2.3-11.3-2.7
		c-0.9-0.1-1.2,1.3-0.3,1.4c4.3,0.4,8.4,1.4,12.2,3.1c0.1,0,0.1,0,0.2,0.1c0.4,0.9,0.7,1.8,1.1,2.8c2.9,7.2,5.4,14.6,7.7,22
		c-5-0.9-10.2-1.4-15.4-1.4c-0.9,0-1.2,1.4-0.3,1.4c5.5,0,10.9,0.5,16.2,1.5c1.6,5.2,3,10.5,4.4,15.8c1.5,5.8,2.9,11.6,4.2,17.4
		c-4.8-1.4-9.7-2.4-14.7-3.2c-0.9-0.1-1.2,1.3-0.3,1.4c5.1,0.7,10.2,1.8,15.1,3.3c0.1,0,0.2,0,0.3,0c1.7,7.1,3.3,14.3,5.2,21.4
		c0.3,1.3,0.7,2.7,1,4c-3.9-0.8-7.9-1.1-12-1c-0.9,0-0.9,1.5,0,1.4c4.2-0.2,8.2,0.2,12.2,1.1c0.1,0,0.2,0,0.2,0
		c3,11.2,4.8,17.9,9.1,28.6c5.1,12.9,0.5-2.5-1.6-8.6c-2.2-6.6-4.2-13.2-6-20c0,0,0-0.1,0-0.1c3.7-3.8,7.6-7.3,11.8-10.4
		c0.8-0.6,0-1.7-0.8-1.1c-4.1,3-7.9,6.4-11.4,10c-2.3-8.7-4.4-17.5-6.5-26.3c3.9-4,7.8-8,11.8-12c0.7-0.7-0.4-1.5-1.1-0.9
		c-3.7,3.8-7.4,7.5-11.1,11.3c-2.7-11.2-5.4-22.3-8.7-33.3c3.1-4.1,6.7-7.9,10.7-11.1C168.4,109.6,167.6,108.5,166.9,109.1"/>
	<path class="st1" d="M146.1,79c0.2,0.5,0.3,1.1,0.5,1.6c0.2,0.5,0.9,0.7,1.4,0.4c0.6-0.3,0.7-0.9,0.6-1.5c-0.2-0.5-0.3-1.1-0.5-1.6
		c-0.2-0.5-0.9-0.7-1.4-0.4C146,77.8,145.9,78.4,146.1,79"/>
	<path class="st1" d="M153.4,78.1c0,0.1,0,0.3,0,0.4c0,0.1,0,0.1,0,0.2c0-0.1,0-0.1,0,0c0,0.1-0.1,0.3-0.1,0.4c0,0-0.2,0.4-0.1,0.3
		c-0.3,0.5-0.3,1.2,0.2,1.5c0.4,0.2,1.2,0.2,1.5-0.4c0.4-0.8,0.7-1.5,0.7-2.4c0-0.6-0.3-1.1-0.9-1.1C154,77.1,153.4,77.5,153.4,78.1
		"/>
	<path class="st1" d="M157,82.9c-0.6,0.5-1.2,0.9-1.8,1.4c-0.5,0.4-0.5,1.1-0.2,1.5c0.4,0.4,1,0.4,1.5,0c0.6-0.5,1.2-0.9,1.8-1.4
		c0.5-0.4,0.5-1.1,0.2-1.5C158.2,82.4,157.5,82.5,157,82.9"/>
	<path class="st1" d="M133.5,127.3c0.6-0.5,1.2-1,1.8-1.5c0.5-0.4,0.5-1.1,0.2-1.5c-0.4-0.4-1.1-0.4-1.5,0l-1.8,1.5
		c-0.5,0.4-0.5,1.1-0.2,1.5C132.4,127.7,133.1,127.7,133.5,127.3"/>
	<path class="st1" d="M131.8,120.7c0.8,0,1.5,0.1,2.3,0.1c1.4,0.1,1.6-2.1,0.3-2.1c-0.8,0-1.5-0.1-2.3-0.1
		C130.7,118.5,130.4,120.7,131.8,120.7"/>
	<path class="st1" d="M135.2,113.8c0.3,0.7,0.7,1.2,1.3,1.6c0.5,0.3,1.2,0.1,1.5-0.4c0.3-0.5,0.3-1.2-0.2-1.5c0,0-0.3-0.2-0.1-0.1
		c-0.1-0.1-0.2-0.2-0.2-0.3c0,0-0.1-0.1-0.1-0.1c0.1,0.1,0.1,0.1,0,0c-0.1-0.1-0.1-0.2-0.2-0.3c-0.2-0.5-0.9-0.7-1.4-0.4
		C135.2,112.6,135,113.2,135.2,113.8"/>
	<path class="st1" d="M141,112c0.2,0.4,0.3,0.9,0.5,1.3c0.2,0.5,0.9,0.7,1.4,0.4c0.6-0.3,0.7-0.9,0.6-1.5c-0.2-0.4-0.3-0.9-0.5-1.3
		c-0.2-0.5-0.9-0.7-1.4-0.4C141,110.8,140.8,111.4,141,112"/>
	<path class="st1" d="M162.2,107.1c0.3,0.4,0.6,0.7,0.8,1.1c0.3,0.4,1.1,0.4,1.5,0c0.5-0.4,0.5-1.1,0.2-1.5
		c-0.3-0.4-0.6-0.7-0.8-1.1c-0.3-0.4-1.1-0.4-1.5,0C161.9,106.1,161.9,106.7,162.2,107.1"/>
	<path class="st1" d="M169.2,103.7c-0.3,0.6-0.5,1.2-0.8,1.8c-0.2,0.5,0.1,1.2,0.6,1.3c0.6,0.1,1.1-0.2,1.4-0.7
		c0.3-0.6,0.5-1.2,0.8-1.8c0.2-0.5-0.1-1.2-0.6-1.3C170.1,102.8,169.5,103.1,169.2,103.7"/>
	<path class="st1" d="M173.8,108.5c-0.7,0.1-1.5,0.3-2.2,0.4c-0.6,0.1-1,0.8-0.9,1.3c0.1,0.6,0.6,0.9,1.2,0.8
		c0.7-0.1,1.5-0.3,2.2-0.4c0.6-0.1,1-0.8,0.9-1.3C174.9,108.7,174.3,108.4,173.8,108.5"/>
	<path class="st1" d="M169.5,115.5c0.7,0.1,1.5,0.2,2.2,0.4c0.6,0.1,1.2-0.1,1.4-0.7c0.2-0.5,0-1.2-0.6-1.3l-2.2-0.4
		c-0.6-0.1-1.2,0.1-1.4,0.7C168.7,114.7,169,115.4,169.5,115.5"/>
	<path class="st1" d="M147.4,158.7c-0.6,0.5-1.3,1-1.9,1.5c-0.5,0.4-0.5,1.1-0.2,1.5c0.4,0.4,1,0.4,1.5,0c0.6-0.5,1.3-1,1.9-1.5
		c0.5-0.4,0.5-1.1,0.2-1.5C148.6,158.3,147.9,158.3,147.4,158.7"/>
	<path class="st1" d="M141.4,155.3c-1.2,0.5-2.3,1.1-3.5,1.6c-1.3,0.6-0.4,2.5,0.9,1.9c1.2-0.5,2.3-1.1,3.5-1.6
		C143.6,156.5,142.7,154.7,141.4,155.3"/>
	<path class="st1" d="M139.8,151c1,0.2,2,0.5,2.9,0.7c1.3,0.3,2.1-1.8,0.8-2.1c-1-0.2-2-0.5-2.9-0.7
		C139.2,148.7,138.4,150.7,139.8,151"/>
	<path class="st1" d="M145.1,144.4l1,1.2c0.3,0.4,1.1,0.4,1.5,0c0.5-0.4,0.5-1.1,0.2-1.5c-0.3-0.4-0.7-0.8-1-1.2
		c-0.3-0.4-1.1-0.4-1.5,0C144.8,143.3,144.8,144,145.1,144.4"/>
	<path class="st1" d="M152.7,144.8c0.1,0.8,0.2,1.6,0.4,2.4c0.2,1.3,2.3,0.8,2.1-0.5c-0.1-0.8-0.2-1.6-0.4-2.4
		C154.6,142.9,152.5,143.4,152.7,144.8"/>
	<path class="st1" d="M169.4,142.2c0.3,0.6,0.6,1.2,0.9,1.7c0.3,0.5,0.9,0.7,1.4,0.4c0.5-0.3,0.8-1,0.6-1.5
		c-0.3-0.6-0.6-1.2-0.9-1.7c-0.3-0.5-0.9-0.7-1.4-0.4C169.5,141,169.2,141.7,169.4,142.2"/>
	<path class="st1" d="M174.9,134.1c0.2,1.1,0.3,2.2,0.5,3.3c0.2,1.3,2.3,0.8,2.1-0.5c-0.2-1.1-0.3-2.2-0.5-3.3
		C176.8,132.2,174.7,132.7,174.9,134.1"/>
	<path class="st1" d="M182.6,138.2c-1,0.8-1.9,1.5-2.9,2.3c-1.1,0.9,0.2,2.4,1.4,1.5c1-0.8,1.9-1.5,2.9-2.3
		C185.1,138.8,183.7,137.3,182.6,138.2"/>
	<path class="st1" d="M185.6,145.4c-1,0.3-2.1,0.5-3.1,0.8c-1.4,0.3-1.1,2.4,0.3,2.1c1-0.3,2.1-0.5,3.1-0.8
		C187.2,147.1,186.9,145.1,185.6,145.4"/>
	<path class="st1" d="M183.3,151.9c-1.6-0.1-3.1,0-4.7,0.3c-1.4,0.3-1.1,2.4,0.3,2.1c1.4-0.3,2.7-0.4,4.1-0.3
		C184.4,154.1,184.7,152,183.3,151.9"/>
	<path class="st1" d="M152.7,189.4c0.9-0.4,1.8-0.8,2.6-1.2c0.5-0.3,0.8-1,0.6-1.5c-0.2-0.5-0.9-0.7-1.4-0.4
		c-0.9,0.4-1.8,0.8-2.6,1.2c-0.5,0.3-0.8,1-0.6,1.5C151.5,189.5,152.1,189.6,152.7,189.4"/>
	<path class="st1" d="M148.7,183c0.9-0.2,1.7-0.4,2.6-0.6c1.4-0.3-1.5-1.8-2.9-1.4c-0.9,0.2,0.9-0.2,0,0
		C147,181.3,147.3,183.4,148.7,183"/>
	<path class="st1" d="M154.3,175.2c0.6,0.4,1.2,0.8,1.8,1.3c0.4,0.3,1.2,0.1,1.5-0.4c0.3-0.5,0.2-1.1-0.2-1.5
		c-0.6-0.4-1.2-0.8-1.8-1.3c-0.4-0.3-1.2-0.1-1.5,0.4C153.7,174.3,153.8,174.9,154.3,175.2"/>
	<path class="st1" d="M161.1,175.5c0.2,0.6,0.5,1.2,0.7,1.8c0.2,0.5,0.9,0.7,1.4,0.4c0.6-0.3,0.8-0.9,0.6-1.5
		c-0.2-0.6-0.5-1.2-0.7-1.8c-0.2-0.5-0.9-0.7-1.4-0.4C161,174.4,160.9,175,161.1,175.5"/>
	<path class="st1" d="M175.8,170.7c-0.1,0.9-0.2,1.7-0.3,2.6c-0.2,1.4,2,1.4,2.1,0c0.1-0.9,0.2-1.7,0.3-2.6
		C178.1,169.3,176,169.3,175.8,170.7"/>
	<path class="st1" d="M181.4,166.6c0,0.9-0.1,1.7-0.4,2.6c-0.5,1.3,1.6,1.9,2,0.6c0.4-1,0.6-2.1,0.6-3.1c0-0.6-0.3-1.1-0.9-1.1
		C182,165.5,181.4,166,181.4,166.6"/>
	<path class="st1" d="M189.2,165.8c-0.8,1-1.7,1.8-2.7,2.5c-0.5,0.4-0.5,1.1-0.2,1.5c0.4,0.5,1,0.4,1.5,0c1.2-0.8,2.2-1.8,3-3
		C191.9,165.7,190.1,164.6,189.2,165.8"/>
	<path class="st1" d="M192.5,171c-1.2,0.5-2.4,0.9-3.6,1.4c-0.6,0.2-0.8,1-0.6,1.5c0.3,0.6,0.9,0.6,1.4,0.4c1.2-0.5,2.4-0.9,3.6-1.4
		c0.6-0.2,0.8-1,0.6-1.5C193.7,170.9,193.1,170.8,192.5,171"/>
	<path class="st1" d="M189.2,177.9c-2.2,0-4.5,0.1-6.7,0.1c-1.4,0-1.7,2.2-0.3,2.1c2.2,0,4.5-0.1,6.7-0.1
		C190.3,180,190.6,177.8,189.2,177.9"/>
	<path class="st1" d="M182,183c-1,0.2-1.9,0.5-2.9,0.7c-1.4,0.3-1.1,2.4,0.3,2.1c1-0.2,1.9-0.5,2.9-0.7
		C183.7,184.7,183.4,182.7,182,183"/>
</g>
<g>
	<path class="st0" d="M307.1,37.5c0,0-41.1,68-41.4,119.4c-0.1,17.4,3.4,30.4,8.2,39.9c9.8,19.8,36.3,21,48.3,2.1
		c5.8-9.1,10.8-21.6,12.6-39C340.3,108.8,307.1,37.5,307.1,37.5"/>
	<path class="st2" d="M300.9,173.3c0.2-3.5,0.4-7.1,0.6-10.6c11.3-5.6,22.6-11.2,33.9-16.9c0-0.4,0-0.8,0-1.3
		c-11.3,5.6-22.5,11.2-33.8,16.8c0.2-3.3,0.4-6.7,0.6-10c10.7-5.6,21.7-10.6,32.8-15.2c0-0.4-0.1-0.8-0.1-1.2
		c-11.1,4.5-22,9.5-32.7,15l0.5-9.7c10.4-4.8,20.7-9.6,31.1-14.4c-0.1-0.4-0.1-0.8-0.2-1.2c-10.3,4.8-20.6,9.5-30.9,14.3
		c0.2-3.4,0.4-6.7,0.6-10.1c9.3-5.4,18.8-10.3,28.5-14.8c-0.1-0.4-0.1-0.8-0.2-1.1c-9.6,4.5-19,9.4-28.2,14.6
		c0.2-3.5,0.4-6.9,0.6-10.4c8.4-4.7,17-9,25.8-12.9c-0.1-0.4-0.2-0.7-0.3-1.1c-8.6,3.8-17.1,8.1-25.5,12.7c0.2-2.8,0.3-5.7,0.5-8.5
		c7.5-4.6,15.1-8.8,22.9-12.6c-0.1-0.4-0.2-0.7-0.3-1.1c-7.7,3.8-15.2,7.9-22.5,12.3c0.2-3.4,0.4-6.9,0.6-10.3
		c6-4.5,12.5-8.4,19.3-11.4c-0.1-0.4-0.2-0.7-0.3-1.1c-6.6,3-12.9,6.7-18.9,11.1l0.2-3.5c0.1-0.2,0.1-0.4,0-0.6
		c0-0.9,0.1-1.7,0.1-2.6c5-4.3,10.7-7.6,16.8-9.8c-0.1-0.4-0.2-0.7-0.3-1.1c-5.9,2.1-11.4,5.3-16.4,9.3c0.1-2.6,0.3-5.2,0.4-7.8
		c4.4-3.2,8.9-6,13.7-8.4c-0.1-0.4-0.2-0.7-0.4-1.1c-4.6,2.4-9,5.1-13.2,8.1l0.4-7.2c3.2-1.6,6.4-3.2,9.5-4.8
		c0.5-0.3,1.1-0.5,1.6-0.8c-0.1-0.4-0.3-0.7-0.4-1.1c-0.8,0.4-1.6,0.8-2.3,1.2l-8.3,4.2l0.3-6.1c2.6-2,5.3-3.8,8-5.5
		c-0.1-0.4-0.3-0.7-0.4-1.1c-2.6,1.6-5.1,3.3-7.5,5.1c0.1-2.4,0.3-4.7,0.4-7.1c1.7-1.2,3.4-2.2,5.1-3.2c-0.1-0.4-0.3-0.7-0.4-1.1
		c-1.6,0.9-3.1,1.8-4.6,2.9c0.1-1.4,0.2-2.9,0.2-4.3c1-0.7,1.9-1.4,2.9-2.1c-0.2-0.4-0.3-0.7-0.4-1.1l-2.4,1.7
		c0.1-2.1,0.2-4.3,0.4-6.4c-0.7-1.6-1.1-2.5-1.1-2.5s-0.5,0.8-1.4,2.4l-0.4,7.2c-0.6-1-1.3-1.9-2.1-2.8c-0.2,0.3-0.4,0.7-0.6,1
		c1,1.1,1.8,2.4,2.6,3.7c-0.1,1.7-0.2,3.3-0.3,5c-1.2-1.9-2.6-3.7-4.1-5.3c-0.2,0.3-0.4,0.7-0.6,1c1.6,1.7,3,3.6,4.3,5.7
		c0.1,0.1,0.2,0.2,0.3,0.2c-0.2,3.1-0.3,6.1-0.5,9.2c-2.3-3.1-4.8-6.1-7.3-9c-0.2,0.4-0.4,0.7-0.6,1.1c2.7,3.1,5.3,6.3,7.8,9.7
		c-0.2,2.8-0.3,5.5-0.5,8.3c-3.3-4.2-6.6-8.3-10.1-12.4c-0.2,0.4-0.4,0.7-0.5,1.1c3.6,4.2,7.1,8.5,10.5,13
		c-0.2,3.4-0.4,6.8-0.6,10.1c-4.1-5.7-8.5-11.3-13.1-16.7c-0.2,0.4-0.3,0.7-0.5,1.1c4.7,5.6,9.2,11.4,13.5,17.3
		c-0.1,2.2-0.2,4.5-0.4,6.7c-5.5-5.4-11.1-10.9-16.6-16.3c-0.2,0.4-0.3,0.7-0.5,1.1c5.7,5.6,11.3,11.1,17,16.7
		c-0.2,4.3-0.5,8.6-0.7,12.9c-5.9-8.1-12.3-15.9-19-23.2c-0.2,0.4-0.3,0.8-0.5,1.2c6.9,7.5,13.3,15.5,19.4,23.8
		c-0.2,4-0.4,7.9-0.7,11.9c-7.8-7.9-15.5-15.8-23.3-23.8c-0.1,0.4-0.3,0.8-0.4,1.2c7.9,8,15.8,16.1,23.6,24.1
		c-0.1,1.5-0.2,3-0.2,4.5c-0.1,1.8-0.2,3.7-0.3,5.5c-8.7-8.5-17.3-17-26-25.4c-0.1,0.4-0.3,0.8-0.4,1.2c8.8,8.6,17.5,17.2,26.3,25.7
		c-0.2,2.8-0.3,5.7-0.5,8.5c-9.7-7.8-19.3-15.5-29-23.3c-0.1,0.4-0.2,0.8-0.3,1.2l29.1,23.3c0.1,0,0.1,0.1,0.2,0.1
		c-0.2,4-0.4,8.1-0.7,12.1c-10.2-8.7-20.5-17.4-30.7-26.1c-0.1,0.4-0.2,0.8-0.3,1.3c10.3,8.8,20.6,17.5,30.9,26.3
		c-0.2,3-0.3,6.1-0.5,9.1c-10.8-7.2-21.6-14.5-32.4-21.7c0,0.4-0.1,0.9-0.1,1.3c10.8,7.2,21.6,14.5,32.5,21.7
		c-0.2,3.2-0.4,6.4-0.5,9.7c-11.1-5.7-21.9-12.1-32.3-19.1c0,0.5,0,0.9,0,1.4c10.4,7,21.1,13.3,32.2,19c-0.3,5.2-0.6,10.5-0.9,15.7
		c-10-5.1-19.7-10.7-29.1-16.8c0.1,0.5,0.2,1.1,0.4,1.6c9.2,5.9,18.7,11.4,28.5,16.3c0.1,0,0.1,0,0.2,0.1c-0.1,2.2-0.2,4.4-0.4,6.6
		c-8.1-3.7-16.2-7.4-24.4-11.1c0.2,0.5,0.5,1.1,0.7,1.6c7.9,3.6,15.7,7.2,23.6,10.7c-0.1,2.2-0.2,4.4-0.4,6.5
		c0.8,0.1,1.7,0.1,2.5,0.1c0-0.6,0.1-1.2,0.1-1.8c7.3-3.2,14.5-6.3,21.8-9.5c0.4-0.6,0.9-1.2,1.3-1.8l-23,10
		c0.1-1.9,0.2-3.9,0.3-5.8c9-4,18.1-8.1,27.1-12.1c0.2-0.5,0.5-1,0.7-1.6c-9.2,4.1-18.5,8.3-27.7,12.4c0.2-3,0.3-6,0.5-9.1
		c10.3-4.4,20.6-8.8,30.9-13.2c0.1-0.5,0.3-0.9,0.4-1.4c-10.4,4.4-20.9,8.9-31.3,13.3c0.1-2.6,0.3-5.3,0.4-7.9c0-0.1,0-0.1,0-0.2
		c10.8-5.2,21.8-9.9,33-13.9c0.1-0.4,0.2-0.9,0.2-1.3c-11.3,4-22.3,8.7-33.1,14c0-0.3,0-0.7,0.1-1c0-0.1,0-0.1,0-0.2
		c0.1-2.2,0.2-4.4,0.4-6.6c11.2-6.5,22.6-12.4,34.3-17.8c0-0.4,0.1-0.9,0.1-1.3C323.5,160.9,312.1,166.8,300.9,173.3"/>
</g>
<path class="st1" d="M45.4,248.9l8.5-29.6c0,0,0-0.1,0-0.1c1.8-6,9.6-6.1,11.9-0.3l4.6,6.3c0,0,2.7-30.4,13.7-31.1
	c11-0.7,12.7,9.6,12.7,9.6s1.7-21,13.9-21.3C122.8,182,126,198,126,198c2-17.7,20.7-16.3,26.2-2.1c5.7,14.5,6.4,17.2,6.4,17.2
	l3-17.7c6.3-32.8,27.4-11.2,36.4-3.3c3.5,3.1,8.3,5.2,14.5,5.2c9.9,0,16.6,15.9,16.9,24.1c0.3,8.2,5.4,19.8,19.3,6.7
	c13.9-13.1,26,20.8,26,20.8L45.4,248.9z"/>
<g>
	<path class="st1" d="M356.6,239.9c1.4-5.3,1.8-8.4,9.1-6.8c7.3,1.6,7.7-3.5,9.1-8.8c1.4-5.3,6.2-8.9,18-9.3
		c11.8-0.4,10.2-7.2,12.6-12.5c2.4-5.2,3.3-6.3,11.7-8.1c8.4-1.8,8-8.6,7.3-15.7c-0.6-7.1,17.7-22.3,17.7-22.3s-10.3-3.9-21.5,3
		c-11.2,6.9-9.4-4.5-21.4-1.4c-12,3-9.5,13.1-18.7,9.6c-9.2-3.6-17.1-4.1-25.4,6.9c-8.3,10.9-18,1.3-25.8,7.6
		c-7.8,6.3,0.8,15-8.3,16.8c-9.2,1.7-14,0.3-14,9.6c0,9.2-12.3,6.6-14.4,18.1c-0.1,0.4-0.1,0.9-0.2,1.4
		c-1.5,13.2,10.3,25.7,24.2,25.3c3.2-0.1,5.8-0.8,7.3-2.6c6-7.1,0.6,2.4,8.4,7.4C340.1,262.8,355.1,245.2,356.6,239.9"/>
	<path class="st2" d="M392,203.3c-3.6-2.9-7.6-5.3-11.8-7.1c4.6-2.7,9.1-5.5,13.5-8.5c1.5-1,3.1-2.1,4.6-3.2c0.1,0,0.2,0,0.2,0
		c4.1-0.6,8.2-0.4,12.4,0.4c0.9,0.2,1.1-1.1,0.2-1.3c-3.6-0.7-7.2-0.9-10.7-0.6c9.6-6.8,18.7-14.1,27.9-21.3
		c0.6-0.5-0.2-1.6-0.8-1.1c-8.8,6.9-17.6,13.9-26.7,20.4c0.5-3.5,0.5-7.1,0-10.8c-0.1-0.8-1.5-0.8-1.3,0c0.6,4,0.6,7.9-0.2,11.7
		c0,0.1,0,0.1,0,0.2c-0.7,0.5-1.5,1.1-2.2,1.6c-5.9,4.1-12,8-18.2,11.7c-0.3-4.7-1-9.4-2.1-14.1c-0.2-0.8-1.5-0.8-1.3,0
		c1.2,4.9,1.9,9.9,2.1,14.9c-4.4,2.5-8.8,5-13.3,7.4c-4.9,2.6-9.8,5.1-14.7,7.6c0.2-4.6,0.1-9.3-0.3-13.9c-0.1-0.8-1.4-0.8-1.3,0
		c0.5,4.8,0.6,9.5,0.3,14.3c0,0.1,0,0.2,0.1,0.3c-6.1,3.1-12.1,6.1-18.1,9.3c-1.1,0.6-2.3,1.2-3.4,1.8c-0.1-3.7-0.7-7.4-1.7-11.1
		c-0.2-0.8-1.5-0.5-1.3,0.3c1.1,3.7,1.6,7.4,1.7,11.2c0,0.1,0,0.1,0,0.2c-9.4,5.1-15.1,8.2-23.8,14.4c-10.5,7.4,2.4-0.1,7.4-3.3
		c5.4-3.4,11-6.7,16.7-9.7c0,0,0,0,0.1,0c4.2,2.5,8.2,5.3,11.9,8.4c0.7,0.6,1.5-0.4,0.8-0.9c-3.6-3-7.4-5.7-11.5-8.1
		c7.4-4,14.8-7.7,22.3-11.5c4.4,2.7,8.9,5.3,13.3,8c0.8,0.5,1.3-0.7,0.5-1.1c-4.2-2.5-8.4-5-12.5-7.5c9.5-4.8,18.9-9.7,28.1-15
		c4.4,1.9,8.5,4.3,12.3,7.3C391.9,204.8,392.7,203.8,392,203.3"/>
	<path class="st2" d="M404.5,166.5c0,0.6,0.1,1.2,0.1,1.8c0,0.5,0.4,1,1,1.1c0.5,0.1,1.1-0.3,1.1-0.8c0-0.6-0.1-1.2-0.1-1.8
		c0-0.5-0.4-1-1-1.1C405.1,165.6,404.5,165.9,404.5,166.5"/>
	<path class="st2" d="M410,167c-0.4,0.5-0.8,0.9-1.1,1.4c-0.3,0.4-0.1,1.1,0.3,1.4c0.5,0.3,1.1,0.2,1.4-0.2c0.4-0.5,0.8-0.9,1.1-1.4
		c0.3-0.4,0.1-1.1-0.3-1.4C410.9,166.5,410.3,166.6,410,167"/>
	<path class="st2" d="M399.1,164.3l0.1,2.1c0,0.5,0.4,1,1,1.1c0.5,0.1,1.1-0.3,1.1-0.8l-0.1-2.1c0-0.5-0.4-1-1-1.1
		C399.7,163.4,399.1,163.7,399.1,164.3"/>
	<path class="st2" d="M414.7,178c-0.4,0.3-0.9,0.5-1.3,0.8c-0.4,0.3-0.4,1-0.1,1.4c0.4,0.4,1,0.5,1.4,0.2c0.4-0.3,0.9-0.5,1.3-0.8
		c0.4-0.3,0.4-1,0.1-1.4C415.7,177.8,415.1,177.7,414.7,178"/>
	<path class="st2" d="M417,184.5c-0.1,0-0.3,0-0.4,0.1c-0.1,0-0.1,0-0.2,0c0.1,0,0.1,0,0,0c-0.1,0-0.2,0-0.4,0c0,0-0.4-0.1-0.3,0
		c-0.5-0.1-1.1,0-1.3,0.5c-0.1,0.4,0.1,1.1,0.7,1.3c0.8,0.2,1.5,0.3,2.3,0.2c0.5-0.1,0.9-0.5,0.8-1.1
		C418.1,184.8,417.5,184.4,417,184.5"/>
	<path class="st2" d="M413.5,188.8c-0.5-0.4-1.1-0.9-1.6-1.3c-0.4-0.4-1.1-0.2-1.4,0.2c-0.3,0.5-0.1,1,0.3,1.4
		c0.5,0.4,1.1,0.9,1.6,1.3c0.4,0.4,1.1,0.2,1.4-0.2C414.1,189.7,414,189.1,413.5,188.8"/>
	<path class="st2" d="M368.4,177.2c0.6,0.4,1.2,0.9,1.7,1.3c0.5,0.3,1.1,0.2,1.4-0.2c0.3-0.4,0.1-1-0.3-1.4l-1.7-1.3
		c-0.5-0.3-1.1-0.2-1.4,0.2C367.8,176.2,368,176.8,368.4,177.2"/>
	<path class="st2" d="M374,174.2c0.1,0.7,0.3,1.4,0.4,2.1c0.3,1.3,2.2,1,2-0.2c-0.1-0.7-0.3-1.4-0.4-2.1
		C375.7,172.7,373.7,173,374,174.2"/>
	<path class="st2" d="M381,175.8c-0.5,0.4-0.9,0.9-1.1,1.5c-0.2,0.5,0.1,1.1,0.7,1.3c0.5,0.2,1.1,0,1.3-0.5c0,0,0.2-0.3,0.1-0.2
		c0.1-0.1,0.1-0.2,0.2-0.3c0,0,0.1-0.1,0.1-0.1c-0.1,0.1-0.1,0.1,0,0c0.1-0.1,0.2-0.1,0.3-0.2c0.4-0.3,0.4-1,0.1-1.4
		C382,175.6,381.4,175.5,381,175.8"/>
	<path class="st2" d="M383.8,180.6c-0.4,0.2-0.7,0.5-1.1,0.7c-0.4,0.3-0.4,1-0.1,1.4c0.4,0.4,1,0.5,1.4,0.2c0.4-0.2,0.7-0.5,1.1-0.7
		c0.4-0.3,0.4-1,0.1-1.4C384.9,180.4,384.3,180.3,383.8,180.6"/>
	<path class="st2" d="M392.8,198.7c-0.3,0.3-0.5,0.7-0.8,1c-0.3,0.4-0.1,1.1,0.3,1.4c0.5,0.3,1.1,0.2,1.4-0.2c0.3-0.3,0.5-0.7,0.8-1
		c0.3-0.4,0.1-1.1-0.3-1.4C393.7,198.2,393.1,198.3,392.8,198.7"/>
	<path class="st2" d="M397.4,204.2c-0.6-0.1-1.2-0.2-1.8-0.3c-0.5-0.1-1.1,0.3-1.1,0.8c0,0.6,0.4,1,1,1.1c0.6,0.1,1.2,0.2,1.8,0.3
		c0.5,0.1,1.1-0.3,1.1-0.8C398.4,204.8,398,204.3,397.4,204.2"/>
	<path class="st2" d="M394,209.4c-0.3-0.6-0.6-1.3-0.9-1.9c-0.2-0.5-0.9-0.7-1.4-0.5c-0.5,0.2-0.7,0.8-0.4,1.3
		c0.3,0.6,0.6,1.3,0.9,1.9c0.2,0.5,0.9,0.7,1.4,0.5C394.1,210.4,394.2,209.9,394,209.4"/>
	<path class="st2" d="M386.8,207.1c0,0.7,0.1,1.4,0.1,2.1c0,0.5,0.4,1,1,1.1c0.5,0.1,1.1-0.3,1.1-0.8l-0.1-2.1c0-0.5-0.4-1-1-1.1
		C387.4,206.2,386.8,206.5,386.8,207.1"/>
	<path class="st2" d="M343.1,196.5c-0.6-0.5-1.2-0.9-1.8-1.4c-0.4-0.3-1.1-0.2-1.4,0.2c-0.3,0.4-0.1,1,0.3,1.4
		c0.6,0.5,1.2,0.9,1.8,1.4c0.4,0.4,1.1,0.2,1.4-0.2C343.7,197.4,343.6,196.8,343.1,196.5"/>
	<path class="st2" d="M344.9,190.3c-0.7-0.9-1.5-1.9-2.2-2.8c-0.8-1-2.3,0.1-1.5,1.2c0.7,0.9,1.5,1.9,2.2,2.8
		C344.2,192.5,345.7,191.3,344.9,190.3"/>
	<path class="st2" d="M348.4,187.9c0,0.9,0,1.9,0,2.8c0,1.3,2,1.5,2,0.3c0-0.9,0-1.9,0-2.8C350.4,186.9,348.4,186.7,348.4,187.9"/>
	<path class="st2" d="M355.5,191.3l-0.9,1.2c-0.3,0.4-0.1,1.1,0.3,1.4c0.5,0.3,1.1,0.2,1.4-0.2c0.3-0.4,0.6-0.8,0.9-1.1
		c0.3-0.4,0.1-1.1-0.3-1.4C356.4,190.8,355.8,190.9,355.5,191.3"/>
	<path class="st2" d="M356.8,198.2c-0.7,0.3-1.4,0.6-2.1,0.8c-1.2,0.5-0.2,2.3,0.9,1.8c0.7-0.3,1.4-0.6,2.1-0.8
		C358.9,199.6,358,197.7,356.8,198.2"/>
	<path class="st2" d="M362.7,212.7c-0.5,0.4-0.9,0.8-1.4,1.2c-0.4,0.3-0.4,0.9-0.1,1.4c0.4,0.4,1.1,0.5,1.4,0.2
		c0.5-0.4,0.9-0.8,1.4-1.2c0.4-0.3,0.4-0.9,0.1-1.4C363.8,212.5,363.1,212.4,362.7,212.7"/>
	<path class="st2" d="M371.3,215.9c-0.9,0.4-1.9,0.8-2.8,1.2c-1.2,0.5-0.2,2.3,0.9,1.8c0.9-0.4,1.9-0.8,2.8-1.2
		C373.4,217.3,372.4,215.4,371.3,215.9"/>
	<path class="st2" d="M369.2,223.7c-0.9-0.7-1.8-1.4-2.7-2.1c-1.1-0.8-2.1,0.7-1.1,1.5c0.9,0.7,1.8,1.4,2.7,2.1
		C369.2,226.1,370.3,224.5,369.2,223.7"/>
	<path class="st2" d="M363.4,227.9c-0.5-0.9-0.9-1.8-1.4-2.6c-0.6-1.2-2.4-0.4-1.8,0.7c0.5,0.9,0.9,1.8,1.4,2.6
		C362.2,229.8,364,229.1,363.4,227.9"/>
	<path class="st2" d="M357.1,227.3c-0.2-1.4-0.7-2.8-1.3-4.2c-0.6-1.2-2.4-0.5-1.8,0.7c0.6,1.2,0.9,2.4,1.1,3.6
		C355.3,228.8,357.3,228.6,357.1,227.3"/>
	<path class="st2" d="M318.3,212.8c-1-0.4-2-0.8-3-1.2c-1.2-0.5-1.9,1.3-0.6,1.8c1,0.4,2,0.8,3,1.2
		C318.9,215.1,319.5,213.3,318.3,212.8"/>
	<path class="st2" d="M316.6,207.8c0.6,0.7,1.1,1.4,1.7,2.1c0.3,0.4,1.1,0.5,1.4,0.2c0.4-0.3,0.4-0.9,0.1-1.4
		c-0.6-0.7-1.1-1.4-1.7-2.1c-0.3-0.4-1.1-0.5-1.4-0.2C316.3,206.8,316.3,207.4,316.6,207.8"/>
	<path class="st2" d="M321.5,202.9c0.4,0.7,0.8,1.5,1.1,2.2c0.6,1.2,1.3-1.8,0.7-2.9c-0.4-0.7,0.4,0.7,0,0
		C322.7,201,320.9,201.7,321.5,202.9"/>
	<path class="st2" d="M329.8,206.2c-0.2,0.6-0.5,1.3-0.7,1.9c-0.2,0.5,0.1,1.1,0.7,1.3c0.5,0.2,1.1,0,1.3-0.5
		c0.2-0.6,0.5-1.3,0.7-1.9c0.2-0.5-0.1-1.1-0.7-1.3C330.5,205.5,330,205.7,329.8,206.2"/>
	<path class="st2" d="M330.9,212.4c-0.5,0.3-1,0.7-1.5,1c-0.4,0.3-0.4,1-0.1,1.4c0.4,0.4,1,0.5,1.4,0.2c0.5-0.3,1-0.7,1.5-1
		c0.4-0.3,0.4-1,0.1-1.4C332,212.1,331.3,212.1,330.9,212.4"/>
	<path class="st2" d="M338.5,224.6c-0.8,0.1-1.6,0.2-2.4,0.3c-1.3,0.2-0.9,2.1,0.4,1.9c0.8-0.1,1.6-0.2,2.4-0.3
		C340.2,226.4,339.8,224.5,338.5,224.6"/>
	<path class="st2" d="M343.4,228.7c-0.8,0.2-1.6,0.2-2.4,0.2c-1.3-0.1-1.4,1.8-0.1,1.9c1,0.1,2,0.1,3-0.2c0.5-0.1,0.9-0.5,0.8-1.1
		C344.5,229.1,343.9,228.6,343.4,228.7"/>
	<path class="st2" d="M345.8,235.7c-1-0.5-2-1.1-2.9-1.8c-0.4-0.4-1.1-0.2-1.4,0.2c-0.3,0.5-0.1,1,0.3,1.4c1,0.9,2.1,1.6,3.3,2.1
		C346.4,238,347,236.2,345.8,235.7"/>
	<path class="st2" d="M341.8,239.8c-0.7-1-1.3-1.9-2-2.9c-0.3-0.5-1.1-0.5-1.4-0.2c-0.4,0.3-0.4,0.9-0.1,1.4c0.7,1,1.3,1.9,2,2.9
		c0.3,0.5,1.1,0.5,1.4,0.2C342.2,240.8,342.1,240.2,341.8,239.8"/>
	<path class="st2" d="M334.9,238.2c-0.5-2-1-4-1.5-6c-0.3-1.2-2.3-1-2,0.2c0.5,2,1,4,1.5,6C333.2,239.7,335.2,239.5,334.9,238.2"/>
	<path class="st2" d="M328.7,232.8c-0.4-0.8-0.8-1.6-1.3-2.4c-0.6-1.2-2.4-0.4-1.8,0.7c0.4,0.8,0.8,1.6,1.3,2.4
		C327.5,234.8,329.3,234,328.7,232.8"/>
</g>
<g>
	<path class="st2" d="M363.8,184.6c-0.9-5.7-1.8-8.9,5.2-11.2c7-2.3,5.3-7.4,4.4-13.1c-0.9-5.7,1.8-11.7,11.9-18.3
		c10.1-6.6,6-12.2,6-18.5c0-6.2,0.3-7.7,7-13.9c6.7-6.1,3.5-12.4,0.1-18.8c-3.4-6.4,6.5-30.5,6.5-30.5s-10.6,1.8-17.6,14.2
		c-7,12.4-10,0.7-19.3,9.9c-9.3,9.2-3,17.5-12.5,18.9c-9.5,1.4-16.6,5.2-19.5,19.9c-2.8,14.7-15.2,10.7-19.5,20.8
		c-4.3,10.1,6.8,13.8-0.5,20.3c-7.3,6.5-12.1,7.7-8.4,16.4c3.7,8.8-8.1,12.8-5.4,24.7c0.1,0.4,0.2,0.9,0.4,1.4
		c4,13.3,19.4,19,31.3,11.2c2.7-1.8,4.8-3.9,5.4-6.3c2.4-9.9,3.6-9.5,12.4-9C360.7,203.5,364.7,190.4,363.8,184.6"/>
	<path class="st0" d="M380.1,131.2c-4.3-0.8-8.7-1-13.2-0.6c2.9-5,5.7-10,8.4-15.2c0.9-1.8,1.8-3.6,2.7-5.4c0.1,0,0.1-0.1,0.2-0.1
		c3.3-2.7,7-4.8,11-6.2c0.8-0.3,0.5-1.6-0.3-1.3c-3.4,1.2-6.6,2.9-9.6,5c5.6-11.5,10.7-23.2,15.8-34.9c0.4-0.8-0.8-1.5-1.2-0.6
		c-4.9,11.2-9.8,22.4-15.1,33.4c-1-3.6-2.4-7.1-4.4-10.2c-0.5-0.7-1.6,0-1.2,0.7c2.1,3.4,3.7,7.2,4.6,11.2c0,0.1,0,0.1,0.1,0.2
		c-0.4,0.9-0.9,1.8-1.3,2.7c-3.5,7-7.2,13.9-11.2,20.7c-2.1-4.3-4.6-8.4-7.5-12.3c-0.5-0.7-1.7,0-1.2,0.7c3,4.1,5.6,8.4,7.8,13
		c-2.8,4.7-5.7,9.4-8.6,14c-3.2,5-6.5,10-9.9,14.9c-1.7-4.5-3.6-8.9-5.9-13c-0.4-0.8-1.6,0-1.2,0.7c2.3,4.3,4.3,8.8,6,13.4
		c0,0.1,0.1,0.2,0.2,0.3c-4.1,6.1-8.2,12.2-12.1,18.3c-0.8,1.2-1.5,2.3-2.2,3.5c-1.6-3.5-3.6-6.7-6-9.6c-0.5-0.7-1.5,0.3-1,1
		c2.4,3,4.4,6.2,6,9.7c0,0.1,0.1,0.1,0.1,0.2c-6.2,9.8-9.9,15.7-15,26.1c-6.2,12.5,2.1-1.3,5.2-7c3.4-6.1,7-12.1,10.7-18
		c0,0,0,0,0-0.1c4.7,0.1,9.3,0.7,13.8,1.7c0.8,0.2,1.2-1.2,0.4-1.3c-4.4-1-8.8-1.5-13.3-1.7c4.8-7.6,9.9-15.2,14.9-22.7
		c5,0.2,9.9,0.4,14.9,0.6c0.9,0,0.9-1.3,0-1.4c-4.7-0.2-9.3-0.4-14-0.5c6.4-9.6,12.7-19.1,18.5-29c4.6-0.5,9.2-0.4,13.7,0.4
		C380.5,132.6,380.9,131.3,380.1,131.2"/>
	<path class="st0" d="M376.2,89.7c0.3,0.5,0.6,1.1,0.8,1.6c0.2,0.5,0.7,0.8,1.3,0.5c0.5-0.2,0.8-0.9,0.6-1.3
		c-0.3-0.5-0.6-1.1-0.8-1.6c-0.2-0.5-0.7-0.8-1.3-0.5C376.3,88.5,375.9,89.2,376.2,89.7"/>
	<path class="st0" d="M381.2,87.3c-0.1,0.6-0.3,1.3-0.4,1.9c-0.1,0.5,0.3,1.1,0.8,1.1c0.6,0.1,1-0.4,1.2-0.9
		c0.1-0.6,0.3-1.3,0.4-1.9c0.1-0.5-0.3-1.1-0.8-1.1C381.8,86.3,381.3,86.7,381.2,87.3"/>
	<path class="st0" d="M370.6,90.4l1,1.9c0.2,0.5,0.7,0.8,1.3,0.5c0.5-0.2,0.8-0.9,0.6-1.3l-1-1.9c-0.2-0.5-0.7-0.8-1.3-0.5
		C370.7,89.3,370.3,89.9,370.6,90.4"/>
	<path class="st0" d="M389.7,95.3c-0.3,0.5-0.6,1-0.8,1.4c-0.3,0.5,0,1.2,0.5,1.3c0.6,0.2,1-0.1,1.3-0.6c0.3-0.5,0.6-1,0.8-1.4
		c0.3-0.5,0-1.2-0.5-1.3C390.5,94.5,390,94.8,389.7,95.3"/>
	<path class="st0" d="M394.3,100.2c-0.1,0.1-0.2,0.2-0.3,0.3c-0.1,0-0.1,0.1-0.2,0.1c0.1,0,0.1,0,0,0c-0.1,0.1-0.2,0.1-0.3,0.2
		c0,0-0.4,0.1-0.2,0.1c-0.5,0.1-1,0.6-0.9,1.2c0.1,0.5,0.5,1,1.1,0.9c0.8-0.2,1.4-0.5,2.1-1.1c0.4-0.4,0.6-1,0.2-1.4
		C395.4,99.9,394.7,99.8,394.3,100.2"/>
	<path class="st0" d="M393,106.1c-0.7-0.1-1.3-0.3-2-0.4c-0.5-0.1-1.1,0.4-1.2,0.9c-0.1,0.6,0.3,1,0.8,1.1c0.7,0.1,1.3,0.3,2,0.4
		c0.5,0.1,1.1-0.4,1.2-0.9C393.9,106.6,393.5,106.2,393,106.1"/>
	<path class="st0" d="M349,118.8c0.7,0.1,1.4,0.2,2,0.3c0.5,0.1,1.1-0.4,1.2-0.9c0.1-0.6-0.3-1.1-0.8-1.1l-2-0.3
		c-0.5-0.1-1.1,0.4-1.2,0.9C348,118.3,348.4,118.7,349,118.8"/>
	<path class="st0" d="M352.6,113.1c0.4,0.6,0.8,1.2,1.2,1.8c0.7,1.1,2.4-0.2,1.6-1.3c-0.4-0.6-0.8-1.2-1.2-1.8
		C353.5,110.8,351.9,112,352.6,113.1"/>
	<path class="st0" d="M359.3,110.9c-0.3,0.6-0.4,1.4-0.4,2.1c0,0.5,0.6,1,1.1,0.9c0.5-0.1,1-0.6,0.9-1.2c0,0,0-0.4,0-0.2
		c0-0.1,0-0.2,0-0.4c0-0.1,0-0.1,0-0.2c0,0.1,0,0.1,0,0c0-0.1,0.1-0.2,0.1-0.3c0.2-0.5,0-1.2-0.5-1.3
		C360.1,110.1,359.6,110.4,359.3,110.9"/>
	<path class="st0" d="M363.8,114c-0.2,0.4-0.4,0.8-0.7,1.2c-0.3,0.5,0,1.2,0.5,1.3c0.5,0.2,1.1-0.1,1.3-0.6c0.2-0.4,0.4-0.8,0.7-1.2
		c0.3-0.5,0-1.2-0.5-1.3C364.6,113.2,364.1,113.5,363.8,114"/>
	<path class="st0" d="M378.9,126.4c-0.1,0.5-0.2,0.9-0.3,1.4c-0.1,0.5,0.3,1.1,0.8,1.1c0.6,0,1-0.3,1.2-0.9c0.1-0.5,0.2-0.9,0.3-1.4
		c0.1-0.5-0.3-1.1-0.8-1.1C379.4,125.4,379,125.8,378.9,126.4"/>
	<path class="st0" d="M385.2,129.2c-0.6,0.2-1.1,0.4-1.7,0.6c-0.5,0.2-0.8,0.9-0.6,1.3c0.2,0.5,0.8,0.7,1.3,0.5
		c0.6-0.2,1.1-0.4,1.7-0.6c0.5-0.2,0.8-0.9,0.6-1.3C386.2,129.3,385.7,129,385.2,129.2"/>
	<path class="st0" d="M384.2,135.9c-0.5-0.5-1-0.9-1.5-1.4c-0.4-0.4-1.1-0.2-1.4,0.2c-0.4,0.5-0.3,1.1,0.1,1.4
		c0.5,0.5,1,0.9,1.5,1.4c0.4,0.4,1.1,0.2,1.4-0.2C384.7,136.9,384.6,136.2,384.2,135.9"/>
	<path class="st0" d="M377,137.5c0.3,0.6,0.6,1.3,1,1.9c0.2,0.5,0.7,0.8,1.3,0.5c0.5-0.2,0.8-0.9,0.6-1.3l-1-1.9
		c-0.2-0.5-0.7-0.8-1.3-0.5C377.2,136.4,376.8,137,377,137.5"/>
	<path class="st0" d="M334.6,150.5c-0.7-0.1-1.4-0.3-2.1-0.4c-0.5-0.1-1.1,0.4-1.2,0.9c-0.1,0.6,0.3,1,0.8,1.1
		c0.7,0.1,1.4,0.3,2.1,0.4c0.5,0.1,1.1-0.4,1.2-0.9C335.5,151.1,335.1,150.6,334.6,150.5"/>
	<path class="st0" d="M333.7,143.7c-1-0.5-2.1-1-3.1-1.5c-1.1-0.6-2,1.4-0.8,1.9c1,0.5,2.1,1,3.1,1.5
		C334,146.1,334.8,144.2,333.7,143.7"/>
	<path class="st0" d="M335.7,139.6c0.4,0.9,0.8,1.8,1.2,2.6c0.5,1.2,2.4,0.4,1.9-0.8c-0.4-0.9-0.8-1.8-1.1-2.6
		C337.1,137.6,335.2,138.4,335.7,139.6"/>
	<path class="st0" d="M343.3,139.1l-0.3,1.5c-0.1,0.5,0.3,1.1,0.8,1.1c0.6,0,1-0.3,1.2-0.9c0.1-0.5,0.2-1,0.3-1.5
		c0.1-0.5-0.3-1.1-0.8-1.1C343.9,138.1,343.4,138.5,343.3,139.1"/>
	<path class="st0" d="M347.3,144.9c-0.5,0.6-1,1.3-1.5,1.9c-0.8,1.1,0.7,2.3,1.5,1.2c0.5-0.6,1-1.3,1.5-1.9
		C349.6,145.1,348.1,143.8,347.3,144.9"/>
	<path class="st0" d="M358.2,155.6c-0.2,0.6-0.5,1.2-0.7,1.9c-0.2,0.5,0,1.1,0.5,1.3c0.5,0.2,1.1-0.1,1.3-0.6
		c0.2-0.6,0.5-1.2,0.7-1.9c0.2-0.5,0-1.1-0.5-1.3C359.1,154.8,358.4,155.1,358.2,155.6"/>
	<path class="st0" d="M367,154.1c-0.7,0.9-1.3,1.7-2,2.6c-0.8,1.1,0.7,2.3,1.5,1.2c0.7-0.9,1.3-1.7,2-2.6
		C369.4,154.3,367.8,153,367,154.1"/>
	<path class="st0" d="M368.3,162.6c-1.1-0.2-2.1-0.4-3.2-0.6c-1.3-0.2-1.6,1.8-0.3,2c1.1,0.2,2.1,0.4,3.2,0.6
		C369.3,164.8,369.6,162.8,368.3,162.6"/>
	<path class="st0" d="M364.9,169.7c-0.8-0.6-1.5-1.2-2.3-1.8c-1-0.8-2.3,0.9-1.3,1.6c0.8,0.6,1.5,1.2,2.3,1.8
		C364.6,172.1,365.9,170.5,364.9,169.7"/>
	<path class="st0" d="M359.2,172.4c-0.8-1.2-1.7-2.3-2.8-3.3c-1-0.8-2.2,0.8-1.3,1.6c1,0.8,1.8,1.8,2.4,2.9
		C358.2,174.8,359.8,173.5,359.2,172.4"/>
	<path class="st0" d="M319.4,179.1c-1,0.1-2.1,0.3-3.1,0.4c-1.3,0.2-1.1,2.2,0.2,2c1-0.1,2.1-0.3,3.1-0.4
		C320.9,181,320.7,178.9,319.4,179.1"/>
	<path class="st0" d="M316,175.2c0.8,0.4,1.5,0.7,2.3,1.1c0.5,0.2,1.1-0.1,1.3-0.6c0.2-0.5,0-1.1-0.5-1.3c-0.8-0.4-1.5-0.7-2.3-1.1
		c-0.5-0.2-1.1,0.1-1.3,0.6C315.3,174.4,315.5,175,316,175.2"/>
	<path class="st0" d="M318.3,168c0.6,0.5,1.3,1,1.9,1.5c1,0.8,2.3-0.9,1.3-1.6c-0.6-0.5-1.3-1-1.9-1.5
		C318.6,165.5,317.3,167.2,318.3,168"/>
	<path class="st0" d="M326.8,166.8c0,0.7,0.1,1.5,0.1,2.2c0,0.5,0.6,1,1.1,0.9c0.6-0.1,0.9-0.6,0.9-1.2c0-0.7-0.1-1.5-0.1-2.2
		c0-0.5-0.6-1-1.1-0.9C327.2,165.7,326.8,166.2,326.8,166.8"/>
	<path class="st0" d="M330.3,172c-0.3,0.6-0.6,1.1-0.9,1.7c-0.3,0.5,0,1.1,0.5,1.3c0.5,0.2,1.1-0.1,1.3-0.6c0.3-0.6,0.6-1.1,0.9-1.7
		c0.3-0.5,0-1.1-0.5-1.3C331.1,171.2,330.6,171.5,330.3,172"/>
	<path class="st0" d="M341.8,179.6c-0.6,0.5-1.3,1-1.9,1.5c-1.1,0.8,0.1,2.4,1.2,1.6c0.6-0.5,1.3-1,1.9-1.5
		C344,180.4,342.9,178.8,341.8,179.6"/>
	<path class="st0" d="M347.8,181c-0.6,0.6-1.3,1.1-2.1,1.4c-1.2,0.6-0.5,2.5,0.7,1.9c0.9-0.4,1.8-1,2.5-1.7c0.4-0.4,0.6-1,0.2-1.4
		C348.9,180.7,348.2,180.6,347.8,181"/>
	<path class="st0" d="M352.7,186.2c-1.1,0.1-2.2,0-3.2-0.3c-0.5-0.1-1.1,0.4-1.2,0.9c-0.1,0.6,0.3,1,0.8,1.1
		c1.2,0.3,2.5,0.4,3.8,0.2C354.2,188.2,354,186.1,352.7,186.2"/>
	<path class="st0" d="M350.8,192.3c-1-0.6-2-1.1-2.9-1.7c-0.5-0.3-1.1,0.1-1.3,0.6c-0.3,0.6,0,1.1,0.5,1.3c1,0.6,2,1.1,2.9,1.7
		c0.5,0.3,1.1-0.1,1.3-0.6C351.6,193,351.3,192.5,350.8,192.3"/>
	<path class="st0" d="M344.2,194.4c-1.3-1.6-2.5-3.3-3.8-4.9c-0.8-1-2.4,0.2-1.6,1.3c1.3,1.6,2.5,3.3,3.8,4.9
		C343.3,196.7,344.9,195.4,344.2,194.4"/>
	<path class="st0" d="M336.6,192.6c-0.7-0.5-1.4-1.1-2.1-1.6c-1-0.8-2.3,0.9-1.3,1.6c0.7,0.5,1.4,1.1,2.1,1.6
		C336.3,195,337.6,193.4,336.6,192.6"/>
</g>
<g>
	<path class="st3" d="M243,229.5c-0.6,0-1.1,0-1.7,0c-21,0-73.8,4.1-89.5-41.3c-14.3-41.7,39.2-105.6,48-115.8
		c0.8-0.9,1.2-1.4,1.2-1.4s-2.3-1.7,44.8-3.5c54.2,41.5,62.7,74.4,62.7,74.4C325.8,209.3,265.5,228.6,243,229.5z"/>
	<linearGradient id="SVGID_1_" gradientUnits="userSpaceOnUse" x1="149.4412" y1="150.9293" x2="242.9858" y2="150.9293">
		<stop  offset="3.597120e-03" style="stop-color:#565FA6"/>
		<stop  offset="1" style="stop-color:#8C79B4"/>
	</linearGradient>
	<path class="st4" d="M243,229.5c-0.6,0-1.1,0-1.7,0c-21,0-73.8,4.1-89.5-41.3c-14.3-41.7,39.2-105.6,48-115.8
		c2.2-0.3,4.4-0.2,6.5,0.4C207.1,73.1,96.5,214.6,243,229.5z"/>
	<path class="st5" d="M192.1,35.4c0,0,8.8-15,21.2-9.4c12.4,5.5,22.4,9.6,29,5.7s10-7.1,11.8,1.6c1.8,8.6-23,29.9-23,29.9
		S193.1,63.2,192.1,35.4z"/>
	
		<linearGradient id="SVGID_00000008827855030751039200000013154067962715634345_" gradientUnits="userSpaceOnUse" x1="223.7459" y1="39.5947" x2="206.2121" y2="103.6315">
		<stop  offset="3.597120e-03" style="stop-color:#565FA6"/>
		<stop  offset="1" style="stop-color:#8C79B4"/>
	</linearGradient>
	<path style="opacity:0.2;fill:url(#SVGID_00000008827855030751039200000013154067962715634345_);" d="M192.1,42
		c0,0,8.8-15,21.2-9.4c12.4,5.5,22.4,9.6,29,5.7s10-7.1,11.8,1.6c1.8,8.6-23,29.9-23,29.9S193.1,69.7,192.1,42z"/>
	<path class="st3" d="M255.9,56.7c-3.5,5.2-7.6,9.7-11.2,11.6c-4.5,2.3-12.6,3.7-20.6,4.3c-8,0.6-16.1,0.3-20.5-0.6l0,0
		c-1.1-0.2-2-0.5-2.5-0.8c0,0-14.2-22.6-14.4-33.1c-0.1-3.3,1.3-5.5,4.9-5.3c15.2,0.8,15.5,9.2,25.9,6.9
		c10.3-2.4,17.9-18.1,24.8-7.9c6.9,10.2,14.3-4.3,20.5,0.4C266.8,35.1,262.3,47.1,255.9,56.7z"/>
	<path class="st0" d="M200.2,69.7c0,0,27.9,8,46.2-2.5c1.6,2,2.4,2.6,2.4,2.6s-13.4,12.3-49.7,3.5C199.1,73.3,200,70.7,200.2,69.7z"
		/>
	
		<linearGradient id="SVGID_00000171689333107971306470000016305167455125100427_" gradientUnits="userSpaceOnUse" x1="186.6409" y1="54.4676" x2="255.9413" y2="54.4676">
		<stop  offset="3.597120e-03" style="stop-color:#565FA6"/>
		<stop  offset="1" style="stop-color:#8C79B4"/>
	</linearGradient>
	<path style="opacity:0.2;fill:url(#SVGID_00000171689333107971306470000016305167455125100427_);" d="M255.9,56.7
		c-3.5,5.2-7.6,9.7-11.2,11.6c-4.5,2.3-12.6,3.7-20.6,4.3l-20.5-0.6l0,0c-1.1-0.2-2-0.5-2.5-0.8c0,0-14.2-22.6-14.4-33.1
		c0.2-0.2,5.8-6.1,12.5,6.6c6.8,12.8,9.3,24,17.3,18.7c8.1-5.4,20.5-26.6,22.7-16.6c2.2,10-5.9,19.6,0,18
		C243.7,63.3,252.5,56.5,255.9,56.7z"/>
</g>
<g>
	<path class="st2" d="M91.2,129.4c0,0,15,72.7,45.4,105.7c10.3,11.2,20.3,16.9,28.9,19.6c17.9,5.6,35-12.6,31.3-33.2
		c-1.8-9.9-6.2-21.5-15.4-33.9C154.3,151.1,91.2,129.4,91.2,129.4"/>
	<path class="st0" d="M168.2,220.4c-2-2.4-4-4.8-6-7.2l11-35c-0.3-0.3-0.5-0.5-0.8-0.8c-3.7,11.6-7.3,23.3-11,34.9
		c-1.9-2.3-3.8-4.5-5.6-6.8c3.4-11.2,7.1-22.3,11.4-33.1c-0.3-0.2-0.5-0.5-0.8-0.7c-4.2,10.8-8,21.8-11.3,32.9
		c-1.8-2.2-3.6-4.4-5.4-6.5l10.7-31.4c-0.3-0.2-0.5-0.4-0.8-0.6L149,197.2c-1.9-2.3-3.8-4.6-5.7-6.8c2.6-10.1,5.6-20,8.9-29.8
		c-0.3-0.2-0.5-0.4-0.8-0.6c-3.3,9.7-6.2,19.5-8.8,29.5c-2-2.4-3.9-4.7-5.9-7.1c2.4-9,5.2-17.9,8.3-26.7c-0.3-0.2-0.6-0.4-0.8-0.5
		c-3.1,8.6-5.8,17.4-8.3,26.3c-1.6-1.9-3.2-3.8-4.8-5.7c1.9-8.2,4.2-16.4,6.7-24.4c-0.3-0.2-0.6-0.3-0.8-0.5
		c-2.5,7.9-4.7,15.9-6.7,24c-1.9-2.3-3.9-4.7-5.8-7c1.1-7.2,2.8-14.3,5.1-21.1c-0.3-0.2-0.6-0.3-0.9-0.5c-2.3,6.6-4,13.5-5.1,20.5
		c-0.7-0.8-1.3-1.6-2-2.4c0-0.2-0.2-0.4-0.3-0.4c-0.5-0.6-1-1.2-1.4-1.7c0.6-6.3,2.1-12.5,4.6-18.2c-0.3-0.1-0.6-0.3-0.9-0.4
		c-2.4,5.6-4,11.5-4.6,17.7c-1.5-1.7-2.9-3.5-4.4-5.2c0.8-5.1,2-10.2,3.5-15.1c-0.3-0.1-0.6-0.3-0.9-0.4c-1.4,4.8-2.6,9.6-3.4,14.6
		c-1.4-1.6-2.7-3.3-4.1-4.9c1-3.3,2-6.6,3-9.9c0.2-0.5,0.3-1.1,0.5-1.6c-0.3-0.1-0.6-0.3-0.9-0.4c-0.2,0.8-0.5,1.6-0.8,2.4
		c-0.9,2.9-1.8,5.8-2.7,8.7c-1.1-1.4-2.3-2.7-3.4-4.1c0.5-3.1,1-6.2,1.7-9.2c-0.3-0.1-0.6-0.3-0.9-0.4c-0.6,2.9-1.2,5.7-1.6,8.6
		c-1.3-1.6-2.7-3.2-4-4.8c0.3-1.9,0.8-3.8,1.3-5.7c-0.3-0.1-0.6-0.2-0.9-0.4c-0.4,1.7-0.8,3.4-1.1,5.1l-2.4-2.9
		c0.2-1.1,0.4-2.3,0.6-3.4c-0.3-0.1-0.6-0.2-0.9-0.4c-0.2,0.9-0.3,1.9-0.5,2.8c-1.2-1.4-2.4-2.9-3.6-4.3c-1.4-0.5-2.2-0.8-2.2-0.8
		s0.2,0.9,0.5,2.5c1.3,1.6,2.7,3.2,4,4.8c-1-0.2-2-0.3-2.9-0.3c0.1,0.3,0.2,0.7,0.3,1.1c1.3,0,2.5,0.2,3.8,0.5
		c0.9,1.1,1.9,2.3,2.8,3.4c-1.9-0.3-3.8-0.5-5.7-0.4c0.1,0.3,0.2,0.7,0.3,1.1c2,0,4.1,0.2,6.1,0.6c0.1,0,0.2,0,0.3-0.1
		c1.7,2.1,3.4,4.1,5.2,6.2c-3.3-0.3-6.6-0.5-9.9-0.5c0.1,0.4,0.2,0.7,0.3,1.1c3.5,0.1,7.1,0.3,10.6,0.6c1.5,1.9,3.1,3.7,4.6,5.6
		c-4.5-0.3-9.1-0.6-13.6-0.7c0.1,0.4,0.2,0.7,0.3,1.1c4.8,0.1,9.5,0.3,14.3,0.7c1.9,2.3,3.8,4.6,5.7,6.9c-6-0.7-12-1.1-18-1.3
		c0.1,0.4,0.2,0.7,0.3,1.1c6.3,0.2,12.5,0.7,18.7,1.4c1.3,1.5,2.5,3,3.8,4.5c-6.7,0.5-13.3,1-20,1.5c0.1,0.3,0.2,0.7,0.4,1
		c6.8-0.5,13.7-1,20.5-1.5c2.4,2.9,4.9,5.8,7.3,8.8c-8.5-0.9-17.1-1.4-25.6-1.2c0.1,0.4,0.3,0.7,0.4,1.1c8.8-0.1,17.5,0.4,26.2,1.4
		c2.2,2.7,4.4,5.3,6.7,8c-9.5,0.5-19.1,1-28.6,1.5c0.1,0.4,0.3,0.7,0.4,1.1l29.1-1.5c0.8,1,1.7,2,2.5,3.1l3.1,3.7
		c-10.4,0.8-20.9,1.6-31.3,2.4c0.2,0.3,0.3,0.7,0.5,1c10.6-0.8,21.1-1.6,31.7-2.4c1.6,1.9,3.2,3.8,4.8,5.7
		c-10.6,2-21.3,3.9-31.9,5.9c0.2,0.3,0.4,0.7,0.5,1c10.7-2,21.3-4,32-5.9c0.1,0,0.1,0,0.2-0.1c2.3,2.7,4.5,5.5,6.8,8.2
		c-11.6,1.8-23.1,3.6-34.7,5.3c0.2,0.3,0.4,0.7,0.6,1c11.6-1.8,23.2-3.6,34.9-5.4c1.7,2,3.4,4.1,5.1,6.1c-11,3.1-22.1,6.2-33.1,9.3
		c0.2,0.3,0.5,0.6,0.7,0.9c11-3.1,22.1-6.2,33.1-9.4c1.8,2.2,3.6,4.4,5.4,6.5c-10.3,4.3-20.8,7.9-31.5,10.9c0.3,0.3,0.6,0.6,0.9,0.9
		c10.6-3,21-6.6,31.3-10.9c2.9,3.5,5.9,7.1,8.8,10.6c-9.2,3.9-18.6,7.2-28.1,10.1c0.4,0.3,0.8,0.5,1.2,0.8
		c9.3-2.8,18.4-6.2,27.4-9.9c0.1,0,0.1-0.1,0.1-0.1c1.2,1.5,2.5,3,3.7,4.5c-7.2,3.4-14.5,6.9-21.7,10.3c0.5,0.2,0.9,0.3,1.4,0.5
		c7-3.3,14-6.7,21.1-10c1.2,1.5,2.4,2.9,3.7,4.4c0.6-0.6,1.1-1.1,1.6-1.8c-0.3-0.4-0.7-0.8-1-1.2c2.6-7.2,5.2-14.4,7.9-21.6
		c-0.1-0.7-0.2-1.4-0.3-2c-2.8,7.6-5.5,15.2-8.3,22.8c-1.1-1.3-2.2-2.6-3.3-4c3.2-9,6.4-18,9.6-27.1c-0.2-0.5-0.3-1-0.5-1.5
		c-3.3,9.2-6.6,18.5-9.8,27.7c-1.7-2-3.4-4.1-5.1-6.1c3.8-10.2,7.6-20.3,11.4-30.5c-0.2-0.4-0.4-0.8-0.6-1.2
		c-3.8,10.3-7.7,20.6-11.5,30.8c-1.5-1.8-3-3.6-4.4-5.3c0,0-0.1-0.1-0.1-0.1c3.6-11,7.6-21.9,12.2-32.4c-0.2-0.3-0.4-0.7-0.6-1
		c-4.6,10.6-8.7,21.5-12.3,32.6c-0.2-0.2-0.4-0.5-0.6-0.7c0-0.1-0.1-0.1-0.1-0.1c-1.2-1.5-2.5-3-3.7-4.5
		c3.1-12.1,6.6-24.1,10.7-35.8c-0.2-0.3-0.5-0.6-0.7-0.9C174.9,196.3,171.3,208.3,168.2,220.4"/>
</g>
<path class="st0" d="M371.2,243.4c0,0-3.5-24.9-11.9-25.3c-8.5-0.4-13.8,18.9-13.8,18.9s-4.4-37-16.3-37.8
	c-11.9-0.8-13.8,11.5-13.8,11.5s-3.3-20.5-16.5-20.9c-13.2-0.4-16.6,17.7-16.6,17.7c-2.2-20.1-23.2-15.1-28.5,1.9
	c-2.9,9.2-3.4,11.3-3.4,11.3s-9.2-13.4-15-14.3c-10.7-1.6-13.5,18.3-13.5,18.3s-3.8-24.8-15.4-23.9c-11.6,0.8-11.9,12.4-11.9,12.4
	s-0.9-17.2-11.6-16c-10.7,1.2-8.8,22.6-9.1,31.8c-0.3,9.3-8.5,22.5-23.5,7.6c-15.1-14.9-21,24.1-21,24.1l233.4,0
	C373.4,260.8,371.2,243.4,371.2,243.4"/>
<path class="st64" d="M254.4,162.1c-0.8-9-6.6-13.8-17.3-17l-1.9-20.2c5.4-0.1,9.1,1.4,11.1,2.4l1.9-6.9c-3.1-1.4-7.4-2.7-13.5-2.3
	l-0.9-9.8l-0.2,0l-6.1,0.6l-0.7,0.1l1,10.4c-8.7,2.5-13.8,9.3-13.1,17.5c0.8,8.2,6.7,12.3,16.1,15.3l2.1,22.8
	c-5.1,0.2-9.9-1.2-13.5-3.1l-1.8,7c3.8,2.2,10,3.5,15.9,3l0.9,10.2l6.4-0.6l0.4,0l-1-10.6C250.4,177.9,255.1,170,254.4,162.1z
	 M223.3,134.7c-0.3-3.1,1.1-6.6,5.1-8.5l1.5,16.3C225.7,140.6,223.7,138.4,223.3,134.7z M239.7,173.4l-1.8-18.9
	c4.7,2.1,7.3,4.9,7.7,9.2C246,167.9,243.7,171.5,239.7,173.4z"/>
</svg>
