<svg width="467" height="537" viewBox="0 0 467 537" fill="none" xmlns="http://www.w3.org/2000/svg">
<g id="Lama1">
<g id="Group">
<g id="Group_2">
<path id="Vector" d="M200.48 289.381C207.99 301.161 219.52 313.611 229.87 309.471C230.05 303.071 230.29 296.721 230.3 290.371C230.3 289.581 229.11 288.651 228.28 288.041C223.18 284.311 217.78 280.931 212.96 276.881C209.16 273.681 209.56 270.431 213.16 266.891C216.09 264.011 220.22 264.831 222.06 268.471C224.41 273.111 226.82 277.681 230.69 281.421C231.67 282.371 233.25 282.451 234.23 281.501C237.91 277.951 240.91 273.981 242.82 269.281C244.45 265.281 246.51 264.001 249.9 265.451C253.77 267.111 255.95 271.611 253.75 274.511C251.39 277.611 248.54 280.481 245.43 282.881C242.56 285.101 239.03 286.471 235.91 288.411C235.09 288.921 234.25 290.141 234.23 291.051C234.13 296.991 234.26 302.931 234.31 309.201C238.58 309.721 243.46 311.341 247.4 308.171C250.81 305.431 264.83 296.031 267.95 292.511C270.22 293.271 270.69 295.481 269.98 297.741C268.58 302.181 254.75 311.721 250.74 314.501C247.03 317.071 242.86 317.211 238.8 315.561C234.98 314.011 230.56 313.961 227.23 316.351C219.66 321.781 199.57 303.881 197.84 294.841C197.43 292.601 198 290.611 200.48 289.381Z" fill="#682470"/>
</g>
<g id="Group_3">
<path id="Vector_2" d="M340.86 268.391C339.24 265.711 337.64 263.011 335.73 259.811C342.23 260.561 345.49 259.381 348.15 255.531C350.79 251.691 350.58 247.601 348.43 243.681C347.05 241.161 345.26 238.841 343.55 236.501C341.33 233.451 338.78 230.611 336.77 227.441C332.62 220.911 330.97 213.611 329.86 205.751C335.66 207.671 340.36 211.341 346.92 210.841C341.97 202.551 337.24 194.641 332.13 186.081C341.87 191.301 346.49 192.401 353.08 191.191C351.42 184.761 347.92 179.401 342.89 175.101C337.89 170.821 332.53 166.941 327.14 162.751C327.9 161.411 328.64 160.121 329.36 158.821C330.13 157.421 330.88 156.001 331.65 154.601C342.59 134.771 346.86 118.461 346.61 96.5109C346.43 80.8109 343.13 65.2809 337.25 50.6709C332.14 37.9809 327.68 24.9909 318.94 14.0509C313.91 7.75089 307.95 2.63088 299.82 0.470884C294.27 -1.00912 290.3 1.02088 288.36 6.26088C287.37 8.94088 286.27 11.7809 286.22 14.5609C286.04 24.8809 285.74 35.2309 286.47 45.5109C287.84 64.8709 288.11 78.8909 282.75 97.7409C280.17 106.821 276.52 110.381 273.33 119.371C244.77 112.731 217.04 117.191 188.64 119.231C185.83 110.751 182.6 107.371 180.19 98.5409C178.4 91.9909 176.9 86.2109 176.53 79.4709C175.65 63.5109 175.8 54.3709 175.05 38.4109C174.59 28.6109 173.46 18.7809 169.15 9.69089C164.71 0.320886 155.76 -1.01912 148.5 6.54088C140.5 14.8809 136.19 25.4809 130.95 35.6809C127.12 43.1409 123.96 50.9509 121.82 59.0709C117.08 77.0409 116.3 90.9209 120.05 108.841C122.8 122.001 127.89 134.631 135.28 145.871C137.83 149.751 141.07 156.081 143.31 160.301C138.37 164.261 133.26 167.441 129.38 171.671C123.77 177.781 118.95 184.581 113.98 191.211C111.49 194.521 112.58 196.791 116.89 197.161C119.58 197.391 122.37 196.931 125.07 196.541C128.09 196.101 131.07 195.391 133.64 194.891C130.95 199.651 128.32 204.401 125.6 209.101C122.11 215.121 118.83 221.291 114.85 227.001C112.99 229.681 109.71 231.441 106.97 233.691C114.04 238.511 121.63 238.351 129.63 236.471C128.89 237.811 128.15 239.001 127.09 239.801C125.19 241.251 122.29 245.641 120.36 247.061C115.24 250.811 113.86 254.641 116.98 259.771C118.76 262.711 121.87 264.891 124.65 267.681C122.53 270.681 119.71 274.221 117.43 278.051C115.07 282.021 113.26 286.291 111.2 290.421C111.53 290.901 111.6 291.001 111.93 291.481L122.45 290.451C116.99 301.731 117.02 314.091 115.98 326.461C120.06 326.351 122.08 324.151 123.56 321.441C125.94 317.101 129.85 315.791 135.08 315.751C132.97 326.671 133.11 341.751 123.03 349.181C130.66 354.781 137.45 346.461 144.75 345.141C142.15 349.741 137.46 356.001 133.73 359.651C128.38 364.891 123.03 367.511 126.69 369.221C124.03 370.621 153.31 372.321 133.73 380.591C132.58 381.071 125.7 383.211 128.38 385.831C132.66 390.021 144.74 384.271 141.76 385.831C135.36 389.181 132.12 394.161 133.25 403.051C134.27 410.991 138.31 418.261 144.15 423.731C160 438.591 181.26 450.421 238.01 450.421C280.15 450.421 324.26 432.131 332.22 409.851L332.28 409.651C334.54 401.661 332.12 393.241 326.41 387.201C319.75 380.151 337.72 383.181 336.73 381.591C342.82 383.581 330.12 368.431 317.95 355.071C323.33 355.691 327.85 356.211 332.91 356.791C326.01 349.891 323.04 342.251 324.07 332.721C331.31 334.471 334.67 339.781 338.78 345.351C340.53 343.051 342.48 341.131 343.64 338.851C347.58 331.041 346.48 323.231 342.51 315.821C339.86 310.871 336.56 306.241 333.24 300.971C334.54 301.101 335.54 300.961 336.28 301.321C339.37 302.791 342.27 302.281 345.15 300.831C350.82 297.971 353.35 291.111 350.23 284.091C347.77 278.571 344.02 273.601 340.86 268.391ZM275.02 216.881C277.2 220.641 278.9 224.401 281.36 227.621C285.65 233.231 290.99 234.091 297.37 230.911C303.05 228.081 306.03 223.251 308.09 217.711C308.62 216.281 308.98 214.801 309.53 212.951C311.1 212.971 312.72 213.001 314.28 213.021C317.92 227.711 302.34 244.531 288.17 241.161C278.84 238.941 273.55 232.041 269.66 224.041C269.1 222.881 268.75 221.621 268.35 220.381C268.21 219.951 268.23 219.471 268.12 218.601C270.7 217.981 273.02 217.391 275.02 216.881ZM214.84 230.431C228.85 221.521 238.24 222.671 251.15 231.191C259.95 237.001 265.7 245.141 269.44 254.501C273.36 264.321 277.4 274.231 279.86 284.441C283.46 299.391 280.04 310.261 263.24 321.361C263.06 321.481 262.85 321.561 262.66 321.671C257.95 324.271 253.49 326.791 250.15 331.421C242.6 341.891 220.2 342.381 211.7 329.411C209.5 326.061 206.62 324.441 203.48 322.601C192.8 316.341 183.9 308.491 183.55 295.511C183.38 289.271 184.69 282.761 186.61 276.751C189.68 267.121 193.81 257.811 197.5 248.371C202.1 241.171 207.55 235.071 214.84 230.431ZM149.93 213.001C154.14 211.621 155.6 213.201 156.36 216.691C157.8 223.251 161.36 228.501 167.82 231.591C172.32 233.741 176.88 233.531 180.26 229.951C183.47 226.551 185.91 222.451 189.04 218.171C190.47 218.591 192.8 219.291 195.1 219.971C194.26 229.001 182.73 240.841 173.28 241.581C167.31 242.051 162.36 239.831 158.26 235.791C151.84 229.481 148.61 222.071 149.93 213.001Z" fill="#682470"/>
</g>
<path id="Vector_3" d="M63.75 141.911L67.06 144.571C66.84 145.271 67.07 146.131 67.74 147.131C72.52 152.711 77.48 157.541 82.63 161.621C88.22 166.041 94.16 169.701 100.48 172.601C101.09 172.761 101.65 172.681 102.18 172.371L105.36 174.881C95.76 187.071 90.31 193.991 89.01 195.631L88.48 196.301C81.1 203.551 75.21 205.431 70.81 201.951L70.08 201.371L74.79 188.791C80.86 192.271 84.67 193.041 86.22 191.091L86.73 190.441C88.96 187.631 86.68 183.171 79.9 177.051L78.53 176.001C78.2 178.561 77.24 180.841 75.66 182.841C73.81 185.171 71.18 186.521 67.78 186.871C66.42 186.691 65.2 186.171 64.11 185.311C62.32 183.901 60.73 181.251 59.34 177.381C63.58 176.761 66.68 175.771 68.64 174.401C69.83 173.501 70.8 172.581 71.54 171.641L72 171.061L65.08 165.851C60.7 162.381 56.89 161.321 53.68 162.671L49.77 159.581L63.75 141.911Z" fill="#7D7DBB"/>
<path id="Vector_4" d="M51.45 216.041C52.25 219.661 52 222.891 50.7 225.751C49.43 228.531 47.08 230.461 43.64 231.541C42.28 231.691 40.97 231.481 39.7 230.901C37.63 229.951 35.45 227.761 33.18 224.331C37.15 222.721 39.93 221.021 41.5 219.221C42.45 218.041 43.18 216.901 43.68 215.791C44.2 214.671 44.47 213.761 44.49 213.061L36.9 209.791C30 206.641 25.39 207.411 23.07 212.121C22.42 213.911 24.93 216.701 30.59 220.471L25.59 232.691C19.34 229.591 16.08 224.611 15.79 217.741L29.68 187.901L30.11 186.971L33.79 188.651C33.73 189.311 34.02 189.961 34.65 190.601C40.69 195.041 46.79 198.671 52.95 201.491C59.77 204.611 66.64 206.831 73.54 208.161C74.15 208.161 74.67 207.951 75.1 207.541L78.78 209.221C72.37 223.351 68.73 231.371 67.86 233.271L67.51 234.051C62.08 242.851 56.8 246.081 51.69 243.751L50.85 243.361L52.43 230.021C59.16 231.951 63.04 231.791 64.07 229.531L64.41 228.781C65.9 225.521 62.42 221.641 53.98 217.131L51.45 216.041Z" fill="#7D7DBB"/>
<path id="Vector_5" d="M57.61 267.551L52.92 278.531C52.54 279.521 52.26 280.471 52.1 281.401C51.69 283.651 52.08 285.891 53.27 288.121C51.89 288.651 50.24 288.741 48.3 288.381C47.39 288.211 45.66 287.801 43.11 287.121C40.57 286.451 39.17 283.661 38.91 278.761L39 278.241C39.79 273.881 43.66 270.701 50.62 268.671C52.22 267.431 53.2 265.781 53.57 263.741C53.3 261.621 52.02 260.271 49.72 259.701C46.74 259.161 41.09 265.841 32.76 279.741C29.66 284.431 25.38 287.141 19.92 287.861C18.5 287.861 17.61 287.831 17.24 287.761C8.61999 286.191 3.74999 280.601 2.61999 270.971C2.46999 268.201 2.50999 266.211 2.71999 265.021L3.80999 259.001C5.57999 249.271 10.22 243.741 17.75 242.421C18.42 242.201 19.14 242.171 19.93 242.311C26.22 243.451 28.83 246.941 27.77 252.781C26.98 256.381 25.23 259.271 22.52 261.451C21.39 257.541 19.68 255.381 17.39 254.961C16.65 254.831 15.15 254.961 12.9 255.371C10.65 255.781 9.1 258.261 8.27 262.831L8.18999 263.291C8.02999 268.121 9.53999 270.821 12.72 271.401L14.58 271.741C19.8 272.691 25.45 266.721 31.53 253.821C35.18 249.311 39.31 246.871 43.92 246.511C44.47 246.591 44.99 246.681 45.49 246.771C55.75 248.641 59.79 255.561 57.61 267.551Z" fill="#7D7DBB"/>
<path id="Vector_6" d="M36.03 291.641L36.76 291.541L37.26 291.511C46.34 291.121 51.43 295.121 52.53 303.521C52.61 304.141 52.68 304.881 52.73 305.751C52.78 306.611 52.82 307.591 52.84 308.691L53.87 327.971C53.88 328.441 53.9 328.911 53.92 329.381C54.05 331.491 54.58 334.101 55.5 337.211L52.36 337.961C45.21 337.351 41.08 333.511 39.98 326.451L39.86 325.131C36.99 324.991 33.14 325.071 28.31 325.371C15.46 326.171 7.64 327.921 4.87 330.621L1.29 330.841L0 310.021L3.58 309.801C5.77 311.531 12.45 312.051 23.62 311.351L25.97 311.201C26.97 311.161 27.93 311.111 28.85 311.051C33.51 310.761 37.28 310.341 40.17 309.791C40.97 306.991 41.31 304.611 41.19 302.631C41.06 300.561 40.41 298.951 39.26 297.801C37.22 295.991 36.14 294.121 36.02 292.201C36.02 292.011 36.01 291.821 36.03 291.641Z" fill="#7D7DBB"/>
<path id="Vector_7" d="M14.39 373.641L10.92 374.561L5.57996 354.391L9.03996 353.471C11.53 354.741 18.18 353.941 29 351.071L31.28 350.471C32.29 350.221 33.27 349.971 34.21 349.731C44.41 347.031 50.87 344.301 53.6 341.551L57.24 340.531L62.43 360.801L58.9 361.861C56.67 359.841 49.26 360.491 36.66 363.831C24.01 367.171 16.59 370.451 14.39 373.641Z" fill="#7D7DBB"/>
<path id="Vector_8" d="M60.18 364.701L70.78 385.521L67.23 387.261C65.76 386.231 63.6 386.191 60.73 387.141C57.26 389.301 49.95 396.171 38.79 407.741C51.71 404.941 60.67 402.271 65.65 399.731C66.12 399.491 66.56 399.251 66.95 399.001C68.98 397.971 70.42 396.141 71.28 393.531L74.28 391.971L81.57 406.561L78.66 408.011C74.6 406.471 68.26 406.581 59.65 408.331C49.37 410.621 41.85 412.981 37.08 415.411C35.79 416.881 34.8 418.331 34.09 419.771L30.95 421.211L19.22 397.971L21.66 396.631C24.97 396.201 27.44 395.561 29.1 394.721L30.37 394.071C34.34 391.781 41.82 384.831 52.81 373.211C55.12 370.641 56.62 368.341 57.28 366.281L60.18 364.701Z" fill="#7D7DBB"/>
<path id="Vector_9" d="M70.1601 433.871C67.9801 435.101 65.3501 436.561 62.2801 438.241C59.7001 439.761 57.2101 441.561 54.7901 443.631L54.4401 443.931C53.6501 444.611 53.3201 445.271 53.4401 445.921L50.6101 448.391L41.1801 437.431L43.9201 434.881C45.1701 435.621 47.2101 435.681 50.0501 435.081C55.8601 433.701 61.9101 431.311 68.1801 427.931C68.0901 427.521 68.0001 426.941 67.9101 426.191C67.7801 425.291 67.5301 424.631 67.1601 424.201C66.5201 423.461 65.1501 423.471 63.0301 424.231C61.9001 421.761 62.1301 419.651 63.7201 417.901C68.6001 414.141 72.9 414.351 76.62 418.551C77.7 420.021 78.39 421.231 78.65 422.191C80.07 421.361 81.5701 420.361 83.1601 419.201L90.1401 412.611L105.2 430.361C104.05 431.321 103.08 432.151 102.29 432.831C93.2501 440.611 86.1101 449.031 80.8601 458.091C76.4001 465.221 74.4701 469.131 75.0801 469.851L71.7201 472.971L57.3801 456.311L60.12 453.951C61.22 454.041 63.0001 453.021 65.4601 450.901C65.8101 450.601 66.1701 450.271 66.5501 449.931C69.5701 447.331 72.4901 444.541 75.3301 441.561C75.0101 441.291 74.5501 440.811 73.9501 440.111C72.8001 438.771 71.8101 437.271 70.9901 435.601C70.5701 434.741 70.2801 434.171 70.1601 433.871ZM89.4601 424.391C90.2101 423.131 90.5401 422.441 90.4501 422.341C90.2801 422.151 88.84 422.911 86.12 424.631C84.13 425.851 81.85 427.211 79.26 428.711C79.17 431.091 79.5401 433.581 80.3501 436.181C83.2801 432.811 86.3101 428.881 89.4601 424.391Z" fill="#7D7DBB"/>
<path id="Vector_10" d="M124.61 494.361C121.04 499.421 115.39 500.871 107.67 498.721C106.1 498.291 104.09 497.251 101.62 495.621C100.92 495.121 98.46 493.341 94.24 490.281L80.71 480.711L82.78 477.791C85.5 477.171 90.09 472.291 96.55 463.151L97.91 461.231C98.53 460.391 99.11 459.581 99.68 458.781C105.77 450.161 108.99 443.931 109.31 440.071L111.44 436.951L128.43 449.171L126.4 452.251C123.39 452.131 118.12 457.381 110.6 468.021C105.24 475.611 101.89 481.371 100.57 485.311C102.64 487.741 104.76 489.751 106.92 491.321C109.08 492.891 111.24 492.581 113.38 490.381C115.52 488.181 114.98 485.241 111.76 481.551C113.98 476.241 117.12 473.631 121.17 473.741C125.22 473.841 127.95 477.011 129.34 483.261C129.23 486.161 127.65 489.871 124.61 494.361Z" fill="#7D7DBB"/>
<path id="Vector_11" d="M198.03 520.071C196.43 526.051 191.63 529.371 183.65 530.021C182.03 530.161 179.78 529.891 176.9 529.211C176.07 528.991 173.14 528.171 168.13 526.761L152.12 522.471L153.05 519.011C155.39 517.481 158 511.311 160.9 500.501L161.51 498.221C161.8 497.221 162.07 496.251 162.32 495.311C165.05 485.121 165.9 478.161 164.87 474.421L165.79 470.751L185.96 476.321L185.12 479.911C182.26 480.841 179.14 487.591 175.77 500.181C173.37 509.151 172.23 515.721 172.35 519.871C175.13 521.441 177.82 522.591 180.39 523.311C182.96 524.031 184.88 522.991 186.12 520.191C187.37 517.391 185.84 514.811 181.54 512.471C181.78 506.721 183.82 503.191 187.66 501.881C191.5 500.571 195.15 502.601 198.62 507.981C199.51 510.781 199.31 514.811 198.03 520.071Z" fill="#7D7DBB"/>
<path id="Vector_12" d="M221.14 511.361C220.6 513.811 219.93 516.731 219.14 520.151C218.55 523.081 218.23 526.141 218.17 529.321L218.16 529.781C218.14 530.821 218.41 531.511 218.97 531.851L218.92 535.601L204.47 535.311L204.4 531.561C205.78 531.121 207.19 529.651 208.63 527.131C211.48 521.881 213.74 515.781 215.4 508.851C215.04 508.641 214.54 508.321 213.92 507.891C213.16 507.391 212.51 507.131 211.93 507.121C210.95 507.101 210.04 508.131 209.19 510.221C206.6 509.421 205.18 507.841 204.94 505.491C205.4 499.351 208.42 496.291 214.03 496.311C215.85 496.481 217.2 496.781 218.1 497.221C218.42 495.611 218.68 493.831 218.88 491.861L218.63 482.261L241.89 482.901C241.84 484.401 241.81 485.671 241.79 486.721C241.54 498.641 243.05 509.581 246.3 519.531C248.63 527.611 250.26 531.661 251.2 531.681L251.28 536.261L229.3 535.821L229.37 532.201C230.17 531.441 230.6 529.441 230.67 526.191C230.68 525.731 230.68 525.241 230.67 524.731C230.75 520.751 230.63 516.711 230.3 512.611C229.89 512.671 229.22 512.691 228.3 512.671C226.53 512.631 224.76 512.371 222.97 511.871C222.06 511.651 221.45 511.481 221.14 511.361ZM226.97 490.671C226.53 489.271 226.23 488.571 226.1 488.561C225.84 488.551 225.45 490.141 224.92 493.311C224.5 495.601 223.99 498.221 223.38 501.141C225.09 502.791 227.19 504.181 229.68 505.321C229.11 500.891 228.21 496.011 226.97 490.671Z" fill="#7D7DBB"/>
<path id="Vector_13" d="M301.35 470.531L302.29 473.481C300.82 476.591 301.06 481.971 303.02 489.601C306.79 504.341 310.49 513.601 314.11 517.381L316.42 517.991C316.82 519.241 317.07 520.071 317.18 520.501C317.37 521.251 317.06 521.731 316.25 521.941L316.2 521.881L295.28 527.241L294.02 523.281C294.68 523.271 295.03 523.261 295.04 523.261C295.99 523.021 295.85 519.621 294.61 513.061L293.1 507.181C292.05 503.071 290.58 498.611 288.7 493.821C287.31 499.911 286.74 512.301 287 531.001C283.16 526.111 279.59 520.961 276.27 515.531C272.96 510.101 269.55 504.281 266.04 498.081C266.49 505.381 267.62 512.541 269.41 519.551C270.54 523.971 273.05 526.851 276.93 528.201L277.74 531.731L261.55 535.881L260.66 532.411C264.42 528.711 263.73 516.781 258.57 496.641C256.92 491.701 255.07 488.541 253.02 487.171L251.97 483.061L273.74 477.591L274.58 481.001C274.16 482.731 274.04 484.001 274.25 484.821C274.86 487.201 276.08 489.801 277.92 492.611C279.88 495.991 281.37 498.461 282.4 500.031L284.54 483.651C283.58 481.711 282.19 480.581 280.37 480.271L279.28 476.131L301.35 470.531Z" fill="#7D7DBB"/>
<path id="Vector_14" d="M331.11 486.841C331.92 489.211 332.87 492.061 333.96 495.391C334.98 498.201 336.29 500.981 337.89 503.741L338.12 504.141C338.64 505.041 339.23 505.491 339.89 505.491L341.8 508.721L329.3 515.981L327.29 512.811C328.24 511.721 328.68 509.731 328.61 506.831C328.32 500.861 327.08 494.481 324.91 487.691C324.49 487.711 323.9 487.681 323.15 487.641C322.25 487.601 321.55 487.731 321.05 488.011C320.21 488.501 319.96 489.861 320.32 492.081C317.69 492.741 315.66 492.131 314.23 490.241C311.43 484.761 312.43 480.571 317.23 477.681C318.87 476.881 320.19 476.441 321.18 476.351C320.62 474.811 319.92 473.141 319.07 471.361L313.88 463.291L334.1 451.751C334.84 453.061 335.47 454.171 335.99 455.071C341.97 465.381 348.94 473.951 356.88 480.771C363.06 486.471 366.56 489.081 367.37 488.611L369.82 492.481L350.81 503.511L349 500.381C349.29 499.321 348.62 497.381 346.99 494.571C346.76 494.171 346.5 493.751 346.23 493.321C344.23 489.881 342.03 486.491 339.62 483.151C339.3 483.421 338.74 483.781 337.94 484.241C336.42 485.131 334.76 485.821 332.96 486.321C332.05 486.601 331.44 486.781 331.11 486.841ZM325.34 466.131C324.24 465.161 323.62 464.711 323.51 464.781C323.29 464.911 323.78 466.471 324.97 469.461C325.8 471.631 326.72 474.141 327.72 476.951C330.04 477.471 332.55 477.571 335.26 477.251C332.48 473.761 329.18 470.051 325.34 466.131Z" fill="#7D7DBB"/>
<path id="Vector_15" d="M399.72 445.541C404 450.021 404.35 455.841 400.76 463.001C400.04 464.451 398.64 466.241 396.56 468.341C395.94 468.941 393.72 471.011 389.91 474.571L377.93 486.031L375.45 483.441C375.36 480.651 371.45 475.211 363.71 467.121L362.08 465.421C361.38 464.661 360.69 463.921 360.02 463.221C352.73 455.591 347.22 451.251 343.49 450.191L340.83 447.501L356.07 433.161L358.7 435.741C358.01 438.671 362.16 444.841 371.17 454.261C377.59 460.971 382.61 465.361 386.22 467.411C389.01 465.841 391.38 464.151 393.34 462.331C395.3 460.511 395.4 458.331 393.65 455.811C391.9 453.291 388.91 453.261 384.68 455.721C379.89 452.521 377.93 448.951 378.81 444.991C379.69 441.031 383.32 438.961 389.71 438.791C392.56 439.451 395.9 441.711 399.72 445.541Z" fill="#7D7DBB"/>
<path id="Vector_16" d="M404.61 420.771C406.43 422.501 408.59 424.581 411.1 427.031C413.3 429.051 415.75 430.911 418.44 432.611L418.83 432.851C419.71 433.411 420.44 433.531 421.03 433.231L424.21 435.211L416.49 447.431L413.24 445.551C413.58 444.141 413.04 442.171 411.64 439.641C408.62 434.491 404.57 429.401 399.5 424.391C399.13 424.601 398.6 424.861 397.91 425.161C397.09 425.551 396.53 425.981 396.23 426.461C395.7 427.291 396.12 428.601 397.46 430.411C395.43 432.211 393.35 432.611 391.21 431.601C386.19 428.031 385.14 423.861 388.06 419.071C389.15 417.601 390.11 416.601 390.94 416.061C389.74 414.951 388.34 413.801 386.76 412.621L378.42 407.871L391 388.281C392.26 389.101 393.33 389.791 394.21 390.341C404.29 396.711 414.43 401.081 424.63 403.451C432.75 405.631 437.05 406.331 437.56 405.541L441.52 407.841L429.78 426.421L426.72 424.491C426.49 423.411 424.99 422.011 422.24 420.271C421.85 420.021 421.43 419.771 420.99 419.521C417.63 417.391 414.1 415.411 410.42 413.571C410.26 413.951 409.93 414.531 409.43 415.311C408.49 416.801 407.34 418.181 405.98 419.461C405.34 420.131 404.88 420.571 404.61 420.771ZM389.92 405.091C388.49 404.741 387.74 404.631 387.66 404.741C387.52 404.961 388.68 406.111 391.12 408.211C392.87 409.751 394.84 411.541 397.03 413.581C399.33 412.971 401.6 411.901 403.86 410.351C399.78 408.531 395.13 406.781 389.92 405.091Z" fill="#7D7DBB"/>
<path id="Vector_17" d="M456.04 367.981C454.2 374.491 453.09 378.281 452.74 379.361C450.08 387.411 443.11 392.081 431.84 393.351C428.62 393.511 424.94 392.901 420.8 391.541C409.06 387.671 402.27 380.601 400.44 370.341C400.27 366.671 400.6 363.611 401.41 361.131L401.43 361.071C401.7 360.251 403.25 357.641 406.08 353.231C407.05 351.411 407.89 349.461 408.57 347.371L408.69 347.011C409.11 345.461 409.22 343.281 409.03 340.471C410.71 340.181 412.01 340.181 412.94 340.491C420.01 343.341 423.27 347.131 422.71 351.851L422.42 352.721C420.92 357.261 415.87 359.821 407.27 360.411C406.5 361.041 406.01 361.691 405.79 362.341C405.61 362.881 405.68 363.441 406 364.021C406.9 366.241 410.22 368.291 415.95 370.181L432.46 375.631C437.99 377.451 442.86 377.671 447.09 376.281C448.21 375.491 448.94 374.601 449.27 373.601L450.75 368.271C450.86 366.221 448.36 363.711 443.25 360.721C440.81 360.351 438.98 362.021 437.76 365.721L437.49 366.531C436.42 366.671 435.65 366.671 435.19 366.511C430.29 363.001 428.74 358.541 430.51 353.151L430.92 351.891C433.34 347.101 438.38 345.571 446.06 347.321C454.05 349.941 457.37 356.831 456.04 367.981Z" fill="#7D7DBB"/>
<path id="Vector_18" d="M439.93 323.651C442.35 324.291 445.25 325.091 448.62 326.031C451.52 326.751 454.57 327.201 457.74 327.411L458.21 327.441C459.25 327.501 459.95 327.271 460.32 326.721L464.06 326.931L463.14 341.361L459.39 341.271C459.01 339.871 457.6 338.401 455.15 336.851C450.03 333.781 444.03 331.261 437.17 329.291C436.95 329.651 436.61 330.131 436.15 330.731C435.61 331.461 435.33 332.111 435.29 332.681C435.23 333.661 436.22 334.611 438.27 335.551C437.35 338.101 435.72 339.451 433.36 339.601C427.24 338.881 424.32 335.721 424.59 330.121C424.84 328.311 425.2 326.971 425.68 326.101C424.09 325.701 422.31 325.371 420.36 325.091L410.76 324.921L412.4 301.701C413.9 301.811 415.17 301.911 416.21 301.971C428.11 302.731 439.1 301.701 449.19 298.881C457.36 296.911 461.48 295.451 461.54 294.511L466.12 294.621L464.73 316.561L461.12 316.331C460.4 315.501 458.41 314.981 455.17 314.771C454.71 314.741 454.22 314.721 453.71 314.711C449.74 314.461 445.69 314.411 441.58 314.561C441.62 314.971 441.61 315.641 441.55 316.561C441.44 318.321 441.09 320.081 440.52 321.851C440.25 322.731 440.05 323.341 439.93 323.651ZM419.5 316.931C418.08 317.311 417.37 317.571 417.36 317.711C417.34 317.971 418.91 318.431 422.06 319.101C424.33 319.621 426.92 320.241 429.82 320.981C431.55 319.341 433.02 317.311 434.26 314.871C429.81 315.231 424.89 315.921 419.5 316.931Z" fill="#7D7DBB"/>
<path id="Vector_19" d="M442.17 271.571C450.79 269.771 456.15 267.601 458.25 265.071L461.78 264.451L465.36 285.011L461.83 285.621C459.46 284.141 452.77 284.371 441.74 286.291L439.42 286.691C438.39 286.851 437.4 287.011 436.44 287.181C426.04 288.991 419.37 291.151 416.41 293.651L412.69 294.361L409.26 273.721L412.87 272.971C414.62 274.851 420.14 275.141 429.46 273.841C430.49 271.911 431.11 270.071 431.32 268.321C431.42 267.051 431.43 266.151 431.36 265.631C421.76 267.341 415.5 269.431 412.61 271.881L408.9 272.591L405.47 251.951L409.08 251.201C411.13 253.411 418.57 253.391 431.4 251.161C444.3 248.911 451.98 246.291 454.44 243.301L457.97 242.681L461.55 263.241L458.02 263.861C455.77 262.461 449.99 262.531 440.64 264.081C441.39 265.131 441.9 266.451 442.17 268.051C442.49 269.751 442.48 270.921 442.17 271.571Z" fill="#7D7DBB"/>
<path id="Vector_20" d="M420.82 190.571C426.44 187.951 432.06 189.491 437.69 195.181C438.84 196.331 440.08 198.231 441.41 200.871C441.77 201.651 443.03 204.421 445.17 209.171L452.17 224.191L448.92 225.701C446.25 224.891 439.84 226.851 429.7 231.581L427.57 232.581C426.62 233.001 425.7 233.421 424.82 233.831C415.26 238.291 409.37 242.111 407.18 245.301L403.78 246.951L395.09 227.921L398.38 226.261C400.93 227.861 408.11 225.911 419.92 220.401C428.34 216.471 434.1 213.131 437.21 210.361C436.62 207.221 435.78 204.431 434.68 201.991C433.58 199.551 431.56 198.761 428.61 199.601C425.66 200.451 424.67 203.271 425.64 208.071C421.08 211.581 417.06 212.291 413.6 210.181C410.13 208.081 409.34 203.971 411.22 197.861C412.75 195.401 415.96 192.971 420.82 190.571Z" fill="#7D7DBB"/>
<path id="Vector_21" d="M399.01 178.001C401.23 176.841 403.9 175.471 407.02 173.881C409.64 172.451 412.19 170.731 414.67 168.731L415.03 168.441C415.84 167.791 416.2 167.141 416.1 166.491L419 164.111L428.07 175.371L425.24 177.841C424.02 177.061 421.98 176.931 419.13 177.441C413.28 178.641 407.15 180.831 400.77 184.011C400.85 184.431 400.92 185.011 400.99 185.761C401.09 186.661 401.32 187.331 401.68 187.771C402.3 188.531 403.67 188.571 405.81 187.871C406.86 190.371 406.57 192.471 404.92 194.171C399.93 197.771 395.63 197.421 392.05 193.111C391.01 191.611 390.37 190.371 390.13 189.411C388.69 190.191 387.15 191.141 385.52 192.261L378.33 198.621L363.86 180.401C365.04 179.471 366.04 178.681 366.85 178.031C376.13 170.551 383.54 162.361 389.07 153.471C393.76 146.491 395.81 142.641 395.22 141.911L398.67 138.901L412.47 156.011L409.65 158.281C408.56 158.161 406.74 159.121 404.21 161.161C403.85 161.451 403.47 161.761 403.09 162.101C399.99 164.601 396.97 167.291 394.05 170.181C394.36 170.461 394.8 170.961 395.38 171.671C396.49 173.041 397.42 174.581 398.19 176.271C398.63 177.111 398.9 177.681 399.01 178.001ZM379.42 186.841C378.63 188.081 378.28 188.751 378.36 188.861C378.52 189.061 379.99 188.341 382.76 186.711C384.78 185.561 387.12 184.271 389.75 182.851C389.92 180.481 389.63 177.981 388.9 175.351C385.87 178.631 382.7 182.461 379.42 186.841Z" fill="#7D7DBB"/>
<g id="Group_4">
<g id="Group_5">
<path id="Vector_22" d="M335.24 161.091C338.42 156.351 341.27 151.831 343.73 147.151C346.23 142.521 348.32 137.791 349.96 132.921C351.6 128.071 352.97 123.101 353.71 117.911C354.25 115.331 354.44 112.691 354.78 109.991C355.16 107.281 355.08 104.571 355.58 101.671C356.8 104.221 357.91 106.901 358.62 109.681C359.18 112.471 359.88 115.331 359.87 118.241C360.25 124.051 359.26 129.951 357.37 135.491C355.49 141.041 352.55 146.211 348.8 150.631C345.04 155.011 340.55 158.841 335.24 161.091Z" fill="#EA5D7B"/>
</g>
<g id="Group_6">
<path id="Vector_23" d="M337.58 165.321C343.7 162.491 349.05 159.691 353.79 155.951C356.15 154.101 358.43 152.131 360.5 149.851C362.71 147.661 364.55 145.141 366.87 142.581C366.58 145.961 365.58 149.321 363.81 152.291C362.14 155.331 359.73 157.961 356.98 160.091C354.23 162.241 351.07 163.831 347.75 164.761C344.44 165.671 340.95 166.051 337.58 165.321Z" fill="#EA5D7B"/>
</g>
<path id="Vector_24" d="M134.12 159.371C128.61 157.661 123.76 154.301 119.59 150.321C115.42 146.301 111.97 141.451 109.55 136.111C107.11 130.791 105.54 125.021 105.34 119.201C105.04 116.311 105.45 113.401 105.73 110.561C106.16 107.721 107 104.951 107.95 102.281C108.73 105.111 108.92 107.821 109.57 110.481C110.17 113.131 110.62 115.741 111.42 118.251C112.68 123.341 114.54 128.141 116.65 132.811C118.76 137.491 121.32 141.981 124.27 146.341C127.2 150.761 130.48 154.971 134.12 159.371Z" fill="#EA5D7B"/>
<path id="Vector_25" d="M132.21 163.811C128.93 164.881 125.42 164.851 122.04 164.281C118.65 163.691 115.34 162.421 112.39 160.551C109.44 158.701 106.78 156.331 104.81 153.471C102.76 150.691 101.42 147.451 100.79 144.121C103.35 146.431 105.44 148.761 107.86 150.721C110.15 152.781 112.61 154.511 115.15 156.111C120.24 159.361 125.83 161.611 132.21 163.811Z" fill="#EA5D7B"/>
<path id="Vector_26" d="M362.08 207.361C370.89 218.571 378.17 231.091 383.56 244.471C389 257.831 392.35 272.061 393.94 286.501C395.42 300.971 394.79 315.651 392.36 330.091C391.04 337.281 389.39 344.451 387.02 351.391C385.98 354.911 384.54 358.301 383.28 361.751C381.8 365.111 380.46 368.541 378.77 371.801C366.03 398.341 345.5 421.101 320.56 437.021C295.58 452.901 266.08 461.731 236.42 462.121C206.79 462.481 176.99 454.721 151.59 439.461C126.25 424.201 105.03 402.111 91.4801 375.951C84.7801 362.871 79.6001 348.991 76.7601 334.611C73.7501 320.281 72.9701 305.581 73.9201 291.091C76.0601 262.101 86.3901 233.921 103.5 211.071C88.8401 235.521 80.6501 263.431 80.3301 291.381C79.8001 319.321 86.8901 347.071 100.44 371.071C114.15 394.971 134.03 415.241 157.85 428.781C163.76 432.241 169.95 435.151 176.24 437.831C182.57 440.411 189.06 442.561 195.67 444.311C208.9 447.651 222.58 449.371 236.24 449.061C263.59 448.941 290.71 440.871 314.02 426.561C319.91 423.071 325.42 418.971 330.79 414.721C336.09 410.371 341.1 405.671 345.82 400.691C355.11 390.601 363.3 379.411 369.72 367.211C382.64 342.861 388.92 314.891 387.58 286.981C386.97 273.031 384.49 259.111 380.18 245.701C375.85 232.291 369.78 219.371 362.08 207.361Z" fill="#EA5D7B"/>
<g id="Group_7">
<path id="Vector_27" d="M210.1 44.7109C212.1 42.9809 213.79 41.2009 215.14 39.3709C216.5 37.5309 217.18 35.7909 217.18 34.1209C217.18 33.1209 216.94 32.3309 216.48 31.7709C216.01 31.2109 215.32 30.9209 214.42 30.9209C213.48 30.9209 212.75 31.3109 212.24 32.0709C211.72 32.8409 211.48 33.9609 211.51 35.4309H202.29C202.39 32.6409 203.02 30.3309 204.18 28.4909C205.34 26.6509 206.86 25.3109 208.74 24.4409C210.62 23.5809 212.7 23.1509 215 23.1509C218.98 23.1509 221.94 24.1109 223.88 26.0209C225.82 27.9309 226.79 30.4109 226.79 33.4509C226.79 36.7109 225.66 39.7709 223.42 42.6309C221.17 45.4809 218.37 48.0409 215 50.3009H227.13V57.7809H202.39V50.8609C205.52 48.4909 208.09 46.4409 210.1 44.7109Z" fill="#EA5D7B"/>
<path id="Vector_28" d="M238.52 27.8209C240.78 24.7209 244.34 23.1609 249.19 23.1609C254.04 23.1609 257.61 24.7109 259.89 27.8209C262.17 30.9309 263.31 35.1809 263.31 40.5709C263.31 46.0309 262.18 50.3109 259.92 53.4109C257.66 56.5109 254.08 58.0709 249.2 58.0709C244.32 58.0709 240.75 56.5209 238.5 53.4109C236.25 50.3009 235.13 46.0209 235.13 40.5709C235.13 35.1809 236.26 30.9309 238.52 27.8209ZM252.98 34.1009C252.36 32.6109 251.1 31.8709 249.19 31.8709C247.28 31.8709 246.02 32.6209 245.41 34.1009C244.79 35.5909 244.49 37.7509 244.49 40.5709C244.49 43.4509 244.79 45.6409 245.39 47.1309C245.99 48.6209 247.26 49.3609 249.2 49.3609C251.14 49.3609 252.41 48.6209 253.01 47.1309C253.61 45.6409 253.91 43.4509 253.91 40.5709C253.9 37.7509 253.6 35.5909 252.98 34.1009Z" fill="#EA5D7B"/>
<path id="Vector_29" d="M210.1 86.5309C212.1 84.8009 213.79 83.0209 215.14 81.1909C216.5 79.3509 217.18 77.6109 217.18 75.9409C217.18 74.9409 216.94 74.1509 216.48 73.5909C216.01 73.0309 215.32 72.7409 214.42 72.7409C213.48 72.7409 212.75 73.1309 212.24 73.8909C211.72 74.6609 211.48 75.7809 211.51 77.2509H202.29C202.39 74.4609 203.02 72.1509 204.18 70.3109C205.34 68.4709 206.86 67.1309 208.74 66.2609C210.62 65.4009 212.7 64.9709 215 64.9709C218.98 64.9709 221.94 65.9309 223.88 67.8409C225.82 69.7509 226.79 72.2309 226.79 75.2709C226.79 78.5309 225.66 81.5909 223.42 84.4509C221.17 87.3009 218.37 89.8609 215 92.1209H227.13V99.6009H202.39V92.6809C205.52 90.3109 208.09 88.2509 210.1 86.5309Z" fill="#EA5D7B"/>
<path id="Vector_30" d="M242.55 86.5309C244.55 84.8009 246.24 83.0209 247.59 81.1909C248.95 79.3509 249.63 77.6109 249.63 75.9409C249.63 74.9409 249.39 74.1509 248.93 73.5909C248.46 73.0309 247.77 72.7409 246.87 72.7409C245.93 72.7409 245.2 73.1309 244.69 73.8909C244.17 74.6609 243.93 75.7809 243.96 77.2509H234.74C234.84 74.4609 235.47 72.1509 236.63 70.3109C237.79 68.4709 239.31 67.1309 241.19 66.2609C243.07 65.4009 245.15 64.9709 247.45 64.9709C251.43 64.9709 254.39 65.9309 256.33 67.8409C258.27 69.7509 259.24 72.2309 259.24 75.2709C259.24 78.5309 258.11 81.5909 255.87 84.4509C253.62 87.3009 250.82 89.8609 247.45 92.1209H259.58V99.6009H234.84V92.6809C237.97 90.3109 240.55 88.2509 242.55 86.5309Z" fill="#EA5D7B"/>
</g>
</g>
</g>
</g>
</svg>
