<svg width="583" height="616" viewBox="0 0 583 616" fill="none" xmlns="http://www.w3.org/2000/svg">
<g id="leafs_left">
<path id="Vector" d="M255.563 217.9C250.143 210.53 246.383 206.84 256.363 198.2C266.343 189.56 260.003 183.85 254.593 176.48C249.173 169.11 249.463 158.76 261.593 141.77C273.723 124.78 263.003 120.06 258.683 111.36C254.363 102.66 253.883 100.32 260.623 86.65C267.363 72.99 257.823 66.68 247.753 60.38C237.683 54.08 237.313 12.74 237.313 12.74C237.313 12.74 221.053 23.36 218.093 46.06C215.133 68.76 202.093 54.68 193.113 74.68C184.133 94.68 200.253 101.43 185.583 110.72C170.913 120.01 161.733 130.67 167.263 153.4C172.803 176.13 149.623 180.05 149.483 197.42C149.343 214.79 170.313 211.53 162.733 226.19C155.153 240.86 148.083 246.17 160.323 255.57C172.563 264.97 155.773 279.6 168.673 294.21C169.153 294.75 169.673 295.3 170.253 295.86C186.133 311.43 215.463 307.51 229.883 287.54C233.163 283 235.083 278.5 234.353 274.57C231.443 258.86 238.213 276.18 253.163 270.23C268.113 264.3 260.973 225.27 255.563 217.9Z" fill="#EA5A78"/>
<path id="Vector_2" d="M245.223 130.83C237.513 133.03 230.083 136.15 223.063 140.14C224.443 130.95 225.603 121.76 226.393 112.54C226.673 109.33 226.923 106.11 227.143 102.9C227.243 102.81 227.343 102.71 227.423 102.57C231.073 96.28 235.713 90.56 241.293 85.55C242.453 84.51 241.003 82.93 239.833 83.98C235.033 88.29 230.873 93.11 227.443 98.37C228.713 78.02 229.013 57.72 229.323 37.44C229.343 36.04 226.993 36.01 226.973 37.43C226.683 56.83 226.393 76.23 225.263 95.7C221.163 91.37 216.363 87.7 210.943 84.8C209.693 84.13 208.253 86.04 209.503 86.71C215.413 89.87 220.543 93.93 224.823 98.83C224.893 98.91 224.973 98.97 225.053 99.02C224.953 100.61 224.843 102.2 224.733 103.79C223.843 116.28 222.443 128.75 220.613 141.22C214.053 136.81 207.063 132.98 199.663 129.77C198.363 129.21 196.913 131.11 198.223 131.68C206.023 135.06 213.363 139.12 220.223 143.83C218.903 152.54 217.373 161.26 215.663 169.98C213.813 179.46 211.803 188.92 209.773 198.38C203.893 193.38 197.623 188.8 190.963 184.69C189.763 183.95 188.333 185.86 189.523 186.6C196.343 190.82 202.773 195.52 208.763 200.68C208.903 200.8 209.063 200.87 209.223 200.91C206.733 212.54 204.213 224.16 201.923 235.8C201.493 238.01 201.073 240.21 200.653 242.42C195.633 238.8 190.113 235.87 184.143 233.62C182.793 233.11 181.903 235.25 183.243 235.75C189.283 238.03 194.843 241.07 199.873 244.78C199.973 244.86 200.083 244.9 200.193 244.93C196.833 263.37 194.853 274.45 193.603 292.92C192.083 315.18 196.053 289.47 197.263 279.11C198.563 267.98 200.333 256.86 202.383 245.75C202.393 245.71 202.403 245.66 202.403 245.62C210.203 242.23 218.213 239.49 226.373 237.41C227.873 237.03 227.533 234.89 226.023 235.27C218.143 237.28 210.413 239.91 202.873 243.11C205.563 228.74 208.623 214.4 211.653 200.07C219.973 196.54 228.303 193.02 236.623 189.49C238.063 188.88 237.123 186.96 235.683 187.57C227.853 190.89 220.023 194.21 212.193 197.53C216.043 179.31 219.793 161.1 222.643 142.84C229.873 138.57 237.553 135.26 245.563 132.97C247.063 132.54 246.723 130.4 245.223 130.83Z" fill="#692471"/>
<path id="Vector_3" d="M209.933 75.91C210.783 76.46 211.623 77.01 212.473 77.56C213.213 78.04 214.233 78.08 214.983 77.33C215.613 76.7 215.783 75.48 215.033 74.99C214.183 74.44 213.343 73.89 212.493 73.34C211.753 72.86 210.733 72.82 209.983 73.57C209.353 74.2 209.183 75.42 209.933 75.91Z" fill="#692471"/>
<path id="Vector_4" d="M216.583 68.6701C216.793 69.6701 217.003 70.6701 217.213 71.6801C217.393 72.5401 218.483 72.9401 219.373 72.6301C220.353 72.2901 220.833 71.3401 220.653 70.4801C220.443 69.4801 220.233 68.4801 220.023 67.4801C219.843 66.6201 218.743 66.2201 217.863 66.5301C216.883 66.8601 216.403 67.8101 216.583 68.6701Z" fill="#692471"/>
<path id="Vector_5" d="M201.173 81.2601L204.073 83.1601C204.813 83.6401 205.833 83.6801 206.583 82.9301C207.213 82.3001 207.383 81.0801 206.633 80.5901L203.733 78.6901C202.993 78.2101 201.973 78.1701 201.223 78.9201C200.603 79.5501 200.433 80.7701 201.173 81.2601Z" fill="#692471"/>
<path id="Vector_6" d="M236.193 73.37C236.073 74.25 235.953 75.14 235.833 76.02C235.713 76.89 236.713 77.62 237.593 77.49C238.643 77.34 239.253 76.59 239.383 75.66C239.503 74.78 239.623 73.89 239.743 73.01C239.863 72.14 238.863 71.41 237.983 71.54C236.933 71.68 236.323 72.43 236.193 73.37Z" fill="#692471"/>
<path id="Vector_7" d="M247.203 76.6399C247.093 76.8599 246.973 77.0599 246.833 77.2699C246.763 77.3699 246.693 77.4699 246.623 77.5699C246.703 77.4699 246.703 77.4699 246.623 77.5699C246.483 77.7299 246.333 77.8999 246.183 78.0499C246.133 78.0999 245.653 78.5299 245.843 78.3799C245.093 78.9699 244.613 79.9399 245.153 80.6999C245.603 81.3299 246.773 81.7099 247.573 81.0699C248.673 80.1999 249.603 79.2199 250.233 78.0199C250.663 77.2099 250.523 76.1699 249.643 75.8199C248.843 75.4999 247.663 75.7699 247.203 76.6399Z" fill="#692471"/>
<path id="Vector_8" d="M249.163 85.8699C247.993 86.1699 246.813 86.4799 245.643 86.7799C244.693 87.0199 244.143 88.1499 244.363 88.9299C244.623 89.8299 245.573 90.1299 246.523 89.8799C247.693 89.5799 248.873 89.2699 250.043 88.9699C250.993 88.7199 251.543 87.5999 251.323 86.8199C251.073 85.9199 250.113 85.6299 249.163 85.8699Z" fill="#692471"/>
<path id="Vector_9" d="M185.243 137.46C186.433 137.09 187.623 136.72 188.823 136.34C189.763 136.05 190.333 135.01 190.103 134.19C189.853 133.33 188.883 132.95 187.943 133.24L184.363 134.35C183.423 134.64 182.853 135.69 183.083 136.5C183.333 137.37 184.303 137.75 185.243 137.46Z" fill="#692471"/>
<path id="Vector_10" d="M187.283 126.67C188.353 127.18 189.433 127.69 190.513 128.21C192.453 129.13 194.293 126.11 192.363 125.19C191.293 124.68 190.213 124.17 189.133 123.66C187.193 122.72 185.353 125.75 187.283 126.67Z" fill="#692471"/>
<path id="Vector_11" d="M196.913 118.45C196.853 119.59 197.153 120.69 197.733 121.62C198.173 122.33 199.343 122.55 200.143 121.99C200.973 121.42 201.303 120.43 200.833 119.67C200.793 119.61 200.553 119.1 200.683 119.44C200.613 119.27 200.553 119.1 200.513 118.92C200.493 118.83 200.473 118.74 200.453 118.65C200.473 118.84 200.473 118.84 200.453 118.65C200.453 118.46 200.443 118.28 200.453 118.09C200.493 117.22 199.623 116.49 198.693 116.62C197.703 116.76 196.963 117.52 196.913 118.45Z" fill="#692471"/>
<path id="Vector_12" d="M206.403 119.3C206.323 120.05 206.243 120.8 206.163 121.55C206.073 122.42 207.023 123.15 207.923 123.02C208.953 122.87 209.613 122.12 209.713 121.18C209.793 120.43 209.873 119.68 209.953 118.93C210.043 118.06 209.093 117.33 208.193 117.46C207.163 117.61 206.503 118.36 206.403 119.3Z" fill="#692471"/>
<path id="Vector_13" d="M239.933 125.1C240.083 125.82 240.223 126.53 240.373 127.25C240.543 128.08 241.663 128.54 242.533 128.2C243.503 127.82 243.993 126.94 243.813 126.05C243.663 125.33 243.523 124.62 243.373 123.9C243.203 123.07 242.083 122.61 241.213 122.95C240.243 123.33 239.753 124.21 239.933 125.1Z" fill="#692471"/>
<path id="Vector_14" d="M252.313 124.24C251.523 124.95 250.733 125.66 249.953 126.37C249.243 127.01 249.233 128.19 249.903 128.71C250.633 129.28 251.653 129.17 252.413 128.48C253.203 127.77 253.993 127.06 254.773 126.35C255.483 125.71 255.493 124.53 254.823 124.01C254.093 123.44 253.073 123.56 252.313 124.24Z" fill="#692471"/>
<path id="Vector_15" d="M255.443 134.23C254.293 133.99 253.133 133.74 251.983 133.5C251.073 133.31 250.043 134.02 249.783 134.88C249.513 135.81 250.093 136.59 251.003 136.79C252.153 137.03 253.313 137.28 254.463 137.52C255.373 137.71 256.403 137 256.663 136.14C256.933 135.21 256.353 134.42 255.443 134.23Z" fill="#692471"/>
<path id="Vector_16" d="M244.643 142.04C245.613 142.68 246.573 143.31 247.543 143.95C248.283 144.43 249.303 144.47 250.053 143.72C250.683 143.09 250.853 141.87 250.103 141.38L247.203 139.48C246.463 139 245.443 138.96 244.693 139.71C244.063 140.34 243.893 141.56 244.643 142.04Z" fill="#692471"/>
<path id="Vector_17" d="M183.513 192.68C182.253 193.04 180.993 193.39 179.723 193.75C178.783 194.02 178.213 195.1 178.443 195.9C178.693 196.78 179.663 197.12 180.603 196.85C181.863 196.49 183.123 196.14 184.383 195.78C185.323 195.51 185.893 194.42 185.663 193.63C185.423 192.75 184.463 192.41 183.513 192.68Z" fill="#692471"/>
<path id="Vector_18" d="M177.243 183.86C175.193 183.96 173.143 184.05 171.093 184.15C168.813 184.26 168.783 187.56 171.063 187.46C173.113 187.36 175.163 187.27 177.213 187.17C179.493 187.06 179.523 183.76 177.243 183.86Z" fill="#692471"/>
<path id="Vector_19" d="M177.823 176.56C179.073 177.5 180.313 178.43 181.563 179.37C183.233 180.63 185.803 178.07 184.123 176.8C182.873 175.86 181.623 174.93 180.383 173.99C178.723 172.74 176.143 175.3 177.823 176.56Z" fill="#692471"/>
<path id="Vector_20" d="M190.023 170.01L190.613 172.39C190.813 173.21 191.873 173.69 192.773 173.34C193.713 172.97 194.273 172.07 194.053 171.19C193.853 170.4 193.653 169.6 193.463 168.81C193.263 167.99 192.203 167.51 191.303 167.86C190.353 168.23 189.803 169.13 190.023 170.01Z" fill="#692471"/>
<path id="Vector_21" d="M200.593 175.15C200.223 176.41 199.843 177.67 199.473 178.93C198.843 181.04 202.263 181.57 202.893 179.46C203.273 178.2 203.643 176.94 204.013 175.68C204.633 173.56 201.223 173.03 200.593 175.15Z" fill="#692471"/>
<path id="Vector_22" d="M226.183 181.65C226.233 182.7 226.273 183.75 226.323 184.8C226.363 185.69 227.093 186.37 228.083 186.27C229.013 186.18 229.913 185.33 229.873 184.44C229.823 183.39 229.783 182.34 229.733 181.3C229.693 180.41 228.963 179.73 227.973 179.83C227.053 179.91 226.143 180.76 226.183 181.65Z" fill="#692471"/>
<path id="Vector_23" d="M239.593 172.86C239.083 174.58 238.573 176.31 238.063 178.03C237.433 180.14 240.853 180.67 241.473 178.56C241.983 176.84 242.493 175.11 243.003 173.39C243.633 171.27 240.223 170.74 239.593 172.86Z" fill="#692471"/>
<path id="Vector_24" d="M247.673 183.67C245.783 184.21 243.883 184.75 241.993 185.29C239.743 185.93 240.633 189.03 242.873 188.39C244.763 187.85 246.663 187.31 248.553 186.77C250.803 186.13 249.913 183.03 247.673 183.67Z" fill="#692471"/>
<path id="Vector_25" d="M247.003 196.21C245.353 195.95 243.693 195.7 242.033 195.44C239.833 195.1 238.853 198.38 241.063 198.72C242.713 198.98 244.373 199.23 246.033 199.49C248.233 199.83 249.213 196.55 247.003 196.21Z" fill="#692471"/>
<path id="Vector_26" d="M239.413 204.45C237.273 203.32 234.963 202.54 232.503 202.06C230.333 201.64 229.363 204.92 231.533 205.34C233.703 205.76 235.683 206.48 237.573 207.47C239.453 208.48 241.283 205.44 239.413 204.45Z" fill="#692471"/>
<path id="Vector_27" d="M178.333 244.22C176.723 245.2 175.113 246.18 173.503 247.16C171.483 248.39 173.213 251.08 175.233 249.85C176.843 248.87 178.453 247.89 180.053 246.91C182.083 245.68 180.353 242.99 178.333 244.22Z" fill="#692471"/>
<path id="Vector_28" d="M170.003 241.42C171.533 241.35 173.063 241.29 174.593 241.22C175.553 241.18 176.373 240.24 176.383 239.39C176.393 238.45 175.583 237.88 174.623 237.92C173.093 237.99 171.563 238.05 170.033 238.12C169.073 238.16 168.253 239.1 168.243 239.95C168.233 240.89 169.043 241.46 170.003 241.42Z" fill="#692471"/>
<path id="Vector_29" d="M168.703 229.55C170.083 229.76 171.463 229.98 172.843 230.19C175.043 230.53 171.883 226.61 169.683 226.27C168.303 226.06 171.063 226.48 169.683 226.27C167.473 225.93 166.503 229.21 168.703 229.55Z" fill="#692471"/>
<path id="Vector_30" d="M182.003 221.33C182.573 222.32 183.153 223.31 183.723 224.3C184.143 225.03 185.343 225.22 186.143 224.67C186.993 224.09 187.273 223.12 186.833 222.35C186.263 221.36 185.693 220.37 185.123 219.38C184.703 218.65 183.503 218.46 182.703 219.01C181.843 219.58 181.553 220.55 182.003 221.33Z" fill="#692471"/>
<path id="Vector_31" d="M191.423 225.98C191.333 227.01 191.243 228.03 191.153 229.06C191.073 229.96 192.003 230.62 192.913 230.53C193.933 230.43 194.623 229.6 194.703 228.7C194.793 227.67 194.883 226.65 194.963 225.62C195.043 224.72 194.113 224.06 193.203 224.15C192.193 224.25 191.493 225.08 191.423 225.98Z" fill="#692471"/>
<path id="Vector_32" d="M215.783 227.79C215.063 229 214.343 230.2 213.623 231.41C212.453 233.37 215.493 234.75 216.663 232.79C217.383 231.58 218.103 230.38 218.823 229.17C219.983 227.22 216.943 225.84 215.783 227.79Z" fill="#692471"/>
<path id="Vector_33" d="M226.543 225.09C225.923 226.38 225.143 227.58 224.143 228.68C222.573 230.39 225.023 232.51 226.603 230.79C227.813 229.47 228.833 228.03 229.583 226.47C229.993 225.62 229.873 224.67 228.993 224.27C228.233 223.93 226.953 224.24 226.543 225.09Z" fill="#692471"/>
<path id="Vector_34" d="M238.323 228.71C236.573 229.69 234.723 230.38 232.793 230.84C231.843 231.07 231.293 232.22 231.513 232.99C231.773 233.9 232.723 234.17 233.673 233.94C235.903 233.4 238.023 232.53 240.043 231.4C242.113 230.25 240.373 227.56 238.323 228.71Z" fill="#692471"/>
<path id="Vector_35" d="M239.383 238.57C237.373 238.53 235.363 238.49 233.353 238.46C232.393 238.44 231.583 239.48 231.563 240.29C231.543 241.28 232.373 241.74 233.323 241.76C235.333 241.8 237.343 241.83 239.353 241.87C240.313 241.89 241.123 240.85 241.143 240.04C241.163 239.05 240.323 238.59 239.383 238.57Z" fill="#692471"/>
<path id="Vector_36" d="M229.923 246.65C226.703 245.32 223.493 243.99 220.283 242.67C218.293 241.85 216.443 244.87 218.433 245.69C221.653 247.02 224.863 248.35 228.073 249.67C230.063 250.5 231.913 247.48 229.923 246.65Z" fill="#692471"/>
<path id="Vector_37" d="M216.143 249.89C214.623 249.66 213.103 249.42 211.583 249.19C209.383 248.85 208.413 252.13 210.613 252.47C212.133 252.7 213.653 252.94 215.163 253.17C217.363 253.51 218.343 250.23 216.143 249.89Z" fill="#692471"/>
<path id="Vector_38" d="M399.433 281.37C399.433 281.37 292.363 323.11 247.243 384.2C231.933 404.93 224.743 423.82 221.933 439.73C216.073 472.9 245.753 499.66 276.213 488.67C290.813 483.4 307.593 473.15 324.903 454.22C375.903 398.43 399.433 281.37 399.433 281.37Z" fill="#EA5A78"/>
<path id="Vector_39" d="M273.883 437.63C277.193 433.58 280.513 429.54 283.833 425.49C301.863 429.64 319.893 433.78 337.923 437.93C338.283 437.43 338.633 436.92 338.983 436.41C321.003 432.28 303.023 428.14 285.043 424.01C288.183 420.18 291.313 416.36 294.453 412.53C311.763 416.2 328.893 420.68 345.783 425.97C346.093 425.47 346.393 424.97 346.693 424.47C329.903 419.2 312.893 414.72 295.683 411.04C298.693 407.36 301.703 403.69 304.723 400.01C320.953 404.24 337.173 408.47 353.403 412.71C353.683 412.19 353.963 411.67 354.233 411.15C338.123 406.95 322.023 402.75 305.923 398.55C309.083 394.7 312.243 390.84 315.393 386.99C330.893 389.56 346.253 392.79 361.463 396.69C361.713 396.16 361.953 395.64 362.203 395.11C347.163 391.24 331.973 388.02 316.653 385.46C319.903 381.49 323.153 377.52 326.413 373.56C340.293 376.06 354.043 379.2 367.623 382.96C367.853 382.43 368.073 381.9 368.303 381.37C354.903 377.65 341.353 374.54 327.663 372.04C330.313 368.81 332.963 365.58 335.613 362.34C348.253 364.07 360.783 366.4 373.183 369.33C373.393 368.79 373.603 368.25 373.813 367.71C361.633 364.82 349.313 362.51 336.893 360.78C340.123 356.84 343.353 352.9 346.583 348.96C357.543 349.35 368.383 350.99 378.933 353.81C379.123 353.27 379.313 352.73 379.503 352.19C369.193 349.42 358.623 347.8 347.933 347.32C349.033 345.98 350.133 344.64 351.233 343.29C351.503 343.18 351.743 342.95 351.803 342.59C352.603 341.62 353.393 340.65 354.193 339.67C363.793 339.38 373.273 340.89 382.243 344.14C382.423 343.6 382.603 343.05 382.783 342.51C374.083 339.36 364.913 337.81 355.613 337.93C358.033 334.98 360.453 332.02 362.873 329.07C370.703 329.48 378.463 330.5 386.103 332.12C386.273 331.57 386.443 331.02 386.613 330.47C379.243 328.9 371.763 327.89 364.213 327.45L370.963 319.21L386.273 322.6C387.113 322.79 387.963 322.98 388.803 323.17C388.963 322.62 389.123 322.07 389.283 321.53C388.033 321.26 386.783 320.95 385.543 320.68C381.083 319.69 376.633 318.71 372.173 317.72C374.073 315.4 375.973 313.08 377.883 310.76C382.613 310.93 387.313 311.32 391.993 311.92C392.143 311.36 392.293 310.8 392.443 310.25C388.063 309.69 383.663 309.3 379.243 309.1C381.463 306.39 383.683 303.68 385.903 300.97C388.823 301.18 391.733 301.54 394.613 302.04C394.753 301.47 394.903 300.91 395.043 300.37C392.453 299.92 389.853 299.59 387.233 299.37C388.573 297.74 389.913 296.1 391.253 294.46L396.433 294.8C396.573 294.22 396.703 293.66 396.843 293.12C395.423 293.03 394.013 292.94 392.593 292.84C394.593 290.4 396.593 287.95 398.593 285.51C399.183 282.84 399.483 281.38 399.483 281.38C399.483 281.38 398.183 281.89 395.813 282.87C393.583 285.59 391.353 288.32 389.113 291.04C389.233 289.26 389.223 287.48 389.103 285.72C388.593 285.94 388.063 286.17 387.513 286.42C387.633 288.69 387.543 291 387.253 293.31C385.693 295.21 384.133 297.11 382.583 299.01C382.823 295.54 382.763 292.09 382.433 288.68C381.923 288.91 381.393 289.15 380.863 289.39C381.193 293 381.203 296.65 380.853 300.32C380.833 300.56 380.893 300.76 381.003 300.92C378.133 304.42 375.273 307.91 372.403 311.41C372.403 305.46 372.203 299.52 371.803 293.61C371.283 293.86 370.753 294.11 370.213 294.37C370.623 300.69 370.813 307.04 370.773 313.4C368.193 316.55 365.613 319.69 363.043 322.84C362.923 314.67 362.603 306.51 362.093 298.37C361.573 298.63 361.043 298.9 360.513 299.17C361.033 307.69 361.343 316.24 361.443 324.8C358.283 328.66 355.123 332.51 351.963 336.37C352.153 325.53 351.933 314.7 351.333 303.91C350.803 304.19 350.273 304.47 349.743 304.75C350.353 315.94 350.533 327.17 350.293 338.41C348.213 340.95 346.133 343.49 344.043 346.04C342.353 334.24 340.663 322.44 338.983 310.64C338.473 310.92 337.963 311.21 337.453 311.5C339.183 323.58 340.913 335.67 342.643 347.75C338.603 352.68 334.563 357.61 330.523 362.54C330.723 347.16 330.133 331.8 328.743 316.54C328.223 316.85 327.703 317.16 327.183 317.47C328.573 333.1 329.143 348.82 328.863 364.56C325.163 369.07 321.463 373.59 317.763 378.1C315.653 361.17 313.543 344.24 311.433 327.31C310.923 327.64 310.423 327.98 309.913 328.31C312.053 345.49 314.193 362.66 316.333 379.84C314.923 381.56 313.513 383.28 312.103 385C310.383 387.09 308.673 389.19 306.953 391.28C304.283 372.8 301.603 354.33 298.933 335.85C298.433 336.2 297.933 336.56 297.433 336.92C300.143 355.61 302.843 374.3 305.553 392.99C302.903 396.22 300.263 399.45 297.613 402.68C293.143 384.11 288.663 365.55 284.193 346.99C283.723 347.37 283.253 347.75 282.783 348.13C287.263 366.74 291.753 385.36 296.243 403.97C296.263 404.07 296.313 404.16 296.353 404.23L285.003 418.08L272.073 357.32C271.603 357.75 271.133 358.17 270.673 358.6C275.013 378.97 279.343 399.33 283.683 419.7C280.853 423.16 278.013 426.62 275.183 430.08C268.943 411.04 262.703 392.01 256.463 372.97C256.033 373.45 255.613 373.93 255.193 374.41C261.443 393.47 267.693 412.53 273.933 431.6C270.913 435.28 267.903 438.97 264.883 442.65C256.983 425.13 250.033 407.14 244.063 388.75C243.663 389.33 243.273 389.9 242.883 390.48C248.863 408.77 255.823 426.66 263.713 444.08C258.813 450.05 253.923 456.03 249.023 462C241.913 446.34 235.523 430.31 229.873 413.98C229.543 414.75 229.223 415.51 228.913 416.26C234.493 432.2 240.773 447.85 247.743 463.15C247.783 463.24 247.843 463.32 247.903 463.38C245.843 465.89 243.783 468.41 241.723 470.92C235.523 458.7 229.323 446.48 223.123 434.26C222.923 435.12 222.733 435.98 222.563 436.82C228.563 448.66 234.573 460.49 240.573 472.33C238.533 474.82 236.503 477.31 234.453 479.79C235.373 480.68 236.333 481.52 237.323 482.32L239.023 480.25C250.213 483.44 261.403 486.64 272.603 489.83C273.613 489.56 274.623 489.26 275.633 488.91C263.823 485.54 252.023 482.17 240.213 478.81C242.033 476.59 243.853 474.36 245.683 472.14C259.693 476 273.693 479.85 287.693 483.71C288.423 483.33 289.163 482.94 289.903 482.54C275.553 478.59 261.213 474.64 246.873 470.69C249.703 467.24 252.523 463.79 255.353 460.34C271.153 465.02 286.963 469.69 302.763 474.36C303.333 473.94 303.913 473.52 304.483 473.08C288.503 468.35 272.513 463.62 256.533 458.9C259.003 455.89 261.463 452.88 263.933 449.87C264.003 449.79 264.073 449.7 264.133 449.62C281.213 453.7 298.053 458.72 314.583 464.65C315.053 464.22 315.533 463.78 316.003 463.33C299.403 457.34 282.503 452.27 265.353 448.14C265.673 447.75 265.983 447.37 266.303 446.98C266.383 446.91 266.453 446.83 266.503 446.74C268.573 444.22 270.633 441.7 272.703 439.18C291.323 442.13 309.773 446.02 327.993 450.83C328.403 450.35 328.813 449.86 329.223 449.38C310.933 444.53 292.493 440.61 273.883 437.63Z" fill="#7A7AB9"/>
<path id="Vector_40" d="M185.803 197.21C179.563 190.45 175.393 187.13 184.203 178.1C193.013 169.07 186.063 163.98 179.823 157.21C173.583 150.44 172.613 140.41 182.533 123.17C192.453 105.92 181.293 102.08 175.973 93.95C170.653 85.82 169.903 83.59 174.903 69.92C179.903 56.25 169.723 50.79 159.013 45.37C148.303 39.96 142.933 0 142.933 0C142.933 0 128.163 11.37 127.993 33.52C127.823 55.68 113.233 42.93 106.793 62.88C100.343 82.83 117.083 88.27 103.723 98.25C90.363 108.22 82.583 119.14 90.813 140.76C99.033 162.38 76.623 167.72 78.583 184.53C80.553 201.34 100.863 196.78 95.153 211.47C89.443 226.17 83.113 231.78 96.333 240.05C109.553 248.32 94.753 263.6 109.263 276.86C109.803 277.35 110.383 277.85 111.023 278.35C128.583 292.34 157.073 286.59 168.903 266.3C171.593 261.69 172.933 257.2 171.743 253.45C166.963 238.45 175.753 254.75 189.793 247.99C203.823 241.26 192.053 203.98 185.803 197.21Z" fill="#692471"/>
<path id="Vector_41" d="M165.043 113.69C157.703 116.34 150.733 119.85 144.293 124.18C144.543 115.2 144.573 106.23 144.243 97.2599C144.133 94.1299 143.983 91.0099 143.813 87.8799C143.903 87.7899 143.983 87.6799 144.043 87.5399C146.883 81.2099 150.783 75.3699 155.683 70.1499C156.703 69.0699 155.073 67.6399 154.053 68.7299C149.833 73.2199 146.313 78.1699 143.553 83.4799C142.343 63.7099 140.183 44.0599 138.023 24.4199C137.873 23.0599 135.553 23.1999 135.703 24.5699C137.763 43.3499 139.833 62.1399 141.073 81.0499C136.503 77.1299 131.323 73.9099 125.613 71.4699C124.293 70.9099 123.103 72.8499 124.423 73.4099C130.643 76.0699 136.203 79.6499 141.023 84.1099C141.103 84.1799 141.183 84.2299 141.273 84.2799C141.363 85.8299 141.453 87.3699 141.533 88.9199C142.173 101.06 142.293 113.22 141.993 125.4C134.983 121.57 127.613 118.34 119.913 115.73C118.563 115.27 117.363 117.21 118.723 117.67C126.833 120.42 134.573 123.85 141.913 127.95C141.663 136.47 141.213 145 140.583 153.55C139.903 162.84 139.063 172.13 138.203 181.42C131.783 176.98 125.043 172.97 117.973 169.43C116.693 168.79 115.513 170.73 116.783 171.37C124.033 175 130.953 179.1 137.493 183.7C137.643 183.81 137.813 183.87 137.973 183.9C136.913 195.31 135.843 206.73 134.993 218.14C134.833 220.3 134.683 222.47 134.543 224.63C129.153 221.47 123.343 219 117.173 217.23C115.773 216.83 115.153 218.96 116.543 219.35C122.783 221.15 128.643 223.71 134.063 226.97C134.173 227.04 134.283 227.07 134.393 227.1C133.303 245.16 132.703 256.01 133.693 273.96C134.893 295.59 135.693 270.45 135.633 260.35C135.563 249.5 135.973 238.62 136.643 227.74C136.643 227.7 136.653 227.66 136.653 227.61C143.943 223.81 151.523 220.62 159.333 218.06C160.773 217.59 160.173 215.54 158.733 216.01C151.193 218.48 143.883 221.54 136.813 225.14C137.733 211.06 139.013 196.99 140.263 182.92C148.053 178.95 155.843 174.98 163.633 171.01C164.983 170.32 163.823 168.53 162.473 169.22C155.143 172.96 147.813 176.69 140.483 180.43C142.073 162.55 143.573 144.68 144.173 126.82C150.793 122.21 157.973 118.48 165.613 115.74C167.073 115.22 166.483 113.17 165.043 113.69Z" fill="#EA5A78"/>
<path id="Vector_42" d="M149.163 58.7099C149.153 59.5699 149.143 60.4399 149.133 61.2999C149.123 62.1499 150.193 62.7799 151.053 62.5999C152.073 62.3799 152.593 61.6199 152.603 60.7099C152.613 59.8499 152.623 58.9799 152.643 58.1199C152.653 57.2699 151.583 56.6399 150.723 56.8199C149.693 57.0299 149.183 57.7999 149.163 58.7099Z" fill="#EA5A78"/>
<path id="Vector_43" d="M160.433 61.1399C160.343 61.3599 160.253 61.5699 160.143 61.7699C160.093 61.8699 160.033 61.9799 159.973 62.0799C160.043 61.9799 160.043 61.9799 159.973 62.0799C159.863 62.2499 159.733 62.4099 159.593 62.5699C159.553 62.6199 159.133 63.0699 159.293 62.9099C158.623 63.5299 158.263 64.4999 158.893 65.1999C159.413 65.7799 160.613 66.0599 161.323 65.3999C162.303 64.4899 163.103 63.4799 163.583 62.2699C163.903 61.4599 163.643 60.4599 162.733 60.1799C161.923 59.9299 160.783 60.2699 160.433 61.1399Z" fill="#EA5A78"/>
<path id="Vector_44" d="M163.493 69.94C162.373 70.31 161.253 70.68 160.133 71.06C159.223 71.36 158.813 72.48 159.133 73.23C159.493 74.08 160.473 74.31 161.383 74C162.503 73.63 163.623 73.26 164.743 72.88C165.653 72.58 166.063 71.46 165.743 70.71C165.383 69.86 164.403 69.64 163.493 69.94Z" fill="#EA5A78"/>
<path id="Vector_45" d="M106.623 124.12C107.753 123.68 108.883 123.24 110.023 122.8C110.913 122.45 111.353 121.41 111.023 120.63C110.673 119.81 109.663 119.51 108.773 119.86L105.373 121.18C104.483 121.53 104.043 122.57 104.373 123.35C104.723 124.16 105.733 124.47 106.623 124.12Z" fill="#EA5A78"/>
<path id="Vector_46" d="M107.323 113.55C108.443 113.97 109.573 114.4 110.693 114.82C112.713 115.58 114.173 112.53 112.153 111.77C111.033 111.35 109.903 110.92 108.783 110.5C106.763 109.74 105.313 112.79 107.323 113.55Z" fill="#EA5A78"/>
<path id="Vector_47" d="M115.843 104.96C115.923 106.07 116.353 107.11 117.033 107.97C117.553 108.63 118.733 108.76 119.463 108.17C120.213 107.57 120.423 106.58 119.863 105.88C119.813 105.82 119.523 105.35 119.683 105.66C119.593 105.5 119.513 105.34 119.453 105.17C119.423 105.09 119.393 105 119.363 104.91C119.403 105.09 119.413 105.09 119.373 104.91C119.343 104.73 119.323 104.55 119.303 104.36C119.243 103.52 118.283 102.87 117.383 103.06C116.423 103.26 115.773 104.05 115.843 104.96Z" fill="#EA5A78"/>
<path id="Vector_48" d="M125.313 105.14C125.323 105.87 125.343 106.6 125.353 107.33C125.363 108.18 126.393 108.82 127.273 108.64C128.273 108.43 128.833 107.65 128.823 106.74C128.813 106.01 128.793 105.28 128.783 104.55C128.763 103.7 127.733 103.06 126.863 103.25C125.863 103.45 125.293 104.23 125.313 105.14Z" fill="#EA5A78"/>
<path id="Vector_49" d="M159.133 108.5C159.363 109.18 159.593 109.87 159.833 110.55C160.103 111.34 161.263 111.72 162.083 111.32C162.993 110.89 163.373 110 163.083 109.15C162.853 108.47 162.623 107.79 162.383 107.1C162.113 106.31 160.953 105.93 160.133 106.33C159.223 106.77 158.843 107.65 159.133 108.5Z" fill="#EA5A78"/>
<path id="Vector_50" d="M171.253 106.84C170.563 107.58 169.873 108.32 169.173 109.06C168.553 109.72 168.683 110.87 169.403 111.33C170.193 111.83 171.193 111.65 171.853 110.94C172.543 110.2 173.233 109.46 173.933 108.72C174.553 108.05 174.423 106.91 173.703 106.45C172.913 105.95 171.913 106.13 171.253 106.84Z" fill="#EA5A78"/>
<path id="Vector_51" d="M175.553 116.29C174.383 116.13 173.213 115.97 172.043 115.82C171.123 115.69 170.193 116.46 170.043 117.3C169.883 118.22 170.553 118.94 171.483 119.06C172.653 119.22 173.823 119.38 174.993 119.54C175.913 119.67 176.843 118.9 176.993 118.06C177.143 117.14 176.473 116.42 175.553 116.29Z" fill="#EA5A78"/>
<path id="Vector_52" d="M165.833 124.57C166.863 125.12 167.893 125.67 168.923 126.22C169.713 126.64 170.723 126.61 171.373 125.83C171.913 125.18 171.933 123.99 171.143 123.56L168.053 121.91C167.263 121.49 166.253 121.52 165.603 122.3C165.053 122.96 165.033 124.15 165.833 124.57Z" fill="#EA5A78"/>
<path id="Vector_53" d="M111.603 177.66C110.403 178.09 109.203 178.52 107.993 178.95C107.093 179.27 106.673 180.36 106.993 181.12C107.353 181.96 108.343 182.22 109.243 181.89C110.443 181.46 111.643 181.03 112.853 180.6C113.753 180.28 114.173 179.19 113.853 178.43C113.493 177.59 112.503 177.33 111.603 177.66Z" fill="#EA5A78"/>
<path id="Vector_54" d="M104.343 169.55C102.333 169.78 100.313 170.01 98.303 170.24C96.063 170.5 96.433 173.69 98.673 173.44C100.683 173.21 102.703 172.98 104.713 172.75C106.953 172.49 106.583 169.29 104.343 169.55Z" fill="#EA5A78"/>
<path id="Vector_55" d="M104.033 162.44C105.383 163.26 106.723 164.09 108.073 164.91C109.873 166.02 112.103 163.37 110.293 162.26C108.943 161.44 107.603 160.61 106.263 159.79C104.453 158.68 102.223 161.33 104.033 162.44Z" fill="#EA5A78"/>
<path id="Vector_56" d="M115.283 155.29L116.163 157.55C116.463 158.33 117.563 158.72 118.413 158.32C119.303 157.9 119.743 156.99 119.413 156.16C119.123 155.41 118.833 154.65 118.543 153.9C118.243 153.12 117.143 152.72 116.293 153.13C115.403 153.54 114.963 154.45 115.283 155.29Z" fill="#EA5A78"/>
<path id="Vector_57" d="M126.343 159.55C126.123 160.79 125.913 162.04 125.693 163.28C125.333 165.36 128.763 165.65 129.133 163.56C129.353 162.32 129.563 161.07 129.783 159.83C130.143 157.75 126.713 157.46 126.343 159.55Z" fill="#EA5A78"/>
<path id="Vector_58" d="M152.403 164.13C152.573 165.14 152.743 166.15 152.923 167.16C153.073 168.01 153.873 168.63 154.843 168.46C155.743 168.31 156.533 167.42 156.393 166.57C156.223 165.56 156.043 164.55 155.873 163.54C155.723 162.69 154.923 162.07 153.953 162.24C153.053 162.38 152.253 163.27 152.403 164.13Z" fill="#EA5A78"/>
<path id="Vector_59" d="M164.583 154.72C164.283 156.42 163.993 158.12 163.693 159.82C163.333 161.91 166.763 162.19 167.133 160.1C167.423 158.4 167.723 156.7 168.023 155C168.383 152.91 164.943 152.63 164.583 154.72Z" fill="#EA5A78"/>
<path id="Vector_60" d="M173.873 164.64C172.073 165.29 170.263 165.94 168.463 166.59C166.323 167.36 167.573 170.3 169.713 169.53C171.523 168.88 173.323 168.23 175.123 167.59C177.263 166.81 176.003 163.87 173.873 164.64Z" fill="#EA5A78"/>
<path id="Vector_61" d="M174.733 176.81C173.063 176.67 171.403 176.54 169.733 176.4C167.523 176.22 166.953 179.46 169.173 179.64C170.833 179.78 172.503 179.92 174.173 180.05C176.383 180.23 176.943 176.99 174.733 176.81Z" fill="#EA5A78"/>
<path id="Vector_62" d="M168.223 185.29C165.973 184.34 163.603 183.74 161.103 183.44C158.903 183.18 158.343 186.42 160.543 186.68C162.733 186.94 164.783 187.51 166.763 188.34C168.753 189.18 170.203 186.13 168.223 185.29Z" fill="#EA5A78"/>
<path id="Vector_63" d="M104.163 225.7C105.663 225.53 107.163 225.37 108.673 225.2C109.613 225.1 110.313 224.13 110.223 223.31C110.123 222.4 109.253 221.9 108.303 222.01C106.803 222.18 105.303 222.34 103.793 222.51C102.853 222.61 102.153 223.58 102.243 224.4C102.353 225.31 103.223 225.81 104.163 225.7Z" fill="#EA5A78"/>
<path id="Vector_64" d="M101.443 214.31C102.833 214.43 104.223 214.54 105.613 214.65C107.823 214.83 104.223 211.25 102.013 211.07C100.623 210.96 103.403 211.18 102.013 211.07C99.793 210.89 99.233 214.13 101.443 214.31Z" fill="#EA5A78"/>
<path id="Vector_65" d="M123.443 209.33C123.483 210.33 123.523 211.33 123.553 212.33C123.583 213.2 124.583 213.79 125.473 213.63C126.463 213.46 127.053 212.61 127.023 211.74C126.983 210.74 126.943 209.74 126.913 208.74C126.883 207.87 125.883 207.29 124.993 207.44C124.003 207.61 123.413 208.46 123.443 209.33Z" fill="#EA5A78"/>
<path id="Vector_66" d="M147.723 209.45C147.163 210.67 146.593 211.88 146.033 213.1C145.123 215.07 148.283 216.2 149.193 214.23C149.753 213.02 150.323 211.8 150.883 210.59C151.803 208.62 148.633 207.48 147.723 209.45Z" fill="#EA5A78"/>
<path id="Vector_67" d="M170.093 208.83C168.483 209.89 166.743 210.68 164.893 211.26C163.983 211.55 163.583 212.69 163.893 213.43C164.263 214.3 165.233 214.49 166.143 214.2C168.273 213.53 170.263 212.55 172.123 211.32C174.023 210.06 171.983 207.58 170.093 208.83Z" fill="#EA5A78"/>
<path id="Vector_68" d="M172.333 218.29C170.343 218.39 168.353 218.49 166.363 218.58C165.413 218.63 164.733 219.69 164.813 220.47C164.913 221.43 165.793 221.82 166.733 221.78C168.723 221.68 170.713 221.58 172.703 221.48C173.653 221.43 174.333 220.37 174.253 219.59C174.153 218.64 173.263 218.25 172.333 218.29Z" fill="#EA5A78"/>
<path id="Vector_69" d="M163.973 226.75C160.633 225.68 157.303 224.61 153.963 223.54C151.903 222.88 150.443 225.92 152.503 226.59C155.843 227.66 159.173 228.73 162.513 229.8C164.583 230.46 166.043 227.41 163.973 226.75Z" fill="#EA5A78"/>
<path id="Vector_70" d="M150.753 230.8C149.223 230.68 147.693 230.55 146.173 230.42C143.963 230.24 143.393 233.48 145.613 233.66C147.143 233.78 148.673 233.91 150.193 234.04C152.403 234.22 152.973 230.98 150.753 230.8Z" fill="#EA5A78"/>
<path id="Vector_71" d="M457.433 548.5C461.443 543.26 463.353 539.91 469.673 544.85C475.993 549.79 478.893 544.27 482.903 539.03C486.923 533.79 493.333 531.78 505.013 536.41C516.693 541.04 518.553 532.75 523.493 527.97C528.433 523.19 529.833 522.37 538.933 524.04C548.033 525.71 550.983 517.89 553.883 509.71C556.783 501.53 582.263 492.5 582.263 492.5C582.263 492.5 574.103 483.71 559.793 486.53C545.493 489.35 552.893 477.49 539.653 475.65C526.423 473.8 523.843 486.18 516.663 478.2C509.483 470.21 501.993 466.24 488.513 474.83C475.023 483.42 470.323 468.51 459.583 472.11C448.853 475.71 452.933 489.26 443.133 487.23C433.333 485.2 429.353 481.53 424.753 491.84C420.153 502.15 409.473 493.86 401.733 505.73C401.443 506.17 401.153 506.64 400.863 507.15C392.823 521.24 398.133 540.33 411.883 545.88C415.013 547.14 417.983 547.48 420.333 546.16C429.743 540.84 419.713 549.13 424.863 558.01C430.023 566.89 453.413 553.74 457.433 548.5Z" fill="#692471"/>
<path id="Vector_72" d="M510.153 522.97C508.033 518.2 505.373 513.82 502.223 509.9C508.033 508.89 513.823 507.72 519.583 506.3C521.593 505.81 523.603 505.29 525.613 504.76C525.673 504.81 525.753 504.85 525.843 504.88C530.083 506.02 534.073 507.96 537.723 510.68C538.483 511.25 539.313 509.92 538.553 509.35C535.413 507.01 532.033 505.2 528.453 503.99C541.143 500.52 553.703 496.42 566.253 492.31C567.123 492.03 566.903 490.43 566.023 490.71C554.023 494.64 542.013 498.56 529.883 501.93C532.153 498.23 533.943 494.19 535.193 489.89C535.483 488.9 534.163 488.33 533.873 489.32C532.503 494 530.503 498.35 527.903 502.3C527.863 502.37 527.833 502.43 527.813 502.5C526.823 502.77 525.833 503.04 524.833 503.3C517.043 505.35 509.203 507.05 501.323 508.46C503.403 503.07 505.073 497.51 506.323 491.8C506.543 490.8 505.223 490.22 505.003 491.23C503.683 497.24 501.903 503.09 499.673 508.75C494.163 509.7 488.633 510.52 483.083 511.21C477.053 511.97 471.013 512.61 464.973 513.25C467.473 508.19 469.683 502.96 471.573 497.57C471.913 496.6 470.593 496.03 470.253 497C468.323 502.53 466.053 507.89 463.463 513.06C463.403 513.18 463.373 513.3 463.363 513.42C455.943 514.2 448.513 514.96 441.103 515.88C439.703 516.05 438.293 516.24 436.893 516.43C438.633 512.25 439.893 507.88 440.693 503.35C440.873 502.32 439.463 502.17 439.283 503.19C438.473 507.78 437.143 512.2 435.353 516.41C435.313 516.5 435.303 516.58 435.283 516.66C423.573 518.29 416.533 519.31 405.013 522.38C391.123 526.08 407.383 523.31 413.903 521.93C420.903 520.45 427.943 519.29 435.003 518.31C435.033 518.3 435.053 518.3 435.083 518.3C437.943 522.88 440.423 527.73 442.523 532.83C442.903 533.77 444.193 533.09 443.813 532.14C441.793 527.22 439.413 522.53 436.693 518.08C445.823 516.85 454.983 515.88 464.123 514.89C467.123 519.79 470.123 524.7 473.123 529.6C473.643 530.45 474.733 529.4 474.213 528.56C471.393 523.95 468.573 519.33 465.753 514.72C477.373 513.46 488.993 512.14 500.543 510.19C503.893 514.19 506.693 518.7 508.893 523.66C509.283 524.58 510.573 523.9 510.153 522.97Z" fill="#EA5A78"/>
<path id="Vector_73" d="M544.733 504.62C544.173 504.73 543.613 504.83 543.063 504.94C542.513 505.05 542.163 505.88 542.333 506.45C542.533 507.13 543.053 507.39 543.643 507.28C544.203 507.17 544.753 507.07 545.313 506.96C545.863 506.85 546.213 506.02 546.043 505.45C545.853 504.77 545.323 504.51 544.733 504.62Z" fill="#EA5A78"/>
<path id="Vector_74" d="M543.803 512.8C543.663 512.77 543.513 512.73 543.383 512.69C543.313 512.67 543.243 512.64 543.173 512.61C543.243 512.64 543.243 512.65 543.173 512.61C543.053 512.55 542.943 512.49 542.833 512.41C542.803 512.39 542.483 512.15 542.593 512.25C542.153 511.87 541.513 511.74 541.093 512.28C540.743 512.72 540.633 513.59 541.103 514C541.743 514.56 542.443 514.98 543.253 515.16C543.793 515.28 544.423 514.96 544.553 514.29C544.663 513.67 544.383 512.92 543.803 512.8Z" fill="#EA5A78"/>
<path id="Vector_75" d="M538.293 516.09C537.993 515.36 537.683 514.63 537.383 513.89C537.143 513.3 536.393 513.16 535.933 513.48C535.403 513.85 535.313 514.56 535.563 515.15C535.863 515.88 536.173 516.61 536.473 517.35C536.713 517.94 537.463 518.08 537.923 517.76C538.453 517.4 538.543 516.69 538.293 516.09Z" fill="#EA5A78"/>
<path id="Vector_76" d="M500.153 483.65C500.503 484.38 500.843 485.11 501.193 485.84C501.463 486.41 502.163 486.58 502.643 486.25C503.153 485.9 503.293 485.16 503.013 484.58L501.973 482.39C501.703 481.82 501.003 481.65 500.523 481.98C500.013 482.33 499.873 483.07 500.153 483.65Z" fill="#EA5A78"/>
<path id="Vector_77" d="M507.003 482.74C506.793 483.58 506.583 484.42 506.373 485.26C505.993 486.77 508.043 487.38 508.423 485.87C508.633 485.03 508.843 484.19 509.053 483.35C509.433 481.84 507.383 481.23 507.003 482.74Z" fill="#EA5A78"/>
<path id="Vector_78" d="M513.033 487.53C512.323 487.73 511.673 488.17 511.153 488.76C510.753 489.21 510.743 490.05 511.163 490.48C511.593 490.92 512.243 490.94 512.663 490.46C512.693 490.42 512.983 490.15 512.793 490.31C512.893 490.23 512.993 490.15 513.103 490.08C513.153 490.05 513.213 490.01 513.263 489.98C513.153 490.03 513.153 490.04 513.263 489.98C513.383 489.94 513.493 489.9 513.613 489.86C514.153 489.71 514.523 488.95 514.343 488.35C514.153 487.71 513.613 487.37 513.033 487.53Z" fill="#EA5A78"/>
<path id="Vector_79" d="M513.443 494.16C512.973 494.27 512.503 494.37 512.033 494.48C511.483 494.6 511.133 495.4 511.303 495.99C511.493 496.66 512.023 496.95 512.613 496.82C513.083 496.71 513.553 496.61 514.023 496.5C514.573 496.38 514.923 495.57 514.763 494.99C514.563 494.31 514.033 494.02 513.443 494.16Z" fill="#EA5A78"/>
<path id="Vector_80" d="M513.173 518.16C512.743 518.41 512.313 518.67 511.893 518.92C511.393 519.21 511.223 520.07 511.523 520.59C511.853 521.17 512.443 521.32 512.973 521C513.403 520.75 513.823 520.5 514.253 520.24C514.753 519.94 514.923 519.09 514.623 518.57C514.293 517.99 513.703 517.85 513.173 518.16Z" fill="#EA5A78"/>
<path id="Vector_81" d="M514.923 526.39C514.403 526.01 513.893 525.62 513.373 525.24C512.913 524.89 512.173 525.14 511.923 525.7C511.643 526.32 511.813 526.99 512.313 527.36C512.833 527.74 513.343 528.13 513.863 528.51C514.323 528.86 515.063 528.61 515.313 528.05C515.593 527.43 515.423 526.75 514.923 526.39Z" fill="#EA5A78"/>
<path id="Vector_82" d="M509.063 530.63C509.103 529.79 509.133 528.96 509.173 528.12C509.203 527.46 508.653 526.91 508.103 526.92C507.503 526.93 507.073 527.5 507.043 528.15C507.003 528.99 506.973 529.82 506.933 530.66C506.903 531.32 507.453 531.87 508.003 531.86C508.613 531.86 509.033 531.29 509.063 530.63Z" fill="#EA5A78"/>
<path id="Vector_83" d="M503.173 524.96C502.873 525.75 502.583 526.54 502.283 527.34C502.053 527.94 502.133 528.65 502.673 529C503.123 529.29 503.893 529.15 504.123 528.54L505.013 526.17C505.243 525.56 505.163 524.86 504.623 524.51C504.173 524.2 503.403 524.35 503.173 524.96Z" fill="#EA5A78"/>
<path id="Vector_84" d="M465.883 494.21C465.543 493.43 465.193 492.65 464.843 491.87C464.583 491.29 463.863 491.14 463.393 491.46C462.873 491.82 462.763 492.54 463.023 493.13C463.363 493.91 463.713 494.69 464.053 495.47C464.313 496.05 465.043 496.2 465.503 495.88C466.033 495.52 466.143 494.8 465.883 494.21Z" fill="#EA5A78"/>
<path id="Vector_85" d="M470.713 488.08C470.453 486.71 470.193 485.34 469.933 483.96C469.643 482.44 467.603 483.12 467.893 484.64C468.153 486.01 468.413 487.38 468.673 488.75C468.953 490.29 471.003 489.6 470.713 488.08Z" fill="#EA5A78"/>
<path id="Vector_86" d="M475.273 486.92C474.813 487.97 474.363 489.01 473.903 490.06C473.293 491.46 475.123 492.67 475.743 491.26C476.203 490.21 476.653 489.17 477.113 488.12C477.723 486.71 475.893 485.51 475.273 486.92Z" fill="#EA5A78"/>
<path id="Vector_87" d="M480.523 493.81L479.113 494.72C478.623 495.03 478.433 495.85 478.743 496.39C479.063 496.95 479.673 497.14 480.193 496.8C480.663 496.5 481.133 496.19 481.603 495.89C482.093 495.58 482.283 494.76 481.973 494.22C481.653 493.66 481.043 493.47 480.523 493.81Z" fill="#EA5A78"/>
<path id="Vector_88" d="M478.393 502.08C477.583 502.09 476.763 502.11 475.953 502.12C474.583 502.14 474.593 504.58 475.963 504.55C476.783 504.54 477.593 504.52 478.403 504.51C479.773 504.49 479.763 502.06 478.393 502.08Z" fill="#EA5A78"/>
<path id="Vector_89" d="M476.903 520.84C476.263 521.09 475.613 521.35 474.973 521.6C474.433 521.81 474.083 522.46 474.243 523.11C474.393 523.72 475.003 524.15 475.553 523.94C476.193 523.68 476.843 523.43 477.483 523.18C478.023 522.96 478.373 522.32 478.213 521.67C478.063 521.06 477.453 520.63 476.903 520.84Z" fill="#EA5A78"/>
<path id="Vector_90" d="M483.653 528.08C482.543 528.1 481.423 528.12 480.313 528.14C478.943 528.16 478.953 530.59 480.323 530.57C481.433 530.55 482.553 530.53 483.663 530.51C485.033 530.49 485.023 528.06 483.653 528.08Z" fill="#EA5A78"/>
<path id="Vector_91" d="M477.783 535.87C477.263 534.7 476.743 533.53 476.223 532.36C475.603 530.97 473.783 532.23 474.393 533.62C474.913 534.79 475.433 535.96 475.953 537.13C476.573 538.52 478.393 537.25 477.783 535.87Z" fill="#EA5A78"/>
<path id="Vector_92" d="M469.973 538.08C469.963 536.9 469.963 535.72 469.953 534.54C469.943 532.98 467.823 533.01 467.833 534.58C467.833 535.76 467.843 536.94 467.853 538.12C467.863 539.68 469.983 539.65 469.973 538.08Z" fill="#EA5A78"/>
<path id="Vector_93" d="M464.133 534.67C464.623 532.98 464.873 531.24 464.923 529.47C464.973 527.9 462.843 527.94 462.803 529.51C462.753 531.07 462.513 532.57 462.083 534.06C461.653 535.56 463.713 536.16 464.133 534.67Z" fill="#EA5A78"/>
<path id="Vector_94" d="M434.473 495.39C434.663 496.41 434.853 497.44 435.053 498.46C435.173 499.1 435.833 499.46 436.363 499.29C436.943 499.1 437.213 498.42 437.093 497.78C436.903 496.76 436.713 495.73 436.513 494.71C436.393 494.07 435.733 493.71 435.203 493.88C434.623 494.08 434.353 494.75 434.473 495.39Z" fill="#EA5A78"/>
<path id="Vector_95" d="M441.663 491.99C441.663 492.97 441.673 493.95 441.673 494.94C441.683 496.5 443.793 493.52 443.783 491.96C443.783 490.98 443.783 492.94 443.783 491.96C443.783 490.39 441.653 490.42 441.663 491.99Z" fill="#EA5A78"/>
<path id="Vector_96" d="M446.113 506.66C445.473 506.82 444.823 506.98 444.183 507.13C443.623 507.27 443.303 508.04 443.453 508.64C443.613 509.31 444.193 509.61 444.763 509.47C445.403 509.31 446.053 509.15 446.693 509C447.253 508.86 447.573 508.09 447.423 507.49C447.253 506.82 446.673 506.52 446.113 506.66Z" fill="#EA5A78"/>
<path id="Vector_97" d="M447.393 523.59C446.573 523.36 445.763 523.12 444.943 522.89C443.623 522.51 443.063 524.87 444.393 525.25C445.203 525.48 446.023 525.71 446.843 525.95C448.163 526.32 448.723 523.96 447.393 523.59Z" fill="#EA5A78"/>
<path id="Vector_98" d="M449.053 539.09C448.273 538.11 447.663 537 447.193 535.79C446.953 535.19 446.193 535.07 445.743 535.38C445.203 535.75 445.133 536.45 445.373 537.05C445.923 538.45 446.673 539.7 447.573 540.84C448.483 541.99 449.963 540.24 449.053 539.09Z" fill="#EA5A78"/>
<path id="Vector_99" d="M443.073 541.9C442.903 540.53 442.723 539.15 442.553 537.78C442.473 537.13 441.743 536.79 441.243 536.95C440.633 537.15 440.423 537.81 440.503 538.46C440.683 539.83 440.853 541.21 441.033 542.58C441.113 543.23 441.843 543.57 442.343 543.41C442.953 543.22 443.153 542.55 443.073 541.9Z" fill="#EA5A78"/>
<path id="Vector_100" d="M437.153 537.2C437.653 534.73 438.153 532.27 438.663 529.8C438.973 528.27 436.923 527.66 436.613 529.19C436.113 531.66 435.603 534.12 435.103 536.59C434.793 538.12 436.833 538.73 437.153 537.2Z" fill="#EA5A78"/>
<path id="Vector_101" d="M433.793 528.53C433.783 527.45 433.783 526.37 433.773 525.29C433.763 523.73 431.643 523.76 431.653 525.33C431.663 526.41 431.663 527.49 431.673 528.57C431.673 530.13 433.803 530.1 433.793 528.53Z" fill="#EA5A78"/>
<path id="Vector_102" d="M424.663 333.59C424.663 333.59 295.253 386.27 240.903 458.35C222.463 482.81 213.843 504.79 210.513 523.16C203.563 561.45 239.613 590.81 276.423 576.84C294.073 570.14 314.333 557.64 335.203 535.15C396.693 468.88 424.663 333.59 424.663 333.59Z" fill="#692471"/>
<path id="Vector_103" d="M273.373 518.41C277.373 513.62 281.363 508.83 285.363 504.04C307.203 507.98 329.043 511.93 350.883 515.87C351.313 515.28 351.743 514.68 352.163 514.08C330.383 510.15 308.603 506.22 286.823 502.29C290.603 497.76 294.383 493.23 298.153 488.71C319.123 492.15 339.873 496.51 360.343 501.81C360.713 501.23 361.073 500.64 361.443 500.05C341.103 494.76 320.483 490.39 299.643 486.94L310.533 473.89C330.193 478.01 349.853 482.14 369.513 486.26C369.853 485.65 370.183 485.05 370.513 484.44C351.003 480.35 331.493 476.26 311.983 472.16C315.793 467.6 319.593 463.04 323.403 458.48C342.173 460.73 360.783 463.75 379.203 467.54C379.503 466.93 379.803 466.31 380.093 465.69C361.873 461.93 343.473 458.92 324.913 456.67C328.833 451.97 332.753 447.27 336.673 442.58C353.483 444.83 370.133 447.8 386.593 451.5C386.863 450.88 387.133 450.26 387.403 449.64C371.173 445.98 354.743 443.02 338.173 440.77C341.363 436.95 344.553 433.12 347.743 429.29C363.043 430.7 378.223 432.82 393.243 435.62C393.493 434.99 393.743 434.36 393.993 433.73C379.233 430.96 364.323 428.87 349.283 427.44C353.173 422.78 357.063 418.11 360.953 413.45C374.223 413.41 387.343 414.8 400.133 417.55C400.363 416.92 400.583 416.29 400.813 415.66C388.323 412.95 375.523 411.56 362.573 411.5L366.553 406.73C366.883 406.6 367.173 406.31 367.243 405.9C368.203 404.75 369.163 403.6 370.123 402.45C381.743 401.68 393.223 402.99 404.093 406.32C404.313 405.69 404.523 405.06 404.743 404.43C394.193 401.21 383.093 399.85 371.843 400.39C374.763 396.9 377.673 393.4 380.593 389.9C390.073 390.02 399.463 390.84 408.723 392.35C408.933 391.71 409.133 391.07 409.333 390.43C400.403 388.96 391.343 388.14 382.203 387.97L390.333 378.23C396.513 379.3 402.693 380.37 408.883 381.43C409.903 381.61 410.923 381.79 411.953 381.96C412.143 381.32 412.333 380.69 412.523 380.06C411.003 379.8 409.503 379.51 407.993 379.26L391.803 376.46L398.683 368.22C404.403 368.2 410.103 368.44 415.763 368.92C415.943 368.27 416.133 367.62 416.303 366.98C411.003 366.53 405.673 366.29 400.313 366.26C402.993 363.05 405.663 359.85 408.343 356.64C411.883 356.75 415.393 357.03 418.883 357.47C419.053 356.81 419.223 356.17 419.393 355.53C416.263 355.13 413.103 354.86 409.933 354.73C411.543 352.79 413.163 350.86 414.773 348.92C416.863 348.97 418.953 349.03 421.033 349.08C421.203 348.41 421.363 347.76 421.513 347.13L416.373 347C418.783 344.11 421.193 341.22 423.603 338.33C424.303 335.24 424.663 333.56 424.663 333.56C424.663 333.56 423.093 334.2 420.233 335.43L412.163 345.1C412.303 343.05 412.283 341.01 412.133 339C411.513 339.28 410.873 339.57 410.213 339.87C410.363 342.47 410.273 345.12 409.923 347.78C408.043 350.03 406.163 352.28 404.293 354.53C404.563 350.54 404.483 346.59 404.063 342.7C403.443 342.99 402.813 343.28 402.173 343.58C402.593 347.7 402.613 351.89 402.213 356.12C402.183 356.4 402.263 356.63 402.403 356.8C398.953 360.94 395.493 365.08 392.043 369.22C392.013 362.4 391.743 355.6 391.243 348.83C390.613 349.14 389.973 349.45 389.333 349.77C389.853 357 390.113 364.27 390.093 371.56C386.983 375.28 383.883 379.01 380.773 382.73C380.593 373.36 380.173 364.02 379.523 354.7C378.883 355.03 378.253 355.35 377.603 355.69C378.273 365.44 378.693 375.23 378.843 385.04C375.033 389.6 371.233 394.17 367.423 398.73C367.593 386.29 367.293 373.89 366.513 361.54C365.873 361.88 365.233 362.23 364.593 362.58C365.373 375.39 365.653 388.25 365.413 401.15C362.903 404.16 360.393 407.17 357.883 410.17C355.783 396.71 353.693 383.26 351.593 369.8C350.983 370.15 350.363 370.5 349.753 370.85C351.903 384.63 354.043 398.41 356.193 412.19C351.323 418.02 346.453 423.86 341.593 429.69C341.773 412.04 340.983 394.46 339.233 377.03C338.603 377.41 337.973 377.79 337.343 378.17C339.103 396.03 339.853 414.02 339.593 432.09C335.133 437.43 330.673 442.78 326.213 448.12C323.583 428.8 320.953 409.49 318.333 390.17C317.723 390.57 317.103 390.98 316.493 391.39C319.163 410.99 321.823 430.59 324.493 450.19C322.793 452.23 321.093 454.26 319.393 456.3C317.323 458.78 315.253 461.26 313.193 463.73C309.873 442.66 306.553 421.6 303.233 400.53C302.633 400.96 302.033 401.39 301.433 401.82C304.793 423.13 308.143 444.44 311.503 465.75C308.313 469.57 305.123 473.39 301.933 477.22C296.433 456.13 290.943 435.05 285.443 413.96C284.873 414.41 284.303 414.87 283.733 415.33L300.263 478.75C300.293 478.87 300.343 478.96 300.403 479.05C295.843 484.51 291.283 489.98 286.733 495.44C281.423 472.41 276.113 449.38 270.803 426.35C270.233 426.86 269.673 427.37 269.113 427.88C274.453 451.04 279.793 474.2 285.133 497.36C281.723 501.45 278.303 505.55 274.893 509.64C267.253 488.09 259.623 466.54 251.983 445C251.473 445.57 250.963 446.14 250.453 446.71C258.103 468.29 265.743 489.87 273.393 511.44C269.753 515.8 266.123 520.16 262.483 524.51C252.843 504.78 244.353 484.46 237.043 463.63C236.563 464.31 236.083 464.99 235.623 465.67C242.943 486.37 251.443 506.58 261.073 526.19C255.173 533.26 249.273 540.33 243.373 547.4C234.693 529.76 226.893 511.67 219.973 493.2C219.573 494.09 219.193 494.98 218.813 495.86C225.633 513.89 233.303 531.55 241.803 548.78C241.853 548.89 241.923 548.97 241.993 549.04C239.513 552.01 237.033 554.99 234.543 557.96C226.983 544.23 219.423 530.49 211.863 516.76C211.623 517.75 211.403 518.74 211.193 519.72C218.513 533.02 225.833 546.32 233.153 559.62C230.693 562.57 228.243 565.51 225.783 568.45C226.903 569.43 228.063 570.35 229.273 571.22C229.953 570.4 230.633 569.59 231.313 568.77C244.873 571.93 258.433 575.09 271.993 578.24C273.213 577.89 274.433 577.5 275.653 577.05L232.733 567.06C234.933 564.43 237.123 561.8 239.323 559.17C256.293 562.96 273.263 566.75 290.223 570.54C291.103 570.08 291.993 569.59 292.893 569.1C275.513 565.22 258.133 561.33 240.753 557.45C244.163 553.37 247.563 549.29 250.973 545.21C270.123 549.86 289.273 554.51 308.413 559.16C309.103 558.66 309.793 558.14 310.493 557.62C291.123 552.92 271.763 548.21 252.393 543.51C255.363 539.95 258.333 536.39 261.303 532.83C261.383 532.73 261.473 532.63 261.553 532.53C282.243 536.45 302.643 541.44 322.673 547.5C323.243 546.98 323.813 546.46 324.383 545.93C304.273 539.81 283.783 534.76 263.003 530.78C263.383 530.32 263.763 529.86 264.153 529.41C264.253 529.33 264.333 529.23 264.393 529.12C266.883 526.14 269.373 523.15 271.863 520.17C294.423 522.72 316.763 526.35 338.833 531.05C339.333 530.48 339.823 529.9 340.323 529.33C318.263 524.65 295.923 521 273.373 518.41Z" fill="#7A7AB9"/>
<path id="Vector_104" d="M41.743 72.6299C41.743 72.6299 -10.827 192.39 2.02299 277.87C6.38299 306.88 15.803 327.87 26.343 342.93C48.323 374.34 93.753 371.99 109.413 338.63C116.923 322.63 122.183 300.89 120.873 271.72C117.023 185.78 41.743 72.6299 41.743 72.6299Z" fill="#EA5A78"/>
<path id="Vector_105" d="M66.453 299.44C65.863 293.52 65.273 287.59 64.693 281.66C82.543 270.48 100.383 259.31 118.233 248.14C118.113 247.45 117.993 246.75 117.863 246.06C100.073 257.2 82.273 268.35 64.473 279.49C63.913 273.89 63.363 268.29 62.803 262.68C79.693 251.7 97.083 241.52 114.923 232.19C114.773 231.54 114.613 230.9 114.453 230.25C96.703 239.52 79.403 249.61 62.583 260.49C62.053 255.11 61.513 249.73 60.983 244.35C77.443 234.7 93.913 225.04 110.373 215.39C110.183 214.75 109.983 214.11 109.793 213.47C93.453 223.05 77.113 232.63 60.773 242.21C60.213 236.57 59.653 230.92 59.093 225.28C73.633 214.88 88.603 205.11 103.973 196.01C103.753 195.39 103.523 194.76 103.293 194.14C88.073 203.13 73.263 212.76 58.863 223.03C58.283 217.22 57.713 211.41 57.133 205.6C70.323 196.45 83.903 187.91 97.863 180C97.613 179.39 97.373 178.78 97.123 178.17C83.343 185.96 69.933 194.37 56.913 203.37C56.443 198.64 55.973 193.9 55.503 189.17C67.063 180.39 79.023 172.19 91.363 164.57C91.093 163.96 90.833 163.36 90.563 162.76C78.433 170.24 66.663 178.29 55.273 186.89C54.703 181.12 54.133 175.35 53.553 169.58C62.693 161.07 72.723 153.67 83.493 147.44C83.213 146.85 82.923 146.26 82.643 145.68C72.123 151.75 62.313 158.95 53.313 167.17C53.123 165.21 52.923 163.24 52.733 161.27C52.873 160.96 52.863 160.58 52.633 160.25C52.493 158.83 52.353 157.4 52.213 155.98C59.703 148.02 68.543 141.61 78.393 137C78.103 136.42 77.813 135.83 77.513 135.26C67.973 139.73 59.353 145.86 51.963 153.44C51.533 149.11 51.103 144.79 50.673 140.47C57.313 134.5 64.373 129.08 71.823 124.23C71.513 123.65 71.213 123.07 70.903 122.49C63.713 127.16 56.873 132.37 50.443 138.09L49.243 126.03L64.293 116.44C65.123 115.91 65.963 115.39 66.783 114.85C66.473 114.28 66.163 113.71 65.853 113.15C64.623 113.94 63.383 114.7 62.163 115.47C57.783 118.26 53.403 121.05 49.023 123.84C48.683 120.44 48.353 117.04 48.013 113.64C51.953 109.97 56.053 106.5 60.303 103.22C59.973 102.64 59.643 102.07 59.323 101.51C55.343 104.58 51.493 107.81 47.773 111.21C47.383 107.24 46.983 103.27 46.593 99.3099C49.113 97.1299 51.743 95.0799 54.453 93.1599C54.113 92.5899 53.783 92.0199 53.453 91.4699C51.013 93.1899 48.643 95.0199 46.363 96.9499C46.123 94.5599 45.883 92.1599 45.653 89.7699L50.093 85.8799C49.743 85.2999 49.393 84.7399 49.063 84.1999C47.843 85.2699 46.633 86.3299 45.423 87.3999C45.063 83.8199 44.713 80.2399 44.353 76.6699C42.683 74.0499 41.743 72.6399 41.743 72.6399C41.743 72.6399 41.103 74.0899 39.993 76.7899C40.383 80.7799 40.783 84.7699 41.183 88.7499C39.843 87.2199 38.403 85.7999 36.893 84.4699C36.663 85.0599 36.423 85.6799 36.173 86.3099C38.093 88.0499 39.883 89.9699 41.513 92.0599C41.793 94.8499 42.063 97.6299 42.343 100.41C39.743 97.4199 36.923 94.6899 33.913 92.2299C33.683 92.8299 33.463 93.4399 33.223 94.0599C36.393 96.6899 39.333 99.6299 42.013 102.87C42.193 103.08 42.403 103.19 42.623 103.23C43.133 108.35 43.633 113.47 44.143 118.59C39.353 113.8 34.413 109.19 29.333 104.74C29.113 105.36 28.893 105.99 28.673 106.63C34.093 111.39 39.353 116.34 44.433 121.49C44.893 126.1 45.343 130.7 45.803 135.31C39.123 128.83 32.303 122.52 25.343 116.37C25.133 117 24.923 117.64 24.713 118.29C31.993 124.73 39.123 131.36 46.093 138.17C46.653 143.82 47.213 149.46 47.773 155.11C39.203 146.24 30.313 137.7 21.143 129.5C20.943 130.15 20.743 130.8 20.543 131.46C30.043 139.98 39.223 148.86 48.073 158.1C48.443 161.82 48.813 165.54 49.183 169.27C38.323 161.13 27.473 152.99 16.613 144.85C16.433 145.49 16.253 146.13 16.073 146.77C27.193 155.1 38.313 163.44 49.423 171.77C50.143 178.99 50.853 186.21 51.573 193.43C39.353 180.89 26.523 169.01 13.123 157.85C12.953 158.52 12.783 159.18 12.613 159.85C26.313 171.3 39.413 183.5 51.873 196.39C52.533 203 53.183 209.61 53.843 216.22C38.523 204.29 23.193 192.37 7.87296 180.44C7.73296 181.12 7.59296 181.79 7.45296 182.47C22.993 194.57 38.543 206.67 54.093 218.77C54.343 221.29 54.593 223.81 54.843 226.33C55.143 229.4 55.453 232.46 55.753 235.53C38.733 222.81 21.713 210.09 4.68296 197.38C4.56296 198.07 4.45296 198.76 4.34296 199.45C21.563 212.31 38.783 225.18 55.993 238.04C56.463 242.77 56.933 247.5 57.403 252.23C38.863 240.89 20.323 229.55 1.78296 218.21C1.71296 218.89 1.63296 219.58 1.56296 220.27C20.153 231.64 38.743 243.01 57.323 254.38C57.423 254.44 57.523 254.48 57.623 254.5L59.633 274.78L0.322962 236.29C0.282962 237.01 0.252961 237.73 0.222961 238.45C20.103 251.35 39.983 264.25 59.873 277.15C60.373 282.22 60.873 287.28 61.383 292.34C41.043 282.04 20.693 271.74 0.352962 261.45C0.392962 262.18 0.442962 262.9 0.492962 263.63C20.863 273.94 41.233 284.25 61.603 294.57C62.143 299.96 62.673 305.35 63.213 310.75C42.753 303.01 22.683 294.12 3.08296 284.12C3.22296 284.91 3.37296 285.69 3.52296 286.46C23.053 296.36 43.053 305.17 63.423 312.83C64.293 321.57 65.153 330.32 66.023 339.07C47.693 332.19 29.663 324.43 11.963 315.84C12.313 316.73 12.663 317.59 13.023 318.45C30.343 326.79 47.993 334.33 65.913 341.04C66.023 341.08 66.123 341.09 66.223 341.1C66.593 344.78 66.953 348.46 67.323 352.14C52.483 347.3 37.653 342.46 22.833 337.61C23.363 338.47 23.903 339.31 24.443 340.13C38.803 344.82 53.163 349.51 67.513 354.21C67.873 357.85 68.233 361.49 68.593 365.14C70.053 365.11 71.503 365.02 72.943 364.86C72.843 363.85 72.743 362.84 72.643 361.83C84.223 355.39 95.793 348.95 107.373 342.52C107.973 341.5 108.533 340.44 109.073 339.34C96.863 346.13 84.653 352.92 72.433 359.72C72.113 356.46 71.783 353.21 71.463 349.95C85.833 341.78 100.213 333.62 114.583 325.45C114.873 324.56 115.143 323.65 115.423 322.73C100.703 331.1 85.983 339.46 71.253 347.83C70.753 342.78 70.253 337.73 69.753 332.68C86.233 323.72 102.713 314.77 119.193 305.81C119.313 305.01 119.433 304.21 119.543 303.4C102.873 312.46 86.203 321.52 69.543 330.57C69.103 326.16 68.673 321.76 68.233 317.35C68.223 317.23 68.213 317.11 68.193 316.99C85.223 306.53 102.813 297.02 120.893 288.49C120.923 287.76 120.953 287.03 120.973 286.29C102.793 294.83 85.113 304.35 67.983 314.83C67.923 314.26 67.873 313.7 67.813 313.13C67.823 313.01 67.813 312.89 67.773 312.77C67.403 309.08 67.043 305.39 66.673 301.7C84.043 289.09 102.013 277.37 120.553 266.58C120.503 265.86 120.443 265.14 120.373 264.42C101.823 275.16 83.843 286.85 66.453 299.44Z" fill="#7A7AB9"/>
<path id="Vector_106" d="M422.663 529.15C424.193 518.94 424.253 513.08 436.963 512.55C449.663 512.02 449.413 502.61 450.953 492.4C452.493 482.19 459.913 473.37 479.873 467.08C499.843 460.79 495.983 449.17 499.173 438.56C502.373 427.96 503.683 425.59 517.733 418.41C531.783 411.23 529.813 399.06 527.493 386.51C525.173 373.96 553.813 337.71 553.813 337.71C553.813 337.71 535.533 335.56 517.703 353.26C499.873 370.95 501.003 349.55 481.023 360.68C461.053 371.8 467.103 388.97 450.813 386.79C434.523 384.6 420.953 387.44 408.773 411.12C396.583 434.8 378.373 421.96 366.153 436.99C353.923 452.02 370.203 463.88 354.893 471.34C339.593 478.8 331.153 478.48 332.753 495.24C334.353 512 312.933 512.97 311.333 534.74C311.273 535.54 311.243 536.39 311.233 537.29C310.953 561.97 333.263 579.12 356.853 571.84C362.213 570.18 366.643 567.61 368.903 563.68C377.933 547.96 379.613 549.2 393.743 554.49C407.873 559.75 421.123 539.36 422.663 529.15Z" fill="#7A7AB9"/>
<path id="Vector_107" d="M476.593 446.08C469.913 442.6 462.773 440.1 455.293 438.66C462.633 431.63 469.833 424.43 476.803 416.96C479.233 414.36 481.643 411.73 484.043 409.09C484.173 409.09 484.313 409.06 484.463 408.99C491.293 406.07 498.393 404.35 505.613 403.89C507.113 403.8 507.243 401.41 505.733 401.5C499.513 401.89 493.373 403.17 487.403 405.34C502.473 388.5 516.853 371.04 531.223 353.6C532.213 352.39 530.663 350.73 529.663 351.95C515.913 368.64 502.163 385.33 487.803 401.49C488.093 394.84 487.453 388.29 485.863 381.97C485.493 380.51 483.203 381.16 483.573 382.62C485.303 389.51 485.903 396.65 485.333 403.91C485.323 404.03 485.333 404.13 485.353 404.23C484.173 405.55 482.993 406.86 481.803 408.16C472.483 418.41 462.833 428.29 452.903 437.86C451.603 429.42 449.613 421.19 446.923 413.2C446.453 411.8 444.153 412.44 444.633 413.85C447.473 422.26 449.543 430.94 450.823 439.85C443.853 446.51 436.743 453.03 429.503 459.43C421.643 466.38 413.693 473.22 405.723 480.04C405.283 471.56 404.303 463.18 402.733 454.93C402.453 453.44 400.163 454.1 400.443 455.58C402.043 464.04 403.063 472.63 403.453 481.33C403.463 481.53 403.513 481.71 403.593 481.85C393.803 490.23 384.003 498.59 374.343 507.12C372.513 508.74 370.693 510.37 368.873 512C368.053 505.33 366.413 498.91 364.003 492.77C363.453 491.38 361.363 492.62 361.903 493.99C364.343 500.21 365.933 506.75 366.693 513.52C366.713 513.66 366.753 513.77 366.793 513.88C351.663 527.58 342.603 535.85 328.863 551.05C312.303 569.37 332.913 549.76 340.963 541.59C349.603 532.81 358.563 524.37 367.683 516.13C367.713 516.1 367.753 516.06 367.793 516.03C375.373 518.55 382.623 521.77 389.533 525.68C390.803 526.4 392.073 524.3 390.793 523.57C384.133 519.8 377.133 516.67 369.863 514.17C381.693 503.55 393.753 493.2 405.793 482.84C413.813 485.6 421.833 488.36 429.853 491.13C431.243 491.61 431.953 489.28 430.573 488.8C423.023 486.2 415.483 483.6 407.933 481C423.223 467.83 438.463 454.6 453.123 440.7C460.933 442.05 468.373 444.55 475.313 448.17C476.623 448.86 477.893 446.76 476.593 446.08Z" fill="#692471"/>
<path id="Vector_108" d="M491.413 373.52C491.593 374.59 491.773 375.66 491.953 376.73C492.113 377.67 492.763 378.42 493.793 378.29C494.653 378.18 495.623 377.24 495.463 376.29C495.283 375.22 495.103 374.15 494.923 373.08C494.763 372.14 494.113 371.39 493.083 371.52C492.223 371.62 491.253 372.57 491.413 373.52Z" fill="#692471"/>
<path id="Vector_109" d="M500.903 371.88C500.343 372.9 499.783 373.92 499.223 374.94C498.743 375.81 499.193 376.93 500.003 377.28C500.893 377.67 501.883 377.18 502.363 376.3C502.923 375.28 503.483 374.26 504.043 373.24C504.523 372.37 504.073 371.25 503.263 370.9C502.373 370.51 501.383 371 500.903 371.88Z" fill="#692471"/>
<path id="Vector_110" d="M481.823 372.04L482.433 375.73C482.593 376.67 483.243 377.42 484.263 377.29C485.123 377.18 486.093 376.23 485.933 375.29L485.323 371.6C485.163 370.66 484.513 369.91 483.483 370.04C482.633 370.15 481.673 371.1 481.823 372.04Z" fill="#692471"/>
<path id="Vector_111" d="M510.713 389.71C510.013 390.4 509.323 391.08 508.623 391.77C507.933 392.45 508.093 393.78 508.773 394.28C509.583 394.89 510.513 394.66 511.243 393.94C511.943 393.25 512.633 392.57 513.333 391.88C514.023 391.2 513.863 389.87 513.183 389.36C512.383 388.76 511.453 388.98 510.713 389.71Z" fill="#692471"/>
<path id="Vector_112" d="M515.773 400.28C515.543 400.39 515.323 400.49 515.093 400.57C514.973 400.61 514.863 400.65 514.743 400.69C514.863 400.66 514.863 400.66 514.743 400.69C514.533 400.74 514.323 400.77 514.113 400.8C514.043 400.81 513.423 400.85 513.653 400.85C512.743 400.84 511.743 401.34 511.573 402.39C511.433 403.26 511.953 404.4 512.923 404.41C514.263 404.42 515.563 404.22 516.833 403.62C517.683 403.21 518.313 402.21 517.973 401.29C517.663 400.44 516.683 399.84 515.773 400.28Z" fill="#692471"/>
<path id="Vector_113" d="M510.633 409.7C509.643 409.14 508.643 408.58 507.653 408.03C506.853 407.58 505.693 408.17 505.293 409.01C504.833 409.98 505.263 410.9 506.073 411.35C507.063 411.91 508.063 412.46 509.053 413.02C509.853 413.47 511.013 412.88 511.413 412.04C511.873 411.07 511.443 410.15 510.633 409.7Z" fill="#692471"/>
<path id="Vector_114" d="M431.933 409.81C432.983 410.32 434.043 410.83 435.103 411.35C435.933 411.75 437.043 411.25 437.453 410.37C437.893 409.45 437.503 408.43 436.673 408.03L433.503 406.49C432.673 406.09 431.563 406.59 431.143 407.47C430.713 408.39 431.093 409.41 431.933 409.81Z" fill="#692471"/>
<path id="Vector_115" d="M440.823 401.84C441.183 403.04 441.543 404.24 441.903 405.44C442.553 407.6 445.893 406.26 445.253 404.1C444.893 402.9 444.533 401.7 444.173 400.5C443.523 398.34 440.183 399.69 440.823 401.84Z" fill="#692471"/>
<path id="Vector_116" d="M452.993 401.44C452.153 402.39 451.593 403.56 451.323 404.77C451.123 405.7 451.753 406.7 452.673 406.79C453.623 406.88 454.533 406.25 454.753 405.25C454.773 405.17 454.963 404.56 454.813 404.94C454.893 404.74 454.973 404.55 455.063 404.36C455.113 404.27 455.163 404.17 455.213 404.09C455.093 404.27 455.093 404.27 455.213 404.1C455.343 403.93 455.473 403.77 455.613 403.61C456.253 402.88 456.173 401.63 455.463 401.09C454.703 400.52 453.673 400.66 452.993 401.44Z" fill="#692471"/>
<path id="Vector_117" d="M458.733 408.83C458.153 409.43 457.583 410.03 457.003 410.63C456.333 411.32 456.463 412.63 457.153 413.15C457.943 413.74 458.913 413.55 459.633 412.81C460.213 412.21 460.783 411.61 461.363 411.01C462.033 410.31 461.903 409.01 461.213 408.49C460.423 407.89 459.453 408.08 458.733 408.83Z" fill="#692471"/>
<path id="Vector_118" d="M477.063 437.38C476.663 438.11 476.263 438.83 475.853 439.56C475.383 440.4 475.803 441.59 476.633 441.9C477.543 442.25 478.493 441.83 478.993 440.92C479.393 440.19 479.793 439.47 480.193 438.74C480.653 437.89 480.243 436.71 479.413 436.4C478.503 436.06 477.563 436.48 477.063 437.38Z" fill="#692471"/>
<path id="Vector_119" d="M485.923 445.31C484.903 445.38 483.883 445.44 482.853 445.51C481.933 445.57 481.103 446.59 481.183 447.51C481.273 448.52 482.033 449.13 483.013 449.07C484.033 449 485.053 448.94 486.083 448.87C487.003 448.81 487.833 447.79 487.753 446.87C487.673 445.87 486.903 445.25 485.923 445.31Z" fill="#692471"/>
<path id="Vector_120" d="M481.033 456.2C480.433 455.18 479.833 454.16 479.233 453.14C478.763 452.34 477.573 452.24 476.803 452.8C475.973 453.42 475.813 454.51 476.283 455.32C476.883 456.34 477.483 457.36 478.083 458.38C478.553 459.18 479.743 459.28 480.513 458.72C481.353 458.1 481.513 457.01 481.033 456.2Z" fill="#692471"/>
<path id="Vector_121" d="M468.363 455.44C468.563 456.67 468.763 457.9 468.963 459.13C469.113 460.07 469.773 460.82 470.803 460.69C471.663 460.58 472.633 459.64 472.473 458.69L471.873 455C471.713 454.06 471.063 453.31 470.033 453.44C469.173 453.54 468.213 454.49 468.363 455.44Z" fill="#692471"/>
<path id="Vector_122" d="M392.183 456.69C391.093 456.12 390.003 455.54 388.903 454.97C388.083 454.54 386.953 455.09 386.543 455.95C386.093 456.9 386.503 457.86 387.323 458.29C388.413 458.86 389.503 459.44 390.593 460.01C391.413 460.44 392.543 459.89 392.953 459.03C393.413 458.08 393.003 457.12 392.183 456.69Z" fill="#692471"/>
<path id="Vector_123" d="M394.163 444.62C392.733 443.27 391.293 441.91 389.863 440.56C388.263 439.05 385.943 441.91 387.533 443.42C388.963 444.77 390.403 446.13 391.833 447.48C393.433 448.98 395.753 446.12 394.163 444.62Z" fill="#692471"/>
<path id="Vector_124" d="M399.653 438.66C399.833 440.35 400.013 442.04 400.183 443.73C400.423 446 403.923 445.57 403.683 443.29C403.503 441.6 403.323 439.91 403.153 438.22C402.923 435.96 399.413 436.39 399.653 438.66Z" fill="#692471"/>
<path id="Vector_125" d="M412.373 441.5L411.103 443.99C410.663 444.84 411.033 446.01 411.883 446.33C412.773 446.67 413.773 446.27 414.233 445.35C414.653 444.52 415.083 443.69 415.503 442.86C415.943 442 415.573 440.84 414.723 440.52C413.843 440.19 412.833 440.59 412.373 441.5Z" fill="#692471"/>
<path id="Vector_126" d="M415.843 453.39C414.713 454.22 413.583 455.06 412.453 455.89C410.563 457.29 412.463 460.15 414.363 458.75C415.493 457.92 416.623 457.08 417.753 456.25C419.643 454.84 417.733 451.99 415.843 453.39Z" fill="#692471"/>
<path id="Vector_127" d="M428.373 476.99C427.673 477.93 426.973 478.88 426.263 479.83C425.673 480.63 425.683 481.73 426.413 482.34C427.093 482.91 428.293 482.8 428.893 482C429.593 481.05 430.293 480.11 431.003 479.17C431.593 478.37 431.583 477.26 430.853 476.65C430.163 476.08 428.973 476.19 428.373 476.99Z" fill="#692471"/>
<path id="Vector_128" d="M443.473 478.73C441.923 479.87 440.383 481.02 438.833 482.16C436.943 483.56 438.843 486.42 440.743 485.01C442.283 483.87 443.833 482.73 445.383 481.58C447.273 480.19 445.363 477.33 443.473 478.73Z" fill="#692471"/>
<path id="Vector_129" d="M441.303 493.81C439.663 492.95 438.023 492.1 436.383 491.24C434.433 490.22 432.863 493.54 434.803 494.56C436.443 495.42 438.083 496.27 439.723 497.13C441.673 498.15 443.253 494.83 441.303 493.81Z" fill="#692471"/>
<path id="Vector_130" d="M432.103 504.26C431.173 502.88 430.253 501.49 429.323 500.11C428.093 498.27 425.153 500.45 426.383 502.28C427.303 503.66 428.233 505.05 429.163 506.43C430.393 508.28 433.333 506.1 432.103 504.26Z" fill="#692471"/>
<path id="Vector_131" d="M421.273 506.12C420.633 503.64 419.643 501.34 418.333 499.19C417.183 497.3 414.233 499.48 415.393 501.37C416.543 503.26 417.373 505.28 417.933 507.46C418.483 509.65 421.833 508.3 421.273 506.12Z" fill="#692471"/>
<path id="Vector_132" d="M352.723 497.94C350.963 497.67 349.203 497.39 347.443 497.12C345.243 496.78 344.513 500.33 346.713 500.68C348.473 500.95 350.233 501.23 351.993 501.5C354.193 501.84 354.923 498.28 352.723 497.94Z" fill="#692471"/>
<path id="Vector_133" d="M349.123 489.66C350.193 490.67 351.253 491.69 352.323 492.7C352.993 493.33 354.203 493.09 354.803 492.36C355.463 491.55 355.323 490.48 354.653 489.85C353.583 488.83 352.523 487.82 351.453 486.81C350.783 486.17 349.583 486.41 348.973 487.15C348.303 487.95 348.453 489.02 349.123 489.66Z" fill="#692471"/>
<path id="Vector_134" d="M356.543 478.41C357.313 479.56 358.083 480.72 358.863 481.87C360.093 483.7 363.033 481.53 361.803 479.69C361.033 478.54 360.263 477.38 359.493 476.23C358.253 474.4 355.303 476.57 356.543 478.41Z" fill="#692471"/>
<path id="Vector_135" d="M371.163 480.57C370.853 481.83 370.543 483.1 370.233 484.36C370.003 485.29 370.673 486.29 371.583 486.38C372.553 486.47 373.423 485.83 373.663 484.84C373.973 483.58 374.283 482.31 374.593 481.05C374.823 480.12 374.153 479.12 373.243 479.03C372.273 478.94 371.403 479.58 371.163 480.57Z" fill="#692471"/>
<path id="Vector_136" d="M374.203 491.23C373.423 492.06 372.653 492.9 371.873 493.73C371.193 494.46 371.353 495.69 372.023 496.25C372.773 496.87 373.823 496.64 374.503 495.91C375.283 495.08 376.053 494.25 376.833 493.41C377.513 492.68 377.353 491.45 376.683 490.89C375.923 490.26 374.883 490.5 374.203 491.23Z" fill="#692471"/>
<path id="Vector_137" d="M389.193 509.88C387.873 510.43 386.543 510.97 385.223 511.52C383.073 512.41 384.133 515.74 386.283 514.85C387.603 514.3 388.923 513.76 390.253 513.21C392.393 512.32 391.333 508.99 389.193 509.88Z" fill="#692471"/>
<path id="Vector_138" d="M398.263 515.07C396.943 515.76 395.593 516.26 394.153 516.51C391.913 516.9 392.063 520.46 394.313 520.08C396.043 519.78 397.723 519.24 399.313 518.4C400.183 517.95 400.763 517.03 400.453 516.07C400.203 515.24 399.133 514.61 398.263 515.07Z" fill="#692471"/>
<path id="Vector_139" d="M403.603 526.47C401.753 526.09 400.033 525.4 398.423 524.45C397.633 523.98 396.463 524.6 396.063 525.43C395.603 526.41 396.043 527.31 396.843 527.77C398.703 528.86 400.733 529.59 402.873 530.02C405.053 530.47 405.773 526.92 403.603 526.47Z" fill="#692471"/>
<path id="Vector_140" d="M397.413 535.8C396.093 534.36 394.783 532.92 393.463 531.47C392.833 530.78 391.563 531.12 390.983 531.81C390.283 532.66 390.513 533.64 391.133 534.33C392.453 535.77 393.763 537.21 395.083 538.65C395.713 539.34 396.983 539 397.563 538.31C398.263 537.47 398.033 536.48 397.413 535.8Z" fill="#692471"/>
<path id="Vector_141" d="M385.453 536.22C384.233 532.81 383.013 529.4 381.803 525.99C381.053 523.88 377.703 525.21 378.453 527.33C379.673 530.74 380.883 534.15 382.103 537.56C382.863 539.67 386.213 538.33 385.453 536.22Z" fill="#692471"/>
<path id="Vector_142" d="M373.993 529.37C373.143 528.1 372.293 526.83 371.443 525.57C370.213 523.73 367.273 525.91 368.503 527.75C369.353 529.02 370.203 530.29 371.053 531.55C372.283 533.39 375.223 531.21 373.993 529.37Z" fill="#692471"/>
<path id="Vector_143" d="M290.083 393.6C289.343 382.08 287.893 375.55 303.613 373.7C319.333 371.85 316.573 361.4 315.833 349.87C315.093 338.34 322.063 327.8 345.353 318.82C368.643 309.84 360.803 297.28 362.033 285.15C363.263 273.02 364.293 270.25 379.963 260.87C395.633 251.49 390.013 238.13 383.853 224.39C377.693 210.65 404.003 167.45 404.003 167.45C404.003 167.45 380.623 166.87 362.963 188.34C345.303 209.81 341.143 185.86 319.103 200.23C297.063 214.59 309.083 233.12 288.183 232.29C267.283 231.47 251.073 235.97 242.023 263.54C232.973 291.11 206.893 278.62 195.543 296.57C184.193 314.51 207.593 326.11 190.423 335.93C173.253 345.75 162.643 346.23 169.003 364.73C175.363 383.24 148.873 386.44 152.543 410.83C152.673 411.73 152.863 412.68 153.083 413.68C159.163 441.19 191.483 458.08 219.033 447.63C225.303 445.25 230.153 441.94 231.953 437.35C239.133 418.95 234.833 441.79 253.863 446.28C272.873 450.77 290.833 405.12 290.083 393.6Z" fill="#692471"/>
<path id="Vector_144" d="M335.803 295.76C326.553 292.54 316.983 290.47 307.283 289.6C314.623 281.05 321.723 272.31 328.483 263.31C330.843 260.17 333.173 257.01 335.473 253.83C335.633 253.81 335.803 253.77 335.973 253.68C343.743 249.76 352.153 247.13 361.053 245.91C362.903 245.66 362.443 242.98 360.583 243.24C352.923 244.29 345.583 246.33 338.703 249.33C353.133 229.09 366.543 208.22 379.943 187.37C380.873 185.93 378.503 184.23 377.563 185.68C364.743 205.62 351.913 225.58 338.203 244.99C336.843 237.56 334.333 230.32 330.693 223.44C329.853 221.85 327.163 222.8 328.003 224.4C331.963 231.91 334.563 239.79 335.743 247.93C335.763 248.06 335.803 248.18 335.853 248.29C334.723 249.87 333.593 251.45 332.453 253.02C323.493 265.36 314.013 277.31 304.103 288.95C300.293 279.68 295.663 270.71 290.213 262.09C289.253 260.57 286.553 261.52 287.523 263.05C293.263 272.13 298.103 281.6 302.023 291.39C295.053 299.5 287.873 307.46 280.503 315.3C272.503 323.82 264.353 332.22 256.183 340.6C253.433 331.21 250.023 321.97 245.923 312.94C245.183 311.31 242.493 312.27 243.233 313.9C247.433 323.16 250.943 332.63 253.693 342.28C253.753 342.51 253.873 342.69 254.003 342.85C243.963 353.15 233.903 363.43 224.063 373.89C222.203 375.87 220.353 377.87 218.503 379.86C215.743 372.52 212.023 365.53 207.413 358.93C206.373 357.44 204.083 359.02 205.113 360.5C209.783 367.18 213.463 374.31 216.173 381.77C216.233 381.92 216.313 382.05 216.393 382.16C201.073 398.91 191.913 409.02 178.713 427.3C162.803 449.34 183.433 425.47 191.353 415.57C199.853 404.94 208.843 394.65 218.093 384.57C218.133 384.53 218.163 384.49 218.203 384.45C228.323 386.5 238.223 389.37 247.853 393.04C249.633 393.72 250.663 391.25 248.883 390.57C239.583 387.03 230.033 384.24 220.303 382.17C232.313 369.17 244.673 356.46 257.013 343.73C267.743 346.01 278.473 348.29 289.213 350.58C291.073 350.98 291.353 348.31 289.503 347.92C279.403 345.78 269.303 343.63 259.213 341.48C274.883 325.3 290.463 309.06 305.143 292.12C315.243 292.85 325.183 294.89 334.793 298.24C336.563 298.85 337.603 296.38 335.803 295.76Z" fill="#EA5A78"/>
<path id="Vector_145" d="M363.723 229.61C363.033 230.44 362.343 231.28 361.643 232.11C360.963 232.93 361.513 234.4 362.483 234.89C363.653 235.49 364.753 235.15 365.483 234.27C366.173 233.44 366.863 232.6 367.563 231.77C368.243 230.95 367.703 229.48 366.723 228.98C365.563 228.39 364.453 228.73 363.723 229.61Z" fill="#EA5A78"/>
<path id="Vector_146" d="M372.793 240.88C372.543 241.02 372.283 241.16 372.013 241.27C371.873 241.33 371.743 241.38 371.603 241.43C371.753 241.39 371.753 241.39 371.603 241.43C371.363 241.5 371.103 241.57 370.843 241.61C370.763 241.63 370.003 241.73 370.283 241.71C369.143 241.79 368.023 242.45 368.083 243.63C368.133 244.61 369.073 245.83 370.293 245.74C371.963 245.62 373.543 245.27 374.963 244.47C375.923 243.93 376.443 242.75 375.783 241.76C375.203 240.87 373.823 240.3 372.793 240.88Z" fill="#EA5A78"/>
<path id="Vector_147" d="M368.833 251.87C367.443 251.35 366.053 250.82 364.673 250.3C363.553 249.88 362.263 250.65 361.983 251.62C361.663 252.74 362.443 253.73 363.563 254.15C364.953 254.67 366.333 255.19 367.723 255.72C368.843 256.14 370.133 255.37 370.413 254.4C370.733 253.28 369.953 252.29 368.833 251.87Z" fill="#EA5A78"/>
<path id="Vector_148" d="M270.593 259.79C272.043 260.25 273.493 260.72 274.943 261.19C276.083 261.55 277.343 260.88 277.623 259.87C277.933 258.8 277.183 257.71 276.043 257.34L271.693 255.94C270.553 255.58 269.293 256.25 269.003 257.26C268.703 258.34 269.443 259.43 270.593 259.79Z" fill="#EA5A78"/>
<path id="Vector_149" d="M279.623 250.04C280.383 251.34 281.143 252.64 281.913 253.94C283.283 256.28 287.113 254.45 285.743 252.12C284.983 250.82 284.223 249.52 283.453 248.22C282.083 245.88 278.253 247.71 279.623 250.04Z" fill="#EA5A78"/>
<path id="Vector_150" d="M294.713 248.38C293.913 249.52 293.513 250.87 293.493 252.26C293.483 253.31 294.523 254.37 295.703 254.37C296.913 254.38 297.883 253.58 297.903 252.45C297.903 252.36 297.983 251.66 297.903 252.1C297.943 251.87 297.993 251.65 298.063 251.43C298.103 251.32 298.133 251.21 298.183 251.11C298.083 251.32 298.083 251.33 298.183 251.12C298.303 250.92 298.413 250.73 298.553 250.54C299.163 249.67 298.743 248.28 297.713 247.75C296.613 247.19 295.363 247.46 294.713 248.38Z" fill="#EA5A78"/>
<path id="Vector_151" d="M303.803 256.04C303.243 256.76 302.673 257.49 302.113 258.21C301.453 259.05 301.953 260.49 302.953 261C304.093 261.58 305.253 261.27 305.953 260.37C306.513 259.65 307.083 258.92 307.643 258.2C308.303 257.36 307.803 255.92 306.803 255.41C305.673 254.83 304.513 255.14 303.803 256.04Z" fill="#EA5A78"/>
<path id="Vector_152" d="M334.123 286.03C333.813 286.88 333.503 287.73 333.183 288.58C332.823 289.57 333.653 290.84 334.763 291.11C335.993 291.41 337.063 290.85 337.443 289.79C337.753 288.94 338.063 288.09 338.383 287.24C338.743 286.25 337.913 284.98 336.803 284.71C335.583 284.41 334.513 284.97 334.123 286.03Z" fill="#EA5A78"/>
<path id="Vector_153" d="M347.253 293.98C345.993 294.16 344.733 294.33 343.473 294.51C342.343 294.67 341.563 295.89 341.913 296.9C342.283 298.01 343.403 298.62 344.613 298.46C345.873 298.29 347.133 298.11 348.393 297.94C349.523 297.78 350.303 296.56 349.953 295.55C349.573 294.42 348.463 293.81 347.253 293.98Z" fill="#EA5A78"/>
<path id="Vector_154" d="M343.983 306.59C342.963 305.52 341.953 304.43 340.933 303.36C340.133 302.51 338.623 302.52 337.813 303.22C336.933 303.99 337.023 305.22 337.823 306.07C338.843 307.15 339.853 308.23 340.873 309.3C341.673 310.15 343.183 310.14 343.993 309.44C344.873 308.67 344.783 307.44 343.983 306.59Z" fill="#EA5A78"/>
<path id="Vector_155" d="M327.963 306.99C328.533 308.34 329.103 309.69 329.683 311.04C330.123 312.07 331.143 312.84 332.383 312.6C333.423 312.4 334.393 311.25 333.943 310.21L332.233 306.16C331.793 305.13 330.783 304.36 329.533 304.6C328.483 304.8 327.523 305.95 327.963 306.99Z" fill="#EA5A78"/>
<path id="Vector_156" d="M233.173 315.93C231.663 315.4 230.153 314.87 228.633 314.34C227.503 313.94 226.223 314.67 225.943 315.66C225.633 316.76 226.393 317.79 227.533 318.19C229.043 318.72 230.553 319.25 232.063 319.78C233.193 320.18 234.473 319.45 234.753 318.46C235.073 317.36 234.313 316.33 233.173 315.93Z" fill="#EA5A78"/>
<path id="Vector_157" d="M232.503 302.29C230.363 300.93 228.213 299.56 226.073 298.19C223.693 296.67 221.533 300.08 223.913 301.6C226.053 302.97 228.203 304.33 230.343 305.7C232.723 307.22 234.883 303.81 232.503 302.29Z" fill="#EA5A78"/>
<path id="Vector_158" d="M237.803 295.12C238.463 296.98 239.133 298.85 239.793 300.71C240.683 303.21 244.943 302.39 244.053 299.88C243.393 298.01 242.733 296.15 242.073 294.29C241.183 291.78 236.913 292.61 237.803 295.12Z" fill="#EA5A78"/>
<path id="Vector_159" d="M254.423 297.02L253.493 299.92C253.173 300.92 253.933 302.18 255.073 302.45C256.273 302.74 257.413 302.2 257.763 301.13C258.073 300.17 258.383 299.2 258.693 298.23C259.013 297.23 258.253 295.98 257.113 295.7C255.913 295.41 254.763 295.96 254.423 297.02Z" fill="#EA5A78"/>
<path id="Vector_160" d="M261.853 309.91C260.663 310.95 259.463 311.99 258.273 313.03C256.273 314.78 259.393 317.77 261.403 316.02C262.603 314.98 263.793 313.94 264.983 312.9C266.973 311.16 263.853 308.16 261.853 309.91Z" fill="#EA5A78"/>
<path id="Vector_161" d="M283.643 334.95C283.013 336.07 282.383 337.19 281.753 338.32C281.223 339.27 281.523 340.5 282.593 341.1C283.593 341.66 285.063 341.43 285.593 340.48C286.223 339.36 286.853 338.24 287.483 337.11C288.013 336.16 287.713 334.93 286.643 334.32C285.643 333.76 284.183 334 283.643 334.95Z" fill="#EA5A78"/>
<path id="Vector_162" d="M302.943 335.4C301.313 336.83 299.673 338.25 298.043 339.68C296.043 341.43 299.173 344.42 301.173 342.67C302.803 341.25 304.433 339.82 306.073 338.39C308.073 336.64 304.953 333.65 302.943 335.4Z" fill="#EA5A78"/>
<path id="Vector_163" d="M304.173 352.4C301.903 351.61 299.633 350.82 297.363 350.03C294.673 349.09 293.573 352.94 296.263 353.88C298.533 354.67 300.803 355.46 303.073 356.26C305.763 357.2 306.863 353.34 304.173 352.4Z" fill="#EA5A78"/>
<path id="Vector_164" d="M295.403 364.95C293.883 363.5 292.373 362.05 290.853 360.6C288.843 358.68 285.733 361.39 287.753 363.31C289.263 364.76 290.783 366.21 292.303 367.66C294.303 369.59 297.413 366.88 295.403 364.95Z" fill="#EA5A78"/>
<path id="Vector_165" d="M282.353 368.09C280.913 365.39 279.063 362.92 276.873 360.67C274.943 358.68 271.833 361.4 273.763 363.38C275.693 365.37 277.243 367.53 278.523 369.91C279.803 372.3 283.623 370.46 282.353 368.09Z" fill="#EA5A78"/>
<path id="Vector_166" d="M187.983 356.91C189.573 357.93 191.173 358.96 192.773 359.98C193.773 360.62 195.213 360.23 195.773 359.35C196.393 358.38 195.933 357.21 194.933 356.56C193.333 355.54 191.743 354.51 190.143 353.49C189.143 352.85 187.703 353.23 187.143 354.11C186.523 355.09 186.983 356.27 187.983 356.91Z" fill="#EA5A78"/>
<path id="Vector_167" d="M194.323 343.65C195.583 344.86 196.853 346.06 198.113 347.27C200.123 349.19 199.453 342.86 197.433 340.94C196.173 339.73 198.693 342.15 197.433 340.94C195.423 339.01 192.313 341.73 194.323 343.65Z" fill="#EA5A78"/>
<path id="Vector_168" d="M213.143 344.61C213.083 346.05 213.033 347.48 212.973 348.92C212.933 349.97 214.023 351.03 215.183 351.03C216.413 351.03 217.333 350.24 217.383 349.11C217.443 347.67 217.503 346.24 217.563 344.8C217.603 343.75 216.503 342.69 215.353 342.69C214.113 342.68 213.193 343.48 213.143 344.61Z" fill="#EA5A78"/>
<path id="Vector_169" d="M219.713 356.17C218.963 357.17 218.213 358.18 217.453 359.18C216.793 360.06 217.313 361.41 218.293 361.97C219.393 362.59 220.633 362.23 221.293 361.34C222.043 360.34 222.793 359.33 223.553 358.33C224.213 357.45 223.693 356.1 222.713 355.54C221.613 354.93 220.373 355.29 219.713 356.17Z" fill="#EA5A78"/>
<path id="Vector_170" d="M243.283 375.46C241.773 376.2 240.263 376.94 238.753 377.68C236.303 378.88 238.493 382.48 240.943 381.28C242.453 380.54 243.963 379.8 245.473 379.06C247.923 377.86 245.733 374.26 243.283 375.46Z" fill="#EA5A78"/>
<path id="Vector_171" d="M255.963 380.34C254.493 381.24 252.933 381.93 251.213 382.35C248.513 383.01 249.633 386.96 252.343 386.3C254.423 385.79 256.383 385.03 258.153 383.94C259.113 383.35 259.613 382.27 258.973 381.23C258.423 380.34 256.933 379.74 255.963 380.34Z" fill="#EA5A78"/>
<path id="Vector_172" d="M265.593 392.51C263.183 392.28 260.853 391.67 258.603 390.78C257.483 390.34 256.193 391.14 255.913 392.1C255.593 393.24 256.383 394.19 257.493 394.63C260.103 395.66 262.823 396.27 265.603 396.54C268.453 396.82 268.423 392.78 265.593 392.51Z" fill="#EA5A78"/>
<path id="Vector_173" d="M260.303 403.51C258.283 402.03 256.263 400.56 254.253 399.08C253.293 398.38 251.793 398.88 251.253 399.71C250.593 400.72 251.143 401.8 252.093 402.5C254.113 403.97 256.133 405.45 258.153 406.92C259.113 407.62 260.613 407.12 261.153 406.3C261.793 405.29 261.253 404.2 260.303 403.51Z" fill="#EA5A78"/>
<path id="Vector_174" d="M245.473 405.15C243.063 401.47 240.653 397.8 238.243 394.12C236.753 391.84 232.923 393.66 234.413 395.94C236.823 399.62 239.233 403.29 241.643 406.97C243.143 409.25 246.973 407.43 245.473 405.15Z" fill="#EA5A78"/>
<path id="Vector_175" d="M229.393 398.67C228.003 397.34 226.613 396.01 225.223 394.69C223.213 392.77 220.103 395.48 222.113 397.4C223.503 398.73 224.893 400.06 226.283 401.38C228.293 403.31 231.403 400.6 229.393 398.67Z" fill="#EA5A78"/>
<path id="Vector_176" d="M121.433 562.57C121.433 562.57 126.993 495.15 140.603 494.52C154.223 493.89 162.793 509.95 162.793 509.95C162.793 509.95 169.863 466.07 189.033 464.81C208.203 463.55 211.223 497.06 211.223 497.06C211.223 497.06 214.253 444.59 235.443 443.96C256.623 443.33 262.173 471.78 262.173 471.78C265.713 440.17 298.243 442.63 307.943 467.99C317.853 493.9 319.163 512.25 319.163 512.25C319.163 512.25 322.703 478.74 339.843 476.21C356.993 473.68 361.523 516.68 361.523 516.68C361.523 516.68 372.423 470.62 413.323 470.62C430.623 470.62 446.573 502.77 452.223 516.46C458.273 531.12 452.673 537.54 463.953 516.46C469.763 505.6 491.843 505.43 496.943 516.79C505.723 536.31 514.783 562.62 514.783 562.62L121.433 562.57Z" fill="#EA5A78"/>
<path id="Vector_177" d="M308.183 120.75C308.183 120.75 99.843 259.99 30.763 405.84C7.31296 455.34 0.262961 496.93 1.16296 530.26C3.05296 599.77 77.323 638 136.953 600.15C165.563 582 196.603 552.77 225.033 505.83C308.843 367.57 308.183 120.75 308.183 120.75Z" fill="#7A7AB9"/>
<path id="Vector_178" d="M110.063 499.08C115.333 489.25 120.603 479.42 125.863 469.59L245.543 466.43C246.083 465.23 246.613 464.03 247.133 462.83C207.353 463.88 167.573 464.93 127.793 465.98C132.773 456.69 137.753 447.39 142.733 438.1C180.913 436.48 219.043 436.56 257.013 438.38C257.443 437.22 257.873 436.06 258.293 434.9C220.543 433.06 182.643 432.91 144.683 434.46C149.463 425.53 154.253 416.6 159.033 407.67L267.393 407.84C267.763 406.66 268.123 405.48 268.483 404.29L160.943 404.12C165.963 394.76 170.973 385.4 175.993 376.04C209.853 373.14 243.733 371.65 277.543 371.57C277.843 370.39 278.133 369.2 278.423 368.01C244.973 368.06 211.473 369.5 177.983 372.31C183.153 362.67 188.313 353.03 193.483 343.39C223.903 341.2 254.303 340.35 284.633 340.83C284.883 339.65 285.133 338.46 285.373 337.28C255.453 336.79 225.463 337.59 195.463 339.69C199.673 331.84 203.873 323.99 208.083 316.13C235.533 313.03 263.023 311.2 290.493 310.64C290.703 309.45 290.913 308.26 291.123 307.07C264.123 307.6 237.103 309.36 210.113 312.35C215.233 302.78 220.373 293.21 225.493 283.64C248.833 278.73 272.443 276.38 295.963 276.55C296.133 275.37 296.303 274.19 296.473 273.01C273.493 272.81 250.463 275.05 227.643 279.64C229.393 276.38 231.133 273.12 232.883 269.86C233.423 269.5 233.823 268.91 233.793 268.17C235.063 265.81 236.323 263.45 237.593 261.09C257.763 255.52 278.443 253.63 298.813 255.49C298.963 254.31 299.103 253.12 299.253 251.95C279.503 250.17 259.463 251.82 239.863 256.87C243.703 249.7 247.553 242.52 251.393 235.35C268.133 232.11 284.953 230.13 301.803 229.4C301.933 228.2 302.053 227.01 302.173 225.83C285.913 226.52 269.673 228.37 253.513 231.39C257.083 224.72 260.663 218.05 264.233 211.38C275.513 210.99 286.783 210.61 298.063 210.23C299.923 210.17 301.793 210.12 303.663 210.05C303.763 208.86 303.873 207.69 303.973 206.51C301.213 206.61 298.443 206.66 295.703 206.75C285.863 207.09 276.023 207.42 266.183 207.75C269.203 202.11 272.223 196.47 275.243 190.83C285.303 188.72 295.423 187.06 305.563 185.83C305.643 184.62 305.733 183.43 305.803 182.24C296.303 183.38 286.833 184.9 277.403 186.8C280.933 180.22 284.463 173.63 287.993 167.05C294.263 165.95 300.553 165.16 306.853 164.67C306.913 163.46 306.973 162.26 307.033 161.09C301.373 161.54 295.733 162.22 290.093 163.14L296.473 151.22C300.163 150.55 303.863 149.88 307.553 149.21C307.603 147.98 307.643 146.78 307.683 145.62C304.643 146.17 301.613 146.72 298.583 147.27C301.763 141.34 304.943 135.4 308.123 129.47C308.223 123.82 308.223 120.74 308.223 120.74C308.223 120.74 305.693 122.43 301.113 125.63C297.573 132.25 294.023 138.86 290.483 145.48C289.963 141.84 289.173 138.29 288.183 134.82C287.193 135.53 286.173 136.27 285.123 137.04C286.343 141.54 287.163 146.19 287.543 150.98C285.063 155.6 282.593 160.22 280.123 164.84C279.133 157.76 277.533 150.88 275.353 144.23C274.363 144.96 273.373 145.7 272.353 146.46C274.613 153.51 276.193 160.84 277.043 168.38C277.103 168.88 277.323 169.25 277.623 169.51C273.073 178 268.523 186.5 263.963 194.99C261.403 183.07 258.423 171.28 255.033 159.62C254.033 160.39 253.023 161.17 252.013 161.97C255.603 174.43 258.733 187.04 261.383 199.81C257.293 207.45 253.193 215.09 249.103 222.73C245.333 206.41 241.153 190.22 236.573 174.17C235.573 174.97 234.573 175.78 233.563 176.59C238.343 193.4 242.673 210.37 246.563 227.47C241.543 236.84 236.523 246.2 231.503 255.57C227.233 233.76 222.113 212.17 216.193 190.85C215.193 191.69 214.193 192.52 213.193 193.37C219.293 215.48 224.523 237.88 228.843 260.53C225.543 266.7 222.223 272.88 218.923 279.05C210.273 256.28 201.623 233.51 192.973 210.74C192.023 211.57 191.073 212.41 190.123 213.25C198.983 236.57 207.833 259.89 216.693 283.21C210.283 295.19 203.863 307.16 197.443 319.14C191.243 288.21 183.373 257.75 173.873 227.89C172.903 228.78 171.943 229.67 170.973 230.56C180.643 261.15 188.603 292.36 194.803 324.06C188.933 335.03 183.053 346 177.173 356.97C165.423 324.14 153.683 291.31 141.933 258.48C141.003 259.41 140.073 260.35 139.153 261.28L174.913 361.21C172.673 365.39 170.433 369.57 168.193 373.76L160.013 389.02C146.413 353.38 132.803 317.74 119.193 282.11C118.293 283.08 117.393 284.05 116.493 285.03C130.253 321.08 144.013 357.13 157.783 393.18C153.583 401.02 149.373 408.87 145.173 416.72C127.723 381.84 110.273 346.96 92.823 312.08C91.983 313.09 91.153 314.1 90.323 315.1C107.813 350.07 125.303 385.04 142.803 420.01C142.903 420.2 143.023 420.35 143.153 420.48C137.143 431.69 131.133 442.91 125.123 454.12C107.293 415.77 89.453 377.42 71.623 339.07C70.813 340.17 70.013 341.26 69.213 342.36C87.143 380.93 105.083 419.49 123.013 458.06C118.513 466.46 114.013 474.86 109.513 483.26C88.133 448.35 66.743 413.44 45.363 378.53C44.673 379.71 43.983 380.89 43.303 382.08C64.723 417.04 86.133 451.99 107.543 486.95C102.753 495.89 97.963 504.84 93.163 513.79C68.913 482.79 46.493 450.33 25.953 416.57C25.353 417.94 24.763 419.3 24.203 420.65C44.723 454.19 67.123 486.44 91.303 517.24C83.533 531.75 75.753 546.27 67.973 560.78C46.203 533.08 25.803 504.28 6.81301 474.49C6.43301 476.2 6.09302 477.89 5.76302 479.57C24.423 508.63 44.423 536.72 65.733 563.77C65.863 563.94 66.013 564.06 66.163 564.16C62.893 570.27 59.613 576.37 56.343 582.48C37.973 561.21 19.603 539.94 1.24302 518.67C1.19302 520.5 1.16302 522.31 1.15302 524.1C18.943 544.7 36.733 565.3 54.523 585.9C51.283 591.94 48.043 597.99 44.803 604.03C47.133 605.33 49.523 606.52 51.963 607.61C52.863 605.94 53.753 604.26 54.653 602.59C79.683 603.18 104.713 603.76 129.743 604.35C131.753 603.29 133.763 602.15 135.743 600.94C109.333 600.32 82.933 599.7 56.523 599.09C59.413 593.68 62.313 588.28 65.203 582.88C96.463 583.34 127.723 583.79 158.983 584.25C160.363 583.11 161.753 581.95 163.143 580.76C131.123 580.29 99.103 579.83 67.083 579.36C71.573 570.98 76.063 562.6 80.553 554.22C115.973 555.38 151.383 556.55 186.803 557.71C187.833 556.58 188.853 555.43 189.883 554.26C154.063 553.08 118.243 551.91 82.423 550.73C86.343 543.42 90.263 536.11 94.173 528.8C94.283 528.6 94.393 528.4 94.493 528.19C132.353 527.51 170.093 528.82 207.593 532.13C208.403 531.02 209.213 529.89 210.023 528.76C172.363 525.37 134.443 523.99 96.413 524.61C96.913 523.67 97.423 522.73 97.923 521.79C98.073 521.61 98.183 521.41 98.243 521.2C101.523 515.08 104.803 508.95 108.083 502.83C148.723 499.08 189.393 497.3 229.963 497.49C230.633 496.31 231.293 495.13 231.943 493.93C191.363 493.67 150.703 495.4 110.063 499.08Z" fill="#692471"/>
</g>
</svg>
